G04 #@! TF.FileFunction,Legend,Bot*
%FSLAX46Y46*%
G04 Gerber Fmt 4.6, Leading zero omitted, Abs format (unit mm)*
G04 Created by KiCad (PCBNEW (2015-02-20 BZR 5437)-product) date Monday, March 16, 2015 'AMt' 09:24:06 AM*
%MOMM*%
G01*
G04 APERTURE LIST*
%ADD10C,0.100000*%
%ADD11C,0.150000*%
G04 APERTURE END LIST*
D10*
D11*
X69604000Y-120055000D02*
X70604000Y-120055000D01*
X70604000Y-118705000D02*
X69604000Y-118705000D01*
X68080000Y-127675000D02*
X69080000Y-127675000D01*
X69080000Y-126325000D02*
X68080000Y-126325000D01*
X116743480Y-115138200D02*
X116743480Y-114647980D01*
X117444520Y-115138200D02*
X116743480Y-115138200D01*
X117444520Y-111937800D02*
X116743480Y-111937800D01*
X113060480Y-121869200D02*
X113060480Y-121378980D01*
X113761520Y-121869200D02*
X113060480Y-121869200D01*
X113761520Y-118668800D02*
X113060480Y-118668800D01*
X70604000Y-113752000D02*
X69604000Y-113752000D01*
X69604000Y-115102000D02*
X70604000Y-115102000D01*
X108897420Y-110744000D02*
X109745780Y-109743240D01*
X109745780Y-109743240D02*
X109745780Y-111744760D01*
X109745780Y-111744760D02*
X108897420Y-110744000D01*
X108897420Y-110744000D02*
X108897420Y-111744760D01*
X108897420Y-110744000D02*
X108897420Y-109743240D01*
X122047000Y-113225580D02*
X121046240Y-112377220D01*
X121046240Y-112377220D02*
X123047760Y-112377220D01*
X123047760Y-112377220D02*
X122047000Y-113225580D01*
X122047000Y-113225580D02*
X123047760Y-113225580D01*
X122047000Y-113225580D02*
X121046240Y-113225580D01*
X112209580Y-123190000D02*
X111361220Y-124190760D01*
X111361220Y-124190760D02*
X111361220Y-122189240D01*
X111361220Y-122189240D02*
X112209580Y-123190000D01*
X112209580Y-123190000D02*
X112209580Y-122189240D01*
X112209580Y-123190000D02*
X112209580Y-124190760D01*
X105976420Y-117348000D02*
X106824780Y-116347240D01*
X106824780Y-116347240D02*
X106824780Y-118348760D01*
X106824780Y-118348760D02*
X105976420Y-117348000D01*
X105976420Y-117348000D02*
X105976420Y-118348760D01*
X105976420Y-117348000D02*
X105976420Y-116347240D01*
X64932000Y-125888000D02*
X64932000Y-126588000D01*
X66132000Y-126588000D02*
X66132000Y-125888000D01*
X68930000Y-129956000D02*
X68230000Y-129956000D01*
X68230000Y-131156000D02*
X68930000Y-131156000D01*
X75977000Y-124933000D02*
X76677000Y-124933000D01*
X76677000Y-123733000D02*
X75977000Y-123733000D01*
X75977000Y-123155000D02*
X76677000Y-123155000D01*
X76677000Y-121955000D02*
X75977000Y-121955000D01*
X88488000Y-117764000D02*
X87788000Y-117764000D01*
X87788000Y-118964000D02*
X88488000Y-118964000D01*
X88488000Y-113954000D02*
X87788000Y-113954000D01*
X87788000Y-115154000D02*
X88488000Y-115154000D01*
X64175000Y-99306000D02*
X64175000Y-98306000D01*
X62825000Y-98306000D02*
X62825000Y-99306000D01*
X64175000Y-103878000D02*
X64175000Y-102878000D01*
X62825000Y-102878000D02*
X62825000Y-103878000D01*
X69588000Y-91527000D02*
X68588000Y-91527000D01*
X68588000Y-92877000D02*
X69588000Y-92877000D01*
X70604000Y-117054000D02*
X69604000Y-117054000D01*
X69604000Y-118404000D02*
X70604000Y-118404000D01*
X70604000Y-115403000D02*
X69604000Y-115403000D01*
X69604000Y-116753000D02*
X70604000Y-116753000D01*
X72303000Y-96258000D02*
X72303000Y-95258000D01*
X70953000Y-95258000D02*
X70953000Y-96258000D01*
X68239000Y-96258000D02*
X68239000Y-95258000D01*
X66889000Y-95258000D02*
X66889000Y-96258000D01*
X112768000Y-136231000D02*
X111768000Y-136231000D01*
X111768000Y-137581000D02*
X112768000Y-137581000D01*
X112768000Y-138263000D02*
X111768000Y-138263000D01*
X111768000Y-139613000D02*
X112768000Y-139613000D01*
X116499000Y-138422000D02*
X116499000Y-137422000D01*
X115149000Y-137422000D02*
X115149000Y-138422000D01*
X108974000Y-113324000D02*
X109974000Y-113324000D01*
X109974000Y-111974000D02*
X108974000Y-111974000D01*
X117594000Y-110450000D02*
X116594000Y-110450000D01*
X116594000Y-111800000D02*
X117594000Y-111800000D01*
X114165000Y-116927000D02*
X113165000Y-116927000D01*
X113165000Y-118277000D02*
X114165000Y-118277000D01*
X106307000Y-120055000D02*
X107307000Y-120055000D01*
X107307000Y-118705000D02*
X106307000Y-118705000D01*
X59095000Y-109974000D02*
X59095000Y-108974000D01*
X57745000Y-108974000D02*
X57745000Y-109974000D01*
X59095000Y-114038000D02*
X59095000Y-113038000D01*
X57745000Y-113038000D02*
X57745000Y-114038000D01*
X64429000Y-126738000D02*
X64429000Y-125738000D01*
X63079000Y-125738000D02*
X63079000Y-126738000D01*
X69604000Y-125008000D02*
X70604000Y-125008000D01*
X70604000Y-123658000D02*
X69604000Y-123658000D01*
X80526000Y-134787000D02*
X81526000Y-134787000D01*
X81526000Y-133437000D02*
X80526000Y-133437000D01*
X81526000Y-132167000D02*
X80526000Y-132167000D01*
X80526000Y-133517000D02*
X81526000Y-133517000D01*
X61047000Y-125738000D02*
X61047000Y-126738000D01*
X62397000Y-126738000D02*
X62397000Y-125738000D01*
X69080000Y-128103000D02*
X68080000Y-128103000D01*
X68080000Y-129453000D02*
X69080000Y-129453000D01*
X70604000Y-122007000D02*
X69604000Y-122007000D01*
X69604000Y-123357000D02*
X70604000Y-123357000D01*
X70604000Y-120356000D02*
X69604000Y-120356000D01*
X69604000Y-121706000D02*
X70604000Y-121706000D01*
X65182000Y-110074000D02*
X65882000Y-110074000D01*
X65882000Y-108874000D02*
X65182000Y-108874000D01*
X98456000Y-131664000D02*
X99156000Y-131664000D01*
X99156000Y-130464000D02*
X98456000Y-130464000D01*
X89316000Y-122078000D02*
X89316000Y-122778000D01*
X90516000Y-122778000D02*
X90516000Y-122078000D01*
X128874000Y-129448000D02*
X128174000Y-129448000D01*
X128174000Y-130648000D02*
X128874000Y-130648000D01*
X123352000Y-106584000D02*
X123352000Y-107284000D01*
X124552000Y-107284000D02*
X124552000Y-106584000D01*
X128874000Y-126654000D02*
X128174000Y-126654000D01*
X128174000Y-127854000D02*
X128874000Y-127854000D01*
X128874000Y-123352000D02*
X128174000Y-123352000D01*
X128174000Y-124552000D02*
X128874000Y-124552000D01*
X128874000Y-120304000D02*
X128174000Y-120304000D01*
X128174000Y-121504000D02*
X128874000Y-121504000D01*
X102204000Y-84236000D02*
X101504000Y-84236000D01*
X101504000Y-85436000D02*
X102204000Y-85436000D01*
X121574000Y-106584000D02*
X121574000Y-107284000D01*
X122774000Y-107284000D02*
X122774000Y-106584000D01*
X110652000Y-87788000D02*
X110652000Y-88488000D01*
X111852000Y-88488000D02*
X111852000Y-87788000D01*
X74584000Y-89312000D02*
X74584000Y-90012000D01*
X75784000Y-90012000D02*
X75784000Y-89312000D01*
X114716000Y-87788000D02*
X114716000Y-88488000D01*
X115916000Y-88488000D02*
X115916000Y-87788000D01*
X97190000Y-94646000D02*
X97190000Y-95346000D01*
X98390000Y-95346000D02*
X98390000Y-94646000D01*
X102204000Y-86014000D02*
X101504000Y-86014000D01*
X101504000Y-87214000D02*
X102204000Y-87214000D01*
X64612000Y-84490000D02*
X63912000Y-84490000D01*
X63912000Y-85690000D02*
X64612000Y-85690000D01*
X125568000Y-111856000D02*
X125568000Y-111156000D01*
X124368000Y-111156000D02*
X124368000Y-111856000D01*
X116998000Y-116678000D02*
X117698000Y-116678000D01*
X117698000Y-115478000D02*
X116998000Y-115478000D01*
X122336000Y-125634000D02*
X122336000Y-126334000D01*
X123536000Y-126334000D02*
X123536000Y-125634000D01*
X118710000Y-120746000D02*
X118710000Y-120046000D01*
X117510000Y-120046000D02*
X117510000Y-120746000D01*
X113376000Y-127096000D02*
X113376000Y-126396000D01*
X112176000Y-126396000D02*
X112176000Y-127096000D01*
X95412000Y-94646000D02*
X95412000Y-95346000D01*
X96612000Y-95346000D02*
X96612000Y-94646000D01*
X73568000Y-95281000D02*
X73568000Y-95981000D01*
X74768000Y-95981000D02*
X74768000Y-95281000D01*
X67087666Y-120086381D02*
X67421000Y-119610190D01*
X67659095Y-120086381D02*
X67659095Y-119086381D01*
X67278142Y-119086381D01*
X67182904Y-119134000D01*
X67135285Y-119181619D01*
X67087666Y-119276857D01*
X67087666Y-119419714D01*
X67135285Y-119514952D01*
X67182904Y-119562571D01*
X67278142Y-119610190D01*
X67659095Y-119610190D01*
X66325761Y-119562571D02*
X66182904Y-119610190D01*
X66135285Y-119657810D01*
X66087666Y-119753048D01*
X66087666Y-119895905D01*
X66135285Y-119991143D01*
X66182904Y-120038762D01*
X66278142Y-120086381D01*
X66659095Y-120086381D01*
X66659095Y-119086381D01*
X66325761Y-119086381D01*
X66230523Y-119134000D01*
X66182904Y-119181619D01*
X66135285Y-119276857D01*
X66135285Y-119372095D01*
X66182904Y-119467333D01*
X66230523Y-119514952D01*
X66325761Y-119562571D01*
X66659095Y-119562571D01*
X65230523Y-119419714D02*
X65230523Y-120086381D01*
X65468619Y-119038762D02*
X65706714Y-119753048D01*
X65087666Y-119753048D01*
X72802666Y-127452381D02*
X73136000Y-126976190D01*
X73374095Y-127452381D02*
X73374095Y-126452381D01*
X72993142Y-126452381D01*
X72897904Y-126500000D01*
X72850285Y-126547619D01*
X72802666Y-126642857D01*
X72802666Y-126785714D01*
X72850285Y-126880952D01*
X72897904Y-126928571D01*
X72993142Y-126976190D01*
X73374095Y-126976190D01*
X72040761Y-126928571D02*
X71897904Y-126976190D01*
X71850285Y-127023810D01*
X71802666Y-127119048D01*
X71802666Y-127261905D01*
X71850285Y-127357143D01*
X71897904Y-127404762D01*
X71993142Y-127452381D01*
X72374095Y-127452381D01*
X72374095Y-126452381D01*
X72040761Y-126452381D01*
X71945523Y-126500000D01*
X71897904Y-126547619D01*
X71850285Y-126642857D01*
X71850285Y-126738095D01*
X71897904Y-126833333D01*
X71945523Y-126880952D01*
X72040761Y-126928571D01*
X72374095Y-126928571D01*
X71421714Y-126547619D02*
X71374095Y-126500000D01*
X71278857Y-126452381D01*
X71040761Y-126452381D01*
X70945523Y-126500000D01*
X70897904Y-126547619D01*
X70850285Y-126642857D01*
X70850285Y-126738095D01*
X70897904Y-126880952D01*
X71469333Y-127452381D01*
X70850285Y-127452381D01*
X120689619Y-110902762D02*
X120642000Y-110807524D01*
X120546762Y-110712286D01*
X120403905Y-110569429D01*
X120356286Y-110474190D01*
X120356286Y-110378952D01*
X120594381Y-110426571D02*
X120546762Y-110331333D01*
X120451524Y-110236095D01*
X120261048Y-110188476D01*
X119927714Y-110188476D01*
X119737238Y-110236095D01*
X119642000Y-110331333D01*
X119594381Y-110426571D01*
X119594381Y-110617048D01*
X119642000Y-110712286D01*
X119737238Y-110807524D01*
X119927714Y-110855143D01*
X120261048Y-110855143D01*
X120451524Y-110807524D01*
X120546762Y-110712286D01*
X120594381Y-110617048D01*
X120594381Y-110426571D01*
X119689619Y-111236095D02*
X119642000Y-111283714D01*
X119594381Y-111378952D01*
X119594381Y-111617048D01*
X119642000Y-111712286D01*
X119689619Y-111759905D01*
X119784857Y-111807524D01*
X119880095Y-111807524D01*
X120022952Y-111759905D01*
X120594381Y-111188476D01*
X120594381Y-111807524D01*
X110275619Y-119792762D02*
X110228000Y-119697524D01*
X110132762Y-119602286D01*
X109989905Y-119459429D01*
X109942286Y-119364190D01*
X109942286Y-119268952D01*
X110180381Y-119316571D02*
X110132762Y-119221333D01*
X110037524Y-119126095D01*
X109847048Y-119078476D01*
X109513714Y-119078476D01*
X109323238Y-119126095D01*
X109228000Y-119221333D01*
X109180381Y-119316571D01*
X109180381Y-119507048D01*
X109228000Y-119602286D01*
X109323238Y-119697524D01*
X109513714Y-119745143D01*
X109847048Y-119745143D01*
X110037524Y-119697524D01*
X110132762Y-119602286D01*
X110180381Y-119507048D01*
X110180381Y-119316571D01*
X109180381Y-120078476D02*
X109180381Y-120697524D01*
X109561333Y-120364190D01*
X109561333Y-120507048D01*
X109608952Y-120602286D01*
X109656571Y-120649905D01*
X109751810Y-120697524D01*
X109989905Y-120697524D01*
X110085143Y-120649905D01*
X110132762Y-120602286D01*
X110180381Y-120507048D01*
X110180381Y-120221333D01*
X110132762Y-120126095D01*
X110085143Y-120078476D01*
X67095666Y-115006381D02*
X67429000Y-114530190D01*
X67667095Y-115006381D02*
X67667095Y-114006381D01*
X67286142Y-114006381D01*
X67190904Y-114054000D01*
X67143285Y-114101619D01*
X67095666Y-114196857D01*
X67095666Y-114339714D01*
X67143285Y-114434952D01*
X67190904Y-114482571D01*
X67286142Y-114530190D01*
X67667095Y-114530190D01*
X66238523Y-114339714D02*
X66238523Y-115006381D01*
X66476619Y-113958762D02*
X66714714Y-114673048D01*
X66095666Y-114673048D01*
X110054615Y-109189781D02*
X110054615Y-108189781D01*
X109816520Y-108189781D01*
X109673662Y-108237400D01*
X109578424Y-108332638D01*
X109530805Y-108427876D01*
X109483186Y-108618352D01*
X109483186Y-108761210D01*
X109530805Y-108951686D01*
X109578424Y-109046924D01*
X109673662Y-109142162D01*
X109816520Y-109189781D01*
X110054615Y-109189781D01*
X109102234Y-108285019D02*
X109054615Y-108237400D01*
X108959377Y-108189781D01*
X108721281Y-108189781D01*
X108626043Y-108237400D01*
X108578424Y-108285019D01*
X108530805Y-108380257D01*
X108530805Y-108475495D01*
X108578424Y-108618352D01*
X109149853Y-109189781D01*
X108530805Y-109189781D01*
X113273175Y-110900507D02*
X112796984Y-110900507D01*
X113368413Y-111186221D02*
X113035080Y-110186221D01*
X112701746Y-111186221D01*
X105981785Y-111150661D02*
X105981785Y-110150661D01*
X105410356Y-111150661D02*
X105838928Y-110579232D01*
X105410356Y-110150661D02*
X105981785Y-110722090D01*
X124404381Y-113815905D02*
X123404381Y-113815905D01*
X123404381Y-114054000D01*
X123452000Y-114196858D01*
X123547238Y-114292096D01*
X123642476Y-114339715D01*
X123832952Y-114387334D01*
X123975810Y-114387334D01*
X124166286Y-114339715D01*
X124261524Y-114292096D01*
X124356762Y-114196858D01*
X124404381Y-114054000D01*
X124404381Y-113815905D01*
X123737714Y-115244477D02*
X124404381Y-115244477D01*
X123356762Y-115006381D02*
X124071048Y-114768286D01*
X124071048Y-115387334D01*
X122203507Y-108849825D02*
X122203507Y-109326016D01*
X122489221Y-108754587D02*
X121489221Y-109087920D01*
X122489221Y-109421254D01*
X122453661Y-116141215D02*
X121453661Y-116141215D01*
X122453661Y-116712644D02*
X121882232Y-116284072D01*
X121453661Y-116712644D02*
X122025090Y-116141215D01*
X110529595Y-125356881D02*
X110529595Y-124356881D01*
X110291500Y-124356881D01*
X110148642Y-124404500D01*
X110053404Y-124499738D01*
X110005785Y-124594976D01*
X109958166Y-124785452D01*
X109958166Y-124928310D01*
X110005785Y-125118786D01*
X110053404Y-125214024D01*
X110148642Y-125309262D01*
X110291500Y-125356881D01*
X110529595Y-125356881D01*
X109481976Y-125356881D02*
X109291500Y-125356881D01*
X109196261Y-125309262D01*
X109148642Y-125261643D01*
X109053404Y-125118786D01*
X109005785Y-124928310D01*
X109005785Y-124547357D01*
X109053404Y-124452119D01*
X109101023Y-124404500D01*
X109196261Y-124356881D01*
X109386738Y-124356881D01*
X109481976Y-124404500D01*
X109529595Y-124452119D01*
X109577214Y-124547357D01*
X109577214Y-124785452D01*
X109529595Y-124880690D01*
X109481976Y-124928310D01*
X109386738Y-124975929D01*
X109196261Y-124975929D01*
X109101023Y-124928310D01*
X109053404Y-124880690D01*
X109005785Y-124785452D01*
X108310015Y-123366827D02*
X107833824Y-123366827D01*
X108405253Y-123652541D02*
X108071920Y-122652541D01*
X107738586Y-123652541D01*
X115649025Y-123688101D02*
X115649025Y-122688101D01*
X115077596Y-123688101D02*
X115506168Y-123116672D01*
X115077596Y-122688101D02*
X115649025Y-123259530D01*
X104528786Y-116276381D02*
X104528786Y-115276381D01*
X104290691Y-115276381D01*
X104147833Y-115324000D01*
X104052595Y-115419238D01*
X104004976Y-115514476D01*
X103957357Y-115704952D01*
X103957357Y-115847810D01*
X104004976Y-116038286D01*
X104052595Y-116133524D01*
X104147833Y-116228762D01*
X104290691Y-116276381D01*
X104528786Y-116276381D01*
X103004976Y-116276381D02*
X103576405Y-116276381D01*
X103290691Y-116276381D02*
X103290691Y-115276381D01*
X103385929Y-115419238D01*
X103481167Y-115514476D01*
X103576405Y-115562095D01*
X102052595Y-116276381D02*
X102624024Y-116276381D01*
X102338310Y-116276381D02*
X102338310Y-115276381D01*
X102433548Y-115419238D01*
X102528786Y-115514476D01*
X102624024Y-115562095D01*
X110352175Y-117504507D02*
X109875984Y-117504507D01*
X110447413Y-117790221D02*
X110114080Y-116790221D01*
X109780746Y-117790221D01*
X103060785Y-117754661D02*
X103060785Y-116754661D01*
X102489356Y-117754661D02*
X102917928Y-117183232D01*
X102489356Y-116754661D02*
X103060785Y-117326090D01*
X66016143Y-129024143D02*
X66063762Y-128976524D01*
X66111381Y-128833667D01*
X66111381Y-128738429D01*
X66063762Y-128595571D01*
X65968524Y-128500333D01*
X65873286Y-128452714D01*
X65682810Y-128405095D01*
X65539952Y-128405095D01*
X65349476Y-128452714D01*
X65254238Y-128500333D01*
X65159000Y-128595571D01*
X65111381Y-128738429D01*
X65111381Y-128833667D01*
X65159000Y-128976524D01*
X65206619Y-129024143D01*
X66111381Y-129976524D02*
X66111381Y-129405095D01*
X66111381Y-129690809D02*
X65111381Y-129690809D01*
X65254238Y-129595571D01*
X65349476Y-129500333D01*
X65397095Y-129405095D01*
X65206619Y-130357476D02*
X65159000Y-130405095D01*
X65111381Y-130500333D01*
X65111381Y-130738429D01*
X65159000Y-130833667D01*
X65206619Y-130881286D01*
X65301857Y-130928905D01*
X65397095Y-130928905D01*
X65539952Y-130881286D01*
X66111381Y-130309857D01*
X66111381Y-130928905D01*
X72778857Y-129135143D02*
X72826476Y-129182762D01*
X72969333Y-129230381D01*
X73064571Y-129230381D01*
X73207429Y-129182762D01*
X73302667Y-129087524D01*
X73350286Y-128992286D01*
X73397905Y-128801810D01*
X73397905Y-128658952D01*
X73350286Y-128468476D01*
X73302667Y-128373238D01*
X73207429Y-128278000D01*
X73064571Y-128230381D01*
X72969333Y-128230381D01*
X72826476Y-128278000D01*
X72778857Y-128325619D01*
X71826476Y-129230381D02*
X72397905Y-129230381D01*
X72112191Y-129230381D02*
X72112191Y-128230381D01*
X72207429Y-128373238D01*
X72302667Y-128468476D01*
X72397905Y-128516095D01*
X71493143Y-128230381D02*
X70874095Y-128230381D01*
X71207429Y-128611333D01*
X71064571Y-128611333D01*
X70969333Y-128658952D01*
X70921714Y-128706571D01*
X70874095Y-128801810D01*
X70874095Y-129039905D01*
X70921714Y-129135143D01*
X70969333Y-129182762D01*
X71064571Y-129230381D01*
X71350286Y-129230381D01*
X71445524Y-129182762D01*
X71493143Y-129135143D01*
X80398857Y-124817143D02*
X80446476Y-124864762D01*
X80589333Y-124912381D01*
X80684571Y-124912381D01*
X80827429Y-124864762D01*
X80922667Y-124769524D01*
X80970286Y-124674286D01*
X81017905Y-124483810D01*
X81017905Y-124340952D01*
X80970286Y-124150476D01*
X80922667Y-124055238D01*
X80827429Y-123960000D01*
X80684571Y-123912381D01*
X80589333Y-123912381D01*
X80446476Y-123960000D01*
X80398857Y-124007619D01*
X79446476Y-124912381D02*
X80017905Y-124912381D01*
X79732191Y-124912381D02*
X79732191Y-123912381D01*
X79827429Y-124055238D01*
X79922667Y-124150476D01*
X80017905Y-124198095D01*
X78589333Y-124245714D02*
X78589333Y-124912381D01*
X78827429Y-123864762D02*
X79065524Y-124579048D01*
X78446476Y-124579048D01*
X80398857Y-123039143D02*
X80446476Y-123086762D01*
X80589333Y-123134381D01*
X80684571Y-123134381D01*
X80827429Y-123086762D01*
X80922667Y-122991524D01*
X80970286Y-122896286D01*
X81017905Y-122705810D01*
X81017905Y-122562952D01*
X80970286Y-122372476D01*
X80922667Y-122277238D01*
X80827429Y-122182000D01*
X80684571Y-122134381D01*
X80589333Y-122134381D01*
X80446476Y-122182000D01*
X80398857Y-122229619D01*
X79446476Y-123134381D02*
X80017905Y-123134381D01*
X79732191Y-123134381D02*
X79732191Y-122134381D01*
X79827429Y-122277238D01*
X79922667Y-122372476D01*
X80017905Y-122420095D01*
X78541714Y-122134381D02*
X79017905Y-122134381D01*
X79065524Y-122610571D01*
X79017905Y-122562952D01*
X78922667Y-122515333D01*
X78684571Y-122515333D01*
X78589333Y-122562952D01*
X78541714Y-122610571D01*
X78494095Y-122705810D01*
X78494095Y-122943905D01*
X78541714Y-123039143D01*
X78589333Y-123086762D01*
X78684571Y-123134381D01*
X78922667Y-123134381D01*
X79017905Y-123086762D01*
X79065524Y-123039143D01*
X88780857Y-116821143D02*
X88828476Y-116868762D01*
X88971333Y-116916381D01*
X89066571Y-116916381D01*
X89209429Y-116868762D01*
X89304667Y-116773524D01*
X89352286Y-116678286D01*
X89399905Y-116487810D01*
X89399905Y-116344952D01*
X89352286Y-116154476D01*
X89304667Y-116059238D01*
X89209429Y-115964000D01*
X89066571Y-115916381D01*
X88971333Y-115916381D01*
X88828476Y-115964000D01*
X88780857Y-116011619D01*
X87828476Y-116916381D02*
X88399905Y-116916381D01*
X88114191Y-116916381D02*
X88114191Y-115916381D01*
X88209429Y-116059238D01*
X88304667Y-116154476D01*
X88399905Y-116202095D01*
X87352286Y-116916381D02*
X87161810Y-116916381D01*
X87066571Y-116868762D01*
X87018952Y-116821143D01*
X86923714Y-116678286D01*
X86876095Y-116487810D01*
X86876095Y-116106857D01*
X86923714Y-116011619D01*
X86971333Y-115964000D01*
X87066571Y-115916381D01*
X87257048Y-115916381D01*
X87352286Y-115964000D01*
X87399905Y-116011619D01*
X87447524Y-116106857D01*
X87447524Y-116344952D01*
X87399905Y-116440190D01*
X87352286Y-116487810D01*
X87257048Y-116535429D01*
X87066571Y-116535429D01*
X86971333Y-116487810D01*
X86923714Y-116440190D01*
X86876095Y-116344952D01*
X88780857Y-113011143D02*
X88828476Y-113058762D01*
X88971333Y-113106381D01*
X89066571Y-113106381D01*
X89209429Y-113058762D01*
X89304667Y-112963524D01*
X89352286Y-112868286D01*
X89399905Y-112677810D01*
X89399905Y-112534952D01*
X89352286Y-112344476D01*
X89304667Y-112249238D01*
X89209429Y-112154000D01*
X89066571Y-112106381D01*
X88971333Y-112106381D01*
X88828476Y-112154000D01*
X88780857Y-112201619D01*
X88399905Y-112201619D02*
X88352286Y-112154000D01*
X88257048Y-112106381D01*
X88018952Y-112106381D01*
X87923714Y-112154000D01*
X87876095Y-112201619D01*
X87828476Y-112296857D01*
X87828476Y-112392095D01*
X87876095Y-112534952D01*
X88447524Y-113106381D01*
X87828476Y-113106381D01*
X87447524Y-112201619D02*
X87399905Y-112154000D01*
X87304667Y-112106381D01*
X87066571Y-112106381D01*
X86971333Y-112154000D01*
X86923714Y-112201619D01*
X86876095Y-112296857D01*
X86876095Y-112392095D01*
X86923714Y-112534952D01*
X87495143Y-113106381D01*
X86876095Y-113106381D01*
X65984381Y-97877334D02*
X65508190Y-97544000D01*
X65984381Y-97305905D02*
X64984381Y-97305905D01*
X64984381Y-97686858D01*
X65032000Y-97782096D01*
X65079619Y-97829715D01*
X65174857Y-97877334D01*
X65317714Y-97877334D01*
X65412952Y-97829715D01*
X65460571Y-97782096D01*
X65508190Y-97686858D01*
X65508190Y-97305905D01*
X65984381Y-98829715D02*
X65984381Y-98258286D01*
X65984381Y-98544000D02*
X64984381Y-98544000D01*
X65127238Y-98448762D01*
X65222476Y-98353524D01*
X65270095Y-98258286D01*
X65984381Y-103719334D02*
X65508190Y-103386000D01*
X65984381Y-103147905D02*
X64984381Y-103147905D01*
X64984381Y-103528858D01*
X65032000Y-103624096D01*
X65079619Y-103671715D01*
X65174857Y-103719334D01*
X65317714Y-103719334D01*
X65412952Y-103671715D01*
X65460571Y-103624096D01*
X65508190Y-103528858D01*
X65508190Y-103147905D01*
X65079619Y-104100286D02*
X65032000Y-104147905D01*
X64984381Y-104243143D01*
X64984381Y-104481239D01*
X65032000Y-104576477D01*
X65079619Y-104624096D01*
X65174857Y-104671715D01*
X65270095Y-104671715D01*
X65412952Y-104624096D01*
X65984381Y-104052667D01*
X65984381Y-104671715D01*
X72810666Y-92908381D02*
X73144000Y-92432190D01*
X73382095Y-92908381D02*
X73382095Y-91908381D01*
X73001142Y-91908381D01*
X72905904Y-91956000D01*
X72858285Y-92003619D01*
X72810666Y-92098857D01*
X72810666Y-92241714D01*
X72858285Y-92336952D01*
X72905904Y-92384571D01*
X73001142Y-92432190D01*
X73382095Y-92432190D01*
X72239238Y-92336952D02*
X72334476Y-92289333D01*
X72382095Y-92241714D01*
X72429714Y-92146476D01*
X72429714Y-92098857D01*
X72382095Y-92003619D01*
X72334476Y-91956000D01*
X72239238Y-91908381D01*
X72048761Y-91908381D01*
X71953523Y-91956000D01*
X71905904Y-92003619D01*
X71858285Y-92098857D01*
X71858285Y-92146476D01*
X71905904Y-92241714D01*
X71953523Y-92289333D01*
X72048761Y-92336952D01*
X72239238Y-92336952D01*
X72334476Y-92384571D01*
X72382095Y-92432190D01*
X72429714Y-92527429D01*
X72429714Y-92717905D01*
X72382095Y-92813143D01*
X72334476Y-92860762D01*
X72239238Y-92908381D01*
X72048761Y-92908381D01*
X71953523Y-92860762D01*
X71905904Y-92813143D01*
X71858285Y-92717905D01*
X71858285Y-92527429D01*
X71905904Y-92432190D01*
X71953523Y-92384571D01*
X72048761Y-92336952D01*
X67063857Y-118308381D02*
X67397191Y-117832190D01*
X67635286Y-118308381D02*
X67635286Y-117308381D01*
X67254333Y-117308381D01*
X67159095Y-117356000D01*
X67111476Y-117403619D01*
X67063857Y-117498857D01*
X67063857Y-117641714D01*
X67111476Y-117736952D01*
X67159095Y-117784571D01*
X67254333Y-117832190D01*
X67635286Y-117832190D01*
X66111476Y-118308381D02*
X66682905Y-118308381D01*
X66397191Y-118308381D02*
X66397191Y-117308381D01*
X66492429Y-117451238D01*
X66587667Y-117546476D01*
X66682905Y-117594095D01*
X65159095Y-118308381D02*
X65730524Y-118308381D01*
X65444810Y-118308381D02*
X65444810Y-117308381D01*
X65540048Y-117451238D01*
X65635286Y-117546476D01*
X65730524Y-117594095D01*
X67063857Y-116530381D02*
X67397191Y-116054190D01*
X67635286Y-116530381D02*
X67635286Y-115530381D01*
X67254333Y-115530381D01*
X67159095Y-115578000D01*
X67111476Y-115625619D01*
X67063857Y-115720857D01*
X67063857Y-115863714D01*
X67111476Y-115958952D01*
X67159095Y-116006571D01*
X67254333Y-116054190D01*
X67635286Y-116054190D01*
X66111476Y-116530381D02*
X66682905Y-116530381D01*
X66397191Y-116530381D02*
X66397191Y-115530381D01*
X66492429Y-115673238D01*
X66587667Y-115768476D01*
X66682905Y-115816095D01*
X65254333Y-115530381D02*
X65444810Y-115530381D01*
X65540048Y-115578000D01*
X65587667Y-115625619D01*
X65682905Y-115768476D01*
X65730524Y-115958952D01*
X65730524Y-116339905D01*
X65682905Y-116435143D01*
X65635286Y-116482762D01*
X65540048Y-116530381D01*
X65349571Y-116530381D01*
X65254333Y-116482762D01*
X65206714Y-116435143D01*
X65159095Y-116339905D01*
X65159095Y-116101810D01*
X65206714Y-116006571D01*
X65254333Y-115958952D01*
X65349571Y-115911333D01*
X65540048Y-115911333D01*
X65635286Y-115958952D01*
X65682905Y-116006571D01*
X65730524Y-116101810D01*
X72334381Y-98925143D02*
X71858190Y-98591809D01*
X72334381Y-98353714D02*
X71334381Y-98353714D01*
X71334381Y-98734667D01*
X71382000Y-98829905D01*
X71429619Y-98877524D01*
X71524857Y-98925143D01*
X71667714Y-98925143D01*
X71762952Y-98877524D01*
X71810571Y-98829905D01*
X71858190Y-98734667D01*
X71858190Y-98353714D01*
X72334381Y-99877524D02*
X72334381Y-99306095D01*
X72334381Y-99591809D02*
X71334381Y-99591809D01*
X71477238Y-99496571D01*
X71572476Y-99401333D01*
X71620095Y-99306095D01*
X71762952Y-100448952D02*
X71715333Y-100353714D01*
X71667714Y-100306095D01*
X71572476Y-100258476D01*
X71524857Y-100258476D01*
X71429619Y-100306095D01*
X71382000Y-100353714D01*
X71334381Y-100448952D01*
X71334381Y-100639429D01*
X71382000Y-100734667D01*
X71429619Y-100782286D01*
X71524857Y-100829905D01*
X71572476Y-100829905D01*
X71667714Y-100782286D01*
X71715333Y-100734667D01*
X71762952Y-100639429D01*
X71762952Y-100448952D01*
X71810571Y-100353714D01*
X71858190Y-100306095D01*
X71953429Y-100258476D01*
X72143905Y-100258476D01*
X72239143Y-100306095D01*
X72286762Y-100353714D01*
X72334381Y-100448952D01*
X72334381Y-100639429D01*
X72286762Y-100734667D01*
X72239143Y-100782286D01*
X72143905Y-100829905D01*
X71953429Y-100829905D01*
X71858190Y-100782286D01*
X71810571Y-100734667D01*
X71762952Y-100639429D01*
X68016381Y-99433143D02*
X67540190Y-99099809D01*
X68016381Y-98861714D02*
X67016381Y-98861714D01*
X67016381Y-99242667D01*
X67064000Y-99337905D01*
X67111619Y-99385524D01*
X67206857Y-99433143D01*
X67349714Y-99433143D01*
X67444952Y-99385524D01*
X67492571Y-99337905D01*
X67540190Y-99242667D01*
X67540190Y-98861714D01*
X68016381Y-100385524D02*
X68016381Y-99814095D01*
X68016381Y-100099809D02*
X67016381Y-100099809D01*
X67159238Y-100004571D01*
X67254476Y-99909333D01*
X67302095Y-99814095D01*
X68016381Y-100861714D02*
X68016381Y-101052190D01*
X67968762Y-101147429D01*
X67921143Y-101195048D01*
X67778286Y-101290286D01*
X67587810Y-101337905D01*
X67206857Y-101337905D01*
X67111619Y-101290286D01*
X67064000Y-101242667D01*
X67016381Y-101147429D01*
X67016381Y-100956952D01*
X67064000Y-100861714D01*
X67111619Y-100814095D01*
X67206857Y-100766476D01*
X67444952Y-100766476D01*
X67540190Y-100814095D01*
X67587810Y-100861714D01*
X67635429Y-100956952D01*
X67635429Y-101147429D01*
X67587810Y-101242667D01*
X67540190Y-101290286D01*
X67444952Y-101337905D01*
X109037357Y-137294881D02*
X109370691Y-136818690D01*
X109608786Y-137294881D02*
X109608786Y-136294881D01*
X109227833Y-136294881D01*
X109132595Y-136342500D01*
X109084976Y-136390119D01*
X109037357Y-136485357D01*
X109037357Y-136628214D01*
X109084976Y-136723452D01*
X109132595Y-136771071D01*
X109227833Y-136818690D01*
X109608786Y-136818690D01*
X108656405Y-136390119D02*
X108608786Y-136342500D01*
X108513548Y-136294881D01*
X108275452Y-136294881D01*
X108180214Y-136342500D01*
X108132595Y-136390119D01*
X108084976Y-136485357D01*
X108084976Y-136580595D01*
X108132595Y-136723452D01*
X108704024Y-137294881D01*
X108084976Y-137294881D01*
X107227833Y-136628214D02*
X107227833Y-137294881D01*
X107465929Y-136247262D02*
X107704024Y-136961548D01*
X107084976Y-136961548D01*
X108973857Y-139390381D02*
X109307191Y-138914190D01*
X109545286Y-139390381D02*
X109545286Y-138390381D01*
X109164333Y-138390381D01*
X109069095Y-138438000D01*
X109021476Y-138485619D01*
X108973857Y-138580857D01*
X108973857Y-138723714D01*
X109021476Y-138818952D01*
X109069095Y-138866571D01*
X109164333Y-138914190D01*
X109545286Y-138914190D01*
X108592905Y-138485619D02*
X108545286Y-138438000D01*
X108450048Y-138390381D01*
X108211952Y-138390381D01*
X108116714Y-138438000D01*
X108069095Y-138485619D01*
X108021476Y-138580857D01*
X108021476Y-138676095D01*
X108069095Y-138818952D01*
X108640524Y-139390381D01*
X108021476Y-139390381D01*
X107116714Y-138390381D02*
X107592905Y-138390381D01*
X107640524Y-138866571D01*
X107592905Y-138818952D01*
X107497667Y-138771333D01*
X107259571Y-138771333D01*
X107164333Y-138818952D01*
X107116714Y-138866571D01*
X107069095Y-138961810D01*
X107069095Y-139199905D01*
X107116714Y-139295143D01*
X107164333Y-139342762D01*
X107259571Y-139390381D01*
X107497667Y-139390381D01*
X107592905Y-139342762D01*
X107640524Y-139295143D01*
X117927381Y-137152143D02*
X117451190Y-136818809D01*
X117927381Y-136580714D02*
X116927381Y-136580714D01*
X116927381Y-136961667D01*
X116975000Y-137056905D01*
X117022619Y-137104524D01*
X117117857Y-137152143D01*
X117260714Y-137152143D01*
X117355952Y-137104524D01*
X117403571Y-137056905D01*
X117451190Y-136961667D01*
X117451190Y-136580714D01*
X117022619Y-137533095D02*
X116975000Y-137580714D01*
X116927381Y-137675952D01*
X116927381Y-137914048D01*
X116975000Y-138009286D01*
X117022619Y-138056905D01*
X117117857Y-138104524D01*
X117213095Y-138104524D01*
X117355952Y-138056905D01*
X117927381Y-137485476D01*
X117927381Y-138104524D01*
X116927381Y-138961667D02*
X116927381Y-138771190D01*
X116975000Y-138675952D01*
X117022619Y-138628333D01*
X117165476Y-138533095D01*
X117355952Y-138485476D01*
X117736905Y-138485476D01*
X117832143Y-138533095D01*
X117879762Y-138580714D01*
X117927381Y-138675952D01*
X117927381Y-138866429D01*
X117879762Y-138961667D01*
X117832143Y-139009286D01*
X117736905Y-139056905D01*
X117498810Y-139056905D01*
X117403571Y-139009286D01*
X117355952Y-138961667D01*
X117308333Y-138866429D01*
X117308333Y-138675952D01*
X117355952Y-138580714D01*
X117403571Y-138533095D01*
X117498810Y-138485476D01*
X110370857Y-114625381D02*
X110704191Y-114149190D01*
X110942286Y-114625381D02*
X110942286Y-113625381D01*
X110561333Y-113625381D01*
X110466095Y-113673000D01*
X110418476Y-113720619D01*
X110370857Y-113815857D01*
X110370857Y-113958714D01*
X110418476Y-114053952D01*
X110466095Y-114101571D01*
X110561333Y-114149190D01*
X110942286Y-114149190D01*
X109989905Y-113720619D02*
X109942286Y-113673000D01*
X109847048Y-113625381D01*
X109608952Y-113625381D01*
X109513714Y-113673000D01*
X109466095Y-113720619D01*
X109418476Y-113815857D01*
X109418476Y-113911095D01*
X109466095Y-114053952D01*
X110037524Y-114625381D01*
X109418476Y-114625381D01*
X108847048Y-114053952D02*
X108942286Y-114006333D01*
X108989905Y-113958714D01*
X109037524Y-113863476D01*
X109037524Y-113815857D01*
X108989905Y-113720619D01*
X108942286Y-113673000D01*
X108847048Y-113625381D01*
X108656571Y-113625381D01*
X108561333Y-113673000D01*
X108513714Y-113720619D01*
X108466095Y-113815857D01*
X108466095Y-113863476D01*
X108513714Y-113958714D01*
X108561333Y-114006333D01*
X108656571Y-114053952D01*
X108847048Y-114053952D01*
X108942286Y-114101571D01*
X108989905Y-114149190D01*
X109037524Y-114244429D01*
X109037524Y-114434905D01*
X108989905Y-114530143D01*
X108942286Y-114577762D01*
X108847048Y-114625381D01*
X108656571Y-114625381D01*
X108561333Y-114577762D01*
X108513714Y-114530143D01*
X108466095Y-114434905D01*
X108466095Y-114244429D01*
X108513714Y-114149190D01*
X108561333Y-114101571D01*
X108656571Y-114053952D01*
X117482857Y-109926381D02*
X117816191Y-109450190D01*
X118054286Y-109926381D02*
X118054286Y-108926381D01*
X117673333Y-108926381D01*
X117578095Y-108974000D01*
X117530476Y-109021619D01*
X117482857Y-109116857D01*
X117482857Y-109259714D01*
X117530476Y-109354952D01*
X117578095Y-109402571D01*
X117673333Y-109450190D01*
X118054286Y-109450190D01*
X117149524Y-108926381D02*
X116530476Y-108926381D01*
X116863810Y-109307333D01*
X116720952Y-109307333D01*
X116625714Y-109354952D01*
X116578095Y-109402571D01*
X116530476Y-109497810D01*
X116530476Y-109735905D01*
X116578095Y-109831143D01*
X116625714Y-109878762D01*
X116720952Y-109926381D01*
X117006667Y-109926381D01*
X117101905Y-109878762D01*
X117149524Y-109831143D01*
X115911429Y-108926381D02*
X115816190Y-108926381D01*
X115720952Y-108974000D01*
X115673333Y-109021619D01*
X115625714Y-109116857D01*
X115578095Y-109307333D01*
X115578095Y-109545429D01*
X115625714Y-109735905D01*
X115673333Y-109831143D01*
X115720952Y-109878762D01*
X115816190Y-109926381D01*
X115911429Y-109926381D01*
X116006667Y-109878762D01*
X116054286Y-109831143D01*
X116101905Y-109735905D01*
X116149524Y-109545429D01*
X116149524Y-109307333D01*
X116101905Y-109116857D01*
X116054286Y-109021619D01*
X116006667Y-108974000D01*
X115911429Y-108926381D01*
X113164857Y-116530381D02*
X113498191Y-116054190D01*
X113736286Y-116530381D02*
X113736286Y-115530381D01*
X113355333Y-115530381D01*
X113260095Y-115578000D01*
X113212476Y-115625619D01*
X113164857Y-115720857D01*
X113164857Y-115863714D01*
X113212476Y-115958952D01*
X113260095Y-116006571D01*
X113355333Y-116054190D01*
X113736286Y-116054190D01*
X112831524Y-115530381D02*
X112212476Y-115530381D01*
X112545810Y-115911333D01*
X112402952Y-115911333D01*
X112307714Y-115958952D01*
X112260095Y-116006571D01*
X112212476Y-116101810D01*
X112212476Y-116339905D01*
X112260095Y-116435143D01*
X112307714Y-116482762D01*
X112402952Y-116530381D01*
X112688667Y-116530381D01*
X112783905Y-116482762D01*
X112831524Y-116435143D01*
X111879143Y-115530381D02*
X111260095Y-115530381D01*
X111593429Y-115911333D01*
X111450571Y-115911333D01*
X111355333Y-115958952D01*
X111307714Y-116006571D01*
X111260095Y-116101810D01*
X111260095Y-116339905D01*
X111307714Y-116435143D01*
X111355333Y-116482762D01*
X111450571Y-116530381D01*
X111736286Y-116530381D01*
X111831524Y-116482762D01*
X111879143Y-116435143D01*
X106814857Y-121610381D02*
X107148191Y-121134190D01*
X107386286Y-121610381D02*
X107386286Y-120610381D01*
X107005333Y-120610381D01*
X106910095Y-120658000D01*
X106862476Y-120705619D01*
X106814857Y-120800857D01*
X106814857Y-120943714D01*
X106862476Y-121038952D01*
X106910095Y-121086571D01*
X107005333Y-121134190D01*
X107386286Y-121134190D01*
X106481524Y-120610381D02*
X105862476Y-120610381D01*
X106195810Y-120991333D01*
X106052952Y-120991333D01*
X105957714Y-121038952D01*
X105910095Y-121086571D01*
X105862476Y-121181810D01*
X105862476Y-121419905D01*
X105910095Y-121515143D01*
X105957714Y-121562762D01*
X106052952Y-121610381D01*
X106338667Y-121610381D01*
X106433905Y-121562762D01*
X106481524Y-121515143D01*
X105005333Y-120610381D02*
X105195810Y-120610381D01*
X105291048Y-120658000D01*
X105338667Y-120705619D01*
X105433905Y-120848476D01*
X105481524Y-121038952D01*
X105481524Y-121419905D01*
X105433905Y-121515143D01*
X105386286Y-121562762D01*
X105291048Y-121610381D01*
X105100571Y-121610381D01*
X105005333Y-121562762D01*
X104957714Y-121515143D01*
X104910095Y-121419905D01*
X104910095Y-121181810D01*
X104957714Y-121086571D01*
X105005333Y-121038952D01*
X105100571Y-120991333D01*
X105291048Y-120991333D01*
X105386286Y-121038952D01*
X105433905Y-121086571D01*
X105481524Y-121181810D01*
X61031381Y-108831143D02*
X60555190Y-108497809D01*
X61031381Y-108259714D02*
X60031381Y-108259714D01*
X60031381Y-108640667D01*
X60079000Y-108735905D01*
X60126619Y-108783524D01*
X60221857Y-108831143D01*
X60364714Y-108831143D01*
X60459952Y-108783524D01*
X60507571Y-108735905D01*
X60555190Y-108640667D01*
X60555190Y-108259714D01*
X60031381Y-109164476D02*
X60031381Y-109783524D01*
X60412333Y-109450190D01*
X60412333Y-109593048D01*
X60459952Y-109688286D01*
X60507571Y-109735905D01*
X60602810Y-109783524D01*
X60840905Y-109783524D01*
X60936143Y-109735905D01*
X60983762Y-109688286D01*
X61031381Y-109593048D01*
X61031381Y-109307333D01*
X60983762Y-109212095D01*
X60936143Y-109164476D01*
X60031381Y-110116857D02*
X60031381Y-110783524D01*
X61031381Y-110354952D01*
X60777381Y-112514143D02*
X60301190Y-112180809D01*
X60777381Y-111942714D02*
X59777381Y-111942714D01*
X59777381Y-112323667D01*
X59825000Y-112418905D01*
X59872619Y-112466524D01*
X59967857Y-112514143D01*
X60110714Y-112514143D01*
X60205952Y-112466524D01*
X60253571Y-112418905D01*
X60301190Y-112323667D01*
X60301190Y-111942714D01*
X60110714Y-113371286D02*
X60777381Y-113371286D01*
X59729762Y-113133190D02*
X60444048Y-112895095D01*
X60444048Y-113514143D01*
X59872619Y-113847476D02*
X59825000Y-113895095D01*
X59777381Y-113990333D01*
X59777381Y-114228429D01*
X59825000Y-114323667D01*
X59872619Y-114371286D01*
X59967857Y-114418905D01*
X60063095Y-114418905D01*
X60205952Y-114371286D01*
X60777381Y-113799857D01*
X60777381Y-114418905D01*
X64206381Y-129127334D02*
X63730190Y-128794000D01*
X64206381Y-128555905D02*
X63206381Y-128555905D01*
X63206381Y-128936858D01*
X63254000Y-129032096D01*
X63301619Y-129079715D01*
X63396857Y-129127334D01*
X63539714Y-129127334D01*
X63634952Y-129079715D01*
X63682571Y-129032096D01*
X63730190Y-128936858D01*
X63730190Y-128555905D01*
X63682571Y-129889239D02*
X63730190Y-130032096D01*
X63777810Y-130079715D01*
X63873048Y-130127334D01*
X64015905Y-130127334D01*
X64111143Y-130079715D01*
X64158762Y-130032096D01*
X64206381Y-129936858D01*
X64206381Y-129555905D01*
X63206381Y-129555905D01*
X63206381Y-129889239D01*
X63254000Y-129984477D01*
X63301619Y-130032096D01*
X63396857Y-130079715D01*
X63492095Y-130079715D01*
X63587333Y-130032096D01*
X63634952Y-129984477D01*
X63682571Y-129889239D01*
X63682571Y-129555905D01*
X64206381Y-131079715D02*
X64206381Y-130508286D01*
X64206381Y-130794000D02*
X63206381Y-130794000D01*
X63349238Y-130698762D01*
X63444476Y-130603524D01*
X63492095Y-130508286D01*
X70770666Y-126182381D02*
X71104000Y-125706190D01*
X71342095Y-126182381D02*
X71342095Y-125182381D01*
X70961142Y-125182381D01*
X70865904Y-125230000D01*
X70818285Y-125277619D01*
X70770666Y-125372857D01*
X70770666Y-125515714D01*
X70818285Y-125610952D01*
X70865904Y-125658571D01*
X70961142Y-125706190D01*
X71342095Y-125706190D01*
X70008761Y-125658571D02*
X69865904Y-125706190D01*
X69818285Y-125753810D01*
X69770666Y-125849048D01*
X69770666Y-125991905D01*
X69818285Y-126087143D01*
X69865904Y-126134762D01*
X69961142Y-126182381D01*
X70342095Y-126182381D01*
X70342095Y-125182381D01*
X70008761Y-125182381D01*
X69913523Y-125230000D01*
X69865904Y-125277619D01*
X69818285Y-125372857D01*
X69818285Y-125468095D01*
X69865904Y-125563333D01*
X69913523Y-125610952D01*
X70008761Y-125658571D01*
X70342095Y-125658571D01*
X69437333Y-125182381D02*
X68818285Y-125182381D01*
X69151619Y-125563333D01*
X69008761Y-125563333D01*
X68913523Y-125610952D01*
X68865904Y-125658571D01*
X68818285Y-125753810D01*
X68818285Y-125991905D01*
X68865904Y-126087143D01*
X68913523Y-126134762D01*
X69008761Y-126182381D01*
X69294476Y-126182381D01*
X69389714Y-126134762D01*
X69437333Y-126087143D01*
X82121238Y-131897381D02*
X82454572Y-131421190D01*
X82692667Y-131897381D02*
X82692667Y-130897381D01*
X82311714Y-130897381D01*
X82216476Y-130945000D01*
X82168857Y-130992619D01*
X82121238Y-131087857D01*
X82121238Y-131230714D01*
X82168857Y-131325952D01*
X82216476Y-131373571D01*
X82311714Y-131421190D01*
X82692667Y-131421190D01*
X81359333Y-131373571D02*
X81692667Y-131373571D01*
X81692667Y-131897381D02*
X81692667Y-130897381D01*
X81216476Y-130897381D01*
X80502190Y-131373571D02*
X80359333Y-131421190D01*
X80311714Y-131468810D01*
X80264095Y-131564048D01*
X80264095Y-131706905D01*
X80311714Y-131802143D01*
X80359333Y-131849762D01*
X80454571Y-131897381D01*
X80835524Y-131897381D01*
X80835524Y-130897381D01*
X80502190Y-130897381D01*
X80406952Y-130945000D01*
X80359333Y-130992619D01*
X80311714Y-131087857D01*
X80311714Y-131183095D01*
X80359333Y-131278333D01*
X80406952Y-131325952D01*
X80502190Y-131373571D01*
X80835524Y-131373571D01*
X79930762Y-130897381D02*
X79311714Y-130897381D01*
X79645048Y-131278333D01*
X79502190Y-131278333D01*
X79406952Y-131325952D01*
X79359333Y-131373571D01*
X79311714Y-131468810D01*
X79311714Y-131706905D01*
X79359333Y-131802143D01*
X79406952Y-131849762D01*
X79502190Y-131897381D01*
X79787905Y-131897381D01*
X79883143Y-131849762D01*
X79930762Y-131802143D01*
X82057738Y-136215381D02*
X82391072Y-135739190D01*
X82629167Y-136215381D02*
X82629167Y-135215381D01*
X82248214Y-135215381D01*
X82152976Y-135263000D01*
X82105357Y-135310619D01*
X82057738Y-135405857D01*
X82057738Y-135548714D01*
X82105357Y-135643952D01*
X82152976Y-135691571D01*
X82248214Y-135739190D01*
X82629167Y-135739190D01*
X81295833Y-135691571D02*
X81629167Y-135691571D01*
X81629167Y-136215381D02*
X81629167Y-135215381D01*
X81152976Y-135215381D01*
X80438690Y-135691571D02*
X80295833Y-135739190D01*
X80248214Y-135786810D01*
X80200595Y-135882048D01*
X80200595Y-136024905D01*
X80248214Y-136120143D01*
X80295833Y-136167762D01*
X80391071Y-136215381D01*
X80772024Y-136215381D01*
X80772024Y-135215381D01*
X80438690Y-135215381D01*
X80343452Y-135263000D01*
X80295833Y-135310619D01*
X80248214Y-135405857D01*
X80248214Y-135501095D01*
X80295833Y-135596333D01*
X80343452Y-135643952D01*
X80438690Y-135691571D01*
X80772024Y-135691571D01*
X79343452Y-135548714D02*
X79343452Y-136215381D01*
X79581548Y-135167762D02*
X79819643Y-135882048D01*
X79200595Y-135882048D01*
X62428381Y-129373381D02*
X61952190Y-129040047D01*
X62428381Y-128801952D02*
X61428381Y-128801952D01*
X61428381Y-129182905D01*
X61476000Y-129278143D01*
X61523619Y-129325762D01*
X61618857Y-129373381D01*
X61761714Y-129373381D01*
X61856952Y-129325762D01*
X61904571Y-129278143D01*
X61952190Y-129182905D01*
X61952190Y-128801952D01*
X61428381Y-129659095D02*
X61428381Y-130230524D01*
X62428381Y-129944809D02*
X61428381Y-129944809D01*
X62428381Y-131087667D02*
X62428381Y-130516238D01*
X62428381Y-130801952D02*
X61428381Y-130801952D01*
X61571238Y-130706714D01*
X61666476Y-130611476D01*
X61714095Y-130516238D01*
X69381619Y-132532381D02*
X69714953Y-132056190D01*
X69953048Y-132532381D02*
X69953048Y-131532381D01*
X69572095Y-131532381D01*
X69476857Y-131580000D01*
X69429238Y-131627619D01*
X69381619Y-131722857D01*
X69381619Y-131865714D01*
X69429238Y-131960952D01*
X69476857Y-132008571D01*
X69572095Y-132056190D01*
X69953048Y-132056190D01*
X69095905Y-131532381D02*
X68524476Y-131532381D01*
X68810191Y-132532381D02*
X68810191Y-131532381D01*
X68238762Y-131627619D02*
X68191143Y-131580000D01*
X68095905Y-131532381D01*
X67857809Y-131532381D01*
X67762571Y-131580000D01*
X67714952Y-131627619D01*
X67667333Y-131722857D01*
X67667333Y-131818095D01*
X67714952Y-131960952D01*
X68286381Y-132532381D01*
X67667333Y-132532381D01*
X67095619Y-123134381D02*
X67428953Y-122658190D01*
X67667048Y-123134381D02*
X67667048Y-122134381D01*
X67286095Y-122134381D01*
X67190857Y-122182000D01*
X67143238Y-122229619D01*
X67095619Y-122324857D01*
X67095619Y-122467714D01*
X67143238Y-122562952D01*
X67190857Y-122610571D01*
X67286095Y-122658190D01*
X67667048Y-122658190D01*
X66809905Y-122134381D02*
X66238476Y-122134381D01*
X66524191Y-123134381D02*
X66524191Y-122134381D01*
X66000381Y-122134381D02*
X65381333Y-122134381D01*
X65714667Y-122515333D01*
X65571809Y-122515333D01*
X65476571Y-122562952D01*
X65428952Y-122610571D01*
X65381333Y-122705810D01*
X65381333Y-122943905D01*
X65428952Y-123039143D01*
X65476571Y-123086762D01*
X65571809Y-123134381D01*
X65857524Y-123134381D01*
X65952762Y-123086762D01*
X66000381Y-123039143D01*
X67095619Y-121610381D02*
X67428953Y-121134190D01*
X67667048Y-121610381D02*
X67667048Y-120610381D01*
X67286095Y-120610381D01*
X67190857Y-120658000D01*
X67143238Y-120705619D01*
X67095619Y-120800857D01*
X67095619Y-120943714D01*
X67143238Y-121038952D01*
X67190857Y-121086571D01*
X67286095Y-121134190D01*
X67667048Y-121134190D01*
X66809905Y-120610381D02*
X66238476Y-120610381D01*
X66524191Y-121610381D02*
X66524191Y-120610381D01*
X65476571Y-120943714D02*
X65476571Y-121610381D01*
X65714667Y-120562762D02*
X65952762Y-121277048D01*
X65333714Y-121277048D01*
X66174857Y-108307143D02*
X66222476Y-108354762D01*
X66365333Y-108402381D01*
X66460571Y-108402381D01*
X66603429Y-108354762D01*
X66698667Y-108259524D01*
X66746286Y-108164286D01*
X66793905Y-107973810D01*
X66793905Y-107830952D01*
X66746286Y-107640476D01*
X66698667Y-107545238D01*
X66603429Y-107450000D01*
X66460571Y-107402381D01*
X66365333Y-107402381D01*
X66222476Y-107450000D01*
X66174857Y-107497619D01*
X65793905Y-107497619D02*
X65746286Y-107450000D01*
X65651048Y-107402381D01*
X65412952Y-107402381D01*
X65317714Y-107450000D01*
X65270095Y-107497619D01*
X65222476Y-107592857D01*
X65222476Y-107688095D01*
X65270095Y-107830952D01*
X65841524Y-108402381D01*
X65222476Y-108402381D01*
X64889143Y-107402381D02*
X64222476Y-107402381D01*
X64651048Y-108402381D01*
X99448857Y-129897143D02*
X99496476Y-129944762D01*
X99639333Y-129992381D01*
X99734571Y-129992381D01*
X99877429Y-129944762D01*
X99972667Y-129849524D01*
X100020286Y-129754286D01*
X100067905Y-129563810D01*
X100067905Y-129420952D01*
X100020286Y-129230476D01*
X99972667Y-129135238D01*
X99877429Y-129040000D01*
X99734571Y-128992381D01*
X99639333Y-128992381D01*
X99496476Y-129040000D01*
X99448857Y-129087619D01*
X99067905Y-129087619D02*
X99020286Y-129040000D01*
X98925048Y-128992381D01*
X98686952Y-128992381D01*
X98591714Y-129040000D01*
X98544095Y-129087619D01*
X98496476Y-129182857D01*
X98496476Y-129278095D01*
X98544095Y-129420952D01*
X99115524Y-129992381D01*
X98496476Y-129992381D01*
X97925048Y-129420952D02*
X98020286Y-129373333D01*
X98067905Y-129325714D01*
X98115524Y-129230476D01*
X98115524Y-129182857D01*
X98067905Y-129087619D01*
X98020286Y-129040000D01*
X97925048Y-128992381D01*
X97734571Y-128992381D01*
X97639333Y-129040000D01*
X97591714Y-129087619D01*
X97544095Y-129182857D01*
X97544095Y-129230476D01*
X97591714Y-129325714D01*
X97639333Y-129373333D01*
X97734571Y-129420952D01*
X97925048Y-129420952D01*
X98020286Y-129468571D01*
X98067905Y-129516190D01*
X98115524Y-129611429D01*
X98115524Y-129801905D01*
X98067905Y-129897143D01*
X98020286Y-129944762D01*
X97925048Y-129992381D01*
X97734571Y-129992381D01*
X97639333Y-129944762D01*
X97591714Y-129897143D01*
X97544095Y-129801905D01*
X97544095Y-129611429D01*
X97591714Y-129516190D01*
X97639333Y-129468571D01*
X97734571Y-129420952D01*
X88373143Y-121785143D02*
X88420762Y-121737524D01*
X88468381Y-121594667D01*
X88468381Y-121499429D01*
X88420762Y-121356571D01*
X88325524Y-121261333D01*
X88230286Y-121213714D01*
X88039810Y-121166095D01*
X87896952Y-121166095D01*
X87706476Y-121213714D01*
X87611238Y-121261333D01*
X87516000Y-121356571D01*
X87468381Y-121499429D01*
X87468381Y-121594667D01*
X87516000Y-121737524D01*
X87563619Y-121785143D01*
X87468381Y-122118476D02*
X87468381Y-122737524D01*
X87849333Y-122404190D01*
X87849333Y-122547048D01*
X87896952Y-122642286D01*
X87944571Y-122689905D01*
X88039810Y-122737524D01*
X88277905Y-122737524D01*
X88373143Y-122689905D01*
X88420762Y-122642286D01*
X88468381Y-122547048D01*
X88468381Y-122261333D01*
X88420762Y-122166095D01*
X88373143Y-122118476D01*
X88468381Y-123689905D02*
X88468381Y-123118476D01*
X88468381Y-123404190D02*
X87468381Y-123404190D01*
X87611238Y-123308952D01*
X87706476Y-123213714D01*
X87754095Y-123118476D01*
X132849857Y-130468643D02*
X132897476Y-130516262D01*
X133040333Y-130563881D01*
X133135571Y-130563881D01*
X133278429Y-130516262D01*
X133373667Y-130421024D01*
X133421286Y-130325786D01*
X133468905Y-130135310D01*
X133468905Y-129992452D01*
X133421286Y-129801976D01*
X133373667Y-129706738D01*
X133278429Y-129611500D01*
X133135571Y-129563881D01*
X133040333Y-129563881D01*
X132897476Y-129611500D01*
X132849857Y-129659119D01*
X132516524Y-129563881D02*
X131897476Y-129563881D01*
X132230810Y-129944833D01*
X132087952Y-129944833D01*
X131992714Y-129992452D01*
X131945095Y-130040071D01*
X131897476Y-130135310D01*
X131897476Y-130373405D01*
X131945095Y-130468643D01*
X131992714Y-130516262D01*
X132087952Y-130563881D01*
X132373667Y-130563881D01*
X132468905Y-130516262D01*
X132516524Y-130468643D01*
X131516524Y-129659119D02*
X131468905Y-129611500D01*
X131373667Y-129563881D01*
X131135571Y-129563881D01*
X131040333Y-129611500D01*
X130992714Y-129659119D01*
X130945095Y-129754357D01*
X130945095Y-129849595D01*
X130992714Y-129992452D01*
X131564143Y-130563881D01*
X130945095Y-130563881D01*
X124309143Y-102735143D02*
X124356762Y-102687524D01*
X124404381Y-102544667D01*
X124404381Y-102449429D01*
X124356762Y-102306571D01*
X124261524Y-102211333D01*
X124166286Y-102163714D01*
X123975810Y-102116095D01*
X123832952Y-102116095D01*
X123642476Y-102163714D01*
X123547238Y-102211333D01*
X123452000Y-102306571D01*
X123404381Y-102449429D01*
X123404381Y-102544667D01*
X123452000Y-102687524D01*
X123499619Y-102735143D01*
X123404381Y-103068476D02*
X123404381Y-103687524D01*
X123785333Y-103354190D01*
X123785333Y-103497048D01*
X123832952Y-103592286D01*
X123880571Y-103639905D01*
X123975810Y-103687524D01*
X124213905Y-103687524D01*
X124309143Y-103639905D01*
X124356762Y-103592286D01*
X124404381Y-103497048D01*
X124404381Y-103211333D01*
X124356762Y-103116095D01*
X124309143Y-103068476D01*
X123404381Y-104020857D02*
X123404381Y-104639905D01*
X123785333Y-104306571D01*
X123785333Y-104449429D01*
X123832952Y-104544667D01*
X123880571Y-104592286D01*
X123975810Y-104639905D01*
X124213905Y-104639905D01*
X124309143Y-104592286D01*
X124356762Y-104544667D01*
X124404381Y-104449429D01*
X124404381Y-104163714D01*
X124356762Y-104068476D01*
X124309143Y-104020857D01*
X132722857Y-127738143D02*
X132770476Y-127785762D01*
X132913333Y-127833381D01*
X133008571Y-127833381D01*
X133151429Y-127785762D01*
X133246667Y-127690524D01*
X133294286Y-127595286D01*
X133341905Y-127404810D01*
X133341905Y-127261952D01*
X133294286Y-127071476D01*
X133246667Y-126976238D01*
X133151429Y-126881000D01*
X133008571Y-126833381D01*
X132913333Y-126833381D01*
X132770476Y-126881000D01*
X132722857Y-126928619D01*
X132389524Y-126833381D02*
X131770476Y-126833381D01*
X132103810Y-127214333D01*
X131960952Y-127214333D01*
X131865714Y-127261952D01*
X131818095Y-127309571D01*
X131770476Y-127404810D01*
X131770476Y-127642905D01*
X131818095Y-127738143D01*
X131865714Y-127785762D01*
X131960952Y-127833381D01*
X132246667Y-127833381D01*
X132341905Y-127785762D01*
X132389524Y-127738143D01*
X130913333Y-127166714D02*
X130913333Y-127833381D01*
X131151429Y-126785762D02*
X131389524Y-127500048D01*
X130770476Y-127500048D01*
X132913357Y-124436143D02*
X132960976Y-124483762D01*
X133103833Y-124531381D01*
X133199071Y-124531381D01*
X133341929Y-124483762D01*
X133437167Y-124388524D01*
X133484786Y-124293286D01*
X133532405Y-124102810D01*
X133532405Y-123959952D01*
X133484786Y-123769476D01*
X133437167Y-123674238D01*
X133341929Y-123579000D01*
X133199071Y-123531381D01*
X133103833Y-123531381D01*
X132960976Y-123579000D01*
X132913357Y-123626619D01*
X132580024Y-123531381D02*
X131960976Y-123531381D01*
X132294310Y-123912333D01*
X132151452Y-123912333D01*
X132056214Y-123959952D01*
X132008595Y-124007571D01*
X131960976Y-124102810D01*
X131960976Y-124340905D01*
X132008595Y-124436143D01*
X132056214Y-124483762D01*
X132151452Y-124531381D01*
X132437167Y-124531381D01*
X132532405Y-124483762D01*
X132580024Y-124436143D01*
X131103833Y-123531381D02*
X131294310Y-123531381D01*
X131389548Y-123579000D01*
X131437167Y-123626619D01*
X131532405Y-123769476D01*
X131580024Y-123959952D01*
X131580024Y-124340905D01*
X131532405Y-124436143D01*
X131484786Y-124483762D01*
X131389548Y-124531381D01*
X131199071Y-124531381D01*
X131103833Y-124483762D01*
X131056214Y-124436143D01*
X131008595Y-124340905D01*
X131008595Y-124102810D01*
X131056214Y-124007571D01*
X131103833Y-123959952D01*
X131199071Y-123912333D01*
X131389548Y-123912333D01*
X131484786Y-123959952D01*
X131532405Y-124007571D01*
X131580024Y-124102810D01*
X132976857Y-121261143D02*
X133024476Y-121308762D01*
X133167333Y-121356381D01*
X133262571Y-121356381D01*
X133405429Y-121308762D01*
X133500667Y-121213524D01*
X133548286Y-121118286D01*
X133595905Y-120927810D01*
X133595905Y-120784952D01*
X133548286Y-120594476D01*
X133500667Y-120499238D01*
X133405429Y-120404000D01*
X133262571Y-120356381D01*
X133167333Y-120356381D01*
X133024476Y-120404000D01*
X132976857Y-120451619D01*
X132643524Y-120356381D02*
X132024476Y-120356381D01*
X132357810Y-120737333D01*
X132214952Y-120737333D01*
X132119714Y-120784952D01*
X132072095Y-120832571D01*
X132024476Y-120927810D01*
X132024476Y-121165905D01*
X132072095Y-121261143D01*
X132119714Y-121308762D01*
X132214952Y-121356381D01*
X132500667Y-121356381D01*
X132595905Y-121308762D01*
X132643524Y-121261143D01*
X131453048Y-120784952D02*
X131548286Y-120737333D01*
X131595905Y-120689714D01*
X131643524Y-120594476D01*
X131643524Y-120546857D01*
X131595905Y-120451619D01*
X131548286Y-120404000D01*
X131453048Y-120356381D01*
X131262571Y-120356381D01*
X131167333Y-120404000D01*
X131119714Y-120451619D01*
X131072095Y-120546857D01*
X131072095Y-120594476D01*
X131119714Y-120689714D01*
X131167333Y-120737333D01*
X131262571Y-120784952D01*
X131453048Y-120784952D01*
X131548286Y-120832571D01*
X131595905Y-120880190D01*
X131643524Y-120975429D01*
X131643524Y-121165905D01*
X131595905Y-121261143D01*
X131548286Y-121308762D01*
X131453048Y-121356381D01*
X131262571Y-121356381D01*
X131167333Y-121308762D01*
X131119714Y-121261143D01*
X131072095Y-121165905D01*
X131072095Y-120975429D01*
X131119714Y-120880190D01*
X131167333Y-120832571D01*
X131262571Y-120784952D01*
X98940857Y-85193143D02*
X98988476Y-85240762D01*
X99131333Y-85288381D01*
X99226571Y-85288381D01*
X99369429Y-85240762D01*
X99464667Y-85145524D01*
X99512286Y-85050286D01*
X99559905Y-84859810D01*
X99559905Y-84716952D01*
X99512286Y-84526476D01*
X99464667Y-84431238D01*
X99369429Y-84336000D01*
X99226571Y-84288381D01*
X99131333Y-84288381D01*
X98988476Y-84336000D01*
X98940857Y-84383619D01*
X98083714Y-84621714D02*
X98083714Y-85288381D01*
X98321810Y-84240762D02*
X98559905Y-84955048D01*
X97940857Y-84955048D01*
X97369429Y-84288381D02*
X97274190Y-84288381D01*
X97178952Y-84336000D01*
X97131333Y-84383619D01*
X97083714Y-84478857D01*
X97036095Y-84669333D01*
X97036095Y-84907429D01*
X97083714Y-85097905D01*
X97131333Y-85193143D01*
X97178952Y-85240762D01*
X97274190Y-85288381D01*
X97369429Y-85288381D01*
X97464667Y-85240762D01*
X97512286Y-85193143D01*
X97559905Y-85097905D01*
X97607524Y-84907429D01*
X97607524Y-84669333D01*
X97559905Y-84478857D01*
X97512286Y-84383619D01*
X97464667Y-84336000D01*
X97369429Y-84288381D01*
X122531143Y-102989143D02*
X122578762Y-102941524D01*
X122626381Y-102798667D01*
X122626381Y-102703429D01*
X122578762Y-102560571D01*
X122483524Y-102465333D01*
X122388286Y-102417714D01*
X122197810Y-102370095D01*
X122054952Y-102370095D01*
X121864476Y-102417714D01*
X121769238Y-102465333D01*
X121674000Y-102560571D01*
X121626381Y-102703429D01*
X121626381Y-102798667D01*
X121674000Y-102941524D01*
X121721619Y-102989143D01*
X121959714Y-103846286D02*
X122626381Y-103846286D01*
X121578762Y-103608190D02*
X122293048Y-103370095D01*
X122293048Y-103989143D01*
X122626381Y-104893905D02*
X122626381Y-104322476D01*
X122626381Y-104608190D02*
X121626381Y-104608190D01*
X121769238Y-104512952D01*
X121864476Y-104417714D01*
X121912095Y-104322476D01*
X111609143Y-91051143D02*
X111656762Y-91003524D01*
X111704381Y-90860667D01*
X111704381Y-90765429D01*
X111656762Y-90622571D01*
X111561524Y-90527333D01*
X111466286Y-90479714D01*
X111275810Y-90432095D01*
X111132952Y-90432095D01*
X110942476Y-90479714D01*
X110847238Y-90527333D01*
X110752000Y-90622571D01*
X110704381Y-90765429D01*
X110704381Y-90860667D01*
X110752000Y-91003524D01*
X110799619Y-91051143D01*
X111037714Y-91908286D02*
X111704381Y-91908286D01*
X110656762Y-91670190D02*
X111371048Y-91432095D01*
X111371048Y-92051143D01*
X110799619Y-92384476D02*
X110752000Y-92432095D01*
X110704381Y-92527333D01*
X110704381Y-92765429D01*
X110752000Y-92860667D01*
X110799619Y-92908286D01*
X110894857Y-92955905D01*
X110990095Y-92955905D01*
X111132952Y-92908286D01*
X111704381Y-92336857D01*
X111704381Y-92955905D01*
X75541143Y-85463143D02*
X75588762Y-85415524D01*
X75636381Y-85272667D01*
X75636381Y-85177429D01*
X75588762Y-85034571D01*
X75493524Y-84939333D01*
X75398286Y-84891714D01*
X75207810Y-84844095D01*
X75064952Y-84844095D01*
X74874476Y-84891714D01*
X74779238Y-84939333D01*
X74684000Y-85034571D01*
X74636381Y-85177429D01*
X74636381Y-85272667D01*
X74684000Y-85415524D01*
X74731619Y-85463143D01*
X74969714Y-86320286D02*
X75636381Y-86320286D01*
X74588762Y-86082190D02*
X75303048Y-85844095D01*
X75303048Y-86463143D01*
X74636381Y-86748857D02*
X74636381Y-87367905D01*
X75017333Y-87034571D01*
X75017333Y-87177429D01*
X75064952Y-87272667D01*
X75112571Y-87320286D01*
X75207810Y-87367905D01*
X75445905Y-87367905D01*
X75541143Y-87320286D01*
X75588762Y-87272667D01*
X75636381Y-87177429D01*
X75636381Y-86891714D01*
X75588762Y-86796476D01*
X75541143Y-86748857D01*
X115673143Y-91051143D02*
X115720762Y-91003524D01*
X115768381Y-90860667D01*
X115768381Y-90765429D01*
X115720762Y-90622571D01*
X115625524Y-90527333D01*
X115530286Y-90479714D01*
X115339810Y-90432095D01*
X115196952Y-90432095D01*
X115006476Y-90479714D01*
X114911238Y-90527333D01*
X114816000Y-90622571D01*
X114768381Y-90765429D01*
X114768381Y-90860667D01*
X114816000Y-91003524D01*
X114863619Y-91051143D01*
X115101714Y-91908286D02*
X115768381Y-91908286D01*
X114720762Y-91670190D02*
X115435048Y-91432095D01*
X115435048Y-92051143D01*
X115101714Y-92860667D02*
X115768381Y-92860667D01*
X114720762Y-92622571D02*
X115435048Y-92384476D01*
X115435048Y-93003524D01*
X98401143Y-97909143D02*
X98448762Y-97861524D01*
X98496381Y-97718667D01*
X98496381Y-97623429D01*
X98448762Y-97480571D01*
X98353524Y-97385333D01*
X98258286Y-97337714D01*
X98067810Y-97290095D01*
X97924952Y-97290095D01*
X97734476Y-97337714D01*
X97639238Y-97385333D01*
X97544000Y-97480571D01*
X97496381Y-97623429D01*
X97496381Y-97718667D01*
X97544000Y-97861524D01*
X97591619Y-97909143D01*
X97829714Y-98766286D02*
X98496381Y-98766286D01*
X97448762Y-98528190D02*
X98163048Y-98290095D01*
X98163048Y-98909143D01*
X97496381Y-99766286D02*
X97496381Y-99290095D01*
X97972571Y-99242476D01*
X97924952Y-99290095D01*
X97877333Y-99385333D01*
X97877333Y-99623429D01*
X97924952Y-99718667D01*
X97972571Y-99766286D01*
X98067810Y-99813905D01*
X98305905Y-99813905D01*
X98401143Y-99766286D01*
X98448762Y-99718667D01*
X98496381Y-99623429D01*
X98496381Y-99385333D01*
X98448762Y-99290095D01*
X98401143Y-99242476D01*
X98940857Y-86971143D02*
X98988476Y-87018762D01*
X99131333Y-87066381D01*
X99226571Y-87066381D01*
X99369429Y-87018762D01*
X99464667Y-86923524D01*
X99512286Y-86828286D01*
X99559905Y-86637810D01*
X99559905Y-86494952D01*
X99512286Y-86304476D01*
X99464667Y-86209238D01*
X99369429Y-86114000D01*
X99226571Y-86066381D01*
X99131333Y-86066381D01*
X98988476Y-86114000D01*
X98940857Y-86161619D01*
X98083714Y-86399714D02*
X98083714Y-87066381D01*
X98321810Y-86018762D02*
X98559905Y-86733048D01*
X97940857Y-86733048D01*
X97131333Y-86066381D02*
X97321810Y-86066381D01*
X97417048Y-86114000D01*
X97464667Y-86161619D01*
X97559905Y-86304476D01*
X97607524Y-86494952D01*
X97607524Y-86875905D01*
X97559905Y-86971143D01*
X97512286Y-87018762D01*
X97417048Y-87066381D01*
X97226571Y-87066381D01*
X97131333Y-87018762D01*
X97083714Y-86971143D01*
X97036095Y-86875905D01*
X97036095Y-86637810D01*
X97083714Y-86542571D01*
X97131333Y-86494952D01*
X97226571Y-86447333D01*
X97417048Y-86447333D01*
X97512286Y-86494952D01*
X97559905Y-86542571D01*
X97607524Y-86637810D01*
X64904857Y-83547143D02*
X64952476Y-83594762D01*
X65095333Y-83642381D01*
X65190571Y-83642381D01*
X65333429Y-83594762D01*
X65428667Y-83499524D01*
X65476286Y-83404286D01*
X65523905Y-83213810D01*
X65523905Y-83070952D01*
X65476286Y-82880476D01*
X65428667Y-82785238D01*
X65333429Y-82690000D01*
X65190571Y-82642381D01*
X65095333Y-82642381D01*
X64952476Y-82690000D01*
X64904857Y-82737619D01*
X64047714Y-82975714D02*
X64047714Y-83642381D01*
X64285810Y-82594762D02*
X64523905Y-83309048D01*
X63904857Y-83309048D01*
X63619143Y-82642381D02*
X62952476Y-82642381D01*
X63381048Y-83642381D01*
X127225143Y-110863143D02*
X127272762Y-110815524D01*
X127320381Y-110672667D01*
X127320381Y-110577429D01*
X127272762Y-110434571D01*
X127177524Y-110339333D01*
X127082286Y-110291714D01*
X126891810Y-110244095D01*
X126748952Y-110244095D01*
X126558476Y-110291714D01*
X126463238Y-110339333D01*
X126368000Y-110434571D01*
X126320381Y-110577429D01*
X126320381Y-110672667D01*
X126368000Y-110815524D01*
X126415619Y-110863143D01*
X126320381Y-111767905D02*
X126320381Y-111291714D01*
X126796571Y-111244095D01*
X126748952Y-111291714D01*
X126701333Y-111386952D01*
X126701333Y-111625048D01*
X126748952Y-111720286D01*
X126796571Y-111767905D01*
X126891810Y-111815524D01*
X127129905Y-111815524D01*
X127225143Y-111767905D01*
X127272762Y-111720286D01*
X127320381Y-111625048D01*
X127320381Y-111386952D01*
X127272762Y-111291714D01*
X127225143Y-111244095D01*
X126320381Y-112434571D02*
X126320381Y-112529810D01*
X126368000Y-112625048D01*
X126415619Y-112672667D01*
X126510857Y-112720286D01*
X126701333Y-112767905D01*
X126939429Y-112767905D01*
X127129905Y-112720286D01*
X127225143Y-112672667D01*
X127272762Y-112625048D01*
X127320381Y-112529810D01*
X127320381Y-112434571D01*
X127272762Y-112339333D01*
X127225143Y-112291714D01*
X127129905Y-112244095D01*
X126939429Y-112196476D01*
X126701333Y-112196476D01*
X126510857Y-112244095D01*
X126415619Y-112291714D01*
X126368000Y-112339333D01*
X126320381Y-112434571D01*
X117990857Y-118335143D02*
X118038476Y-118382762D01*
X118181333Y-118430381D01*
X118276571Y-118430381D01*
X118419429Y-118382762D01*
X118514667Y-118287524D01*
X118562286Y-118192286D01*
X118609905Y-118001810D01*
X118609905Y-117858952D01*
X118562286Y-117668476D01*
X118514667Y-117573238D01*
X118419429Y-117478000D01*
X118276571Y-117430381D01*
X118181333Y-117430381D01*
X118038476Y-117478000D01*
X117990857Y-117525619D01*
X117086095Y-117430381D02*
X117562286Y-117430381D01*
X117609905Y-117906571D01*
X117562286Y-117858952D01*
X117467048Y-117811333D01*
X117228952Y-117811333D01*
X117133714Y-117858952D01*
X117086095Y-117906571D01*
X117038476Y-118001810D01*
X117038476Y-118239905D01*
X117086095Y-118335143D01*
X117133714Y-118382762D01*
X117228952Y-118430381D01*
X117467048Y-118430381D01*
X117562286Y-118382762D01*
X117609905Y-118335143D01*
X116086095Y-118430381D02*
X116657524Y-118430381D01*
X116371810Y-118430381D02*
X116371810Y-117430381D01*
X116467048Y-117573238D01*
X116562286Y-117668476D01*
X116657524Y-117716095D01*
X121769143Y-125341143D02*
X121816762Y-125293524D01*
X121864381Y-125150667D01*
X121864381Y-125055429D01*
X121816762Y-124912571D01*
X121721524Y-124817333D01*
X121626286Y-124769714D01*
X121435810Y-124722095D01*
X121292952Y-124722095D01*
X121102476Y-124769714D01*
X121007238Y-124817333D01*
X120912000Y-124912571D01*
X120864381Y-125055429D01*
X120864381Y-125150667D01*
X120912000Y-125293524D01*
X120959619Y-125341143D01*
X120864381Y-126245905D02*
X120864381Y-125769714D01*
X121340571Y-125722095D01*
X121292952Y-125769714D01*
X121245333Y-125864952D01*
X121245333Y-126103048D01*
X121292952Y-126198286D01*
X121340571Y-126245905D01*
X121435810Y-126293524D01*
X121673905Y-126293524D01*
X121769143Y-126245905D01*
X121816762Y-126198286D01*
X121864381Y-126103048D01*
X121864381Y-125864952D01*
X121816762Y-125769714D01*
X121769143Y-125722095D01*
X120959619Y-126674476D02*
X120912000Y-126722095D01*
X120864381Y-126817333D01*
X120864381Y-127055429D01*
X120912000Y-127150667D01*
X120959619Y-127198286D01*
X121054857Y-127245905D01*
X121150095Y-127245905D01*
X121292952Y-127198286D01*
X121864381Y-126626857D01*
X121864381Y-127245905D01*
X120367143Y-119753143D02*
X120414762Y-119705524D01*
X120462381Y-119562667D01*
X120462381Y-119467429D01*
X120414762Y-119324571D01*
X120319524Y-119229333D01*
X120224286Y-119181714D01*
X120033810Y-119134095D01*
X119890952Y-119134095D01*
X119700476Y-119181714D01*
X119605238Y-119229333D01*
X119510000Y-119324571D01*
X119462381Y-119467429D01*
X119462381Y-119562667D01*
X119510000Y-119705524D01*
X119557619Y-119753143D01*
X119462381Y-120657905D02*
X119462381Y-120181714D01*
X119938571Y-120134095D01*
X119890952Y-120181714D01*
X119843333Y-120276952D01*
X119843333Y-120515048D01*
X119890952Y-120610286D01*
X119938571Y-120657905D01*
X120033810Y-120705524D01*
X120271905Y-120705524D01*
X120367143Y-120657905D01*
X120414762Y-120610286D01*
X120462381Y-120515048D01*
X120462381Y-120276952D01*
X120414762Y-120181714D01*
X120367143Y-120134095D01*
X119462381Y-121038857D02*
X119462381Y-121657905D01*
X119843333Y-121324571D01*
X119843333Y-121467429D01*
X119890952Y-121562667D01*
X119938571Y-121610286D01*
X120033810Y-121657905D01*
X120271905Y-121657905D01*
X120367143Y-121610286D01*
X120414762Y-121562667D01*
X120462381Y-121467429D01*
X120462381Y-121181714D01*
X120414762Y-121086476D01*
X120367143Y-121038857D01*
X114911143Y-125849143D02*
X114958762Y-125801524D01*
X115006381Y-125658667D01*
X115006381Y-125563429D01*
X114958762Y-125420571D01*
X114863524Y-125325333D01*
X114768286Y-125277714D01*
X114577810Y-125230095D01*
X114434952Y-125230095D01*
X114244476Y-125277714D01*
X114149238Y-125325333D01*
X114054000Y-125420571D01*
X114006381Y-125563429D01*
X114006381Y-125658667D01*
X114054000Y-125801524D01*
X114101619Y-125849143D01*
X114006381Y-126753905D02*
X114006381Y-126277714D01*
X114482571Y-126230095D01*
X114434952Y-126277714D01*
X114387333Y-126372952D01*
X114387333Y-126611048D01*
X114434952Y-126706286D01*
X114482571Y-126753905D01*
X114577810Y-126801524D01*
X114815905Y-126801524D01*
X114911143Y-126753905D01*
X114958762Y-126706286D01*
X115006381Y-126611048D01*
X115006381Y-126372952D01*
X114958762Y-126277714D01*
X114911143Y-126230095D01*
X114339714Y-127658667D02*
X115006381Y-127658667D01*
X113958762Y-127420571D02*
X114673048Y-127182476D01*
X114673048Y-127801524D01*
X96623143Y-97909143D02*
X96670762Y-97861524D01*
X96718381Y-97718667D01*
X96718381Y-97623429D01*
X96670762Y-97480571D01*
X96575524Y-97385333D01*
X96480286Y-97337714D01*
X96289810Y-97290095D01*
X96146952Y-97290095D01*
X95956476Y-97337714D01*
X95861238Y-97385333D01*
X95766000Y-97480571D01*
X95718381Y-97623429D01*
X95718381Y-97718667D01*
X95766000Y-97861524D01*
X95813619Y-97909143D01*
X95718381Y-98813905D02*
X95718381Y-98337714D01*
X96194571Y-98290095D01*
X96146952Y-98337714D01*
X96099333Y-98432952D01*
X96099333Y-98671048D01*
X96146952Y-98766286D01*
X96194571Y-98813905D01*
X96289810Y-98861524D01*
X96527905Y-98861524D01*
X96623143Y-98813905D01*
X96670762Y-98766286D01*
X96718381Y-98671048D01*
X96718381Y-98432952D01*
X96670762Y-98337714D01*
X96623143Y-98290095D01*
X96146952Y-99432952D02*
X96099333Y-99337714D01*
X96051714Y-99290095D01*
X95956476Y-99242476D01*
X95908857Y-99242476D01*
X95813619Y-99290095D01*
X95766000Y-99337714D01*
X95718381Y-99432952D01*
X95718381Y-99623429D01*
X95766000Y-99718667D01*
X95813619Y-99766286D01*
X95908857Y-99813905D01*
X95956476Y-99813905D01*
X96051714Y-99766286D01*
X96099333Y-99718667D01*
X96146952Y-99623429D01*
X96146952Y-99432952D01*
X96194571Y-99337714D01*
X96242190Y-99290095D01*
X96337429Y-99242476D01*
X96527905Y-99242476D01*
X96623143Y-99290095D01*
X96670762Y-99337714D01*
X96718381Y-99432952D01*
X96718381Y-99623429D01*
X96670762Y-99718667D01*
X96623143Y-99766286D01*
X96527905Y-99813905D01*
X96337429Y-99813905D01*
X96242190Y-99766286D01*
X96194571Y-99718667D01*
X96146952Y-99623429D01*
X74525143Y-98671143D02*
X74572762Y-98623524D01*
X74620381Y-98480667D01*
X74620381Y-98385429D01*
X74572762Y-98242571D01*
X74477524Y-98147333D01*
X74382286Y-98099714D01*
X74191810Y-98052095D01*
X74048952Y-98052095D01*
X73858476Y-98099714D01*
X73763238Y-98147333D01*
X73668000Y-98242571D01*
X73620381Y-98385429D01*
X73620381Y-98480667D01*
X73668000Y-98623524D01*
X73715619Y-98671143D01*
X73620381Y-99575905D02*
X73620381Y-99099714D01*
X74096571Y-99052095D01*
X74048952Y-99099714D01*
X74001333Y-99194952D01*
X74001333Y-99433048D01*
X74048952Y-99528286D01*
X74096571Y-99575905D01*
X74191810Y-99623524D01*
X74429905Y-99623524D01*
X74525143Y-99575905D01*
X74572762Y-99528286D01*
X74620381Y-99433048D01*
X74620381Y-99194952D01*
X74572762Y-99099714D01*
X74525143Y-99052095D01*
X74620381Y-100099714D02*
X74620381Y-100290190D01*
X74572762Y-100385429D01*
X74525143Y-100433048D01*
X74382286Y-100528286D01*
X74191810Y-100575905D01*
X73810857Y-100575905D01*
X73715619Y-100528286D01*
X73668000Y-100480667D01*
X73620381Y-100385429D01*
X73620381Y-100194952D01*
X73668000Y-100099714D01*
X73715619Y-100052095D01*
X73810857Y-100004476D01*
X74048952Y-100004476D01*
X74144190Y-100052095D01*
X74191810Y-100099714D01*
X74239429Y-100194952D01*
X74239429Y-100385429D01*
X74191810Y-100480667D01*
X74144190Y-100528286D01*
X74048952Y-100575905D01*
M02*
