G04 #@! TF.FileFunction,Copper,L4,Bot,Signal*
%FSLAX46Y46*%
G04 Gerber Fmt 4.6, Leading zero omitted, Abs format (unit mm)*
G04 Created by KiCad (PCBNEW (2015-02-20 BZR 5437)-product) date Friday, March 13, 2015 'PMt' 12:32:41 PM*
%MOMM*%
G01*
G04 APERTURE LIST*
%ADD10C,0.100000*%
%ADD11C,0.150000*%
%ADD12C,0.300000*%
%ADD13C,0.400000*%
%ADD14R,1.727200X2.032000*%
%ADD15O,1.727200X2.032000*%
%ADD16C,5.080000*%
%ADD17R,1.200000X0.900000*%
%ADD18C,1.524000*%
%ADD19C,2.700020*%
%ADD20R,3.500120X3.500120*%
%ADD21R,2.032000X2.032000*%
%ADD22O,2.032000X2.032000*%
%ADD23R,1.998980X0.690880*%
%ADD24R,2.000000X1.400000*%
%ADD25R,1.400000X2.000000*%
%ADD26R,0.750000X1.200000*%
%ADD27R,1.200000X0.750000*%
%ADD28R,0.900000X1.200000*%
%ADD29C,0.685800*%
%ADD30C,0.889000*%
%ADD31C,0.304800*%
%ADD32C,0.152400*%
%ADD33C,0.254000*%
G04 APERTURE END LIST*
D10*
D11*
X177002200Y-166007200D02*
X177002200Y-198007200D01*
X285002200Y-198007200D01*
X285002200Y-166007200D01*
X177002200Y-166007200D01*
D10*
D11*
X10000000Y-10000000D02*
X10000000Y-200007200D01*
X287002200Y-200007200D01*
X287002200Y-10000000D01*
X10000000Y-10000000D01*
D10*
D11*
X12000000Y-12000000D02*
X12000000Y-198007200D01*
X285002200Y-198007200D01*
X285002200Y-12000000D01*
X12000000Y-12000000D01*
D10*
D11*
X60000000Y-12000000D02*
X60000000Y-10000000D01*
D10*
D11*
X110000000Y-12000000D02*
X110000000Y-10000000D01*
D10*
D11*
X160000000Y-12000000D02*
X160000000Y-10000000D01*
D10*
D11*
X210000000Y-12000000D02*
X210000000Y-10000000D01*
D10*
D11*
X260000000Y-12000000D02*
X260000000Y-10000000D01*
D10*
D11*
X35990476Y-11588095D02*
X35247619Y-11588095D01*
X35619048Y-11588095D02*
X35619048Y-10288095D01*
X35495238Y-10473810D01*
X35371429Y-10597619D01*
X35247619Y-10659524D01*
D10*
D11*
X85247619Y-10411905D02*
X85309524Y-10350000D01*
X85433333Y-10288095D01*
X85742857Y-10288095D01*
X85866667Y-10350000D01*
X85928571Y-10411905D01*
X85990476Y-10535714D01*
X85990476Y-10659524D01*
X85928571Y-10845238D01*
X85185714Y-11588095D01*
X85990476Y-11588095D01*
D10*
D11*
X135185714Y-10288095D02*
X135990476Y-10288095D01*
X135557143Y-10783333D01*
X135742857Y-10783333D01*
X135866667Y-10845238D01*
X135928571Y-10907143D01*
X135990476Y-11030952D01*
X135990476Y-11340476D01*
X135928571Y-11464286D01*
X135866667Y-11526190D01*
X135742857Y-11588095D01*
X135371429Y-11588095D01*
X135247619Y-11526190D01*
X135185714Y-11464286D01*
D10*
D11*
X185866667Y-10721429D02*
X185866667Y-11588095D01*
X185557143Y-10226190D02*
X185247619Y-11154762D01*
X186052381Y-11154762D01*
D10*
D11*
X235928571Y-10288095D02*
X235309524Y-10288095D01*
X235247619Y-10907143D01*
X235309524Y-10845238D01*
X235433333Y-10783333D01*
X235742857Y-10783333D01*
X235866667Y-10845238D01*
X235928571Y-10907143D01*
X235990476Y-11030952D01*
X235990476Y-11340476D01*
X235928571Y-11464286D01*
X235866667Y-11526190D01*
X235742857Y-11588095D01*
X235433333Y-11588095D01*
X235309524Y-11526190D01*
X235247619Y-11464286D01*
D10*
D11*
X285866667Y-10288095D02*
X285619048Y-10288095D01*
X285495238Y-10350000D01*
X285433333Y-10411905D01*
X285309524Y-10597619D01*
X285247619Y-10845238D01*
X285247619Y-11340476D01*
X285309524Y-11464286D01*
X285371429Y-11526190D01*
X285495238Y-11588095D01*
X285742857Y-11588095D01*
X285866667Y-11526190D01*
X285928571Y-11464286D01*
X285990476Y-11340476D01*
X285990476Y-11030952D01*
X285928571Y-10907143D01*
X285866667Y-10845238D01*
X285742857Y-10783333D01*
X285495238Y-10783333D01*
X285371429Y-10845238D01*
X285309524Y-10907143D01*
X285247619Y-11030952D01*
D10*
D11*
X60000000Y-198007200D02*
X60000000Y-200007200D01*
D10*
D11*
X110000000Y-198007200D02*
X110000000Y-200007200D01*
D10*
D11*
X160000000Y-198007200D02*
X160000000Y-200007200D01*
D10*
D11*
X210000000Y-198007200D02*
X210000000Y-200007200D01*
D10*
D11*
X260000000Y-198007200D02*
X260000000Y-200007200D01*
D10*
D11*
X35990476Y-199595295D02*
X35247619Y-199595295D01*
X35619048Y-199595295D02*
X35619048Y-198295295D01*
X35495238Y-198481010D01*
X35371429Y-198604819D01*
X35247619Y-198666724D01*
D10*
D11*
X85247619Y-198419105D02*
X85309524Y-198357200D01*
X85433333Y-198295295D01*
X85742857Y-198295295D01*
X85866667Y-198357200D01*
X85928571Y-198419105D01*
X85990476Y-198542914D01*
X85990476Y-198666724D01*
X85928571Y-198852438D01*
X85185714Y-199595295D01*
X85990476Y-199595295D01*
D10*
D11*
X135185714Y-198295295D02*
X135990476Y-198295295D01*
X135557143Y-198790533D01*
X135742857Y-198790533D01*
X135866667Y-198852438D01*
X135928571Y-198914343D01*
X135990476Y-199038152D01*
X135990476Y-199347676D01*
X135928571Y-199471486D01*
X135866667Y-199533390D01*
X135742857Y-199595295D01*
X135371429Y-199595295D01*
X135247619Y-199533390D01*
X135185714Y-199471486D01*
D10*
D11*
X185866667Y-198728629D02*
X185866667Y-199595295D01*
X185557143Y-198233390D02*
X185247619Y-199161962D01*
X186052381Y-199161962D01*
D10*
D11*
X235928571Y-198295295D02*
X235309524Y-198295295D01*
X235247619Y-198914343D01*
X235309524Y-198852438D01*
X235433333Y-198790533D01*
X235742857Y-198790533D01*
X235866667Y-198852438D01*
X235928571Y-198914343D01*
X235990476Y-199038152D01*
X235990476Y-199347676D01*
X235928571Y-199471486D01*
X235866667Y-199533390D01*
X235742857Y-199595295D01*
X235433333Y-199595295D01*
X235309524Y-199533390D01*
X235247619Y-199471486D01*
D10*
D11*
X285866667Y-198295295D02*
X285619048Y-198295295D01*
X285495238Y-198357200D01*
X285433333Y-198419105D01*
X285309524Y-198604819D01*
X285247619Y-198852438D01*
X285247619Y-199347676D01*
X285309524Y-199471486D01*
X285371429Y-199533390D01*
X285495238Y-199595295D01*
X285742857Y-199595295D01*
X285866667Y-199533390D01*
X285928571Y-199471486D01*
X285990476Y-199347676D01*
X285990476Y-199038152D01*
X285928571Y-198914343D01*
X285866667Y-198852438D01*
X285742857Y-198790533D01*
X285495238Y-198790533D01*
X285371429Y-198852438D01*
X285309524Y-198914343D01*
X285247619Y-199038152D01*
D10*
D11*
X10000000Y-60000000D02*
X12000000Y-60000000D01*
D10*
D11*
X10000000Y-110000000D02*
X12000000Y-110000000D01*
D10*
D11*
X10000000Y-160000000D02*
X12000000Y-160000000D01*
D10*
D11*
X10690476Y-35216667D02*
X11309524Y-35216667D01*
X10566667Y-35588095D02*
X11000000Y-34288095D01*
X11433333Y-35588095D01*
D10*
D11*
X11092857Y-84907143D02*
X11278571Y-84969048D01*
X11340476Y-85030952D01*
X11402381Y-85154762D01*
X11402381Y-85340476D01*
X11340476Y-85464286D01*
X11278571Y-85526190D01*
X11154762Y-85588095D01*
X10659524Y-85588095D01*
X10659524Y-84288095D01*
X11092857Y-84288095D01*
X11216667Y-84350000D01*
X11278571Y-84411905D01*
X11340476Y-84535714D01*
X11340476Y-84659524D01*
X11278571Y-84783333D01*
X11216667Y-84845238D01*
X11092857Y-84907143D01*
X10659524Y-84907143D01*
D10*
D11*
X11402381Y-135464286D02*
X11340476Y-135526190D01*
X11154762Y-135588095D01*
X11030952Y-135588095D01*
X10845238Y-135526190D01*
X10721429Y-135402381D01*
X10659524Y-135278571D01*
X10597619Y-135030952D01*
X10597619Y-134845238D01*
X10659524Y-134597619D01*
X10721429Y-134473810D01*
X10845238Y-134350000D01*
X11030952Y-134288095D01*
X11154762Y-134288095D01*
X11340476Y-134350000D01*
X11402381Y-134411905D01*
D10*
D11*
X10659524Y-185588095D02*
X10659524Y-184288095D01*
X10969048Y-184288095D01*
X11154762Y-184350000D01*
X11278571Y-184473810D01*
X11340476Y-184597619D01*
X11402381Y-184845238D01*
X11402381Y-185030952D01*
X11340476Y-185278571D01*
X11278571Y-185402381D01*
X11154762Y-185526190D01*
X10969048Y-185588095D01*
X10659524Y-185588095D01*
D10*
D11*
X287002200Y-60000000D02*
X285002200Y-60000000D01*
D10*
D11*
X287002200Y-110000000D02*
X285002200Y-110000000D01*
D10*
D11*
X287002200Y-160000000D02*
X285002200Y-160000000D01*
D10*
D11*
X285692676Y-35216667D02*
X286311724Y-35216667D01*
X285568867Y-35588095D02*
X286002200Y-34288095D01*
X286435533Y-35588095D01*
D10*
D11*
X286095057Y-84907143D02*
X286280771Y-84969048D01*
X286342676Y-85030952D01*
X286404581Y-85154762D01*
X286404581Y-85340476D01*
X286342676Y-85464286D01*
X286280771Y-85526190D01*
X286156962Y-85588095D01*
X285661724Y-85588095D01*
X285661724Y-84288095D01*
X286095057Y-84288095D01*
X286218867Y-84350000D01*
X286280771Y-84411905D01*
X286342676Y-84535714D01*
X286342676Y-84659524D01*
X286280771Y-84783333D01*
X286218867Y-84845238D01*
X286095057Y-84907143D01*
X285661724Y-84907143D01*
D10*
D11*
X286404581Y-135464286D02*
X286342676Y-135526190D01*
X286156962Y-135588095D01*
X286033152Y-135588095D01*
X285847438Y-135526190D01*
X285723629Y-135402381D01*
X285661724Y-135278571D01*
X285599819Y-135030952D01*
X285599819Y-134845238D01*
X285661724Y-134597619D01*
X285723629Y-134473810D01*
X285847438Y-134350000D01*
X286033152Y-134288095D01*
X286156962Y-134288095D01*
X286342676Y-134350000D01*
X286404581Y-134411905D01*
D10*
D11*
X285661724Y-185588095D02*
X285661724Y-184288095D01*
X285971248Y-184288095D01*
X286156962Y-184350000D01*
X286280771Y-184473810D01*
X286342676Y-184597619D01*
X286404581Y-184845238D01*
X286404581Y-185030952D01*
X286342676Y-185278571D01*
X286280771Y-185402381D01*
X286156962Y-185526190D01*
X285971248Y-185588095D01*
X285661724Y-185588095D01*
D10*
D11*
X200359343Y-193785771D02*
X200359343Y-192285771D01*
X200716486Y-192285771D01*
X200930771Y-192357200D01*
X201073629Y-192500057D01*
X201145057Y-192642914D01*
X201216486Y-192928629D01*
X201216486Y-193142914D01*
X201145057Y-193428629D01*
X201073629Y-193571486D01*
X200930771Y-193714343D01*
X200716486Y-193785771D01*
X200359343Y-193785771D01*
X202502200Y-193785771D02*
X202502200Y-193000057D01*
X202430771Y-192857200D01*
X202287914Y-192785771D01*
X202002200Y-192785771D01*
X201859343Y-192857200D01*
X202502200Y-193714343D02*
X202359343Y-193785771D01*
X202002200Y-193785771D01*
X201859343Y-193714343D01*
X201787914Y-193571486D01*
X201787914Y-193428629D01*
X201859343Y-193285771D01*
X202002200Y-193214343D01*
X202359343Y-193214343D01*
X202502200Y-193142914D01*
X203002200Y-192785771D02*
X203573629Y-192785771D01*
X203216486Y-192285771D02*
X203216486Y-193571486D01*
X203287914Y-193714343D01*
X203430772Y-193785771D01*
X203573629Y-193785771D01*
X204645057Y-193714343D02*
X204502200Y-193785771D01*
X204216486Y-193785771D01*
X204073629Y-193714343D01*
X204002200Y-193571486D01*
X204002200Y-193000057D01*
X204073629Y-192857200D01*
X204216486Y-192785771D01*
X204502200Y-192785771D01*
X204645057Y-192857200D01*
X204716486Y-193000057D01*
X204716486Y-193142914D01*
X204002200Y-193285771D01*
X205359343Y-193642914D02*
X205430771Y-193714343D01*
X205359343Y-193785771D01*
X205287914Y-193714343D01*
X205359343Y-193642914D01*
X205359343Y-193785771D01*
X205359343Y-192857200D02*
X205430771Y-192928629D01*
X205359343Y-193000057D01*
X205287914Y-192928629D01*
X205359343Y-192857200D01*
X205359343Y-193000057D01*
D10*
D11*
X177002200Y-194507200D02*
X285002200Y-194507200D01*
D10*
D11*
X178359343Y-196585771D02*
X178359343Y-195085771D01*
X179216486Y-196585771D02*
X178573629Y-195728629D01*
X179216486Y-195085771D02*
X178359343Y-195942914D01*
X179859343Y-196585771D02*
X179859343Y-195585771D01*
X179859343Y-195085771D02*
X179787914Y-195157200D01*
X179859343Y-195228629D01*
X179930771Y-195157200D01*
X179859343Y-195085771D01*
X179859343Y-195228629D01*
X181430772Y-196442914D02*
X181359343Y-196514343D01*
X181145057Y-196585771D01*
X181002200Y-196585771D01*
X180787915Y-196514343D01*
X180645057Y-196371486D01*
X180573629Y-196228629D01*
X180502200Y-195942914D01*
X180502200Y-195728629D01*
X180573629Y-195442914D01*
X180645057Y-195300057D01*
X180787915Y-195157200D01*
X181002200Y-195085771D01*
X181145057Y-195085771D01*
X181359343Y-195157200D01*
X181430772Y-195228629D01*
X182716486Y-196585771D02*
X182716486Y-195800057D01*
X182645057Y-195657200D01*
X182502200Y-195585771D01*
X182216486Y-195585771D01*
X182073629Y-195657200D01*
X182716486Y-196514343D02*
X182573629Y-196585771D01*
X182216486Y-196585771D01*
X182073629Y-196514343D01*
X182002200Y-196371486D01*
X182002200Y-196228629D01*
X182073629Y-196085771D01*
X182216486Y-196014343D01*
X182573629Y-196014343D01*
X182716486Y-195942914D01*
X184073629Y-196585771D02*
X184073629Y-195085771D01*
X184073629Y-196514343D02*
X183930772Y-196585771D01*
X183645058Y-196585771D01*
X183502200Y-196514343D01*
X183430772Y-196442914D01*
X183359343Y-196300057D01*
X183359343Y-195871486D01*
X183430772Y-195728629D01*
X183502200Y-195657200D01*
X183645058Y-195585771D01*
X183930772Y-195585771D01*
X184073629Y-195657200D01*
X185930772Y-195800057D02*
X186430772Y-195800057D01*
X186645058Y-196585771D02*
X185930772Y-196585771D01*
X185930772Y-195085771D01*
X186645058Y-195085771D01*
X187287915Y-196442914D02*
X187359343Y-196514343D01*
X187287915Y-196585771D01*
X187216486Y-196514343D01*
X187287915Y-196442914D01*
X187287915Y-196585771D01*
X188002201Y-196585771D02*
X188002201Y-195085771D01*
X188359344Y-195085771D01*
X188573629Y-195157200D01*
X188716487Y-195300057D01*
X188787915Y-195442914D01*
X188859344Y-195728629D01*
X188859344Y-195942914D01*
X188787915Y-196228629D01*
X188716487Y-196371486D01*
X188573629Y-196514343D01*
X188359344Y-196585771D01*
X188002201Y-196585771D01*
X189502201Y-196442914D02*
X189573629Y-196514343D01*
X189502201Y-196585771D01*
X189430772Y-196514343D01*
X189502201Y-196442914D01*
X189502201Y-196585771D01*
X190145058Y-196157200D02*
X190859344Y-196157200D01*
X190002201Y-196585771D02*
X190502201Y-195085771D01*
X191002201Y-196585771D01*
X191502201Y-196442914D02*
X191573629Y-196514343D01*
X191502201Y-196585771D01*
X191430772Y-196514343D01*
X191502201Y-196442914D01*
X191502201Y-196585771D01*
X194502201Y-195585771D02*
X194502201Y-197085771D01*
X194502201Y-195657200D02*
X194645058Y-195585771D01*
X194930772Y-195585771D01*
X195073629Y-195657200D01*
X195145058Y-195728629D01*
X195216487Y-195871486D01*
X195216487Y-196300057D01*
X195145058Y-196442914D01*
X195073629Y-196514343D01*
X194930772Y-196585771D01*
X194645058Y-196585771D01*
X194502201Y-196514343D01*
X196502201Y-196514343D02*
X196359344Y-196585771D01*
X196073630Y-196585771D01*
X195930772Y-196514343D01*
X195859344Y-196442914D01*
X195787915Y-196300057D01*
X195787915Y-195871486D01*
X195859344Y-195728629D01*
X195930772Y-195657200D01*
X196073630Y-195585771D01*
X196359344Y-195585771D01*
X196502201Y-195657200D01*
X197145058Y-196585771D02*
X197145058Y-195085771D01*
X197145058Y-195657200D02*
X197287915Y-195585771D01*
X197573629Y-195585771D01*
X197716486Y-195657200D01*
X197787915Y-195728629D01*
X197859344Y-195871486D01*
X197859344Y-196300057D01*
X197787915Y-196442914D01*
X197716486Y-196514343D01*
X197573629Y-196585771D01*
X197287915Y-196585771D01*
X197145058Y-196514343D01*
X198502201Y-195585771D02*
X198502201Y-196585771D01*
X198502201Y-195728629D02*
X198573629Y-195657200D01*
X198716487Y-195585771D01*
X198930772Y-195585771D01*
X199073629Y-195657200D01*
X199145058Y-195800057D01*
X199145058Y-196585771D01*
X200430772Y-196514343D02*
X200287915Y-196585771D01*
X200002201Y-196585771D01*
X199859344Y-196514343D01*
X199787915Y-196371486D01*
X199787915Y-195800057D01*
X199859344Y-195657200D01*
X200002201Y-195585771D01*
X200287915Y-195585771D01*
X200430772Y-195657200D01*
X200502201Y-195800057D01*
X200502201Y-195942914D01*
X199787915Y-196085771D01*
X201002201Y-195585771D02*
X201287915Y-196585771D01*
X201573629Y-195871486D01*
X201859344Y-196585771D01*
X202145058Y-195585771D01*
X204287915Y-197157200D02*
X204216487Y-197085771D01*
X204073630Y-196871486D01*
X204002201Y-196728629D01*
X203930772Y-196514343D01*
X203859344Y-196157200D01*
X203859344Y-195871486D01*
X203930772Y-195514343D01*
X204002201Y-195300057D01*
X204073630Y-195157200D01*
X204216487Y-194942914D01*
X204287915Y-194871486D01*
X204787915Y-195228629D02*
X204859344Y-195157200D01*
X205002201Y-195085771D01*
X205359344Y-195085771D01*
X205502201Y-195157200D01*
X205573630Y-195228629D01*
X205645058Y-195371486D01*
X205645058Y-195514343D01*
X205573630Y-195728629D01*
X204716487Y-196585771D01*
X205645058Y-196585771D01*
X206573629Y-195085771D02*
X206716486Y-195085771D01*
X206859343Y-195157200D01*
X206930772Y-195228629D01*
X207002201Y-195371486D01*
X207073629Y-195657200D01*
X207073629Y-196014343D01*
X207002201Y-196300057D01*
X206930772Y-196442914D01*
X206859343Y-196514343D01*
X206716486Y-196585771D01*
X206573629Y-196585771D01*
X206430772Y-196514343D01*
X206359343Y-196442914D01*
X206287915Y-196300057D01*
X206216486Y-196014343D01*
X206216486Y-195657200D01*
X206287915Y-195371486D01*
X206359343Y-195228629D01*
X206430772Y-195157200D01*
X206573629Y-195085771D01*
X208502200Y-196585771D02*
X207645057Y-196585771D01*
X208073629Y-196585771D02*
X208073629Y-195085771D01*
X207930772Y-195300057D01*
X207787914Y-195442914D01*
X207645057Y-195514343D01*
X209859343Y-195085771D02*
X209145057Y-195085771D01*
X209073628Y-195800057D01*
X209145057Y-195728629D01*
X209287914Y-195657200D01*
X209645057Y-195657200D01*
X209787914Y-195728629D01*
X209859343Y-195800057D01*
X209930771Y-195942914D01*
X209930771Y-196300057D01*
X209859343Y-196442914D01*
X209787914Y-196514343D01*
X209645057Y-196585771D01*
X209287914Y-196585771D01*
X209145057Y-196514343D01*
X209073628Y-196442914D01*
X210573628Y-196014343D02*
X211716485Y-196014343D01*
X212716485Y-195085771D02*
X212859342Y-195085771D01*
X213002199Y-195157200D01*
X213073628Y-195228629D01*
X213145057Y-195371486D01*
X213216485Y-195657200D01*
X213216485Y-196014343D01*
X213145057Y-196300057D01*
X213073628Y-196442914D01*
X213002199Y-196514343D01*
X212859342Y-196585771D01*
X212716485Y-196585771D01*
X212573628Y-196514343D01*
X212502199Y-196442914D01*
X212430771Y-196300057D01*
X212359342Y-196014343D01*
X212359342Y-195657200D01*
X212430771Y-195371486D01*
X212502199Y-195228629D01*
X212573628Y-195157200D01*
X212716485Y-195085771D01*
X213787913Y-195228629D02*
X213859342Y-195157200D01*
X214002199Y-195085771D01*
X214359342Y-195085771D01*
X214502199Y-195157200D01*
X214573628Y-195228629D01*
X214645056Y-195371486D01*
X214645056Y-195514343D01*
X214573628Y-195728629D01*
X213716485Y-196585771D01*
X214645056Y-196585771D01*
X215287913Y-196014343D02*
X216430770Y-196014343D01*
X217073627Y-195228629D02*
X217145056Y-195157200D01*
X217287913Y-195085771D01*
X217645056Y-195085771D01*
X217787913Y-195157200D01*
X217859342Y-195228629D01*
X217930770Y-195371486D01*
X217930770Y-195514343D01*
X217859342Y-195728629D01*
X217002199Y-196585771D01*
X217930770Y-196585771D01*
X218859341Y-195085771D02*
X219002198Y-195085771D01*
X219145055Y-195157200D01*
X219216484Y-195228629D01*
X219287913Y-195371486D01*
X219359341Y-195657200D01*
X219359341Y-196014343D01*
X219287913Y-196300057D01*
X219216484Y-196442914D01*
X219145055Y-196514343D01*
X219002198Y-196585771D01*
X218859341Y-196585771D01*
X218716484Y-196514343D01*
X218645055Y-196442914D01*
X218573627Y-196300057D01*
X218502198Y-196014343D01*
X218502198Y-195657200D01*
X218573627Y-195371486D01*
X218645055Y-195228629D01*
X218716484Y-195157200D01*
X218859341Y-195085771D01*
X221645055Y-195800057D02*
X221859341Y-195871486D01*
X221930769Y-195942914D01*
X222002198Y-196085771D01*
X222002198Y-196300057D01*
X221930769Y-196442914D01*
X221859341Y-196514343D01*
X221716483Y-196585771D01*
X221145055Y-196585771D01*
X221145055Y-195085771D01*
X221645055Y-195085771D01*
X221787912Y-195157200D01*
X221859341Y-195228629D01*
X221930769Y-195371486D01*
X221930769Y-195514343D01*
X221859341Y-195657200D01*
X221787912Y-195728629D01*
X221645055Y-195800057D01*
X221145055Y-195800057D01*
X222502198Y-195085771D02*
X223502198Y-195085771D01*
X222502198Y-196585771D01*
X223502198Y-196585771D01*
X224930769Y-196585771D02*
X224430769Y-195871486D01*
X224073626Y-196585771D02*
X224073626Y-195085771D01*
X224645054Y-195085771D01*
X224787912Y-195157200D01*
X224859340Y-195228629D01*
X224930769Y-195371486D01*
X224930769Y-195585771D01*
X224859340Y-195728629D01*
X224787912Y-195800057D01*
X224645054Y-195871486D01*
X224073626Y-195871486D01*
X227430769Y-195085771D02*
X226716483Y-195085771D01*
X226645054Y-195800057D01*
X226716483Y-195728629D01*
X226859340Y-195657200D01*
X227216483Y-195657200D01*
X227359340Y-195728629D01*
X227430769Y-195800057D01*
X227502197Y-195942914D01*
X227502197Y-196300057D01*
X227430769Y-196442914D01*
X227359340Y-196514343D01*
X227216483Y-196585771D01*
X226859340Y-196585771D01*
X226716483Y-196514343D01*
X226645054Y-196442914D01*
X228787911Y-195585771D02*
X228787911Y-196585771D01*
X228430768Y-195014343D02*
X228073625Y-196085771D01*
X229002197Y-196085771D01*
X229430768Y-195085771D02*
X230359339Y-195085771D01*
X229859339Y-195657200D01*
X230073625Y-195657200D01*
X230216482Y-195728629D01*
X230287911Y-195800057D01*
X230359339Y-195942914D01*
X230359339Y-196300057D01*
X230287911Y-196442914D01*
X230216482Y-196514343D01*
X230073625Y-196585771D01*
X229645053Y-196585771D01*
X229502196Y-196514343D01*
X229430768Y-196442914D01*
X230859339Y-195085771D02*
X231859339Y-195085771D01*
X231216482Y-196585771D01*
X232287910Y-197157200D02*
X232359338Y-197085771D01*
X232502195Y-196871486D01*
X232573624Y-196728629D01*
X232645053Y-196514343D01*
X232716481Y-196157200D01*
X232716481Y-195871486D01*
X232645053Y-195514343D01*
X232573624Y-195300057D01*
X232502195Y-195157200D01*
X232359338Y-194942914D01*
X232287910Y-194871486D01*
X233430767Y-196014343D02*
X234573624Y-196014343D01*
X235287910Y-195585771D02*
X235287910Y-197085771D01*
X235287910Y-195657200D02*
X235430767Y-195585771D01*
X235716481Y-195585771D01*
X235859338Y-195657200D01*
X235930767Y-195728629D01*
X236002196Y-195871486D01*
X236002196Y-196300057D01*
X235930767Y-196442914D01*
X235859338Y-196514343D01*
X235716481Y-196585771D01*
X235430767Y-196585771D01*
X235287910Y-196514343D01*
X236645053Y-196585771D02*
X236645053Y-195585771D01*
X236645053Y-195871486D02*
X236716481Y-195728629D01*
X236787910Y-195657200D01*
X236930767Y-195585771D01*
X237073624Y-195585771D01*
X237787910Y-196585771D02*
X237645052Y-196514343D01*
X237573624Y-196442914D01*
X237502195Y-196300057D01*
X237502195Y-195871486D01*
X237573624Y-195728629D01*
X237645052Y-195657200D01*
X237787910Y-195585771D01*
X238002195Y-195585771D01*
X238145052Y-195657200D01*
X238216481Y-195728629D01*
X238287910Y-195871486D01*
X238287910Y-196300057D01*
X238216481Y-196442914D01*
X238145052Y-196514343D01*
X238002195Y-196585771D01*
X237787910Y-196585771D01*
X239573624Y-196585771D02*
X239573624Y-195085771D01*
X239573624Y-196514343D02*
X239430767Y-196585771D01*
X239145053Y-196585771D01*
X239002195Y-196514343D01*
X238930767Y-196442914D01*
X238859338Y-196300057D01*
X238859338Y-195871486D01*
X238930767Y-195728629D01*
X239002195Y-195657200D01*
X239145053Y-195585771D01*
X239430767Y-195585771D01*
X239573624Y-195657200D01*
X240930767Y-195585771D02*
X240930767Y-196585771D01*
X240287910Y-195585771D02*
X240287910Y-196371486D01*
X240359338Y-196514343D01*
X240502196Y-196585771D01*
X240716481Y-196585771D01*
X240859338Y-196514343D01*
X240930767Y-196442914D01*
X242287910Y-196514343D02*
X242145053Y-196585771D01*
X241859339Y-196585771D01*
X241716481Y-196514343D01*
X241645053Y-196442914D01*
X241573624Y-196300057D01*
X241573624Y-195871486D01*
X241645053Y-195728629D01*
X241716481Y-195657200D01*
X241859339Y-195585771D01*
X242145053Y-195585771D01*
X242287910Y-195657200D01*
X242716481Y-195585771D02*
X243287910Y-195585771D01*
X242930767Y-195085771D02*
X242930767Y-196371486D01*
X243002195Y-196514343D01*
X243145053Y-196585771D01*
X243287910Y-196585771D01*
D10*
D11*
X177002200Y-191507200D02*
X285002200Y-191507200D01*
D10*
D12*
X264216486Y-193785771D02*
X263716486Y-193071486D01*
X263359343Y-193785771D02*
X263359343Y-192285771D01*
X263930771Y-192285771D01*
X264073629Y-192357200D01*
X264145057Y-192428629D01*
X264216486Y-192571486D01*
X264216486Y-192785771D01*
X264145057Y-192928629D01*
X264073629Y-193000057D01*
X263930771Y-193071486D01*
X263359343Y-193071486D01*
X265430771Y-193714343D02*
X265287914Y-193785771D01*
X265002200Y-193785771D01*
X264859343Y-193714343D01*
X264787914Y-193571486D01*
X264787914Y-193000057D01*
X264859343Y-192857200D01*
X265002200Y-192785771D01*
X265287914Y-192785771D01*
X265430771Y-192857200D01*
X265502200Y-193000057D01*
X265502200Y-193142914D01*
X264787914Y-193285771D01*
X266002200Y-192785771D02*
X266359343Y-193785771D01*
X266716485Y-192785771D01*
X267287914Y-193642914D02*
X267359342Y-193714343D01*
X267287914Y-193785771D01*
X267216485Y-193714343D01*
X267287914Y-193642914D01*
X267287914Y-193785771D01*
X267287914Y-192857200D02*
X267359342Y-192928629D01*
X267287914Y-193000057D01*
X267216485Y-192928629D01*
X267287914Y-192857200D01*
X267287914Y-193000057D01*
D10*
D11*
X178287914Y-193714343D02*
X178502200Y-193785771D01*
X178859343Y-193785771D01*
X179002200Y-193714343D01*
X179073629Y-193642914D01*
X179145057Y-193500057D01*
X179145057Y-193357200D01*
X179073629Y-193214343D01*
X179002200Y-193142914D01*
X178859343Y-193071486D01*
X178573629Y-193000057D01*
X178430771Y-192928629D01*
X178359343Y-192857200D01*
X178287914Y-192714343D01*
X178287914Y-192571486D01*
X178359343Y-192428629D01*
X178430771Y-192357200D01*
X178573629Y-192285771D01*
X178930771Y-192285771D01*
X179145057Y-192357200D01*
X179787914Y-193785771D02*
X179787914Y-192785771D01*
X179787914Y-192285771D02*
X179716485Y-192357200D01*
X179787914Y-192428629D01*
X179859342Y-192357200D01*
X179787914Y-192285771D01*
X179787914Y-192428629D01*
X180359343Y-192785771D02*
X181145057Y-192785771D01*
X180359343Y-193785771D01*
X181145057Y-193785771D01*
X182287914Y-193714343D02*
X182145057Y-193785771D01*
X181859343Y-193785771D01*
X181716486Y-193714343D01*
X181645057Y-193571486D01*
X181645057Y-193000057D01*
X181716486Y-192857200D01*
X181859343Y-192785771D01*
X182145057Y-192785771D01*
X182287914Y-192857200D01*
X182359343Y-193000057D01*
X182359343Y-193142914D01*
X181645057Y-193285771D01*
X183002200Y-193642914D02*
X183073628Y-193714343D01*
X183002200Y-193785771D01*
X182930771Y-193714343D01*
X183002200Y-193642914D01*
X183002200Y-193785771D01*
X183002200Y-192857200D02*
X183073628Y-192928629D01*
X183002200Y-193000057D01*
X182930771Y-192928629D01*
X183002200Y-192857200D01*
X183002200Y-193000057D01*
X184787914Y-193357200D02*
X185502200Y-193357200D01*
X184645057Y-193785771D02*
X185145057Y-192285771D01*
X185645057Y-193785771D01*
X186787914Y-192785771D02*
X186787914Y-193785771D01*
X186430771Y-192214343D02*
X186073628Y-193285771D01*
X187002200Y-193285771D01*
D10*
D11*
X263359343Y-196585771D02*
X263359343Y-195085771D01*
X264716486Y-196585771D02*
X264716486Y-195085771D01*
X264716486Y-196514343D02*
X264573629Y-196585771D01*
X264287915Y-196585771D01*
X264145057Y-196514343D01*
X264073629Y-196442914D01*
X264002200Y-196300057D01*
X264002200Y-195871486D01*
X264073629Y-195728629D01*
X264145057Y-195657200D01*
X264287915Y-195585771D01*
X264573629Y-195585771D01*
X264716486Y-195657200D01*
X265430772Y-196442914D02*
X265502200Y-196514343D01*
X265430772Y-196585771D01*
X265359343Y-196514343D01*
X265430772Y-196442914D01*
X265430772Y-196585771D01*
X265430772Y-195657200D02*
X265502200Y-195728629D01*
X265430772Y-195800057D01*
X265359343Y-195728629D01*
X265430772Y-195657200D01*
X265430772Y-195800057D01*
X268073629Y-196585771D02*
X267216486Y-196585771D01*
X267645058Y-196585771D02*
X267645058Y-195085771D01*
X267502201Y-195300057D01*
X267359343Y-195442914D01*
X267216486Y-195514343D01*
X269787914Y-195014343D02*
X268502200Y-196942914D01*
X271073629Y-196585771D02*
X270216486Y-196585771D01*
X270645058Y-196585771D02*
X270645058Y-195085771D01*
X270502201Y-195300057D01*
X270359343Y-195442914D01*
X270216486Y-195514343D01*
D10*
D11*
X177002200Y-187507200D02*
X285002200Y-187507200D01*
D10*
D13*
X178454581Y-188211962D02*
X179597438Y-188211962D01*
X178776010Y-190211962D02*
X179026010Y-188211962D01*
X180014105Y-190211962D02*
X180180771Y-188878629D01*
X180264105Y-188211962D02*
X180156962Y-188307200D01*
X180240295Y-188402438D01*
X180347439Y-188307200D01*
X180264105Y-188211962D01*
X180240295Y-188402438D01*
X180847438Y-188878629D02*
X181609343Y-188878629D01*
X181216486Y-188211962D02*
X181002200Y-189926248D01*
X181073630Y-190116724D01*
X181252201Y-190211962D01*
X181442677Y-190211962D01*
X182395058Y-190211962D02*
X182216487Y-190116724D01*
X182145057Y-189926248D01*
X182359343Y-188211962D01*
X183930772Y-190116724D02*
X183728391Y-190211962D01*
X183347439Y-190211962D01*
X183168867Y-190116724D01*
X183097438Y-189926248D01*
X183192676Y-189164343D01*
X183311724Y-188973867D01*
X183514105Y-188878629D01*
X183895057Y-188878629D01*
X184073629Y-188973867D01*
X184145057Y-189164343D01*
X184121248Y-189354819D01*
X183145057Y-189545295D01*
X184895057Y-190021486D02*
X184978392Y-190116724D01*
X184871248Y-190211962D01*
X184787915Y-190116724D01*
X184895057Y-190021486D01*
X184871248Y-190211962D01*
X185026010Y-188973867D02*
X185109344Y-189069105D01*
X185002200Y-189164343D01*
X184918867Y-189069105D01*
X185026010Y-188973867D01*
X185002200Y-189164343D01*
D10*
D11*
X178859343Y-185600057D02*
X178359343Y-185600057D01*
X178359343Y-186385771D02*
X178359343Y-184885771D01*
X179073629Y-184885771D01*
X179645057Y-186385771D02*
X179645057Y-185385771D01*
X179645057Y-184885771D02*
X179573628Y-184957200D01*
X179645057Y-185028629D01*
X179716485Y-184957200D01*
X179645057Y-184885771D01*
X179645057Y-185028629D01*
X180573629Y-186385771D02*
X180430771Y-186314343D01*
X180359343Y-186171486D01*
X180359343Y-184885771D01*
X181716485Y-186314343D02*
X181573628Y-186385771D01*
X181287914Y-186385771D01*
X181145057Y-186314343D01*
X181073628Y-186171486D01*
X181073628Y-185600057D01*
X181145057Y-185457200D01*
X181287914Y-185385771D01*
X181573628Y-185385771D01*
X181716485Y-185457200D01*
X181787914Y-185600057D01*
X181787914Y-185742914D01*
X181073628Y-185885771D01*
X182430771Y-186242914D02*
X182502199Y-186314343D01*
X182430771Y-186385771D01*
X182359342Y-186314343D01*
X182430771Y-186242914D01*
X182430771Y-186385771D01*
X182430771Y-185457200D02*
X182502199Y-185528629D01*
X182430771Y-185600057D01*
X182359342Y-185528629D01*
X182430771Y-185457200D01*
X182430771Y-185600057D01*
X184287914Y-186385771D02*
X184287914Y-184885771D01*
X184859342Y-184885771D01*
X185002200Y-184957200D01*
X185073628Y-185028629D01*
X185145057Y-185171486D01*
X185145057Y-185385771D01*
X185073628Y-185528629D01*
X185002200Y-185600057D01*
X184859342Y-185671486D01*
X184287914Y-185671486D01*
X185787914Y-186385771D02*
X185787914Y-185385771D01*
X185787914Y-185671486D02*
X185859342Y-185528629D01*
X185930771Y-185457200D01*
X186073628Y-185385771D01*
X186216485Y-185385771D01*
X186930771Y-186385771D02*
X186787913Y-186314343D01*
X186716485Y-186242914D01*
X186645056Y-186100057D01*
X186645056Y-185671486D01*
X186716485Y-185528629D01*
X186787913Y-185457200D01*
X186930771Y-185385771D01*
X187145056Y-185385771D01*
X187287913Y-185457200D01*
X187359342Y-185528629D01*
X187430771Y-185671486D01*
X187430771Y-186100057D01*
X187359342Y-186242914D01*
X187287913Y-186314343D01*
X187145056Y-186385771D01*
X186930771Y-186385771D01*
X188073628Y-185385771D02*
X188073628Y-186671486D01*
X188002199Y-186814343D01*
X187859342Y-186885771D01*
X187787914Y-186885771D01*
X188073628Y-184885771D02*
X188002199Y-184957200D01*
X188073628Y-185028629D01*
X188145056Y-184957200D01*
X188073628Y-184885771D01*
X188073628Y-185028629D01*
X189359342Y-186314343D02*
X189216485Y-186385771D01*
X188930771Y-186385771D01*
X188787914Y-186314343D01*
X188716485Y-186171486D01*
X188716485Y-185600057D01*
X188787914Y-185457200D01*
X188930771Y-185385771D01*
X189216485Y-185385771D01*
X189359342Y-185457200D01*
X189430771Y-185600057D01*
X189430771Y-185742914D01*
X188716485Y-185885771D01*
X190716485Y-186314343D02*
X190573628Y-186385771D01*
X190287914Y-186385771D01*
X190145056Y-186314343D01*
X190073628Y-186242914D01*
X190002199Y-186100057D01*
X190002199Y-185671486D01*
X190073628Y-185528629D01*
X190145056Y-185457200D01*
X190287914Y-185385771D01*
X190573628Y-185385771D01*
X190716485Y-185457200D01*
X191145056Y-185385771D02*
X191716485Y-185385771D01*
X191359342Y-184885771D02*
X191359342Y-186171486D01*
X191430770Y-186314343D01*
X191573628Y-186385771D01*
X191716485Y-186385771D01*
X191859342Y-186528629D02*
X193002199Y-186528629D01*
X193287913Y-185028629D02*
X193359342Y-184957200D01*
X193502199Y-184885771D01*
X193859342Y-184885771D01*
X194002199Y-184957200D01*
X194073628Y-185028629D01*
X194145056Y-185171486D01*
X194145056Y-185314343D01*
X194073628Y-185528629D01*
X193216485Y-186385771D01*
X194145056Y-186385771D01*
X194787913Y-186242914D02*
X194859341Y-186314343D01*
X194787913Y-186385771D01*
X194716484Y-186314343D01*
X194787913Y-186242914D01*
X194787913Y-186385771D01*
X195502199Y-186385771D02*
X195502199Y-184885771D01*
X195645056Y-185814343D02*
X196073627Y-186385771D01*
X196073627Y-185385771D02*
X195502199Y-185957200D01*
X196716485Y-186385771D02*
X196716485Y-185385771D01*
X196716485Y-184885771D02*
X196645056Y-184957200D01*
X196716485Y-185028629D01*
X196787913Y-184957200D01*
X196716485Y-184885771D01*
X196716485Y-185028629D01*
X198073628Y-186314343D02*
X197930771Y-186385771D01*
X197645057Y-186385771D01*
X197502199Y-186314343D01*
X197430771Y-186242914D01*
X197359342Y-186100057D01*
X197359342Y-185671486D01*
X197430771Y-185528629D01*
X197502199Y-185457200D01*
X197645057Y-185385771D01*
X197930771Y-185385771D01*
X198073628Y-185457200D01*
X199359342Y-186385771D02*
X199359342Y-185600057D01*
X199287913Y-185457200D01*
X199145056Y-185385771D01*
X198859342Y-185385771D01*
X198716485Y-185457200D01*
X199359342Y-186314343D02*
X199216485Y-186385771D01*
X198859342Y-186385771D01*
X198716485Y-186314343D01*
X198645056Y-186171486D01*
X198645056Y-186028629D01*
X198716485Y-185885771D01*
X198859342Y-185814343D01*
X199216485Y-185814343D01*
X199359342Y-185742914D01*
X200716485Y-186385771D02*
X200716485Y-184885771D01*
X200716485Y-186314343D02*
X200573628Y-186385771D01*
X200287914Y-186385771D01*
X200145056Y-186314343D01*
X200073628Y-186242914D01*
X200002199Y-186100057D01*
X200002199Y-185671486D01*
X200073628Y-185528629D01*
X200145056Y-185457200D01*
X200287914Y-185385771D01*
X200573628Y-185385771D01*
X200716485Y-185457200D01*
X201073628Y-186528629D02*
X202216485Y-186528629D01*
X202573628Y-185385771D02*
X202573628Y-186885771D01*
X202573628Y-185457200D02*
X202716485Y-185385771D01*
X203002199Y-185385771D01*
X203145056Y-185457200D01*
X203216485Y-185528629D01*
X203287914Y-185671486D01*
X203287914Y-186100057D01*
X203216485Y-186242914D01*
X203145056Y-186314343D01*
X203002199Y-186385771D01*
X202716485Y-186385771D01*
X202573628Y-186314343D01*
X204573628Y-186314343D02*
X204430771Y-186385771D01*
X204145057Y-186385771D01*
X204002199Y-186314343D01*
X203930771Y-186242914D01*
X203859342Y-186100057D01*
X203859342Y-185671486D01*
X203930771Y-185528629D01*
X204002199Y-185457200D01*
X204145057Y-185385771D01*
X204430771Y-185385771D01*
X204573628Y-185457200D01*
X205216485Y-186385771D02*
X205216485Y-184885771D01*
X205216485Y-185457200D02*
X205359342Y-185385771D01*
X205645056Y-185385771D01*
X205787913Y-185457200D01*
X205859342Y-185528629D01*
X205930771Y-185671486D01*
X205930771Y-186100057D01*
X205859342Y-186242914D01*
X205787913Y-186314343D01*
X205645056Y-186385771D01*
X205359342Y-186385771D01*
X205216485Y-186314343D01*
D10*
D11*
X177002200Y-181507200D02*
X285002200Y-181507200D01*
D10*
D11*
X178287914Y-183614343D02*
X178502200Y-183685771D01*
X178859343Y-183685771D01*
X179002200Y-183614343D01*
X179073629Y-183542914D01*
X179145057Y-183400057D01*
X179145057Y-183257200D01*
X179073629Y-183114343D01*
X179002200Y-183042914D01*
X178859343Y-182971486D01*
X178573629Y-182900057D01*
X178430771Y-182828629D01*
X178359343Y-182757200D01*
X178287914Y-182614343D01*
X178287914Y-182471486D01*
X178359343Y-182328629D01*
X178430771Y-182257200D01*
X178573629Y-182185771D01*
X178930771Y-182185771D01*
X179145057Y-182257200D01*
X179787914Y-183685771D02*
X179787914Y-182185771D01*
X180430771Y-183685771D02*
X180430771Y-182900057D01*
X180359342Y-182757200D01*
X180216485Y-182685771D01*
X180002200Y-182685771D01*
X179859342Y-182757200D01*
X179787914Y-182828629D01*
X181716485Y-183614343D02*
X181573628Y-183685771D01*
X181287914Y-183685771D01*
X181145057Y-183614343D01*
X181073628Y-183471486D01*
X181073628Y-182900057D01*
X181145057Y-182757200D01*
X181287914Y-182685771D01*
X181573628Y-182685771D01*
X181716485Y-182757200D01*
X181787914Y-182900057D01*
X181787914Y-183042914D01*
X181073628Y-183185771D01*
X183002199Y-183614343D02*
X182859342Y-183685771D01*
X182573628Y-183685771D01*
X182430771Y-183614343D01*
X182359342Y-183471486D01*
X182359342Y-182900057D01*
X182430771Y-182757200D01*
X182573628Y-182685771D01*
X182859342Y-182685771D01*
X183002199Y-182757200D01*
X183073628Y-182900057D01*
X183073628Y-183042914D01*
X182359342Y-183185771D01*
X183502199Y-182685771D02*
X184073628Y-182685771D01*
X183716485Y-182185771D02*
X183716485Y-183471486D01*
X183787913Y-183614343D01*
X183930771Y-183685771D01*
X184073628Y-183685771D01*
X184573628Y-183542914D02*
X184645056Y-183614343D01*
X184573628Y-183685771D01*
X184502199Y-183614343D01*
X184573628Y-183542914D01*
X184573628Y-183685771D01*
X184573628Y-182757200D02*
X184645056Y-182828629D01*
X184573628Y-182900057D01*
X184502199Y-182828629D01*
X184573628Y-182757200D01*
X184573628Y-182900057D01*
D10*
D11*
X197002200Y-191507200D02*
X197002200Y-194507200D01*
D10*
D11*
X261002200Y-191507200D02*
X261002200Y-198007200D01*
D14*
X82550000Y-138049000D03*
D15*
X80010000Y-138049000D03*
X77470000Y-138049000D03*
X74930000Y-138049000D03*
X72390000Y-138049000D03*
X69850000Y-138049000D03*
X67310000Y-138049000D03*
X64770000Y-138049000D03*
X62230000Y-138049000D03*
X59690000Y-138049000D03*
D16*
X74168000Y-132334000D03*
X59436000Y-99314000D03*
D17*
X71204000Y-119380000D03*
X69004000Y-119380000D03*
X69680000Y-127000000D03*
X67480000Y-127000000D03*
D16*
X134366000Y-137414000D03*
D18*
X131191000Y-107950000D03*
X131191000Y-110490000D03*
X133189980Y-110490000D03*
X133189980Y-107950000D03*
D19*
X135890000Y-103220520D03*
X135890000Y-115219480D03*
D20*
X65890140Y-88900000D03*
X59890660Y-88900000D03*
X62890400Y-93599000D03*
D21*
X123698000Y-135382000D03*
D22*
X126238000Y-135382000D03*
D23*
X115293140Y-114487960D03*
X115293140Y-113538000D03*
X115293140Y-112588040D03*
X118894860Y-112588040D03*
X118894860Y-113538000D03*
X118894860Y-114487960D03*
X111610140Y-121218960D03*
X111610140Y-120269000D03*
X111610140Y-119319040D03*
X115211860Y-119319040D03*
X115211860Y-120269000D03*
X115211860Y-121218960D03*
D17*
X69004000Y-114427000D03*
X71204000Y-114427000D03*
D24*
X111527000Y-110744000D03*
X107167000Y-110744000D03*
D25*
X122047000Y-110596000D03*
X122047000Y-114956000D03*
D24*
X109580000Y-123190000D03*
X113940000Y-123190000D03*
X108606000Y-117348000D03*
X104246000Y-117348000D03*
D26*
X65532000Y-125288000D03*
X65532000Y-127188000D03*
D27*
X69530000Y-130556000D03*
X67630000Y-130556000D03*
X75377000Y-124333000D03*
X77277000Y-124333000D03*
X75377000Y-122555000D03*
X77277000Y-122555000D03*
X89088000Y-118364000D03*
X87188000Y-118364000D03*
X89088000Y-114554000D03*
X87188000Y-114554000D03*
D28*
X63500000Y-97706000D03*
X63500000Y-99906000D03*
X63500000Y-102278000D03*
X63500000Y-104478000D03*
D17*
X67988000Y-92202000D03*
X70188000Y-92202000D03*
X69004000Y-117729000D03*
X71204000Y-117729000D03*
X69004000Y-116078000D03*
X71204000Y-116078000D03*
D28*
X71628000Y-94658000D03*
X71628000Y-96858000D03*
X67564000Y-94658000D03*
X67564000Y-96858000D03*
D17*
X111168000Y-136906000D03*
X113368000Y-136906000D03*
X111168000Y-138938000D03*
X113368000Y-138938000D03*
D28*
X115824000Y-136822000D03*
X115824000Y-139022000D03*
D17*
X110574000Y-112649000D03*
X108374000Y-112649000D03*
X115994000Y-111125000D03*
X118194000Y-111125000D03*
X112565000Y-117602000D03*
X114765000Y-117602000D03*
X107907000Y-119380000D03*
X105707000Y-119380000D03*
D28*
X58420000Y-108374000D03*
X58420000Y-110574000D03*
X58420000Y-112438000D03*
X58420000Y-114638000D03*
X63754000Y-125138000D03*
X63754000Y-127338000D03*
D17*
X71204000Y-124333000D03*
X69004000Y-124333000D03*
X82126000Y-134112000D03*
X79926000Y-134112000D03*
X79926000Y-132842000D03*
X82126000Y-132842000D03*
D28*
X61722000Y-127338000D03*
X61722000Y-125138000D03*
D17*
X67480000Y-128778000D03*
X69680000Y-128778000D03*
X69004000Y-122682000D03*
X71204000Y-122682000D03*
X69004000Y-121031000D03*
X71204000Y-121031000D03*
D27*
X64582000Y-109474000D03*
X66482000Y-109474000D03*
X97856000Y-131064000D03*
X99756000Y-131064000D03*
D26*
X89916000Y-121478000D03*
X89916000Y-123378000D03*
D27*
X129474000Y-130048000D03*
X127574000Y-130048000D03*
D26*
X123952000Y-105984000D03*
X123952000Y-107884000D03*
D27*
X129474000Y-127254000D03*
X127574000Y-127254000D03*
X129474000Y-123952000D03*
X127574000Y-123952000D03*
X129474000Y-120904000D03*
X127574000Y-120904000D03*
X102804000Y-84836000D03*
X100904000Y-84836000D03*
D26*
X122174000Y-105984000D03*
X122174000Y-107884000D03*
X111252000Y-87188000D03*
X111252000Y-89088000D03*
X75184000Y-88712000D03*
X75184000Y-90612000D03*
X115316000Y-87188000D03*
X115316000Y-89088000D03*
X97790000Y-94046000D03*
X97790000Y-95946000D03*
D27*
X102804000Y-86614000D03*
X100904000Y-86614000D03*
X65212000Y-85090000D03*
X63312000Y-85090000D03*
D26*
X124968000Y-112456000D03*
X124968000Y-110556000D03*
D27*
X116398000Y-116078000D03*
X118298000Y-116078000D03*
D26*
X122936000Y-125034000D03*
X122936000Y-126934000D03*
X118110000Y-121346000D03*
X118110000Y-119446000D03*
X112776000Y-127696000D03*
X112776000Y-125796000D03*
D16*
X134874000Y-85344000D03*
D26*
X96012000Y-94046000D03*
X96012000Y-95946000D03*
X74168000Y-94681000D03*
X74168000Y-96581000D03*
D29*
X85090000Y-96012000D03*
X86868000Y-96012000D03*
X88646000Y-96012000D03*
X106172000Y-117856000D03*
X104394000Y-115110270D03*
X111252000Y-125476000D03*
X78867000Y-124333000D03*
X78867000Y-122555000D03*
X65532000Y-130556000D03*
X90297000Y-133858000D03*
X67818000Y-119380000D03*
X64770000Y-122428000D03*
X67564000Y-124460000D03*
X62738000Y-112014000D03*
X68072000Y-109474000D03*
X58928000Y-121920000D03*
X59944000Y-113538000D03*
X136398000Y-88646000D03*
X136398000Y-90424000D03*
X136398000Y-91948000D03*
X85852000Y-116840000D03*
X85852000Y-115570000D03*
X119888000Y-115709690D03*
X118364000Y-118110000D03*
X116840000Y-117856000D03*
X75438000Y-128016000D03*
X80581500Y-114871500D03*
X90424000Y-90424000D03*
X85090000Y-94488000D03*
X102870000Y-95885000D03*
X96266000Y-90170000D03*
X75254910Y-109537520D03*
X126492000Y-92710000D03*
X127508000Y-93472000D03*
X64643000Y-118110000D03*
D30*
X99822000Y-127000000D03*
D29*
X99822000Y-125222000D03*
D30*
X101346000Y-131064000D03*
D29*
X94234000Y-116332000D03*
D30*
X99314000Y-84836000D03*
X113284000Y-89154000D03*
D29*
X127508000Y-131572000D03*
X125730000Y-123952000D03*
X125984000Y-127254000D03*
X76708000Y-90678000D03*
X61468000Y-85090000D03*
X120650000Y-110617000D03*
X125222000Y-107950000D03*
X73660000Y-98425000D03*
X94742000Y-96393000D03*
X61976000Y-104394000D03*
X71374000Y-90170000D03*
X105981500Y-102933500D03*
X101155500Y-101600000D03*
X104648000Y-104902000D03*
X104648000Y-106426000D03*
X103124000Y-106426000D03*
X103124000Y-104902000D03*
X83820000Y-132842000D03*
X74676000Y-102108000D03*
X106934000Y-123190000D03*
X118872000Y-109982000D03*
X89916000Y-125222000D03*
X126492000Y-109982000D03*
X62992000Y-129032000D03*
D30*
X89154000Y-113030000D03*
X93726000Y-107950000D03*
X95250000Y-107950000D03*
X95250000Y-106426000D03*
X95250000Y-104902000D03*
X95250000Y-103378000D03*
D29*
X89916000Y-119888000D03*
X66524875Y-115292875D03*
X95738607Y-123801706D03*
X67056000Y-132080000D03*
X60198000Y-132080000D03*
X60198000Y-115316000D03*
X70358000Y-112014000D03*
X62992000Y-113792000D03*
X63246000Y-122428000D03*
X61722000Y-122428000D03*
X60198000Y-123952000D03*
X108204000Y-96774000D03*
X109728000Y-96774000D03*
X111252000Y-96774000D03*
X111252000Y-98298000D03*
X109728000Y-98298000D03*
X108204000Y-98298000D03*
X112014000Y-100838000D03*
X114046000Y-100838000D03*
X116332000Y-100838000D03*
X118110000Y-100838000D03*
X119888000Y-100838000D03*
X66802000Y-125730000D03*
X73406000Y-125222000D03*
X73914000Y-123952000D03*
X73914000Y-122682000D03*
X101854000Y-109855000D03*
D30*
X121920000Y-112903000D03*
X122936000Y-123190000D03*
D29*
X101600000Y-123444000D03*
X104394000Y-112649000D03*
X125497011Y-105918000D03*
X125476000Y-104394000D03*
X125476000Y-102870000D03*
X127000000Y-102870000D03*
X127000000Y-104394000D03*
X127000000Y-105918000D03*
X120396000Y-103124000D03*
X118618000Y-103124000D03*
X117094000Y-103124000D03*
X117094000Y-104902000D03*
X118618000Y-104902000D03*
X120396000Y-104902000D03*
X83566000Y-134239000D03*
X119126000Y-136144000D03*
D30*
X109220000Y-127254000D03*
X109220000Y-128778000D03*
X110744000Y-128778000D03*
X110744000Y-127254000D03*
D29*
X119380000Y-126492000D03*
X117856000Y-126492000D03*
X116332000Y-126492000D03*
X114808000Y-126492000D03*
X114808000Y-124968000D03*
X116332000Y-124968000D03*
X117856000Y-124968000D03*
X119380000Y-124968000D03*
X101854000Y-119253000D03*
X72898000Y-113157000D03*
X75184000Y-125857000D03*
X65024000Y-102362000D03*
X72898000Y-115316000D03*
X73938677Y-121082151D03*
X73914000Y-120142000D03*
X71628000Y-98806000D03*
X67564000Y-98806000D03*
X100330000Y-138176000D03*
X99060000Y-137414000D03*
X90932000Y-93980000D03*
X99568000Y-95123000D03*
X103505000Y-89916000D03*
X102616000Y-90805000D03*
X108077000Y-87884000D03*
X108077000Y-86614000D03*
X106045000Y-86614000D03*
D31*
X68580000Y-112268000D02*
X68580000Y-111783067D01*
X68580000Y-111783067D02*
X68580000Y-112014000D01*
X104394000Y-115110270D02*
X104878933Y-115110270D01*
D32*
X77277000Y-124333000D02*
X78867000Y-124333000D01*
X77277000Y-122555000D02*
X78029400Y-122555000D01*
X78029400Y-122555000D02*
X78867000Y-122555000D01*
D31*
X66725200Y-130556000D02*
X65532000Y-130556000D01*
X67630000Y-130556000D02*
X66725200Y-130556000D01*
X69004000Y-119380000D02*
X67818000Y-119380000D01*
X69004000Y-117729000D02*
X69004000Y-119380000D01*
X67564000Y-124460000D02*
X68877000Y-124460000D01*
X68877000Y-124460000D02*
X69004000Y-124333000D01*
X65532000Y-127188000D02*
X67292000Y-127188000D01*
X67292000Y-127188000D02*
X67480000Y-127000000D01*
X63754000Y-127338000D02*
X65382000Y-127338000D01*
X65382000Y-127338000D02*
X65532000Y-127188000D01*
X66482000Y-109474000D02*
X68072000Y-109474000D01*
D32*
X58420000Y-114638000D02*
X58420000Y-114488000D01*
X58420000Y-114488000D02*
X59370000Y-113538000D01*
X59370000Y-113538000D02*
X59944000Y-113538000D01*
D33*
X136398000Y-91948000D02*
X136398000Y-90424000D01*
D31*
X87188000Y-114554000D02*
X86868000Y-114554000D01*
X86868000Y-114554000D02*
X85852000Y-115570000D01*
X86283200Y-118364000D02*
X85852000Y-117932800D01*
X87188000Y-118364000D02*
X86283200Y-118364000D01*
X85852000Y-117932800D02*
X85852000Y-116840000D01*
X118298000Y-116078000D02*
X119519690Y-116078000D01*
X119519690Y-116078000D02*
X119888000Y-115709690D01*
X118110000Y-119446000D02*
X118110000Y-118364000D01*
X118110000Y-118364000D02*
X118364000Y-118110000D01*
D33*
X114765000Y-117602000D02*
X116586000Y-117602000D01*
X116586000Y-117602000D02*
X116840000Y-117856000D01*
D31*
X118110000Y-119446000D02*
X115338820Y-119446000D01*
X115338820Y-119446000D02*
X115211860Y-119319040D01*
D33*
X118194000Y-111887180D02*
X118894860Y-112588040D01*
X118194000Y-111125000D02*
X118194000Y-111887180D01*
X114765000Y-118872180D02*
X115211860Y-119319040D01*
X114765000Y-117602000D02*
X114765000Y-118872180D01*
D32*
X126746000Y-92710000D02*
X127508000Y-93472000D01*
X126492000Y-92710000D02*
X126746000Y-92710000D01*
D33*
X99756000Y-131064000D02*
X101346000Y-131064000D01*
X100904000Y-84836000D02*
X99314000Y-84836000D01*
X113218000Y-89088000D02*
X113284000Y-89154000D01*
X111252000Y-89088000D02*
X113218000Y-89088000D01*
X113350000Y-89088000D02*
X113284000Y-89154000D01*
X115316000Y-89088000D02*
X113350000Y-89088000D01*
X100679000Y-86614000D02*
X99314000Y-85249000D01*
X99314000Y-85249000D02*
X99314000Y-84836000D01*
X100904000Y-86614000D02*
X100679000Y-86614000D01*
D31*
X127574000Y-121583800D02*
X127574000Y-123952000D01*
X127574000Y-120904000D02*
X127574000Y-121583800D01*
X127574000Y-124631800D02*
X127574000Y-127254000D01*
X127574000Y-123952000D02*
X127574000Y-124631800D01*
X127574000Y-127254000D02*
X127574000Y-130048000D01*
X127574000Y-131506000D02*
X127508000Y-131572000D01*
X127574000Y-130048000D02*
X127574000Y-131506000D01*
X127574000Y-123952000D02*
X125730000Y-123952000D01*
X127574000Y-127254000D02*
X125984000Y-127254000D01*
X125664000Y-126934000D02*
X125984000Y-127254000D01*
X122936000Y-126934000D02*
X125664000Y-126934000D01*
X124928000Y-110596000D02*
X124968000Y-110556000D01*
X122047000Y-110596000D02*
X124928000Y-110596000D01*
X76642000Y-90612000D02*
X76708000Y-90678000D01*
X75184000Y-90612000D02*
X76642000Y-90612000D01*
X63312000Y-85090000D02*
X61468000Y-85090000D01*
X120671000Y-110596000D02*
X120650000Y-110617000D01*
X122047000Y-110596000D02*
X120671000Y-110596000D01*
X122174000Y-107884000D02*
X123952000Y-107884000D01*
X125156000Y-107884000D02*
X125222000Y-107950000D01*
X123952000Y-107884000D02*
X125156000Y-107884000D01*
X74168000Y-97917000D02*
X73660000Y-98425000D01*
X74168000Y-96581000D02*
X74168000Y-97917000D01*
X95189000Y-95946000D02*
X94742000Y-96393000D01*
X96012000Y-95946000D02*
X95189000Y-95946000D01*
D32*
X62060000Y-104478000D02*
X61976000Y-104394000D01*
X63500000Y-104478000D02*
X62060000Y-104478000D01*
D33*
X97790000Y-95946000D02*
X96012000Y-95946000D01*
D31*
X104648000Y-104902000D02*
X104648000Y-106426000D01*
X103124000Y-106426000D02*
X103124000Y-104902000D01*
X82126000Y-132842000D02*
X83820000Y-132842000D01*
D33*
X109580000Y-123190000D02*
X106934000Y-123190000D01*
D31*
X118194000Y-110660000D02*
X118872000Y-109982000D01*
X118194000Y-111125000D02*
X118194000Y-110660000D01*
X89916000Y-123378000D02*
X89916000Y-125222000D01*
D33*
X125918000Y-110556000D02*
X126492000Y-109982000D01*
X124968000Y-110556000D02*
X125918000Y-110556000D01*
X63754000Y-128270000D02*
X62992000Y-129032000D01*
X63754000Y-127338000D02*
X63754000Y-128270000D01*
D31*
X89088000Y-114554000D02*
X89088000Y-113096000D01*
X89088000Y-113096000D02*
X89154000Y-113030000D01*
X95250000Y-107950000D02*
X93726000Y-107950000D01*
X95250000Y-103378000D02*
X95250000Y-104902000D01*
D32*
X89916000Y-118967000D02*
X89916000Y-119888000D01*
X89313000Y-118364000D02*
X89916000Y-118967000D01*
X89088000Y-118364000D02*
X89313000Y-118364000D01*
D31*
X61722000Y-122428000D02*
X62064899Y-122770899D01*
X62064899Y-122770899D02*
X61976000Y-122682000D01*
D33*
X108204000Y-96774000D02*
X109728000Y-96774000D01*
X111252000Y-96774000D02*
X111252000Y-98298000D01*
X109728000Y-98298000D02*
X108204000Y-98298000D01*
D32*
X112014000Y-100838000D02*
X114046000Y-100838000D01*
X116332000Y-100838000D02*
X118110000Y-100838000D01*
D31*
X62399372Y-125011000D02*
X62230000Y-125011000D01*
X63627000Y-125011000D02*
X62399372Y-125011000D01*
X62399372Y-125011000D02*
X61849000Y-125011000D01*
X61849000Y-125011000D02*
X61722000Y-125138000D01*
X65532000Y-125288000D02*
X66360000Y-125288000D01*
X66360000Y-125288000D02*
X66802000Y-125730000D01*
X63754000Y-125138000D02*
X65382000Y-125138000D01*
X65382000Y-125138000D02*
X65532000Y-125288000D01*
X69680000Y-128778000D02*
X69680000Y-130406000D01*
X69680000Y-130406000D02*
X69530000Y-130556000D01*
X69680000Y-127000000D02*
X71628000Y-127000000D01*
X71628000Y-127000000D02*
X73406000Y-125222000D01*
X69680000Y-127000000D02*
X69680000Y-128778000D01*
D32*
X71204000Y-124333000D02*
X73533000Y-124333000D01*
X73533000Y-124333000D02*
X73914000Y-123952000D01*
X71204000Y-124333000D02*
X71204000Y-123730600D01*
X71204000Y-123730600D02*
X71204000Y-122682000D01*
D31*
X74996000Y-123952000D02*
X75377000Y-124333000D01*
X73914000Y-123952000D02*
X74996000Y-123952000D01*
D32*
X71204000Y-121031000D02*
X71204000Y-120428600D01*
X71204000Y-120428600D02*
X71204000Y-119380000D01*
X73914000Y-122682000D02*
X73429067Y-122682000D01*
X73429067Y-122682000D02*
X73048067Y-122301000D01*
X72624000Y-122301000D02*
X71354000Y-121031000D01*
X73048067Y-122301000D02*
X72624000Y-122301000D01*
X71354000Y-121031000D02*
X71204000Y-121031000D01*
X73640000Y-122682000D02*
X73914000Y-122682000D01*
D31*
X75250000Y-122682000D02*
X75377000Y-122555000D01*
X73914000Y-122682000D02*
X75250000Y-122682000D01*
D33*
X118894860Y-114137440D02*
X118894860Y-113538000D01*
X119713420Y-114956000D02*
X118894860Y-114137440D01*
X122047000Y-114956000D02*
X119713420Y-114956000D01*
X115293140Y-113538000D02*
X115293140Y-114487960D01*
X122047000Y-113702000D02*
X121920000Y-113575000D01*
X122047000Y-114956000D02*
X122047000Y-113702000D01*
X121920000Y-113575000D02*
X121920000Y-112903000D01*
X103946960Y-114487960D02*
X115293140Y-114487960D01*
X101854000Y-112395000D02*
X103946960Y-114487960D01*
X101854000Y-109855000D02*
X101854000Y-112395000D01*
D31*
X124521000Y-112903000D02*
X124968000Y-112456000D01*
X121920000Y-112903000D02*
X124521000Y-112903000D01*
D33*
X116398000Y-115592820D02*
X115293140Y-114487960D01*
X116398000Y-116078000D02*
X116398000Y-115592820D01*
D31*
X118110000Y-121346000D02*
X115338900Y-121346000D01*
X115338900Y-121346000D02*
X115211860Y-121218960D01*
D33*
X111610140Y-120269000D02*
X111610140Y-121218960D01*
X115211860Y-120269000D02*
X115211860Y-121218960D01*
X113940000Y-122894770D02*
X113940000Y-123190000D01*
X112264190Y-121218960D02*
X113940000Y-122894770D01*
X111610140Y-121218960D02*
X112264190Y-121218960D01*
X113940000Y-123190000D02*
X122936000Y-123190000D01*
X112686000Y-123190000D02*
X113940000Y-123190000D01*
X111706599Y-124169401D02*
X112686000Y-123190000D01*
X102325401Y-124169401D02*
X111706599Y-124169401D01*
X101600000Y-123444000D02*
X102325401Y-124169401D01*
D31*
X122936000Y-125034000D02*
X122936000Y-123190000D01*
D32*
X58420000Y-108374000D02*
X58420000Y-107621600D01*
X64666000Y-97706000D02*
X63500000Y-97706000D01*
X65786000Y-95250000D02*
X65786000Y-96586000D01*
X66378000Y-94658000D02*
X65786000Y-95250000D01*
X65786000Y-96586000D02*
X64666000Y-97706000D01*
X67564000Y-94658000D02*
X66378000Y-94658000D01*
X62204601Y-98398999D02*
X62204601Y-102133399D01*
X62897600Y-97706000D02*
X62204601Y-98398999D01*
X63500000Y-97706000D02*
X62897600Y-97706000D01*
X58420000Y-105918000D02*
X58420000Y-108374000D01*
X62204601Y-102133399D02*
X58420000Y-105918000D01*
D33*
X110574000Y-111697000D02*
X111527000Y-110744000D01*
X110574000Y-112649000D02*
X110574000Y-111697000D01*
X115232180Y-112649000D02*
X115293140Y-112588040D01*
X110574000Y-112649000D02*
X115232180Y-112649000D01*
X115293140Y-111825860D02*
X115994000Y-111125000D01*
X115293140Y-112588040D02*
X115293140Y-111825860D01*
X108374000Y-112649000D02*
X104394000Y-112649000D01*
X108374000Y-111951000D02*
X107167000Y-110744000D01*
X108374000Y-112649000D02*
X108374000Y-111951000D01*
D32*
X96012000Y-94046000D02*
X97790000Y-94046000D01*
X125541841Y-103124000D02*
X125541841Y-104582159D01*
X125541841Y-104582159D02*
X125476000Y-104648000D01*
X127000000Y-103124000D02*
X125541841Y-103124000D01*
X125476000Y-103124000D02*
X125541841Y-103124000D01*
X127000000Y-105918000D02*
X127000000Y-104648000D01*
X120396000Y-103124000D02*
X120396000Y-104902000D01*
X117094000Y-103124000D02*
X118872000Y-103124000D01*
X118872000Y-104902000D02*
X117094000Y-104902000D01*
X83566000Y-134239000D02*
X82253000Y-134239000D01*
X82253000Y-134239000D02*
X82126000Y-134112000D01*
D33*
X109220000Y-127254000D02*
X109220000Y-128778000D01*
X110744000Y-128778000D02*
X110744000Y-127254000D01*
X119380000Y-126492000D02*
X117856000Y-126492000D01*
X116332000Y-126492000D02*
X114808000Y-126492000D01*
X114808000Y-124968000D02*
X116332000Y-124968000D01*
X117856000Y-124968000D02*
X119380000Y-124968000D01*
X107907000Y-118047000D02*
X108606000Y-117348000D01*
X107907000Y-119380000D02*
X107907000Y-118047000D01*
X111549180Y-119380000D02*
X111610140Y-119319040D01*
X107907000Y-119380000D02*
X111549180Y-119380000D01*
X111610140Y-118556860D02*
X112565000Y-117602000D01*
X111610140Y-119319040D02*
X111610140Y-118556860D01*
X105580000Y-119253000D02*
X105707000Y-119380000D01*
X101854000Y-119253000D02*
X105580000Y-119253000D01*
X104379000Y-117348000D02*
X104246000Y-117348000D01*
X105707000Y-118676000D02*
X104379000Y-117348000D01*
X105707000Y-119380000D02*
X105707000Y-118676000D01*
D32*
X75526899Y-125514101D02*
X75184000Y-125857000D01*
X76205601Y-124835399D02*
X75526899Y-125514101D01*
X76205601Y-116464601D02*
X76205601Y-124835399D01*
X72898000Y-113157000D02*
X76205601Y-116464601D01*
X63500000Y-100658400D02*
X63500000Y-102278000D01*
X63500000Y-99906000D02*
X63500000Y-100658400D01*
X64940000Y-102278000D02*
X65024000Y-102362000D01*
X63500000Y-102278000D02*
X64940000Y-102278000D01*
X72898000Y-115316000D02*
X72898000Y-114831067D01*
X72898000Y-114831067D02*
X72493933Y-114427000D01*
X72493933Y-114427000D02*
X71204000Y-114427000D01*
X73152000Y-119654000D02*
X73152000Y-119979286D01*
X73152000Y-119979286D02*
X73152000Y-120295474D01*
X71354000Y-117729000D02*
X73152000Y-119527000D01*
X71204000Y-117729000D02*
X71354000Y-117729000D01*
X73152000Y-119527000D02*
X73152000Y-119979286D01*
X73152000Y-120295474D02*
X73595778Y-120739252D01*
X73595778Y-120739252D02*
X73938677Y-121082151D01*
X73914000Y-120142000D02*
X73914000Y-118638000D01*
X73914000Y-118638000D02*
X71354000Y-116078000D01*
X71354000Y-116078000D02*
X71204000Y-116078000D01*
X71628000Y-96858000D02*
X71628000Y-98806000D01*
X67564000Y-98806000D02*
X67564000Y-96858000D01*
X104394000Y-138176000D02*
X100330000Y-138176000D01*
X105664000Y-136906000D02*
X104394000Y-138176000D01*
X111168000Y-136906000D02*
X105664000Y-136906000D01*
X111168000Y-138938000D02*
X100246178Y-138938000D01*
X100246178Y-138938000D02*
X99822000Y-138938000D01*
X99822000Y-138938000D02*
X99060000Y-138176000D01*
X99060000Y-138176000D02*
X99060000Y-137414000D01*
X90932000Y-93980000D02*
X90932000Y-94464933D01*
X99083067Y-95123000D02*
X98912466Y-94952399D01*
X98912466Y-94952399D02*
X91419466Y-94952399D01*
X99568000Y-95123000D02*
X99083067Y-95123000D01*
X90932000Y-94464933D02*
X91419466Y-94952399D01*
X79926000Y-132842000D02*
X79926000Y-134112000D01*
X78750400Y-135890000D02*
X78750400Y-136616200D01*
X77470000Y-137896600D02*
X77470000Y-138049000D01*
X78750400Y-136616200D02*
X77470000Y-137896600D01*
X79926000Y-134112000D02*
X79926000Y-134714400D01*
X79926000Y-134714400D02*
X78750400Y-135890000D01*
X108077000Y-89916000D02*
X107188000Y-90805000D01*
X107188000Y-90805000D02*
X102616000Y-90805000D01*
X108077000Y-88368933D02*
X108077000Y-89916000D01*
X108077000Y-87884000D02*
X108077000Y-88368933D01*
X106045000Y-86614000D02*
X108077000Y-86614000D01*
X57741399Y-137751399D02*
X57866241Y-137876241D01*
X57866241Y-137876241D02*
X58039000Y-138049000D01*
X57404000Y-112851600D02*
X57404000Y-137414000D01*
X57404000Y-137414000D02*
X57866241Y-137876241D01*
X58420000Y-112438000D02*
X57817600Y-112438000D01*
X57817600Y-112438000D02*
X57404000Y-112851600D01*
X58420000Y-110574000D02*
X58420000Y-112438000D01*
X58039000Y-138049000D02*
X59690000Y-138049000D01*
G36*
X120319800Y-137337800D02*
X116604200Y-137337800D01*
X116604200Y-137082350D01*
X116604200Y-136561650D01*
X116604200Y-136156319D01*
X116553930Y-136034957D01*
X116461043Y-135942070D01*
X116339681Y-135891800D01*
X116208319Y-135891800D01*
X116084350Y-135891800D01*
X116001800Y-135974350D01*
X116001800Y-136644200D01*
X116521650Y-136644200D01*
X116604200Y-136561650D01*
X116604200Y-137082350D01*
X116521650Y-136999800D01*
X116001800Y-136999800D01*
X116001800Y-137019800D01*
X115646200Y-137019800D01*
X115646200Y-136999800D01*
X115646200Y-136644200D01*
X115646200Y-135974350D01*
X115563650Y-135891800D01*
X115439681Y-135891800D01*
X115308319Y-135891800D01*
X115186957Y-135942070D01*
X115094070Y-136034957D01*
X115043800Y-136156319D01*
X115043800Y-136561650D01*
X115126350Y-136644200D01*
X115646200Y-136644200D01*
X115646200Y-136999800D01*
X115126350Y-136999800D01*
X115043800Y-137082350D01*
X115043800Y-137337800D01*
X114298200Y-137337800D01*
X114298200Y-137290319D01*
X114298200Y-137166350D01*
X114298200Y-136645650D01*
X114298200Y-136521681D01*
X114298200Y-136390319D01*
X114247930Y-136268957D01*
X114155043Y-136176070D01*
X114033681Y-136125800D01*
X113628350Y-136125800D01*
X113545800Y-136208350D01*
X113545800Y-136728200D01*
X114215650Y-136728200D01*
X114298200Y-136645650D01*
X114298200Y-137166350D01*
X114215650Y-137083800D01*
X113545800Y-137083800D01*
X113545800Y-137103800D01*
X113481200Y-137103800D01*
X113481200Y-128361681D01*
X113481200Y-127956350D01*
X113398650Y-127873800D01*
X112953800Y-127873800D01*
X112953800Y-128543650D01*
X113036350Y-128626200D01*
X113085319Y-128626200D01*
X113216681Y-128626200D01*
X113338043Y-128575930D01*
X113430930Y-128483043D01*
X113481200Y-128361681D01*
X113481200Y-137103800D01*
X113190200Y-137103800D01*
X113190200Y-137083800D01*
X113190200Y-136728200D01*
X113190200Y-136208350D01*
X113107650Y-136125800D01*
X112702319Y-136125800D01*
X112598200Y-136168927D01*
X112598200Y-128543650D01*
X112598200Y-127873800D01*
X112153350Y-127873800D01*
X112070800Y-127956350D01*
X112070800Y-128361681D01*
X112121070Y-128483043D01*
X112213957Y-128575930D01*
X112335319Y-128626200D01*
X112466681Y-128626200D01*
X112515650Y-128626200D01*
X112598200Y-128543650D01*
X112598200Y-136168927D01*
X112580957Y-136176070D01*
X112488070Y-136268957D01*
X112437800Y-136390319D01*
X112437800Y-136521681D01*
X112437800Y-136645650D01*
X112520350Y-136728200D01*
X113190200Y-136728200D01*
X113190200Y-137083800D01*
X112520350Y-137083800D01*
X112437800Y-137166350D01*
X112437800Y-137290319D01*
X112437800Y-137337800D01*
X112363645Y-137337800D01*
X112363645Y-136456000D01*
X112344200Y-136355779D01*
X112344200Y-135382000D01*
X112344200Y-131749800D01*
X108280200Y-131749800D01*
X108280200Y-126314200D01*
X110853071Y-126314200D01*
X111066779Y-126402939D01*
X111435603Y-126403261D01*
X111651145Y-126314200D01*
X111805355Y-126314200D01*
X111805355Y-126396000D01*
X111848574Y-126618753D01*
X111977180Y-126814533D01*
X112120195Y-126911069D01*
X112070800Y-127030319D01*
X112070800Y-127435650D01*
X112153350Y-127518200D01*
X112598200Y-127518200D01*
X112598200Y-127498200D01*
X112953800Y-127498200D01*
X112953800Y-127518200D01*
X113398650Y-127518200D01*
X113481200Y-127435650D01*
X113481200Y-127030319D01*
X113431551Y-126910458D01*
X113569533Y-126819820D01*
X113700586Y-126625669D01*
X113746645Y-126396000D01*
X113746645Y-126314200D01*
X113868200Y-126314200D01*
X113868200Y-124485645D01*
X114940000Y-124485645D01*
X115162753Y-124442426D01*
X115358533Y-124313820D01*
X115379876Y-124282200D01*
X120319800Y-124282200D01*
X120319800Y-137337800D01*
X120319800Y-137337800D01*
G37*
X120319800Y-137337800D02*
X116604200Y-137337800D01*
X116604200Y-137082350D01*
X116604200Y-136561650D01*
X116604200Y-136156319D01*
X116553930Y-136034957D01*
X116461043Y-135942070D01*
X116339681Y-135891800D01*
X116208319Y-135891800D01*
X116084350Y-135891800D01*
X116001800Y-135974350D01*
X116001800Y-136644200D01*
X116521650Y-136644200D01*
X116604200Y-136561650D01*
X116604200Y-137082350D01*
X116521650Y-136999800D01*
X116001800Y-136999800D01*
X116001800Y-137019800D01*
X115646200Y-137019800D01*
X115646200Y-136999800D01*
X115646200Y-136644200D01*
X115646200Y-135974350D01*
X115563650Y-135891800D01*
X115439681Y-135891800D01*
X115308319Y-135891800D01*
X115186957Y-135942070D01*
X115094070Y-136034957D01*
X115043800Y-136156319D01*
X115043800Y-136561650D01*
X115126350Y-136644200D01*
X115646200Y-136644200D01*
X115646200Y-136999800D01*
X115126350Y-136999800D01*
X115043800Y-137082350D01*
X115043800Y-137337800D01*
X114298200Y-137337800D01*
X114298200Y-137290319D01*
X114298200Y-137166350D01*
X114298200Y-136645650D01*
X114298200Y-136521681D01*
X114298200Y-136390319D01*
X114247930Y-136268957D01*
X114155043Y-136176070D01*
X114033681Y-136125800D01*
X113628350Y-136125800D01*
X113545800Y-136208350D01*
X113545800Y-136728200D01*
X114215650Y-136728200D01*
X114298200Y-136645650D01*
X114298200Y-137166350D01*
X114215650Y-137083800D01*
X113545800Y-137083800D01*
X113545800Y-137103800D01*
X113481200Y-137103800D01*
X113481200Y-128361681D01*
X113481200Y-127956350D01*
X113398650Y-127873800D01*
X112953800Y-127873800D01*
X112953800Y-128543650D01*
X113036350Y-128626200D01*
X113085319Y-128626200D01*
X113216681Y-128626200D01*
X113338043Y-128575930D01*
X113430930Y-128483043D01*
X113481200Y-128361681D01*
X113481200Y-137103800D01*
X113190200Y-137103800D01*
X113190200Y-137083800D01*
X113190200Y-136728200D01*
X113190200Y-136208350D01*
X113107650Y-136125800D01*
X112702319Y-136125800D01*
X112598200Y-136168927D01*
X112598200Y-128543650D01*
X112598200Y-127873800D01*
X112153350Y-127873800D01*
X112070800Y-127956350D01*
X112070800Y-128361681D01*
X112121070Y-128483043D01*
X112213957Y-128575930D01*
X112335319Y-128626200D01*
X112466681Y-128626200D01*
X112515650Y-128626200D01*
X112598200Y-128543650D01*
X112598200Y-136168927D01*
X112580957Y-136176070D01*
X112488070Y-136268957D01*
X112437800Y-136390319D01*
X112437800Y-136521681D01*
X112437800Y-136645650D01*
X112520350Y-136728200D01*
X113190200Y-136728200D01*
X113190200Y-137083800D01*
X112520350Y-137083800D01*
X112437800Y-137166350D01*
X112437800Y-137290319D01*
X112437800Y-137337800D01*
X112363645Y-137337800D01*
X112363645Y-136456000D01*
X112344200Y-136355779D01*
X112344200Y-135382000D01*
X112344200Y-131749800D01*
X108280200Y-131749800D01*
X108280200Y-126314200D01*
X110853071Y-126314200D01*
X111066779Y-126402939D01*
X111435603Y-126403261D01*
X111651145Y-126314200D01*
X111805355Y-126314200D01*
X111805355Y-126396000D01*
X111848574Y-126618753D01*
X111977180Y-126814533D01*
X112120195Y-126911069D01*
X112070800Y-127030319D01*
X112070800Y-127435650D01*
X112153350Y-127518200D01*
X112598200Y-127518200D01*
X112598200Y-127498200D01*
X112953800Y-127498200D01*
X112953800Y-127518200D01*
X113398650Y-127518200D01*
X113481200Y-127435650D01*
X113481200Y-127030319D01*
X113431551Y-126910458D01*
X113569533Y-126819820D01*
X113700586Y-126625669D01*
X113746645Y-126396000D01*
X113746645Y-126314200D01*
X113868200Y-126314200D01*
X113868200Y-124485645D01*
X114940000Y-124485645D01*
X115162753Y-124442426D01*
X115358533Y-124313820D01*
X115379876Y-124282200D01*
X120319800Y-124282200D01*
X120319800Y-137337800D01*
G36*
X109143800Y-91617800D02*
X102184200Y-91617800D01*
X102184200Y-89230200D01*
X102793800Y-89230200D01*
X102793800Y-91516200D01*
X109143800Y-91516200D01*
X109143800Y-91617800D01*
X109143800Y-91617800D01*
G37*
X109143800Y-91617800D02*
X102184200Y-91617800D01*
X102184200Y-89230200D01*
X102793800Y-89230200D01*
X102793800Y-91516200D01*
X109143800Y-91516200D01*
X109143800Y-91617800D01*
D33*
G36*
X120777000Y-101727000D02*
X102133289Y-101727000D01*
X102133569Y-101406337D01*
X101985007Y-101046788D01*
X101710159Y-100771460D01*
X101350870Y-100622270D01*
X100961837Y-100621931D01*
X100602288Y-100770493D01*
X100326960Y-101045341D01*
X100177770Y-101404630D01*
X100177489Y-101727000D01*
X99695000Y-101727000D01*
X91567000Y-101727000D01*
X91567000Y-95885000D01*
X93894085Y-95885000D01*
X93764270Y-96197630D01*
X93763931Y-96586663D01*
X93912493Y-96946212D01*
X94187341Y-97221540D01*
X94546630Y-97370730D01*
X94935663Y-97371069D01*
X95295212Y-97222507D01*
X95379676Y-97138190D01*
X95387360Y-97143377D01*
X95637000Y-97193440D01*
X96387000Y-97193440D01*
X96629123Y-97146463D01*
X96841927Y-97006673D01*
X96900804Y-96919448D01*
X96954327Y-97000927D01*
X97165360Y-97143377D01*
X97415000Y-97193440D01*
X98165000Y-97193440D01*
X98407123Y-97146463D01*
X98619927Y-97006673D01*
X98762377Y-96795640D01*
X98812440Y-96546000D01*
X98812440Y-95885000D01*
X98946917Y-95885000D01*
X99013341Y-95951540D01*
X99372630Y-96100730D01*
X99761663Y-96101069D01*
X100121212Y-95952507D01*
X100188836Y-95885000D01*
X101892099Y-95885000D01*
X101891931Y-96078663D01*
X102040493Y-96438212D01*
X102315341Y-96713540D01*
X102674630Y-96862730D01*
X103063663Y-96863069D01*
X103423212Y-96714507D01*
X103698540Y-96439659D01*
X103847730Y-96080370D01*
X103847900Y-95885000D01*
X110744000Y-95885000D01*
X120777000Y-95885000D01*
X120777000Y-101727000D01*
X120777000Y-101727000D01*
G37*
X120777000Y-101727000D02*
X102133289Y-101727000D01*
X102133569Y-101406337D01*
X101985007Y-101046788D01*
X101710159Y-100771460D01*
X101350870Y-100622270D01*
X100961837Y-100621931D01*
X100602288Y-100770493D01*
X100326960Y-101045341D01*
X100177770Y-101404630D01*
X100177489Y-101727000D01*
X99695000Y-101727000D01*
X91567000Y-101727000D01*
X91567000Y-95885000D01*
X93894085Y-95885000D01*
X93764270Y-96197630D01*
X93763931Y-96586663D01*
X93912493Y-96946212D01*
X94187341Y-97221540D01*
X94546630Y-97370730D01*
X94935663Y-97371069D01*
X95295212Y-97222507D01*
X95379676Y-97138190D01*
X95387360Y-97143377D01*
X95637000Y-97193440D01*
X96387000Y-97193440D01*
X96629123Y-97146463D01*
X96841927Y-97006673D01*
X96900804Y-96919448D01*
X96954327Y-97000927D01*
X97165360Y-97143377D01*
X97415000Y-97193440D01*
X98165000Y-97193440D01*
X98407123Y-97146463D01*
X98619927Y-97006673D01*
X98762377Y-96795640D01*
X98812440Y-96546000D01*
X98812440Y-95885000D01*
X98946917Y-95885000D01*
X99013341Y-95951540D01*
X99372630Y-96100730D01*
X99761663Y-96101069D01*
X100121212Y-95952507D01*
X100188836Y-95885000D01*
X101892099Y-95885000D01*
X101891931Y-96078663D01*
X102040493Y-96438212D01*
X102315341Y-96713540D01*
X102674630Y-96862730D01*
X103063663Y-96863069D01*
X103423212Y-96714507D01*
X103698540Y-96439659D01*
X103847730Y-96080370D01*
X103847900Y-95885000D01*
X110744000Y-95885000D01*
X120777000Y-95885000D01*
X120777000Y-101727000D01*
G36*
X98933000Y-122047000D02*
X95212069Y-122047000D01*
X95212069Y-116138337D01*
X95063507Y-115778788D01*
X94788659Y-115503460D01*
X94429370Y-115354270D01*
X94040337Y-115353931D01*
X93680788Y-115502493D01*
X93405460Y-115777341D01*
X93256270Y-116136630D01*
X93255931Y-116525663D01*
X93404493Y-116885212D01*
X93679341Y-117160540D01*
X94038630Y-117309730D01*
X94427663Y-117310069D01*
X94787212Y-117161507D01*
X95062540Y-116886659D01*
X95211730Y-116527370D01*
X95212069Y-116138337D01*
X95212069Y-122047000D01*
X90926000Y-122047000D01*
X90926000Y-121763750D01*
X90926000Y-121192250D01*
X90926000Y-120751691D01*
X90829327Y-120518302D01*
X90650699Y-120339673D01*
X90417310Y-120243000D01*
X90323000Y-120243000D01*
X90323000Y-118865310D01*
X90323000Y-118649750D01*
X90323000Y-118078250D01*
X90323000Y-117862690D01*
X90323000Y-115055310D01*
X90323000Y-114839750D01*
X90323000Y-114268250D01*
X90323000Y-114052690D01*
X90226327Y-113819301D01*
X90047698Y-113640673D01*
X89814309Y-113544000D01*
X89373750Y-113544000D01*
X89215000Y-113702750D01*
X89215000Y-114427000D01*
X90164250Y-114427000D01*
X90323000Y-114268250D01*
X90323000Y-114839750D01*
X90164250Y-114681000D01*
X89215000Y-114681000D01*
X89215000Y-115405250D01*
X89373750Y-115564000D01*
X89814309Y-115564000D01*
X90047698Y-115467327D01*
X90226327Y-115288699D01*
X90323000Y-115055310D01*
X90323000Y-117862690D01*
X90226327Y-117629301D01*
X90047698Y-117450673D01*
X89814309Y-117354000D01*
X89373750Y-117354000D01*
X89215000Y-117512750D01*
X89215000Y-118237000D01*
X90164250Y-118237000D01*
X90323000Y-118078250D01*
X90323000Y-118649750D01*
X90164250Y-118491000D01*
X89215000Y-118491000D01*
X89215000Y-119215250D01*
X89373750Y-119374000D01*
X89814309Y-119374000D01*
X90047698Y-119277327D01*
X90226327Y-119098699D01*
X90323000Y-118865310D01*
X90323000Y-120243000D01*
X90201750Y-120243000D01*
X90043000Y-120401750D01*
X90043000Y-121351000D01*
X90767250Y-121351000D01*
X90926000Y-121192250D01*
X90926000Y-121763750D01*
X90767250Y-121605000D01*
X90043000Y-121605000D01*
X90043000Y-121625000D01*
X89789000Y-121625000D01*
X89789000Y-121605000D01*
X89789000Y-121351000D01*
X89789000Y-120401750D01*
X89630250Y-120243000D01*
X89414690Y-120243000D01*
X89181301Y-120339673D01*
X89002673Y-120518302D01*
X88906000Y-120751691D01*
X88906000Y-121192250D01*
X89064750Y-121351000D01*
X89789000Y-121351000D01*
X89789000Y-121605000D01*
X89064750Y-121605000D01*
X88906000Y-121763750D01*
X88906000Y-122047000D01*
X88011000Y-122047000D01*
X88011000Y-119343173D01*
X88030123Y-119339463D01*
X88126879Y-119275904D01*
X88128302Y-119277327D01*
X88361691Y-119374000D01*
X88802250Y-119374000D01*
X88961000Y-119215250D01*
X88961000Y-118491000D01*
X88941000Y-118491000D01*
X88941000Y-118237000D01*
X88961000Y-118237000D01*
X88961000Y-117512750D01*
X88802250Y-117354000D01*
X88361691Y-117354000D01*
X88128302Y-117450673D01*
X88127019Y-117451955D01*
X88037640Y-117391623D01*
X88011000Y-117386280D01*
X88011000Y-115533173D01*
X88030123Y-115529463D01*
X88126879Y-115465904D01*
X88128302Y-115467327D01*
X88361691Y-115564000D01*
X88802250Y-115564000D01*
X88961000Y-115405250D01*
X88961000Y-114681000D01*
X88941000Y-114681000D01*
X88941000Y-114427000D01*
X88961000Y-114427000D01*
X88961000Y-113702750D01*
X88802250Y-113544000D01*
X88361691Y-113544000D01*
X88128302Y-113640673D01*
X88127019Y-113641955D01*
X88037640Y-113581623D01*
X88011000Y-113576280D01*
X88011000Y-102489000D01*
X98933000Y-102489000D01*
X98933000Y-122047000D01*
X98933000Y-122047000D01*
G37*
X98933000Y-122047000D02*
X95212069Y-122047000D01*
X95212069Y-116138337D01*
X95063507Y-115778788D01*
X94788659Y-115503460D01*
X94429370Y-115354270D01*
X94040337Y-115353931D01*
X93680788Y-115502493D01*
X93405460Y-115777341D01*
X93256270Y-116136630D01*
X93255931Y-116525663D01*
X93404493Y-116885212D01*
X93679341Y-117160540D01*
X94038630Y-117309730D01*
X94427663Y-117310069D01*
X94787212Y-117161507D01*
X95062540Y-116886659D01*
X95211730Y-116527370D01*
X95212069Y-116138337D01*
X95212069Y-122047000D01*
X90926000Y-122047000D01*
X90926000Y-121763750D01*
X90926000Y-121192250D01*
X90926000Y-120751691D01*
X90829327Y-120518302D01*
X90650699Y-120339673D01*
X90417310Y-120243000D01*
X90323000Y-120243000D01*
X90323000Y-118865310D01*
X90323000Y-118649750D01*
X90323000Y-118078250D01*
X90323000Y-117862690D01*
X90323000Y-115055310D01*
X90323000Y-114839750D01*
X90323000Y-114268250D01*
X90323000Y-114052690D01*
X90226327Y-113819301D01*
X90047698Y-113640673D01*
X89814309Y-113544000D01*
X89373750Y-113544000D01*
X89215000Y-113702750D01*
X89215000Y-114427000D01*
X90164250Y-114427000D01*
X90323000Y-114268250D01*
X90323000Y-114839750D01*
X90164250Y-114681000D01*
X89215000Y-114681000D01*
X89215000Y-115405250D01*
X89373750Y-115564000D01*
X89814309Y-115564000D01*
X90047698Y-115467327D01*
X90226327Y-115288699D01*
X90323000Y-115055310D01*
X90323000Y-117862690D01*
X90226327Y-117629301D01*
X90047698Y-117450673D01*
X89814309Y-117354000D01*
X89373750Y-117354000D01*
X89215000Y-117512750D01*
X89215000Y-118237000D01*
X90164250Y-118237000D01*
X90323000Y-118078250D01*
X90323000Y-118649750D01*
X90164250Y-118491000D01*
X89215000Y-118491000D01*
X89215000Y-119215250D01*
X89373750Y-119374000D01*
X89814309Y-119374000D01*
X90047698Y-119277327D01*
X90226327Y-119098699D01*
X90323000Y-118865310D01*
X90323000Y-120243000D01*
X90201750Y-120243000D01*
X90043000Y-120401750D01*
X90043000Y-121351000D01*
X90767250Y-121351000D01*
X90926000Y-121192250D01*
X90926000Y-121763750D01*
X90767250Y-121605000D01*
X90043000Y-121605000D01*
X90043000Y-121625000D01*
X89789000Y-121625000D01*
X89789000Y-121605000D01*
X89789000Y-121351000D01*
X89789000Y-120401750D01*
X89630250Y-120243000D01*
X89414690Y-120243000D01*
X89181301Y-120339673D01*
X89002673Y-120518302D01*
X88906000Y-120751691D01*
X88906000Y-121192250D01*
X89064750Y-121351000D01*
X89789000Y-121351000D01*
X89789000Y-121605000D01*
X89064750Y-121605000D01*
X88906000Y-121763750D01*
X88906000Y-122047000D01*
X88011000Y-122047000D01*
X88011000Y-119343173D01*
X88030123Y-119339463D01*
X88126879Y-119275904D01*
X88128302Y-119277327D01*
X88361691Y-119374000D01*
X88802250Y-119374000D01*
X88961000Y-119215250D01*
X88961000Y-118491000D01*
X88941000Y-118491000D01*
X88941000Y-118237000D01*
X88961000Y-118237000D01*
X88961000Y-117512750D01*
X88802250Y-117354000D01*
X88361691Y-117354000D01*
X88128302Y-117450673D01*
X88127019Y-117451955D01*
X88037640Y-117391623D01*
X88011000Y-117386280D01*
X88011000Y-115533173D01*
X88030123Y-115529463D01*
X88126879Y-115465904D01*
X88128302Y-115467327D01*
X88361691Y-115564000D01*
X88802250Y-115564000D01*
X88961000Y-115405250D01*
X88961000Y-114681000D01*
X88941000Y-114681000D01*
X88941000Y-114427000D01*
X88961000Y-114427000D01*
X88961000Y-113702750D01*
X88802250Y-113544000D01*
X88361691Y-113544000D01*
X88128302Y-113640673D01*
X88127019Y-113641955D01*
X88037640Y-113581623D01*
X88011000Y-113576280D01*
X88011000Y-102489000D01*
X98933000Y-102489000D01*
X98933000Y-122047000D01*
D32*
G36*
X98221800Y-89077800D02*
X75889200Y-89077800D01*
X75889200Y-88972350D01*
X75889200Y-88451650D01*
X75889200Y-88046319D01*
X75838930Y-87924957D01*
X75746043Y-87832070D01*
X75624681Y-87781800D01*
X75493319Y-87781800D01*
X75444350Y-87781800D01*
X75361800Y-87864350D01*
X75361800Y-88534200D01*
X75806650Y-88534200D01*
X75889200Y-88451650D01*
X75889200Y-88972350D01*
X75806650Y-88889800D01*
X75361800Y-88889800D01*
X75361800Y-88909800D01*
X75006200Y-88909800D01*
X75006200Y-88889800D01*
X75006200Y-88534200D01*
X75006200Y-87864350D01*
X74923650Y-87781800D01*
X74874681Y-87781800D01*
X74743319Y-87781800D01*
X74621957Y-87832070D01*
X74529070Y-87924957D01*
X74478800Y-88046319D01*
X74478800Y-88451650D01*
X74561350Y-88534200D01*
X75006200Y-88534200D01*
X75006200Y-88889800D01*
X74561350Y-88889800D01*
X74478800Y-88972350D01*
X74478800Y-89077800D01*
X68503432Y-89077800D01*
X68514733Y-91421800D01*
X68248350Y-91421800D01*
X68165800Y-91504350D01*
X68165800Y-92024200D01*
X68185800Y-92024200D01*
X68185800Y-92379800D01*
X68165800Y-92379800D01*
X68165800Y-92899650D01*
X68248350Y-92982200D01*
X68522256Y-92982200D01*
X68531598Y-94919800D01*
X68344200Y-94919800D01*
X68344200Y-94918350D01*
X68344200Y-94397650D01*
X68344200Y-93992319D01*
X68293930Y-93870957D01*
X68201043Y-93778070D01*
X68079681Y-93727800D01*
X67970400Y-93727800D01*
X67970400Y-90715741D01*
X67970400Y-90584379D01*
X67970400Y-89160350D01*
X67970400Y-88639650D01*
X67970400Y-87215621D01*
X67970400Y-87084259D01*
X67920130Y-86962897D01*
X67827243Y-86870010D01*
X67705881Y-86819740D01*
X66150490Y-86819740D01*
X66142200Y-86828030D01*
X66142200Y-85530681D01*
X66142200Y-85399319D01*
X66142200Y-85350350D01*
X66142200Y-84829650D01*
X66142200Y-84780681D01*
X66142200Y-84649319D01*
X66091930Y-84527957D01*
X65999043Y-84435070D01*
X65877681Y-84384800D01*
X65472350Y-84384800D01*
X65389800Y-84467350D01*
X65389800Y-84912200D01*
X66059650Y-84912200D01*
X66142200Y-84829650D01*
X66142200Y-85350350D01*
X66059650Y-85267800D01*
X65389800Y-85267800D01*
X65389800Y-85712650D01*
X65472350Y-85795200D01*
X65877681Y-85795200D01*
X65999043Y-85744930D01*
X66091930Y-85652043D01*
X66142200Y-85530681D01*
X66142200Y-86828030D01*
X66067940Y-86902290D01*
X66067940Y-88722200D01*
X67887850Y-88722200D01*
X67970400Y-88639650D01*
X67970400Y-89160350D01*
X67887850Y-89077800D01*
X66067940Y-89077800D01*
X66067940Y-90897710D01*
X66150490Y-90980260D01*
X67705881Y-90980260D01*
X67827243Y-90929990D01*
X67920130Y-90837103D01*
X67970400Y-90715741D01*
X67970400Y-93727800D01*
X67948319Y-93727800D01*
X67824350Y-93727800D01*
X67810200Y-93741950D01*
X67810200Y-92899650D01*
X67810200Y-92379800D01*
X67810200Y-92024200D01*
X67810200Y-91504350D01*
X67727650Y-91421800D01*
X67322319Y-91421800D01*
X67200957Y-91472070D01*
X67108070Y-91564957D01*
X67057800Y-91686319D01*
X67057800Y-91817681D01*
X67057800Y-91941650D01*
X67140350Y-92024200D01*
X67810200Y-92024200D01*
X67810200Y-92379800D01*
X67140350Y-92379800D01*
X67057800Y-92462350D01*
X67057800Y-92586319D01*
X67057800Y-92717681D01*
X67108070Y-92839043D01*
X67200957Y-92931930D01*
X67322319Y-92982200D01*
X67727650Y-92982200D01*
X67810200Y-92899650D01*
X67810200Y-93741950D01*
X67741800Y-93810350D01*
X67741800Y-94480200D01*
X68261650Y-94480200D01*
X68344200Y-94397650D01*
X68344200Y-94918350D01*
X68261650Y-94835800D01*
X67741800Y-94835800D01*
X67741800Y-94855800D01*
X67386200Y-94855800D01*
X67386200Y-94835800D01*
X67386200Y-94480200D01*
X67386200Y-93810350D01*
X67303650Y-93727800D01*
X67179681Y-93727800D01*
X67048319Y-93727800D01*
X66926957Y-93778070D01*
X66834070Y-93870957D01*
X66783800Y-93992319D01*
X66783800Y-94397650D01*
X66866350Y-94480200D01*
X67386200Y-94480200D01*
X67386200Y-94835800D01*
X66866350Y-94835800D01*
X66783800Y-94918350D01*
X66783800Y-94919800D01*
X65236105Y-94919800D01*
X65236105Y-91848940D01*
X65192886Y-91626187D01*
X65064280Y-91430407D01*
X64870129Y-91299354D01*
X64846200Y-91294555D01*
X64846200Y-90980260D01*
X65629790Y-90980260D01*
X65712340Y-90897710D01*
X65712340Y-89077800D01*
X65692340Y-89077800D01*
X65692340Y-88722200D01*
X65712340Y-88722200D01*
X65712340Y-86902290D01*
X65629790Y-86819740D01*
X64846200Y-86819740D01*
X64846200Y-85795200D01*
X64951650Y-85795200D01*
X65034200Y-85712650D01*
X65034200Y-85267800D01*
X65014200Y-85267800D01*
X65014200Y-84912200D01*
X65034200Y-84912200D01*
X65034200Y-84467350D01*
X64951650Y-84384800D01*
X64846200Y-84384800D01*
X64846200Y-83184200D01*
X98221800Y-83184200D01*
X98221800Y-89077800D01*
X98221800Y-89077800D01*
G37*
X98221800Y-89077800D02*
X75889200Y-89077800D01*
X75889200Y-88972350D01*
X75889200Y-88451650D01*
X75889200Y-88046319D01*
X75838930Y-87924957D01*
X75746043Y-87832070D01*
X75624681Y-87781800D01*
X75493319Y-87781800D01*
X75444350Y-87781800D01*
X75361800Y-87864350D01*
X75361800Y-88534200D01*
X75806650Y-88534200D01*
X75889200Y-88451650D01*
X75889200Y-88972350D01*
X75806650Y-88889800D01*
X75361800Y-88889800D01*
X75361800Y-88909800D01*
X75006200Y-88909800D01*
X75006200Y-88889800D01*
X75006200Y-88534200D01*
X75006200Y-87864350D01*
X74923650Y-87781800D01*
X74874681Y-87781800D01*
X74743319Y-87781800D01*
X74621957Y-87832070D01*
X74529070Y-87924957D01*
X74478800Y-88046319D01*
X74478800Y-88451650D01*
X74561350Y-88534200D01*
X75006200Y-88534200D01*
X75006200Y-88889800D01*
X74561350Y-88889800D01*
X74478800Y-88972350D01*
X74478800Y-89077800D01*
X68503432Y-89077800D01*
X68514733Y-91421800D01*
X68248350Y-91421800D01*
X68165800Y-91504350D01*
X68165800Y-92024200D01*
X68185800Y-92024200D01*
X68185800Y-92379800D01*
X68165800Y-92379800D01*
X68165800Y-92899650D01*
X68248350Y-92982200D01*
X68522256Y-92982200D01*
X68531598Y-94919800D01*
X68344200Y-94919800D01*
X68344200Y-94918350D01*
X68344200Y-94397650D01*
X68344200Y-93992319D01*
X68293930Y-93870957D01*
X68201043Y-93778070D01*
X68079681Y-93727800D01*
X67970400Y-93727800D01*
X67970400Y-90715741D01*
X67970400Y-90584379D01*
X67970400Y-89160350D01*
X67970400Y-88639650D01*
X67970400Y-87215621D01*
X67970400Y-87084259D01*
X67920130Y-86962897D01*
X67827243Y-86870010D01*
X67705881Y-86819740D01*
X66150490Y-86819740D01*
X66142200Y-86828030D01*
X66142200Y-85530681D01*
X66142200Y-85399319D01*
X66142200Y-85350350D01*
X66142200Y-84829650D01*
X66142200Y-84780681D01*
X66142200Y-84649319D01*
X66091930Y-84527957D01*
X65999043Y-84435070D01*
X65877681Y-84384800D01*
X65472350Y-84384800D01*
X65389800Y-84467350D01*
X65389800Y-84912200D01*
X66059650Y-84912200D01*
X66142200Y-84829650D01*
X66142200Y-85350350D01*
X66059650Y-85267800D01*
X65389800Y-85267800D01*
X65389800Y-85712650D01*
X65472350Y-85795200D01*
X65877681Y-85795200D01*
X65999043Y-85744930D01*
X66091930Y-85652043D01*
X66142200Y-85530681D01*
X66142200Y-86828030D01*
X66067940Y-86902290D01*
X66067940Y-88722200D01*
X67887850Y-88722200D01*
X67970400Y-88639650D01*
X67970400Y-89160350D01*
X67887850Y-89077800D01*
X66067940Y-89077800D01*
X66067940Y-90897710D01*
X66150490Y-90980260D01*
X67705881Y-90980260D01*
X67827243Y-90929990D01*
X67920130Y-90837103D01*
X67970400Y-90715741D01*
X67970400Y-93727800D01*
X67948319Y-93727800D01*
X67824350Y-93727800D01*
X67810200Y-93741950D01*
X67810200Y-92899650D01*
X67810200Y-92379800D01*
X67810200Y-92024200D01*
X67810200Y-91504350D01*
X67727650Y-91421800D01*
X67322319Y-91421800D01*
X67200957Y-91472070D01*
X67108070Y-91564957D01*
X67057800Y-91686319D01*
X67057800Y-91817681D01*
X67057800Y-91941650D01*
X67140350Y-92024200D01*
X67810200Y-92024200D01*
X67810200Y-92379800D01*
X67140350Y-92379800D01*
X67057800Y-92462350D01*
X67057800Y-92586319D01*
X67057800Y-92717681D01*
X67108070Y-92839043D01*
X67200957Y-92931930D01*
X67322319Y-92982200D01*
X67727650Y-92982200D01*
X67810200Y-92899650D01*
X67810200Y-93741950D01*
X67741800Y-93810350D01*
X67741800Y-94480200D01*
X68261650Y-94480200D01*
X68344200Y-94397650D01*
X68344200Y-94918350D01*
X68261650Y-94835800D01*
X67741800Y-94835800D01*
X67741800Y-94855800D01*
X67386200Y-94855800D01*
X67386200Y-94835800D01*
X67386200Y-94480200D01*
X67386200Y-93810350D01*
X67303650Y-93727800D01*
X67179681Y-93727800D01*
X67048319Y-93727800D01*
X66926957Y-93778070D01*
X66834070Y-93870957D01*
X66783800Y-93992319D01*
X66783800Y-94397650D01*
X66866350Y-94480200D01*
X67386200Y-94480200D01*
X67386200Y-94835800D01*
X66866350Y-94835800D01*
X66783800Y-94918350D01*
X66783800Y-94919800D01*
X65236105Y-94919800D01*
X65236105Y-91848940D01*
X65192886Y-91626187D01*
X65064280Y-91430407D01*
X64870129Y-91299354D01*
X64846200Y-91294555D01*
X64846200Y-90980260D01*
X65629790Y-90980260D01*
X65712340Y-90897710D01*
X65712340Y-89077800D01*
X65692340Y-89077800D01*
X65692340Y-88722200D01*
X65712340Y-88722200D01*
X65712340Y-86902290D01*
X65629790Y-86819740D01*
X64846200Y-86819740D01*
X64846200Y-85795200D01*
X64951650Y-85795200D01*
X65034200Y-85712650D01*
X65034200Y-85267800D01*
X65014200Y-85267800D01*
X65014200Y-84912200D01*
X65034200Y-84912200D01*
X65034200Y-84467350D01*
X64951650Y-84384800D01*
X64846200Y-84384800D01*
X64846200Y-83184200D01*
X98221800Y-83184200D01*
X98221800Y-89077800D01*
D33*
G36*
X127889000Y-106553000D02*
X124708000Y-106553000D01*
X124708000Y-106206250D01*
X124708000Y-105761750D01*
X124708000Y-105308214D01*
X124649996Y-105168180D01*
X124542819Y-105061004D01*
X124402785Y-105003000D01*
X124251214Y-105003000D01*
X124174250Y-105003000D01*
X124079000Y-105098250D01*
X124079000Y-105857000D01*
X124612750Y-105857000D01*
X124708000Y-105761750D01*
X124708000Y-106206250D01*
X124612750Y-106111000D01*
X124079000Y-106111000D01*
X124079000Y-106131000D01*
X123825000Y-106131000D01*
X123825000Y-106111000D01*
X123825000Y-105857000D01*
X123825000Y-105098250D01*
X123729750Y-105003000D01*
X123652786Y-105003000D01*
X123501215Y-105003000D01*
X123361181Y-105061004D01*
X123254004Y-105168180D01*
X123196000Y-105308214D01*
X123196000Y-105761750D01*
X123291250Y-105857000D01*
X123825000Y-105857000D01*
X123825000Y-106111000D01*
X123291250Y-106111000D01*
X123196000Y-106206250D01*
X123196000Y-106553000D01*
X122930000Y-106553000D01*
X122930000Y-106206250D01*
X122930000Y-105761750D01*
X122930000Y-105308214D01*
X122871996Y-105168180D01*
X122764819Y-105061004D01*
X122624785Y-105003000D01*
X122473214Y-105003000D01*
X122396250Y-105003000D01*
X122301000Y-105098250D01*
X122301000Y-105857000D01*
X122834750Y-105857000D01*
X122930000Y-105761750D01*
X122930000Y-106206250D01*
X122834750Y-106111000D01*
X122301000Y-106111000D01*
X122301000Y-106131000D01*
X122047000Y-106131000D01*
X122047000Y-106111000D01*
X122047000Y-105857000D01*
X122047000Y-105098250D01*
X121951750Y-105003000D01*
X121874786Y-105003000D01*
X121723215Y-105003000D01*
X121583181Y-105061004D01*
X121476004Y-105168180D01*
X121418000Y-105308214D01*
X121418000Y-105761750D01*
X121513250Y-105857000D01*
X122047000Y-105857000D01*
X122047000Y-106111000D01*
X121513250Y-106111000D01*
X121418000Y-106206250D01*
X121418000Y-106553000D01*
X116459000Y-106553000D01*
X116459000Y-102489000D01*
X127889000Y-102489000D01*
X127889000Y-106553000D01*
X127889000Y-106553000D01*
G37*
X127889000Y-106553000D02*
X124708000Y-106553000D01*
X124708000Y-106206250D01*
X124708000Y-105761750D01*
X124708000Y-105308214D01*
X124649996Y-105168180D01*
X124542819Y-105061004D01*
X124402785Y-105003000D01*
X124251214Y-105003000D01*
X124174250Y-105003000D01*
X124079000Y-105098250D01*
X124079000Y-105857000D01*
X124612750Y-105857000D01*
X124708000Y-105761750D01*
X124708000Y-106206250D01*
X124612750Y-106111000D01*
X124079000Y-106111000D01*
X124079000Y-106131000D01*
X123825000Y-106131000D01*
X123825000Y-106111000D01*
X123825000Y-105857000D01*
X123825000Y-105098250D01*
X123729750Y-105003000D01*
X123652786Y-105003000D01*
X123501215Y-105003000D01*
X123361181Y-105061004D01*
X123254004Y-105168180D01*
X123196000Y-105308214D01*
X123196000Y-105761750D01*
X123291250Y-105857000D01*
X123825000Y-105857000D01*
X123825000Y-106111000D01*
X123291250Y-106111000D01*
X123196000Y-106206250D01*
X123196000Y-106553000D01*
X122930000Y-106553000D01*
X122930000Y-106206250D01*
X122930000Y-105761750D01*
X122930000Y-105308214D01*
X122871996Y-105168180D01*
X122764819Y-105061004D01*
X122624785Y-105003000D01*
X122473214Y-105003000D01*
X122396250Y-105003000D01*
X122301000Y-105098250D01*
X122301000Y-105857000D01*
X122834750Y-105857000D01*
X122930000Y-105761750D01*
X122930000Y-106206250D01*
X122834750Y-106111000D01*
X122301000Y-106111000D01*
X122301000Y-106131000D01*
X122047000Y-106131000D01*
X122047000Y-106111000D01*
X122047000Y-105857000D01*
X122047000Y-105098250D01*
X121951750Y-105003000D01*
X121874786Y-105003000D01*
X121723215Y-105003000D01*
X121583181Y-105061004D01*
X121476004Y-105168180D01*
X121418000Y-105308214D01*
X121418000Y-105761750D01*
X121513250Y-105857000D01*
X122047000Y-105857000D01*
X122047000Y-106111000D01*
X121513250Y-106111000D01*
X121418000Y-106206250D01*
X121418000Y-106553000D01*
X116459000Y-106553000D01*
X116459000Y-102489000D01*
X127889000Y-102489000D01*
X127889000Y-106553000D01*
G36*
X127889000Y-102737818D02*
X121793000Y-102493978D01*
X121793000Y-94869000D01*
X100521138Y-94869000D01*
X100397507Y-94569788D01*
X100122659Y-94294460D01*
X99763370Y-94145270D01*
X99374337Y-94144931D01*
X99066970Y-94271931D01*
X98912466Y-94241199D01*
X98546000Y-94241199D01*
X98546000Y-93823750D01*
X98546000Y-93370214D01*
X98487996Y-93230180D01*
X98380819Y-93123004D01*
X98240785Y-93065000D01*
X98089214Y-93065000D01*
X98012250Y-93065000D01*
X97917000Y-93160250D01*
X97917000Y-93919000D01*
X98450750Y-93919000D01*
X98546000Y-93823750D01*
X98546000Y-94241199D01*
X98518949Y-94241199D01*
X98450750Y-94173000D01*
X97917000Y-94173000D01*
X97917000Y-94193000D01*
X97663000Y-94193000D01*
X97663000Y-94173000D01*
X97663000Y-93919000D01*
X97663000Y-93160250D01*
X97567750Y-93065000D01*
X97490786Y-93065000D01*
X97339215Y-93065000D01*
X97199181Y-93123004D01*
X97092004Y-93230180D01*
X97034000Y-93370214D01*
X97034000Y-93823750D01*
X97129250Y-93919000D01*
X97663000Y-93919000D01*
X97663000Y-94173000D01*
X97129250Y-94173000D01*
X97061051Y-94241199D01*
X96768000Y-94241199D01*
X96768000Y-93823750D01*
X96768000Y-93370214D01*
X96709996Y-93230180D01*
X96602819Y-93123004D01*
X96462785Y-93065000D01*
X96311214Y-93065000D01*
X96234250Y-93065000D01*
X96139000Y-93160250D01*
X96139000Y-93919000D01*
X96672750Y-93919000D01*
X96768000Y-93823750D01*
X96768000Y-94241199D01*
X96740949Y-94241199D01*
X96672750Y-94173000D01*
X96139000Y-94173000D01*
X96139000Y-94193000D01*
X95885000Y-94193000D01*
X95885000Y-94173000D01*
X95885000Y-93919000D01*
X95885000Y-93160250D01*
X95789750Y-93065000D01*
X95712786Y-93065000D01*
X95561215Y-93065000D01*
X95421181Y-93123004D01*
X95314004Y-93230180D01*
X95256000Y-93370214D01*
X95256000Y-93823750D01*
X95351250Y-93919000D01*
X95885000Y-93919000D01*
X95885000Y-94173000D01*
X95351250Y-94173000D01*
X95283051Y-94241199D01*
X91882395Y-94241199D01*
X91909730Y-94175370D01*
X91910069Y-93786337D01*
X91761507Y-93426788D01*
X91486659Y-93151460D01*
X91127370Y-93002270D01*
X90738337Y-93001931D01*
X90378788Y-93150493D01*
X90103460Y-93425341D01*
X89954270Y-93784630D01*
X89953931Y-94173663D01*
X90102493Y-94533212D01*
X90267201Y-94698207D01*
X90267201Y-94698208D01*
X90274937Y-94737098D01*
X90363071Y-94869000D01*
X85990649Y-94869000D01*
X86067730Y-94683370D01*
X86068069Y-94294337D01*
X85919507Y-93934788D01*
X85644659Y-93659460D01*
X85285370Y-93510270D01*
X84896337Y-93509931D01*
X84536788Y-93658493D01*
X84261460Y-93933341D01*
X84112270Y-94292630D01*
X84111931Y-94681663D01*
X84189336Y-94869000D01*
X74924000Y-94869000D01*
X74924000Y-94458750D01*
X74924000Y-94005214D01*
X74865996Y-93865180D01*
X74758819Y-93758004D01*
X74618785Y-93700000D01*
X74467214Y-93700000D01*
X74390250Y-93700000D01*
X74295000Y-93795250D01*
X74295000Y-94554000D01*
X74828750Y-94554000D01*
X74924000Y-94458750D01*
X74924000Y-94869000D01*
X74889750Y-94869000D01*
X74828750Y-94808000D01*
X74295000Y-94808000D01*
X74295000Y-94828000D01*
X74041000Y-94828000D01*
X74041000Y-94808000D01*
X74041000Y-94554000D01*
X74041000Y-93795250D01*
X73945750Y-93700000D01*
X73868786Y-93700000D01*
X73717215Y-93700000D01*
X73577181Y-93758004D01*
X73470004Y-93865180D01*
X73412000Y-94005214D01*
X73412000Y-94458750D01*
X73507250Y-94554000D01*
X74041000Y-94554000D01*
X74041000Y-94808000D01*
X73507250Y-94808000D01*
X73446250Y-94869000D01*
X72459000Y-94869000D01*
X72459000Y-94435750D01*
X72459000Y-93982214D01*
X72400996Y-93842180D01*
X72293819Y-93735004D01*
X72153785Y-93677000D01*
X72002214Y-93677000D01*
X71850250Y-93677000D01*
X71755000Y-93772250D01*
X71755000Y-94531000D01*
X72363750Y-94531000D01*
X72459000Y-94435750D01*
X72459000Y-94869000D01*
X72447750Y-94869000D01*
X72363750Y-94785000D01*
X71755000Y-94785000D01*
X71755000Y-94805000D01*
X71501000Y-94805000D01*
X71501000Y-94785000D01*
X71501000Y-94531000D01*
X71501000Y-93772250D01*
X71405750Y-93677000D01*
X71253786Y-93677000D01*
X71169000Y-93677000D01*
X71169000Y-92727785D01*
X71169000Y-92576214D01*
X71169000Y-92424250D01*
X71169000Y-91979750D01*
X71169000Y-91827786D01*
X71169000Y-91676215D01*
X71110996Y-91536181D01*
X71003820Y-91429004D01*
X70863786Y-91371000D01*
X70410250Y-91371000D01*
X70315000Y-91466250D01*
X70315000Y-92075000D01*
X71073750Y-92075000D01*
X71169000Y-91979750D01*
X71169000Y-92424250D01*
X71073750Y-92329000D01*
X70315000Y-92329000D01*
X70315000Y-92937750D01*
X70410250Y-93033000D01*
X70863786Y-93033000D01*
X71003820Y-92974996D01*
X71110996Y-92867819D01*
X71169000Y-92727785D01*
X71169000Y-93677000D01*
X71102215Y-93677000D01*
X70962181Y-93735004D01*
X70855004Y-93842180D01*
X70797000Y-93982214D01*
X70797000Y-94435750D01*
X70892250Y-94531000D01*
X71501000Y-94531000D01*
X71501000Y-94785000D01*
X70892250Y-94785000D01*
X70808250Y-94869000D01*
X69723000Y-94869000D01*
X69723000Y-93033000D01*
X69965750Y-93033000D01*
X70061000Y-92937750D01*
X70061000Y-92329000D01*
X70041000Y-92329000D01*
X70041000Y-92075000D01*
X70061000Y-92075000D01*
X70061000Y-91466250D01*
X69965750Y-91371000D01*
X69723000Y-91371000D01*
X69723000Y-89789000D01*
X70473350Y-89789000D01*
X70396270Y-89974630D01*
X70395931Y-90363663D01*
X70544493Y-90723212D01*
X70819341Y-90998540D01*
X71178630Y-91147730D01*
X71567663Y-91148069D01*
X71927212Y-90999507D01*
X72202540Y-90724659D01*
X72351730Y-90365370D01*
X72352069Y-89976337D01*
X72274663Y-89789000D01*
X74206280Y-89789000D01*
X74161560Y-90012000D01*
X74161560Y-91212000D01*
X74208537Y-91454123D01*
X74348327Y-91666927D01*
X74559360Y-91809377D01*
X74809000Y-91859440D01*
X75559000Y-91859440D01*
X75801123Y-91812463D01*
X76013927Y-91672673D01*
X76137070Y-91490241D01*
X76153341Y-91506540D01*
X76512630Y-91655730D01*
X76901663Y-91656069D01*
X77261212Y-91507507D01*
X77536540Y-91232659D01*
X77685730Y-90873370D01*
X77686069Y-90484337D01*
X77537507Y-90124788D01*
X77262659Y-89849460D01*
X77117055Y-89789000D01*
X89675941Y-89789000D01*
X89595460Y-89869341D01*
X89446270Y-90228630D01*
X89445931Y-90617663D01*
X89594493Y-90977212D01*
X89869341Y-91252540D01*
X90228630Y-91401730D01*
X90617663Y-91402069D01*
X90977212Y-91253507D01*
X91252540Y-90978659D01*
X91401730Y-90619370D01*
X91402069Y-90230337D01*
X91253507Y-89870788D01*
X91171861Y-89789000D01*
X95365350Y-89789000D01*
X95288270Y-89974630D01*
X95287931Y-90363663D01*
X95436493Y-90723212D01*
X95711341Y-90998540D01*
X96070630Y-91147730D01*
X96459663Y-91148069D01*
X96819212Y-90999507D01*
X97094540Y-90724659D01*
X97243730Y-90365370D01*
X97244069Y-89976337D01*
X97166663Y-89789000D01*
X101473000Y-89789000D01*
X101473000Y-92329000D01*
X110109000Y-92329000D01*
X110109000Y-88265000D01*
X110274280Y-88265000D01*
X110229560Y-88488000D01*
X110229560Y-89688000D01*
X110276537Y-89930123D01*
X110416327Y-90142927D01*
X110627360Y-90285377D01*
X110877000Y-90335440D01*
X111627000Y-90335440D01*
X111869123Y-90288463D01*
X112081927Y-90148673D01*
X112224377Y-89937640D01*
X112241952Y-89850000D01*
X112453473Y-89850000D01*
X112671714Y-90068622D01*
X113068332Y-90233313D01*
X113497784Y-90233687D01*
X113894689Y-90069689D01*
X114114761Y-89850000D01*
X114324991Y-89850000D01*
X114340537Y-89930123D01*
X114480327Y-90142927D01*
X114691360Y-90285377D01*
X114941000Y-90335440D01*
X115691000Y-90335440D01*
X115933123Y-90288463D01*
X116145927Y-90148673D01*
X116288377Y-89937640D01*
X116338440Y-89688000D01*
X116338440Y-88488000D01*
X116295173Y-88265000D01*
X127889000Y-88265000D01*
X127889000Y-92571350D01*
X127703370Y-92494270D01*
X127535912Y-92494124D01*
X127408066Y-92366277D01*
X127321507Y-92156788D01*
X127046659Y-91881460D01*
X126687370Y-91732270D01*
X126298337Y-91731931D01*
X125938788Y-91880493D01*
X125663460Y-92155341D01*
X125514270Y-92514630D01*
X125513931Y-92903663D01*
X125662493Y-93263212D01*
X125937341Y-93538540D01*
X126296630Y-93687730D01*
X126539136Y-93687941D01*
X126678493Y-94025212D01*
X126953341Y-94300540D01*
X127312630Y-94449730D01*
X127701663Y-94450069D01*
X127889000Y-94372663D01*
X127889000Y-102737818D01*
X127889000Y-102737818D01*
G37*
X127889000Y-102737818D02*
X121793000Y-102493978D01*
X121793000Y-94869000D01*
X100521138Y-94869000D01*
X100397507Y-94569788D01*
X100122659Y-94294460D01*
X99763370Y-94145270D01*
X99374337Y-94144931D01*
X99066970Y-94271931D01*
X98912466Y-94241199D01*
X98546000Y-94241199D01*
X98546000Y-93823750D01*
X98546000Y-93370214D01*
X98487996Y-93230180D01*
X98380819Y-93123004D01*
X98240785Y-93065000D01*
X98089214Y-93065000D01*
X98012250Y-93065000D01*
X97917000Y-93160250D01*
X97917000Y-93919000D01*
X98450750Y-93919000D01*
X98546000Y-93823750D01*
X98546000Y-94241199D01*
X98518949Y-94241199D01*
X98450750Y-94173000D01*
X97917000Y-94173000D01*
X97917000Y-94193000D01*
X97663000Y-94193000D01*
X97663000Y-94173000D01*
X97663000Y-93919000D01*
X97663000Y-93160250D01*
X97567750Y-93065000D01*
X97490786Y-93065000D01*
X97339215Y-93065000D01*
X97199181Y-93123004D01*
X97092004Y-93230180D01*
X97034000Y-93370214D01*
X97034000Y-93823750D01*
X97129250Y-93919000D01*
X97663000Y-93919000D01*
X97663000Y-94173000D01*
X97129250Y-94173000D01*
X97061051Y-94241199D01*
X96768000Y-94241199D01*
X96768000Y-93823750D01*
X96768000Y-93370214D01*
X96709996Y-93230180D01*
X96602819Y-93123004D01*
X96462785Y-93065000D01*
X96311214Y-93065000D01*
X96234250Y-93065000D01*
X96139000Y-93160250D01*
X96139000Y-93919000D01*
X96672750Y-93919000D01*
X96768000Y-93823750D01*
X96768000Y-94241199D01*
X96740949Y-94241199D01*
X96672750Y-94173000D01*
X96139000Y-94173000D01*
X96139000Y-94193000D01*
X95885000Y-94193000D01*
X95885000Y-94173000D01*
X95885000Y-93919000D01*
X95885000Y-93160250D01*
X95789750Y-93065000D01*
X95712786Y-93065000D01*
X95561215Y-93065000D01*
X95421181Y-93123004D01*
X95314004Y-93230180D01*
X95256000Y-93370214D01*
X95256000Y-93823750D01*
X95351250Y-93919000D01*
X95885000Y-93919000D01*
X95885000Y-94173000D01*
X95351250Y-94173000D01*
X95283051Y-94241199D01*
X91882395Y-94241199D01*
X91909730Y-94175370D01*
X91910069Y-93786337D01*
X91761507Y-93426788D01*
X91486659Y-93151460D01*
X91127370Y-93002270D01*
X90738337Y-93001931D01*
X90378788Y-93150493D01*
X90103460Y-93425341D01*
X89954270Y-93784630D01*
X89953931Y-94173663D01*
X90102493Y-94533212D01*
X90267201Y-94698207D01*
X90267201Y-94698208D01*
X90274937Y-94737098D01*
X90363071Y-94869000D01*
X85990649Y-94869000D01*
X86067730Y-94683370D01*
X86068069Y-94294337D01*
X85919507Y-93934788D01*
X85644659Y-93659460D01*
X85285370Y-93510270D01*
X84896337Y-93509931D01*
X84536788Y-93658493D01*
X84261460Y-93933341D01*
X84112270Y-94292630D01*
X84111931Y-94681663D01*
X84189336Y-94869000D01*
X74924000Y-94869000D01*
X74924000Y-94458750D01*
X74924000Y-94005214D01*
X74865996Y-93865180D01*
X74758819Y-93758004D01*
X74618785Y-93700000D01*
X74467214Y-93700000D01*
X74390250Y-93700000D01*
X74295000Y-93795250D01*
X74295000Y-94554000D01*
X74828750Y-94554000D01*
X74924000Y-94458750D01*
X74924000Y-94869000D01*
X74889750Y-94869000D01*
X74828750Y-94808000D01*
X74295000Y-94808000D01*
X74295000Y-94828000D01*
X74041000Y-94828000D01*
X74041000Y-94808000D01*
X74041000Y-94554000D01*
X74041000Y-93795250D01*
X73945750Y-93700000D01*
X73868786Y-93700000D01*
X73717215Y-93700000D01*
X73577181Y-93758004D01*
X73470004Y-93865180D01*
X73412000Y-94005214D01*
X73412000Y-94458750D01*
X73507250Y-94554000D01*
X74041000Y-94554000D01*
X74041000Y-94808000D01*
X73507250Y-94808000D01*
X73446250Y-94869000D01*
X72459000Y-94869000D01*
X72459000Y-94435750D01*
X72459000Y-93982214D01*
X72400996Y-93842180D01*
X72293819Y-93735004D01*
X72153785Y-93677000D01*
X72002214Y-93677000D01*
X71850250Y-93677000D01*
X71755000Y-93772250D01*
X71755000Y-94531000D01*
X72363750Y-94531000D01*
X72459000Y-94435750D01*
X72459000Y-94869000D01*
X72447750Y-94869000D01*
X72363750Y-94785000D01*
X71755000Y-94785000D01*
X71755000Y-94805000D01*
X71501000Y-94805000D01*
X71501000Y-94785000D01*
X71501000Y-94531000D01*
X71501000Y-93772250D01*
X71405750Y-93677000D01*
X71253786Y-93677000D01*
X71169000Y-93677000D01*
X71169000Y-92727785D01*
X71169000Y-92576214D01*
X71169000Y-92424250D01*
X71169000Y-91979750D01*
X71169000Y-91827786D01*
X71169000Y-91676215D01*
X71110996Y-91536181D01*
X71003820Y-91429004D01*
X70863786Y-91371000D01*
X70410250Y-91371000D01*
X70315000Y-91466250D01*
X70315000Y-92075000D01*
X71073750Y-92075000D01*
X71169000Y-91979750D01*
X71169000Y-92424250D01*
X71073750Y-92329000D01*
X70315000Y-92329000D01*
X70315000Y-92937750D01*
X70410250Y-93033000D01*
X70863786Y-93033000D01*
X71003820Y-92974996D01*
X71110996Y-92867819D01*
X71169000Y-92727785D01*
X71169000Y-93677000D01*
X71102215Y-93677000D01*
X70962181Y-93735004D01*
X70855004Y-93842180D01*
X70797000Y-93982214D01*
X70797000Y-94435750D01*
X70892250Y-94531000D01*
X71501000Y-94531000D01*
X71501000Y-94785000D01*
X70892250Y-94785000D01*
X70808250Y-94869000D01*
X69723000Y-94869000D01*
X69723000Y-93033000D01*
X69965750Y-93033000D01*
X70061000Y-92937750D01*
X70061000Y-92329000D01*
X70041000Y-92329000D01*
X70041000Y-92075000D01*
X70061000Y-92075000D01*
X70061000Y-91466250D01*
X69965750Y-91371000D01*
X69723000Y-91371000D01*
X69723000Y-89789000D01*
X70473350Y-89789000D01*
X70396270Y-89974630D01*
X70395931Y-90363663D01*
X70544493Y-90723212D01*
X70819341Y-90998540D01*
X71178630Y-91147730D01*
X71567663Y-91148069D01*
X71927212Y-90999507D01*
X72202540Y-90724659D01*
X72351730Y-90365370D01*
X72352069Y-89976337D01*
X72274663Y-89789000D01*
X74206280Y-89789000D01*
X74161560Y-90012000D01*
X74161560Y-91212000D01*
X74208537Y-91454123D01*
X74348327Y-91666927D01*
X74559360Y-91809377D01*
X74809000Y-91859440D01*
X75559000Y-91859440D01*
X75801123Y-91812463D01*
X76013927Y-91672673D01*
X76137070Y-91490241D01*
X76153341Y-91506540D01*
X76512630Y-91655730D01*
X76901663Y-91656069D01*
X77261212Y-91507507D01*
X77536540Y-91232659D01*
X77685730Y-90873370D01*
X77686069Y-90484337D01*
X77537507Y-90124788D01*
X77262659Y-89849460D01*
X77117055Y-89789000D01*
X89675941Y-89789000D01*
X89595460Y-89869341D01*
X89446270Y-90228630D01*
X89445931Y-90617663D01*
X89594493Y-90977212D01*
X89869341Y-91252540D01*
X90228630Y-91401730D01*
X90617663Y-91402069D01*
X90977212Y-91253507D01*
X91252540Y-90978659D01*
X91401730Y-90619370D01*
X91402069Y-90230337D01*
X91253507Y-89870788D01*
X91171861Y-89789000D01*
X95365350Y-89789000D01*
X95288270Y-89974630D01*
X95287931Y-90363663D01*
X95436493Y-90723212D01*
X95711341Y-90998540D01*
X96070630Y-91147730D01*
X96459663Y-91148069D01*
X96819212Y-90999507D01*
X97094540Y-90724659D01*
X97243730Y-90365370D01*
X97244069Y-89976337D01*
X97166663Y-89789000D01*
X101473000Y-89789000D01*
X101473000Y-92329000D01*
X110109000Y-92329000D01*
X110109000Y-88265000D01*
X110274280Y-88265000D01*
X110229560Y-88488000D01*
X110229560Y-89688000D01*
X110276537Y-89930123D01*
X110416327Y-90142927D01*
X110627360Y-90285377D01*
X110877000Y-90335440D01*
X111627000Y-90335440D01*
X111869123Y-90288463D01*
X112081927Y-90148673D01*
X112224377Y-89937640D01*
X112241952Y-89850000D01*
X112453473Y-89850000D01*
X112671714Y-90068622D01*
X113068332Y-90233313D01*
X113497784Y-90233687D01*
X113894689Y-90069689D01*
X114114761Y-89850000D01*
X114324991Y-89850000D01*
X114340537Y-89930123D01*
X114480327Y-90142927D01*
X114691360Y-90285377D01*
X114941000Y-90335440D01*
X115691000Y-90335440D01*
X115933123Y-90288463D01*
X116145927Y-90148673D01*
X116288377Y-89937640D01*
X116338440Y-89688000D01*
X116338440Y-88488000D01*
X116295173Y-88265000D01*
X127889000Y-88265000D01*
X127889000Y-92571350D01*
X127703370Y-92494270D01*
X127535912Y-92494124D01*
X127408066Y-92366277D01*
X127321507Y-92156788D01*
X127046659Y-91881460D01*
X126687370Y-91732270D01*
X126298337Y-91731931D01*
X125938788Y-91880493D01*
X125663460Y-92155341D01*
X125514270Y-92514630D01*
X125513931Y-92903663D01*
X125662493Y-93263212D01*
X125937341Y-93538540D01*
X126296630Y-93687730D01*
X126539136Y-93687941D01*
X126678493Y-94025212D01*
X126953341Y-94300540D01*
X127312630Y-94449730D01*
X127701663Y-94450069D01*
X127889000Y-94372663D01*
X127889000Y-102737818D01*
G36*
X98933000Y-136435989D02*
X98866337Y-136435931D01*
X98506788Y-136584493D01*
X98231460Y-136859341D01*
X98082270Y-137218630D01*
X98081931Y-137607663D01*
X98230493Y-137967212D01*
X98348800Y-138085725D01*
X98348800Y-138176000D01*
X98402937Y-138448165D01*
X98557106Y-138678894D01*
X98689211Y-138811000D01*
X97729000Y-138811000D01*
X97729000Y-131915250D01*
X97729000Y-131191000D01*
X97729000Y-130937000D01*
X97729000Y-130212750D01*
X97570250Y-130054000D01*
X97129691Y-130054000D01*
X96896302Y-130150673D01*
X96717673Y-130329301D01*
X96621000Y-130562690D01*
X96621000Y-130778250D01*
X96779750Y-130937000D01*
X97729000Y-130937000D01*
X97729000Y-131191000D01*
X96779750Y-131191000D01*
X96621000Y-131349750D01*
X96621000Y-131565310D01*
X96717673Y-131798699D01*
X96896302Y-131977327D01*
X97129691Y-132074000D01*
X97570250Y-132074000D01*
X97729000Y-131915250D01*
X97729000Y-138811000D01*
X91275069Y-138811000D01*
X91275069Y-133664337D01*
X91126507Y-133304788D01*
X90851659Y-133029460D01*
X90492370Y-132880270D01*
X90103337Y-132879931D01*
X89743788Y-133028493D01*
X89468460Y-133303341D01*
X89319270Y-133662630D01*
X89318931Y-134051663D01*
X89467493Y-134411212D01*
X89742341Y-134686540D01*
X90101630Y-134835730D01*
X90490663Y-134836069D01*
X90850212Y-134687507D01*
X91125540Y-134412659D01*
X91274730Y-134053370D01*
X91275069Y-133664337D01*
X91275069Y-138811000D01*
X84061040Y-138811000D01*
X84061040Y-137033000D01*
X84014063Y-136790877D01*
X83874273Y-136578073D01*
X83663240Y-136435623D01*
X83413600Y-136385560D01*
X81686400Y-136385560D01*
X81444277Y-136432537D01*
X81231473Y-136572327D01*
X81089023Y-136783360D01*
X81081281Y-136821962D01*
X81069670Y-136804585D01*
X80583489Y-136479729D01*
X80010000Y-136365655D01*
X79461600Y-136474738D01*
X79461600Y-136184588D01*
X80428894Y-135217295D01*
X80428894Y-135217294D01*
X80434141Y-135209440D01*
X80434142Y-135209440D01*
X80526000Y-135209440D01*
X80768123Y-135162463D01*
X80980927Y-135022673D01*
X81025613Y-134956471D01*
X81065327Y-135016927D01*
X81276360Y-135159377D01*
X81526000Y-135209440D01*
X82726000Y-135209440D01*
X82968123Y-135162463D01*
X83073397Y-135093308D01*
X83370630Y-135216730D01*
X83759663Y-135217069D01*
X84119212Y-135068507D01*
X84394540Y-134793659D01*
X84543730Y-134434370D01*
X84544069Y-134045337D01*
X84395507Y-133685788D01*
X84377238Y-133667487D01*
X84648540Y-133396659D01*
X84797730Y-133037370D01*
X84798069Y-132648337D01*
X84649507Y-132288788D01*
X84374659Y-132013460D01*
X84015370Y-131864270D01*
X83626337Y-131863931D01*
X83266788Y-132012493D01*
X83248323Y-132030924D01*
X83186673Y-131937073D01*
X82975640Y-131794623D01*
X82726000Y-131744560D01*
X81559569Y-131744560D01*
X81559569Y-114677837D01*
X81411007Y-114318288D01*
X81136159Y-114042960D01*
X80776870Y-113893770D01*
X80387837Y-113893431D01*
X80028288Y-114041993D01*
X79752960Y-114316841D01*
X79603770Y-114676130D01*
X79603431Y-115065163D01*
X79751993Y-115424712D01*
X80026841Y-115700040D01*
X80386130Y-115849230D01*
X80775163Y-115849569D01*
X81134712Y-115701007D01*
X81410040Y-115426159D01*
X81559230Y-115066870D01*
X81559569Y-114677837D01*
X81559569Y-131744560D01*
X81526000Y-131744560D01*
X81283877Y-131791537D01*
X81071073Y-131931327D01*
X81026386Y-131997528D01*
X80986673Y-131937073D01*
X80775640Y-131794623D01*
X80526000Y-131744560D01*
X79845069Y-131744560D01*
X79845069Y-124139337D01*
X79696507Y-123779788D01*
X79421659Y-123504460D01*
X79276141Y-123444035D01*
X79420212Y-123384507D01*
X79695540Y-123109659D01*
X79844730Y-122750370D01*
X79845069Y-122361337D01*
X79696507Y-122001788D01*
X79421659Y-121726460D01*
X79062370Y-121577270D01*
X78673337Y-121576931D01*
X78328989Y-121719211D01*
X78126640Y-121582623D01*
X77877000Y-121532560D01*
X76916801Y-121532560D01*
X76916801Y-116464601D01*
X76871645Y-116237591D01*
X76862664Y-116192437D01*
X76862664Y-116192436D01*
X76708495Y-115961707D01*
X76232979Y-115486191D01*
X76232979Y-109343857D01*
X76084417Y-108984308D01*
X75809569Y-108708980D01*
X75654069Y-108644410D01*
X75654069Y-101914337D01*
X75505507Y-101554788D01*
X75230659Y-101279460D01*
X74871370Y-101130270D01*
X74482337Y-101129931D01*
X74122788Y-101278493D01*
X73847460Y-101553341D01*
X73698270Y-101912630D01*
X73697931Y-102301663D01*
X73846493Y-102661212D01*
X74121341Y-102936540D01*
X74480630Y-103085730D01*
X74869663Y-103086069D01*
X75229212Y-102937507D01*
X75504540Y-102662659D01*
X75653730Y-102303370D01*
X75654069Y-101914337D01*
X75654069Y-108644410D01*
X75450280Y-108559790D01*
X75061247Y-108559451D01*
X74701698Y-108708013D01*
X74426370Y-108982861D01*
X74277180Y-109342150D01*
X74276841Y-109731183D01*
X74425403Y-110090732D01*
X74700251Y-110366060D01*
X75059540Y-110515250D01*
X75448573Y-110515589D01*
X75808122Y-110367027D01*
X76083450Y-110092179D01*
X76232640Y-109732890D01*
X76232979Y-109343857D01*
X76232979Y-115486191D01*
X73875924Y-113129136D01*
X73876069Y-112963337D01*
X73727507Y-112603788D01*
X73452659Y-112328460D01*
X73093370Y-112179270D01*
X72704337Y-112178931D01*
X72344788Y-112327493D01*
X72069460Y-112602341D01*
X71920270Y-112961630D01*
X71919931Y-113350663D01*
X71920897Y-113353002D01*
X71804000Y-113329560D01*
X70604000Y-113329560D01*
X70361877Y-113376537D01*
X70149073Y-113516327D01*
X70105662Y-113580637D01*
X69963698Y-113438673D01*
X69730309Y-113342000D01*
X69367400Y-113342000D01*
X69367400Y-112268000D01*
X69367400Y-112014000D01*
X69367400Y-111783067D01*
X69307463Y-111481742D01*
X69136776Y-111226291D01*
X69050069Y-111168355D01*
X69050069Y-109280337D01*
X68901507Y-108920788D01*
X68626659Y-108645460D01*
X68267370Y-108496270D01*
X67878337Y-108495931D01*
X67533989Y-108638211D01*
X67331640Y-108501623D01*
X67082000Y-108451560D01*
X65882000Y-108451560D01*
X65639877Y-108498537D01*
X65543120Y-108562095D01*
X65541698Y-108560673D01*
X65308309Y-108464000D01*
X64867750Y-108464000D01*
X64709000Y-108622750D01*
X64709000Y-109347000D01*
X64729000Y-109347000D01*
X64729000Y-109601000D01*
X64709000Y-109601000D01*
X64709000Y-110325250D01*
X64867750Y-110484000D01*
X65308309Y-110484000D01*
X65541698Y-110387327D01*
X65542980Y-110386044D01*
X65632360Y-110446377D01*
X65882000Y-110496440D01*
X67082000Y-110496440D01*
X67324123Y-110449463D01*
X67535994Y-110310285D01*
X67876630Y-110451730D01*
X68265663Y-110452069D01*
X68625212Y-110303507D01*
X68900540Y-110028659D01*
X69049730Y-109669370D01*
X69050069Y-109280337D01*
X69050069Y-111168355D01*
X68881325Y-111055604D01*
X68580000Y-110995667D01*
X68278675Y-111055604D01*
X68023224Y-111226291D01*
X67852537Y-111481742D01*
X67792600Y-111783067D01*
X67792600Y-112014000D01*
X67792600Y-112268000D01*
X67852537Y-112569325D01*
X68023224Y-112824776D01*
X68278675Y-112995463D01*
X68580000Y-113055400D01*
X68881325Y-112995463D01*
X69136776Y-112824776D01*
X69307463Y-112569325D01*
X69367400Y-112268000D01*
X69367400Y-113342000D01*
X69289750Y-113342000D01*
X69131000Y-113500750D01*
X69131000Y-114300000D01*
X69151000Y-114300000D01*
X69151000Y-114554000D01*
X69131000Y-114554000D01*
X69131000Y-115151750D01*
X69131000Y-115353250D01*
X69131000Y-115951000D01*
X69151000Y-115951000D01*
X69151000Y-116205000D01*
X69131000Y-116205000D01*
X69131000Y-116225000D01*
X68877000Y-116225000D01*
X68877000Y-116205000D01*
X68877000Y-115951000D01*
X68877000Y-115353250D01*
X68877000Y-115151750D01*
X68877000Y-114554000D01*
X68877000Y-114300000D01*
X68877000Y-113500750D01*
X68718250Y-113342000D01*
X68277691Y-113342000D01*
X68044302Y-113438673D01*
X67865673Y-113617301D01*
X67769000Y-113850690D01*
X67769000Y-114103309D01*
X67769000Y-114141250D01*
X67927750Y-114300000D01*
X68877000Y-114300000D01*
X68877000Y-114554000D01*
X67927750Y-114554000D01*
X67769000Y-114712750D01*
X67769000Y-114750691D01*
X67769000Y-115003310D01*
X67865673Y-115236699D01*
X67881474Y-115252500D01*
X67865673Y-115268301D01*
X67769000Y-115501690D01*
X67769000Y-115754309D01*
X67769000Y-115792250D01*
X67927750Y-115951000D01*
X68877000Y-115951000D01*
X68877000Y-116205000D01*
X67927750Y-116205000D01*
X67769000Y-116363750D01*
X67769000Y-116401691D01*
X67769000Y-116654310D01*
X67865673Y-116887699D01*
X67887507Y-116909533D01*
X67806623Y-117029360D01*
X67756560Y-117279000D01*
X67756560Y-118179000D01*
X67799843Y-118402083D01*
X67624337Y-118401931D01*
X67264788Y-118550493D01*
X66989460Y-118825341D01*
X66840270Y-119184630D01*
X66839931Y-119573663D01*
X66988493Y-119933212D01*
X67263341Y-120208540D01*
X67622630Y-120357730D01*
X67809094Y-120357892D01*
X67769000Y-120454690D01*
X67769000Y-120707309D01*
X67769000Y-120745250D01*
X67927750Y-120904000D01*
X68877000Y-120904000D01*
X68877000Y-120884000D01*
X69131000Y-120884000D01*
X69131000Y-120904000D01*
X69151000Y-120904000D01*
X69151000Y-121158000D01*
X69131000Y-121158000D01*
X69131000Y-121755750D01*
X69131000Y-121957250D01*
X69131000Y-122555000D01*
X69151000Y-122555000D01*
X69151000Y-122809000D01*
X69131000Y-122809000D01*
X69131000Y-122829000D01*
X68877000Y-122829000D01*
X68877000Y-122809000D01*
X68877000Y-122555000D01*
X68877000Y-121957250D01*
X68877000Y-121755750D01*
X68877000Y-121158000D01*
X67927750Y-121158000D01*
X67769000Y-121316750D01*
X67769000Y-121354691D01*
X67769000Y-121607310D01*
X67865673Y-121840699D01*
X67881474Y-121856500D01*
X67865673Y-121872301D01*
X67769000Y-122105690D01*
X67769000Y-122358309D01*
X67769000Y-122396250D01*
X67927750Y-122555000D01*
X68877000Y-122555000D01*
X68877000Y-122809000D01*
X67927750Y-122809000D01*
X67769000Y-122967750D01*
X67769000Y-123005691D01*
X67769000Y-123258310D01*
X67865673Y-123491699D01*
X67887507Y-123513533D01*
X67875937Y-123530673D01*
X67759370Y-123482270D01*
X67370337Y-123481931D01*
X67010788Y-123630493D01*
X66735460Y-123905341D01*
X66586270Y-124264630D01*
X66586025Y-124545559D01*
X66524426Y-124533306D01*
X66507463Y-124445877D01*
X66367673Y-124233073D01*
X66156640Y-124090623D01*
X65907000Y-124040560D01*
X65748069Y-124040560D01*
X65748069Y-122234337D01*
X65621069Y-121926972D01*
X65621069Y-117916337D01*
X65472507Y-117556788D01*
X65197659Y-117281460D01*
X64838370Y-117132270D01*
X64455000Y-117131935D01*
X64455000Y-110325250D01*
X64455000Y-109601000D01*
X64455000Y-109347000D01*
X64455000Y-108622750D01*
X64296250Y-108464000D01*
X63855691Y-108464000D01*
X63622302Y-108560673D01*
X63443673Y-108739301D01*
X63347000Y-108972690D01*
X63347000Y-109188250D01*
X63505750Y-109347000D01*
X64455000Y-109347000D01*
X64455000Y-109601000D01*
X63505750Y-109601000D01*
X63347000Y-109759750D01*
X63347000Y-109975310D01*
X63443673Y-110208699D01*
X63622302Y-110387327D01*
X63855691Y-110484000D01*
X64296250Y-110484000D01*
X64455000Y-110325250D01*
X64455000Y-117131935D01*
X64449337Y-117131931D01*
X64089788Y-117280493D01*
X63814460Y-117555341D01*
X63716069Y-117792292D01*
X63716069Y-111820337D01*
X63567507Y-111460788D01*
X63292659Y-111185460D01*
X62933370Y-111036270D01*
X62544337Y-111035931D01*
X62184788Y-111184493D01*
X61909460Y-111459341D01*
X61760270Y-111818630D01*
X61759931Y-112207663D01*
X61908493Y-112567212D01*
X62183341Y-112842540D01*
X62542630Y-112991730D01*
X62931663Y-112992069D01*
X63291212Y-112843507D01*
X63566540Y-112568659D01*
X63715730Y-112209370D01*
X63716069Y-111820337D01*
X63716069Y-117792292D01*
X63665270Y-117914630D01*
X63664931Y-118303663D01*
X63813493Y-118663212D01*
X64088341Y-118938540D01*
X64447630Y-119087730D01*
X64836663Y-119088069D01*
X65196212Y-118939507D01*
X65471540Y-118664659D01*
X65620730Y-118305370D01*
X65621069Y-117916337D01*
X65621069Y-121926972D01*
X65599507Y-121874788D01*
X65324659Y-121599460D01*
X64965370Y-121450270D01*
X64576337Y-121449931D01*
X64216788Y-121598493D01*
X63941460Y-121873341D01*
X63792270Y-122232630D01*
X63791931Y-122621663D01*
X63940493Y-122981212D01*
X64215341Y-123256540D01*
X64574630Y-123405730D01*
X64963663Y-123406069D01*
X65323212Y-123257507D01*
X65598540Y-122982659D01*
X65747730Y-122623370D01*
X65748069Y-122234337D01*
X65748069Y-124040560D01*
X65157000Y-124040560D01*
X64914877Y-124087537D01*
X64742142Y-124201005D01*
X64664673Y-124083073D01*
X64453640Y-123940623D01*
X64204000Y-123890560D01*
X63304000Y-123890560D01*
X63061877Y-123937537D01*
X62849073Y-124077327D01*
X62750336Y-124223600D01*
X62724984Y-124223600D01*
X62632673Y-124083073D01*
X62421640Y-123940623D01*
X62172000Y-123890560D01*
X61272000Y-123890560D01*
X61029877Y-123937537D01*
X60817073Y-124077327D01*
X60674623Y-124288360D01*
X60624560Y-124538000D01*
X60624560Y-125738000D01*
X60671537Y-125980123D01*
X60811327Y-126192927D01*
X60875637Y-126236337D01*
X60733673Y-126378302D01*
X60637000Y-126611691D01*
X60637000Y-127052250D01*
X60795750Y-127211000D01*
X61595000Y-127211000D01*
X61595000Y-127191000D01*
X61849000Y-127191000D01*
X61849000Y-127211000D01*
X61869000Y-127211000D01*
X61869000Y-127465000D01*
X61849000Y-127465000D01*
X61849000Y-128414250D01*
X62007750Y-128573000D01*
X62045691Y-128573000D01*
X62123738Y-128573000D01*
X62014270Y-128836630D01*
X62013931Y-129225663D01*
X62162493Y-129585212D01*
X62437341Y-129860540D01*
X62796630Y-130009730D01*
X63185663Y-130010069D01*
X63545212Y-129861507D01*
X63820540Y-129586659D01*
X63969730Y-129227370D01*
X63969813Y-129131817D01*
X64292815Y-128808815D01*
X64292816Y-128808815D01*
X64391834Y-128660623D01*
X64457996Y-128561605D01*
X64457996Y-128561604D01*
X64465075Y-128526013D01*
X64658927Y-128398673D01*
X64742856Y-128274335D01*
X64907360Y-128385377D01*
X65157000Y-128435440D01*
X65907000Y-128435440D01*
X66149123Y-128388463D01*
X66245000Y-128325481D01*
X66245000Y-128454309D01*
X66245000Y-128492250D01*
X66403750Y-128651000D01*
X67353000Y-128651000D01*
X67353000Y-128631000D01*
X67607000Y-128631000D01*
X67607000Y-128651000D01*
X67627000Y-128651000D01*
X67627000Y-128905000D01*
X67607000Y-128905000D01*
X67607000Y-128925000D01*
X67353000Y-128925000D01*
X67353000Y-128905000D01*
X66403750Y-128905000D01*
X66245000Y-129063750D01*
X66245000Y-129101691D01*
X66245000Y-129354310D01*
X66341673Y-129587699D01*
X66520302Y-129766327D01*
X66525789Y-129768600D01*
X66127727Y-129768600D01*
X66086659Y-129727460D01*
X65727370Y-129578270D01*
X65338337Y-129577931D01*
X64978788Y-129726493D01*
X64703460Y-130001341D01*
X64554270Y-130360630D01*
X64553931Y-130749663D01*
X64702493Y-131109212D01*
X64977341Y-131384540D01*
X65336630Y-131533730D01*
X65725663Y-131534069D01*
X66085212Y-131385507D01*
X66127392Y-131343400D01*
X66541391Y-131343400D01*
X66569327Y-131385927D01*
X66780360Y-131528377D01*
X67030000Y-131578440D01*
X68230000Y-131578440D01*
X68472123Y-131531463D01*
X68579974Y-131460615D01*
X68680360Y-131528377D01*
X68930000Y-131578440D01*
X70130000Y-131578440D01*
X70372123Y-131531463D01*
X70584927Y-131391673D01*
X70727377Y-131180640D01*
X70777440Y-130931000D01*
X70777440Y-130181000D01*
X70730463Y-129938877D01*
X70616994Y-129766142D01*
X70734927Y-129688673D01*
X70877377Y-129477640D01*
X70927440Y-129228000D01*
X70927440Y-128328000D01*
X70880463Y-128085877D01*
X70750356Y-127887814D01*
X70818137Y-127787400D01*
X71628000Y-127787400D01*
X71929325Y-127727463D01*
X72184776Y-127556776D01*
X73541533Y-126200018D01*
X73599663Y-126200069D01*
X73959212Y-126051507D01*
X74206145Y-125805004D01*
X74205931Y-126050663D01*
X74354493Y-126410212D01*
X74629341Y-126685540D01*
X74988630Y-126834730D01*
X75377663Y-126835069D01*
X75737212Y-126686507D01*
X76012540Y-126411659D01*
X76161730Y-126052370D01*
X76161875Y-125884912D01*
X76691348Y-125355440D01*
X77877000Y-125355440D01*
X78119123Y-125308463D01*
X78330994Y-125169285D01*
X78671630Y-125310730D01*
X79060663Y-125311069D01*
X79420212Y-125162507D01*
X79695540Y-124887659D01*
X79844730Y-124528370D01*
X79845069Y-124139337D01*
X79845069Y-131744560D01*
X79326000Y-131744560D01*
X79083877Y-131791537D01*
X78871073Y-131931327D01*
X78728623Y-132142360D01*
X78678560Y-132392000D01*
X78678560Y-133292000D01*
X78715047Y-133480056D01*
X78678560Y-133662000D01*
X78678560Y-134562000D01*
X78725537Y-134804123D01*
X78767146Y-134867465D01*
X78247506Y-135387106D01*
X78093337Y-135617835D01*
X78039200Y-135890000D01*
X78039200Y-136321612D01*
X77908027Y-136452784D01*
X77470000Y-136365655D01*
X77343550Y-136390807D01*
X77343550Y-131705224D01*
X76861204Y-130537857D01*
X76416069Y-130091944D01*
X76416069Y-127822337D01*
X76267507Y-127462788D01*
X75992659Y-127187460D01*
X75633370Y-127038270D01*
X75244337Y-127037931D01*
X74884788Y-127186493D01*
X74609460Y-127461341D01*
X74460270Y-127820630D01*
X74459931Y-128209663D01*
X74608493Y-128569212D01*
X74883341Y-128844540D01*
X75242630Y-128993730D01*
X75631663Y-128994069D01*
X75991212Y-128845507D01*
X76266540Y-128570659D01*
X76415730Y-128211370D01*
X76416069Y-127822337D01*
X76416069Y-130091944D01*
X75968841Y-129643935D01*
X74802317Y-129159552D01*
X73539224Y-129158450D01*
X72371857Y-129640796D01*
X71477935Y-130533159D01*
X70993552Y-131699683D01*
X70992450Y-132962776D01*
X71474796Y-134130143D01*
X72367159Y-135024065D01*
X73533683Y-135508448D01*
X74796776Y-135509550D01*
X75964143Y-135027204D01*
X76858065Y-134134841D01*
X77342448Y-132968317D01*
X77343550Y-131705224D01*
X77343550Y-136390807D01*
X76896511Y-136479729D01*
X76410330Y-136804585D01*
X76203539Y-137114069D01*
X75832036Y-136698268D01*
X75304791Y-136444291D01*
X75289026Y-136441642D01*
X75057000Y-136562783D01*
X75057000Y-137922000D01*
X75077000Y-137922000D01*
X75077000Y-138176000D01*
X75057000Y-138176000D01*
X75057000Y-138196000D01*
X74803000Y-138196000D01*
X74803000Y-138176000D01*
X74783000Y-138176000D01*
X74783000Y-137922000D01*
X74803000Y-137922000D01*
X74803000Y-136562783D01*
X74570974Y-136441642D01*
X74555209Y-136444291D01*
X74027964Y-136698268D01*
X73656460Y-137114069D01*
X73449670Y-136804585D01*
X72963489Y-136479729D01*
X72390000Y-136365655D01*
X71816511Y-136479729D01*
X71330330Y-136804585D01*
X71120000Y-137119365D01*
X70909670Y-136804585D01*
X70423489Y-136479729D01*
X69850000Y-136365655D01*
X69276511Y-136479729D01*
X68790330Y-136804585D01*
X68580000Y-137119365D01*
X68369670Y-136804585D01*
X67883489Y-136479729D01*
X67310000Y-136365655D01*
X66736511Y-136479729D01*
X66250330Y-136804585D01*
X66040000Y-137119365D01*
X65829670Y-136804585D01*
X65343489Y-136479729D01*
X64770000Y-136365655D01*
X64196511Y-136479729D01*
X63710330Y-136804585D01*
X63500000Y-137119365D01*
X63289670Y-136804585D01*
X62803489Y-136479729D01*
X62230000Y-136365655D01*
X61656511Y-136479729D01*
X61595000Y-136520829D01*
X61595000Y-128414250D01*
X61595000Y-127465000D01*
X60795750Y-127465000D01*
X60637000Y-127623750D01*
X60637000Y-128064309D01*
X60733673Y-128297698D01*
X60912301Y-128476327D01*
X61145690Y-128573000D01*
X61398309Y-128573000D01*
X61436250Y-128573000D01*
X61595000Y-128414250D01*
X61595000Y-136520829D01*
X61170330Y-136804585D01*
X60960000Y-137119365D01*
X60749670Y-136804585D01*
X60263489Y-136479729D01*
X59690000Y-136365655D01*
X59116511Y-136479729D01*
X58630330Y-136804585D01*
X58305474Y-137290766D01*
X58302335Y-137306546D01*
X58244293Y-137248505D01*
X58115200Y-137119411D01*
X58115200Y-122489948D01*
X58373341Y-122748540D01*
X58732630Y-122897730D01*
X59121663Y-122898069D01*
X59481212Y-122749507D01*
X59756540Y-122474659D01*
X59905730Y-122115370D01*
X59906069Y-121726337D01*
X59757507Y-121366788D01*
X59482659Y-121091460D01*
X59123370Y-120942270D01*
X58734337Y-120941931D01*
X58374788Y-121090493D01*
X58115200Y-121349628D01*
X58115200Y-115885440D01*
X58870000Y-115885440D01*
X59112123Y-115838463D01*
X59324927Y-115698673D01*
X59467377Y-115487640D01*
X59517440Y-115238000D01*
X59517440Y-114419731D01*
X59748630Y-114515730D01*
X60137663Y-114516069D01*
X60497212Y-114367507D01*
X60772540Y-114092659D01*
X60921730Y-113733370D01*
X60922069Y-113344337D01*
X60773507Y-112984788D01*
X60498659Y-112709460D01*
X60139370Y-112560270D01*
X59750337Y-112559931D01*
X59517440Y-112656161D01*
X59517440Y-111838000D01*
X59470463Y-111595877D01*
X59411600Y-111506270D01*
X59467377Y-111423640D01*
X59517440Y-111174000D01*
X59517440Y-109974000D01*
X59470463Y-109731877D01*
X59330673Y-109519073D01*
X59264471Y-109474386D01*
X59324927Y-109434673D01*
X59467377Y-109223640D01*
X59517440Y-108974000D01*
X59517440Y-107774000D01*
X59470463Y-107531877D01*
X59330673Y-107319073D01*
X59131200Y-107184426D01*
X59131200Y-106212588D01*
X60998141Y-104345646D01*
X60997931Y-104587663D01*
X61146493Y-104947212D01*
X61421341Y-105222540D01*
X61780630Y-105371730D01*
X62169663Y-105372069D01*
X62438095Y-105261155D01*
X62449537Y-105320123D01*
X62589327Y-105532927D01*
X62800360Y-105675377D01*
X63050000Y-105725440D01*
X63950000Y-105725440D01*
X64192123Y-105678463D01*
X64404927Y-105538673D01*
X64547377Y-105327640D01*
X64597440Y-105078000D01*
X64597440Y-103878000D01*
X64550463Y-103635877D01*
X64410673Y-103423073D01*
X64344471Y-103378386D01*
X64404927Y-103338673D01*
X64497129Y-103202078D01*
X64828630Y-103339730D01*
X65217663Y-103340069D01*
X65577212Y-103191507D01*
X65852540Y-102916659D01*
X66001730Y-102557370D01*
X66002069Y-102168337D01*
X65853507Y-101808788D01*
X65578659Y-101533460D01*
X65219370Y-101384270D01*
X64830337Y-101383931D01*
X64561904Y-101494844D01*
X64550463Y-101435877D01*
X64410673Y-101223073D01*
X64215333Y-101091216D01*
X64404927Y-100966673D01*
X64547377Y-100755640D01*
X64597440Y-100506000D01*
X64597440Y-99306000D01*
X64550463Y-99063877D01*
X64410673Y-98851073D01*
X64344471Y-98806386D01*
X64404927Y-98766673D01*
X64547377Y-98555640D01*
X64575139Y-98417200D01*
X64666000Y-98417200D01*
X64938164Y-98363063D01*
X64938165Y-98363063D01*
X65168894Y-98208894D01*
X66288894Y-97088894D01*
X66443063Y-96858165D01*
X66443063Y-96858164D01*
X66452044Y-96813009D01*
X66466560Y-96740037D01*
X66466560Y-97458000D01*
X66513537Y-97700123D01*
X66653327Y-97912927D01*
X66852800Y-98047573D01*
X66852800Y-98134205D01*
X66735460Y-98251341D01*
X66586270Y-98610630D01*
X66585931Y-98999663D01*
X66734493Y-99359212D01*
X67009341Y-99634540D01*
X67368630Y-99783730D01*
X67757663Y-99784069D01*
X68117212Y-99635507D01*
X68392540Y-99360659D01*
X68541730Y-99001370D01*
X68542069Y-98612337D01*
X68393507Y-98252788D01*
X68275200Y-98134274D01*
X68275200Y-98045931D01*
X68468927Y-97918673D01*
X68611377Y-97707640D01*
X68661440Y-97458000D01*
X68661440Y-96258000D01*
X68614463Y-96015877D01*
X68528490Y-95885000D01*
X70663892Y-95885000D01*
X70580623Y-96008360D01*
X70530560Y-96258000D01*
X70530560Y-97458000D01*
X70577537Y-97700123D01*
X70717327Y-97912927D01*
X70916800Y-98047573D01*
X70916800Y-98134205D01*
X70799460Y-98251341D01*
X70650270Y-98610630D01*
X70649931Y-98999663D01*
X70798493Y-99359212D01*
X71073341Y-99634540D01*
X71432630Y-99783730D01*
X71821663Y-99784069D01*
X72181212Y-99635507D01*
X72456540Y-99360659D01*
X72605730Y-99001370D01*
X72606069Y-98612337D01*
X72457507Y-98252788D01*
X72339200Y-98134274D01*
X72339200Y-98045931D01*
X72532927Y-97918673D01*
X72675377Y-97707640D01*
X72725440Y-97458000D01*
X72725440Y-96258000D01*
X72678463Y-96015877D01*
X72592490Y-95885000D01*
X73164811Y-95885000D01*
X73145560Y-95981000D01*
X73145560Y-97181000D01*
X73192537Y-97423123D01*
X73263288Y-97530828D01*
X73106788Y-97595493D01*
X72831460Y-97870341D01*
X72682270Y-98229630D01*
X72681931Y-98618663D01*
X72830493Y-98978212D01*
X73105341Y-99253540D01*
X73464630Y-99402730D01*
X73853663Y-99403069D01*
X74213212Y-99254507D01*
X74488540Y-98979659D01*
X74637730Y-98620370D01*
X74637781Y-98560770D01*
X74724776Y-98473776D01*
X74895463Y-98218325D01*
X74955400Y-97917000D01*
X74955400Y-97669608D01*
X74997927Y-97641673D01*
X75140377Y-97430640D01*
X75190440Y-97181000D01*
X75190440Y-95981000D01*
X75171813Y-95885000D01*
X84112210Y-95885000D01*
X84111931Y-96205663D01*
X84260493Y-96565212D01*
X84535341Y-96840540D01*
X84894630Y-96989730D01*
X85283663Y-96990069D01*
X85643212Y-96841507D01*
X85918540Y-96566659D01*
X85978964Y-96421141D01*
X86038493Y-96565212D01*
X86313341Y-96840540D01*
X86672630Y-96989730D01*
X87061663Y-96990069D01*
X87421212Y-96841507D01*
X87696540Y-96566659D01*
X87756964Y-96421141D01*
X87816493Y-96565212D01*
X88091341Y-96840540D01*
X88450630Y-96989730D01*
X88839663Y-96990069D01*
X89199212Y-96841507D01*
X89474540Y-96566659D01*
X89623730Y-96207370D01*
X89624010Y-95885000D01*
X93853000Y-95885000D01*
X93853000Y-95983944D01*
X93764270Y-96197630D01*
X93763931Y-96586663D01*
X93853000Y-96802227D01*
X93853000Y-97663000D01*
X97917000Y-97663000D01*
X97917000Y-101727000D01*
X87249000Y-101727000D01*
X87249000Y-113531560D01*
X86588000Y-113531560D01*
X86345877Y-113578537D01*
X86133073Y-113718327D01*
X85990623Y-113929360D01*
X85940560Y-114179000D01*
X85940560Y-114367888D01*
X85716466Y-114591981D01*
X85658337Y-114591931D01*
X85298788Y-114740493D01*
X85023460Y-115015341D01*
X84874270Y-115374630D01*
X84873931Y-115763663D01*
X85022493Y-116123212D01*
X85104040Y-116204901D01*
X85023460Y-116285341D01*
X84874270Y-116644630D01*
X84873931Y-117033663D01*
X85022493Y-117393212D01*
X85064600Y-117435392D01*
X85064600Y-117932800D01*
X85124537Y-118234125D01*
X85295224Y-118489576D01*
X85726424Y-118920776D01*
X85981875Y-119091463D01*
X86071764Y-119109342D01*
X86127327Y-119193927D01*
X86338360Y-119336377D01*
X86588000Y-119386440D01*
X87249000Y-119386440D01*
X87249000Y-122809000D01*
X88893560Y-122809000D01*
X88893560Y-123978000D01*
X88940537Y-124220123D01*
X89080327Y-124432927D01*
X89128600Y-124465511D01*
X89128600Y-124626272D01*
X89087460Y-124667341D01*
X88938270Y-125026630D01*
X88937931Y-125415663D01*
X89086493Y-125775212D01*
X89361341Y-126050540D01*
X89720630Y-126199730D01*
X90109663Y-126200069D01*
X90469212Y-126051507D01*
X90744540Y-125776659D01*
X90893730Y-125417370D01*
X90894069Y-125028337D01*
X90745507Y-124668788D01*
X90703400Y-124626607D01*
X90703400Y-124466608D01*
X90745927Y-124438673D01*
X90888377Y-124227640D01*
X90938440Y-123978000D01*
X90938440Y-122809000D01*
X98933000Y-122809000D01*
X98933000Y-124812944D01*
X98844270Y-125026630D01*
X98843931Y-125415663D01*
X98933000Y-125631227D01*
X98933000Y-126362136D01*
X98907378Y-126387714D01*
X98742687Y-126784332D01*
X98742313Y-127213784D01*
X98906311Y-127610689D01*
X98933000Y-127637424D01*
X98933000Y-130084826D01*
X98913877Y-130088537D01*
X98817120Y-130152095D01*
X98815698Y-130150673D01*
X98582309Y-130054000D01*
X98141750Y-130054000D01*
X97983000Y-130212750D01*
X97983000Y-130937000D01*
X98003000Y-130937000D01*
X98003000Y-131191000D01*
X97983000Y-131191000D01*
X97983000Y-131915250D01*
X98141750Y-132074000D01*
X98582309Y-132074000D01*
X98815698Y-131977327D01*
X98816980Y-131976044D01*
X98906360Y-132036377D01*
X98933000Y-132041719D01*
X98933000Y-136435989D01*
X98933000Y-136435989D01*
G37*
X98933000Y-136435989D02*
X98866337Y-136435931D01*
X98506788Y-136584493D01*
X98231460Y-136859341D01*
X98082270Y-137218630D01*
X98081931Y-137607663D01*
X98230493Y-137967212D01*
X98348800Y-138085725D01*
X98348800Y-138176000D01*
X98402937Y-138448165D01*
X98557106Y-138678894D01*
X98689211Y-138811000D01*
X97729000Y-138811000D01*
X97729000Y-131915250D01*
X97729000Y-131191000D01*
X97729000Y-130937000D01*
X97729000Y-130212750D01*
X97570250Y-130054000D01*
X97129691Y-130054000D01*
X96896302Y-130150673D01*
X96717673Y-130329301D01*
X96621000Y-130562690D01*
X96621000Y-130778250D01*
X96779750Y-130937000D01*
X97729000Y-130937000D01*
X97729000Y-131191000D01*
X96779750Y-131191000D01*
X96621000Y-131349750D01*
X96621000Y-131565310D01*
X96717673Y-131798699D01*
X96896302Y-131977327D01*
X97129691Y-132074000D01*
X97570250Y-132074000D01*
X97729000Y-131915250D01*
X97729000Y-138811000D01*
X91275069Y-138811000D01*
X91275069Y-133664337D01*
X91126507Y-133304788D01*
X90851659Y-133029460D01*
X90492370Y-132880270D01*
X90103337Y-132879931D01*
X89743788Y-133028493D01*
X89468460Y-133303341D01*
X89319270Y-133662630D01*
X89318931Y-134051663D01*
X89467493Y-134411212D01*
X89742341Y-134686540D01*
X90101630Y-134835730D01*
X90490663Y-134836069D01*
X90850212Y-134687507D01*
X91125540Y-134412659D01*
X91274730Y-134053370D01*
X91275069Y-133664337D01*
X91275069Y-138811000D01*
X84061040Y-138811000D01*
X84061040Y-137033000D01*
X84014063Y-136790877D01*
X83874273Y-136578073D01*
X83663240Y-136435623D01*
X83413600Y-136385560D01*
X81686400Y-136385560D01*
X81444277Y-136432537D01*
X81231473Y-136572327D01*
X81089023Y-136783360D01*
X81081281Y-136821962D01*
X81069670Y-136804585D01*
X80583489Y-136479729D01*
X80010000Y-136365655D01*
X79461600Y-136474738D01*
X79461600Y-136184588D01*
X80428894Y-135217295D01*
X80428894Y-135217294D01*
X80434141Y-135209440D01*
X80434142Y-135209440D01*
X80526000Y-135209440D01*
X80768123Y-135162463D01*
X80980927Y-135022673D01*
X81025613Y-134956471D01*
X81065327Y-135016927D01*
X81276360Y-135159377D01*
X81526000Y-135209440D01*
X82726000Y-135209440D01*
X82968123Y-135162463D01*
X83073397Y-135093308D01*
X83370630Y-135216730D01*
X83759663Y-135217069D01*
X84119212Y-135068507D01*
X84394540Y-134793659D01*
X84543730Y-134434370D01*
X84544069Y-134045337D01*
X84395507Y-133685788D01*
X84377238Y-133667487D01*
X84648540Y-133396659D01*
X84797730Y-133037370D01*
X84798069Y-132648337D01*
X84649507Y-132288788D01*
X84374659Y-132013460D01*
X84015370Y-131864270D01*
X83626337Y-131863931D01*
X83266788Y-132012493D01*
X83248323Y-132030924D01*
X83186673Y-131937073D01*
X82975640Y-131794623D01*
X82726000Y-131744560D01*
X81559569Y-131744560D01*
X81559569Y-114677837D01*
X81411007Y-114318288D01*
X81136159Y-114042960D01*
X80776870Y-113893770D01*
X80387837Y-113893431D01*
X80028288Y-114041993D01*
X79752960Y-114316841D01*
X79603770Y-114676130D01*
X79603431Y-115065163D01*
X79751993Y-115424712D01*
X80026841Y-115700040D01*
X80386130Y-115849230D01*
X80775163Y-115849569D01*
X81134712Y-115701007D01*
X81410040Y-115426159D01*
X81559230Y-115066870D01*
X81559569Y-114677837D01*
X81559569Y-131744560D01*
X81526000Y-131744560D01*
X81283877Y-131791537D01*
X81071073Y-131931327D01*
X81026386Y-131997528D01*
X80986673Y-131937073D01*
X80775640Y-131794623D01*
X80526000Y-131744560D01*
X79845069Y-131744560D01*
X79845069Y-124139337D01*
X79696507Y-123779788D01*
X79421659Y-123504460D01*
X79276141Y-123444035D01*
X79420212Y-123384507D01*
X79695540Y-123109659D01*
X79844730Y-122750370D01*
X79845069Y-122361337D01*
X79696507Y-122001788D01*
X79421659Y-121726460D01*
X79062370Y-121577270D01*
X78673337Y-121576931D01*
X78328989Y-121719211D01*
X78126640Y-121582623D01*
X77877000Y-121532560D01*
X76916801Y-121532560D01*
X76916801Y-116464601D01*
X76871645Y-116237591D01*
X76862664Y-116192437D01*
X76862664Y-116192436D01*
X76708495Y-115961707D01*
X76232979Y-115486191D01*
X76232979Y-109343857D01*
X76084417Y-108984308D01*
X75809569Y-108708980D01*
X75654069Y-108644410D01*
X75654069Y-101914337D01*
X75505507Y-101554788D01*
X75230659Y-101279460D01*
X74871370Y-101130270D01*
X74482337Y-101129931D01*
X74122788Y-101278493D01*
X73847460Y-101553341D01*
X73698270Y-101912630D01*
X73697931Y-102301663D01*
X73846493Y-102661212D01*
X74121341Y-102936540D01*
X74480630Y-103085730D01*
X74869663Y-103086069D01*
X75229212Y-102937507D01*
X75504540Y-102662659D01*
X75653730Y-102303370D01*
X75654069Y-101914337D01*
X75654069Y-108644410D01*
X75450280Y-108559790D01*
X75061247Y-108559451D01*
X74701698Y-108708013D01*
X74426370Y-108982861D01*
X74277180Y-109342150D01*
X74276841Y-109731183D01*
X74425403Y-110090732D01*
X74700251Y-110366060D01*
X75059540Y-110515250D01*
X75448573Y-110515589D01*
X75808122Y-110367027D01*
X76083450Y-110092179D01*
X76232640Y-109732890D01*
X76232979Y-109343857D01*
X76232979Y-115486191D01*
X73875924Y-113129136D01*
X73876069Y-112963337D01*
X73727507Y-112603788D01*
X73452659Y-112328460D01*
X73093370Y-112179270D01*
X72704337Y-112178931D01*
X72344788Y-112327493D01*
X72069460Y-112602341D01*
X71920270Y-112961630D01*
X71919931Y-113350663D01*
X71920897Y-113353002D01*
X71804000Y-113329560D01*
X70604000Y-113329560D01*
X70361877Y-113376537D01*
X70149073Y-113516327D01*
X70105662Y-113580637D01*
X69963698Y-113438673D01*
X69730309Y-113342000D01*
X69367400Y-113342000D01*
X69367400Y-112268000D01*
X69367400Y-112014000D01*
X69367400Y-111783067D01*
X69307463Y-111481742D01*
X69136776Y-111226291D01*
X69050069Y-111168355D01*
X69050069Y-109280337D01*
X68901507Y-108920788D01*
X68626659Y-108645460D01*
X68267370Y-108496270D01*
X67878337Y-108495931D01*
X67533989Y-108638211D01*
X67331640Y-108501623D01*
X67082000Y-108451560D01*
X65882000Y-108451560D01*
X65639877Y-108498537D01*
X65543120Y-108562095D01*
X65541698Y-108560673D01*
X65308309Y-108464000D01*
X64867750Y-108464000D01*
X64709000Y-108622750D01*
X64709000Y-109347000D01*
X64729000Y-109347000D01*
X64729000Y-109601000D01*
X64709000Y-109601000D01*
X64709000Y-110325250D01*
X64867750Y-110484000D01*
X65308309Y-110484000D01*
X65541698Y-110387327D01*
X65542980Y-110386044D01*
X65632360Y-110446377D01*
X65882000Y-110496440D01*
X67082000Y-110496440D01*
X67324123Y-110449463D01*
X67535994Y-110310285D01*
X67876630Y-110451730D01*
X68265663Y-110452069D01*
X68625212Y-110303507D01*
X68900540Y-110028659D01*
X69049730Y-109669370D01*
X69050069Y-109280337D01*
X69050069Y-111168355D01*
X68881325Y-111055604D01*
X68580000Y-110995667D01*
X68278675Y-111055604D01*
X68023224Y-111226291D01*
X67852537Y-111481742D01*
X67792600Y-111783067D01*
X67792600Y-112014000D01*
X67792600Y-112268000D01*
X67852537Y-112569325D01*
X68023224Y-112824776D01*
X68278675Y-112995463D01*
X68580000Y-113055400D01*
X68881325Y-112995463D01*
X69136776Y-112824776D01*
X69307463Y-112569325D01*
X69367400Y-112268000D01*
X69367400Y-113342000D01*
X69289750Y-113342000D01*
X69131000Y-113500750D01*
X69131000Y-114300000D01*
X69151000Y-114300000D01*
X69151000Y-114554000D01*
X69131000Y-114554000D01*
X69131000Y-115151750D01*
X69131000Y-115353250D01*
X69131000Y-115951000D01*
X69151000Y-115951000D01*
X69151000Y-116205000D01*
X69131000Y-116205000D01*
X69131000Y-116225000D01*
X68877000Y-116225000D01*
X68877000Y-116205000D01*
X68877000Y-115951000D01*
X68877000Y-115353250D01*
X68877000Y-115151750D01*
X68877000Y-114554000D01*
X68877000Y-114300000D01*
X68877000Y-113500750D01*
X68718250Y-113342000D01*
X68277691Y-113342000D01*
X68044302Y-113438673D01*
X67865673Y-113617301D01*
X67769000Y-113850690D01*
X67769000Y-114103309D01*
X67769000Y-114141250D01*
X67927750Y-114300000D01*
X68877000Y-114300000D01*
X68877000Y-114554000D01*
X67927750Y-114554000D01*
X67769000Y-114712750D01*
X67769000Y-114750691D01*
X67769000Y-115003310D01*
X67865673Y-115236699D01*
X67881474Y-115252500D01*
X67865673Y-115268301D01*
X67769000Y-115501690D01*
X67769000Y-115754309D01*
X67769000Y-115792250D01*
X67927750Y-115951000D01*
X68877000Y-115951000D01*
X68877000Y-116205000D01*
X67927750Y-116205000D01*
X67769000Y-116363750D01*
X67769000Y-116401691D01*
X67769000Y-116654310D01*
X67865673Y-116887699D01*
X67887507Y-116909533D01*
X67806623Y-117029360D01*
X67756560Y-117279000D01*
X67756560Y-118179000D01*
X67799843Y-118402083D01*
X67624337Y-118401931D01*
X67264788Y-118550493D01*
X66989460Y-118825341D01*
X66840270Y-119184630D01*
X66839931Y-119573663D01*
X66988493Y-119933212D01*
X67263341Y-120208540D01*
X67622630Y-120357730D01*
X67809094Y-120357892D01*
X67769000Y-120454690D01*
X67769000Y-120707309D01*
X67769000Y-120745250D01*
X67927750Y-120904000D01*
X68877000Y-120904000D01*
X68877000Y-120884000D01*
X69131000Y-120884000D01*
X69131000Y-120904000D01*
X69151000Y-120904000D01*
X69151000Y-121158000D01*
X69131000Y-121158000D01*
X69131000Y-121755750D01*
X69131000Y-121957250D01*
X69131000Y-122555000D01*
X69151000Y-122555000D01*
X69151000Y-122809000D01*
X69131000Y-122809000D01*
X69131000Y-122829000D01*
X68877000Y-122829000D01*
X68877000Y-122809000D01*
X68877000Y-122555000D01*
X68877000Y-121957250D01*
X68877000Y-121755750D01*
X68877000Y-121158000D01*
X67927750Y-121158000D01*
X67769000Y-121316750D01*
X67769000Y-121354691D01*
X67769000Y-121607310D01*
X67865673Y-121840699D01*
X67881474Y-121856500D01*
X67865673Y-121872301D01*
X67769000Y-122105690D01*
X67769000Y-122358309D01*
X67769000Y-122396250D01*
X67927750Y-122555000D01*
X68877000Y-122555000D01*
X68877000Y-122809000D01*
X67927750Y-122809000D01*
X67769000Y-122967750D01*
X67769000Y-123005691D01*
X67769000Y-123258310D01*
X67865673Y-123491699D01*
X67887507Y-123513533D01*
X67875937Y-123530673D01*
X67759370Y-123482270D01*
X67370337Y-123481931D01*
X67010788Y-123630493D01*
X66735460Y-123905341D01*
X66586270Y-124264630D01*
X66586025Y-124545559D01*
X66524426Y-124533306D01*
X66507463Y-124445877D01*
X66367673Y-124233073D01*
X66156640Y-124090623D01*
X65907000Y-124040560D01*
X65748069Y-124040560D01*
X65748069Y-122234337D01*
X65621069Y-121926972D01*
X65621069Y-117916337D01*
X65472507Y-117556788D01*
X65197659Y-117281460D01*
X64838370Y-117132270D01*
X64455000Y-117131935D01*
X64455000Y-110325250D01*
X64455000Y-109601000D01*
X64455000Y-109347000D01*
X64455000Y-108622750D01*
X64296250Y-108464000D01*
X63855691Y-108464000D01*
X63622302Y-108560673D01*
X63443673Y-108739301D01*
X63347000Y-108972690D01*
X63347000Y-109188250D01*
X63505750Y-109347000D01*
X64455000Y-109347000D01*
X64455000Y-109601000D01*
X63505750Y-109601000D01*
X63347000Y-109759750D01*
X63347000Y-109975310D01*
X63443673Y-110208699D01*
X63622302Y-110387327D01*
X63855691Y-110484000D01*
X64296250Y-110484000D01*
X64455000Y-110325250D01*
X64455000Y-117131935D01*
X64449337Y-117131931D01*
X64089788Y-117280493D01*
X63814460Y-117555341D01*
X63716069Y-117792292D01*
X63716069Y-111820337D01*
X63567507Y-111460788D01*
X63292659Y-111185460D01*
X62933370Y-111036270D01*
X62544337Y-111035931D01*
X62184788Y-111184493D01*
X61909460Y-111459341D01*
X61760270Y-111818630D01*
X61759931Y-112207663D01*
X61908493Y-112567212D01*
X62183341Y-112842540D01*
X62542630Y-112991730D01*
X62931663Y-112992069D01*
X63291212Y-112843507D01*
X63566540Y-112568659D01*
X63715730Y-112209370D01*
X63716069Y-111820337D01*
X63716069Y-117792292D01*
X63665270Y-117914630D01*
X63664931Y-118303663D01*
X63813493Y-118663212D01*
X64088341Y-118938540D01*
X64447630Y-119087730D01*
X64836663Y-119088069D01*
X65196212Y-118939507D01*
X65471540Y-118664659D01*
X65620730Y-118305370D01*
X65621069Y-117916337D01*
X65621069Y-121926972D01*
X65599507Y-121874788D01*
X65324659Y-121599460D01*
X64965370Y-121450270D01*
X64576337Y-121449931D01*
X64216788Y-121598493D01*
X63941460Y-121873341D01*
X63792270Y-122232630D01*
X63791931Y-122621663D01*
X63940493Y-122981212D01*
X64215341Y-123256540D01*
X64574630Y-123405730D01*
X64963663Y-123406069D01*
X65323212Y-123257507D01*
X65598540Y-122982659D01*
X65747730Y-122623370D01*
X65748069Y-122234337D01*
X65748069Y-124040560D01*
X65157000Y-124040560D01*
X64914877Y-124087537D01*
X64742142Y-124201005D01*
X64664673Y-124083073D01*
X64453640Y-123940623D01*
X64204000Y-123890560D01*
X63304000Y-123890560D01*
X63061877Y-123937537D01*
X62849073Y-124077327D01*
X62750336Y-124223600D01*
X62724984Y-124223600D01*
X62632673Y-124083073D01*
X62421640Y-123940623D01*
X62172000Y-123890560D01*
X61272000Y-123890560D01*
X61029877Y-123937537D01*
X60817073Y-124077327D01*
X60674623Y-124288360D01*
X60624560Y-124538000D01*
X60624560Y-125738000D01*
X60671537Y-125980123D01*
X60811327Y-126192927D01*
X60875637Y-126236337D01*
X60733673Y-126378302D01*
X60637000Y-126611691D01*
X60637000Y-127052250D01*
X60795750Y-127211000D01*
X61595000Y-127211000D01*
X61595000Y-127191000D01*
X61849000Y-127191000D01*
X61849000Y-127211000D01*
X61869000Y-127211000D01*
X61869000Y-127465000D01*
X61849000Y-127465000D01*
X61849000Y-128414250D01*
X62007750Y-128573000D01*
X62045691Y-128573000D01*
X62123738Y-128573000D01*
X62014270Y-128836630D01*
X62013931Y-129225663D01*
X62162493Y-129585212D01*
X62437341Y-129860540D01*
X62796630Y-130009730D01*
X63185663Y-130010069D01*
X63545212Y-129861507D01*
X63820540Y-129586659D01*
X63969730Y-129227370D01*
X63969813Y-129131817D01*
X64292815Y-128808815D01*
X64292816Y-128808815D01*
X64391834Y-128660623D01*
X64457996Y-128561605D01*
X64457996Y-128561604D01*
X64465075Y-128526013D01*
X64658927Y-128398673D01*
X64742856Y-128274335D01*
X64907360Y-128385377D01*
X65157000Y-128435440D01*
X65907000Y-128435440D01*
X66149123Y-128388463D01*
X66245000Y-128325481D01*
X66245000Y-128454309D01*
X66245000Y-128492250D01*
X66403750Y-128651000D01*
X67353000Y-128651000D01*
X67353000Y-128631000D01*
X67607000Y-128631000D01*
X67607000Y-128651000D01*
X67627000Y-128651000D01*
X67627000Y-128905000D01*
X67607000Y-128905000D01*
X67607000Y-128925000D01*
X67353000Y-128925000D01*
X67353000Y-128905000D01*
X66403750Y-128905000D01*
X66245000Y-129063750D01*
X66245000Y-129101691D01*
X66245000Y-129354310D01*
X66341673Y-129587699D01*
X66520302Y-129766327D01*
X66525789Y-129768600D01*
X66127727Y-129768600D01*
X66086659Y-129727460D01*
X65727370Y-129578270D01*
X65338337Y-129577931D01*
X64978788Y-129726493D01*
X64703460Y-130001341D01*
X64554270Y-130360630D01*
X64553931Y-130749663D01*
X64702493Y-131109212D01*
X64977341Y-131384540D01*
X65336630Y-131533730D01*
X65725663Y-131534069D01*
X66085212Y-131385507D01*
X66127392Y-131343400D01*
X66541391Y-131343400D01*
X66569327Y-131385927D01*
X66780360Y-131528377D01*
X67030000Y-131578440D01*
X68230000Y-131578440D01*
X68472123Y-131531463D01*
X68579974Y-131460615D01*
X68680360Y-131528377D01*
X68930000Y-131578440D01*
X70130000Y-131578440D01*
X70372123Y-131531463D01*
X70584927Y-131391673D01*
X70727377Y-131180640D01*
X70777440Y-130931000D01*
X70777440Y-130181000D01*
X70730463Y-129938877D01*
X70616994Y-129766142D01*
X70734927Y-129688673D01*
X70877377Y-129477640D01*
X70927440Y-129228000D01*
X70927440Y-128328000D01*
X70880463Y-128085877D01*
X70750356Y-127887814D01*
X70818137Y-127787400D01*
X71628000Y-127787400D01*
X71929325Y-127727463D01*
X72184776Y-127556776D01*
X73541533Y-126200018D01*
X73599663Y-126200069D01*
X73959212Y-126051507D01*
X74206145Y-125805004D01*
X74205931Y-126050663D01*
X74354493Y-126410212D01*
X74629341Y-126685540D01*
X74988630Y-126834730D01*
X75377663Y-126835069D01*
X75737212Y-126686507D01*
X76012540Y-126411659D01*
X76161730Y-126052370D01*
X76161875Y-125884912D01*
X76691348Y-125355440D01*
X77877000Y-125355440D01*
X78119123Y-125308463D01*
X78330994Y-125169285D01*
X78671630Y-125310730D01*
X79060663Y-125311069D01*
X79420212Y-125162507D01*
X79695540Y-124887659D01*
X79844730Y-124528370D01*
X79845069Y-124139337D01*
X79845069Y-131744560D01*
X79326000Y-131744560D01*
X79083877Y-131791537D01*
X78871073Y-131931327D01*
X78728623Y-132142360D01*
X78678560Y-132392000D01*
X78678560Y-133292000D01*
X78715047Y-133480056D01*
X78678560Y-133662000D01*
X78678560Y-134562000D01*
X78725537Y-134804123D01*
X78767146Y-134867465D01*
X78247506Y-135387106D01*
X78093337Y-135617835D01*
X78039200Y-135890000D01*
X78039200Y-136321612D01*
X77908027Y-136452784D01*
X77470000Y-136365655D01*
X77343550Y-136390807D01*
X77343550Y-131705224D01*
X76861204Y-130537857D01*
X76416069Y-130091944D01*
X76416069Y-127822337D01*
X76267507Y-127462788D01*
X75992659Y-127187460D01*
X75633370Y-127038270D01*
X75244337Y-127037931D01*
X74884788Y-127186493D01*
X74609460Y-127461341D01*
X74460270Y-127820630D01*
X74459931Y-128209663D01*
X74608493Y-128569212D01*
X74883341Y-128844540D01*
X75242630Y-128993730D01*
X75631663Y-128994069D01*
X75991212Y-128845507D01*
X76266540Y-128570659D01*
X76415730Y-128211370D01*
X76416069Y-127822337D01*
X76416069Y-130091944D01*
X75968841Y-129643935D01*
X74802317Y-129159552D01*
X73539224Y-129158450D01*
X72371857Y-129640796D01*
X71477935Y-130533159D01*
X70993552Y-131699683D01*
X70992450Y-132962776D01*
X71474796Y-134130143D01*
X72367159Y-135024065D01*
X73533683Y-135508448D01*
X74796776Y-135509550D01*
X75964143Y-135027204D01*
X76858065Y-134134841D01*
X77342448Y-132968317D01*
X77343550Y-131705224D01*
X77343550Y-136390807D01*
X76896511Y-136479729D01*
X76410330Y-136804585D01*
X76203539Y-137114069D01*
X75832036Y-136698268D01*
X75304791Y-136444291D01*
X75289026Y-136441642D01*
X75057000Y-136562783D01*
X75057000Y-137922000D01*
X75077000Y-137922000D01*
X75077000Y-138176000D01*
X75057000Y-138176000D01*
X75057000Y-138196000D01*
X74803000Y-138196000D01*
X74803000Y-138176000D01*
X74783000Y-138176000D01*
X74783000Y-137922000D01*
X74803000Y-137922000D01*
X74803000Y-136562783D01*
X74570974Y-136441642D01*
X74555209Y-136444291D01*
X74027964Y-136698268D01*
X73656460Y-137114069D01*
X73449670Y-136804585D01*
X72963489Y-136479729D01*
X72390000Y-136365655D01*
X71816511Y-136479729D01*
X71330330Y-136804585D01*
X71120000Y-137119365D01*
X70909670Y-136804585D01*
X70423489Y-136479729D01*
X69850000Y-136365655D01*
X69276511Y-136479729D01*
X68790330Y-136804585D01*
X68580000Y-137119365D01*
X68369670Y-136804585D01*
X67883489Y-136479729D01*
X67310000Y-136365655D01*
X66736511Y-136479729D01*
X66250330Y-136804585D01*
X66040000Y-137119365D01*
X65829670Y-136804585D01*
X65343489Y-136479729D01*
X64770000Y-136365655D01*
X64196511Y-136479729D01*
X63710330Y-136804585D01*
X63500000Y-137119365D01*
X63289670Y-136804585D01*
X62803489Y-136479729D01*
X62230000Y-136365655D01*
X61656511Y-136479729D01*
X61595000Y-136520829D01*
X61595000Y-128414250D01*
X61595000Y-127465000D01*
X60795750Y-127465000D01*
X60637000Y-127623750D01*
X60637000Y-128064309D01*
X60733673Y-128297698D01*
X60912301Y-128476327D01*
X61145690Y-128573000D01*
X61398309Y-128573000D01*
X61436250Y-128573000D01*
X61595000Y-128414250D01*
X61595000Y-136520829D01*
X61170330Y-136804585D01*
X60960000Y-137119365D01*
X60749670Y-136804585D01*
X60263489Y-136479729D01*
X59690000Y-136365655D01*
X59116511Y-136479729D01*
X58630330Y-136804585D01*
X58305474Y-137290766D01*
X58302335Y-137306546D01*
X58244293Y-137248505D01*
X58115200Y-137119411D01*
X58115200Y-122489948D01*
X58373341Y-122748540D01*
X58732630Y-122897730D01*
X59121663Y-122898069D01*
X59481212Y-122749507D01*
X59756540Y-122474659D01*
X59905730Y-122115370D01*
X59906069Y-121726337D01*
X59757507Y-121366788D01*
X59482659Y-121091460D01*
X59123370Y-120942270D01*
X58734337Y-120941931D01*
X58374788Y-121090493D01*
X58115200Y-121349628D01*
X58115200Y-115885440D01*
X58870000Y-115885440D01*
X59112123Y-115838463D01*
X59324927Y-115698673D01*
X59467377Y-115487640D01*
X59517440Y-115238000D01*
X59517440Y-114419731D01*
X59748630Y-114515730D01*
X60137663Y-114516069D01*
X60497212Y-114367507D01*
X60772540Y-114092659D01*
X60921730Y-113733370D01*
X60922069Y-113344337D01*
X60773507Y-112984788D01*
X60498659Y-112709460D01*
X60139370Y-112560270D01*
X59750337Y-112559931D01*
X59517440Y-112656161D01*
X59517440Y-111838000D01*
X59470463Y-111595877D01*
X59411600Y-111506270D01*
X59467377Y-111423640D01*
X59517440Y-111174000D01*
X59517440Y-109974000D01*
X59470463Y-109731877D01*
X59330673Y-109519073D01*
X59264471Y-109474386D01*
X59324927Y-109434673D01*
X59467377Y-109223640D01*
X59517440Y-108974000D01*
X59517440Y-107774000D01*
X59470463Y-107531877D01*
X59330673Y-107319073D01*
X59131200Y-107184426D01*
X59131200Y-106212588D01*
X60998141Y-104345646D01*
X60997931Y-104587663D01*
X61146493Y-104947212D01*
X61421341Y-105222540D01*
X61780630Y-105371730D01*
X62169663Y-105372069D01*
X62438095Y-105261155D01*
X62449537Y-105320123D01*
X62589327Y-105532927D01*
X62800360Y-105675377D01*
X63050000Y-105725440D01*
X63950000Y-105725440D01*
X64192123Y-105678463D01*
X64404927Y-105538673D01*
X64547377Y-105327640D01*
X64597440Y-105078000D01*
X64597440Y-103878000D01*
X64550463Y-103635877D01*
X64410673Y-103423073D01*
X64344471Y-103378386D01*
X64404927Y-103338673D01*
X64497129Y-103202078D01*
X64828630Y-103339730D01*
X65217663Y-103340069D01*
X65577212Y-103191507D01*
X65852540Y-102916659D01*
X66001730Y-102557370D01*
X66002069Y-102168337D01*
X65853507Y-101808788D01*
X65578659Y-101533460D01*
X65219370Y-101384270D01*
X64830337Y-101383931D01*
X64561904Y-101494844D01*
X64550463Y-101435877D01*
X64410673Y-101223073D01*
X64215333Y-101091216D01*
X64404927Y-100966673D01*
X64547377Y-100755640D01*
X64597440Y-100506000D01*
X64597440Y-99306000D01*
X64550463Y-99063877D01*
X64410673Y-98851073D01*
X64344471Y-98806386D01*
X64404927Y-98766673D01*
X64547377Y-98555640D01*
X64575139Y-98417200D01*
X64666000Y-98417200D01*
X64938164Y-98363063D01*
X64938165Y-98363063D01*
X65168894Y-98208894D01*
X66288894Y-97088894D01*
X66443063Y-96858165D01*
X66443063Y-96858164D01*
X66452044Y-96813009D01*
X66466560Y-96740037D01*
X66466560Y-97458000D01*
X66513537Y-97700123D01*
X66653327Y-97912927D01*
X66852800Y-98047573D01*
X66852800Y-98134205D01*
X66735460Y-98251341D01*
X66586270Y-98610630D01*
X66585931Y-98999663D01*
X66734493Y-99359212D01*
X67009341Y-99634540D01*
X67368630Y-99783730D01*
X67757663Y-99784069D01*
X68117212Y-99635507D01*
X68392540Y-99360659D01*
X68541730Y-99001370D01*
X68542069Y-98612337D01*
X68393507Y-98252788D01*
X68275200Y-98134274D01*
X68275200Y-98045931D01*
X68468927Y-97918673D01*
X68611377Y-97707640D01*
X68661440Y-97458000D01*
X68661440Y-96258000D01*
X68614463Y-96015877D01*
X68528490Y-95885000D01*
X70663892Y-95885000D01*
X70580623Y-96008360D01*
X70530560Y-96258000D01*
X70530560Y-97458000D01*
X70577537Y-97700123D01*
X70717327Y-97912927D01*
X70916800Y-98047573D01*
X70916800Y-98134205D01*
X70799460Y-98251341D01*
X70650270Y-98610630D01*
X70649931Y-98999663D01*
X70798493Y-99359212D01*
X71073341Y-99634540D01*
X71432630Y-99783730D01*
X71821663Y-99784069D01*
X72181212Y-99635507D01*
X72456540Y-99360659D01*
X72605730Y-99001370D01*
X72606069Y-98612337D01*
X72457507Y-98252788D01*
X72339200Y-98134274D01*
X72339200Y-98045931D01*
X72532927Y-97918673D01*
X72675377Y-97707640D01*
X72725440Y-97458000D01*
X72725440Y-96258000D01*
X72678463Y-96015877D01*
X72592490Y-95885000D01*
X73164811Y-95885000D01*
X73145560Y-95981000D01*
X73145560Y-97181000D01*
X73192537Y-97423123D01*
X73263288Y-97530828D01*
X73106788Y-97595493D01*
X72831460Y-97870341D01*
X72682270Y-98229630D01*
X72681931Y-98618663D01*
X72830493Y-98978212D01*
X73105341Y-99253540D01*
X73464630Y-99402730D01*
X73853663Y-99403069D01*
X74213212Y-99254507D01*
X74488540Y-98979659D01*
X74637730Y-98620370D01*
X74637781Y-98560770D01*
X74724776Y-98473776D01*
X74895463Y-98218325D01*
X74955400Y-97917000D01*
X74955400Y-97669608D01*
X74997927Y-97641673D01*
X75140377Y-97430640D01*
X75190440Y-97181000D01*
X75190440Y-95981000D01*
X75171813Y-95885000D01*
X84112210Y-95885000D01*
X84111931Y-96205663D01*
X84260493Y-96565212D01*
X84535341Y-96840540D01*
X84894630Y-96989730D01*
X85283663Y-96990069D01*
X85643212Y-96841507D01*
X85918540Y-96566659D01*
X85978964Y-96421141D01*
X86038493Y-96565212D01*
X86313341Y-96840540D01*
X86672630Y-96989730D01*
X87061663Y-96990069D01*
X87421212Y-96841507D01*
X87696540Y-96566659D01*
X87756964Y-96421141D01*
X87816493Y-96565212D01*
X88091341Y-96840540D01*
X88450630Y-96989730D01*
X88839663Y-96990069D01*
X89199212Y-96841507D01*
X89474540Y-96566659D01*
X89623730Y-96207370D01*
X89624010Y-95885000D01*
X93853000Y-95885000D01*
X93853000Y-95983944D01*
X93764270Y-96197630D01*
X93763931Y-96586663D01*
X93853000Y-96802227D01*
X93853000Y-97663000D01*
X97917000Y-97663000D01*
X97917000Y-101727000D01*
X87249000Y-101727000D01*
X87249000Y-113531560D01*
X86588000Y-113531560D01*
X86345877Y-113578537D01*
X86133073Y-113718327D01*
X85990623Y-113929360D01*
X85940560Y-114179000D01*
X85940560Y-114367888D01*
X85716466Y-114591981D01*
X85658337Y-114591931D01*
X85298788Y-114740493D01*
X85023460Y-115015341D01*
X84874270Y-115374630D01*
X84873931Y-115763663D01*
X85022493Y-116123212D01*
X85104040Y-116204901D01*
X85023460Y-116285341D01*
X84874270Y-116644630D01*
X84873931Y-117033663D01*
X85022493Y-117393212D01*
X85064600Y-117435392D01*
X85064600Y-117932800D01*
X85124537Y-118234125D01*
X85295224Y-118489576D01*
X85726424Y-118920776D01*
X85981875Y-119091463D01*
X86071764Y-119109342D01*
X86127327Y-119193927D01*
X86338360Y-119336377D01*
X86588000Y-119386440D01*
X87249000Y-119386440D01*
X87249000Y-122809000D01*
X88893560Y-122809000D01*
X88893560Y-123978000D01*
X88940537Y-124220123D01*
X89080327Y-124432927D01*
X89128600Y-124465511D01*
X89128600Y-124626272D01*
X89087460Y-124667341D01*
X88938270Y-125026630D01*
X88937931Y-125415663D01*
X89086493Y-125775212D01*
X89361341Y-126050540D01*
X89720630Y-126199730D01*
X90109663Y-126200069D01*
X90469212Y-126051507D01*
X90744540Y-125776659D01*
X90893730Y-125417370D01*
X90894069Y-125028337D01*
X90745507Y-124668788D01*
X90703400Y-124626607D01*
X90703400Y-124466608D01*
X90745927Y-124438673D01*
X90888377Y-124227640D01*
X90938440Y-123978000D01*
X90938440Y-122809000D01*
X98933000Y-122809000D01*
X98933000Y-124812944D01*
X98844270Y-125026630D01*
X98843931Y-125415663D01*
X98933000Y-125631227D01*
X98933000Y-126362136D01*
X98907378Y-126387714D01*
X98742687Y-126784332D01*
X98742313Y-127213784D01*
X98906311Y-127610689D01*
X98933000Y-127637424D01*
X98933000Y-130084826D01*
X98913877Y-130088537D01*
X98817120Y-130152095D01*
X98815698Y-130150673D01*
X98582309Y-130054000D01*
X98141750Y-130054000D01*
X97983000Y-130212750D01*
X97983000Y-130937000D01*
X98003000Y-130937000D01*
X98003000Y-131191000D01*
X97983000Y-131191000D01*
X97983000Y-131915250D01*
X98141750Y-132074000D01*
X98582309Y-132074000D01*
X98815698Y-131977327D01*
X98816980Y-131976044D01*
X98906360Y-132036377D01*
X98933000Y-132041719D01*
X98933000Y-136435989D01*
G36*
X137237000Y-136048156D02*
X137059204Y-135617857D01*
X136166841Y-134723935D01*
X135000317Y-134239552D01*
X133737224Y-134238450D01*
X132569857Y-134720796D01*
X131675935Y-135613159D01*
X131191552Y-136779683D01*
X131190450Y-138042776D01*
X131672796Y-139210143D01*
X132565159Y-140104065D01*
X133000898Y-140285000D01*
X130455000Y-140285000D01*
X130455000Y-130498785D01*
X130455000Y-130347214D01*
X130455000Y-130270250D01*
X130455000Y-129825750D01*
X130455000Y-129748786D01*
X130455000Y-129597215D01*
X130455000Y-127704785D01*
X130455000Y-127553214D01*
X130455000Y-127476250D01*
X130455000Y-127031750D01*
X130455000Y-126954786D01*
X130455000Y-126803215D01*
X130455000Y-124402785D01*
X130455000Y-124251214D01*
X130455000Y-124174250D01*
X130455000Y-123729750D01*
X130455000Y-123652786D01*
X130455000Y-123501215D01*
X130455000Y-121354785D01*
X130455000Y-121203214D01*
X130455000Y-121126250D01*
X130455000Y-120681750D01*
X130455000Y-120604786D01*
X130455000Y-120453215D01*
X130396996Y-120313181D01*
X130289820Y-120206004D01*
X130149786Y-120148000D01*
X129696250Y-120148000D01*
X129601000Y-120243250D01*
X129601000Y-120777000D01*
X130359750Y-120777000D01*
X130455000Y-120681750D01*
X130455000Y-121126250D01*
X130359750Y-121031000D01*
X129601000Y-121031000D01*
X129601000Y-121564750D01*
X129696250Y-121660000D01*
X130149786Y-121660000D01*
X130289820Y-121601996D01*
X130396996Y-121494819D01*
X130455000Y-121354785D01*
X130455000Y-123501215D01*
X130396996Y-123361181D01*
X130289820Y-123254004D01*
X130149786Y-123196000D01*
X129696250Y-123196000D01*
X129601000Y-123291250D01*
X129601000Y-123825000D01*
X130359750Y-123825000D01*
X130455000Y-123729750D01*
X130455000Y-124174250D01*
X130359750Y-124079000D01*
X129601000Y-124079000D01*
X129601000Y-124612750D01*
X129696250Y-124708000D01*
X130149786Y-124708000D01*
X130289820Y-124649996D01*
X130396996Y-124542819D01*
X130455000Y-124402785D01*
X130455000Y-126803215D01*
X130396996Y-126663181D01*
X130289820Y-126556004D01*
X130149786Y-126498000D01*
X129696250Y-126498000D01*
X129601000Y-126593250D01*
X129601000Y-127127000D01*
X130359750Y-127127000D01*
X130455000Y-127031750D01*
X130455000Y-127476250D01*
X130359750Y-127381000D01*
X129601000Y-127381000D01*
X129601000Y-127914750D01*
X129696250Y-128010000D01*
X130149786Y-128010000D01*
X130289820Y-127951996D01*
X130396996Y-127844819D01*
X130455000Y-127704785D01*
X130455000Y-129597215D01*
X130396996Y-129457181D01*
X130289820Y-129350004D01*
X130149786Y-129292000D01*
X129696250Y-129292000D01*
X129601000Y-129387250D01*
X129601000Y-129921000D01*
X130359750Y-129921000D01*
X130455000Y-129825750D01*
X130455000Y-130270250D01*
X130359750Y-130175000D01*
X129601000Y-130175000D01*
X129601000Y-130708750D01*
X129696250Y-130804000D01*
X130149786Y-130804000D01*
X130289820Y-130745996D01*
X130396996Y-130638819D01*
X130455000Y-130498785D01*
X130455000Y-140285000D01*
X127921345Y-140285000D01*
X127921345Y-135382000D01*
X127795670Y-134750190D01*
X127437778Y-134214567D01*
X126902155Y-133856675D01*
X126270345Y-133731000D01*
X126205655Y-133731000D01*
X125573845Y-133856675D01*
X125058150Y-134201251D01*
X125036996Y-134150181D01*
X124929820Y-134043004D01*
X124789786Y-133985000D01*
X123920250Y-133985000D01*
X123825000Y-134080250D01*
X123825000Y-135255000D01*
X123845000Y-135255000D01*
X123845000Y-135509000D01*
X123825000Y-135509000D01*
X123825000Y-136683750D01*
X123920250Y-136779000D01*
X124789786Y-136779000D01*
X124929820Y-136720996D01*
X125036996Y-136613819D01*
X125058150Y-136562748D01*
X125573845Y-136907325D01*
X126205655Y-137033000D01*
X126270345Y-137033000D01*
X126902155Y-136907325D01*
X127437778Y-136549433D01*
X127795670Y-136013810D01*
X127921345Y-135382000D01*
X127921345Y-140285000D01*
X123571000Y-140285000D01*
X123571000Y-136683750D01*
X123571000Y-135509000D01*
X123571000Y-135255000D01*
X123571000Y-134080250D01*
X123475750Y-133985000D01*
X122606214Y-133985000D01*
X122466180Y-134043004D01*
X122359004Y-134150181D01*
X122301000Y-134290215D01*
X122301000Y-134441786D01*
X122301000Y-135159750D01*
X122396250Y-135255000D01*
X123571000Y-135255000D01*
X123571000Y-135509000D01*
X122396250Y-135509000D01*
X122301000Y-135604250D01*
X122301000Y-136322214D01*
X122301000Y-136473785D01*
X122359004Y-136613819D01*
X122466180Y-136720996D01*
X122606214Y-136779000D01*
X123475750Y-136779000D01*
X123571000Y-136683750D01*
X123571000Y-140285000D01*
X116655000Y-140285000D01*
X116655000Y-139697786D01*
X116655000Y-139244250D01*
X116559750Y-139149000D01*
X115951000Y-139149000D01*
X115951000Y-139907750D01*
X116046250Y-140003000D01*
X116198214Y-140003000D01*
X116349785Y-140003000D01*
X116489819Y-139944996D01*
X116596996Y-139837820D01*
X116655000Y-139697786D01*
X116655000Y-140285000D01*
X115697000Y-140285000D01*
X115697000Y-139907750D01*
X115697000Y-139149000D01*
X115088250Y-139149000D01*
X114993000Y-139244250D01*
X114993000Y-139697786D01*
X115051004Y-139837820D01*
X115158181Y-139944996D01*
X115298215Y-140003000D01*
X115449786Y-140003000D01*
X115601750Y-140003000D01*
X115697000Y-139907750D01*
X115697000Y-140285000D01*
X114349000Y-140285000D01*
X114349000Y-139463785D01*
X114349000Y-139312214D01*
X114349000Y-139160250D01*
X114349000Y-138715750D01*
X114349000Y-138563786D01*
X114349000Y-138412215D01*
X114290996Y-138272181D01*
X114183820Y-138165004D01*
X114043786Y-138107000D01*
X113590250Y-138107000D01*
X113495000Y-138202250D01*
X113495000Y-138811000D01*
X114253750Y-138811000D01*
X114349000Y-138715750D01*
X114349000Y-139160250D01*
X114253750Y-139065000D01*
X113495000Y-139065000D01*
X113495000Y-139673750D01*
X113590250Y-139769000D01*
X114043786Y-139769000D01*
X114183820Y-139710996D01*
X114290996Y-139603819D01*
X114349000Y-139463785D01*
X114349000Y-140285000D01*
X112395000Y-140285000D01*
X112395000Y-139489924D01*
X112395922Y-139485325D01*
X112445004Y-139603819D01*
X112552180Y-139710996D01*
X112692214Y-139769000D01*
X113145750Y-139769000D01*
X113241000Y-139673750D01*
X113241000Y-139065000D01*
X113221000Y-139065000D01*
X113221000Y-138811000D01*
X113241000Y-138811000D01*
X113241000Y-138202250D01*
X113145750Y-138107000D01*
X112692214Y-138107000D01*
X112552180Y-138165004D01*
X112445004Y-138272181D01*
X112396354Y-138389631D01*
X112395000Y-138382650D01*
X112395000Y-138049000D01*
X115272075Y-138049000D01*
X115276674Y-138049922D01*
X115158181Y-138099004D01*
X115051004Y-138206180D01*
X114993000Y-138346214D01*
X114993000Y-138799750D01*
X115088250Y-138895000D01*
X115697000Y-138895000D01*
X115697000Y-138875000D01*
X115951000Y-138875000D01*
X115951000Y-138895000D01*
X116559750Y-138895000D01*
X116655000Y-138799750D01*
X116655000Y-138346214D01*
X116596996Y-138206180D01*
X116489819Y-138099004D01*
X116372368Y-138050354D01*
X116379349Y-138049000D01*
X121285000Y-138049000D01*
X121285000Y-132969000D01*
X128905000Y-132969000D01*
X128905000Y-130804000D01*
X129251750Y-130804000D01*
X129347000Y-130708750D01*
X129347000Y-130175000D01*
X129327000Y-130175000D01*
X129327000Y-129921000D01*
X129347000Y-129921000D01*
X129347000Y-129387250D01*
X129251750Y-129292000D01*
X128905000Y-129292000D01*
X128905000Y-128010000D01*
X129251750Y-128010000D01*
X129347000Y-127914750D01*
X129347000Y-127381000D01*
X129327000Y-127381000D01*
X129327000Y-127127000D01*
X129347000Y-127127000D01*
X129347000Y-126593250D01*
X129251750Y-126498000D01*
X128905000Y-126498000D01*
X128905000Y-124708000D01*
X129251750Y-124708000D01*
X129347000Y-124612750D01*
X129347000Y-124079000D01*
X129327000Y-124079000D01*
X129327000Y-123825000D01*
X129347000Y-123825000D01*
X129347000Y-123291250D01*
X129251750Y-123196000D01*
X128905000Y-123196000D01*
X128905000Y-121660000D01*
X129251750Y-121660000D01*
X129347000Y-121564750D01*
X129347000Y-121031000D01*
X129327000Y-121031000D01*
X129327000Y-120777000D01*
X129347000Y-120777000D01*
X129347000Y-120243250D01*
X129251750Y-120148000D01*
X128905000Y-120148000D01*
X128905000Y-87249000D01*
X116072000Y-87249000D01*
X116072000Y-86965750D01*
X116072000Y-86512214D01*
X116013996Y-86372180D01*
X115906819Y-86265004D01*
X115766785Y-86207000D01*
X115615214Y-86207000D01*
X115538250Y-86207000D01*
X115443000Y-86302250D01*
X115443000Y-87061000D01*
X115976750Y-87061000D01*
X116072000Y-86965750D01*
X116072000Y-87249000D01*
X115189000Y-87249000D01*
X115189000Y-87061000D01*
X115189000Y-86302250D01*
X115093750Y-86207000D01*
X115016786Y-86207000D01*
X114865215Y-86207000D01*
X114725181Y-86265004D01*
X114618004Y-86372180D01*
X114560000Y-86512214D01*
X114560000Y-86965750D01*
X114655250Y-87061000D01*
X115189000Y-87061000D01*
X115189000Y-87249000D01*
X112008000Y-87249000D01*
X112008000Y-86965750D01*
X112008000Y-86512214D01*
X111949996Y-86372180D01*
X111842819Y-86265004D01*
X111702785Y-86207000D01*
X111551214Y-86207000D01*
X111474250Y-86207000D01*
X111379000Y-86302250D01*
X111379000Y-87061000D01*
X111912750Y-87061000D01*
X112008000Y-86965750D01*
X112008000Y-87249000D01*
X111125000Y-87249000D01*
X111125000Y-87061000D01*
X111125000Y-86302250D01*
X111029750Y-86207000D01*
X110952786Y-86207000D01*
X110801215Y-86207000D01*
X110661181Y-86265004D01*
X110554004Y-86372180D01*
X110496000Y-86512214D01*
X110496000Y-86965750D01*
X110591250Y-87061000D01*
X111125000Y-87061000D01*
X111125000Y-87249000D01*
X109093000Y-87249000D01*
X109093000Y-91313000D01*
X103785000Y-91313000D01*
X103785000Y-87064785D01*
X103785000Y-86913214D01*
X103785000Y-86836250D01*
X103785000Y-86391750D01*
X103785000Y-86314786D01*
X103785000Y-86163215D01*
X103785000Y-85286785D01*
X103785000Y-85135214D01*
X103785000Y-85058250D01*
X103785000Y-84613750D01*
X103785000Y-84536786D01*
X103785000Y-84385215D01*
X103726996Y-84245181D01*
X103619820Y-84138004D01*
X103479786Y-84080000D01*
X103026250Y-84080000D01*
X102931000Y-84175250D01*
X102931000Y-84709000D01*
X103689750Y-84709000D01*
X103785000Y-84613750D01*
X103785000Y-85058250D01*
X103689750Y-84963000D01*
X102931000Y-84963000D01*
X102931000Y-85496750D01*
X103026250Y-85592000D01*
X103479786Y-85592000D01*
X103619820Y-85533996D01*
X103726996Y-85426819D01*
X103785000Y-85286785D01*
X103785000Y-86163215D01*
X103726996Y-86023181D01*
X103619820Y-85916004D01*
X103479786Y-85858000D01*
X103026250Y-85858000D01*
X102931000Y-85953250D01*
X102931000Y-86487000D01*
X103689750Y-86487000D01*
X103785000Y-86391750D01*
X103785000Y-86836250D01*
X103689750Y-86741000D01*
X102931000Y-86741000D01*
X102931000Y-87274750D01*
X103026250Y-87370000D01*
X103479786Y-87370000D01*
X103619820Y-87311996D01*
X103726996Y-87204819D01*
X103785000Y-87064785D01*
X103785000Y-91313000D01*
X102997000Y-91313000D01*
X102997000Y-89027000D01*
X102235000Y-89027000D01*
X102235000Y-87370000D01*
X102581750Y-87370000D01*
X102677000Y-87274750D01*
X102677000Y-86741000D01*
X102657000Y-86741000D01*
X102657000Y-86487000D01*
X102677000Y-86487000D01*
X102677000Y-85953250D01*
X102581750Y-85858000D01*
X102235000Y-85858000D01*
X102235000Y-85592000D01*
X102581750Y-85592000D01*
X102677000Y-85496750D01*
X102677000Y-84963000D01*
X102657000Y-84963000D01*
X102657000Y-84709000D01*
X102677000Y-84709000D01*
X102677000Y-84175250D01*
X102581750Y-84080000D01*
X102235000Y-84080000D01*
X102235000Y-83235000D01*
X132492632Y-83235000D01*
X132183935Y-83543159D01*
X131699552Y-84709683D01*
X131698450Y-85972776D01*
X132180796Y-87140143D01*
X133073159Y-88034065D01*
X134239683Y-88518448D01*
X135420210Y-88519477D01*
X135419931Y-88839663D01*
X135568493Y-89199212D01*
X135843341Y-89474540D01*
X135988858Y-89534964D01*
X135844788Y-89594493D01*
X135569460Y-89869341D01*
X135420270Y-90228630D01*
X135419931Y-90617663D01*
X135568493Y-90977212D01*
X135636000Y-91044836D01*
X135636000Y-91326917D01*
X135569460Y-91393341D01*
X135420270Y-91752630D01*
X135419931Y-92141663D01*
X135568493Y-92501212D01*
X135843341Y-92776540D01*
X136202630Y-92925730D01*
X136591663Y-92926069D01*
X136951212Y-92777507D01*
X137226540Y-92502659D01*
X137237000Y-92477468D01*
X137237000Y-101760191D01*
X137015886Y-101538691D01*
X136286575Y-101235855D01*
X135496889Y-101235166D01*
X134767051Y-101536729D01*
X134208171Y-102094634D01*
X133905335Y-102823945D01*
X133904646Y-103613631D01*
X134206209Y-104343469D01*
X134764114Y-104902349D01*
X135493425Y-105205185D01*
X136283111Y-105205874D01*
X137012949Y-104904311D01*
X137237000Y-104680650D01*
X137237000Y-113759151D01*
X137015886Y-113537651D01*
X136286575Y-113234815D01*
X135496889Y-113234126D01*
X134767051Y-113535689D01*
X134587222Y-113715204D01*
X134587222Y-110213339D01*
X134374990Y-109699697D01*
X133982350Y-109306371D01*
X133774467Y-109220050D01*
X133980283Y-109135010D01*
X134373609Y-108742370D01*
X134586737Y-108229100D01*
X134587222Y-107673339D01*
X134374990Y-107159697D01*
X133982350Y-106766371D01*
X133469080Y-106553243D01*
X132913319Y-106552758D01*
X132399677Y-106764990D01*
X132190469Y-106973832D01*
X131983370Y-106766371D01*
X131470100Y-106553243D01*
X130914339Y-106552758D01*
X130400697Y-106764990D01*
X130007371Y-107157630D01*
X129794243Y-107670900D01*
X129793758Y-108226661D01*
X130005990Y-108740303D01*
X130398630Y-109133629D01*
X130606512Y-109219949D01*
X130400697Y-109304990D01*
X130007371Y-109697630D01*
X129794243Y-110210900D01*
X129793758Y-110766661D01*
X130005990Y-111280303D01*
X130398630Y-111673629D01*
X130911900Y-111886757D01*
X131467661Y-111887242D01*
X131981303Y-111675010D01*
X132190510Y-111466167D01*
X132397610Y-111673629D01*
X132910880Y-111886757D01*
X133466641Y-111887242D01*
X133980283Y-111675010D01*
X134373609Y-111282370D01*
X134586737Y-110769100D01*
X134587222Y-110213339D01*
X134587222Y-113715204D01*
X134208171Y-114093594D01*
X133905335Y-114822905D01*
X133904646Y-115612591D01*
X134206209Y-116342429D01*
X134764114Y-116901309D01*
X135493425Y-117204145D01*
X136283111Y-117204834D01*
X137012949Y-116903271D01*
X137237000Y-116679610D01*
X137237000Y-136048156D01*
X137237000Y-136048156D01*
G37*
X137237000Y-136048156D02*
X137059204Y-135617857D01*
X136166841Y-134723935D01*
X135000317Y-134239552D01*
X133737224Y-134238450D01*
X132569857Y-134720796D01*
X131675935Y-135613159D01*
X131191552Y-136779683D01*
X131190450Y-138042776D01*
X131672796Y-139210143D01*
X132565159Y-140104065D01*
X133000898Y-140285000D01*
X130455000Y-140285000D01*
X130455000Y-130498785D01*
X130455000Y-130347214D01*
X130455000Y-130270250D01*
X130455000Y-129825750D01*
X130455000Y-129748786D01*
X130455000Y-129597215D01*
X130455000Y-127704785D01*
X130455000Y-127553214D01*
X130455000Y-127476250D01*
X130455000Y-127031750D01*
X130455000Y-126954786D01*
X130455000Y-126803215D01*
X130455000Y-124402785D01*
X130455000Y-124251214D01*
X130455000Y-124174250D01*
X130455000Y-123729750D01*
X130455000Y-123652786D01*
X130455000Y-123501215D01*
X130455000Y-121354785D01*
X130455000Y-121203214D01*
X130455000Y-121126250D01*
X130455000Y-120681750D01*
X130455000Y-120604786D01*
X130455000Y-120453215D01*
X130396996Y-120313181D01*
X130289820Y-120206004D01*
X130149786Y-120148000D01*
X129696250Y-120148000D01*
X129601000Y-120243250D01*
X129601000Y-120777000D01*
X130359750Y-120777000D01*
X130455000Y-120681750D01*
X130455000Y-121126250D01*
X130359750Y-121031000D01*
X129601000Y-121031000D01*
X129601000Y-121564750D01*
X129696250Y-121660000D01*
X130149786Y-121660000D01*
X130289820Y-121601996D01*
X130396996Y-121494819D01*
X130455000Y-121354785D01*
X130455000Y-123501215D01*
X130396996Y-123361181D01*
X130289820Y-123254004D01*
X130149786Y-123196000D01*
X129696250Y-123196000D01*
X129601000Y-123291250D01*
X129601000Y-123825000D01*
X130359750Y-123825000D01*
X130455000Y-123729750D01*
X130455000Y-124174250D01*
X130359750Y-124079000D01*
X129601000Y-124079000D01*
X129601000Y-124612750D01*
X129696250Y-124708000D01*
X130149786Y-124708000D01*
X130289820Y-124649996D01*
X130396996Y-124542819D01*
X130455000Y-124402785D01*
X130455000Y-126803215D01*
X130396996Y-126663181D01*
X130289820Y-126556004D01*
X130149786Y-126498000D01*
X129696250Y-126498000D01*
X129601000Y-126593250D01*
X129601000Y-127127000D01*
X130359750Y-127127000D01*
X130455000Y-127031750D01*
X130455000Y-127476250D01*
X130359750Y-127381000D01*
X129601000Y-127381000D01*
X129601000Y-127914750D01*
X129696250Y-128010000D01*
X130149786Y-128010000D01*
X130289820Y-127951996D01*
X130396996Y-127844819D01*
X130455000Y-127704785D01*
X130455000Y-129597215D01*
X130396996Y-129457181D01*
X130289820Y-129350004D01*
X130149786Y-129292000D01*
X129696250Y-129292000D01*
X129601000Y-129387250D01*
X129601000Y-129921000D01*
X130359750Y-129921000D01*
X130455000Y-129825750D01*
X130455000Y-130270250D01*
X130359750Y-130175000D01*
X129601000Y-130175000D01*
X129601000Y-130708750D01*
X129696250Y-130804000D01*
X130149786Y-130804000D01*
X130289820Y-130745996D01*
X130396996Y-130638819D01*
X130455000Y-130498785D01*
X130455000Y-140285000D01*
X127921345Y-140285000D01*
X127921345Y-135382000D01*
X127795670Y-134750190D01*
X127437778Y-134214567D01*
X126902155Y-133856675D01*
X126270345Y-133731000D01*
X126205655Y-133731000D01*
X125573845Y-133856675D01*
X125058150Y-134201251D01*
X125036996Y-134150181D01*
X124929820Y-134043004D01*
X124789786Y-133985000D01*
X123920250Y-133985000D01*
X123825000Y-134080250D01*
X123825000Y-135255000D01*
X123845000Y-135255000D01*
X123845000Y-135509000D01*
X123825000Y-135509000D01*
X123825000Y-136683750D01*
X123920250Y-136779000D01*
X124789786Y-136779000D01*
X124929820Y-136720996D01*
X125036996Y-136613819D01*
X125058150Y-136562748D01*
X125573845Y-136907325D01*
X126205655Y-137033000D01*
X126270345Y-137033000D01*
X126902155Y-136907325D01*
X127437778Y-136549433D01*
X127795670Y-136013810D01*
X127921345Y-135382000D01*
X127921345Y-140285000D01*
X123571000Y-140285000D01*
X123571000Y-136683750D01*
X123571000Y-135509000D01*
X123571000Y-135255000D01*
X123571000Y-134080250D01*
X123475750Y-133985000D01*
X122606214Y-133985000D01*
X122466180Y-134043004D01*
X122359004Y-134150181D01*
X122301000Y-134290215D01*
X122301000Y-134441786D01*
X122301000Y-135159750D01*
X122396250Y-135255000D01*
X123571000Y-135255000D01*
X123571000Y-135509000D01*
X122396250Y-135509000D01*
X122301000Y-135604250D01*
X122301000Y-136322214D01*
X122301000Y-136473785D01*
X122359004Y-136613819D01*
X122466180Y-136720996D01*
X122606214Y-136779000D01*
X123475750Y-136779000D01*
X123571000Y-136683750D01*
X123571000Y-140285000D01*
X116655000Y-140285000D01*
X116655000Y-139697786D01*
X116655000Y-139244250D01*
X116559750Y-139149000D01*
X115951000Y-139149000D01*
X115951000Y-139907750D01*
X116046250Y-140003000D01*
X116198214Y-140003000D01*
X116349785Y-140003000D01*
X116489819Y-139944996D01*
X116596996Y-139837820D01*
X116655000Y-139697786D01*
X116655000Y-140285000D01*
X115697000Y-140285000D01*
X115697000Y-139907750D01*
X115697000Y-139149000D01*
X115088250Y-139149000D01*
X114993000Y-139244250D01*
X114993000Y-139697786D01*
X115051004Y-139837820D01*
X115158181Y-139944996D01*
X115298215Y-140003000D01*
X115449786Y-140003000D01*
X115601750Y-140003000D01*
X115697000Y-139907750D01*
X115697000Y-140285000D01*
X114349000Y-140285000D01*
X114349000Y-139463785D01*
X114349000Y-139312214D01*
X114349000Y-139160250D01*
X114349000Y-138715750D01*
X114349000Y-138563786D01*
X114349000Y-138412215D01*
X114290996Y-138272181D01*
X114183820Y-138165004D01*
X114043786Y-138107000D01*
X113590250Y-138107000D01*
X113495000Y-138202250D01*
X113495000Y-138811000D01*
X114253750Y-138811000D01*
X114349000Y-138715750D01*
X114349000Y-139160250D01*
X114253750Y-139065000D01*
X113495000Y-139065000D01*
X113495000Y-139673750D01*
X113590250Y-139769000D01*
X114043786Y-139769000D01*
X114183820Y-139710996D01*
X114290996Y-139603819D01*
X114349000Y-139463785D01*
X114349000Y-140285000D01*
X112395000Y-140285000D01*
X112395000Y-139489924D01*
X112395922Y-139485325D01*
X112445004Y-139603819D01*
X112552180Y-139710996D01*
X112692214Y-139769000D01*
X113145750Y-139769000D01*
X113241000Y-139673750D01*
X113241000Y-139065000D01*
X113221000Y-139065000D01*
X113221000Y-138811000D01*
X113241000Y-138811000D01*
X113241000Y-138202250D01*
X113145750Y-138107000D01*
X112692214Y-138107000D01*
X112552180Y-138165004D01*
X112445004Y-138272181D01*
X112396354Y-138389631D01*
X112395000Y-138382650D01*
X112395000Y-138049000D01*
X115272075Y-138049000D01*
X115276674Y-138049922D01*
X115158181Y-138099004D01*
X115051004Y-138206180D01*
X114993000Y-138346214D01*
X114993000Y-138799750D01*
X115088250Y-138895000D01*
X115697000Y-138895000D01*
X115697000Y-138875000D01*
X115951000Y-138875000D01*
X115951000Y-138895000D01*
X116559750Y-138895000D01*
X116655000Y-138799750D01*
X116655000Y-138346214D01*
X116596996Y-138206180D01*
X116489819Y-138099004D01*
X116372368Y-138050354D01*
X116379349Y-138049000D01*
X121285000Y-138049000D01*
X121285000Y-132969000D01*
X128905000Y-132969000D01*
X128905000Y-130804000D01*
X129251750Y-130804000D01*
X129347000Y-130708750D01*
X129347000Y-130175000D01*
X129327000Y-130175000D01*
X129327000Y-129921000D01*
X129347000Y-129921000D01*
X129347000Y-129387250D01*
X129251750Y-129292000D01*
X128905000Y-129292000D01*
X128905000Y-128010000D01*
X129251750Y-128010000D01*
X129347000Y-127914750D01*
X129347000Y-127381000D01*
X129327000Y-127381000D01*
X129327000Y-127127000D01*
X129347000Y-127127000D01*
X129347000Y-126593250D01*
X129251750Y-126498000D01*
X128905000Y-126498000D01*
X128905000Y-124708000D01*
X129251750Y-124708000D01*
X129347000Y-124612750D01*
X129347000Y-124079000D01*
X129327000Y-124079000D01*
X129327000Y-123825000D01*
X129347000Y-123825000D01*
X129347000Y-123291250D01*
X129251750Y-123196000D01*
X128905000Y-123196000D01*
X128905000Y-121660000D01*
X129251750Y-121660000D01*
X129347000Y-121564750D01*
X129347000Y-121031000D01*
X129327000Y-121031000D01*
X129327000Y-120777000D01*
X129347000Y-120777000D01*
X129347000Y-120243250D01*
X129251750Y-120148000D01*
X128905000Y-120148000D01*
X128905000Y-87249000D01*
X116072000Y-87249000D01*
X116072000Y-86965750D01*
X116072000Y-86512214D01*
X116013996Y-86372180D01*
X115906819Y-86265004D01*
X115766785Y-86207000D01*
X115615214Y-86207000D01*
X115538250Y-86207000D01*
X115443000Y-86302250D01*
X115443000Y-87061000D01*
X115976750Y-87061000D01*
X116072000Y-86965750D01*
X116072000Y-87249000D01*
X115189000Y-87249000D01*
X115189000Y-87061000D01*
X115189000Y-86302250D01*
X115093750Y-86207000D01*
X115016786Y-86207000D01*
X114865215Y-86207000D01*
X114725181Y-86265004D01*
X114618004Y-86372180D01*
X114560000Y-86512214D01*
X114560000Y-86965750D01*
X114655250Y-87061000D01*
X115189000Y-87061000D01*
X115189000Y-87249000D01*
X112008000Y-87249000D01*
X112008000Y-86965750D01*
X112008000Y-86512214D01*
X111949996Y-86372180D01*
X111842819Y-86265004D01*
X111702785Y-86207000D01*
X111551214Y-86207000D01*
X111474250Y-86207000D01*
X111379000Y-86302250D01*
X111379000Y-87061000D01*
X111912750Y-87061000D01*
X112008000Y-86965750D01*
X112008000Y-87249000D01*
X111125000Y-87249000D01*
X111125000Y-87061000D01*
X111125000Y-86302250D01*
X111029750Y-86207000D01*
X110952786Y-86207000D01*
X110801215Y-86207000D01*
X110661181Y-86265004D01*
X110554004Y-86372180D01*
X110496000Y-86512214D01*
X110496000Y-86965750D01*
X110591250Y-87061000D01*
X111125000Y-87061000D01*
X111125000Y-87249000D01*
X109093000Y-87249000D01*
X109093000Y-91313000D01*
X103785000Y-91313000D01*
X103785000Y-87064785D01*
X103785000Y-86913214D01*
X103785000Y-86836250D01*
X103785000Y-86391750D01*
X103785000Y-86314786D01*
X103785000Y-86163215D01*
X103785000Y-85286785D01*
X103785000Y-85135214D01*
X103785000Y-85058250D01*
X103785000Y-84613750D01*
X103785000Y-84536786D01*
X103785000Y-84385215D01*
X103726996Y-84245181D01*
X103619820Y-84138004D01*
X103479786Y-84080000D01*
X103026250Y-84080000D01*
X102931000Y-84175250D01*
X102931000Y-84709000D01*
X103689750Y-84709000D01*
X103785000Y-84613750D01*
X103785000Y-85058250D01*
X103689750Y-84963000D01*
X102931000Y-84963000D01*
X102931000Y-85496750D01*
X103026250Y-85592000D01*
X103479786Y-85592000D01*
X103619820Y-85533996D01*
X103726996Y-85426819D01*
X103785000Y-85286785D01*
X103785000Y-86163215D01*
X103726996Y-86023181D01*
X103619820Y-85916004D01*
X103479786Y-85858000D01*
X103026250Y-85858000D01*
X102931000Y-85953250D01*
X102931000Y-86487000D01*
X103689750Y-86487000D01*
X103785000Y-86391750D01*
X103785000Y-86836250D01*
X103689750Y-86741000D01*
X102931000Y-86741000D01*
X102931000Y-87274750D01*
X103026250Y-87370000D01*
X103479786Y-87370000D01*
X103619820Y-87311996D01*
X103726996Y-87204819D01*
X103785000Y-87064785D01*
X103785000Y-91313000D01*
X102997000Y-91313000D01*
X102997000Y-89027000D01*
X102235000Y-89027000D01*
X102235000Y-87370000D01*
X102581750Y-87370000D01*
X102677000Y-87274750D01*
X102677000Y-86741000D01*
X102657000Y-86741000D01*
X102657000Y-86487000D01*
X102677000Y-86487000D01*
X102677000Y-85953250D01*
X102581750Y-85858000D01*
X102235000Y-85858000D01*
X102235000Y-85592000D01*
X102581750Y-85592000D01*
X102677000Y-85496750D01*
X102677000Y-84963000D01*
X102657000Y-84963000D01*
X102657000Y-84709000D01*
X102677000Y-84709000D01*
X102677000Y-84175250D01*
X102581750Y-84080000D01*
X102235000Y-84080000D01*
X102235000Y-83235000D01*
X132492632Y-83235000D01*
X132183935Y-83543159D01*
X131699552Y-84709683D01*
X131698450Y-85972776D01*
X132180796Y-87140143D01*
X133073159Y-88034065D01*
X134239683Y-88518448D01*
X135420210Y-88519477D01*
X135419931Y-88839663D01*
X135568493Y-89199212D01*
X135843341Y-89474540D01*
X135988858Y-89534964D01*
X135844788Y-89594493D01*
X135569460Y-89869341D01*
X135420270Y-90228630D01*
X135419931Y-90617663D01*
X135568493Y-90977212D01*
X135636000Y-91044836D01*
X135636000Y-91326917D01*
X135569460Y-91393341D01*
X135420270Y-91752630D01*
X135419931Y-92141663D01*
X135568493Y-92501212D01*
X135843341Y-92776540D01*
X136202630Y-92925730D01*
X136591663Y-92926069D01*
X136951212Y-92777507D01*
X137226540Y-92502659D01*
X137237000Y-92477468D01*
X137237000Y-101760191D01*
X137015886Y-101538691D01*
X136286575Y-101235855D01*
X135496889Y-101235166D01*
X134767051Y-101536729D01*
X134208171Y-102094634D01*
X133905335Y-102823945D01*
X133904646Y-103613631D01*
X134206209Y-104343469D01*
X134764114Y-104902349D01*
X135493425Y-105205185D01*
X136283111Y-105205874D01*
X137012949Y-104904311D01*
X137237000Y-104680650D01*
X137237000Y-113759151D01*
X137015886Y-113537651D01*
X136286575Y-113234815D01*
X135496889Y-113234126D01*
X134767051Y-113535689D01*
X134587222Y-113715204D01*
X134587222Y-110213339D01*
X134374990Y-109699697D01*
X133982350Y-109306371D01*
X133774467Y-109220050D01*
X133980283Y-109135010D01*
X134373609Y-108742370D01*
X134586737Y-108229100D01*
X134587222Y-107673339D01*
X134374990Y-107159697D01*
X133982350Y-106766371D01*
X133469080Y-106553243D01*
X132913319Y-106552758D01*
X132399677Y-106764990D01*
X132190469Y-106973832D01*
X131983370Y-106766371D01*
X131470100Y-106553243D01*
X130914339Y-106552758D01*
X130400697Y-106764990D01*
X130007371Y-107157630D01*
X129794243Y-107670900D01*
X129793758Y-108226661D01*
X130005990Y-108740303D01*
X130398630Y-109133629D01*
X130606512Y-109219949D01*
X130400697Y-109304990D01*
X130007371Y-109697630D01*
X129794243Y-110210900D01*
X129793758Y-110766661D01*
X130005990Y-111280303D01*
X130398630Y-111673629D01*
X130911900Y-111886757D01*
X131467661Y-111887242D01*
X131981303Y-111675010D01*
X132190510Y-111466167D01*
X132397610Y-111673629D01*
X132910880Y-111886757D01*
X133466641Y-111887242D01*
X133980283Y-111675010D01*
X134373609Y-111282370D01*
X134586737Y-110769100D01*
X134587222Y-110213339D01*
X134587222Y-113715204D01*
X134208171Y-114093594D01*
X133905335Y-114822905D01*
X133904646Y-115612591D01*
X134206209Y-116342429D01*
X134764114Y-116901309D01*
X135493425Y-117204145D01*
X136283111Y-117204834D01*
X137012949Y-116903271D01*
X137237000Y-116679610D01*
X137237000Y-136048156D01*
M02*
