G04 #@! TF.FileFunction,Copper,L3,Inr,Plane*
%FSLAX46Y46*%
G04 Gerber Fmt 4.6, Leading zero omitted, Abs format (unit mm)*
G04 Created by KiCad (PCBNEW (2015-02-20 BZR 5437)-product) date Friday, March 13, 2015 'PMt' 12:32:41 PM*
%MOMM*%
G01*
G04 APERTURE LIST*
%ADD10C,0.100000*%
%ADD11C,0.150000*%
%ADD12C,0.300000*%
%ADD13C,0.400000*%
%ADD14R,1.727200X2.032000*%
%ADD15O,1.727200X2.032000*%
%ADD16C,5.080000*%
%ADD17C,1.524000*%
%ADD18C,2.700020*%
%ADD19R,3.500120X3.500120*%
%ADD20R,2.032000X2.032000*%
%ADD21O,2.032000X2.032000*%
%ADD22C,0.685800*%
%ADD23C,0.889000*%
%ADD24C,0.254000*%
G04 APERTURE END LIST*
D10*
D11*
X177002200Y-166007200D02*
X177002200Y-198007200D01*
X285002200Y-198007200D01*
X285002200Y-166007200D01*
X177002200Y-166007200D01*
D10*
D11*
X10000000Y-10000000D02*
X10000000Y-200007200D01*
X287002200Y-200007200D01*
X287002200Y-10000000D01*
X10000000Y-10000000D01*
D10*
D11*
X12000000Y-12000000D02*
X12000000Y-198007200D01*
X285002200Y-198007200D01*
X285002200Y-12000000D01*
X12000000Y-12000000D01*
D10*
D11*
X60000000Y-12000000D02*
X60000000Y-10000000D01*
D10*
D11*
X110000000Y-12000000D02*
X110000000Y-10000000D01*
D10*
D11*
X160000000Y-12000000D02*
X160000000Y-10000000D01*
D10*
D11*
X210000000Y-12000000D02*
X210000000Y-10000000D01*
D10*
D11*
X260000000Y-12000000D02*
X260000000Y-10000000D01*
D10*
D11*
X35990476Y-11588095D02*
X35247619Y-11588095D01*
X35619048Y-11588095D02*
X35619048Y-10288095D01*
X35495238Y-10473810D01*
X35371429Y-10597619D01*
X35247619Y-10659524D01*
D10*
D11*
X85247619Y-10411905D02*
X85309524Y-10350000D01*
X85433333Y-10288095D01*
X85742857Y-10288095D01*
X85866667Y-10350000D01*
X85928571Y-10411905D01*
X85990476Y-10535714D01*
X85990476Y-10659524D01*
X85928571Y-10845238D01*
X85185714Y-11588095D01*
X85990476Y-11588095D01*
D10*
D11*
X135185714Y-10288095D02*
X135990476Y-10288095D01*
X135557143Y-10783333D01*
X135742857Y-10783333D01*
X135866667Y-10845238D01*
X135928571Y-10907143D01*
X135990476Y-11030952D01*
X135990476Y-11340476D01*
X135928571Y-11464286D01*
X135866667Y-11526190D01*
X135742857Y-11588095D01*
X135371429Y-11588095D01*
X135247619Y-11526190D01*
X135185714Y-11464286D01*
D10*
D11*
X185866667Y-10721429D02*
X185866667Y-11588095D01*
X185557143Y-10226190D02*
X185247619Y-11154762D01*
X186052381Y-11154762D01*
D10*
D11*
X235928571Y-10288095D02*
X235309524Y-10288095D01*
X235247619Y-10907143D01*
X235309524Y-10845238D01*
X235433333Y-10783333D01*
X235742857Y-10783333D01*
X235866667Y-10845238D01*
X235928571Y-10907143D01*
X235990476Y-11030952D01*
X235990476Y-11340476D01*
X235928571Y-11464286D01*
X235866667Y-11526190D01*
X235742857Y-11588095D01*
X235433333Y-11588095D01*
X235309524Y-11526190D01*
X235247619Y-11464286D01*
D10*
D11*
X285866667Y-10288095D02*
X285619048Y-10288095D01*
X285495238Y-10350000D01*
X285433333Y-10411905D01*
X285309524Y-10597619D01*
X285247619Y-10845238D01*
X285247619Y-11340476D01*
X285309524Y-11464286D01*
X285371429Y-11526190D01*
X285495238Y-11588095D01*
X285742857Y-11588095D01*
X285866667Y-11526190D01*
X285928571Y-11464286D01*
X285990476Y-11340476D01*
X285990476Y-11030952D01*
X285928571Y-10907143D01*
X285866667Y-10845238D01*
X285742857Y-10783333D01*
X285495238Y-10783333D01*
X285371429Y-10845238D01*
X285309524Y-10907143D01*
X285247619Y-11030952D01*
D10*
D11*
X60000000Y-198007200D02*
X60000000Y-200007200D01*
D10*
D11*
X110000000Y-198007200D02*
X110000000Y-200007200D01*
D10*
D11*
X160000000Y-198007200D02*
X160000000Y-200007200D01*
D10*
D11*
X210000000Y-198007200D02*
X210000000Y-200007200D01*
D10*
D11*
X260000000Y-198007200D02*
X260000000Y-200007200D01*
D10*
D11*
X35990476Y-199595295D02*
X35247619Y-199595295D01*
X35619048Y-199595295D02*
X35619048Y-198295295D01*
X35495238Y-198481010D01*
X35371429Y-198604819D01*
X35247619Y-198666724D01*
D10*
D11*
X85247619Y-198419105D02*
X85309524Y-198357200D01*
X85433333Y-198295295D01*
X85742857Y-198295295D01*
X85866667Y-198357200D01*
X85928571Y-198419105D01*
X85990476Y-198542914D01*
X85990476Y-198666724D01*
X85928571Y-198852438D01*
X85185714Y-199595295D01*
X85990476Y-199595295D01*
D10*
D11*
X135185714Y-198295295D02*
X135990476Y-198295295D01*
X135557143Y-198790533D01*
X135742857Y-198790533D01*
X135866667Y-198852438D01*
X135928571Y-198914343D01*
X135990476Y-199038152D01*
X135990476Y-199347676D01*
X135928571Y-199471486D01*
X135866667Y-199533390D01*
X135742857Y-199595295D01*
X135371429Y-199595295D01*
X135247619Y-199533390D01*
X135185714Y-199471486D01*
D10*
D11*
X185866667Y-198728629D02*
X185866667Y-199595295D01*
X185557143Y-198233390D02*
X185247619Y-199161962D01*
X186052381Y-199161962D01*
D10*
D11*
X235928571Y-198295295D02*
X235309524Y-198295295D01*
X235247619Y-198914343D01*
X235309524Y-198852438D01*
X235433333Y-198790533D01*
X235742857Y-198790533D01*
X235866667Y-198852438D01*
X235928571Y-198914343D01*
X235990476Y-199038152D01*
X235990476Y-199347676D01*
X235928571Y-199471486D01*
X235866667Y-199533390D01*
X235742857Y-199595295D01*
X235433333Y-199595295D01*
X235309524Y-199533390D01*
X235247619Y-199471486D01*
D10*
D11*
X285866667Y-198295295D02*
X285619048Y-198295295D01*
X285495238Y-198357200D01*
X285433333Y-198419105D01*
X285309524Y-198604819D01*
X285247619Y-198852438D01*
X285247619Y-199347676D01*
X285309524Y-199471486D01*
X285371429Y-199533390D01*
X285495238Y-199595295D01*
X285742857Y-199595295D01*
X285866667Y-199533390D01*
X285928571Y-199471486D01*
X285990476Y-199347676D01*
X285990476Y-199038152D01*
X285928571Y-198914343D01*
X285866667Y-198852438D01*
X285742857Y-198790533D01*
X285495238Y-198790533D01*
X285371429Y-198852438D01*
X285309524Y-198914343D01*
X285247619Y-199038152D01*
D10*
D11*
X10000000Y-60000000D02*
X12000000Y-60000000D01*
D10*
D11*
X10000000Y-110000000D02*
X12000000Y-110000000D01*
D10*
D11*
X10000000Y-160000000D02*
X12000000Y-160000000D01*
D10*
D11*
X10690476Y-35216667D02*
X11309524Y-35216667D01*
X10566667Y-35588095D02*
X11000000Y-34288095D01*
X11433333Y-35588095D01*
D10*
D11*
X11092857Y-84907143D02*
X11278571Y-84969048D01*
X11340476Y-85030952D01*
X11402381Y-85154762D01*
X11402381Y-85340476D01*
X11340476Y-85464286D01*
X11278571Y-85526190D01*
X11154762Y-85588095D01*
X10659524Y-85588095D01*
X10659524Y-84288095D01*
X11092857Y-84288095D01*
X11216667Y-84350000D01*
X11278571Y-84411905D01*
X11340476Y-84535714D01*
X11340476Y-84659524D01*
X11278571Y-84783333D01*
X11216667Y-84845238D01*
X11092857Y-84907143D01*
X10659524Y-84907143D01*
D10*
D11*
X11402381Y-135464286D02*
X11340476Y-135526190D01*
X11154762Y-135588095D01*
X11030952Y-135588095D01*
X10845238Y-135526190D01*
X10721429Y-135402381D01*
X10659524Y-135278571D01*
X10597619Y-135030952D01*
X10597619Y-134845238D01*
X10659524Y-134597619D01*
X10721429Y-134473810D01*
X10845238Y-134350000D01*
X11030952Y-134288095D01*
X11154762Y-134288095D01*
X11340476Y-134350000D01*
X11402381Y-134411905D01*
D10*
D11*
X10659524Y-185588095D02*
X10659524Y-184288095D01*
X10969048Y-184288095D01*
X11154762Y-184350000D01*
X11278571Y-184473810D01*
X11340476Y-184597619D01*
X11402381Y-184845238D01*
X11402381Y-185030952D01*
X11340476Y-185278571D01*
X11278571Y-185402381D01*
X11154762Y-185526190D01*
X10969048Y-185588095D01*
X10659524Y-185588095D01*
D10*
D11*
X287002200Y-60000000D02*
X285002200Y-60000000D01*
D10*
D11*
X287002200Y-110000000D02*
X285002200Y-110000000D01*
D10*
D11*
X287002200Y-160000000D02*
X285002200Y-160000000D01*
D10*
D11*
X285692676Y-35216667D02*
X286311724Y-35216667D01*
X285568867Y-35588095D02*
X286002200Y-34288095D01*
X286435533Y-35588095D01*
D10*
D11*
X286095057Y-84907143D02*
X286280771Y-84969048D01*
X286342676Y-85030952D01*
X286404581Y-85154762D01*
X286404581Y-85340476D01*
X286342676Y-85464286D01*
X286280771Y-85526190D01*
X286156962Y-85588095D01*
X285661724Y-85588095D01*
X285661724Y-84288095D01*
X286095057Y-84288095D01*
X286218867Y-84350000D01*
X286280771Y-84411905D01*
X286342676Y-84535714D01*
X286342676Y-84659524D01*
X286280771Y-84783333D01*
X286218867Y-84845238D01*
X286095057Y-84907143D01*
X285661724Y-84907143D01*
D10*
D11*
X286404581Y-135464286D02*
X286342676Y-135526190D01*
X286156962Y-135588095D01*
X286033152Y-135588095D01*
X285847438Y-135526190D01*
X285723629Y-135402381D01*
X285661724Y-135278571D01*
X285599819Y-135030952D01*
X285599819Y-134845238D01*
X285661724Y-134597619D01*
X285723629Y-134473810D01*
X285847438Y-134350000D01*
X286033152Y-134288095D01*
X286156962Y-134288095D01*
X286342676Y-134350000D01*
X286404581Y-134411905D01*
D10*
D11*
X285661724Y-185588095D02*
X285661724Y-184288095D01*
X285971248Y-184288095D01*
X286156962Y-184350000D01*
X286280771Y-184473810D01*
X286342676Y-184597619D01*
X286404581Y-184845238D01*
X286404581Y-185030952D01*
X286342676Y-185278571D01*
X286280771Y-185402381D01*
X286156962Y-185526190D01*
X285971248Y-185588095D01*
X285661724Y-185588095D01*
D10*
D11*
X200359343Y-193785771D02*
X200359343Y-192285771D01*
X200716486Y-192285771D01*
X200930771Y-192357200D01*
X201073629Y-192500057D01*
X201145057Y-192642914D01*
X201216486Y-192928629D01*
X201216486Y-193142914D01*
X201145057Y-193428629D01*
X201073629Y-193571486D01*
X200930771Y-193714343D01*
X200716486Y-193785771D01*
X200359343Y-193785771D01*
X202502200Y-193785771D02*
X202502200Y-193000057D01*
X202430771Y-192857200D01*
X202287914Y-192785771D01*
X202002200Y-192785771D01*
X201859343Y-192857200D01*
X202502200Y-193714343D02*
X202359343Y-193785771D01*
X202002200Y-193785771D01*
X201859343Y-193714343D01*
X201787914Y-193571486D01*
X201787914Y-193428629D01*
X201859343Y-193285771D01*
X202002200Y-193214343D01*
X202359343Y-193214343D01*
X202502200Y-193142914D01*
X203002200Y-192785771D02*
X203573629Y-192785771D01*
X203216486Y-192285771D02*
X203216486Y-193571486D01*
X203287914Y-193714343D01*
X203430772Y-193785771D01*
X203573629Y-193785771D01*
X204645057Y-193714343D02*
X204502200Y-193785771D01*
X204216486Y-193785771D01*
X204073629Y-193714343D01*
X204002200Y-193571486D01*
X204002200Y-193000057D01*
X204073629Y-192857200D01*
X204216486Y-192785771D01*
X204502200Y-192785771D01*
X204645057Y-192857200D01*
X204716486Y-193000057D01*
X204716486Y-193142914D01*
X204002200Y-193285771D01*
X205359343Y-193642914D02*
X205430771Y-193714343D01*
X205359343Y-193785771D01*
X205287914Y-193714343D01*
X205359343Y-193642914D01*
X205359343Y-193785771D01*
X205359343Y-192857200D02*
X205430771Y-192928629D01*
X205359343Y-193000057D01*
X205287914Y-192928629D01*
X205359343Y-192857200D01*
X205359343Y-193000057D01*
D10*
D11*
X177002200Y-194507200D02*
X285002200Y-194507200D01*
D10*
D11*
X178359343Y-196585771D02*
X178359343Y-195085771D01*
X179216486Y-196585771D02*
X178573629Y-195728629D01*
X179216486Y-195085771D02*
X178359343Y-195942914D01*
X179859343Y-196585771D02*
X179859343Y-195585771D01*
X179859343Y-195085771D02*
X179787914Y-195157200D01*
X179859343Y-195228629D01*
X179930771Y-195157200D01*
X179859343Y-195085771D01*
X179859343Y-195228629D01*
X181430772Y-196442914D02*
X181359343Y-196514343D01*
X181145057Y-196585771D01*
X181002200Y-196585771D01*
X180787915Y-196514343D01*
X180645057Y-196371486D01*
X180573629Y-196228629D01*
X180502200Y-195942914D01*
X180502200Y-195728629D01*
X180573629Y-195442914D01*
X180645057Y-195300057D01*
X180787915Y-195157200D01*
X181002200Y-195085771D01*
X181145057Y-195085771D01*
X181359343Y-195157200D01*
X181430772Y-195228629D01*
X182716486Y-196585771D02*
X182716486Y-195800057D01*
X182645057Y-195657200D01*
X182502200Y-195585771D01*
X182216486Y-195585771D01*
X182073629Y-195657200D01*
X182716486Y-196514343D02*
X182573629Y-196585771D01*
X182216486Y-196585771D01*
X182073629Y-196514343D01*
X182002200Y-196371486D01*
X182002200Y-196228629D01*
X182073629Y-196085771D01*
X182216486Y-196014343D01*
X182573629Y-196014343D01*
X182716486Y-195942914D01*
X184073629Y-196585771D02*
X184073629Y-195085771D01*
X184073629Y-196514343D02*
X183930772Y-196585771D01*
X183645058Y-196585771D01*
X183502200Y-196514343D01*
X183430772Y-196442914D01*
X183359343Y-196300057D01*
X183359343Y-195871486D01*
X183430772Y-195728629D01*
X183502200Y-195657200D01*
X183645058Y-195585771D01*
X183930772Y-195585771D01*
X184073629Y-195657200D01*
X185930772Y-195800057D02*
X186430772Y-195800057D01*
X186645058Y-196585771D02*
X185930772Y-196585771D01*
X185930772Y-195085771D01*
X186645058Y-195085771D01*
X187287915Y-196442914D02*
X187359343Y-196514343D01*
X187287915Y-196585771D01*
X187216486Y-196514343D01*
X187287915Y-196442914D01*
X187287915Y-196585771D01*
X188002201Y-196585771D02*
X188002201Y-195085771D01*
X188359344Y-195085771D01*
X188573629Y-195157200D01*
X188716487Y-195300057D01*
X188787915Y-195442914D01*
X188859344Y-195728629D01*
X188859344Y-195942914D01*
X188787915Y-196228629D01*
X188716487Y-196371486D01*
X188573629Y-196514343D01*
X188359344Y-196585771D01*
X188002201Y-196585771D01*
X189502201Y-196442914D02*
X189573629Y-196514343D01*
X189502201Y-196585771D01*
X189430772Y-196514343D01*
X189502201Y-196442914D01*
X189502201Y-196585771D01*
X190145058Y-196157200D02*
X190859344Y-196157200D01*
X190002201Y-196585771D02*
X190502201Y-195085771D01*
X191002201Y-196585771D01*
X191502201Y-196442914D02*
X191573629Y-196514343D01*
X191502201Y-196585771D01*
X191430772Y-196514343D01*
X191502201Y-196442914D01*
X191502201Y-196585771D01*
X194502201Y-195585771D02*
X194502201Y-197085771D01*
X194502201Y-195657200D02*
X194645058Y-195585771D01*
X194930772Y-195585771D01*
X195073629Y-195657200D01*
X195145058Y-195728629D01*
X195216487Y-195871486D01*
X195216487Y-196300057D01*
X195145058Y-196442914D01*
X195073629Y-196514343D01*
X194930772Y-196585771D01*
X194645058Y-196585771D01*
X194502201Y-196514343D01*
X196502201Y-196514343D02*
X196359344Y-196585771D01*
X196073630Y-196585771D01*
X195930772Y-196514343D01*
X195859344Y-196442914D01*
X195787915Y-196300057D01*
X195787915Y-195871486D01*
X195859344Y-195728629D01*
X195930772Y-195657200D01*
X196073630Y-195585771D01*
X196359344Y-195585771D01*
X196502201Y-195657200D01*
X197145058Y-196585771D02*
X197145058Y-195085771D01*
X197145058Y-195657200D02*
X197287915Y-195585771D01*
X197573629Y-195585771D01*
X197716486Y-195657200D01*
X197787915Y-195728629D01*
X197859344Y-195871486D01*
X197859344Y-196300057D01*
X197787915Y-196442914D01*
X197716486Y-196514343D01*
X197573629Y-196585771D01*
X197287915Y-196585771D01*
X197145058Y-196514343D01*
X198502201Y-195585771D02*
X198502201Y-196585771D01*
X198502201Y-195728629D02*
X198573629Y-195657200D01*
X198716487Y-195585771D01*
X198930772Y-195585771D01*
X199073629Y-195657200D01*
X199145058Y-195800057D01*
X199145058Y-196585771D01*
X200430772Y-196514343D02*
X200287915Y-196585771D01*
X200002201Y-196585771D01*
X199859344Y-196514343D01*
X199787915Y-196371486D01*
X199787915Y-195800057D01*
X199859344Y-195657200D01*
X200002201Y-195585771D01*
X200287915Y-195585771D01*
X200430772Y-195657200D01*
X200502201Y-195800057D01*
X200502201Y-195942914D01*
X199787915Y-196085771D01*
X201002201Y-195585771D02*
X201287915Y-196585771D01*
X201573629Y-195871486D01*
X201859344Y-196585771D01*
X202145058Y-195585771D01*
X204287915Y-197157200D02*
X204216487Y-197085771D01*
X204073630Y-196871486D01*
X204002201Y-196728629D01*
X203930772Y-196514343D01*
X203859344Y-196157200D01*
X203859344Y-195871486D01*
X203930772Y-195514343D01*
X204002201Y-195300057D01*
X204073630Y-195157200D01*
X204216487Y-194942914D01*
X204287915Y-194871486D01*
X204787915Y-195228629D02*
X204859344Y-195157200D01*
X205002201Y-195085771D01*
X205359344Y-195085771D01*
X205502201Y-195157200D01*
X205573630Y-195228629D01*
X205645058Y-195371486D01*
X205645058Y-195514343D01*
X205573630Y-195728629D01*
X204716487Y-196585771D01*
X205645058Y-196585771D01*
X206573629Y-195085771D02*
X206716486Y-195085771D01*
X206859343Y-195157200D01*
X206930772Y-195228629D01*
X207002201Y-195371486D01*
X207073629Y-195657200D01*
X207073629Y-196014343D01*
X207002201Y-196300057D01*
X206930772Y-196442914D01*
X206859343Y-196514343D01*
X206716486Y-196585771D01*
X206573629Y-196585771D01*
X206430772Y-196514343D01*
X206359343Y-196442914D01*
X206287915Y-196300057D01*
X206216486Y-196014343D01*
X206216486Y-195657200D01*
X206287915Y-195371486D01*
X206359343Y-195228629D01*
X206430772Y-195157200D01*
X206573629Y-195085771D01*
X208502200Y-196585771D02*
X207645057Y-196585771D01*
X208073629Y-196585771D02*
X208073629Y-195085771D01*
X207930772Y-195300057D01*
X207787914Y-195442914D01*
X207645057Y-195514343D01*
X209859343Y-195085771D02*
X209145057Y-195085771D01*
X209073628Y-195800057D01*
X209145057Y-195728629D01*
X209287914Y-195657200D01*
X209645057Y-195657200D01*
X209787914Y-195728629D01*
X209859343Y-195800057D01*
X209930771Y-195942914D01*
X209930771Y-196300057D01*
X209859343Y-196442914D01*
X209787914Y-196514343D01*
X209645057Y-196585771D01*
X209287914Y-196585771D01*
X209145057Y-196514343D01*
X209073628Y-196442914D01*
X210573628Y-196014343D02*
X211716485Y-196014343D01*
X212716485Y-195085771D02*
X212859342Y-195085771D01*
X213002199Y-195157200D01*
X213073628Y-195228629D01*
X213145057Y-195371486D01*
X213216485Y-195657200D01*
X213216485Y-196014343D01*
X213145057Y-196300057D01*
X213073628Y-196442914D01*
X213002199Y-196514343D01*
X212859342Y-196585771D01*
X212716485Y-196585771D01*
X212573628Y-196514343D01*
X212502199Y-196442914D01*
X212430771Y-196300057D01*
X212359342Y-196014343D01*
X212359342Y-195657200D01*
X212430771Y-195371486D01*
X212502199Y-195228629D01*
X212573628Y-195157200D01*
X212716485Y-195085771D01*
X213787913Y-195228629D02*
X213859342Y-195157200D01*
X214002199Y-195085771D01*
X214359342Y-195085771D01*
X214502199Y-195157200D01*
X214573628Y-195228629D01*
X214645056Y-195371486D01*
X214645056Y-195514343D01*
X214573628Y-195728629D01*
X213716485Y-196585771D01*
X214645056Y-196585771D01*
X215287913Y-196014343D02*
X216430770Y-196014343D01*
X217073627Y-195228629D02*
X217145056Y-195157200D01*
X217287913Y-195085771D01*
X217645056Y-195085771D01*
X217787913Y-195157200D01*
X217859342Y-195228629D01*
X217930770Y-195371486D01*
X217930770Y-195514343D01*
X217859342Y-195728629D01*
X217002199Y-196585771D01*
X217930770Y-196585771D01*
X218859341Y-195085771D02*
X219002198Y-195085771D01*
X219145055Y-195157200D01*
X219216484Y-195228629D01*
X219287913Y-195371486D01*
X219359341Y-195657200D01*
X219359341Y-196014343D01*
X219287913Y-196300057D01*
X219216484Y-196442914D01*
X219145055Y-196514343D01*
X219002198Y-196585771D01*
X218859341Y-196585771D01*
X218716484Y-196514343D01*
X218645055Y-196442914D01*
X218573627Y-196300057D01*
X218502198Y-196014343D01*
X218502198Y-195657200D01*
X218573627Y-195371486D01*
X218645055Y-195228629D01*
X218716484Y-195157200D01*
X218859341Y-195085771D01*
X221645055Y-195800057D02*
X221859341Y-195871486D01*
X221930769Y-195942914D01*
X222002198Y-196085771D01*
X222002198Y-196300057D01*
X221930769Y-196442914D01*
X221859341Y-196514343D01*
X221716483Y-196585771D01*
X221145055Y-196585771D01*
X221145055Y-195085771D01*
X221645055Y-195085771D01*
X221787912Y-195157200D01*
X221859341Y-195228629D01*
X221930769Y-195371486D01*
X221930769Y-195514343D01*
X221859341Y-195657200D01*
X221787912Y-195728629D01*
X221645055Y-195800057D01*
X221145055Y-195800057D01*
X222502198Y-195085771D02*
X223502198Y-195085771D01*
X222502198Y-196585771D01*
X223502198Y-196585771D01*
X224930769Y-196585771D02*
X224430769Y-195871486D01*
X224073626Y-196585771D02*
X224073626Y-195085771D01*
X224645054Y-195085771D01*
X224787912Y-195157200D01*
X224859340Y-195228629D01*
X224930769Y-195371486D01*
X224930769Y-195585771D01*
X224859340Y-195728629D01*
X224787912Y-195800057D01*
X224645054Y-195871486D01*
X224073626Y-195871486D01*
X227430769Y-195085771D02*
X226716483Y-195085771D01*
X226645054Y-195800057D01*
X226716483Y-195728629D01*
X226859340Y-195657200D01*
X227216483Y-195657200D01*
X227359340Y-195728629D01*
X227430769Y-195800057D01*
X227502197Y-195942914D01*
X227502197Y-196300057D01*
X227430769Y-196442914D01*
X227359340Y-196514343D01*
X227216483Y-196585771D01*
X226859340Y-196585771D01*
X226716483Y-196514343D01*
X226645054Y-196442914D01*
X228787911Y-195585771D02*
X228787911Y-196585771D01*
X228430768Y-195014343D02*
X228073625Y-196085771D01*
X229002197Y-196085771D01*
X229430768Y-195085771D02*
X230359339Y-195085771D01*
X229859339Y-195657200D01*
X230073625Y-195657200D01*
X230216482Y-195728629D01*
X230287911Y-195800057D01*
X230359339Y-195942914D01*
X230359339Y-196300057D01*
X230287911Y-196442914D01*
X230216482Y-196514343D01*
X230073625Y-196585771D01*
X229645053Y-196585771D01*
X229502196Y-196514343D01*
X229430768Y-196442914D01*
X230859339Y-195085771D02*
X231859339Y-195085771D01*
X231216482Y-196585771D01*
X232287910Y-197157200D02*
X232359338Y-197085771D01*
X232502195Y-196871486D01*
X232573624Y-196728629D01*
X232645053Y-196514343D01*
X232716481Y-196157200D01*
X232716481Y-195871486D01*
X232645053Y-195514343D01*
X232573624Y-195300057D01*
X232502195Y-195157200D01*
X232359338Y-194942914D01*
X232287910Y-194871486D01*
X233430767Y-196014343D02*
X234573624Y-196014343D01*
X235287910Y-195585771D02*
X235287910Y-197085771D01*
X235287910Y-195657200D02*
X235430767Y-195585771D01*
X235716481Y-195585771D01*
X235859338Y-195657200D01*
X235930767Y-195728629D01*
X236002196Y-195871486D01*
X236002196Y-196300057D01*
X235930767Y-196442914D01*
X235859338Y-196514343D01*
X235716481Y-196585771D01*
X235430767Y-196585771D01*
X235287910Y-196514343D01*
X236645053Y-196585771D02*
X236645053Y-195585771D01*
X236645053Y-195871486D02*
X236716481Y-195728629D01*
X236787910Y-195657200D01*
X236930767Y-195585771D01*
X237073624Y-195585771D01*
X237787910Y-196585771D02*
X237645052Y-196514343D01*
X237573624Y-196442914D01*
X237502195Y-196300057D01*
X237502195Y-195871486D01*
X237573624Y-195728629D01*
X237645052Y-195657200D01*
X237787910Y-195585771D01*
X238002195Y-195585771D01*
X238145052Y-195657200D01*
X238216481Y-195728629D01*
X238287910Y-195871486D01*
X238287910Y-196300057D01*
X238216481Y-196442914D01*
X238145052Y-196514343D01*
X238002195Y-196585771D01*
X237787910Y-196585771D01*
X239573624Y-196585771D02*
X239573624Y-195085771D01*
X239573624Y-196514343D02*
X239430767Y-196585771D01*
X239145053Y-196585771D01*
X239002195Y-196514343D01*
X238930767Y-196442914D01*
X238859338Y-196300057D01*
X238859338Y-195871486D01*
X238930767Y-195728629D01*
X239002195Y-195657200D01*
X239145053Y-195585771D01*
X239430767Y-195585771D01*
X239573624Y-195657200D01*
X240930767Y-195585771D02*
X240930767Y-196585771D01*
X240287910Y-195585771D02*
X240287910Y-196371486D01*
X240359338Y-196514343D01*
X240502196Y-196585771D01*
X240716481Y-196585771D01*
X240859338Y-196514343D01*
X240930767Y-196442914D01*
X242287910Y-196514343D02*
X242145053Y-196585771D01*
X241859339Y-196585771D01*
X241716481Y-196514343D01*
X241645053Y-196442914D01*
X241573624Y-196300057D01*
X241573624Y-195871486D01*
X241645053Y-195728629D01*
X241716481Y-195657200D01*
X241859339Y-195585771D01*
X242145053Y-195585771D01*
X242287910Y-195657200D01*
X242716481Y-195585771D02*
X243287910Y-195585771D01*
X242930767Y-195085771D02*
X242930767Y-196371486D01*
X243002195Y-196514343D01*
X243145053Y-196585771D01*
X243287910Y-196585771D01*
D10*
D11*
X177002200Y-191507200D02*
X285002200Y-191507200D01*
D10*
D12*
X264216486Y-193785771D02*
X263716486Y-193071486D01*
X263359343Y-193785771D02*
X263359343Y-192285771D01*
X263930771Y-192285771D01*
X264073629Y-192357200D01*
X264145057Y-192428629D01*
X264216486Y-192571486D01*
X264216486Y-192785771D01*
X264145057Y-192928629D01*
X264073629Y-193000057D01*
X263930771Y-193071486D01*
X263359343Y-193071486D01*
X265430771Y-193714343D02*
X265287914Y-193785771D01*
X265002200Y-193785771D01*
X264859343Y-193714343D01*
X264787914Y-193571486D01*
X264787914Y-193000057D01*
X264859343Y-192857200D01*
X265002200Y-192785771D01*
X265287914Y-192785771D01*
X265430771Y-192857200D01*
X265502200Y-193000057D01*
X265502200Y-193142914D01*
X264787914Y-193285771D01*
X266002200Y-192785771D02*
X266359343Y-193785771D01*
X266716485Y-192785771D01*
X267287914Y-193642914D02*
X267359342Y-193714343D01*
X267287914Y-193785771D01*
X267216485Y-193714343D01*
X267287914Y-193642914D01*
X267287914Y-193785771D01*
X267287914Y-192857200D02*
X267359342Y-192928629D01*
X267287914Y-193000057D01*
X267216485Y-192928629D01*
X267287914Y-192857200D01*
X267287914Y-193000057D01*
D10*
D11*
X178287914Y-193714343D02*
X178502200Y-193785771D01*
X178859343Y-193785771D01*
X179002200Y-193714343D01*
X179073629Y-193642914D01*
X179145057Y-193500057D01*
X179145057Y-193357200D01*
X179073629Y-193214343D01*
X179002200Y-193142914D01*
X178859343Y-193071486D01*
X178573629Y-193000057D01*
X178430771Y-192928629D01*
X178359343Y-192857200D01*
X178287914Y-192714343D01*
X178287914Y-192571486D01*
X178359343Y-192428629D01*
X178430771Y-192357200D01*
X178573629Y-192285771D01*
X178930771Y-192285771D01*
X179145057Y-192357200D01*
X179787914Y-193785771D02*
X179787914Y-192785771D01*
X179787914Y-192285771D02*
X179716485Y-192357200D01*
X179787914Y-192428629D01*
X179859342Y-192357200D01*
X179787914Y-192285771D01*
X179787914Y-192428629D01*
X180359343Y-192785771D02*
X181145057Y-192785771D01*
X180359343Y-193785771D01*
X181145057Y-193785771D01*
X182287914Y-193714343D02*
X182145057Y-193785771D01*
X181859343Y-193785771D01*
X181716486Y-193714343D01*
X181645057Y-193571486D01*
X181645057Y-193000057D01*
X181716486Y-192857200D01*
X181859343Y-192785771D01*
X182145057Y-192785771D01*
X182287914Y-192857200D01*
X182359343Y-193000057D01*
X182359343Y-193142914D01*
X181645057Y-193285771D01*
X183002200Y-193642914D02*
X183073628Y-193714343D01*
X183002200Y-193785771D01*
X182930771Y-193714343D01*
X183002200Y-193642914D01*
X183002200Y-193785771D01*
X183002200Y-192857200D02*
X183073628Y-192928629D01*
X183002200Y-193000057D01*
X182930771Y-192928629D01*
X183002200Y-192857200D01*
X183002200Y-193000057D01*
X184787914Y-193357200D02*
X185502200Y-193357200D01*
X184645057Y-193785771D02*
X185145057Y-192285771D01*
X185645057Y-193785771D01*
X186787914Y-192785771D02*
X186787914Y-193785771D01*
X186430771Y-192214343D02*
X186073628Y-193285771D01*
X187002200Y-193285771D01*
D10*
D11*
X263359343Y-196585771D02*
X263359343Y-195085771D01*
X264716486Y-196585771D02*
X264716486Y-195085771D01*
X264716486Y-196514343D02*
X264573629Y-196585771D01*
X264287915Y-196585771D01*
X264145057Y-196514343D01*
X264073629Y-196442914D01*
X264002200Y-196300057D01*
X264002200Y-195871486D01*
X264073629Y-195728629D01*
X264145057Y-195657200D01*
X264287915Y-195585771D01*
X264573629Y-195585771D01*
X264716486Y-195657200D01*
X265430772Y-196442914D02*
X265502200Y-196514343D01*
X265430772Y-196585771D01*
X265359343Y-196514343D01*
X265430772Y-196442914D01*
X265430772Y-196585771D01*
X265430772Y-195657200D02*
X265502200Y-195728629D01*
X265430772Y-195800057D01*
X265359343Y-195728629D01*
X265430772Y-195657200D01*
X265430772Y-195800057D01*
X268073629Y-196585771D02*
X267216486Y-196585771D01*
X267645058Y-196585771D02*
X267645058Y-195085771D01*
X267502201Y-195300057D01*
X267359343Y-195442914D01*
X267216486Y-195514343D01*
X269787914Y-195014343D02*
X268502200Y-196942914D01*
X271073629Y-196585771D02*
X270216486Y-196585771D01*
X270645058Y-196585771D02*
X270645058Y-195085771D01*
X270502201Y-195300057D01*
X270359343Y-195442914D01*
X270216486Y-195514343D01*
D10*
D11*
X177002200Y-187507200D02*
X285002200Y-187507200D01*
D10*
D13*
X178454581Y-188211962D02*
X179597438Y-188211962D01*
X178776010Y-190211962D02*
X179026010Y-188211962D01*
X180014105Y-190211962D02*
X180180771Y-188878629D01*
X180264105Y-188211962D02*
X180156962Y-188307200D01*
X180240295Y-188402438D01*
X180347439Y-188307200D01*
X180264105Y-188211962D01*
X180240295Y-188402438D01*
X180847438Y-188878629D02*
X181609343Y-188878629D01*
X181216486Y-188211962D02*
X181002200Y-189926248D01*
X181073630Y-190116724D01*
X181252201Y-190211962D01*
X181442677Y-190211962D01*
X182395058Y-190211962D02*
X182216487Y-190116724D01*
X182145057Y-189926248D01*
X182359343Y-188211962D01*
X183930772Y-190116724D02*
X183728391Y-190211962D01*
X183347439Y-190211962D01*
X183168867Y-190116724D01*
X183097438Y-189926248D01*
X183192676Y-189164343D01*
X183311724Y-188973867D01*
X183514105Y-188878629D01*
X183895057Y-188878629D01*
X184073629Y-188973867D01*
X184145057Y-189164343D01*
X184121248Y-189354819D01*
X183145057Y-189545295D01*
X184895057Y-190021486D02*
X184978392Y-190116724D01*
X184871248Y-190211962D01*
X184787915Y-190116724D01*
X184895057Y-190021486D01*
X184871248Y-190211962D01*
X185026010Y-188973867D02*
X185109344Y-189069105D01*
X185002200Y-189164343D01*
X184918867Y-189069105D01*
X185026010Y-188973867D01*
X185002200Y-189164343D01*
D10*
D11*
X178859343Y-185600057D02*
X178359343Y-185600057D01*
X178359343Y-186385771D02*
X178359343Y-184885771D01*
X179073629Y-184885771D01*
X179645057Y-186385771D02*
X179645057Y-185385771D01*
X179645057Y-184885771D02*
X179573628Y-184957200D01*
X179645057Y-185028629D01*
X179716485Y-184957200D01*
X179645057Y-184885771D01*
X179645057Y-185028629D01*
X180573629Y-186385771D02*
X180430771Y-186314343D01*
X180359343Y-186171486D01*
X180359343Y-184885771D01*
X181716485Y-186314343D02*
X181573628Y-186385771D01*
X181287914Y-186385771D01*
X181145057Y-186314343D01*
X181073628Y-186171486D01*
X181073628Y-185600057D01*
X181145057Y-185457200D01*
X181287914Y-185385771D01*
X181573628Y-185385771D01*
X181716485Y-185457200D01*
X181787914Y-185600057D01*
X181787914Y-185742914D01*
X181073628Y-185885771D01*
X182430771Y-186242914D02*
X182502199Y-186314343D01*
X182430771Y-186385771D01*
X182359342Y-186314343D01*
X182430771Y-186242914D01*
X182430771Y-186385771D01*
X182430771Y-185457200D02*
X182502199Y-185528629D01*
X182430771Y-185600057D01*
X182359342Y-185528629D01*
X182430771Y-185457200D01*
X182430771Y-185600057D01*
X184287914Y-186385771D02*
X184287914Y-184885771D01*
X184859342Y-184885771D01*
X185002200Y-184957200D01*
X185073628Y-185028629D01*
X185145057Y-185171486D01*
X185145057Y-185385771D01*
X185073628Y-185528629D01*
X185002200Y-185600057D01*
X184859342Y-185671486D01*
X184287914Y-185671486D01*
X185787914Y-186385771D02*
X185787914Y-185385771D01*
X185787914Y-185671486D02*
X185859342Y-185528629D01*
X185930771Y-185457200D01*
X186073628Y-185385771D01*
X186216485Y-185385771D01*
X186930771Y-186385771D02*
X186787913Y-186314343D01*
X186716485Y-186242914D01*
X186645056Y-186100057D01*
X186645056Y-185671486D01*
X186716485Y-185528629D01*
X186787913Y-185457200D01*
X186930771Y-185385771D01*
X187145056Y-185385771D01*
X187287913Y-185457200D01*
X187359342Y-185528629D01*
X187430771Y-185671486D01*
X187430771Y-186100057D01*
X187359342Y-186242914D01*
X187287913Y-186314343D01*
X187145056Y-186385771D01*
X186930771Y-186385771D01*
X188073628Y-185385771D02*
X188073628Y-186671486D01*
X188002199Y-186814343D01*
X187859342Y-186885771D01*
X187787914Y-186885771D01*
X188073628Y-184885771D02*
X188002199Y-184957200D01*
X188073628Y-185028629D01*
X188145056Y-184957200D01*
X188073628Y-184885771D01*
X188073628Y-185028629D01*
X189359342Y-186314343D02*
X189216485Y-186385771D01*
X188930771Y-186385771D01*
X188787914Y-186314343D01*
X188716485Y-186171486D01*
X188716485Y-185600057D01*
X188787914Y-185457200D01*
X188930771Y-185385771D01*
X189216485Y-185385771D01*
X189359342Y-185457200D01*
X189430771Y-185600057D01*
X189430771Y-185742914D01*
X188716485Y-185885771D01*
X190716485Y-186314343D02*
X190573628Y-186385771D01*
X190287914Y-186385771D01*
X190145056Y-186314343D01*
X190073628Y-186242914D01*
X190002199Y-186100057D01*
X190002199Y-185671486D01*
X190073628Y-185528629D01*
X190145056Y-185457200D01*
X190287914Y-185385771D01*
X190573628Y-185385771D01*
X190716485Y-185457200D01*
X191145056Y-185385771D02*
X191716485Y-185385771D01*
X191359342Y-184885771D02*
X191359342Y-186171486D01*
X191430770Y-186314343D01*
X191573628Y-186385771D01*
X191716485Y-186385771D01*
X191859342Y-186528629D02*
X193002199Y-186528629D01*
X193287913Y-185028629D02*
X193359342Y-184957200D01*
X193502199Y-184885771D01*
X193859342Y-184885771D01*
X194002199Y-184957200D01*
X194073628Y-185028629D01*
X194145056Y-185171486D01*
X194145056Y-185314343D01*
X194073628Y-185528629D01*
X193216485Y-186385771D01*
X194145056Y-186385771D01*
X194787913Y-186242914D02*
X194859341Y-186314343D01*
X194787913Y-186385771D01*
X194716484Y-186314343D01*
X194787913Y-186242914D01*
X194787913Y-186385771D01*
X195502199Y-186385771D02*
X195502199Y-184885771D01*
X195645056Y-185814343D02*
X196073627Y-186385771D01*
X196073627Y-185385771D02*
X195502199Y-185957200D01*
X196716485Y-186385771D02*
X196716485Y-185385771D01*
X196716485Y-184885771D02*
X196645056Y-184957200D01*
X196716485Y-185028629D01*
X196787913Y-184957200D01*
X196716485Y-184885771D01*
X196716485Y-185028629D01*
X198073628Y-186314343D02*
X197930771Y-186385771D01*
X197645057Y-186385771D01*
X197502199Y-186314343D01*
X197430771Y-186242914D01*
X197359342Y-186100057D01*
X197359342Y-185671486D01*
X197430771Y-185528629D01*
X197502199Y-185457200D01*
X197645057Y-185385771D01*
X197930771Y-185385771D01*
X198073628Y-185457200D01*
X199359342Y-186385771D02*
X199359342Y-185600057D01*
X199287913Y-185457200D01*
X199145056Y-185385771D01*
X198859342Y-185385771D01*
X198716485Y-185457200D01*
X199359342Y-186314343D02*
X199216485Y-186385771D01*
X198859342Y-186385771D01*
X198716485Y-186314343D01*
X198645056Y-186171486D01*
X198645056Y-186028629D01*
X198716485Y-185885771D01*
X198859342Y-185814343D01*
X199216485Y-185814343D01*
X199359342Y-185742914D01*
X200716485Y-186385771D02*
X200716485Y-184885771D01*
X200716485Y-186314343D02*
X200573628Y-186385771D01*
X200287914Y-186385771D01*
X200145056Y-186314343D01*
X200073628Y-186242914D01*
X200002199Y-186100057D01*
X200002199Y-185671486D01*
X200073628Y-185528629D01*
X200145056Y-185457200D01*
X200287914Y-185385771D01*
X200573628Y-185385771D01*
X200716485Y-185457200D01*
X201073628Y-186528629D02*
X202216485Y-186528629D01*
X202573628Y-185385771D02*
X202573628Y-186885771D01*
X202573628Y-185457200D02*
X202716485Y-185385771D01*
X203002199Y-185385771D01*
X203145056Y-185457200D01*
X203216485Y-185528629D01*
X203287914Y-185671486D01*
X203287914Y-186100057D01*
X203216485Y-186242914D01*
X203145056Y-186314343D01*
X203002199Y-186385771D01*
X202716485Y-186385771D01*
X202573628Y-186314343D01*
X204573628Y-186314343D02*
X204430771Y-186385771D01*
X204145057Y-186385771D01*
X204002199Y-186314343D01*
X203930771Y-186242914D01*
X203859342Y-186100057D01*
X203859342Y-185671486D01*
X203930771Y-185528629D01*
X204002199Y-185457200D01*
X204145057Y-185385771D01*
X204430771Y-185385771D01*
X204573628Y-185457200D01*
X205216485Y-186385771D02*
X205216485Y-184885771D01*
X205216485Y-185457200D02*
X205359342Y-185385771D01*
X205645056Y-185385771D01*
X205787913Y-185457200D01*
X205859342Y-185528629D01*
X205930771Y-185671486D01*
X205930771Y-186100057D01*
X205859342Y-186242914D01*
X205787913Y-186314343D01*
X205645056Y-186385771D01*
X205359342Y-186385771D01*
X205216485Y-186314343D01*
D10*
D11*
X177002200Y-181507200D02*
X285002200Y-181507200D01*
D10*
D11*
X178287914Y-183614343D02*
X178502200Y-183685771D01*
X178859343Y-183685771D01*
X179002200Y-183614343D01*
X179073629Y-183542914D01*
X179145057Y-183400057D01*
X179145057Y-183257200D01*
X179073629Y-183114343D01*
X179002200Y-183042914D01*
X178859343Y-182971486D01*
X178573629Y-182900057D01*
X178430771Y-182828629D01*
X178359343Y-182757200D01*
X178287914Y-182614343D01*
X178287914Y-182471486D01*
X178359343Y-182328629D01*
X178430771Y-182257200D01*
X178573629Y-182185771D01*
X178930771Y-182185771D01*
X179145057Y-182257200D01*
X179787914Y-183685771D02*
X179787914Y-182185771D01*
X180430771Y-183685771D02*
X180430771Y-182900057D01*
X180359342Y-182757200D01*
X180216485Y-182685771D01*
X180002200Y-182685771D01*
X179859342Y-182757200D01*
X179787914Y-182828629D01*
X181716485Y-183614343D02*
X181573628Y-183685771D01*
X181287914Y-183685771D01*
X181145057Y-183614343D01*
X181073628Y-183471486D01*
X181073628Y-182900057D01*
X181145057Y-182757200D01*
X181287914Y-182685771D01*
X181573628Y-182685771D01*
X181716485Y-182757200D01*
X181787914Y-182900057D01*
X181787914Y-183042914D01*
X181073628Y-183185771D01*
X183002199Y-183614343D02*
X182859342Y-183685771D01*
X182573628Y-183685771D01*
X182430771Y-183614343D01*
X182359342Y-183471486D01*
X182359342Y-182900057D01*
X182430771Y-182757200D01*
X182573628Y-182685771D01*
X182859342Y-182685771D01*
X183002199Y-182757200D01*
X183073628Y-182900057D01*
X183073628Y-183042914D01*
X182359342Y-183185771D01*
X183502199Y-182685771D02*
X184073628Y-182685771D01*
X183716485Y-182185771D02*
X183716485Y-183471486D01*
X183787913Y-183614343D01*
X183930771Y-183685771D01*
X184073628Y-183685771D01*
X184573628Y-183542914D02*
X184645056Y-183614343D01*
X184573628Y-183685771D01*
X184502199Y-183614343D01*
X184573628Y-183542914D01*
X184573628Y-183685771D01*
X184573628Y-182757200D02*
X184645056Y-182828629D01*
X184573628Y-182900057D01*
X184502199Y-182828629D01*
X184573628Y-182757200D01*
X184573628Y-182900057D01*
D10*
D11*
X197002200Y-191507200D02*
X197002200Y-194507200D01*
D10*
D11*
X261002200Y-191507200D02*
X261002200Y-198007200D01*
D14*
X82550000Y-138049000D03*
D15*
X80010000Y-138049000D03*
X77470000Y-138049000D03*
X74930000Y-138049000D03*
X72390000Y-138049000D03*
X69850000Y-138049000D03*
X67310000Y-138049000D03*
X64770000Y-138049000D03*
X62230000Y-138049000D03*
X59690000Y-138049000D03*
D16*
X74168000Y-132334000D03*
X59436000Y-99314000D03*
X134366000Y-137414000D03*
D17*
X131191000Y-107950000D03*
X131191000Y-110490000D03*
X133189980Y-110490000D03*
X133189980Y-107950000D03*
D18*
X135890000Y-103220520D03*
X135890000Y-115219480D03*
D19*
X65890140Y-88900000D03*
X59890660Y-88900000D03*
X62890400Y-93599000D03*
D20*
X123698000Y-135382000D03*
D21*
X126238000Y-135382000D03*
D16*
X134874000Y-85344000D03*
D22*
X85090000Y-96012000D03*
X86868000Y-96012000D03*
X88646000Y-96012000D03*
X106172000Y-117856000D03*
X104394000Y-115110270D03*
X111252000Y-125476000D03*
X78867000Y-124333000D03*
X78867000Y-122555000D03*
X65532000Y-130556000D03*
X90297000Y-133858000D03*
X67818000Y-119380000D03*
X64770000Y-122428000D03*
X67564000Y-124460000D03*
X62738000Y-112014000D03*
X68072000Y-109474000D03*
X58928000Y-121920000D03*
X59944000Y-113538000D03*
X136398000Y-88646000D03*
X136398000Y-90424000D03*
X136398000Y-91948000D03*
X85852000Y-116840000D03*
X85852000Y-115570000D03*
X119888000Y-115709690D03*
X118364000Y-118110000D03*
X116840000Y-117856000D03*
X75438000Y-128016000D03*
X80581500Y-114871500D03*
X90424000Y-90424000D03*
X85090000Y-94488000D03*
X102870000Y-95885000D03*
X96266000Y-90170000D03*
X75254910Y-109537520D03*
X126492000Y-92710000D03*
X127508000Y-93472000D03*
X64643000Y-118110000D03*
D23*
X99822000Y-127000000D03*
D22*
X99822000Y-125222000D03*
D23*
X101346000Y-131064000D03*
D22*
X94234000Y-116332000D03*
D23*
X99314000Y-84836000D03*
X113284000Y-89154000D03*
D22*
X127508000Y-131572000D03*
X125730000Y-123952000D03*
X125984000Y-127254000D03*
X76708000Y-90678000D03*
X61468000Y-85090000D03*
X120650000Y-110617000D03*
X125222000Y-107950000D03*
X73660000Y-98425000D03*
X94742000Y-96393000D03*
X61976000Y-104394000D03*
X71374000Y-90170000D03*
X105981500Y-102933500D03*
X101155500Y-101600000D03*
X104648000Y-104902000D03*
X104648000Y-106426000D03*
X103124000Y-106426000D03*
X103124000Y-104902000D03*
X83820000Y-132842000D03*
X74676000Y-102108000D03*
X106934000Y-123190000D03*
X118872000Y-109982000D03*
X89916000Y-125222000D03*
X126492000Y-109982000D03*
X62992000Y-129032000D03*
D23*
X89154000Y-113030000D03*
X93726000Y-107950000D03*
X95250000Y-107950000D03*
X95250000Y-106426000D03*
X95250000Y-104902000D03*
X95250000Y-103378000D03*
D22*
X89916000Y-119888000D03*
X66524875Y-115292875D03*
X95738607Y-123801706D03*
X67056000Y-132080000D03*
X60198000Y-132080000D03*
X60198000Y-115316000D03*
X70358000Y-112014000D03*
X62992000Y-113792000D03*
X63246000Y-122428000D03*
X61722000Y-122428000D03*
X60198000Y-123952000D03*
X108204000Y-96774000D03*
X109728000Y-96774000D03*
X111252000Y-96774000D03*
X111252000Y-98298000D03*
X109728000Y-98298000D03*
X108204000Y-98298000D03*
X112014000Y-100838000D03*
X114046000Y-100838000D03*
X116332000Y-100838000D03*
X118110000Y-100838000D03*
X119888000Y-100838000D03*
X66802000Y-125730000D03*
X73406000Y-125222000D03*
X73914000Y-123952000D03*
X73914000Y-122682000D03*
X101854000Y-109855000D03*
D23*
X121920000Y-112903000D03*
X122936000Y-123190000D03*
D22*
X101600000Y-123444000D03*
X104394000Y-112649000D03*
X125497011Y-105918000D03*
X125476000Y-104394000D03*
X125476000Y-102870000D03*
X127000000Y-102870000D03*
X127000000Y-104394000D03*
X127000000Y-105918000D03*
X120396000Y-103124000D03*
X118618000Y-103124000D03*
X117094000Y-103124000D03*
X117094000Y-104902000D03*
X118618000Y-104902000D03*
X120396000Y-104902000D03*
X83566000Y-134239000D03*
X119126000Y-136144000D03*
D23*
X109220000Y-127254000D03*
X109220000Y-128778000D03*
X110744000Y-128778000D03*
X110744000Y-127254000D03*
D22*
X119380000Y-126492000D03*
X117856000Y-126492000D03*
X116332000Y-126492000D03*
X114808000Y-126492000D03*
X114808000Y-124968000D03*
X116332000Y-124968000D03*
X117856000Y-124968000D03*
X119380000Y-124968000D03*
X101854000Y-119253000D03*
X72898000Y-113157000D03*
X75184000Y-125857000D03*
X65024000Y-102362000D03*
X72898000Y-115316000D03*
X73938677Y-121082151D03*
X73914000Y-120142000D03*
X71628000Y-98806000D03*
X67564000Y-98806000D03*
X100330000Y-138176000D03*
X99060000Y-137414000D03*
X90932000Y-93980000D03*
X99568000Y-95123000D03*
X103505000Y-89916000D03*
X102616000Y-90805000D03*
X108077000Y-87884000D03*
X108077000Y-86614000D03*
X106045000Y-86614000D03*
D24*
G36*
X137237000Y-136048156D02*
X137059204Y-135617857D01*
X136977414Y-135535924D01*
X136977414Y-116486499D01*
X135890000Y-115399085D01*
X135710395Y-115578690D01*
X135710395Y-115219480D01*
X134622981Y-114132066D01*
X134587222Y-114156049D01*
X134587222Y-110213339D01*
X134374990Y-109699697D01*
X134346071Y-109670727D01*
X134346071Y-108096945D01*
X134314302Y-107643343D01*
X134201836Y-107371824D01*
X134031140Y-107288445D01*
X133851535Y-107468050D01*
X133851535Y-107108840D01*
X133768156Y-106938144D01*
X133336925Y-106793909D01*
X132883323Y-106825678D01*
X132611804Y-106938144D01*
X132528425Y-107108840D01*
X133189980Y-107770395D01*
X133851535Y-107108840D01*
X133851535Y-107468050D01*
X133369585Y-107950000D01*
X134031140Y-108611555D01*
X134201836Y-108528176D01*
X134346071Y-108096945D01*
X134346071Y-109670727D01*
X133982350Y-109306371D01*
X133469080Y-109093243D01*
X133229466Y-109093033D01*
X133496637Y-109074322D01*
X133768156Y-108961856D01*
X133851535Y-108791160D01*
X133189980Y-108129605D01*
X132528425Y-108791160D01*
X132611804Y-108961856D01*
X133003407Y-109092836D01*
X132913319Y-109092758D01*
X132399677Y-109304990D01*
X132190469Y-109513832D01*
X131983370Y-109306371D01*
X131775487Y-109220050D01*
X131981303Y-109135010D01*
X132374629Y-108742370D01*
X132485846Y-108474528D01*
X133010375Y-107950000D01*
X132485810Y-107425435D01*
X132376010Y-107159697D01*
X131983370Y-106766371D01*
X131470100Y-106553243D01*
X130914339Y-106552758D01*
X130400697Y-106764990D01*
X130007371Y-107157630D01*
X129794243Y-107670900D01*
X129793758Y-108226661D01*
X130005990Y-108740303D01*
X130398630Y-109133629D01*
X130606512Y-109219949D01*
X130400697Y-109304990D01*
X130007371Y-109697630D01*
X129794243Y-110210900D01*
X129793758Y-110766661D01*
X130005990Y-111280303D01*
X130398630Y-111673629D01*
X130911900Y-111886757D01*
X131467661Y-111887242D01*
X131981303Y-111675010D01*
X132190510Y-111466167D01*
X132397610Y-111673629D01*
X132910880Y-111886757D01*
X133466641Y-111887242D01*
X133980283Y-111675010D01*
X134373609Y-111282370D01*
X134586737Y-110769100D01*
X134587222Y-110213339D01*
X134587222Y-114156049D01*
X134391201Y-114287519D01*
X134148644Y-114932026D01*
X134171193Y-115620295D01*
X134391201Y-116151441D01*
X134622981Y-116306894D01*
X135710395Y-115219480D01*
X135710395Y-115578690D01*
X134802586Y-116486499D01*
X134958039Y-116718279D01*
X135602546Y-116960836D01*
X136290815Y-116938287D01*
X136821961Y-116718279D01*
X136977414Y-116486499D01*
X136977414Y-135535924D01*
X136166841Y-134723935D01*
X135000317Y-134239552D01*
X133737224Y-134238450D01*
X132569857Y-134720796D01*
X131675935Y-135613159D01*
X131191552Y-136779683D01*
X131190450Y-138042776D01*
X131672796Y-139210143D01*
X132565159Y-140104065D01*
X133000898Y-140285000D01*
X127978069Y-140285000D01*
X127978069Y-105724337D01*
X127829507Y-105364788D01*
X127620960Y-105155876D01*
X127828540Y-104948659D01*
X127977730Y-104589370D01*
X127978069Y-104200337D01*
X127829507Y-103840788D01*
X127620960Y-103631876D01*
X127828540Y-103424659D01*
X127977730Y-103065370D01*
X127978069Y-102676337D01*
X127829507Y-102316788D01*
X127554659Y-102041460D01*
X127195370Y-101892270D01*
X126806337Y-101891931D01*
X126446788Y-102040493D01*
X126237876Y-102249039D01*
X126030659Y-102041460D01*
X125671370Y-101892270D01*
X125282337Y-101891931D01*
X124922788Y-102040493D01*
X124647460Y-102315341D01*
X124498270Y-102674630D01*
X124497931Y-103063663D01*
X124646493Y-103423212D01*
X124855039Y-103632123D01*
X124647460Y-103839341D01*
X124498270Y-104198630D01*
X124497931Y-104587663D01*
X124646493Y-104947212D01*
X124865527Y-105166628D01*
X124668471Y-105363341D01*
X124519281Y-105722630D01*
X124518942Y-106111663D01*
X124667504Y-106471212D01*
X124942352Y-106746540D01*
X125301641Y-106895730D01*
X125690674Y-106896069D01*
X126050223Y-106747507D01*
X126248610Y-106549465D01*
X126445341Y-106746540D01*
X126804630Y-106895730D01*
X127193663Y-106896069D01*
X127553212Y-106747507D01*
X127828540Y-106472659D01*
X127977730Y-106113370D01*
X127978069Y-105724337D01*
X127978069Y-140285000D01*
X127592220Y-140285000D01*
X127592220Y-135725070D01*
X127592220Y-135038930D01*
X127438174Y-134667003D01*
X127073199Y-134262142D01*
X126581072Y-134027769D01*
X126365000Y-134086024D01*
X126365000Y-135255000D01*
X127533540Y-135255000D01*
X127592220Y-135038930D01*
X127592220Y-135725070D01*
X127533540Y-135509000D01*
X126365000Y-135509000D01*
X126365000Y-136677976D01*
X126581072Y-136736231D01*
X127073199Y-136501858D01*
X127438174Y-136096997D01*
X127592220Y-135725070D01*
X127592220Y-140285000D01*
X126111000Y-140285000D01*
X126111000Y-136677976D01*
X126111000Y-135509000D01*
X126091000Y-135509000D01*
X126091000Y-135255000D01*
X126111000Y-135255000D01*
X126111000Y-134086024D01*
X125894928Y-134027769D01*
X125402801Y-134262142D01*
X125352183Y-134318291D01*
X125314463Y-134123877D01*
X125174673Y-133911073D01*
X124963640Y-133768623D01*
X124714000Y-133718560D01*
X124015687Y-133718560D01*
X124015687Y-122976216D01*
X123851689Y-122579311D01*
X123548286Y-122275378D01*
X123151668Y-122110687D01*
X122999687Y-122110554D01*
X122999687Y-112689216D01*
X122835689Y-112292311D01*
X122532286Y-111988378D01*
X122135668Y-111823687D01*
X121706216Y-111823313D01*
X121374069Y-111960553D01*
X121374069Y-104708337D01*
X121225507Y-104348788D01*
X120950659Y-104073460D01*
X120805141Y-104013035D01*
X120949212Y-103953507D01*
X121224540Y-103678659D01*
X121373730Y-103319370D01*
X121374069Y-102930337D01*
X121225507Y-102570788D01*
X120950659Y-102295460D01*
X120866069Y-102260335D01*
X120866069Y-100644337D01*
X120717507Y-100284788D01*
X120442659Y-100009460D01*
X120083370Y-99860270D01*
X119694337Y-99859931D01*
X119334788Y-100008493D01*
X119059460Y-100283341D01*
X118999035Y-100428858D01*
X118939507Y-100284788D01*
X118664659Y-100009460D01*
X118305370Y-99860270D01*
X117916337Y-99859931D01*
X117556788Y-100008493D01*
X117281460Y-100283341D01*
X117221035Y-100428858D01*
X117161507Y-100284788D01*
X116886659Y-100009460D01*
X116527370Y-99860270D01*
X116138337Y-99859931D01*
X115778788Y-100008493D01*
X115503460Y-100283341D01*
X115354270Y-100642630D01*
X115353931Y-101031663D01*
X115502493Y-101391212D01*
X115777341Y-101666540D01*
X116136630Y-101815730D01*
X116525663Y-101816069D01*
X116885212Y-101667507D01*
X117160540Y-101392659D01*
X117220964Y-101247141D01*
X117280493Y-101391212D01*
X117555341Y-101666540D01*
X117914630Y-101815730D01*
X118303663Y-101816069D01*
X118663212Y-101667507D01*
X118938540Y-101392659D01*
X118998964Y-101247141D01*
X119058493Y-101391212D01*
X119333341Y-101666540D01*
X119692630Y-101815730D01*
X120081663Y-101816069D01*
X120441212Y-101667507D01*
X120716540Y-101392659D01*
X120865730Y-101033370D01*
X120866069Y-100644337D01*
X120866069Y-102260335D01*
X120591370Y-102146270D01*
X120202337Y-102145931D01*
X119842788Y-102294493D01*
X119567460Y-102569341D01*
X119507035Y-102714858D01*
X119447507Y-102570788D01*
X119172659Y-102295460D01*
X118813370Y-102146270D01*
X118424337Y-102145931D01*
X118064788Y-102294493D01*
X117855876Y-102503039D01*
X117648659Y-102295460D01*
X117289370Y-102146270D01*
X116900337Y-102145931D01*
X116540788Y-102294493D01*
X116265460Y-102569341D01*
X116116270Y-102928630D01*
X116115931Y-103317663D01*
X116264493Y-103677212D01*
X116539341Y-103952540D01*
X116684858Y-104012964D01*
X116540788Y-104072493D01*
X116265460Y-104347341D01*
X116116270Y-104706630D01*
X116115931Y-105095663D01*
X116264493Y-105455212D01*
X116539341Y-105730540D01*
X116898630Y-105879730D01*
X117287663Y-105880069D01*
X117647212Y-105731507D01*
X117856123Y-105522960D01*
X118063341Y-105730540D01*
X118422630Y-105879730D01*
X118811663Y-105880069D01*
X119171212Y-105731507D01*
X119446540Y-105456659D01*
X119506964Y-105311141D01*
X119566493Y-105455212D01*
X119841341Y-105730540D01*
X120200630Y-105879730D01*
X120589663Y-105880069D01*
X120949212Y-105731507D01*
X121224540Y-105456659D01*
X121373730Y-105097370D01*
X121374069Y-104708337D01*
X121374069Y-111960553D01*
X121309311Y-111987311D01*
X121005378Y-112290714D01*
X120840687Y-112687332D01*
X120840313Y-113116784D01*
X121004311Y-113513689D01*
X121307714Y-113817622D01*
X121704332Y-113982313D01*
X122133784Y-113982687D01*
X122530689Y-113818689D01*
X122834622Y-113515286D01*
X122999313Y-113118668D01*
X122999687Y-112689216D01*
X122999687Y-122110554D01*
X122722216Y-122110313D01*
X122325311Y-122274311D01*
X122021378Y-122577714D01*
X121856687Y-122974332D01*
X121856313Y-123403784D01*
X122020311Y-123800689D01*
X122323714Y-124104622D01*
X122720332Y-124269313D01*
X123149784Y-124269687D01*
X123546689Y-124105689D01*
X123850622Y-123802286D01*
X124015313Y-123405668D01*
X124015687Y-122976216D01*
X124015687Y-133718560D01*
X122682000Y-133718560D01*
X122439877Y-133765537D01*
X122227073Y-133905327D01*
X122084623Y-134116360D01*
X122034560Y-134366000D01*
X122034560Y-136398000D01*
X122081537Y-136640123D01*
X122221327Y-136852927D01*
X122432360Y-136995377D01*
X122682000Y-137045440D01*
X124714000Y-137045440D01*
X124956123Y-136998463D01*
X125168927Y-136858673D01*
X125311377Y-136647640D01*
X125351929Y-136445426D01*
X125402801Y-136501858D01*
X125894928Y-136736231D01*
X126111000Y-136677976D01*
X126111000Y-140285000D01*
X120358069Y-140285000D01*
X120358069Y-126298337D01*
X120209507Y-125938788D01*
X120000960Y-125729876D01*
X120208540Y-125522659D01*
X120357730Y-125163370D01*
X120358069Y-124774337D01*
X120209507Y-124414788D01*
X119934659Y-124139460D01*
X119575370Y-123990270D01*
X119186337Y-123989931D01*
X118826788Y-124138493D01*
X118617876Y-124347039D01*
X118410659Y-124139460D01*
X118051370Y-123990270D01*
X117662337Y-123989931D01*
X117302788Y-124138493D01*
X117093876Y-124347039D01*
X116886659Y-124139460D01*
X116527370Y-123990270D01*
X116138337Y-123989931D01*
X115778788Y-124138493D01*
X115569876Y-124347039D01*
X115362659Y-124139460D01*
X115024069Y-123998864D01*
X115024069Y-100644337D01*
X114875507Y-100284788D01*
X114600659Y-100009460D01*
X114241370Y-99860270D01*
X113852337Y-99859931D01*
X113492788Y-100008493D01*
X113217460Y-100283341D01*
X113068270Y-100642630D01*
X113067931Y-101031663D01*
X113216493Y-101391212D01*
X113491341Y-101666540D01*
X113850630Y-101815730D01*
X114239663Y-101816069D01*
X114599212Y-101667507D01*
X114874540Y-101392659D01*
X115023730Y-101033370D01*
X115024069Y-100644337D01*
X115024069Y-123998864D01*
X115003370Y-123990270D01*
X114614337Y-123989931D01*
X114254788Y-124138493D01*
X113979460Y-124413341D01*
X113830270Y-124772630D01*
X113829931Y-125161663D01*
X113978493Y-125521212D01*
X114187039Y-125730123D01*
X113979460Y-125937341D01*
X113830270Y-126296630D01*
X113829931Y-126685663D01*
X113978493Y-127045212D01*
X114253341Y-127320540D01*
X114612630Y-127469730D01*
X115001663Y-127470069D01*
X115361212Y-127321507D01*
X115570123Y-127112960D01*
X115777341Y-127320540D01*
X116136630Y-127469730D01*
X116525663Y-127470069D01*
X116885212Y-127321507D01*
X117094123Y-127112960D01*
X117301341Y-127320540D01*
X117660630Y-127469730D01*
X118049663Y-127470069D01*
X118409212Y-127321507D01*
X118618123Y-127112960D01*
X118825341Y-127320540D01*
X119184630Y-127469730D01*
X119573663Y-127470069D01*
X119933212Y-127321507D01*
X120208540Y-127046659D01*
X120357730Y-126687370D01*
X120358069Y-126298337D01*
X120358069Y-140285000D01*
X120104069Y-140285000D01*
X120104069Y-135950337D01*
X119955507Y-135590788D01*
X119680659Y-135315460D01*
X119321370Y-135166270D01*
X118932337Y-135165931D01*
X118572788Y-135314493D01*
X118297460Y-135589341D01*
X118148270Y-135948630D01*
X118147931Y-136337663D01*
X118296493Y-136697212D01*
X118571341Y-136972540D01*
X118930630Y-137121730D01*
X119319663Y-137122069D01*
X119679212Y-136973507D01*
X119954540Y-136698659D01*
X120103730Y-136339370D01*
X120104069Y-135950337D01*
X120104069Y-140285000D01*
X112992069Y-140285000D01*
X112992069Y-100644337D01*
X112843507Y-100284788D01*
X112568659Y-100009460D01*
X112230069Y-99868864D01*
X112230069Y-98104337D01*
X112081507Y-97744788D01*
X111872960Y-97535876D01*
X112080540Y-97328659D01*
X112229730Y-96969370D01*
X112230069Y-96580337D01*
X112081507Y-96220788D01*
X111806659Y-95945460D01*
X111447370Y-95796270D01*
X111058337Y-95795931D01*
X110698788Y-95944493D01*
X110489876Y-96153039D01*
X110282659Y-95945460D01*
X109923370Y-95796270D01*
X109534337Y-95795931D01*
X109174788Y-95944493D01*
X109055069Y-96064002D01*
X109055069Y-87690337D01*
X108906507Y-87330788D01*
X108824959Y-87249098D01*
X108905540Y-87168659D01*
X109054730Y-86809370D01*
X109055069Y-86420337D01*
X108906507Y-86060788D01*
X108631659Y-85785460D01*
X108272370Y-85636270D01*
X107883337Y-85635931D01*
X107523788Y-85784493D01*
X107248460Y-86059341D01*
X107099270Y-86418630D01*
X107098931Y-86807663D01*
X107247493Y-87167212D01*
X107329040Y-87248901D01*
X107248460Y-87329341D01*
X107099270Y-87688630D01*
X107098931Y-88077663D01*
X107247493Y-88437212D01*
X107522341Y-88712540D01*
X107881630Y-88861730D01*
X108270663Y-88862069D01*
X108630212Y-88713507D01*
X108905540Y-88438659D01*
X109054730Y-88079370D01*
X109055069Y-87690337D01*
X109055069Y-96064002D01*
X108965876Y-96153039D01*
X108758659Y-95945460D01*
X108399370Y-95796270D01*
X108010337Y-95795931D01*
X107650788Y-95944493D01*
X107375460Y-96219341D01*
X107226270Y-96578630D01*
X107225931Y-96967663D01*
X107374493Y-97327212D01*
X107583039Y-97536123D01*
X107375460Y-97743341D01*
X107226270Y-98102630D01*
X107225931Y-98491663D01*
X107374493Y-98851212D01*
X107649341Y-99126540D01*
X108008630Y-99275730D01*
X108397663Y-99276069D01*
X108757212Y-99127507D01*
X108966123Y-98918960D01*
X109173341Y-99126540D01*
X109532630Y-99275730D01*
X109921663Y-99276069D01*
X110281212Y-99127507D01*
X110490123Y-98918960D01*
X110697341Y-99126540D01*
X111056630Y-99275730D01*
X111445663Y-99276069D01*
X111805212Y-99127507D01*
X112080540Y-98852659D01*
X112229730Y-98493370D01*
X112230069Y-98104337D01*
X112230069Y-99868864D01*
X112209370Y-99860270D01*
X111820337Y-99859931D01*
X111460788Y-100008493D01*
X111185460Y-100283341D01*
X111036270Y-100642630D01*
X111035931Y-101031663D01*
X111184493Y-101391212D01*
X111459341Y-101666540D01*
X111818630Y-101815730D01*
X112207663Y-101816069D01*
X112567212Y-101667507D01*
X112842540Y-101392659D01*
X112991730Y-101033370D01*
X112992069Y-100644337D01*
X112992069Y-140285000D01*
X111823687Y-140285000D01*
X111823687Y-128564216D01*
X111659689Y-128167311D01*
X111508644Y-128016002D01*
X111658622Y-127866286D01*
X111823313Y-127469668D01*
X111823687Y-127040216D01*
X111659689Y-126643311D01*
X111356286Y-126339378D01*
X110959668Y-126174687D01*
X110530216Y-126174313D01*
X110133311Y-126338311D01*
X109982002Y-126489355D01*
X109832286Y-126339378D01*
X109435668Y-126174687D01*
X109006216Y-126174313D01*
X108609311Y-126338311D01*
X108305378Y-126641714D01*
X108140687Y-127038332D01*
X108140313Y-127467784D01*
X108304311Y-127864689D01*
X108455355Y-128015997D01*
X108305378Y-128165714D01*
X108140687Y-128562332D01*
X108140313Y-128991784D01*
X108304311Y-129388689D01*
X108607714Y-129692622D01*
X109004332Y-129857313D01*
X109433784Y-129857687D01*
X109830689Y-129693689D01*
X109981997Y-129542644D01*
X110131714Y-129692622D01*
X110528332Y-129857313D01*
X110957784Y-129857687D01*
X111354689Y-129693689D01*
X111658622Y-129390286D01*
X111823313Y-128993668D01*
X111823687Y-128564216D01*
X111823687Y-140285000D01*
X107023069Y-140285000D01*
X107023069Y-86420337D01*
X106874507Y-86060788D01*
X106599659Y-85785460D01*
X106240370Y-85636270D01*
X105851337Y-85635931D01*
X105491788Y-85784493D01*
X105216460Y-86059341D01*
X105067270Y-86418630D01*
X105066931Y-86807663D01*
X105215493Y-87167212D01*
X105490341Y-87442540D01*
X105849630Y-87591730D01*
X106238663Y-87592069D01*
X106598212Y-87443507D01*
X106873540Y-87168659D01*
X107022730Y-86809370D01*
X107023069Y-86420337D01*
X107023069Y-140285000D01*
X105372069Y-140285000D01*
X105372069Y-112455337D01*
X105223507Y-112095788D01*
X104948659Y-111820460D01*
X104589370Y-111671270D01*
X104483069Y-111671177D01*
X104483069Y-89722337D01*
X104334507Y-89362788D01*
X104059659Y-89087460D01*
X103700370Y-88938270D01*
X103311337Y-88937931D01*
X102951788Y-89086493D01*
X102676460Y-89361341D01*
X102527270Y-89720630D01*
X102527177Y-89827022D01*
X102422337Y-89826931D01*
X102062788Y-89975493D01*
X101787460Y-90250341D01*
X101638270Y-90609630D01*
X101637931Y-90998663D01*
X101786493Y-91358212D01*
X102061341Y-91633540D01*
X102420630Y-91782730D01*
X102809663Y-91783069D01*
X103169212Y-91634507D01*
X103444540Y-91359659D01*
X103593730Y-91000370D01*
X103593822Y-90893977D01*
X103698663Y-90894069D01*
X104058212Y-90745507D01*
X104333540Y-90470659D01*
X104482730Y-90111370D01*
X104483069Y-89722337D01*
X104483069Y-111671177D01*
X104200337Y-111670931D01*
X103840788Y-111819493D01*
X103565460Y-112094341D01*
X103416270Y-112453630D01*
X103415931Y-112842663D01*
X103564493Y-113202212D01*
X103839341Y-113477540D01*
X104198630Y-113626730D01*
X104587663Y-113627069D01*
X104947212Y-113478507D01*
X105222540Y-113203659D01*
X105371730Y-112844370D01*
X105372069Y-112455337D01*
X105372069Y-140285000D01*
X102832069Y-140285000D01*
X102832069Y-119059337D01*
X102832069Y-109661337D01*
X102683507Y-109301788D01*
X102408659Y-109026460D01*
X102049370Y-108877270D01*
X101660337Y-108876931D01*
X101300788Y-109025493D01*
X101025460Y-109300341D01*
X100876270Y-109659630D01*
X100875931Y-110048663D01*
X101024493Y-110408212D01*
X101299341Y-110683540D01*
X101658630Y-110832730D01*
X102047663Y-110833069D01*
X102407212Y-110684507D01*
X102682540Y-110409659D01*
X102831730Y-110050370D01*
X102832069Y-109661337D01*
X102832069Y-119059337D01*
X102683507Y-118699788D01*
X102408659Y-118424460D01*
X102049370Y-118275270D01*
X101660337Y-118274931D01*
X101300788Y-118423493D01*
X101025460Y-118698341D01*
X100876270Y-119057630D01*
X100875931Y-119446663D01*
X101024493Y-119806212D01*
X101299341Y-120081540D01*
X101658630Y-120230730D01*
X102047663Y-120231069D01*
X102407212Y-120082507D01*
X102682540Y-119807659D01*
X102831730Y-119448370D01*
X102832069Y-119059337D01*
X102832069Y-140285000D01*
X102578069Y-140285000D01*
X102578069Y-123250337D01*
X102429507Y-122890788D01*
X102154659Y-122615460D01*
X101795370Y-122466270D01*
X101406337Y-122465931D01*
X101046788Y-122614493D01*
X100771460Y-122889341D01*
X100622270Y-123248630D01*
X100621931Y-123637663D01*
X100770493Y-123997212D01*
X101045341Y-124272540D01*
X101404630Y-124421730D01*
X101793663Y-124422069D01*
X102153212Y-124273507D01*
X102428540Y-123998659D01*
X102577730Y-123639370D01*
X102578069Y-123250337D01*
X102578069Y-140285000D01*
X101308069Y-140285000D01*
X101308069Y-137982337D01*
X101159507Y-137622788D01*
X100884659Y-137347460D01*
X100546069Y-137206864D01*
X100546069Y-94929337D01*
X100397507Y-94569788D01*
X100122659Y-94294460D01*
X99763370Y-94145270D01*
X99374337Y-94144931D01*
X99014788Y-94293493D01*
X98739460Y-94568341D01*
X98590270Y-94927630D01*
X98589931Y-95316663D01*
X98738493Y-95676212D01*
X99013341Y-95951540D01*
X99372630Y-96100730D01*
X99761663Y-96101069D01*
X100121212Y-95952507D01*
X100396540Y-95677659D01*
X100545730Y-95318370D01*
X100546069Y-94929337D01*
X100546069Y-137206864D01*
X100525370Y-137198270D01*
X100136337Y-137197931D01*
X100038053Y-137238540D01*
X100038069Y-137220337D01*
X99889507Y-136860788D01*
X99614659Y-136585460D01*
X99255370Y-136436270D01*
X98866337Y-136435931D01*
X98506788Y-136584493D01*
X98231460Y-136859341D01*
X98082270Y-137218630D01*
X98081931Y-137607663D01*
X98230493Y-137967212D01*
X98505341Y-138242540D01*
X98864630Y-138391730D01*
X99253663Y-138392069D01*
X99351946Y-138351459D01*
X99351931Y-138369663D01*
X99500493Y-138729212D01*
X99775341Y-139004540D01*
X100134630Y-139153730D01*
X100523663Y-139154069D01*
X100883212Y-139005507D01*
X101158540Y-138730659D01*
X101307730Y-138371370D01*
X101308069Y-137982337D01*
X101308069Y-140285000D01*
X96716676Y-140285000D01*
X96716676Y-123608043D01*
X96568114Y-123248494D01*
X96329687Y-123009650D01*
X96329687Y-107736216D01*
X96165689Y-107339311D01*
X96014644Y-107188002D01*
X96164622Y-107038286D01*
X96329313Y-106641668D01*
X96329687Y-106212216D01*
X96165689Y-105815311D01*
X96014644Y-105664002D01*
X96164622Y-105514286D01*
X96329313Y-105117668D01*
X96329687Y-104688216D01*
X96165689Y-104291311D01*
X96014644Y-104140002D01*
X96164622Y-103990286D01*
X96329313Y-103593668D01*
X96329687Y-103164216D01*
X96165689Y-102767311D01*
X95862286Y-102463378D01*
X95465668Y-102298687D01*
X95036216Y-102298313D01*
X94639311Y-102462311D01*
X94335378Y-102765714D01*
X94170687Y-103162332D01*
X94170313Y-103591784D01*
X94334311Y-103988689D01*
X94485355Y-104139997D01*
X94335378Y-104289714D01*
X94170687Y-104686332D01*
X94170313Y-105115784D01*
X94334311Y-105512689D01*
X94485355Y-105663997D01*
X94335378Y-105813714D01*
X94170687Y-106210332D01*
X94170313Y-106639784D01*
X94332833Y-107033114D01*
X93941668Y-106870687D01*
X93512216Y-106870313D01*
X93115311Y-107034311D01*
X92811378Y-107337714D01*
X92646687Y-107734332D01*
X92646313Y-108163784D01*
X92810311Y-108560689D01*
X93113714Y-108864622D01*
X93510332Y-109029313D01*
X93939784Y-109029687D01*
X94336689Y-108865689D01*
X94487997Y-108714644D01*
X94637714Y-108864622D01*
X95034332Y-109029313D01*
X95463784Y-109029687D01*
X95860689Y-108865689D01*
X96164622Y-108562286D01*
X96329313Y-108165668D01*
X96329687Y-107736216D01*
X96329687Y-123009650D01*
X96293266Y-122973166D01*
X95933977Y-122823976D01*
X95544944Y-122823637D01*
X95185395Y-122972199D01*
X94910067Y-123247047D01*
X94760877Y-123606336D01*
X94760538Y-123995369D01*
X94909100Y-124354918D01*
X95183948Y-124630246D01*
X95543237Y-124779436D01*
X95932270Y-124779775D01*
X96291819Y-124631213D01*
X96567147Y-124356365D01*
X96716337Y-123997076D01*
X96716676Y-123608043D01*
X96716676Y-140285000D01*
X91910069Y-140285000D01*
X91910069Y-93786337D01*
X91761507Y-93426788D01*
X91486659Y-93151460D01*
X91127370Y-93002270D01*
X90738337Y-93001931D01*
X90378788Y-93150493D01*
X90103460Y-93425341D01*
X89954270Y-93784630D01*
X89953931Y-94173663D01*
X90102493Y-94533212D01*
X90377341Y-94808540D01*
X90736630Y-94957730D01*
X91125663Y-94958069D01*
X91485212Y-94809507D01*
X91760540Y-94534659D01*
X91909730Y-94175370D01*
X91910069Y-93786337D01*
X91910069Y-140285000D01*
X90894069Y-140285000D01*
X90894069Y-119694337D01*
X90745507Y-119334788D01*
X90470659Y-119059460D01*
X90233687Y-118961060D01*
X90233687Y-112816216D01*
X90069689Y-112419311D01*
X89766286Y-112115378D01*
X89624069Y-112056324D01*
X89624069Y-95818337D01*
X89475507Y-95458788D01*
X89200659Y-95183460D01*
X88841370Y-95034270D01*
X88452337Y-95033931D01*
X88092788Y-95182493D01*
X87817460Y-95457341D01*
X87757035Y-95602858D01*
X87697507Y-95458788D01*
X87422659Y-95183460D01*
X87063370Y-95034270D01*
X86674337Y-95033931D01*
X86314788Y-95182493D01*
X86039460Y-95457341D01*
X85979035Y-95602858D01*
X85919507Y-95458788D01*
X85644659Y-95183460D01*
X85285370Y-95034270D01*
X84896337Y-95033931D01*
X84536788Y-95182493D01*
X84261460Y-95457341D01*
X84112270Y-95816630D01*
X84111931Y-96205663D01*
X84260493Y-96565212D01*
X84535341Y-96840540D01*
X84894630Y-96989730D01*
X85283663Y-96990069D01*
X85643212Y-96841507D01*
X85918540Y-96566659D01*
X85978964Y-96421141D01*
X86038493Y-96565212D01*
X86313341Y-96840540D01*
X86672630Y-96989730D01*
X87061663Y-96990069D01*
X87421212Y-96841507D01*
X87696540Y-96566659D01*
X87756964Y-96421141D01*
X87816493Y-96565212D01*
X88091341Y-96840540D01*
X88450630Y-96989730D01*
X88839663Y-96990069D01*
X89199212Y-96841507D01*
X89474540Y-96566659D01*
X89623730Y-96207370D01*
X89624069Y-95818337D01*
X89624069Y-112056324D01*
X89369668Y-111950687D01*
X88940216Y-111950313D01*
X88543311Y-112114311D01*
X88239378Y-112417714D01*
X88074687Y-112814332D01*
X88074313Y-113243784D01*
X88238311Y-113640689D01*
X88541714Y-113944622D01*
X88938332Y-114109313D01*
X89367784Y-114109687D01*
X89764689Y-113945689D01*
X90068622Y-113642286D01*
X90233313Y-113245668D01*
X90233687Y-112816216D01*
X90233687Y-118961060D01*
X90111370Y-118910270D01*
X89722337Y-118909931D01*
X89362788Y-119058493D01*
X89087460Y-119333341D01*
X88938270Y-119692630D01*
X88937931Y-120081663D01*
X89086493Y-120441212D01*
X89361341Y-120716540D01*
X89720630Y-120865730D01*
X90109663Y-120866069D01*
X90469212Y-120717507D01*
X90744540Y-120442659D01*
X90893730Y-120083370D01*
X90894069Y-119694337D01*
X90894069Y-140285000D01*
X84544069Y-140285000D01*
X84544069Y-134045337D01*
X84395507Y-133685788D01*
X84120659Y-133410460D01*
X83761370Y-133261270D01*
X83372337Y-133260931D01*
X83012788Y-133409493D01*
X82737460Y-133684341D01*
X82588270Y-134043630D01*
X82587931Y-134432663D01*
X82736493Y-134792212D01*
X83011341Y-135067540D01*
X83370630Y-135216730D01*
X83759663Y-135217069D01*
X84119212Y-135068507D01*
X84394540Y-134793659D01*
X84543730Y-134434370D01*
X84544069Y-134045337D01*
X84544069Y-140285000D01*
X83794600Y-140285000D01*
X83794600Y-139140785D01*
X83794600Y-138989214D01*
X83794600Y-138271250D01*
X83794600Y-137826750D01*
X83794600Y-137108786D01*
X83794600Y-136957215D01*
X83736596Y-136817181D01*
X83629420Y-136710004D01*
X83489386Y-136652000D01*
X82772250Y-136652000D01*
X82677000Y-136747250D01*
X82677000Y-137922000D01*
X83699350Y-137922000D01*
X83794600Y-137826750D01*
X83794600Y-138271250D01*
X83699350Y-138176000D01*
X82677000Y-138176000D01*
X82677000Y-139350750D01*
X82772250Y-139446000D01*
X83489386Y-139446000D01*
X83629420Y-139387996D01*
X83736596Y-139280819D01*
X83794600Y-139140785D01*
X83794600Y-140285000D01*
X82423000Y-140285000D01*
X82423000Y-139350750D01*
X82423000Y-138176000D01*
X82403000Y-138176000D01*
X82403000Y-137922000D01*
X82423000Y-137922000D01*
X82423000Y-136747250D01*
X82327750Y-136652000D01*
X81610614Y-136652000D01*
X81470580Y-136710004D01*
X81363404Y-136817181D01*
X81305400Y-136957215D01*
X81305400Y-137108786D01*
X81305400Y-137157379D01*
X81069670Y-136804585D01*
X80583489Y-136479729D01*
X80010000Y-136365655D01*
X79436511Y-136479729D01*
X78950330Y-136804585D01*
X78740000Y-137119365D01*
X78529670Y-136804585D01*
X78043489Y-136479729D01*
X77470000Y-136365655D01*
X77343550Y-136390807D01*
X77343550Y-131705224D01*
X76861204Y-130537857D01*
X76162069Y-129837500D01*
X76162069Y-125663337D01*
X76013507Y-125303788D01*
X75738659Y-125028460D01*
X75379370Y-124879270D01*
X74990337Y-124878931D01*
X74630788Y-125027493D01*
X74383854Y-125273995D01*
X74384069Y-125028337D01*
X74309078Y-124846846D01*
X74467212Y-124781507D01*
X74742540Y-124506659D01*
X74891730Y-124147370D01*
X74892069Y-123758337D01*
X74743507Y-123398788D01*
X74661959Y-123317098D01*
X74742540Y-123236659D01*
X74891730Y-122877370D01*
X74892069Y-122488337D01*
X74743507Y-122128788D01*
X74509352Y-121894224D01*
X74767217Y-121636810D01*
X74916407Y-121277521D01*
X74916746Y-120888488D01*
X74790129Y-120582051D01*
X74891730Y-120337370D01*
X74892069Y-119948337D01*
X74743507Y-119588788D01*
X74468659Y-119313460D01*
X74109370Y-119164270D01*
X73876069Y-119164066D01*
X73876069Y-115122337D01*
X73876069Y-112963337D01*
X73727507Y-112603788D01*
X73452659Y-112328460D01*
X73093370Y-112179270D01*
X72704337Y-112178931D01*
X72606069Y-112219534D01*
X72606069Y-98612337D01*
X72457507Y-98252788D01*
X72182659Y-97977460D01*
X71823370Y-97828270D01*
X71434337Y-97827931D01*
X71074788Y-97976493D01*
X70799460Y-98251341D01*
X70650270Y-98610630D01*
X70649931Y-98999663D01*
X70798493Y-99359212D01*
X71073341Y-99634540D01*
X71432630Y-99783730D01*
X71821663Y-99784069D01*
X72181212Y-99635507D01*
X72456540Y-99360659D01*
X72605730Y-99001370D01*
X72606069Y-98612337D01*
X72606069Y-112219534D01*
X72344788Y-112327493D01*
X72069460Y-112602341D01*
X71920270Y-112961630D01*
X71919931Y-113350663D01*
X72068493Y-113710212D01*
X72343341Y-113985540D01*
X72702630Y-114134730D01*
X73091663Y-114135069D01*
X73451212Y-113986507D01*
X73726540Y-113711659D01*
X73875730Y-113352370D01*
X73876069Y-112963337D01*
X73876069Y-115122337D01*
X73727507Y-114762788D01*
X73452659Y-114487460D01*
X73093370Y-114338270D01*
X72704337Y-114337931D01*
X72344788Y-114486493D01*
X72069460Y-114761341D01*
X71920270Y-115120630D01*
X71919931Y-115509663D01*
X72068493Y-115869212D01*
X72343341Y-116144540D01*
X72702630Y-116293730D01*
X73091663Y-116294069D01*
X73451212Y-116145507D01*
X73726540Y-115870659D01*
X73875730Y-115511370D01*
X73876069Y-115122337D01*
X73876069Y-119164066D01*
X73720337Y-119163931D01*
X73360788Y-119312493D01*
X73085460Y-119587341D01*
X72936270Y-119946630D01*
X72935931Y-120335663D01*
X73062547Y-120642099D01*
X72960947Y-120886781D01*
X72960608Y-121275814D01*
X73109170Y-121635363D01*
X73343324Y-121869926D01*
X73085460Y-122127341D01*
X72936270Y-122486630D01*
X72935931Y-122875663D01*
X73084493Y-123235212D01*
X73166040Y-123316901D01*
X73085460Y-123397341D01*
X72936270Y-123756630D01*
X72935931Y-124145663D01*
X73010921Y-124327153D01*
X72852788Y-124392493D01*
X72577460Y-124667341D01*
X72428270Y-125026630D01*
X72427931Y-125415663D01*
X72576493Y-125775212D01*
X72851341Y-126050540D01*
X73210630Y-126199730D01*
X73599663Y-126200069D01*
X73959212Y-126051507D01*
X74206145Y-125805004D01*
X74205931Y-126050663D01*
X74354493Y-126410212D01*
X74629341Y-126685540D01*
X74988630Y-126834730D01*
X75377663Y-126835069D01*
X75737212Y-126686507D01*
X76012540Y-126411659D01*
X76161730Y-126052370D01*
X76162069Y-125663337D01*
X76162069Y-129837500D01*
X75968841Y-129643935D01*
X74802317Y-129159552D01*
X73539224Y-129158450D01*
X72371857Y-129640796D01*
X71477935Y-130533159D01*
X71336069Y-130874810D01*
X71336069Y-111820337D01*
X71187507Y-111460788D01*
X70912659Y-111185460D01*
X70553370Y-111036270D01*
X70164337Y-111035931D01*
X69804788Y-111184493D01*
X69529460Y-111459341D01*
X69380270Y-111818630D01*
X69379931Y-112207663D01*
X69528493Y-112567212D01*
X69803341Y-112842540D01*
X70162630Y-112991730D01*
X70551663Y-112992069D01*
X70911212Y-112843507D01*
X71186540Y-112568659D01*
X71335730Y-112209370D01*
X71336069Y-111820337D01*
X71336069Y-130874810D01*
X70993552Y-131699683D01*
X70992450Y-132962776D01*
X71474796Y-134130143D01*
X72367159Y-135024065D01*
X73533683Y-135508448D01*
X74796776Y-135509550D01*
X75964143Y-135027204D01*
X76858065Y-134134841D01*
X77342448Y-132968317D01*
X77343550Y-131705224D01*
X77343550Y-136390807D01*
X76896511Y-136479729D01*
X76410330Y-136804585D01*
X76200000Y-137119365D01*
X75989670Y-136804585D01*
X75503489Y-136479729D01*
X74930000Y-136365655D01*
X74356511Y-136479729D01*
X73870330Y-136804585D01*
X73660000Y-137119365D01*
X73449670Y-136804585D01*
X72963489Y-136479729D01*
X72390000Y-136365655D01*
X71816511Y-136479729D01*
X71330330Y-136804585D01*
X71120000Y-137119365D01*
X70909670Y-136804585D01*
X70423489Y-136479729D01*
X69850000Y-136365655D01*
X69276511Y-136479729D01*
X68790330Y-136804585D01*
X68542069Y-137176133D01*
X68542069Y-98612337D01*
X68393507Y-98252788D01*
X68287640Y-98146736D01*
X68287640Y-90650060D01*
X68287640Y-87149940D01*
X68240663Y-86907817D01*
X68100873Y-86695013D01*
X67889840Y-86552563D01*
X67640200Y-86502500D01*
X64140080Y-86502500D01*
X63897957Y-86549477D01*
X63685153Y-86689267D01*
X63542703Y-86900300D01*
X63492640Y-87149940D01*
X63492640Y-90650060D01*
X63539617Y-90892183D01*
X63679407Y-91104987D01*
X63890440Y-91247437D01*
X64140080Y-91297500D01*
X67640200Y-91297500D01*
X67882323Y-91250523D01*
X68095127Y-91110733D01*
X68237577Y-90899700D01*
X68287640Y-90650060D01*
X68287640Y-98146736D01*
X68118659Y-97977460D01*
X67759370Y-97828270D01*
X67370337Y-97827931D01*
X67010788Y-97976493D01*
X66735460Y-98251341D01*
X66586270Y-98610630D01*
X66585931Y-98999663D01*
X66734493Y-99359212D01*
X67009341Y-99634540D01*
X67368630Y-99783730D01*
X67757663Y-99784069D01*
X68117212Y-99635507D01*
X68392540Y-99360659D01*
X68541730Y-99001370D01*
X68542069Y-98612337D01*
X68542069Y-137176133D01*
X68465474Y-137290766D01*
X68439268Y-137422509D01*
X68385570Y-137267280D01*
X68062867Y-136903581D01*
X68034069Y-136889640D01*
X68034069Y-131886337D01*
X67885507Y-131526788D01*
X67780069Y-131421165D01*
X67780069Y-125536337D01*
X67631507Y-125176788D01*
X67502944Y-125048000D01*
X67502944Y-115099212D01*
X67354382Y-114739663D01*
X67079534Y-114464335D01*
X66720245Y-114315145D01*
X66331212Y-114314806D01*
X66002069Y-114450804D01*
X66002069Y-102168337D01*
X65853507Y-101808788D01*
X65578659Y-101533460D01*
X65219370Y-101384270D01*
X65021460Y-101384097D01*
X65021460Y-95424845D01*
X65021460Y-95273274D01*
X65021460Y-93821250D01*
X65021460Y-93376750D01*
X65021460Y-91924726D01*
X65021460Y-91773155D01*
X64963456Y-91633121D01*
X64856280Y-91525944D01*
X64716246Y-91467940D01*
X63112650Y-91467940D01*
X63017400Y-91563190D01*
X63017400Y-93472000D01*
X64926210Y-93472000D01*
X65021460Y-93376750D01*
X65021460Y-93821250D01*
X64926210Y-93726000D01*
X63017400Y-93726000D01*
X63017400Y-95634810D01*
X63112650Y-95730060D01*
X64716246Y-95730060D01*
X64856280Y-95672056D01*
X64963456Y-95564879D01*
X65021460Y-95424845D01*
X65021460Y-101384097D01*
X64830337Y-101383931D01*
X64470788Y-101532493D01*
X64195460Y-101807341D01*
X64046270Y-102166630D01*
X64045931Y-102555663D01*
X64194493Y-102915212D01*
X64469341Y-103190540D01*
X64828630Y-103339730D01*
X65217663Y-103340069D01*
X65577212Y-103191507D01*
X65852540Y-102916659D01*
X66001730Y-102557370D01*
X66002069Y-102168337D01*
X66002069Y-114450804D01*
X65971663Y-114463368D01*
X65696335Y-114738216D01*
X65547145Y-115097505D01*
X65546806Y-115486538D01*
X65695368Y-115846087D01*
X65970216Y-116121415D01*
X66329505Y-116270605D01*
X66718538Y-116270944D01*
X67078087Y-116122382D01*
X67353415Y-115847534D01*
X67502605Y-115488245D01*
X67502944Y-115099212D01*
X67502944Y-125048000D01*
X67356659Y-124901460D01*
X66997370Y-124752270D01*
X66608337Y-124751931D01*
X66248788Y-124900493D01*
X65973460Y-125175341D01*
X65824270Y-125534630D01*
X65823931Y-125923663D01*
X65972493Y-126283212D01*
X66247341Y-126558540D01*
X66606630Y-126707730D01*
X66995663Y-126708069D01*
X67355212Y-126559507D01*
X67630540Y-126284659D01*
X67779730Y-125925370D01*
X67780069Y-125536337D01*
X67780069Y-131421165D01*
X67610659Y-131251460D01*
X67251370Y-131102270D01*
X66862337Y-131101931D01*
X66502788Y-131250493D01*
X66227460Y-131525341D01*
X66078270Y-131884630D01*
X66077931Y-132273663D01*
X66226493Y-132633212D01*
X66501341Y-132908540D01*
X66860630Y-133057730D01*
X67249663Y-133058069D01*
X67609212Y-132909507D01*
X67884540Y-132634659D01*
X68033730Y-132275370D01*
X68034069Y-131886337D01*
X68034069Y-136889640D01*
X67629118Y-136693607D01*
X67437000Y-136754288D01*
X67437000Y-137922000D01*
X67457000Y-137922000D01*
X67457000Y-138176000D01*
X67437000Y-138176000D01*
X67437000Y-139343712D01*
X67629118Y-139404393D01*
X68062867Y-139194419D01*
X68385570Y-138830720D01*
X68439268Y-138675490D01*
X68465474Y-138807234D01*
X68790330Y-139293415D01*
X69276511Y-139618271D01*
X69850000Y-139732345D01*
X70423489Y-139618271D01*
X70909670Y-139293415D01*
X71120000Y-138978634D01*
X71330330Y-139293415D01*
X71816511Y-139618271D01*
X72390000Y-139732345D01*
X72963489Y-139618271D01*
X73449670Y-139293415D01*
X73660000Y-138978634D01*
X73870330Y-139293415D01*
X74356511Y-139618271D01*
X74930000Y-139732345D01*
X75503489Y-139618271D01*
X75989670Y-139293415D01*
X76200000Y-138978634D01*
X76410330Y-139293415D01*
X76896511Y-139618271D01*
X77470000Y-139732345D01*
X78043489Y-139618271D01*
X78529670Y-139293415D01*
X78740000Y-138978634D01*
X78950330Y-139293415D01*
X79436511Y-139618271D01*
X80010000Y-139732345D01*
X80583489Y-139618271D01*
X81069670Y-139293415D01*
X81305400Y-138940620D01*
X81305400Y-138989214D01*
X81305400Y-139140785D01*
X81363404Y-139280819D01*
X81470580Y-139387996D01*
X81610614Y-139446000D01*
X82327750Y-139446000D01*
X82423000Y-139350750D01*
X82423000Y-140285000D01*
X67183000Y-140285000D01*
X67183000Y-139343712D01*
X67183000Y-138176000D01*
X67163000Y-138176000D01*
X67163000Y-137922000D01*
X67183000Y-137922000D01*
X67183000Y-136754288D01*
X66990882Y-136693607D01*
X66557133Y-136903581D01*
X66234430Y-137267280D01*
X66180731Y-137422509D01*
X66154526Y-137290766D01*
X65829670Y-136804585D01*
X65343489Y-136479729D01*
X64770000Y-136365655D01*
X64224069Y-136474247D01*
X64224069Y-122234337D01*
X64075507Y-121874788D01*
X63970069Y-121769165D01*
X63970069Y-113598337D01*
X63821507Y-113238788D01*
X63546659Y-112963460D01*
X63187370Y-112814270D01*
X62798337Y-112813931D01*
X62763400Y-112828366D01*
X62763400Y-95634810D01*
X62763400Y-93726000D01*
X62763400Y-93472000D01*
X62763400Y-91563190D01*
X62668150Y-91467940D01*
X62021720Y-91467940D01*
X62021720Y-90725845D01*
X62021720Y-90574274D01*
X62021720Y-89122250D01*
X62021720Y-88677750D01*
X62021720Y-87225726D01*
X62021720Y-87074155D01*
X61963716Y-86934121D01*
X61856540Y-86826944D01*
X61716506Y-86768940D01*
X60112910Y-86768940D01*
X60017660Y-86864190D01*
X60017660Y-88773000D01*
X61926470Y-88773000D01*
X62021720Y-88677750D01*
X62021720Y-89122250D01*
X61926470Y-89027000D01*
X60017660Y-89027000D01*
X60017660Y-90935810D01*
X60112910Y-91031060D01*
X61716506Y-91031060D01*
X61856540Y-90973056D01*
X61963716Y-90865879D01*
X62021720Y-90725845D01*
X62021720Y-91467940D01*
X61064554Y-91467940D01*
X60924520Y-91525944D01*
X60817344Y-91633121D01*
X60759340Y-91773155D01*
X60759340Y-91924726D01*
X60759340Y-93376750D01*
X60854590Y-93472000D01*
X62763400Y-93472000D01*
X62763400Y-93726000D01*
X60854590Y-93726000D01*
X60759340Y-93821250D01*
X60759340Y-95273274D01*
X60759340Y-95424845D01*
X60817344Y-95564879D01*
X60924520Y-95672056D01*
X61064554Y-95730060D01*
X62668150Y-95730060D01*
X62763400Y-95634810D01*
X62763400Y-112828366D01*
X62438788Y-112962493D01*
X62163460Y-113237341D01*
X62014270Y-113596630D01*
X62013931Y-113985663D01*
X62162493Y-114345212D01*
X62437341Y-114620540D01*
X62796630Y-114769730D01*
X63185663Y-114770069D01*
X63545212Y-114621507D01*
X63820540Y-114346659D01*
X63969730Y-113987370D01*
X63970069Y-113598337D01*
X63970069Y-121769165D01*
X63800659Y-121599460D01*
X63441370Y-121450270D01*
X63052337Y-121449931D01*
X62692788Y-121598493D01*
X62483876Y-121807039D01*
X62276659Y-121599460D01*
X61917370Y-121450270D01*
X61528337Y-121449931D01*
X61176069Y-121595484D01*
X61176069Y-115122337D01*
X61027507Y-114762788D01*
X60752659Y-114487460D01*
X60393370Y-114338270D01*
X60004337Y-114337931D01*
X59644788Y-114486493D01*
X59369460Y-114761341D01*
X59220270Y-115120630D01*
X59219931Y-115509663D01*
X59368493Y-115869212D01*
X59643341Y-116144540D01*
X60002630Y-116293730D01*
X60391663Y-116294069D01*
X60751212Y-116145507D01*
X61026540Y-115870659D01*
X61175730Y-115511370D01*
X61176069Y-115122337D01*
X61176069Y-121595484D01*
X61168788Y-121598493D01*
X60893460Y-121873341D01*
X60744270Y-122232630D01*
X60743931Y-122621663D01*
X60892493Y-122981212D01*
X61167341Y-123256540D01*
X61526630Y-123405730D01*
X61915663Y-123406069D01*
X62275212Y-123257507D01*
X62484123Y-123048960D01*
X62691341Y-123256540D01*
X63050630Y-123405730D01*
X63439663Y-123406069D01*
X63799212Y-123257507D01*
X64074540Y-122982659D01*
X64223730Y-122623370D01*
X64224069Y-122234337D01*
X64224069Y-136474247D01*
X64196511Y-136479729D01*
X63710330Y-136804585D01*
X63500000Y-137119365D01*
X63289670Y-136804585D01*
X62803489Y-136479729D01*
X62230000Y-136365655D01*
X61656511Y-136479729D01*
X61176069Y-136800750D01*
X61176069Y-131886337D01*
X61176069Y-123758337D01*
X61027507Y-123398788D01*
X60752659Y-123123460D01*
X60393370Y-122974270D01*
X60004337Y-122973931D01*
X59644788Y-123122493D01*
X59369460Y-123397341D01*
X59220270Y-123756630D01*
X59219931Y-124145663D01*
X59368493Y-124505212D01*
X59643341Y-124780540D01*
X60002630Y-124929730D01*
X60391663Y-124930069D01*
X60751212Y-124781507D01*
X61026540Y-124506659D01*
X61175730Y-124147370D01*
X61176069Y-123758337D01*
X61176069Y-131886337D01*
X61027507Y-131526788D01*
X60752659Y-131251460D01*
X60393370Y-131102270D01*
X60004337Y-131101931D01*
X59644788Y-131250493D01*
X59369460Y-131525341D01*
X59220270Y-131884630D01*
X59219931Y-132273663D01*
X59368493Y-132633212D01*
X59643341Y-132908540D01*
X60002630Y-133057730D01*
X60391663Y-133058069D01*
X60751212Y-132909507D01*
X61026540Y-132634659D01*
X61175730Y-132275370D01*
X61176069Y-131886337D01*
X61176069Y-136800750D01*
X61170330Y-136804585D01*
X60960000Y-137119365D01*
X60749670Y-136804585D01*
X60263489Y-136479729D01*
X59690000Y-136365655D01*
X59116511Y-136479729D01*
X58630330Y-136804585D01*
X58305474Y-137290766D01*
X58191400Y-137864255D01*
X58191400Y-138233745D01*
X58305474Y-138807234D01*
X58630330Y-139293415D01*
X59116511Y-139618271D01*
X59690000Y-139732345D01*
X60263489Y-139618271D01*
X60749670Y-139293415D01*
X60960000Y-138978634D01*
X61170330Y-139293415D01*
X61656511Y-139618271D01*
X62230000Y-139732345D01*
X62803489Y-139618271D01*
X63289670Y-139293415D01*
X63500000Y-138978634D01*
X63710330Y-139293415D01*
X64196511Y-139618271D01*
X64770000Y-139732345D01*
X65343489Y-139618271D01*
X65829670Y-139293415D01*
X66154526Y-138807234D01*
X66180731Y-138675490D01*
X66234430Y-138830720D01*
X66557133Y-139194419D01*
X66990882Y-139404393D01*
X67183000Y-139343712D01*
X67183000Y-140285000D01*
X56565000Y-140285000D01*
X56565000Y-100679843D01*
X56742796Y-101110143D01*
X57635159Y-102004065D01*
X58801683Y-102488448D01*
X60064776Y-102489550D01*
X61232143Y-102007204D01*
X62126065Y-101114841D01*
X62610448Y-99948317D01*
X62611550Y-98685224D01*
X62129204Y-97517857D01*
X61236841Y-96623935D01*
X60070317Y-96139552D01*
X59763660Y-96139284D01*
X59763660Y-90935810D01*
X59763660Y-89027000D01*
X59763660Y-88773000D01*
X59763660Y-86864190D01*
X59668410Y-86768940D01*
X58064814Y-86768940D01*
X57924780Y-86826944D01*
X57817604Y-86934121D01*
X57759600Y-87074155D01*
X57759600Y-87225726D01*
X57759600Y-88677750D01*
X57854850Y-88773000D01*
X59763660Y-88773000D01*
X59763660Y-89027000D01*
X57854850Y-89027000D01*
X57759600Y-89122250D01*
X57759600Y-90574274D01*
X57759600Y-90725845D01*
X57817604Y-90865879D01*
X57924780Y-90973056D01*
X58064814Y-91031060D01*
X59668410Y-91031060D01*
X59763660Y-90935810D01*
X59763660Y-96139284D01*
X58807224Y-96138450D01*
X57639857Y-96620796D01*
X56745935Y-97513159D01*
X56565000Y-97948898D01*
X56565000Y-83235000D01*
X132492632Y-83235000D01*
X132183935Y-83543159D01*
X131699552Y-84709683D01*
X131698450Y-85972776D01*
X132180796Y-87140143D01*
X133073159Y-88034065D01*
X134239683Y-88518448D01*
X135502776Y-88519550D01*
X136670143Y-88037204D01*
X137237000Y-87471335D01*
X137237000Y-102186748D01*
X137157019Y-102133106D01*
X136977414Y-102312711D01*
X136977414Y-101953501D01*
X136821961Y-101721721D01*
X136177454Y-101479164D01*
X135489185Y-101501713D01*
X134958039Y-101721721D01*
X134802586Y-101953501D01*
X135890000Y-103040915D01*
X136977414Y-101953501D01*
X136977414Y-102312711D01*
X136069605Y-103220520D01*
X137157019Y-104307934D01*
X137237000Y-104254291D01*
X137237000Y-114185708D01*
X137157019Y-114132066D01*
X136977414Y-114311671D01*
X136977414Y-113952461D01*
X136977414Y-104487539D01*
X135890000Y-103400125D01*
X135710395Y-103579730D01*
X135710395Y-103220520D01*
X134622981Y-102133106D01*
X134391201Y-102288559D01*
X134148644Y-102933066D01*
X134171193Y-103621335D01*
X134391201Y-104152481D01*
X134622981Y-104307934D01*
X135710395Y-103220520D01*
X135710395Y-103579730D01*
X134802586Y-104487539D01*
X134958039Y-104719319D01*
X135602546Y-104961876D01*
X136290815Y-104939327D01*
X136821961Y-104719319D01*
X136977414Y-104487539D01*
X136977414Y-113952461D01*
X136821961Y-113720681D01*
X136177454Y-113478124D01*
X135489185Y-113500673D01*
X134958039Y-113720681D01*
X134802586Y-113952461D01*
X135890000Y-115039875D01*
X136977414Y-113952461D01*
X136977414Y-114311671D01*
X136069605Y-115219480D01*
X137157019Y-116306894D01*
X137237000Y-116253251D01*
X137237000Y-136048156D01*
X137237000Y-136048156D01*
G37*
X137237000Y-136048156D02*
X137059204Y-135617857D01*
X136977414Y-135535924D01*
X136977414Y-116486499D01*
X135890000Y-115399085D01*
X135710395Y-115578690D01*
X135710395Y-115219480D01*
X134622981Y-114132066D01*
X134587222Y-114156049D01*
X134587222Y-110213339D01*
X134374990Y-109699697D01*
X134346071Y-109670727D01*
X134346071Y-108096945D01*
X134314302Y-107643343D01*
X134201836Y-107371824D01*
X134031140Y-107288445D01*
X133851535Y-107468050D01*
X133851535Y-107108840D01*
X133768156Y-106938144D01*
X133336925Y-106793909D01*
X132883323Y-106825678D01*
X132611804Y-106938144D01*
X132528425Y-107108840D01*
X133189980Y-107770395D01*
X133851535Y-107108840D01*
X133851535Y-107468050D01*
X133369585Y-107950000D01*
X134031140Y-108611555D01*
X134201836Y-108528176D01*
X134346071Y-108096945D01*
X134346071Y-109670727D01*
X133982350Y-109306371D01*
X133469080Y-109093243D01*
X133229466Y-109093033D01*
X133496637Y-109074322D01*
X133768156Y-108961856D01*
X133851535Y-108791160D01*
X133189980Y-108129605D01*
X132528425Y-108791160D01*
X132611804Y-108961856D01*
X133003407Y-109092836D01*
X132913319Y-109092758D01*
X132399677Y-109304990D01*
X132190469Y-109513832D01*
X131983370Y-109306371D01*
X131775487Y-109220050D01*
X131981303Y-109135010D01*
X132374629Y-108742370D01*
X132485846Y-108474528D01*
X133010375Y-107950000D01*
X132485810Y-107425435D01*
X132376010Y-107159697D01*
X131983370Y-106766371D01*
X131470100Y-106553243D01*
X130914339Y-106552758D01*
X130400697Y-106764990D01*
X130007371Y-107157630D01*
X129794243Y-107670900D01*
X129793758Y-108226661D01*
X130005990Y-108740303D01*
X130398630Y-109133629D01*
X130606512Y-109219949D01*
X130400697Y-109304990D01*
X130007371Y-109697630D01*
X129794243Y-110210900D01*
X129793758Y-110766661D01*
X130005990Y-111280303D01*
X130398630Y-111673629D01*
X130911900Y-111886757D01*
X131467661Y-111887242D01*
X131981303Y-111675010D01*
X132190510Y-111466167D01*
X132397610Y-111673629D01*
X132910880Y-111886757D01*
X133466641Y-111887242D01*
X133980283Y-111675010D01*
X134373609Y-111282370D01*
X134586737Y-110769100D01*
X134587222Y-110213339D01*
X134587222Y-114156049D01*
X134391201Y-114287519D01*
X134148644Y-114932026D01*
X134171193Y-115620295D01*
X134391201Y-116151441D01*
X134622981Y-116306894D01*
X135710395Y-115219480D01*
X135710395Y-115578690D01*
X134802586Y-116486499D01*
X134958039Y-116718279D01*
X135602546Y-116960836D01*
X136290815Y-116938287D01*
X136821961Y-116718279D01*
X136977414Y-116486499D01*
X136977414Y-135535924D01*
X136166841Y-134723935D01*
X135000317Y-134239552D01*
X133737224Y-134238450D01*
X132569857Y-134720796D01*
X131675935Y-135613159D01*
X131191552Y-136779683D01*
X131190450Y-138042776D01*
X131672796Y-139210143D01*
X132565159Y-140104065D01*
X133000898Y-140285000D01*
X127978069Y-140285000D01*
X127978069Y-105724337D01*
X127829507Y-105364788D01*
X127620960Y-105155876D01*
X127828540Y-104948659D01*
X127977730Y-104589370D01*
X127978069Y-104200337D01*
X127829507Y-103840788D01*
X127620960Y-103631876D01*
X127828540Y-103424659D01*
X127977730Y-103065370D01*
X127978069Y-102676337D01*
X127829507Y-102316788D01*
X127554659Y-102041460D01*
X127195370Y-101892270D01*
X126806337Y-101891931D01*
X126446788Y-102040493D01*
X126237876Y-102249039D01*
X126030659Y-102041460D01*
X125671370Y-101892270D01*
X125282337Y-101891931D01*
X124922788Y-102040493D01*
X124647460Y-102315341D01*
X124498270Y-102674630D01*
X124497931Y-103063663D01*
X124646493Y-103423212D01*
X124855039Y-103632123D01*
X124647460Y-103839341D01*
X124498270Y-104198630D01*
X124497931Y-104587663D01*
X124646493Y-104947212D01*
X124865527Y-105166628D01*
X124668471Y-105363341D01*
X124519281Y-105722630D01*
X124518942Y-106111663D01*
X124667504Y-106471212D01*
X124942352Y-106746540D01*
X125301641Y-106895730D01*
X125690674Y-106896069D01*
X126050223Y-106747507D01*
X126248610Y-106549465D01*
X126445341Y-106746540D01*
X126804630Y-106895730D01*
X127193663Y-106896069D01*
X127553212Y-106747507D01*
X127828540Y-106472659D01*
X127977730Y-106113370D01*
X127978069Y-105724337D01*
X127978069Y-140285000D01*
X127592220Y-140285000D01*
X127592220Y-135725070D01*
X127592220Y-135038930D01*
X127438174Y-134667003D01*
X127073199Y-134262142D01*
X126581072Y-134027769D01*
X126365000Y-134086024D01*
X126365000Y-135255000D01*
X127533540Y-135255000D01*
X127592220Y-135038930D01*
X127592220Y-135725070D01*
X127533540Y-135509000D01*
X126365000Y-135509000D01*
X126365000Y-136677976D01*
X126581072Y-136736231D01*
X127073199Y-136501858D01*
X127438174Y-136096997D01*
X127592220Y-135725070D01*
X127592220Y-140285000D01*
X126111000Y-140285000D01*
X126111000Y-136677976D01*
X126111000Y-135509000D01*
X126091000Y-135509000D01*
X126091000Y-135255000D01*
X126111000Y-135255000D01*
X126111000Y-134086024D01*
X125894928Y-134027769D01*
X125402801Y-134262142D01*
X125352183Y-134318291D01*
X125314463Y-134123877D01*
X125174673Y-133911073D01*
X124963640Y-133768623D01*
X124714000Y-133718560D01*
X124015687Y-133718560D01*
X124015687Y-122976216D01*
X123851689Y-122579311D01*
X123548286Y-122275378D01*
X123151668Y-122110687D01*
X122999687Y-122110554D01*
X122999687Y-112689216D01*
X122835689Y-112292311D01*
X122532286Y-111988378D01*
X122135668Y-111823687D01*
X121706216Y-111823313D01*
X121374069Y-111960553D01*
X121374069Y-104708337D01*
X121225507Y-104348788D01*
X120950659Y-104073460D01*
X120805141Y-104013035D01*
X120949212Y-103953507D01*
X121224540Y-103678659D01*
X121373730Y-103319370D01*
X121374069Y-102930337D01*
X121225507Y-102570788D01*
X120950659Y-102295460D01*
X120866069Y-102260335D01*
X120866069Y-100644337D01*
X120717507Y-100284788D01*
X120442659Y-100009460D01*
X120083370Y-99860270D01*
X119694337Y-99859931D01*
X119334788Y-100008493D01*
X119059460Y-100283341D01*
X118999035Y-100428858D01*
X118939507Y-100284788D01*
X118664659Y-100009460D01*
X118305370Y-99860270D01*
X117916337Y-99859931D01*
X117556788Y-100008493D01*
X117281460Y-100283341D01*
X117221035Y-100428858D01*
X117161507Y-100284788D01*
X116886659Y-100009460D01*
X116527370Y-99860270D01*
X116138337Y-99859931D01*
X115778788Y-100008493D01*
X115503460Y-100283341D01*
X115354270Y-100642630D01*
X115353931Y-101031663D01*
X115502493Y-101391212D01*
X115777341Y-101666540D01*
X116136630Y-101815730D01*
X116525663Y-101816069D01*
X116885212Y-101667507D01*
X117160540Y-101392659D01*
X117220964Y-101247141D01*
X117280493Y-101391212D01*
X117555341Y-101666540D01*
X117914630Y-101815730D01*
X118303663Y-101816069D01*
X118663212Y-101667507D01*
X118938540Y-101392659D01*
X118998964Y-101247141D01*
X119058493Y-101391212D01*
X119333341Y-101666540D01*
X119692630Y-101815730D01*
X120081663Y-101816069D01*
X120441212Y-101667507D01*
X120716540Y-101392659D01*
X120865730Y-101033370D01*
X120866069Y-100644337D01*
X120866069Y-102260335D01*
X120591370Y-102146270D01*
X120202337Y-102145931D01*
X119842788Y-102294493D01*
X119567460Y-102569341D01*
X119507035Y-102714858D01*
X119447507Y-102570788D01*
X119172659Y-102295460D01*
X118813370Y-102146270D01*
X118424337Y-102145931D01*
X118064788Y-102294493D01*
X117855876Y-102503039D01*
X117648659Y-102295460D01*
X117289370Y-102146270D01*
X116900337Y-102145931D01*
X116540788Y-102294493D01*
X116265460Y-102569341D01*
X116116270Y-102928630D01*
X116115931Y-103317663D01*
X116264493Y-103677212D01*
X116539341Y-103952540D01*
X116684858Y-104012964D01*
X116540788Y-104072493D01*
X116265460Y-104347341D01*
X116116270Y-104706630D01*
X116115931Y-105095663D01*
X116264493Y-105455212D01*
X116539341Y-105730540D01*
X116898630Y-105879730D01*
X117287663Y-105880069D01*
X117647212Y-105731507D01*
X117856123Y-105522960D01*
X118063341Y-105730540D01*
X118422630Y-105879730D01*
X118811663Y-105880069D01*
X119171212Y-105731507D01*
X119446540Y-105456659D01*
X119506964Y-105311141D01*
X119566493Y-105455212D01*
X119841341Y-105730540D01*
X120200630Y-105879730D01*
X120589663Y-105880069D01*
X120949212Y-105731507D01*
X121224540Y-105456659D01*
X121373730Y-105097370D01*
X121374069Y-104708337D01*
X121374069Y-111960553D01*
X121309311Y-111987311D01*
X121005378Y-112290714D01*
X120840687Y-112687332D01*
X120840313Y-113116784D01*
X121004311Y-113513689D01*
X121307714Y-113817622D01*
X121704332Y-113982313D01*
X122133784Y-113982687D01*
X122530689Y-113818689D01*
X122834622Y-113515286D01*
X122999313Y-113118668D01*
X122999687Y-112689216D01*
X122999687Y-122110554D01*
X122722216Y-122110313D01*
X122325311Y-122274311D01*
X122021378Y-122577714D01*
X121856687Y-122974332D01*
X121856313Y-123403784D01*
X122020311Y-123800689D01*
X122323714Y-124104622D01*
X122720332Y-124269313D01*
X123149784Y-124269687D01*
X123546689Y-124105689D01*
X123850622Y-123802286D01*
X124015313Y-123405668D01*
X124015687Y-122976216D01*
X124015687Y-133718560D01*
X122682000Y-133718560D01*
X122439877Y-133765537D01*
X122227073Y-133905327D01*
X122084623Y-134116360D01*
X122034560Y-134366000D01*
X122034560Y-136398000D01*
X122081537Y-136640123D01*
X122221327Y-136852927D01*
X122432360Y-136995377D01*
X122682000Y-137045440D01*
X124714000Y-137045440D01*
X124956123Y-136998463D01*
X125168927Y-136858673D01*
X125311377Y-136647640D01*
X125351929Y-136445426D01*
X125402801Y-136501858D01*
X125894928Y-136736231D01*
X126111000Y-136677976D01*
X126111000Y-140285000D01*
X120358069Y-140285000D01*
X120358069Y-126298337D01*
X120209507Y-125938788D01*
X120000960Y-125729876D01*
X120208540Y-125522659D01*
X120357730Y-125163370D01*
X120358069Y-124774337D01*
X120209507Y-124414788D01*
X119934659Y-124139460D01*
X119575370Y-123990270D01*
X119186337Y-123989931D01*
X118826788Y-124138493D01*
X118617876Y-124347039D01*
X118410659Y-124139460D01*
X118051370Y-123990270D01*
X117662337Y-123989931D01*
X117302788Y-124138493D01*
X117093876Y-124347039D01*
X116886659Y-124139460D01*
X116527370Y-123990270D01*
X116138337Y-123989931D01*
X115778788Y-124138493D01*
X115569876Y-124347039D01*
X115362659Y-124139460D01*
X115024069Y-123998864D01*
X115024069Y-100644337D01*
X114875507Y-100284788D01*
X114600659Y-100009460D01*
X114241370Y-99860270D01*
X113852337Y-99859931D01*
X113492788Y-100008493D01*
X113217460Y-100283341D01*
X113068270Y-100642630D01*
X113067931Y-101031663D01*
X113216493Y-101391212D01*
X113491341Y-101666540D01*
X113850630Y-101815730D01*
X114239663Y-101816069D01*
X114599212Y-101667507D01*
X114874540Y-101392659D01*
X115023730Y-101033370D01*
X115024069Y-100644337D01*
X115024069Y-123998864D01*
X115003370Y-123990270D01*
X114614337Y-123989931D01*
X114254788Y-124138493D01*
X113979460Y-124413341D01*
X113830270Y-124772630D01*
X113829931Y-125161663D01*
X113978493Y-125521212D01*
X114187039Y-125730123D01*
X113979460Y-125937341D01*
X113830270Y-126296630D01*
X113829931Y-126685663D01*
X113978493Y-127045212D01*
X114253341Y-127320540D01*
X114612630Y-127469730D01*
X115001663Y-127470069D01*
X115361212Y-127321507D01*
X115570123Y-127112960D01*
X115777341Y-127320540D01*
X116136630Y-127469730D01*
X116525663Y-127470069D01*
X116885212Y-127321507D01*
X117094123Y-127112960D01*
X117301341Y-127320540D01*
X117660630Y-127469730D01*
X118049663Y-127470069D01*
X118409212Y-127321507D01*
X118618123Y-127112960D01*
X118825341Y-127320540D01*
X119184630Y-127469730D01*
X119573663Y-127470069D01*
X119933212Y-127321507D01*
X120208540Y-127046659D01*
X120357730Y-126687370D01*
X120358069Y-126298337D01*
X120358069Y-140285000D01*
X120104069Y-140285000D01*
X120104069Y-135950337D01*
X119955507Y-135590788D01*
X119680659Y-135315460D01*
X119321370Y-135166270D01*
X118932337Y-135165931D01*
X118572788Y-135314493D01*
X118297460Y-135589341D01*
X118148270Y-135948630D01*
X118147931Y-136337663D01*
X118296493Y-136697212D01*
X118571341Y-136972540D01*
X118930630Y-137121730D01*
X119319663Y-137122069D01*
X119679212Y-136973507D01*
X119954540Y-136698659D01*
X120103730Y-136339370D01*
X120104069Y-135950337D01*
X120104069Y-140285000D01*
X112992069Y-140285000D01*
X112992069Y-100644337D01*
X112843507Y-100284788D01*
X112568659Y-100009460D01*
X112230069Y-99868864D01*
X112230069Y-98104337D01*
X112081507Y-97744788D01*
X111872960Y-97535876D01*
X112080540Y-97328659D01*
X112229730Y-96969370D01*
X112230069Y-96580337D01*
X112081507Y-96220788D01*
X111806659Y-95945460D01*
X111447370Y-95796270D01*
X111058337Y-95795931D01*
X110698788Y-95944493D01*
X110489876Y-96153039D01*
X110282659Y-95945460D01*
X109923370Y-95796270D01*
X109534337Y-95795931D01*
X109174788Y-95944493D01*
X109055069Y-96064002D01*
X109055069Y-87690337D01*
X108906507Y-87330788D01*
X108824959Y-87249098D01*
X108905540Y-87168659D01*
X109054730Y-86809370D01*
X109055069Y-86420337D01*
X108906507Y-86060788D01*
X108631659Y-85785460D01*
X108272370Y-85636270D01*
X107883337Y-85635931D01*
X107523788Y-85784493D01*
X107248460Y-86059341D01*
X107099270Y-86418630D01*
X107098931Y-86807663D01*
X107247493Y-87167212D01*
X107329040Y-87248901D01*
X107248460Y-87329341D01*
X107099270Y-87688630D01*
X107098931Y-88077663D01*
X107247493Y-88437212D01*
X107522341Y-88712540D01*
X107881630Y-88861730D01*
X108270663Y-88862069D01*
X108630212Y-88713507D01*
X108905540Y-88438659D01*
X109054730Y-88079370D01*
X109055069Y-87690337D01*
X109055069Y-96064002D01*
X108965876Y-96153039D01*
X108758659Y-95945460D01*
X108399370Y-95796270D01*
X108010337Y-95795931D01*
X107650788Y-95944493D01*
X107375460Y-96219341D01*
X107226270Y-96578630D01*
X107225931Y-96967663D01*
X107374493Y-97327212D01*
X107583039Y-97536123D01*
X107375460Y-97743341D01*
X107226270Y-98102630D01*
X107225931Y-98491663D01*
X107374493Y-98851212D01*
X107649341Y-99126540D01*
X108008630Y-99275730D01*
X108397663Y-99276069D01*
X108757212Y-99127507D01*
X108966123Y-98918960D01*
X109173341Y-99126540D01*
X109532630Y-99275730D01*
X109921663Y-99276069D01*
X110281212Y-99127507D01*
X110490123Y-98918960D01*
X110697341Y-99126540D01*
X111056630Y-99275730D01*
X111445663Y-99276069D01*
X111805212Y-99127507D01*
X112080540Y-98852659D01*
X112229730Y-98493370D01*
X112230069Y-98104337D01*
X112230069Y-99868864D01*
X112209370Y-99860270D01*
X111820337Y-99859931D01*
X111460788Y-100008493D01*
X111185460Y-100283341D01*
X111036270Y-100642630D01*
X111035931Y-101031663D01*
X111184493Y-101391212D01*
X111459341Y-101666540D01*
X111818630Y-101815730D01*
X112207663Y-101816069D01*
X112567212Y-101667507D01*
X112842540Y-101392659D01*
X112991730Y-101033370D01*
X112992069Y-100644337D01*
X112992069Y-140285000D01*
X111823687Y-140285000D01*
X111823687Y-128564216D01*
X111659689Y-128167311D01*
X111508644Y-128016002D01*
X111658622Y-127866286D01*
X111823313Y-127469668D01*
X111823687Y-127040216D01*
X111659689Y-126643311D01*
X111356286Y-126339378D01*
X110959668Y-126174687D01*
X110530216Y-126174313D01*
X110133311Y-126338311D01*
X109982002Y-126489355D01*
X109832286Y-126339378D01*
X109435668Y-126174687D01*
X109006216Y-126174313D01*
X108609311Y-126338311D01*
X108305378Y-126641714D01*
X108140687Y-127038332D01*
X108140313Y-127467784D01*
X108304311Y-127864689D01*
X108455355Y-128015997D01*
X108305378Y-128165714D01*
X108140687Y-128562332D01*
X108140313Y-128991784D01*
X108304311Y-129388689D01*
X108607714Y-129692622D01*
X109004332Y-129857313D01*
X109433784Y-129857687D01*
X109830689Y-129693689D01*
X109981997Y-129542644D01*
X110131714Y-129692622D01*
X110528332Y-129857313D01*
X110957784Y-129857687D01*
X111354689Y-129693689D01*
X111658622Y-129390286D01*
X111823313Y-128993668D01*
X111823687Y-128564216D01*
X111823687Y-140285000D01*
X107023069Y-140285000D01*
X107023069Y-86420337D01*
X106874507Y-86060788D01*
X106599659Y-85785460D01*
X106240370Y-85636270D01*
X105851337Y-85635931D01*
X105491788Y-85784493D01*
X105216460Y-86059341D01*
X105067270Y-86418630D01*
X105066931Y-86807663D01*
X105215493Y-87167212D01*
X105490341Y-87442540D01*
X105849630Y-87591730D01*
X106238663Y-87592069D01*
X106598212Y-87443507D01*
X106873540Y-87168659D01*
X107022730Y-86809370D01*
X107023069Y-86420337D01*
X107023069Y-140285000D01*
X105372069Y-140285000D01*
X105372069Y-112455337D01*
X105223507Y-112095788D01*
X104948659Y-111820460D01*
X104589370Y-111671270D01*
X104483069Y-111671177D01*
X104483069Y-89722337D01*
X104334507Y-89362788D01*
X104059659Y-89087460D01*
X103700370Y-88938270D01*
X103311337Y-88937931D01*
X102951788Y-89086493D01*
X102676460Y-89361341D01*
X102527270Y-89720630D01*
X102527177Y-89827022D01*
X102422337Y-89826931D01*
X102062788Y-89975493D01*
X101787460Y-90250341D01*
X101638270Y-90609630D01*
X101637931Y-90998663D01*
X101786493Y-91358212D01*
X102061341Y-91633540D01*
X102420630Y-91782730D01*
X102809663Y-91783069D01*
X103169212Y-91634507D01*
X103444540Y-91359659D01*
X103593730Y-91000370D01*
X103593822Y-90893977D01*
X103698663Y-90894069D01*
X104058212Y-90745507D01*
X104333540Y-90470659D01*
X104482730Y-90111370D01*
X104483069Y-89722337D01*
X104483069Y-111671177D01*
X104200337Y-111670931D01*
X103840788Y-111819493D01*
X103565460Y-112094341D01*
X103416270Y-112453630D01*
X103415931Y-112842663D01*
X103564493Y-113202212D01*
X103839341Y-113477540D01*
X104198630Y-113626730D01*
X104587663Y-113627069D01*
X104947212Y-113478507D01*
X105222540Y-113203659D01*
X105371730Y-112844370D01*
X105372069Y-112455337D01*
X105372069Y-140285000D01*
X102832069Y-140285000D01*
X102832069Y-119059337D01*
X102832069Y-109661337D01*
X102683507Y-109301788D01*
X102408659Y-109026460D01*
X102049370Y-108877270D01*
X101660337Y-108876931D01*
X101300788Y-109025493D01*
X101025460Y-109300341D01*
X100876270Y-109659630D01*
X100875931Y-110048663D01*
X101024493Y-110408212D01*
X101299341Y-110683540D01*
X101658630Y-110832730D01*
X102047663Y-110833069D01*
X102407212Y-110684507D01*
X102682540Y-110409659D01*
X102831730Y-110050370D01*
X102832069Y-109661337D01*
X102832069Y-119059337D01*
X102683507Y-118699788D01*
X102408659Y-118424460D01*
X102049370Y-118275270D01*
X101660337Y-118274931D01*
X101300788Y-118423493D01*
X101025460Y-118698341D01*
X100876270Y-119057630D01*
X100875931Y-119446663D01*
X101024493Y-119806212D01*
X101299341Y-120081540D01*
X101658630Y-120230730D01*
X102047663Y-120231069D01*
X102407212Y-120082507D01*
X102682540Y-119807659D01*
X102831730Y-119448370D01*
X102832069Y-119059337D01*
X102832069Y-140285000D01*
X102578069Y-140285000D01*
X102578069Y-123250337D01*
X102429507Y-122890788D01*
X102154659Y-122615460D01*
X101795370Y-122466270D01*
X101406337Y-122465931D01*
X101046788Y-122614493D01*
X100771460Y-122889341D01*
X100622270Y-123248630D01*
X100621931Y-123637663D01*
X100770493Y-123997212D01*
X101045341Y-124272540D01*
X101404630Y-124421730D01*
X101793663Y-124422069D01*
X102153212Y-124273507D01*
X102428540Y-123998659D01*
X102577730Y-123639370D01*
X102578069Y-123250337D01*
X102578069Y-140285000D01*
X101308069Y-140285000D01*
X101308069Y-137982337D01*
X101159507Y-137622788D01*
X100884659Y-137347460D01*
X100546069Y-137206864D01*
X100546069Y-94929337D01*
X100397507Y-94569788D01*
X100122659Y-94294460D01*
X99763370Y-94145270D01*
X99374337Y-94144931D01*
X99014788Y-94293493D01*
X98739460Y-94568341D01*
X98590270Y-94927630D01*
X98589931Y-95316663D01*
X98738493Y-95676212D01*
X99013341Y-95951540D01*
X99372630Y-96100730D01*
X99761663Y-96101069D01*
X100121212Y-95952507D01*
X100396540Y-95677659D01*
X100545730Y-95318370D01*
X100546069Y-94929337D01*
X100546069Y-137206864D01*
X100525370Y-137198270D01*
X100136337Y-137197931D01*
X100038053Y-137238540D01*
X100038069Y-137220337D01*
X99889507Y-136860788D01*
X99614659Y-136585460D01*
X99255370Y-136436270D01*
X98866337Y-136435931D01*
X98506788Y-136584493D01*
X98231460Y-136859341D01*
X98082270Y-137218630D01*
X98081931Y-137607663D01*
X98230493Y-137967212D01*
X98505341Y-138242540D01*
X98864630Y-138391730D01*
X99253663Y-138392069D01*
X99351946Y-138351459D01*
X99351931Y-138369663D01*
X99500493Y-138729212D01*
X99775341Y-139004540D01*
X100134630Y-139153730D01*
X100523663Y-139154069D01*
X100883212Y-139005507D01*
X101158540Y-138730659D01*
X101307730Y-138371370D01*
X101308069Y-137982337D01*
X101308069Y-140285000D01*
X96716676Y-140285000D01*
X96716676Y-123608043D01*
X96568114Y-123248494D01*
X96329687Y-123009650D01*
X96329687Y-107736216D01*
X96165689Y-107339311D01*
X96014644Y-107188002D01*
X96164622Y-107038286D01*
X96329313Y-106641668D01*
X96329687Y-106212216D01*
X96165689Y-105815311D01*
X96014644Y-105664002D01*
X96164622Y-105514286D01*
X96329313Y-105117668D01*
X96329687Y-104688216D01*
X96165689Y-104291311D01*
X96014644Y-104140002D01*
X96164622Y-103990286D01*
X96329313Y-103593668D01*
X96329687Y-103164216D01*
X96165689Y-102767311D01*
X95862286Y-102463378D01*
X95465668Y-102298687D01*
X95036216Y-102298313D01*
X94639311Y-102462311D01*
X94335378Y-102765714D01*
X94170687Y-103162332D01*
X94170313Y-103591784D01*
X94334311Y-103988689D01*
X94485355Y-104139997D01*
X94335378Y-104289714D01*
X94170687Y-104686332D01*
X94170313Y-105115784D01*
X94334311Y-105512689D01*
X94485355Y-105663997D01*
X94335378Y-105813714D01*
X94170687Y-106210332D01*
X94170313Y-106639784D01*
X94332833Y-107033114D01*
X93941668Y-106870687D01*
X93512216Y-106870313D01*
X93115311Y-107034311D01*
X92811378Y-107337714D01*
X92646687Y-107734332D01*
X92646313Y-108163784D01*
X92810311Y-108560689D01*
X93113714Y-108864622D01*
X93510332Y-109029313D01*
X93939784Y-109029687D01*
X94336689Y-108865689D01*
X94487997Y-108714644D01*
X94637714Y-108864622D01*
X95034332Y-109029313D01*
X95463784Y-109029687D01*
X95860689Y-108865689D01*
X96164622Y-108562286D01*
X96329313Y-108165668D01*
X96329687Y-107736216D01*
X96329687Y-123009650D01*
X96293266Y-122973166D01*
X95933977Y-122823976D01*
X95544944Y-122823637D01*
X95185395Y-122972199D01*
X94910067Y-123247047D01*
X94760877Y-123606336D01*
X94760538Y-123995369D01*
X94909100Y-124354918D01*
X95183948Y-124630246D01*
X95543237Y-124779436D01*
X95932270Y-124779775D01*
X96291819Y-124631213D01*
X96567147Y-124356365D01*
X96716337Y-123997076D01*
X96716676Y-123608043D01*
X96716676Y-140285000D01*
X91910069Y-140285000D01*
X91910069Y-93786337D01*
X91761507Y-93426788D01*
X91486659Y-93151460D01*
X91127370Y-93002270D01*
X90738337Y-93001931D01*
X90378788Y-93150493D01*
X90103460Y-93425341D01*
X89954270Y-93784630D01*
X89953931Y-94173663D01*
X90102493Y-94533212D01*
X90377341Y-94808540D01*
X90736630Y-94957730D01*
X91125663Y-94958069D01*
X91485212Y-94809507D01*
X91760540Y-94534659D01*
X91909730Y-94175370D01*
X91910069Y-93786337D01*
X91910069Y-140285000D01*
X90894069Y-140285000D01*
X90894069Y-119694337D01*
X90745507Y-119334788D01*
X90470659Y-119059460D01*
X90233687Y-118961060D01*
X90233687Y-112816216D01*
X90069689Y-112419311D01*
X89766286Y-112115378D01*
X89624069Y-112056324D01*
X89624069Y-95818337D01*
X89475507Y-95458788D01*
X89200659Y-95183460D01*
X88841370Y-95034270D01*
X88452337Y-95033931D01*
X88092788Y-95182493D01*
X87817460Y-95457341D01*
X87757035Y-95602858D01*
X87697507Y-95458788D01*
X87422659Y-95183460D01*
X87063370Y-95034270D01*
X86674337Y-95033931D01*
X86314788Y-95182493D01*
X86039460Y-95457341D01*
X85979035Y-95602858D01*
X85919507Y-95458788D01*
X85644659Y-95183460D01*
X85285370Y-95034270D01*
X84896337Y-95033931D01*
X84536788Y-95182493D01*
X84261460Y-95457341D01*
X84112270Y-95816630D01*
X84111931Y-96205663D01*
X84260493Y-96565212D01*
X84535341Y-96840540D01*
X84894630Y-96989730D01*
X85283663Y-96990069D01*
X85643212Y-96841507D01*
X85918540Y-96566659D01*
X85978964Y-96421141D01*
X86038493Y-96565212D01*
X86313341Y-96840540D01*
X86672630Y-96989730D01*
X87061663Y-96990069D01*
X87421212Y-96841507D01*
X87696540Y-96566659D01*
X87756964Y-96421141D01*
X87816493Y-96565212D01*
X88091341Y-96840540D01*
X88450630Y-96989730D01*
X88839663Y-96990069D01*
X89199212Y-96841507D01*
X89474540Y-96566659D01*
X89623730Y-96207370D01*
X89624069Y-95818337D01*
X89624069Y-112056324D01*
X89369668Y-111950687D01*
X88940216Y-111950313D01*
X88543311Y-112114311D01*
X88239378Y-112417714D01*
X88074687Y-112814332D01*
X88074313Y-113243784D01*
X88238311Y-113640689D01*
X88541714Y-113944622D01*
X88938332Y-114109313D01*
X89367784Y-114109687D01*
X89764689Y-113945689D01*
X90068622Y-113642286D01*
X90233313Y-113245668D01*
X90233687Y-112816216D01*
X90233687Y-118961060D01*
X90111370Y-118910270D01*
X89722337Y-118909931D01*
X89362788Y-119058493D01*
X89087460Y-119333341D01*
X88938270Y-119692630D01*
X88937931Y-120081663D01*
X89086493Y-120441212D01*
X89361341Y-120716540D01*
X89720630Y-120865730D01*
X90109663Y-120866069D01*
X90469212Y-120717507D01*
X90744540Y-120442659D01*
X90893730Y-120083370D01*
X90894069Y-119694337D01*
X90894069Y-140285000D01*
X84544069Y-140285000D01*
X84544069Y-134045337D01*
X84395507Y-133685788D01*
X84120659Y-133410460D01*
X83761370Y-133261270D01*
X83372337Y-133260931D01*
X83012788Y-133409493D01*
X82737460Y-133684341D01*
X82588270Y-134043630D01*
X82587931Y-134432663D01*
X82736493Y-134792212D01*
X83011341Y-135067540D01*
X83370630Y-135216730D01*
X83759663Y-135217069D01*
X84119212Y-135068507D01*
X84394540Y-134793659D01*
X84543730Y-134434370D01*
X84544069Y-134045337D01*
X84544069Y-140285000D01*
X83794600Y-140285000D01*
X83794600Y-139140785D01*
X83794600Y-138989214D01*
X83794600Y-138271250D01*
X83794600Y-137826750D01*
X83794600Y-137108786D01*
X83794600Y-136957215D01*
X83736596Y-136817181D01*
X83629420Y-136710004D01*
X83489386Y-136652000D01*
X82772250Y-136652000D01*
X82677000Y-136747250D01*
X82677000Y-137922000D01*
X83699350Y-137922000D01*
X83794600Y-137826750D01*
X83794600Y-138271250D01*
X83699350Y-138176000D01*
X82677000Y-138176000D01*
X82677000Y-139350750D01*
X82772250Y-139446000D01*
X83489386Y-139446000D01*
X83629420Y-139387996D01*
X83736596Y-139280819D01*
X83794600Y-139140785D01*
X83794600Y-140285000D01*
X82423000Y-140285000D01*
X82423000Y-139350750D01*
X82423000Y-138176000D01*
X82403000Y-138176000D01*
X82403000Y-137922000D01*
X82423000Y-137922000D01*
X82423000Y-136747250D01*
X82327750Y-136652000D01*
X81610614Y-136652000D01*
X81470580Y-136710004D01*
X81363404Y-136817181D01*
X81305400Y-136957215D01*
X81305400Y-137108786D01*
X81305400Y-137157379D01*
X81069670Y-136804585D01*
X80583489Y-136479729D01*
X80010000Y-136365655D01*
X79436511Y-136479729D01*
X78950330Y-136804585D01*
X78740000Y-137119365D01*
X78529670Y-136804585D01*
X78043489Y-136479729D01*
X77470000Y-136365655D01*
X77343550Y-136390807D01*
X77343550Y-131705224D01*
X76861204Y-130537857D01*
X76162069Y-129837500D01*
X76162069Y-125663337D01*
X76013507Y-125303788D01*
X75738659Y-125028460D01*
X75379370Y-124879270D01*
X74990337Y-124878931D01*
X74630788Y-125027493D01*
X74383854Y-125273995D01*
X74384069Y-125028337D01*
X74309078Y-124846846D01*
X74467212Y-124781507D01*
X74742540Y-124506659D01*
X74891730Y-124147370D01*
X74892069Y-123758337D01*
X74743507Y-123398788D01*
X74661959Y-123317098D01*
X74742540Y-123236659D01*
X74891730Y-122877370D01*
X74892069Y-122488337D01*
X74743507Y-122128788D01*
X74509352Y-121894224D01*
X74767217Y-121636810D01*
X74916407Y-121277521D01*
X74916746Y-120888488D01*
X74790129Y-120582051D01*
X74891730Y-120337370D01*
X74892069Y-119948337D01*
X74743507Y-119588788D01*
X74468659Y-119313460D01*
X74109370Y-119164270D01*
X73876069Y-119164066D01*
X73876069Y-115122337D01*
X73876069Y-112963337D01*
X73727507Y-112603788D01*
X73452659Y-112328460D01*
X73093370Y-112179270D01*
X72704337Y-112178931D01*
X72606069Y-112219534D01*
X72606069Y-98612337D01*
X72457507Y-98252788D01*
X72182659Y-97977460D01*
X71823370Y-97828270D01*
X71434337Y-97827931D01*
X71074788Y-97976493D01*
X70799460Y-98251341D01*
X70650270Y-98610630D01*
X70649931Y-98999663D01*
X70798493Y-99359212D01*
X71073341Y-99634540D01*
X71432630Y-99783730D01*
X71821663Y-99784069D01*
X72181212Y-99635507D01*
X72456540Y-99360659D01*
X72605730Y-99001370D01*
X72606069Y-98612337D01*
X72606069Y-112219534D01*
X72344788Y-112327493D01*
X72069460Y-112602341D01*
X71920270Y-112961630D01*
X71919931Y-113350663D01*
X72068493Y-113710212D01*
X72343341Y-113985540D01*
X72702630Y-114134730D01*
X73091663Y-114135069D01*
X73451212Y-113986507D01*
X73726540Y-113711659D01*
X73875730Y-113352370D01*
X73876069Y-112963337D01*
X73876069Y-115122337D01*
X73727507Y-114762788D01*
X73452659Y-114487460D01*
X73093370Y-114338270D01*
X72704337Y-114337931D01*
X72344788Y-114486493D01*
X72069460Y-114761341D01*
X71920270Y-115120630D01*
X71919931Y-115509663D01*
X72068493Y-115869212D01*
X72343341Y-116144540D01*
X72702630Y-116293730D01*
X73091663Y-116294069D01*
X73451212Y-116145507D01*
X73726540Y-115870659D01*
X73875730Y-115511370D01*
X73876069Y-115122337D01*
X73876069Y-119164066D01*
X73720337Y-119163931D01*
X73360788Y-119312493D01*
X73085460Y-119587341D01*
X72936270Y-119946630D01*
X72935931Y-120335663D01*
X73062547Y-120642099D01*
X72960947Y-120886781D01*
X72960608Y-121275814D01*
X73109170Y-121635363D01*
X73343324Y-121869926D01*
X73085460Y-122127341D01*
X72936270Y-122486630D01*
X72935931Y-122875663D01*
X73084493Y-123235212D01*
X73166040Y-123316901D01*
X73085460Y-123397341D01*
X72936270Y-123756630D01*
X72935931Y-124145663D01*
X73010921Y-124327153D01*
X72852788Y-124392493D01*
X72577460Y-124667341D01*
X72428270Y-125026630D01*
X72427931Y-125415663D01*
X72576493Y-125775212D01*
X72851341Y-126050540D01*
X73210630Y-126199730D01*
X73599663Y-126200069D01*
X73959212Y-126051507D01*
X74206145Y-125805004D01*
X74205931Y-126050663D01*
X74354493Y-126410212D01*
X74629341Y-126685540D01*
X74988630Y-126834730D01*
X75377663Y-126835069D01*
X75737212Y-126686507D01*
X76012540Y-126411659D01*
X76161730Y-126052370D01*
X76162069Y-125663337D01*
X76162069Y-129837500D01*
X75968841Y-129643935D01*
X74802317Y-129159552D01*
X73539224Y-129158450D01*
X72371857Y-129640796D01*
X71477935Y-130533159D01*
X71336069Y-130874810D01*
X71336069Y-111820337D01*
X71187507Y-111460788D01*
X70912659Y-111185460D01*
X70553370Y-111036270D01*
X70164337Y-111035931D01*
X69804788Y-111184493D01*
X69529460Y-111459341D01*
X69380270Y-111818630D01*
X69379931Y-112207663D01*
X69528493Y-112567212D01*
X69803341Y-112842540D01*
X70162630Y-112991730D01*
X70551663Y-112992069D01*
X70911212Y-112843507D01*
X71186540Y-112568659D01*
X71335730Y-112209370D01*
X71336069Y-111820337D01*
X71336069Y-130874810D01*
X70993552Y-131699683D01*
X70992450Y-132962776D01*
X71474796Y-134130143D01*
X72367159Y-135024065D01*
X73533683Y-135508448D01*
X74796776Y-135509550D01*
X75964143Y-135027204D01*
X76858065Y-134134841D01*
X77342448Y-132968317D01*
X77343550Y-131705224D01*
X77343550Y-136390807D01*
X76896511Y-136479729D01*
X76410330Y-136804585D01*
X76200000Y-137119365D01*
X75989670Y-136804585D01*
X75503489Y-136479729D01*
X74930000Y-136365655D01*
X74356511Y-136479729D01*
X73870330Y-136804585D01*
X73660000Y-137119365D01*
X73449670Y-136804585D01*
X72963489Y-136479729D01*
X72390000Y-136365655D01*
X71816511Y-136479729D01*
X71330330Y-136804585D01*
X71120000Y-137119365D01*
X70909670Y-136804585D01*
X70423489Y-136479729D01*
X69850000Y-136365655D01*
X69276511Y-136479729D01*
X68790330Y-136804585D01*
X68542069Y-137176133D01*
X68542069Y-98612337D01*
X68393507Y-98252788D01*
X68287640Y-98146736D01*
X68287640Y-90650060D01*
X68287640Y-87149940D01*
X68240663Y-86907817D01*
X68100873Y-86695013D01*
X67889840Y-86552563D01*
X67640200Y-86502500D01*
X64140080Y-86502500D01*
X63897957Y-86549477D01*
X63685153Y-86689267D01*
X63542703Y-86900300D01*
X63492640Y-87149940D01*
X63492640Y-90650060D01*
X63539617Y-90892183D01*
X63679407Y-91104987D01*
X63890440Y-91247437D01*
X64140080Y-91297500D01*
X67640200Y-91297500D01*
X67882323Y-91250523D01*
X68095127Y-91110733D01*
X68237577Y-90899700D01*
X68287640Y-90650060D01*
X68287640Y-98146736D01*
X68118659Y-97977460D01*
X67759370Y-97828270D01*
X67370337Y-97827931D01*
X67010788Y-97976493D01*
X66735460Y-98251341D01*
X66586270Y-98610630D01*
X66585931Y-98999663D01*
X66734493Y-99359212D01*
X67009341Y-99634540D01*
X67368630Y-99783730D01*
X67757663Y-99784069D01*
X68117212Y-99635507D01*
X68392540Y-99360659D01*
X68541730Y-99001370D01*
X68542069Y-98612337D01*
X68542069Y-137176133D01*
X68465474Y-137290766D01*
X68439268Y-137422509D01*
X68385570Y-137267280D01*
X68062867Y-136903581D01*
X68034069Y-136889640D01*
X68034069Y-131886337D01*
X67885507Y-131526788D01*
X67780069Y-131421165D01*
X67780069Y-125536337D01*
X67631507Y-125176788D01*
X67502944Y-125048000D01*
X67502944Y-115099212D01*
X67354382Y-114739663D01*
X67079534Y-114464335D01*
X66720245Y-114315145D01*
X66331212Y-114314806D01*
X66002069Y-114450804D01*
X66002069Y-102168337D01*
X65853507Y-101808788D01*
X65578659Y-101533460D01*
X65219370Y-101384270D01*
X65021460Y-101384097D01*
X65021460Y-95424845D01*
X65021460Y-95273274D01*
X65021460Y-93821250D01*
X65021460Y-93376750D01*
X65021460Y-91924726D01*
X65021460Y-91773155D01*
X64963456Y-91633121D01*
X64856280Y-91525944D01*
X64716246Y-91467940D01*
X63112650Y-91467940D01*
X63017400Y-91563190D01*
X63017400Y-93472000D01*
X64926210Y-93472000D01*
X65021460Y-93376750D01*
X65021460Y-93821250D01*
X64926210Y-93726000D01*
X63017400Y-93726000D01*
X63017400Y-95634810D01*
X63112650Y-95730060D01*
X64716246Y-95730060D01*
X64856280Y-95672056D01*
X64963456Y-95564879D01*
X65021460Y-95424845D01*
X65021460Y-101384097D01*
X64830337Y-101383931D01*
X64470788Y-101532493D01*
X64195460Y-101807341D01*
X64046270Y-102166630D01*
X64045931Y-102555663D01*
X64194493Y-102915212D01*
X64469341Y-103190540D01*
X64828630Y-103339730D01*
X65217663Y-103340069D01*
X65577212Y-103191507D01*
X65852540Y-102916659D01*
X66001730Y-102557370D01*
X66002069Y-102168337D01*
X66002069Y-114450804D01*
X65971663Y-114463368D01*
X65696335Y-114738216D01*
X65547145Y-115097505D01*
X65546806Y-115486538D01*
X65695368Y-115846087D01*
X65970216Y-116121415D01*
X66329505Y-116270605D01*
X66718538Y-116270944D01*
X67078087Y-116122382D01*
X67353415Y-115847534D01*
X67502605Y-115488245D01*
X67502944Y-115099212D01*
X67502944Y-125048000D01*
X67356659Y-124901460D01*
X66997370Y-124752270D01*
X66608337Y-124751931D01*
X66248788Y-124900493D01*
X65973460Y-125175341D01*
X65824270Y-125534630D01*
X65823931Y-125923663D01*
X65972493Y-126283212D01*
X66247341Y-126558540D01*
X66606630Y-126707730D01*
X66995663Y-126708069D01*
X67355212Y-126559507D01*
X67630540Y-126284659D01*
X67779730Y-125925370D01*
X67780069Y-125536337D01*
X67780069Y-131421165D01*
X67610659Y-131251460D01*
X67251370Y-131102270D01*
X66862337Y-131101931D01*
X66502788Y-131250493D01*
X66227460Y-131525341D01*
X66078270Y-131884630D01*
X66077931Y-132273663D01*
X66226493Y-132633212D01*
X66501341Y-132908540D01*
X66860630Y-133057730D01*
X67249663Y-133058069D01*
X67609212Y-132909507D01*
X67884540Y-132634659D01*
X68033730Y-132275370D01*
X68034069Y-131886337D01*
X68034069Y-136889640D01*
X67629118Y-136693607D01*
X67437000Y-136754288D01*
X67437000Y-137922000D01*
X67457000Y-137922000D01*
X67457000Y-138176000D01*
X67437000Y-138176000D01*
X67437000Y-139343712D01*
X67629118Y-139404393D01*
X68062867Y-139194419D01*
X68385570Y-138830720D01*
X68439268Y-138675490D01*
X68465474Y-138807234D01*
X68790330Y-139293415D01*
X69276511Y-139618271D01*
X69850000Y-139732345D01*
X70423489Y-139618271D01*
X70909670Y-139293415D01*
X71120000Y-138978634D01*
X71330330Y-139293415D01*
X71816511Y-139618271D01*
X72390000Y-139732345D01*
X72963489Y-139618271D01*
X73449670Y-139293415D01*
X73660000Y-138978634D01*
X73870330Y-139293415D01*
X74356511Y-139618271D01*
X74930000Y-139732345D01*
X75503489Y-139618271D01*
X75989670Y-139293415D01*
X76200000Y-138978634D01*
X76410330Y-139293415D01*
X76896511Y-139618271D01*
X77470000Y-139732345D01*
X78043489Y-139618271D01*
X78529670Y-139293415D01*
X78740000Y-138978634D01*
X78950330Y-139293415D01*
X79436511Y-139618271D01*
X80010000Y-139732345D01*
X80583489Y-139618271D01*
X81069670Y-139293415D01*
X81305400Y-138940620D01*
X81305400Y-138989214D01*
X81305400Y-139140785D01*
X81363404Y-139280819D01*
X81470580Y-139387996D01*
X81610614Y-139446000D01*
X82327750Y-139446000D01*
X82423000Y-139350750D01*
X82423000Y-140285000D01*
X67183000Y-140285000D01*
X67183000Y-139343712D01*
X67183000Y-138176000D01*
X67163000Y-138176000D01*
X67163000Y-137922000D01*
X67183000Y-137922000D01*
X67183000Y-136754288D01*
X66990882Y-136693607D01*
X66557133Y-136903581D01*
X66234430Y-137267280D01*
X66180731Y-137422509D01*
X66154526Y-137290766D01*
X65829670Y-136804585D01*
X65343489Y-136479729D01*
X64770000Y-136365655D01*
X64224069Y-136474247D01*
X64224069Y-122234337D01*
X64075507Y-121874788D01*
X63970069Y-121769165D01*
X63970069Y-113598337D01*
X63821507Y-113238788D01*
X63546659Y-112963460D01*
X63187370Y-112814270D01*
X62798337Y-112813931D01*
X62763400Y-112828366D01*
X62763400Y-95634810D01*
X62763400Y-93726000D01*
X62763400Y-93472000D01*
X62763400Y-91563190D01*
X62668150Y-91467940D01*
X62021720Y-91467940D01*
X62021720Y-90725845D01*
X62021720Y-90574274D01*
X62021720Y-89122250D01*
X62021720Y-88677750D01*
X62021720Y-87225726D01*
X62021720Y-87074155D01*
X61963716Y-86934121D01*
X61856540Y-86826944D01*
X61716506Y-86768940D01*
X60112910Y-86768940D01*
X60017660Y-86864190D01*
X60017660Y-88773000D01*
X61926470Y-88773000D01*
X62021720Y-88677750D01*
X62021720Y-89122250D01*
X61926470Y-89027000D01*
X60017660Y-89027000D01*
X60017660Y-90935810D01*
X60112910Y-91031060D01*
X61716506Y-91031060D01*
X61856540Y-90973056D01*
X61963716Y-90865879D01*
X62021720Y-90725845D01*
X62021720Y-91467940D01*
X61064554Y-91467940D01*
X60924520Y-91525944D01*
X60817344Y-91633121D01*
X60759340Y-91773155D01*
X60759340Y-91924726D01*
X60759340Y-93376750D01*
X60854590Y-93472000D01*
X62763400Y-93472000D01*
X62763400Y-93726000D01*
X60854590Y-93726000D01*
X60759340Y-93821250D01*
X60759340Y-95273274D01*
X60759340Y-95424845D01*
X60817344Y-95564879D01*
X60924520Y-95672056D01*
X61064554Y-95730060D01*
X62668150Y-95730060D01*
X62763400Y-95634810D01*
X62763400Y-112828366D01*
X62438788Y-112962493D01*
X62163460Y-113237341D01*
X62014270Y-113596630D01*
X62013931Y-113985663D01*
X62162493Y-114345212D01*
X62437341Y-114620540D01*
X62796630Y-114769730D01*
X63185663Y-114770069D01*
X63545212Y-114621507D01*
X63820540Y-114346659D01*
X63969730Y-113987370D01*
X63970069Y-113598337D01*
X63970069Y-121769165D01*
X63800659Y-121599460D01*
X63441370Y-121450270D01*
X63052337Y-121449931D01*
X62692788Y-121598493D01*
X62483876Y-121807039D01*
X62276659Y-121599460D01*
X61917370Y-121450270D01*
X61528337Y-121449931D01*
X61176069Y-121595484D01*
X61176069Y-115122337D01*
X61027507Y-114762788D01*
X60752659Y-114487460D01*
X60393370Y-114338270D01*
X60004337Y-114337931D01*
X59644788Y-114486493D01*
X59369460Y-114761341D01*
X59220270Y-115120630D01*
X59219931Y-115509663D01*
X59368493Y-115869212D01*
X59643341Y-116144540D01*
X60002630Y-116293730D01*
X60391663Y-116294069D01*
X60751212Y-116145507D01*
X61026540Y-115870659D01*
X61175730Y-115511370D01*
X61176069Y-115122337D01*
X61176069Y-121595484D01*
X61168788Y-121598493D01*
X60893460Y-121873341D01*
X60744270Y-122232630D01*
X60743931Y-122621663D01*
X60892493Y-122981212D01*
X61167341Y-123256540D01*
X61526630Y-123405730D01*
X61915663Y-123406069D01*
X62275212Y-123257507D01*
X62484123Y-123048960D01*
X62691341Y-123256540D01*
X63050630Y-123405730D01*
X63439663Y-123406069D01*
X63799212Y-123257507D01*
X64074540Y-122982659D01*
X64223730Y-122623370D01*
X64224069Y-122234337D01*
X64224069Y-136474247D01*
X64196511Y-136479729D01*
X63710330Y-136804585D01*
X63500000Y-137119365D01*
X63289670Y-136804585D01*
X62803489Y-136479729D01*
X62230000Y-136365655D01*
X61656511Y-136479729D01*
X61176069Y-136800750D01*
X61176069Y-131886337D01*
X61176069Y-123758337D01*
X61027507Y-123398788D01*
X60752659Y-123123460D01*
X60393370Y-122974270D01*
X60004337Y-122973931D01*
X59644788Y-123122493D01*
X59369460Y-123397341D01*
X59220270Y-123756630D01*
X59219931Y-124145663D01*
X59368493Y-124505212D01*
X59643341Y-124780540D01*
X60002630Y-124929730D01*
X60391663Y-124930069D01*
X60751212Y-124781507D01*
X61026540Y-124506659D01*
X61175730Y-124147370D01*
X61176069Y-123758337D01*
X61176069Y-131886337D01*
X61027507Y-131526788D01*
X60752659Y-131251460D01*
X60393370Y-131102270D01*
X60004337Y-131101931D01*
X59644788Y-131250493D01*
X59369460Y-131525341D01*
X59220270Y-131884630D01*
X59219931Y-132273663D01*
X59368493Y-132633212D01*
X59643341Y-132908540D01*
X60002630Y-133057730D01*
X60391663Y-133058069D01*
X60751212Y-132909507D01*
X61026540Y-132634659D01*
X61175730Y-132275370D01*
X61176069Y-131886337D01*
X61176069Y-136800750D01*
X61170330Y-136804585D01*
X60960000Y-137119365D01*
X60749670Y-136804585D01*
X60263489Y-136479729D01*
X59690000Y-136365655D01*
X59116511Y-136479729D01*
X58630330Y-136804585D01*
X58305474Y-137290766D01*
X58191400Y-137864255D01*
X58191400Y-138233745D01*
X58305474Y-138807234D01*
X58630330Y-139293415D01*
X59116511Y-139618271D01*
X59690000Y-139732345D01*
X60263489Y-139618271D01*
X60749670Y-139293415D01*
X60960000Y-138978634D01*
X61170330Y-139293415D01*
X61656511Y-139618271D01*
X62230000Y-139732345D01*
X62803489Y-139618271D01*
X63289670Y-139293415D01*
X63500000Y-138978634D01*
X63710330Y-139293415D01*
X64196511Y-139618271D01*
X64770000Y-139732345D01*
X65343489Y-139618271D01*
X65829670Y-139293415D01*
X66154526Y-138807234D01*
X66180731Y-138675490D01*
X66234430Y-138830720D01*
X66557133Y-139194419D01*
X66990882Y-139404393D01*
X67183000Y-139343712D01*
X67183000Y-140285000D01*
X56565000Y-140285000D01*
X56565000Y-100679843D01*
X56742796Y-101110143D01*
X57635159Y-102004065D01*
X58801683Y-102488448D01*
X60064776Y-102489550D01*
X61232143Y-102007204D01*
X62126065Y-101114841D01*
X62610448Y-99948317D01*
X62611550Y-98685224D01*
X62129204Y-97517857D01*
X61236841Y-96623935D01*
X60070317Y-96139552D01*
X59763660Y-96139284D01*
X59763660Y-90935810D01*
X59763660Y-89027000D01*
X59763660Y-88773000D01*
X59763660Y-86864190D01*
X59668410Y-86768940D01*
X58064814Y-86768940D01*
X57924780Y-86826944D01*
X57817604Y-86934121D01*
X57759600Y-87074155D01*
X57759600Y-87225726D01*
X57759600Y-88677750D01*
X57854850Y-88773000D01*
X59763660Y-88773000D01*
X59763660Y-89027000D01*
X57854850Y-89027000D01*
X57759600Y-89122250D01*
X57759600Y-90574274D01*
X57759600Y-90725845D01*
X57817604Y-90865879D01*
X57924780Y-90973056D01*
X58064814Y-91031060D01*
X59668410Y-91031060D01*
X59763660Y-90935810D01*
X59763660Y-96139284D01*
X58807224Y-96138450D01*
X57639857Y-96620796D01*
X56745935Y-97513159D01*
X56565000Y-97948898D01*
X56565000Y-83235000D01*
X132492632Y-83235000D01*
X132183935Y-83543159D01*
X131699552Y-84709683D01*
X131698450Y-85972776D01*
X132180796Y-87140143D01*
X133073159Y-88034065D01*
X134239683Y-88518448D01*
X135502776Y-88519550D01*
X136670143Y-88037204D01*
X137237000Y-87471335D01*
X137237000Y-102186748D01*
X137157019Y-102133106D01*
X136977414Y-102312711D01*
X136977414Y-101953501D01*
X136821961Y-101721721D01*
X136177454Y-101479164D01*
X135489185Y-101501713D01*
X134958039Y-101721721D01*
X134802586Y-101953501D01*
X135890000Y-103040915D01*
X136977414Y-101953501D01*
X136977414Y-102312711D01*
X136069605Y-103220520D01*
X137157019Y-104307934D01*
X137237000Y-104254291D01*
X137237000Y-114185708D01*
X137157019Y-114132066D01*
X136977414Y-114311671D01*
X136977414Y-113952461D01*
X136977414Y-104487539D01*
X135890000Y-103400125D01*
X135710395Y-103579730D01*
X135710395Y-103220520D01*
X134622981Y-102133106D01*
X134391201Y-102288559D01*
X134148644Y-102933066D01*
X134171193Y-103621335D01*
X134391201Y-104152481D01*
X134622981Y-104307934D01*
X135710395Y-103220520D01*
X135710395Y-103579730D01*
X134802586Y-104487539D01*
X134958039Y-104719319D01*
X135602546Y-104961876D01*
X136290815Y-104939327D01*
X136821961Y-104719319D01*
X136977414Y-104487539D01*
X136977414Y-113952461D01*
X136821961Y-113720681D01*
X136177454Y-113478124D01*
X135489185Y-113500673D01*
X134958039Y-113720681D01*
X134802586Y-113952461D01*
X135890000Y-115039875D01*
X136977414Y-113952461D01*
X136977414Y-114311671D01*
X136069605Y-115219480D01*
X137157019Y-116306894D01*
X137237000Y-116253251D01*
X137237000Y-136048156D01*
M02*
