G04 #@! TF.FileFunction,Legend,Top*
%FSLAX46Y46*%
G04 Gerber Fmt 4.6, Leading zero omitted, Abs format (unit mm)*
G04 Created by KiCad (PCBNEW (2015-02-20 BZR 5437)-product) date Monday, March 16, 2015 'AMt' 09:24:06 AM*
%MOMM*%
G01*
G04 APERTURE LIST*
%ADD10C,0.100000*%
%ADD11C,0.127000*%
%ADD12C,0.150000*%
G04 APERTURE END LIST*
D10*
D11*
X127000000Y-138354405D02*
X127048381Y-138257643D01*
X127048381Y-138112500D01*
X127000000Y-137967358D01*
X126903238Y-137870596D01*
X126806476Y-137822215D01*
X126612952Y-137773834D01*
X126467810Y-137773834D01*
X126274286Y-137822215D01*
X126177524Y-137870596D01*
X126080762Y-137967358D01*
X126032381Y-138112500D01*
X126032381Y-138209262D01*
X126080762Y-138354405D01*
X126129143Y-138402786D01*
X126467810Y-138402786D01*
X126467810Y-138209262D01*
X126032381Y-138838215D02*
X127048381Y-138838215D01*
X126032381Y-139418786D01*
X127048381Y-139418786D01*
X126032381Y-139902596D02*
X127048381Y-139902596D01*
X127048381Y-140144501D01*
X127000000Y-140289643D01*
X126903238Y-140386405D01*
X126806476Y-140434786D01*
X126612952Y-140483167D01*
X126467810Y-140483167D01*
X126274286Y-140434786D01*
X126177524Y-140386405D01*
X126080762Y-140289643D01*
X126032381Y-140144501D01*
X126032381Y-139902596D01*
X124317881Y-137353525D02*
X123301881Y-137692192D01*
X124317881Y-138030858D01*
X123301881Y-138369525D02*
X124317881Y-138369525D01*
X123930833Y-138369525D02*
X123979214Y-138466287D01*
X123979214Y-138659810D01*
X123930833Y-138756572D01*
X123882452Y-138804953D01*
X123785690Y-138853334D01*
X123495405Y-138853334D01*
X123398643Y-138804953D01*
X123350262Y-138756572D01*
X123301881Y-138659810D01*
X123301881Y-138466287D01*
X123350262Y-138369525D01*
X123301881Y-139724191D02*
X123834071Y-139724191D01*
X123930833Y-139675810D01*
X123979214Y-139579048D01*
X123979214Y-139385525D01*
X123930833Y-139288763D01*
X123350262Y-139724191D02*
X123301881Y-139627429D01*
X123301881Y-139385525D01*
X123350262Y-139288763D01*
X123447024Y-139240382D01*
X123543786Y-139240382D01*
X123640548Y-139288763D01*
X123688929Y-139385525D01*
X123688929Y-139627429D01*
X123737310Y-139724191D01*
X123979214Y-140062858D02*
X123979214Y-140449906D01*
X124317881Y-140208001D02*
X123447024Y-140208001D01*
X123350262Y-140256382D01*
X123301881Y-140353144D01*
X123301881Y-140449906D01*
X123979214Y-140643429D02*
X123979214Y-141030477D01*
X124317881Y-140788572D02*
X123447024Y-140788572D01*
X123350262Y-140836953D01*
X123301881Y-140933715D01*
X123301881Y-141030477D01*
X82169000Y-135738809D02*
X82138762Y-135799286D01*
X82138762Y-135890000D01*
X82169000Y-135980714D01*
X82229476Y-136041190D01*
X82289952Y-136071429D01*
X82410905Y-136101667D01*
X82501619Y-136101667D01*
X82622571Y-136071429D01*
X82683048Y-136041190D01*
X82743524Y-135980714D01*
X82773762Y-135890000D01*
X82773762Y-135829524D01*
X82743524Y-135738809D01*
X82713286Y-135708571D01*
X82501619Y-135708571D01*
X82501619Y-135829524D01*
X82773762Y-135436429D02*
X82138762Y-135436429D01*
X82773762Y-135073571D01*
X82138762Y-135073571D01*
X82773762Y-134771191D02*
X82138762Y-134771191D01*
X82138762Y-134620000D01*
X82169000Y-134529286D01*
X82229476Y-134468810D01*
X82289952Y-134438571D01*
X82410905Y-134408333D01*
X82501619Y-134408333D01*
X82622571Y-134438571D01*
X82683048Y-134468810D01*
X82743524Y-134529286D01*
X82773762Y-134620000D01*
X82773762Y-134771191D01*
X80424262Y-135666238D02*
X80121881Y-135877905D01*
X80424262Y-136029096D02*
X79789262Y-136029096D01*
X79789262Y-135787191D01*
X79819500Y-135726715D01*
X79849738Y-135696476D01*
X79910214Y-135666238D01*
X80000929Y-135666238D01*
X80061405Y-135696476D01*
X80091643Y-135726715D01*
X80121881Y-135787191D01*
X80121881Y-136029096D01*
X80394024Y-135424334D02*
X80424262Y-135333619D01*
X80424262Y-135182429D01*
X80394024Y-135121953D01*
X80363786Y-135091715D01*
X80303310Y-135061476D01*
X80242833Y-135061476D01*
X80182357Y-135091715D01*
X80152119Y-135121953D01*
X80121881Y-135182429D01*
X80091643Y-135303381D01*
X80061405Y-135363857D01*
X80031167Y-135394096D01*
X79970690Y-135424334D01*
X79910214Y-135424334D01*
X79849738Y-135394096D01*
X79819500Y-135363857D01*
X79789262Y-135303381D01*
X79789262Y-135152191D01*
X79819500Y-135061476D01*
X79789262Y-134880048D02*
X79789262Y-134517191D01*
X80424262Y-134698619D02*
X79789262Y-134698619D01*
X77122262Y-136089572D02*
X77757262Y-135877905D01*
X77122262Y-135666238D01*
X77757262Y-135363857D02*
X77727024Y-135424333D01*
X77696786Y-135454572D01*
X77636310Y-135484810D01*
X77454881Y-135484810D01*
X77394405Y-135454572D01*
X77364167Y-135424333D01*
X77333929Y-135363857D01*
X77333929Y-135273143D01*
X77364167Y-135212667D01*
X77394405Y-135182429D01*
X77454881Y-135152191D01*
X77636310Y-135152191D01*
X77696786Y-135182429D01*
X77727024Y-135212667D01*
X77757262Y-135273143D01*
X77757262Y-135363857D01*
X77575833Y-134910286D02*
X77575833Y-134607905D01*
X77757262Y-134970762D02*
X77122262Y-134759095D01*
X77757262Y-134547428D01*
X74582262Y-135756953D02*
X74582262Y-136059334D01*
X74884643Y-136089572D01*
X74854405Y-136059334D01*
X74824167Y-135998857D01*
X74824167Y-135847667D01*
X74854405Y-135787191D01*
X74884643Y-135756953D01*
X74945119Y-135726714D01*
X75096310Y-135726714D01*
X75156786Y-135756953D01*
X75187024Y-135787191D01*
X75217262Y-135847667D01*
X75217262Y-135998857D01*
X75187024Y-136059334D01*
X75156786Y-136089572D01*
X74582262Y-135545286D02*
X75217262Y-135333619D01*
X74582262Y-135121952D01*
X72154143Y-136243786D02*
X72184381Y-136153072D01*
X72214619Y-136122833D01*
X72275095Y-136092595D01*
X72365810Y-136092595D01*
X72426286Y-136122833D01*
X72456524Y-136153072D01*
X72486762Y-136213548D01*
X72486762Y-136455453D01*
X71851762Y-136455453D01*
X71851762Y-136243786D01*
X71882000Y-136183310D01*
X71912238Y-136153072D01*
X71972714Y-136122833D01*
X72033190Y-136122833D01*
X72093667Y-136153072D01*
X72123905Y-136183310D01*
X72154143Y-136243786D01*
X72154143Y-136455453D01*
X71851762Y-135699500D02*
X71851762Y-135578548D01*
X71882000Y-135518072D01*
X71942476Y-135457595D01*
X72063429Y-135427357D01*
X72275095Y-135427357D01*
X72396048Y-135457595D01*
X72456524Y-135518072D01*
X72486762Y-135578548D01*
X72486762Y-135699500D01*
X72456524Y-135759976D01*
X72396048Y-135820453D01*
X72275095Y-135850691D01*
X72063429Y-135850691D01*
X71942476Y-135820453D01*
X71882000Y-135759976D01*
X71851762Y-135699500D01*
X71851762Y-135155215D02*
X72365810Y-135155215D01*
X72426286Y-135124976D01*
X72456524Y-135094738D01*
X72486762Y-135034262D01*
X72486762Y-134913310D01*
X72456524Y-134852834D01*
X72426286Y-134822595D01*
X72365810Y-134792357D01*
X71851762Y-134792357D01*
X71851762Y-134580691D02*
X71851762Y-134217834D01*
X72486762Y-134399262D02*
X71851762Y-134399262D01*
X69741143Y-135820452D02*
X69771381Y-135729738D01*
X69801619Y-135699499D01*
X69862095Y-135669261D01*
X69952810Y-135669261D01*
X70013286Y-135699499D01*
X70043524Y-135729738D01*
X70073762Y-135790214D01*
X70073762Y-136032119D01*
X69438762Y-136032119D01*
X69438762Y-135820452D01*
X69469000Y-135759976D01*
X69499238Y-135729738D01*
X69559714Y-135699499D01*
X69620190Y-135699499D01*
X69680667Y-135729738D01*
X69710905Y-135759976D01*
X69741143Y-135820452D01*
X69741143Y-136032119D01*
X70073762Y-135397119D02*
X69438762Y-135397119D01*
X70073762Y-135094738D02*
X69438762Y-135094738D01*
X70073762Y-134731880D01*
X69438762Y-134731880D01*
X66929000Y-135865809D02*
X66898762Y-135926286D01*
X66898762Y-136017000D01*
X66929000Y-136107714D01*
X66989476Y-136168190D01*
X67049952Y-136198429D01*
X67170905Y-136228667D01*
X67261619Y-136228667D01*
X67382571Y-136198429D01*
X67443048Y-136168190D01*
X67503524Y-136107714D01*
X67533762Y-136017000D01*
X67533762Y-135956524D01*
X67503524Y-135865809D01*
X67473286Y-135835571D01*
X67261619Y-135835571D01*
X67261619Y-135956524D01*
X67533762Y-135563429D02*
X66898762Y-135563429D01*
X67533762Y-135200571D01*
X66898762Y-135200571D01*
X67533762Y-134898191D02*
X66898762Y-134898191D01*
X66898762Y-134747000D01*
X66929000Y-134656286D01*
X66989476Y-134595810D01*
X67049952Y-134565571D01*
X67170905Y-134535333D01*
X67261619Y-134535333D01*
X67382571Y-134565571D01*
X67443048Y-134595810D01*
X67503524Y-134656286D01*
X67533762Y-134747000D01*
X67533762Y-134898191D01*
X59405762Y-136080500D02*
X60040762Y-135868833D01*
X59405762Y-135657166D01*
X60040762Y-135445500D02*
X59617429Y-135445500D01*
X59405762Y-135445500D02*
X59436000Y-135475738D01*
X59466238Y-135445500D01*
X59436000Y-135415261D01*
X59405762Y-135445500D01*
X59466238Y-135445500D01*
X59859333Y-135173357D02*
X59859333Y-134870976D01*
X60040762Y-135233833D02*
X59405762Y-135022166D01*
X60040762Y-134810499D01*
X62487024Y-136201453D02*
X62517262Y-136110738D01*
X62517262Y-135959548D01*
X62487024Y-135899072D01*
X62456786Y-135868834D01*
X62396310Y-135838595D01*
X62335833Y-135838595D01*
X62275357Y-135868834D01*
X62245119Y-135899072D01*
X62214881Y-135959548D01*
X62184643Y-136080500D01*
X62154405Y-136140976D01*
X62124167Y-136171215D01*
X62063690Y-136201453D01*
X62003214Y-136201453D01*
X61942738Y-136171215D01*
X61912500Y-136140976D01*
X61882262Y-136080500D01*
X61882262Y-135929310D01*
X61912500Y-135838595D01*
X62456786Y-135203595D02*
X62487024Y-135233833D01*
X62517262Y-135324548D01*
X62517262Y-135385024D01*
X62487024Y-135475738D01*
X62426548Y-135536214D01*
X62366071Y-135566453D01*
X62245119Y-135596691D01*
X62154405Y-135596691D01*
X62033452Y-135566453D01*
X61972976Y-135536214D01*
X61912500Y-135475738D01*
X61882262Y-135385024D01*
X61882262Y-135324548D01*
X61912500Y-135233833D01*
X61942738Y-135203595D01*
X62517262Y-134629072D02*
X62517262Y-134931453D01*
X61882262Y-134931453D01*
X65027024Y-136153072D02*
X65057262Y-136062357D01*
X65057262Y-135911167D01*
X65027024Y-135850691D01*
X64996786Y-135820453D01*
X64936310Y-135790214D01*
X64875833Y-135790214D01*
X64815357Y-135820453D01*
X64785119Y-135850691D01*
X64754881Y-135911167D01*
X64724643Y-136032119D01*
X64694405Y-136092595D01*
X64664167Y-136122834D01*
X64603690Y-136153072D01*
X64543214Y-136153072D01*
X64482738Y-136122834D01*
X64452500Y-136092595D01*
X64422262Y-136032119D01*
X64422262Y-135880929D01*
X64452500Y-135790214D01*
X65057262Y-135518072D02*
X64422262Y-135518072D01*
X64422262Y-135366881D01*
X64452500Y-135276167D01*
X64512976Y-135215691D01*
X64573452Y-135185452D01*
X64694405Y-135155214D01*
X64785119Y-135155214D01*
X64906071Y-135185452D01*
X64966548Y-135215691D01*
X65027024Y-135276167D01*
X65057262Y-135366881D01*
X65057262Y-135518072D01*
X64875833Y-134913310D02*
X64875833Y-134610929D01*
X65057262Y-134973786D02*
X64422262Y-134762119D01*
X65057262Y-134550452D01*
D12*
X81280000Y-136779000D02*
X58420000Y-136779000D01*
X58420000Y-136779000D02*
X58420000Y-139319000D01*
X58420000Y-139319000D02*
X81280000Y-139319000D01*
X84100000Y-136499000D02*
X82550000Y-136499000D01*
X81280000Y-136779000D02*
X81280000Y-139319000D01*
X82550000Y-139599000D02*
X84100000Y-139599000D01*
X84100000Y-139599000D02*
X84100000Y-136499000D01*
X76454000Y-132334000D02*
G75*
G03X76454000Y-132334000I-2286000J0D01*
G01*
X61722000Y-99314000D02*
G75*
G03X61722000Y-99314000I-2286000J0D01*
G01*
X75977000Y-121955000D02*
X76677000Y-121955000D01*
X76677000Y-123155000D02*
X75977000Y-123155000D01*
X137668000Y-137795000D02*
G75*
G03X137668000Y-137795000I-2286000J0D01*
G01*
X131658360Y-100764340D02*
X136057640Y-100764340D01*
X136057640Y-98861880D02*
X136057640Y-89860120D01*
X131658360Y-89860120D02*
X131658360Y-98861880D01*
X130655060Y-101219000D02*
X131754880Y-101219000D01*
X131155440Y-101818440D02*
X131155440Y-100619560D01*
X146177000Y-115316000D02*
X146177000Y-103124000D01*
X146177000Y-103124000D02*
X129159000Y-103124000D01*
X129159000Y-103124000D02*
X129159000Y-115316000D01*
X129159000Y-115316000D02*
X146177000Y-115316000D01*
X84293000Y-97325000D02*
X84438000Y-97325000D01*
X84293000Y-93175000D02*
X84438000Y-93175000D01*
X89443000Y-93175000D02*
X89298000Y-93175000D01*
X89443000Y-97325000D02*
X89298000Y-97325000D01*
X84293000Y-97325000D02*
X84293000Y-93175000D01*
X89443000Y-97325000D02*
X89443000Y-93175000D01*
X84438000Y-97325000D02*
X84438000Y-98725000D01*
X123155000Y-95420000D02*
X123300000Y-95420000D01*
X123155000Y-91270000D02*
X123300000Y-91270000D01*
X128305000Y-91270000D02*
X128160000Y-91270000D01*
X128305000Y-95420000D02*
X128160000Y-95420000D01*
X123155000Y-95420000D02*
X123155000Y-91270000D01*
X128305000Y-95420000D02*
X128305000Y-91270000D01*
X123300000Y-95420000D02*
X123300000Y-96820000D01*
X55689500Y-84399120D02*
X55689500Y-93400880D01*
X52189380Y-84399120D02*
X52189380Y-93400880D01*
X52189380Y-93400880D02*
X66690240Y-93400880D01*
X66690240Y-93400880D02*
X66690240Y-84399120D01*
X66690240Y-84399120D02*
X52189380Y-84399120D01*
X122148000Y-136932000D02*
X123698000Y-136932000D01*
X127508000Y-136652000D02*
X124968000Y-136652000D01*
X124968000Y-136652000D02*
X124968000Y-134112000D01*
X123698000Y-133832000D02*
X122148000Y-133832000D01*
X122148000Y-133832000D02*
X122148000Y-136932000D01*
X124968000Y-134112000D02*
X127508000Y-134112000D01*
X127508000Y-134112000D02*
X127508000Y-136652000D01*
X112933480Y-106857800D02*
X112933480Y-107348020D01*
X113634520Y-106857800D02*
X112933480Y-106857800D01*
X113634520Y-110058200D02*
X112933480Y-110058200D01*
X111863736Y-129651906D02*
X111863736Y-130142126D01*
X112564776Y-129651906D02*
X111863736Y-129651906D01*
X112564776Y-132852306D02*
X111863736Y-132852306D01*
X107454700Y-90263980D02*
X106964480Y-90263980D01*
X107454700Y-90965020D02*
X107454700Y-90263980D01*
X104254300Y-90965020D02*
X104254300Y-90263980D01*
X88846660Y-102702360D02*
X88846660Y-107101640D01*
X90749120Y-107101640D02*
X99750880Y-107101640D01*
X99750880Y-102702360D02*
X90749120Y-102702360D01*
X88392000Y-101699060D02*
X88392000Y-102798880D01*
X87792560Y-102199440D02*
X88991440Y-102199440D01*
X81153000Y-95250000D02*
X81153000Y-97028000D01*
X81153000Y-97028000D02*
X80518000Y-97663000D01*
X80518000Y-97663000D02*
X76962000Y-97663000D01*
X76962000Y-97663000D02*
X76327000Y-97028000D01*
X76327000Y-97028000D02*
X76327000Y-93472000D01*
X76327000Y-93472000D02*
X76962000Y-92837000D01*
X76962000Y-92837000D02*
X80518000Y-92837000D01*
X80518000Y-92837000D02*
X81153000Y-93472000D01*
X81153000Y-93472000D02*
X81153000Y-95250000D01*
X119761000Y-93472000D02*
X119761000Y-95250000D01*
X119761000Y-95250000D02*
X119126000Y-95885000D01*
X119126000Y-95885000D02*
X115570000Y-95885000D01*
X115570000Y-95885000D02*
X114935000Y-95250000D01*
X114935000Y-95250000D02*
X114935000Y-91694000D01*
X114935000Y-91694000D02*
X115570000Y-91059000D01*
X115570000Y-91059000D02*
X119126000Y-91059000D01*
X119126000Y-91059000D02*
X119761000Y-91694000D01*
X119761000Y-91694000D02*
X119761000Y-93472000D01*
X103281480Y-96951800D02*
X103281480Y-97442020D01*
X103982520Y-96951800D02*
X103281480Y-96951800D01*
X103982520Y-100152200D02*
X103281480Y-100152200D01*
X85910420Y-90170000D02*
X86758780Y-91170760D01*
X86758780Y-91170760D02*
X86758780Y-89169240D01*
X86758780Y-89169240D02*
X85910420Y-90170000D01*
X85910420Y-90170000D02*
X85910420Y-89169240D01*
X85910420Y-90170000D02*
X85910420Y-91170760D01*
X105468420Y-108458000D02*
X106316780Y-109458760D01*
X106316780Y-109458760D02*
X106316780Y-107457240D01*
X106316780Y-107457240D02*
X105468420Y-108458000D01*
X105468420Y-108458000D02*
X105468420Y-107457240D01*
X105468420Y-108458000D02*
X105468420Y-109458760D01*
X118110000Y-109532420D02*
X117109240Y-110380780D01*
X117109240Y-110380780D02*
X119110760Y-110380780D01*
X119110760Y-110380780D02*
X118110000Y-109532420D01*
X118110000Y-109532420D02*
X119110760Y-109532420D01*
X118110000Y-109532420D02*
X117109240Y-109532420D01*
X108008420Y-114808000D02*
X108856780Y-115808760D01*
X108856780Y-115808760D02*
X108856780Y-113807240D01*
X108856780Y-113807240D02*
X108008420Y-114808000D01*
X108008420Y-114808000D02*
X108008420Y-113807240D01*
X108008420Y-114808000D02*
X108008420Y-115808760D01*
X108008420Y-122174000D02*
X108856780Y-123174760D01*
X108856780Y-123174760D02*
X108856780Y-121173240D01*
X108856780Y-121173240D02*
X108008420Y-122174000D01*
X108008420Y-122174000D02*
X108008420Y-121173240D01*
X108008420Y-122174000D02*
X108008420Y-123174760D01*
X120454420Y-129286000D02*
X121302780Y-130286760D01*
X121302780Y-130286760D02*
X121302780Y-128285240D01*
X121302780Y-128285240D02*
X120454420Y-129286000D01*
X120454420Y-129286000D02*
X120454420Y-128285240D01*
X120454420Y-129286000D02*
X120454420Y-130286760D01*
X104140000Y-130360420D02*
X103139240Y-131208780D01*
X103139240Y-131208780D02*
X105140760Y-131208780D01*
X105140760Y-131208780D02*
X104140000Y-130360420D01*
X104140000Y-130360420D02*
X105140760Y-130360420D01*
X104140000Y-130360420D02*
X103139240Y-130360420D01*
X107637580Y-84836000D02*
X106789220Y-83835240D01*
X106789220Y-83835240D02*
X106789220Y-85836760D01*
X106789220Y-85836760D02*
X107637580Y-84836000D01*
X107637580Y-84836000D02*
X107637580Y-85836760D01*
X107637580Y-84836000D02*
X107637580Y-83835240D01*
X124518420Y-87884000D02*
X125366780Y-88884760D01*
X125366780Y-88884760D02*
X125366780Y-86883240D01*
X125366780Y-86883240D02*
X124518420Y-87884000D01*
X124518420Y-87884000D02*
X124518420Y-86883240D01*
X124518420Y-87884000D02*
X124518420Y-88884760D01*
X77843000Y-119674000D02*
X76843000Y-119674000D01*
X76843000Y-118324000D02*
X77843000Y-118324000D01*
X77843000Y-118023000D02*
X76843000Y-118023000D01*
X76843000Y-116673000D02*
X77843000Y-116673000D01*
X77843000Y-116372000D02*
X76843000Y-116372000D01*
X76843000Y-115022000D02*
X77843000Y-115022000D01*
X97528000Y-115737000D02*
X96528000Y-115737000D01*
X96528000Y-114387000D02*
X97528000Y-114387000D01*
X99052000Y-112181000D02*
X98052000Y-112181000D01*
X98052000Y-110831000D02*
X99052000Y-110831000D01*
X99052000Y-110149000D02*
X98052000Y-110149000D01*
X98052000Y-108799000D02*
X99052000Y-108799000D01*
X99052000Y-123865000D02*
X98052000Y-123865000D01*
X98052000Y-122515000D02*
X99052000Y-122515000D01*
X99052000Y-121833000D02*
X98052000Y-121833000D01*
X98052000Y-120483000D02*
X99052000Y-120483000D01*
X97528000Y-118277000D02*
X96528000Y-118277000D01*
X96528000Y-116927000D02*
X97528000Y-116927000D01*
X66763000Y-115675000D02*
X66763000Y-116000000D01*
X71413000Y-115675000D02*
X71413000Y-116000000D01*
X71413000Y-125625000D02*
X71413000Y-125300000D01*
X66763000Y-125625000D02*
X66763000Y-125300000D01*
X66763000Y-115675000D02*
X71413000Y-115675000D01*
X66763000Y-125625000D02*
X71413000Y-125625000D01*
X66763000Y-116000000D02*
X65688000Y-116000000D01*
X83501000Y-108985000D02*
X83501000Y-109330000D01*
X91251000Y-108985000D02*
X91251000Y-109330000D01*
X91251000Y-127235000D02*
X91251000Y-126890000D01*
X83501000Y-127235000D02*
X83501000Y-126890000D01*
X83501000Y-108985000D02*
X91251000Y-108985000D01*
X83501000Y-127235000D02*
X91251000Y-127235000D01*
X83501000Y-109330000D02*
X81676000Y-109330000D01*
X77843000Y-121325000D02*
X76843000Y-121325000D01*
X76843000Y-119975000D02*
X77843000Y-119975000D01*
X93056000Y-94392000D02*
X93056000Y-95092000D01*
X91856000Y-95092000D02*
X91856000Y-94392000D01*
X82204000Y-95600000D02*
X82204000Y-94900000D01*
X83404000Y-94900000D02*
X83404000Y-95600000D01*
X131918000Y-86264000D02*
X131918000Y-86964000D01*
X130718000Y-86964000D02*
X130718000Y-86264000D01*
X121320000Y-93695000D02*
X121320000Y-92995000D01*
X122520000Y-92995000D02*
X122520000Y-93695000D01*
X75977000Y-123733000D02*
X76677000Y-123733000D01*
X76677000Y-124933000D02*
X75977000Y-124933000D01*
X65948000Y-113380000D02*
X65948000Y-112680000D01*
X67148000Y-112680000D02*
X67148000Y-113380000D01*
X63916000Y-113380000D02*
X63916000Y-112680000D01*
X65116000Y-112680000D02*
X65116000Y-113380000D01*
X64227000Y-124618000D02*
X64227000Y-125318000D01*
X63027000Y-125318000D02*
X63027000Y-124618000D01*
X62322000Y-124618000D02*
X62322000Y-125318000D01*
X61122000Y-125318000D02*
X61122000Y-124618000D01*
X78074000Y-110074000D02*
X77374000Y-110074000D01*
X77374000Y-108874000D02*
X78074000Y-108874000D01*
X96678000Y-124622000D02*
X97378000Y-124622000D01*
X97378000Y-125822000D02*
X96678000Y-125822000D01*
X78582000Y-128616000D02*
X77882000Y-128616000D01*
X77882000Y-127416000D02*
X78582000Y-127416000D01*
X94396000Y-111348000D02*
X94396000Y-110648000D01*
X95596000Y-110648000D02*
X95596000Y-111348000D01*
X94396000Y-121508000D02*
X94396000Y-120808000D01*
X95596000Y-120808000D02*
X95596000Y-121508000D01*
X116428000Y-116932000D02*
X115728000Y-116932000D01*
X115728000Y-115732000D02*
X116428000Y-115732000D01*
X116428000Y-120488000D02*
X115728000Y-120488000D01*
X115728000Y-119288000D02*
X116428000Y-119288000D01*
X68159000Y-113530000D02*
X68159000Y-112530000D01*
X69509000Y-112530000D02*
X69509000Y-113530000D01*
X91781000Y-90416000D02*
X91781000Y-89416000D01*
X93131000Y-89416000D02*
X93131000Y-90416000D01*
X87289000Y-101608000D02*
X87289000Y-102608000D01*
X85939000Y-102608000D02*
X85939000Y-101608000D01*
X90162000Y-101513000D02*
X89162000Y-101513000D01*
X89162000Y-100163000D02*
X90162000Y-100163000D01*
X61333000Y-119293000D02*
X60333000Y-119293000D01*
X60333000Y-117943000D02*
X61333000Y-117943000D01*
X61333000Y-121071000D02*
X60333000Y-121071000D01*
X60333000Y-119721000D02*
X61333000Y-119721000D01*
X61333000Y-117515000D02*
X60333000Y-117515000D01*
X60333000Y-116165000D02*
X61333000Y-116165000D01*
X65286000Y-132929000D02*
X66286000Y-132929000D01*
X66286000Y-134279000D02*
X65286000Y-134279000D01*
X61714000Y-134279000D02*
X60714000Y-134279000D01*
X60714000Y-132929000D02*
X61714000Y-132929000D01*
X78351000Y-111927000D02*
X77351000Y-111927000D01*
X77351000Y-110577000D02*
X78351000Y-110577000D01*
X78732000Y-126659000D02*
X77732000Y-126659000D01*
X77732000Y-125309000D02*
X78732000Y-125309000D01*
X97528000Y-127675000D02*
X96528000Y-127675000D01*
X96528000Y-126325000D02*
X97528000Y-126325000D01*
X106180000Y-110323000D02*
X107180000Y-110323000D01*
X107180000Y-111673000D02*
X106180000Y-111673000D01*
X113784000Y-112181000D02*
X112784000Y-112181000D01*
X112784000Y-110831000D02*
X113784000Y-110831000D01*
X107958000Y-116165000D02*
X108958000Y-116165000D01*
X108958000Y-117515000D02*
X107958000Y-117515000D01*
X107958000Y-119213000D02*
X108958000Y-119213000D01*
X108958000Y-120563000D02*
X107958000Y-120563000D01*
X112768000Y-135041000D02*
X111768000Y-135041000D01*
X111768000Y-133691000D02*
X112768000Y-133691000D01*
X107863000Y-130310000D02*
X107863000Y-131310000D01*
X106513000Y-131310000D02*
X106513000Y-130310000D01*
X97369000Y-90416000D02*
X97369000Y-89416000D01*
X98719000Y-89416000D02*
X98719000Y-90416000D01*
X128770000Y-86273000D02*
X127770000Y-86273000D01*
X127770000Y-84923000D02*
X128770000Y-84923000D01*
X100417000Y-90416000D02*
X100417000Y-89416000D01*
X101767000Y-89416000D02*
X101767000Y-90416000D01*
X100417000Y-94988000D02*
X100417000Y-93988000D01*
X101767000Y-93988000D02*
X101767000Y-94988000D01*
X88908000Y-136358000D02*
X89908000Y-136358000D01*
X89908000Y-137708000D02*
X88908000Y-137708000D01*
X89908000Y-135676000D02*
X88908000Y-135676000D01*
X88908000Y-134326000D02*
X89908000Y-134326000D01*
X103982000Y-102200000D02*
X103282000Y-102200000D01*
X103282000Y-101000000D02*
X103982000Y-101000000D01*
X76042000Y-106010000D02*
X75342000Y-106010000D01*
X75342000Y-104810000D02*
X76042000Y-104810000D01*
X76042000Y-104232000D02*
X75342000Y-104232000D01*
X75342000Y-103032000D02*
X76042000Y-103032000D01*
X70450000Y-89312000D02*
X70450000Y-90012000D01*
X69250000Y-90012000D02*
X69250000Y-89312000D01*
X73244000Y-89312000D02*
X73244000Y-90012000D01*
X72044000Y-90012000D02*
X72044000Y-89312000D01*
X108747000Y-104236000D02*
X108747000Y-103536000D01*
X109947000Y-103536000D02*
X109947000Y-104236000D01*
X125730000Y-118491000D02*
X125730000Y-120269000D01*
X125730000Y-120269000D02*
X125095000Y-120904000D01*
X125095000Y-120904000D02*
X121539000Y-120904000D01*
X121539000Y-120904000D02*
X120904000Y-120269000D01*
X120904000Y-120269000D02*
X120904000Y-116713000D01*
X120904000Y-116713000D02*
X121539000Y-116078000D01*
X121539000Y-116078000D02*
X125095000Y-116078000D01*
X125095000Y-116078000D02*
X125730000Y-116713000D01*
X125730000Y-116713000D02*
X125730000Y-118491000D01*
X114208000Y-104236000D02*
X114208000Y-103536000D01*
X115408000Y-103536000D02*
X115408000Y-104236000D01*
X112430000Y-104236000D02*
X112430000Y-103536000D01*
X113630000Y-103536000D02*
X113630000Y-104236000D01*
X112176000Y-127096000D02*
X112176000Y-126396000D01*
X113376000Y-126396000D02*
X113376000Y-127096000D01*
X137922000Y-85471000D02*
G75*
G03X137922000Y-85471000I-2286000J0D01*
G01*
X110652000Y-104236000D02*
X110652000Y-103536000D01*
X111852000Y-103536000D02*
X111852000Y-104236000D01*
X106969000Y-104236000D02*
X106969000Y-103536000D01*
X108169000Y-103536000D02*
X108169000Y-104236000D01*
X84859905Y-138120381D02*
X84859905Y-137120381D01*
X85240858Y-137120381D01*
X85336096Y-137168000D01*
X85383715Y-137215619D01*
X85431334Y-137310857D01*
X85431334Y-137453714D01*
X85383715Y-137548952D01*
X85336096Y-137596571D01*
X85240858Y-137644190D01*
X84859905Y-137644190D01*
X86383715Y-138120381D02*
X85812286Y-138120381D01*
X86098000Y-138120381D02*
X86098000Y-137120381D01*
X86002762Y-137263238D01*
X85907524Y-137358476D01*
X85812286Y-137406095D01*
X79335334Y-123039143D02*
X79287715Y-123086762D01*
X79144858Y-123134381D01*
X79049620Y-123134381D01*
X78906762Y-123086762D01*
X78811524Y-122991524D01*
X78763905Y-122896286D01*
X78716286Y-122705810D01*
X78716286Y-122562952D01*
X78763905Y-122372476D01*
X78811524Y-122277238D01*
X78906762Y-122182000D01*
X79049620Y-122134381D01*
X79144858Y-122134381D01*
X79287715Y-122182000D01*
X79335334Y-122229619D01*
X79668667Y-122134381D02*
X80335334Y-122134381D01*
X79906762Y-123134381D01*
X131040143Y-94749857D02*
X131087762Y-94797476D01*
X131135381Y-94940333D01*
X131135381Y-95035571D01*
X131087762Y-95178429D01*
X130992524Y-95273667D01*
X130897286Y-95321286D01*
X130706810Y-95368905D01*
X130563952Y-95368905D01*
X130373476Y-95321286D01*
X130278238Y-95273667D01*
X130183000Y-95178429D01*
X130135381Y-95035571D01*
X130135381Y-94940333D01*
X130183000Y-94797476D01*
X130230619Y-94749857D01*
X130230619Y-94368905D02*
X130183000Y-94321286D01*
X130135381Y-94226048D01*
X130135381Y-93987952D01*
X130183000Y-93892714D01*
X130230619Y-93845095D01*
X130325857Y-93797476D01*
X130421095Y-93797476D01*
X130563952Y-93845095D01*
X131135381Y-94416524D01*
X131135381Y-93797476D01*
X130135381Y-92892714D02*
X130135381Y-93368905D01*
X130611571Y-93416524D01*
X130563952Y-93368905D01*
X130516333Y-93273667D01*
X130516333Y-93035571D01*
X130563952Y-92940333D01*
X130611571Y-92892714D01*
X130706810Y-92845095D01*
X130944905Y-92845095D01*
X131040143Y-92892714D01*
X131087762Y-92940333D01*
X131135381Y-93035571D01*
X131135381Y-93273667D01*
X131087762Y-93368905D01*
X131040143Y-93416524D01*
X131229409Y-101597412D02*
X131229409Y-100835507D01*
X131610361Y-101216459D02*
X130848456Y-101216459D01*
X132040381Y-117173333D02*
X132754667Y-117173333D01*
X132897524Y-117220953D01*
X132992762Y-117316191D01*
X133040381Y-117459048D01*
X133040381Y-117554286D01*
X133040381Y-116173333D02*
X133040381Y-116744762D01*
X133040381Y-116459048D02*
X132040381Y-116459048D01*
X132183238Y-116554286D01*
X132278476Y-116649524D01*
X132326095Y-116744762D01*
X82510381Y-92455905D02*
X83319905Y-92455905D01*
X83415143Y-92408286D01*
X83462762Y-92360667D01*
X83510381Y-92265429D01*
X83510381Y-92074952D01*
X83462762Y-91979714D01*
X83415143Y-91932095D01*
X83319905Y-91884476D01*
X82510381Y-91884476D01*
X83510381Y-90884476D02*
X83510381Y-91455905D01*
X83510381Y-91170191D02*
X82510381Y-91170191D01*
X82653238Y-91265429D01*
X82748476Y-91360667D01*
X82796095Y-91455905D01*
X124968095Y-97750381D02*
X124968095Y-98559905D01*
X125015714Y-98655143D01*
X125063333Y-98702762D01*
X125158571Y-98750381D01*
X125349048Y-98750381D01*
X125444286Y-98702762D01*
X125491905Y-98655143D01*
X125539524Y-98559905D01*
X125539524Y-97750381D01*
X125968095Y-97845619D02*
X126015714Y-97798000D01*
X126110952Y-97750381D01*
X126349048Y-97750381D01*
X126444286Y-97798000D01*
X126491905Y-97845619D01*
X126539524Y-97940857D01*
X126539524Y-98036095D01*
X126491905Y-98178952D01*
X125920476Y-98750381D01*
X126539524Y-98750381D01*
X57459715Y-94845143D02*
X57412096Y-94892762D01*
X57269239Y-94940381D01*
X57174001Y-94940381D01*
X57031143Y-94892762D01*
X56935905Y-94797524D01*
X56888286Y-94702286D01*
X56840667Y-94511810D01*
X56840667Y-94368952D01*
X56888286Y-94178476D01*
X56935905Y-94083238D01*
X57031143Y-93988000D01*
X57174001Y-93940381D01*
X57269239Y-93940381D01*
X57412096Y-93988000D01*
X57459715Y-94035619D01*
X58078762Y-93940381D02*
X58269239Y-93940381D01*
X58364477Y-93988000D01*
X58459715Y-94083238D01*
X58507334Y-94273714D01*
X58507334Y-94607048D01*
X58459715Y-94797524D01*
X58364477Y-94892762D01*
X58269239Y-94940381D01*
X58078762Y-94940381D01*
X57983524Y-94892762D01*
X57888286Y-94797524D01*
X57840667Y-94607048D01*
X57840667Y-94273714D01*
X57888286Y-94083238D01*
X57983524Y-93988000D01*
X58078762Y-93940381D01*
X58935905Y-94940381D02*
X58935905Y-93940381D01*
X59507334Y-94940381D01*
X59507334Y-93940381D01*
X59888286Y-93940381D02*
X60507334Y-93940381D01*
X60174000Y-94321333D01*
X60316858Y-94321333D01*
X60412096Y-94368952D01*
X60459715Y-94416571D01*
X60507334Y-94511810D01*
X60507334Y-94749905D01*
X60459715Y-94845143D01*
X60412096Y-94892762D01*
X60316858Y-94940381D01*
X60031143Y-94940381D01*
X59935905Y-94892762D01*
X59888286Y-94845143D01*
X123848905Y-133167381D02*
X123848905Y-132167381D01*
X124229858Y-132167381D01*
X124325096Y-132215000D01*
X124372715Y-132262619D01*
X124420334Y-132357857D01*
X124420334Y-132500714D01*
X124372715Y-132595952D01*
X124325096Y-132643571D01*
X124229858Y-132691190D01*
X123848905Y-132691190D01*
X124801286Y-132262619D02*
X124848905Y-132215000D01*
X124944143Y-132167381D01*
X125182239Y-132167381D01*
X125277477Y-132215000D01*
X125325096Y-132262619D01*
X125372715Y-132357857D01*
X125372715Y-132453095D01*
X125325096Y-132595952D01*
X124753667Y-133167381D01*
X125372715Y-133167381D01*
X116236762Y-106719619D02*
X116141524Y-106672000D01*
X116046286Y-106576762D01*
X115903429Y-106433905D01*
X115808190Y-106386286D01*
X115712952Y-106386286D01*
X115760571Y-106624381D02*
X115665333Y-106576762D01*
X115570095Y-106481524D01*
X115522476Y-106291048D01*
X115522476Y-105957714D01*
X115570095Y-105767238D01*
X115665333Y-105672000D01*
X115760571Y-105624381D01*
X115951048Y-105624381D01*
X116046286Y-105672000D01*
X116141524Y-105767238D01*
X116189143Y-105957714D01*
X116189143Y-106291048D01*
X116141524Y-106481524D01*
X116046286Y-106576762D01*
X115951048Y-106624381D01*
X115760571Y-106624381D01*
X117141524Y-106624381D02*
X116570095Y-106624381D01*
X116855809Y-106624381D02*
X116855809Y-105624381D01*
X116760571Y-105767238D01*
X116665333Y-105862476D01*
X116570095Y-105910095D01*
X115093762Y-129135119D02*
X114998524Y-129087500D01*
X114903286Y-128992262D01*
X114760429Y-128849405D01*
X114665190Y-128801786D01*
X114569952Y-128801786D01*
X114617571Y-129039881D02*
X114522333Y-128992262D01*
X114427095Y-128897024D01*
X114379476Y-128706548D01*
X114379476Y-128373214D01*
X114427095Y-128182738D01*
X114522333Y-128087500D01*
X114617571Y-128039881D01*
X114808048Y-128039881D01*
X114903286Y-128087500D01*
X114998524Y-128182738D01*
X115046143Y-128373214D01*
X115046143Y-128706548D01*
X114998524Y-128897024D01*
X114903286Y-128992262D01*
X114808048Y-129039881D01*
X114617571Y-129039881D01*
X115903286Y-128373214D02*
X115903286Y-129039881D01*
X115665190Y-127992262D02*
X115427095Y-128706548D01*
X116046143Y-128706548D01*
X105830382Y-95513139D02*
X105735144Y-95465520D01*
X105639906Y-95370282D01*
X105497049Y-95227425D01*
X105401810Y-95179806D01*
X105306572Y-95179806D01*
X105354191Y-95417901D02*
X105258953Y-95370282D01*
X105163715Y-95275044D01*
X105116096Y-95084568D01*
X105116096Y-94751234D01*
X105163715Y-94560758D01*
X105258953Y-94465520D01*
X105354191Y-94417901D01*
X105544668Y-94417901D01*
X105639906Y-94465520D01*
X105735144Y-94560758D01*
X105782763Y-94751234D01*
X105782763Y-95084568D01*
X105735144Y-95275044D01*
X105639906Y-95370282D01*
X105544668Y-95417901D01*
X105354191Y-95417901D01*
X106687525Y-94417901D02*
X106211334Y-94417901D01*
X106163715Y-94894091D01*
X106211334Y-94846472D01*
X106306572Y-94798853D01*
X106544668Y-94798853D01*
X106639906Y-94846472D01*
X106687525Y-94894091D01*
X106735144Y-94989330D01*
X106735144Y-95227425D01*
X106687525Y-95322663D01*
X106639906Y-95370282D01*
X106544668Y-95417901D01*
X106306572Y-95417901D01*
X106211334Y-95370282D01*
X106163715Y-95322663D01*
X94882674Y-101959683D02*
X94835055Y-102007302D01*
X94692198Y-102054921D01*
X94596960Y-102054921D01*
X94454102Y-102007302D01*
X94358864Y-101912064D01*
X94311245Y-101816826D01*
X94263626Y-101626350D01*
X94263626Y-101483492D01*
X94311245Y-101293016D01*
X94358864Y-101197778D01*
X94454102Y-101102540D01*
X94596960Y-101054921D01*
X94692198Y-101054921D01*
X94835055Y-101102540D01*
X94882674Y-101150159D01*
X95216007Y-101054921D02*
X95835055Y-101054921D01*
X95501721Y-101435873D01*
X95644579Y-101435873D01*
X95739817Y-101483492D01*
X95787436Y-101531111D01*
X95835055Y-101626350D01*
X95835055Y-101864445D01*
X95787436Y-101959683D01*
X95739817Y-102007302D01*
X95644579Y-102054921D01*
X95358864Y-102054921D01*
X95263626Y-102007302D01*
X95216007Y-101959683D01*
X88013588Y-102273409D02*
X88775493Y-102273409D01*
X88394541Y-102654361D02*
X88394541Y-101892456D01*
X78827334Y-91638381D02*
X78351143Y-91638381D01*
X78351143Y-90638381D01*
X79684477Y-91638381D02*
X79113048Y-91638381D01*
X79398762Y-91638381D02*
X79398762Y-90638381D01*
X79303524Y-90781238D01*
X79208286Y-90876476D01*
X79113048Y-90924095D01*
X117181334Y-90114381D02*
X116705143Y-90114381D01*
X116705143Y-89114381D01*
X117419429Y-89114381D02*
X118038477Y-89114381D01*
X117705143Y-89495333D01*
X117848001Y-89495333D01*
X117943239Y-89542952D01*
X117990858Y-89590571D01*
X118038477Y-89685810D01*
X118038477Y-89923905D01*
X117990858Y-90019143D01*
X117943239Y-90066762D01*
X117848001Y-90114381D01*
X117562286Y-90114381D01*
X117467048Y-90066762D01*
X117419429Y-90019143D01*
X107275381Y-97599405D02*
X108084905Y-97599405D01*
X108180143Y-97551786D01*
X108227762Y-97504167D01*
X108275381Y-97408929D01*
X108275381Y-97218452D01*
X108227762Y-97123214D01*
X108180143Y-97075595D01*
X108084905Y-97027976D01*
X107275381Y-97027976D01*
X107275381Y-96075595D02*
X107275381Y-96551786D01*
X107751571Y-96599405D01*
X107703952Y-96551786D01*
X107656333Y-96456548D01*
X107656333Y-96218452D01*
X107703952Y-96123214D01*
X107751571Y-96075595D01*
X107846810Y-96027976D01*
X108084905Y-96027976D01*
X108180143Y-96075595D01*
X108227762Y-96123214D01*
X108275381Y-96218452D01*
X108275381Y-96456548D01*
X108227762Y-96551786D01*
X108180143Y-96599405D01*
X85621905Y-88590381D02*
X85621905Y-87590381D01*
X85860000Y-87590381D01*
X86002858Y-87638000D01*
X86098096Y-87733238D01*
X86145715Y-87828476D01*
X86193334Y-88018952D01*
X86193334Y-88161810D01*
X86145715Y-88352286D01*
X86098096Y-88447524D01*
X86002858Y-88542762D01*
X85860000Y-88590381D01*
X85621905Y-88590381D01*
X87145715Y-88590381D02*
X86574286Y-88590381D01*
X86860000Y-88590381D02*
X86860000Y-87590381D01*
X86764762Y-87733238D01*
X86669524Y-87828476D01*
X86574286Y-87876095D01*
X89809985Y-90346827D02*
X90286176Y-90346827D01*
X89714747Y-90632541D02*
X90048080Y-89632541D01*
X90381414Y-90632541D01*
X82470975Y-90668101D02*
X82470975Y-89668101D01*
X83042404Y-90668101D02*
X82613832Y-90096672D01*
X83042404Y-89668101D02*
X82470975Y-90239530D01*
X102639905Y-110497881D02*
X102639905Y-109497881D01*
X102878000Y-109497881D01*
X103020858Y-109545500D01*
X103116096Y-109640738D01*
X103163715Y-109735976D01*
X103211334Y-109926452D01*
X103211334Y-110069310D01*
X103163715Y-110259786D01*
X103116096Y-110355024D01*
X103020858Y-110450262D01*
X102878000Y-110497881D01*
X102639905Y-110497881D01*
X103544667Y-109497881D02*
X104163715Y-109497881D01*
X103830381Y-109878833D01*
X103973239Y-109878833D01*
X104068477Y-109926452D01*
X104116096Y-109974071D01*
X104163715Y-110069310D01*
X104163715Y-110307405D01*
X104116096Y-110402643D01*
X104068477Y-110450262D01*
X103973239Y-110497881D01*
X103687524Y-110497881D01*
X103592286Y-110450262D01*
X103544667Y-110402643D01*
X109367985Y-108634827D02*
X109844176Y-108634827D01*
X109272747Y-108920541D02*
X109606080Y-107920541D01*
X109939414Y-108920541D01*
X102028975Y-108956101D02*
X102028975Y-107956101D01*
X102600404Y-108956101D02*
X102171832Y-108384672D01*
X102600404Y-107956101D02*
X102028975Y-108527530D01*
X120594381Y-109450095D02*
X119594381Y-109450095D01*
X119594381Y-109212000D01*
X119642000Y-109069142D01*
X119737238Y-108973904D01*
X119832476Y-108926285D01*
X120022952Y-108878666D01*
X120165810Y-108878666D01*
X120356286Y-108926285D01*
X120451524Y-108973904D01*
X120546762Y-109069142D01*
X120594381Y-109212000D01*
X120594381Y-109450095D01*
X119594381Y-107973904D02*
X119594381Y-108450095D01*
X120070571Y-108497714D01*
X120022952Y-108450095D01*
X119975333Y-108354857D01*
X119975333Y-108116761D01*
X120022952Y-108021523D01*
X120070571Y-107973904D01*
X120165810Y-107926285D01*
X120403905Y-107926285D01*
X120499143Y-107973904D01*
X120546762Y-108021523D01*
X120594381Y-108116761D01*
X120594381Y-108354857D01*
X120546762Y-108450095D01*
X120499143Y-108497714D01*
X118266507Y-113908175D02*
X118266507Y-113431984D01*
X118552221Y-114003413D02*
X117552221Y-113670080D01*
X118552221Y-113336746D01*
X118516661Y-106616785D02*
X117516661Y-106616785D01*
X118516661Y-106045356D02*
X117945232Y-106473928D01*
X117516661Y-106045356D02*
X118088090Y-106616785D01*
X112418905Y-114180881D02*
X112418905Y-113180881D01*
X112657000Y-113180881D01*
X112799858Y-113228500D01*
X112895096Y-113323738D01*
X112942715Y-113418976D01*
X112990334Y-113609452D01*
X112990334Y-113752310D01*
X112942715Y-113942786D01*
X112895096Y-114038024D01*
X112799858Y-114133262D01*
X112657000Y-114180881D01*
X112418905Y-114180881D01*
X113847477Y-113180881D02*
X113657000Y-113180881D01*
X113561762Y-113228500D01*
X113514143Y-113276119D01*
X113418905Y-113418976D01*
X113371286Y-113609452D01*
X113371286Y-113990405D01*
X113418905Y-114085643D01*
X113466524Y-114133262D01*
X113561762Y-114180881D01*
X113752239Y-114180881D01*
X113847477Y-114133262D01*
X113895096Y-114085643D01*
X113942715Y-113990405D01*
X113942715Y-113752310D01*
X113895096Y-113657071D01*
X113847477Y-113609452D01*
X113752239Y-113561833D01*
X113561762Y-113561833D01*
X113466524Y-113609452D01*
X113418905Y-113657071D01*
X113371286Y-113752310D01*
X111907985Y-114984827D02*
X112384176Y-114984827D01*
X111812747Y-115270541D02*
X112146080Y-114270541D01*
X112479414Y-115270541D01*
X104568975Y-115306101D02*
X104568975Y-114306101D01*
X105140404Y-115306101D02*
X104711832Y-114734672D01*
X105140404Y-114306101D02*
X104568975Y-114877530D01*
X105433905Y-124404381D02*
X105433905Y-123404381D01*
X105672000Y-123404381D01*
X105814858Y-123452000D01*
X105910096Y-123547238D01*
X105957715Y-123642476D01*
X106005334Y-123832952D01*
X106005334Y-123975810D01*
X105957715Y-124166286D01*
X105910096Y-124261524D01*
X105814858Y-124356762D01*
X105672000Y-124404381D01*
X105433905Y-124404381D01*
X106338667Y-123404381D02*
X107005334Y-123404381D01*
X106576762Y-124404381D01*
X111907985Y-122350827D02*
X112384176Y-122350827D01*
X111812747Y-122636541D02*
X112146080Y-121636541D01*
X112479414Y-122636541D01*
X104568975Y-122672101D02*
X104568975Y-121672101D01*
X105140404Y-122672101D02*
X104711832Y-122100672D01*
X105140404Y-121672101D02*
X104568975Y-122243530D01*
X120292905Y-132151381D02*
X120292905Y-131151381D01*
X120531000Y-131151381D01*
X120673858Y-131199000D01*
X120769096Y-131294238D01*
X120816715Y-131389476D01*
X120864334Y-131579952D01*
X120864334Y-131722810D01*
X120816715Y-131913286D01*
X120769096Y-132008524D01*
X120673858Y-132103762D01*
X120531000Y-132151381D01*
X120292905Y-132151381D01*
X121435762Y-131579952D02*
X121340524Y-131532333D01*
X121292905Y-131484714D01*
X121245286Y-131389476D01*
X121245286Y-131341857D01*
X121292905Y-131246619D01*
X121340524Y-131199000D01*
X121435762Y-131151381D01*
X121626239Y-131151381D01*
X121721477Y-131199000D01*
X121769096Y-131246619D01*
X121816715Y-131341857D01*
X121816715Y-131389476D01*
X121769096Y-131484714D01*
X121721477Y-131532333D01*
X121626239Y-131579952D01*
X121435762Y-131579952D01*
X121340524Y-131627571D01*
X121292905Y-131675190D01*
X121245286Y-131770429D01*
X121245286Y-131960905D01*
X121292905Y-132056143D01*
X121340524Y-132103762D01*
X121435762Y-132151381D01*
X121626239Y-132151381D01*
X121721477Y-132103762D01*
X121769096Y-132056143D01*
X121816715Y-131960905D01*
X121816715Y-131770429D01*
X121769096Y-131675190D01*
X121721477Y-131627571D01*
X121626239Y-131579952D01*
X124353985Y-129462827D02*
X124830176Y-129462827D01*
X124258747Y-129748541D02*
X124592080Y-128748541D01*
X124925414Y-129748541D01*
X117014975Y-129784101D02*
X117014975Y-128784101D01*
X117586404Y-129784101D02*
X117157832Y-129212672D01*
X117586404Y-128784101D02*
X117014975Y-129355530D01*
X102585781Y-131993806D02*
X101585781Y-131993806D01*
X101585781Y-131755711D01*
X101633400Y-131612853D01*
X101728638Y-131517615D01*
X101823876Y-131469996D01*
X102014352Y-131422377D01*
X102157210Y-131422377D01*
X102347686Y-131469996D01*
X102442924Y-131517615D01*
X102538162Y-131612853D01*
X102585781Y-131755711D01*
X102585781Y-131993806D01*
X102585781Y-130469996D02*
X102585781Y-131041425D01*
X102585781Y-130755711D02*
X101585781Y-130755711D01*
X101728638Y-130850949D01*
X101823876Y-130946187D01*
X101871495Y-131041425D01*
X101585781Y-129850949D02*
X101585781Y-129755710D01*
X101633400Y-129660472D01*
X101681019Y-129612853D01*
X101776257Y-129565234D01*
X101966733Y-129517615D01*
X102204829Y-129517615D01*
X102395305Y-129565234D01*
X102490543Y-129612853D01*
X102538162Y-129660472D01*
X102585781Y-129755710D01*
X102585781Y-129850949D01*
X102538162Y-129946187D01*
X102490543Y-129993806D01*
X102395305Y-130041425D01*
X102204829Y-130089044D01*
X101966733Y-130089044D01*
X101776257Y-130041425D01*
X101681019Y-129993806D01*
X101633400Y-129946187D01*
X101585781Y-129850949D01*
X104296507Y-134736175D02*
X104296507Y-134259984D01*
X104582221Y-134831413D02*
X103582221Y-134498080D01*
X104582221Y-134164746D01*
X104546661Y-127444785D02*
X103546661Y-127444785D01*
X104546661Y-126873356D02*
X103975232Y-127301928D01*
X103546661Y-126873356D02*
X104118090Y-127444785D01*
X112323714Y-85034381D02*
X112323714Y-84034381D01*
X112561809Y-84034381D01*
X112704667Y-84082000D01*
X112799905Y-84177238D01*
X112847524Y-84272476D01*
X112895143Y-84462952D01*
X112895143Y-84605810D01*
X112847524Y-84796286D01*
X112799905Y-84891524D01*
X112704667Y-84986762D01*
X112561809Y-85034381D01*
X112323714Y-85034381D01*
X113847524Y-85034381D02*
X113276095Y-85034381D01*
X113561809Y-85034381D02*
X113561809Y-84034381D01*
X113466571Y-84177238D01*
X113371333Y-84272476D01*
X113276095Y-84320095D01*
X114228476Y-84129619D02*
X114276095Y-84082000D01*
X114371333Y-84034381D01*
X114609429Y-84034381D01*
X114704667Y-84082000D01*
X114752286Y-84129619D01*
X114799905Y-84224857D01*
X114799905Y-84320095D01*
X114752286Y-84462952D01*
X114180857Y-85034381D01*
X114799905Y-85034381D01*
X103261825Y-84992507D02*
X103738016Y-84992507D01*
X103166587Y-85278221D02*
X103499920Y-84278221D01*
X103833254Y-85278221D01*
X110553215Y-85242661D02*
X110553215Y-84242661D01*
X111124644Y-85242661D02*
X110696072Y-84671232D01*
X111124644Y-84242661D02*
X110553215Y-84814090D01*
X121467714Y-86304381D02*
X121467714Y-85304381D01*
X121705809Y-85304381D01*
X121848667Y-85352000D01*
X121943905Y-85447238D01*
X121991524Y-85542476D01*
X122039143Y-85732952D01*
X122039143Y-85875810D01*
X121991524Y-86066286D01*
X121943905Y-86161524D01*
X121848667Y-86256762D01*
X121705809Y-86304381D01*
X121467714Y-86304381D01*
X122991524Y-86304381D02*
X122420095Y-86304381D01*
X122705809Y-86304381D02*
X122705809Y-85304381D01*
X122610571Y-85447238D01*
X122515333Y-85542476D01*
X122420095Y-85590095D01*
X123324857Y-85304381D02*
X123943905Y-85304381D01*
X123610571Y-85685333D01*
X123753429Y-85685333D01*
X123848667Y-85732952D01*
X123896286Y-85780571D01*
X123943905Y-85875810D01*
X123943905Y-86113905D01*
X123896286Y-86209143D01*
X123848667Y-86256762D01*
X123753429Y-86304381D01*
X123467714Y-86304381D01*
X123372476Y-86256762D01*
X123324857Y-86209143D01*
X128417985Y-88060827D02*
X128894176Y-88060827D01*
X128322747Y-88346541D02*
X128656080Y-87346541D01*
X128989414Y-88346541D01*
X121078975Y-88382101D02*
X121078975Y-87382101D01*
X121650404Y-88382101D02*
X121221832Y-87810672D01*
X121650404Y-87382101D02*
X121078975Y-87953530D01*
X73525143Y-119578381D02*
X73191809Y-119102190D01*
X72953714Y-119578381D02*
X72953714Y-118578381D01*
X73334667Y-118578381D01*
X73429905Y-118626000D01*
X73477524Y-118673619D01*
X73525143Y-118768857D01*
X73525143Y-118911714D01*
X73477524Y-119006952D01*
X73429905Y-119054571D01*
X73334667Y-119102190D01*
X72953714Y-119102190D01*
X74382286Y-118911714D02*
X74382286Y-119578381D01*
X74144190Y-118530762D02*
X73906095Y-119245048D01*
X74525143Y-119245048D01*
X74810857Y-118578381D02*
X75429905Y-118578381D01*
X75096571Y-118959333D01*
X75239429Y-118959333D01*
X75334667Y-119006952D01*
X75382286Y-119054571D01*
X75429905Y-119149810D01*
X75429905Y-119387905D01*
X75382286Y-119483143D01*
X75334667Y-119530762D01*
X75239429Y-119578381D01*
X74953714Y-119578381D01*
X74858476Y-119530762D01*
X74810857Y-119483143D01*
X73525143Y-117800381D02*
X73191809Y-117324190D01*
X72953714Y-117800381D02*
X72953714Y-116800381D01*
X73334667Y-116800381D01*
X73429905Y-116848000D01*
X73477524Y-116895619D01*
X73525143Y-116990857D01*
X73525143Y-117133714D01*
X73477524Y-117228952D01*
X73429905Y-117276571D01*
X73334667Y-117324190D01*
X72953714Y-117324190D01*
X74382286Y-117133714D02*
X74382286Y-117800381D01*
X74144190Y-116752762D02*
X73906095Y-117467048D01*
X74525143Y-117467048D01*
X75334667Y-117133714D02*
X75334667Y-117800381D01*
X75096571Y-116752762D02*
X74858476Y-117467048D01*
X75477524Y-117467048D01*
X73525143Y-116276381D02*
X73191809Y-115800190D01*
X72953714Y-116276381D02*
X72953714Y-115276381D01*
X73334667Y-115276381D01*
X73429905Y-115324000D01*
X73477524Y-115371619D01*
X73525143Y-115466857D01*
X73525143Y-115609714D01*
X73477524Y-115704952D01*
X73429905Y-115752571D01*
X73334667Y-115800190D01*
X72953714Y-115800190D01*
X74382286Y-115609714D02*
X74382286Y-116276381D01*
X74144190Y-115228762D02*
X73906095Y-115943048D01*
X74525143Y-115943048D01*
X75382286Y-115276381D02*
X74906095Y-115276381D01*
X74858476Y-115752571D01*
X74906095Y-115704952D01*
X75001333Y-115657333D01*
X75239429Y-115657333D01*
X75334667Y-115704952D01*
X75382286Y-115752571D01*
X75429905Y-115847810D01*
X75429905Y-116085905D01*
X75382286Y-116181143D01*
X75334667Y-116228762D01*
X75239429Y-116276381D01*
X75001333Y-116276381D01*
X74906095Y-116228762D01*
X74858476Y-116181143D01*
X99814143Y-115641381D02*
X99480809Y-115165190D01*
X99242714Y-115641381D02*
X99242714Y-114641381D01*
X99623667Y-114641381D01*
X99718905Y-114689000D01*
X99766524Y-114736619D01*
X99814143Y-114831857D01*
X99814143Y-114974714D01*
X99766524Y-115069952D01*
X99718905Y-115117571D01*
X99623667Y-115165190D01*
X99242714Y-115165190D01*
X100671286Y-114974714D02*
X100671286Y-115641381D01*
X100433190Y-114593762D02*
X100195095Y-115308048D01*
X100814143Y-115308048D01*
X101623667Y-114641381D02*
X101433190Y-114641381D01*
X101337952Y-114689000D01*
X101290333Y-114736619D01*
X101195095Y-114879476D01*
X101147476Y-115069952D01*
X101147476Y-115450905D01*
X101195095Y-115546143D01*
X101242714Y-115593762D01*
X101337952Y-115641381D01*
X101528429Y-115641381D01*
X101623667Y-115593762D01*
X101671286Y-115546143D01*
X101718905Y-115450905D01*
X101718905Y-115212810D01*
X101671286Y-115117571D01*
X101623667Y-115069952D01*
X101528429Y-115022333D01*
X101337952Y-115022333D01*
X101242714Y-115069952D01*
X101195095Y-115117571D01*
X101147476Y-115212810D01*
X99687143Y-113609381D02*
X99353809Y-113133190D01*
X99115714Y-113609381D02*
X99115714Y-112609381D01*
X99496667Y-112609381D01*
X99591905Y-112657000D01*
X99639524Y-112704619D01*
X99687143Y-112799857D01*
X99687143Y-112942714D01*
X99639524Y-113037952D01*
X99591905Y-113085571D01*
X99496667Y-113133190D01*
X99115714Y-113133190D01*
X100544286Y-112942714D02*
X100544286Y-113609381D01*
X100306190Y-112561762D02*
X100068095Y-113276048D01*
X100687143Y-113276048D01*
X100972857Y-112609381D02*
X101639524Y-112609381D01*
X101210952Y-113609381D01*
X97845643Y-108338881D02*
X97512309Y-107862690D01*
X97274214Y-108338881D02*
X97274214Y-107338881D01*
X97655167Y-107338881D01*
X97750405Y-107386500D01*
X97798024Y-107434119D01*
X97845643Y-107529357D01*
X97845643Y-107672214D01*
X97798024Y-107767452D01*
X97750405Y-107815071D01*
X97655167Y-107862690D01*
X97274214Y-107862690D01*
X98702786Y-107672214D02*
X98702786Y-108338881D01*
X98464690Y-107291262D02*
X98226595Y-108005548D01*
X98845643Y-108005548D01*
X99369452Y-107767452D02*
X99274214Y-107719833D01*
X99226595Y-107672214D01*
X99178976Y-107576976D01*
X99178976Y-107529357D01*
X99226595Y-107434119D01*
X99274214Y-107386500D01*
X99369452Y-107338881D01*
X99559929Y-107338881D01*
X99655167Y-107386500D01*
X99702786Y-107434119D01*
X99750405Y-107529357D01*
X99750405Y-107576976D01*
X99702786Y-107672214D01*
X99655167Y-107719833D01*
X99559929Y-107767452D01*
X99369452Y-107767452D01*
X99274214Y-107815071D01*
X99226595Y-107862690D01*
X99178976Y-107957929D01*
X99178976Y-108148405D01*
X99226595Y-108243643D01*
X99274214Y-108291262D01*
X99369452Y-108338881D01*
X99559929Y-108338881D01*
X99655167Y-108291262D01*
X99702786Y-108243643D01*
X99750405Y-108148405D01*
X99750405Y-107957929D01*
X99702786Y-107862690D01*
X99655167Y-107815071D01*
X99559929Y-107767452D01*
X101592143Y-123642381D02*
X101258809Y-123166190D01*
X101020714Y-123642381D02*
X101020714Y-122642381D01*
X101401667Y-122642381D01*
X101496905Y-122690000D01*
X101544524Y-122737619D01*
X101592143Y-122832857D01*
X101592143Y-122975714D01*
X101544524Y-123070952D01*
X101496905Y-123118571D01*
X101401667Y-123166190D01*
X101020714Y-123166190D01*
X102449286Y-122975714D02*
X102449286Y-123642381D01*
X102211190Y-122594762D02*
X101973095Y-123309048D01*
X102592143Y-123309048D01*
X103020714Y-123642381D02*
X103211190Y-123642381D01*
X103306429Y-123594762D01*
X103354048Y-123547143D01*
X103449286Y-123404286D01*
X103496905Y-123213810D01*
X103496905Y-122832857D01*
X103449286Y-122737619D01*
X103401667Y-122690000D01*
X103306429Y-122642381D01*
X103115952Y-122642381D01*
X103020714Y-122690000D01*
X102973095Y-122737619D01*
X102925476Y-122832857D01*
X102925476Y-123070952D01*
X102973095Y-123166190D01*
X103020714Y-123213810D01*
X103115952Y-123261429D01*
X103306429Y-123261429D01*
X103401667Y-123213810D01*
X103449286Y-123166190D01*
X103496905Y-123070952D01*
X101719143Y-121610381D02*
X101385809Y-121134190D01*
X101147714Y-121610381D02*
X101147714Y-120610381D01*
X101528667Y-120610381D01*
X101623905Y-120658000D01*
X101671524Y-120705619D01*
X101719143Y-120800857D01*
X101719143Y-120943714D01*
X101671524Y-121038952D01*
X101623905Y-121086571D01*
X101528667Y-121134190D01*
X101147714Y-121134190D01*
X102623905Y-120610381D02*
X102147714Y-120610381D01*
X102100095Y-121086571D01*
X102147714Y-121038952D01*
X102242952Y-120991333D01*
X102481048Y-120991333D01*
X102576286Y-121038952D01*
X102623905Y-121086571D01*
X102671524Y-121181810D01*
X102671524Y-121419905D01*
X102623905Y-121515143D01*
X102576286Y-121562762D01*
X102481048Y-121610381D01*
X102242952Y-121610381D01*
X102147714Y-121562762D01*
X102100095Y-121515143D01*
X103290571Y-120610381D02*
X103385810Y-120610381D01*
X103481048Y-120658000D01*
X103528667Y-120705619D01*
X103576286Y-120800857D01*
X103623905Y-120991333D01*
X103623905Y-121229429D01*
X103576286Y-121419905D01*
X103528667Y-121515143D01*
X103481048Y-121562762D01*
X103385810Y-121610381D01*
X103290571Y-121610381D01*
X103195333Y-121562762D01*
X103147714Y-121515143D01*
X103100095Y-121419905D01*
X103052476Y-121229429D01*
X103052476Y-120991333D01*
X103100095Y-120800857D01*
X103147714Y-120705619D01*
X103195333Y-120658000D01*
X103290571Y-120610381D01*
X100004643Y-117990881D02*
X99671309Y-117514690D01*
X99433214Y-117990881D02*
X99433214Y-116990881D01*
X99814167Y-116990881D01*
X99909405Y-117038500D01*
X99957024Y-117086119D01*
X100004643Y-117181357D01*
X100004643Y-117324214D01*
X99957024Y-117419452D01*
X99909405Y-117467071D01*
X99814167Y-117514690D01*
X99433214Y-117514690D01*
X100909405Y-116990881D02*
X100433214Y-116990881D01*
X100385595Y-117467071D01*
X100433214Y-117419452D01*
X100528452Y-117371833D01*
X100766548Y-117371833D01*
X100861786Y-117419452D01*
X100909405Y-117467071D01*
X100957024Y-117562310D01*
X100957024Y-117800405D01*
X100909405Y-117895643D01*
X100861786Y-117943262D01*
X100766548Y-117990881D01*
X100528452Y-117990881D01*
X100433214Y-117943262D01*
X100385595Y-117895643D01*
X101909405Y-117990881D02*
X101337976Y-117990881D01*
X101623690Y-117990881D02*
X101623690Y-116990881D01*
X101528452Y-117133738D01*
X101433214Y-117228976D01*
X101337976Y-117276595D01*
X68326095Y-114202381D02*
X68326095Y-115011905D01*
X68373714Y-115107143D01*
X68421333Y-115154762D01*
X68516571Y-115202381D01*
X68707048Y-115202381D01*
X68802286Y-115154762D01*
X68849905Y-115107143D01*
X68897524Y-115011905D01*
X68897524Y-114202381D01*
X69278476Y-114202381D02*
X69897524Y-114202381D01*
X69564190Y-114583333D01*
X69707048Y-114583333D01*
X69802286Y-114630952D01*
X69849905Y-114678571D01*
X69897524Y-114773810D01*
X69897524Y-115011905D01*
X69849905Y-115107143D01*
X69802286Y-115154762D01*
X69707048Y-115202381D01*
X69421333Y-115202381D01*
X69326095Y-115154762D01*
X69278476Y-115107143D01*
X86614095Y-107512381D02*
X86614095Y-108321905D01*
X86661714Y-108417143D01*
X86709333Y-108464762D01*
X86804571Y-108512381D01*
X86995048Y-108512381D01*
X87090286Y-108464762D01*
X87137905Y-108417143D01*
X87185524Y-108321905D01*
X87185524Y-107512381D01*
X88090286Y-107845714D02*
X88090286Y-108512381D01*
X87852190Y-107464762D02*
X87614095Y-108179048D01*
X88233143Y-108179048D01*
X73525143Y-121102381D02*
X73191809Y-120626190D01*
X72953714Y-121102381D02*
X72953714Y-120102381D01*
X73334667Y-120102381D01*
X73429905Y-120150000D01*
X73477524Y-120197619D01*
X73525143Y-120292857D01*
X73525143Y-120435714D01*
X73477524Y-120530952D01*
X73429905Y-120578571D01*
X73334667Y-120626190D01*
X72953714Y-120626190D01*
X74477524Y-121102381D02*
X73906095Y-121102381D01*
X74191809Y-121102381D02*
X74191809Y-120102381D01*
X74096571Y-120245238D01*
X74001333Y-120340476D01*
X73906095Y-120388095D01*
X75382286Y-120102381D02*
X74906095Y-120102381D01*
X74858476Y-120578571D01*
X74906095Y-120530952D01*
X75001333Y-120483333D01*
X75239429Y-120483333D01*
X75334667Y-120530952D01*
X75382286Y-120578571D01*
X75429905Y-120673810D01*
X75429905Y-120911905D01*
X75382286Y-121007143D01*
X75334667Y-121054762D01*
X75239429Y-121102381D01*
X75001333Y-121102381D01*
X74906095Y-121054762D01*
X74858476Y-121007143D01*
X92813143Y-97956666D02*
X92860762Y-98004285D01*
X92908381Y-98147142D01*
X92908381Y-98242380D01*
X92860762Y-98385238D01*
X92765524Y-98480476D01*
X92670286Y-98528095D01*
X92479810Y-98575714D01*
X92336952Y-98575714D01*
X92146476Y-98528095D01*
X92051238Y-98480476D01*
X91956000Y-98385238D01*
X91908381Y-98242380D01*
X91908381Y-98147142D01*
X91956000Y-98004285D01*
X92003619Y-97956666D01*
X92908381Y-97004285D02*
X92908381Y-97575714D01*
X92908381Y-97290000D02*
X91908381Y-97290000D01*
X92051238Y-97385238D01*
X92146476Y-97480476D01*
X92194095Y-97575714D01*
X83415143Y-98718666D02*
X83462762Y-98766285D01*
X83510381Y-98909142D01*
X83510381Y-99004380D01*
X83462762Y-99147238D01*
X83367524Y-99242476D01*
X83272286Y-99290095D01*
X83081810Y-99337714D01*
X82938952Y-99337714D01*
X82748476Y-99290095D01*
X82653238Y-99242476D01*
X82558000Y-99147238D01*
X82510381Y-99004380D01*
X82510381Y-98909142D01*
X82558000Y-98766285D01*
X82605619Y-98718666D01*
X82605619Y-98337714D02*
X82558000Y-98290095D01*
X82510381Y-98194857D01*
X82510381Y-97956761D01*
X82558000Y-97861523D01*
X82605619Y-97813904D01*
X82700857Y-97766285D01*
X82796095Y-97766285D01*
X82938952Y-97813904D01*
X83510381Y-98385333D01*
X83510381Y-97766285D01*
X130659143Y-89828666D02*
X130706762Y-89876285D01*
X130754381Y-90019142D01*
X130754381Y-90114380D01*
X130706762Y-90257238D01*
X130611524Y-90352476D01*
X130516286Y-90400095D01*
X130325810Y-90447714D01*
X130182952Y-90447714D01*
X129992476Y-90400095D01*
X129897238Y-90352476D01*
X129802000Y-90257238D01*
X129754381Y-90114380D01*
X129754381Y-90019142D01*
X129802000Y-89876285D01*
X129849619Y-89828666D01*
X130087714Y-88971523D02*
X130754381Y-88971523D01*
X129706762Y-89209619D02*
X130421048Y-89447714D01*
X130421048Y-88828666D01*
X122277143Y-96686666D02*
X122324762Y-96734285D01*
X122372381Y-96877142D01*
X122372381Y-96972380D01*
X122324762Y-97115238D01*
X122229524Y-97210476D01*
X122134286Y-97258095D01*
X121943810Y-97305714D01*
X121800952Y-97305714D01*
X121610476Y-97258095D01*
X121515238Y-97210476D01*
X121420000Y-97115238D01*
X121372381Y-96972380D01*
X121372381Y-96877142D01*
X121420000Y-96734285D01*
X121467619Y-96686666D01*
X121372381Y-95781904D02*
X121372381Y-96258095D01*
X121848571Y-96305714D01*
X121800952Y-96258095D01*
X121753333Y-96162857D01*
X121753333Y-95924761D01*
X121800952Y-95829523D01*
X121848571Y-95781904D01*
X121943810Y-95734285D01*
X122181905Y-95734285D01*
X122277143Y-95781904D01*
X122324762Y-95829523D01*
X122372381Y-95924761D01*
X122372381Y-96162857D01*
X122324762Y-96258095D01*
X122277143Y-96305714D01*
X79081334Y-124817143D02*
X79033715Y-124864762D01*
X78890858Y-124912381D01*
X78795620Y-124912381D01*
X78652762Y-124864762D01*
X78557524Y-124769524D01*
X78509905Y-124674286D01*
X78462286Y-124483810D01*
X78462286Y-124340952D01*
X78509905Y-124150476D01*
X78557524Y-124055238D01*
X78652762Y-123960000D01*
X78795620Y-123912381D01*
X78890858Y-123912381D01*
X79033715Y-123960000D01*
X79081334Y-124007619D01*
X79938477Y-123912381D02*
X79748000Y-123912381D01*
X79652762Y-123960000D01*
X79605143Y-124007619D01*
X79509905Y-124150476D01*
X79462286Y-124340952D01*
X79462286Y-124721905D01*
X79509905Y-124817143D01*
X79557524Y-124864762D01*
X79652762Y-124912381D01*
X79843239Y-124912381D01*
X79938477Y-124864762D01*
X79986096Y-124817143D01*
X80033715Y-124721905D01*
X80033715Y-124483810D01*
X79986096Y-124388571D01*
X79938477Y-124340952D01*
X79843239Y-124293333D01*
X79652762Y-124293333D01*
X79557524Y-124340952D01*
X79509905Y-124388571D01*
X79462286Y-124483810D01*
X67032143Y-109894666D02*
X67079762Y-109942285D01*
X67127381Y-110085142D01*
X67127381Y-110180380D01*
X67079762Y-110323238D01*
X66984524Y-110418476D01*
X66889286Y-110466095D01*
X66698810Y-110513714D01*
X66555952Y-110513714D01*
X66365476Y-110466095D01*
X66270238Y-110418476D01*
X66175000Y-110323238D01*
X66127381Y-110180380D01*
X66127381Y-110085142D01*
X66175000Y-109942285D01*
X66222619Y-109894666D01*
X66555952Y-109323238D02*
X66508333Y-109418476D01*
X66460714Y-109466095D01*
X66365476Y-109513714D01*
X66317857Y-109513714D01*
X66222619Y-109466095D01*
X66175000Y-109418476D01*
X66127381Y-109323238D01*
X66127381Y-109132761D01*
X66175000Y-109037523D01*
X66222619Y-108989904D01*
X66317857Y-108942285D01*
X66365476Y-108942285D01*
X66460714Y-108989904D01*
X66508333Y-109037523D01*
X66555952Y-109132761D01*
X66555952Y-109323238D01*
X66603571Y-109418476D01*
X66651190Y-109466095D01*
X66746429Y-109513714D01*
X66936905Y-109513714D01*
X67032143Y-109466095D01*
X67079762Y-109418476D01*
X67127381Y-109323238D01*
X67127381Y-109132761D01*
X67079762Y-109037523D01*
X67032143Y-108989904D01*
X66936905Y-108942285D01*
X66746429Y-108942285D01*
X66651190Y-108989904D01*
X66603571Y-109037523D01*
X66555952Y-109132761D01*
X65000143Y-109894666D02*
X65047762Y-109942285D01*
X65095381Y-110085142D01*
X65095381Y-110180380D01*
X65047762Y-110323238D01*
X64952524Y-110418476D01*
X64857286Y-110466095D01*
X64666810Y-110513714D01*
X64523952Y-110513714D01*
X64333476Y-110466095D01*
X64238238Y-110418476D01*
X64143000Y-110323238D01*
X64095381Y-110180380D01*
X64095381Y-110085142D01*
X64143000Y-109942285D01*
X64190619Y-109894666D01*
X65095381Y-109418476D02*
X65095381Y-109228000D01*
X65047762Y-109132761D01*
X65000143Y-109085142D01*
X64857286Y-108989904D01*
X64666810Y-108942285D01*
X64285857Y-108942285D01*
X64190619Y-108989904D01*
X64143000Y-109037523D01*
X64095381Y-109132761D01*
X64095381Y-109323238D01*
X64143000Y-109418476D01*
X64190619Y-109466095D01*
X64285857Y-109513714D01*
X64523952Y-109513714D01*
X64619190Y-109466095D01*
X64666810Y-109418476D01*
X64714429Y-109323238D01*
X64714429Y-109132761D01*
X64666810Y-109037523D01*
X64619190Y-108989904D01*
X64523952Y-108942285D01*
X64238143Y-122181857D02*
X64285762Y-122229476D01*
X64333381Y-122372333D01*
X64333381Y-122467571D01*
X64285762Y-122610429D01*
X64190524Y-122705667D01*
X64095286Y-122753286D01*
X63904810Y-122800905D01*
X63761952Y-122800905D01*
X63571476Y-122753286D01*
X63476238Y-122705667D01*
X63381000Y-122610429D01*
X63333381Y-122467571D01*
X63333381Y-122372333D01*
X63381000Y-122229476D01*
X63428619Y-122181857D01*
X64333381Y-121229476D02*
X64333381Y-121800905D01*
X64333381Y-121515191D02*
X63333381Y-121515191D01*
X63476238Y-121610429D01*
X63571476Y-121705667D01*
X63619095Y-121800905D01*
X63333381Y-120610429D02*
X63333381Y-120515190D01*
X63381000Y-120419952D01*
X63428619Y-120372333D01*
X63523857Y-120324714D01*
X63714333Y-120277095D01*
X63952429Y-120277095D01*
X64142905Y-120324714D01*
X64238143Y-120372333D01*
X64285762Y-120419952D01*
X64333381Y-120515190D01*
X64333381Y-120610429D01*
X64285762Y-120705667D01*
X64238143Y-120753286D01*
X64142905Y-120800905D01*
X63952429Y-120848524D01*
X63714333Y-120848524D01*
X63523857Y-120800905D01*
X63428619Y-120753286D01*
X63381000Y-120705667D01*
X63333381Y-120610429D01*
X60428143Y-125102857D02*
X60475762Y-125150476D01*
X60523381Y-125293333D01*
X60523381Y-125388571D01*
X60475762Y-125531429D01*
X60380524Y-125626667D01*
X60285286Y-125674286D01*
X60094810Y-125721905D01*
X59951952Y-125721905D01*
X59761476Y-125674286D01*
X59666238Y-125626667D01*
X59571000Y-125531429D01*
X59523381Y-125388571D01*
X59523381Y-125293333D01*
X59571000Y-125150476D01*
X59618619Y-125102857D01*
X60523381Y-124150476D02*
X60523381Y-124721905D01*
X60523381Y-124436191D02*
X59523381Y-124436191D01*
X59666238Y-124531429D01*
X59761476Y-124626667D01*
X59809095Y-124721905D01*
X60523381Y-123198095D02*
X60523381Y-123769524D01*
X60523381Y-123483810D02*
X59523381Y-123483810D01*
X59666238Y-123579048D01*
X59761476Y-123674286D01*
X59809095Y-123769524D01*
X73525143Y-109831143D02*
X73477524Y-109878762D01*
X73334667Y-109926381D01*
X73239429Y-109926381D01*
X73096571Y-109878762D01*
X73001333Y-109783524D01*
X72953714Y-109688286D01*
X72906095Y-109497810D01*
X72906095Y-109354952D01*
X72953714Y-109164476D01*
X73001333Y-109069238D01*
X73096571Y-108974000D01*
X73239429Y-108926381D01*
X73334667Y-108926381D01*
X73477524Y-108974000D01*
X73525143Y-109021619D01*
X74477524Y-109926381D02*
X73906095Y-109926381D01*
X74191809Y-109926381D02*
X74191809Y-108926381D01*
X74096571Y-109069238D01*
X74001333Y-109164476D01*
X73906095Y-109212095D01*
X75334667Y-108926381D02*
X75144190Y-108926381D01*
X75048952Y-108974000D01*
X75001333Y-109021619D01*
X74906095Y-109164476D01*
X74858476Y-109354952D01*
X74858476Y-109735905D01*
X74906095Y-109831143D01*
X74953714Y-109878762D01*
X75048952Y-109926381D01*
X75239429Y-109926381D01*
X75334667Y-109878762D01*
X75382286Y-109831143D01*
X75429905Y-109735905D01*
X75429905Y-109497810D01*
X75382286Y-109402571D01*
X75334667Y-109354952D01*
X75239429Y-109307333D01*
X75048952Y-109307333D01*
X74953714Y-109354952D01*
X74906095Y-109402571D01*
X74858476Y-109497810D01*
X100004643Y-125642643D02*
X99957024Y-125690262D01*
X99814167Y-125737881D01*
X99718929Y-125737881D01*
X99576071Y-125690262D01*
X99480833Y-125595024D01*
X99433214Y-125499786D01*
X99385595Y-125309310D01*
X99385595Y-125166452D01*
X99433214Y-124975976D01*
X99480833Y-124880738D01*
X99576071Y-124785500D01*
X99718929Y-124737881D01*
X99814167Y-124737881D01*
X99957024Y-124785500D01*
X100004643Y-124833119D01*
X100957024Y-125737881D02*
X100385595Y-125737881D01*
X100671309Y-125737881D02*
X100671309Y-124737881D01*
X100576071Y-124880738D01*
X100480833Y-124975976D01*
X100385595Y-125023595D01*
X101290357Y-124737881D02*
X101957024Y-124737881D01*
X101528452Y-125737881D01*
X74033143Y-128373143D02*
X73985524Y-128420762D01*
X73842667Y-128468381D01*
X73747429Y-128468381D01*
X73604571Y-128420762D01*
X73509333Y-128325524D01*
X73461714Y-128230286D01*
X73414095Y-128039810D01*
X73414095Y-127896952D01*
X73461714Y-127706476D01*
X73509333Y-127611238D01*
X73604571Y-127516000D01*
X73747429Y-127468381D01*
X73842667Y-127468381D01*
X73985524Y-127516000D01*
X74033143Y-127563619D01*
X74985524Y-128468381D02*
X74414095Y-128468381D01*
X74699809Y-128468381D02*
X74699809Y-127468381D01*
X74604571Y-127611238D01*
X74509333Y-127706476D01*
X74414095Y-127754095D01*
X75556952Y-127896952D02*
X75461714Y-127849333D01*
X75414095Y-127801714D01*
X75366476Y-127706476D01*
X75366476Y-127658857D01*
X75414095Y-127563619D01*
X75461714Y-127516000D01*
X75556952Y-127468381D01*
X75747429Y-127468381D01*
X75842667Y-127516000D01*
X75890286Y-127563619D01*
X75937905Y-127658857D01*
X75937905Y-127706476D01*
X75890286Y-127801714D01*
X75842667Y-127849333D01*
X75747429Y-127896952D01*
X75556952Y-127896952D01*
X75461714Y-127944571D01*
X75414095Y-127992190D01*
X75366476Y-128087429D01*
X75366476Y-128277905D01*
X75414095Y-128373143D01*
X75461714Y-128420762D01*
X75556952Y-128468381D01*
X75747429Y-128468381D01*
X75842667Y-128420762D01*
X75890286Y-128373143D01*
X75937905Y-128277905D01*
X75937905Y-128087429D01*
X75890286Y-127992190D01*
X75842667Y-127944571D01*
X75747429Y-127896952D01*
X94654643Y-114942857D02*
X94702262Y-114990476D01*
X94749881Y-115133333D01*
X94749881Y-115228571D01*
X94702262Y-115371429D01*
X94607024Y-115466667D01*
X94511786Y-115514286D01*
X94321310Y-115561905D01*
X94178452Y-115561905D01*
X93987976Y-115514286D01*
X93892738Y-115466667D01*
X93797500Y-115371429D01*
X93749881Y-115228571D01*
X93749881Y-115133333D01*
X93797500Y-114990476D01*
X93845119Y-114942857D01*
X93845119Y-114561905D02*
X93797500Y-114514286D01*
X93749881Y-114419048D01*
X93749881Y-114180952D01*
X93797500Y-114085714D01*
X93845119Y-114038095D01*
X93940357Y-113990476D01*
X94035595Y-113990476D01*
X94178452Y-114038095D01*
X94749881Y-114609524D01*
X94749881Y-113990476D01*
X93749881Y-113371429D02*
X93749881Y-113276190D01*
X93797500Y-113180952D01*
X93845119Y-113133333D01*
X93940357Y-113085714D01*
X94130833Y-113038095D01*
X94368929Y-113038095D01*
X94559405Y-113085714D01*
X94654643Y-113133333D01*
X94702262Y-113180952D01*
X94749881Y-113276190D01*
X94749881Y-113371429D01*
X94702262Y-113466667D01*
X94654643Y-113514286D01*
X94559405Y-113561905D01*
X94368929Y-113609524D01*
X94130833Y-113609524D01*
X93940357Y-113561905D01*
X93845119Y-113514286D01*
X93797500Y-113466667D01*
X93749881Y-113371429D01*
X94654643Y-124975857D02*
X94702262Y-125023476D01*
X94749881Y-125166333D01*
X94749881Y-125261571D01*
X94702262Y-125404429D01*
X94607024Y-125499667D01*
X94511786Y-125547286D01*
X94321310Y-125594905D01*
X94178452Y-125594905D01*
X93987976Y-125547286D01*
X93892738Y-125499667D01*
X93797500Y-125404429D01*
X93749881Y-125261571D01*
X93749881Y-125166333D01*
X93797500Y-125023476D01*
X93845119Y-124975857D01*
X93845119Y-124594905D02*
X93797500Y-124547286D01*
X93749881Y-124452048D01*
X93749881Y-124213952D01*
X93797500Y-124118714D01*
X93845119Y-124071095D01*
X93940357Y-124023476D01*
X94035595Y-124023476D01*
X94178452Y-124071095D01*
X94749881Y-124642524D01*
X94749881Y-124023476D01*
X94749881Y-123071095D02*
X94749881Y-123642524D01*
X94749881Y-123356810D02*
X93749881Y-123356810D01*
X93892738Y-123452048D01*
X93987976Y-123547286D01*
X94035595Y-123642524D01*
X115435143Y-118589143D02*
X115387524Y-118636762D01*
X115244667Y-118684381D01*
X115149429Y-118684381D01*
X115006571Y-118636762D01*
X114911333Y-118541524D01*
X114863714Y-118446286D01*
X114816095Y-118255810D01*
X114816095Y-118112952D01*
X114863714Y-117922476D01*
X114911333Y-117827238D01*
X115006571Y-117732000D01*
X115149429Y-117684381D01*
X115244667Y-117684381D01*
X115387524Y-117732000D01*
X115435143Y-117779619D01*
X115816095Y-117779619D02*
X115863714Y-117732000D01*
X115958952Y-117684381D01*
X116197048Y-117684381D01*
X116292286Y-117732000D01*
X116339905Y-117779619D01*
X116387524Y-117874857D01*
X116387524Y-117970095D01*
X116339905Y-118112952D01*
X115768476Y-118684381D01*
X116387524Y-118684381D01*
X116720857Y-117684381D02*
X117339905Y-117684381D01*
X117006571Y-118065333D01*
X117149429Y-118065333D01*
X117244667Y-118112952D01*
X117292286Y-118160571D01*
X117339905Y-118255810D01*
X117339905Y-118493905D01*
X117292286Y-118589143D01*
X117244667Y-118636762D01*
X117149429Y-118684381D01*
X116863714Y-118684381D01*
X116768476Y-118636762D01*
X116720857Y-118589143D01*
X115435143Y-122145143D02*
X115387524Y-122192762D01*
X115244667Y-122240381D01*
X115149429Y-122240381D01*
X115006571Y-122192762D01*
X114911333Y-122097524D01*
X114863714Y-122002286D01*
X114816095Y-121811810D01*
X114816095Y-121668952D01*
X114863714Y-121478476D01*
X114911333Y-121383238D01*
X115006571Y-121288000D01*
X115149429Y-121240381D01*
X115244667Y-121240381D01*
X115387524Y-121288000D01*
X115435143Y-121335619D01*
X115816095Y-121335619D02*
X115863714Y-121288000D01*
X115958952Y-121240381D01*
X116197048Y-121240381D01*
X116292286Y-121288000D01*
X116339905Y-121335619D01*
X116387524Y-121430857D01*
X116387524Y-121526095D01*
X116339905Y-121668952D01*
X115768476Y-122240381D01*
X116387524Y-122240381D01*
X117244667Y-121573714D02*
X117244667Y-122240381D01*
X117006571Y-121192762D02*
X116768476Y-121907048D01*
X117387524Y-121907048D01*
X71064381Y-110910666D02*
X70588190Y-111244000D01*
X71064381Y-111482095D02*
X70064381Y-111482095D01*
X70064381Y-111101142D01*
X70112000Y-111005904D01*
X70159619Y-110958285D01*
X70254857Y-110910666D01*
X70397714Y-110910666D01*
X70492952Y-110958285D01*
X70540571Y-111005904D01*
X70588190Y-111101142D01*
X70588190Y-111482095D01*
X70064381Y-110577333D02*
X70064381Y-109958285D01*
X70445333Y-110291619D01*
X70445333Y-110148761D01*
X70492952Y-110053523D01*
X70540571Y-110005904D01*
X70635810Y-109958285D01*
X70873905Y-109958285D01*
X70969143Y-110005904D01*
X71016762Y-110053523D01*
X71064381Y-110148761D01*
X71064381Y-110434476D01*
X71016762Y-110529714D01*
X70969143Y-110577333D01*
X92908381Y-86780666D02*
X92432190Y-87114000D01*
X92908381Y-87352095D02*
X91908381Y-87352095D01*
X91908381Y-86971142D01*
X91956000Y-86875904D01*
X92003619Y-86828285D01*
X92098857Y-86780666D01*
X92241714Y-86780666D01*
X92336952Y-86828285D01*
X92384571Y-86875904D01*
X92432190Y-86971142D01*
X92432190Y-87352095D01*
X91908381Y-85875904D02*
X91908381Y-86352095D01*
X92384571Y-86399714D01*
X92336952Y-86352095D01*
X92289333Y-86256857D01*
X92289333Y-86018761D01*
X92336952Y-85923523D01*
X92384571Y-85875904D01*
X92479810Y-85828285D01*
X92717905Y-85828285D01*
X92813143Y-85875904D01*
X92860762Y-85923523D01*
X92908381Y-86018761D01*
X92908381Y-86256857D01*
X92860762Y-86352095D01*
X92813143Y-86399714D01*
X85288381Y-102020666D02*
X84812190Y-102354000D01*
X85288381Y-102592095D02*
X84288381Y-102592095D01*
X84288381Y-102211142D01*
X84336000Y-102115904D01*
X84383619Y-102068285D01*
X84478857Y-102020666D01*
X84621714Y-102020666D01*
X84716952Y-102068285D01*
X84764571Y-102115904D01*
X84812190Y-102211142D01*
X84812190Y-102592095D01*
X84288381Y-101163523D02*
X84288381Y-101354000D01*
X84336000Y-101449238D01*
X84383619Y-101496857D01*
X84526476Y-101592095D01*
X84716952Y-101639714D01*
X85097905Y-101639714D01*
X85193143Y-101592095D01*
X85240762Y-101544476D01*
X85288381Y-101449238D01*
X85288381Y-101258761D01*
X85240762Y-101163523D01*
X85193143Y-101115904D01*
X85097905Y-101068285D01*
X84859810Y-101068285D01*
X84764571Y-101115904D01*
X84716952Y-101163523D01*
X84669333Y-101258761D01*
X84669333Y-101449238D01*
X84716952Y-101544476D01*
X84764571Y-101592095D01*
X84859810Y-101639714D01*
X92797334Y-101036381D02*
X92464000Y-100560190D01*
X92225905Y-101036381D02*
X92225905Y-100036381D01*
X92606858Y-100036381D01*
X92702096Y-100084000D01*
X92749715Y-100131619D01*
X92797334Y-100226857D01*
X92797334Y-100369714D01*
X92749715Y-100464952D01*
X92702096Y-100512571D01*
X92606858Y-100560190D01*
X92225905Y-100560190D01*
X93130667Y-100036381D02*
X93797334Y-100036381D01*
X93368762Y-101036381D01*
X57745334Y-119324381D02*
X57412000Y-118848190D01*
X57173905Y-119324381D02*
X57173905Y-118324381D01*
X57554858Y-118324381D01*
X57650096Y-118372000D01*
X57697715Y-118419619D01*
X57745334Y-118514857D01*
X57745334Y-118657714D01*
X57697715Y-118752952D01*
X57650096Y-118800571D01*
X57554858Y-118848190D01*
X57173905Y-118848190D01*
X58221524Y-119324381D02*
X58412000Y-119324381D01*
X58507239Y-119276762D01*
X58554858Y-119229143D01*
X58650096Y-119086286D01*
X58697715Y-118895810D01*
X58697715Y-118514857D01*
X58650096Y-118419619D01*
X58602477Y-118372000D01*
X58507239Y-118324381D01*
X58316762Y-118324381D01*
X58221524Y-118372000D01*
X58173905Y-118419619D01*
X58126286Y-118514857D01*
X58126286Y-118752952D01*
X58173905Y-118848190D01*
X58221524Y-118895810D01*
X58316762Y-118943429D01*
X58507239Y-118943429D01*
X58602477Y-118895810D01*
X58650096Y-118848190D01*
X58697715Y-118752952D01*
X56761143Y-120975381D02*
X56427809Y-120499190D01*
X56189714Y-120975381D02*
X56189714Y-119975381D01*
X56570667Y-119975381D01*
X56665905Y-120023000D01*
X56713524Y-120070619D01*
X56761143Y-120165857D01*
X56761143Y-120308714D01*
X56713524Y-120403952D01*
X56665905Y-120451571D01*
X56570667Y-120499190D01*
X56189714Y-120499190D01*
X57713524Y-120975381D02*
X57142095Y-120975381D01*
X57427809Y-120975381D02*
X57427809Y-119975381D01*
X57332571Y-120118238D01*
X57237333Y-120213476D01*
X57142095Y-120261095D01*
X58332571Y-119975381D02*
X58427810Y-119975381D01*
X58523048Y-120023000D01*
X58570667Y-120070619D01*
X58618286Y-120165857D01*
X58665905Y-120356333D01*
X58665905Y-120594429D01*
X58618286Y-120784905D01*
X58570667Y-120880143D01*
X58523048Y-120927762D01*
X58427810Y-120975381D01*
X58332571Y-120975381D01*
X58237333Y-120927762D01*
X58189714Y-120880143D01*
X58142095Y-120784905D01*
X58094476Y-120594429D01*
X58094476Y-120356333D01*
X58142095Y-120165857D01*
X58189714Y-120070619D01*
X58237333Y-120023000D01*
X58332571Y-119975381D01*
X56761143Y-117292381D02*
X56427809Y-116816190D01*
X56189714Y-117292381D02*
X56189714Y-116292381D01*
X56570667Y-116292381D01*
X56665905Y-116340000D01*
X56713524Y-116387619D01*
X56761143Y-116482857D01*
X56761143Y-116625714D01*
X56713524Y-116720952D01*
X56665905Y-116768571D01*
X56570667Y-116816190D01*
X56189714Y-116816190D01*
X57713524Y-117292381D02*
X57142095Y-117292381D01*
X57427809Y-117292381D02*
X57427809Y-116292381D01*
X57332571Y-116435238D01*
X57237333Y-116530476D01*
X57142095Y-116578095D01*
X58094476Y-116387619D02*
X58142095Y-116340000D01*
X58237333Y-116292381D01*
X58475429Y-116292381D01*
X58570667Y-116340000D01*
X58618286Y-116387619D01*
X58665905Y-116482857D01*
X58665905Y-116578095D01*
X58618286Y-116720952D01*
X58046857Y-117292381D01*
X58665905Y-117292381D01*
X65270143Y-132532381D02*
X64936809Y-132056190D01*
X64698714Y-132532381D02*
X64698714Y-131532381D01*
X65079667Y-131532381D01*
X65174905Y-131580000D01*
X65222524Y-131627619D01*
X65270143Y-131722857D01*
X65270143Y-131865714D01*
X65222524Y-131960952D01*
X65174905Y-132008571D01*
X65079667Y-132056190D01*
X64698714Y-132056190D01*
X66222524Y-132532381D02*
X65651095Y-132532381D01*
X65936809Y-132532381D02*
X65936809Y-131532381D01*
X65841571Y-131675238D01*
X65746333Y-131770476D01*
X65651095Y-131818095D01*
X66555857Y-131532381D02*
X67174905Y-131532381D01*
X66841571Y-131913333D01*
X66984429Y-131913333D01*
X67079667Y-131960952D01*
X67127286Y-132008571D01*
X67174905Y-132103810D01*
X67174905Y-132341905D01*
X67127286Y-132437143D01*
X67079667Y-132484762D01*
X66984429Y-132532381D01*
X66698714Y-132532381D01*
X66603476Y-132484762D01*
X66555857Y-132437143D01*
X61206143Y-132532381D02*
X60872809Y-132056190D01*
X60634714Y-132532381D02*
X60634714Y-131532381D01*
X61015667Y-131532381D01*
X61110905Y-131580000D01*
X61158524Y-131627619D01*
X61206143Y-131722857D01*
X61206143Y-131865714D01*
X61158524Y-131960952D01*
X61110905Y-132008571D01*
X61015667Y-132056190D01*
X60634714Y-132056190D01*
X62158524Y-132532381D02*
X61587095Y-132532381D01*
X61872809Y-132532381D02*
X61872809Y-131532381D01*
X61777571Y-131675238D01*
X61682333Y-131770476D01*
X61587095Y-131818095D01*
X63015667Y-131865714D02*
X63015667Y-132532381D01*
X62777571Y-131484762D02*
X62539476Y-132199048D01*
X63158524Y-132199048D01*
X73779143Y-111704381D02*
X73445809Y-111228190D01*
X73207714Y-111704381D02*
X73207714Y-110704381D01*
X73588667Y-110704381D01*
X73683905Y-110752000D01*
X73731524Y-110799619D01*
X73779143Y-110894857D01*
X73779143Y-111037714D01*
X73731524Y-111132952D01*
X73683905Y-111180571D01*
X73588667Y-111228190D01*
X73207714Y-111228190D01*
X74731524Y-111704381D02*
X74160095Y-111704381D01*
X74445809Y-111704381D02*
X74445809Y-110704381D01*
X74350571Y-110847238D01*
X74255333Y-110942476D01*
X74160095Y-110990095D01*
X75064857Y-110704381D02*
X75731524Y-110704381D01*
X75302952Y-111704381D01*
X74033143Y-126436381D02*
X73699809Y-125960190D01*
X73461714Y-126436381D02*
X73461714Y-125436381D01*
X73842667Y-125436381D01*
X73937905Y-125484000D01*
X73985524Y-125531619D01*
X74033143Y-125626857D01*
X74033143Y-125769714D01*
X73985524Y-125864952D01*
X73937905Y-125912571D01*
X73842667Y-125960190D01*
X73461714Y-125960190D01*
X74414095Y-125531619D02*
X74461714Y-125484000D01*
X74556952Y-125436381D01*
X74795048Y-125436381D01*
X74890286Y-125484000D01*
X74937905Y-125531619D01*
X74985524Y-125626857D01*
X74985524Y-125722095D01*
X74937905Y-125864952D01*
X74366476Y-126436381D01*
X74985524Y-126436381D01*
X75366476Y-125531619D02*
X75414095Y-125484000D01*
X75509333Y-125436381D01*
X75747429Y-125436381D01*
X75842667Y-125484000D01*
X75890286Y-125531619D01*
X75937905Y-125626857D01*
X75937905Y-125722095D01*
X75890286Y-125864952D01*
X75318857Y-126436381D01*
X75937905Y-126436381D01*
X96448643Y-129166881D02*
X96115309Y-128690690D01*
X95877214Y-129166881D02*
X95877214Y-128166881D01*
X96258167Y-128166881D01*
X96353405Y-128214500D01*
X96401024Y-128262119D01*
X96448643Y-128357357D01*
X96448643Y-128500214D01*
X96401024Y-128595452D01*
X96353405Y-128643071D01*
X96258167Y-128690690D01*
X95877214Y-128690690D01*
X96829595Y-128262119D02*
X96877214Y-128214500D01*
X96972452Y-128166881D01*
X97210548Y-128166881D01*
X97305786Y-128214500D01*
X97353405Y-128262119D01*
X97401024Y-128357357D01*
X97401024Y-128452595D01*
X97353405Y-128595452D01*
X96781976Y-129166881D01*
X97401024Y-129166881D01*
X97734357Y-128166881D02*
X98353405Y-128166881D01*
X98020071Y-128547833D01*
X98162929Y-128547833D01*
X98258167Y-128595452D01*
X98305786Y-128643071D01*
X98353405Y-128738310D01*
X98353405Y-128976405D01*
X98305786Y-129071643D01*
X98258167Y-129119262D01*
X98162929Y-129166881D01*
X97877214Y-129166881D01*
X97781976Y-129119262D01*
X97734357Y-129071643D01*
X106037143Y-113350381D02*
X105703809Y-112874190D01*
X105465714Y-113350381D02*
X105465714Y-112350381D01*
X105846667Y-112350381D01*
X105941905Y-112398000D01*
X105989524Y-112445619D01*
X106037143Y-112540857D01*
X106037143Y-112683714D01*
X105989524Y-112778952D01*
X105941905Y-112826571D01*
X105846667Y-112874190D01*
X105465714Y-112874190D01*
X106418095Y-112445619D02*
X106465714Y-112398000D01*
X106560952Y-112350381D01*
X106799048Y-112350381D01*
X106894286Y-112398000D01*
X106941905Y-112445619D01*
X106989524Y-112540857D01*
X106989524Y-112636095D01*
X106941905Y-112778952D01*
X106370476Y-113350381D01*
X106989524Y-113350381D01*
X107322857Y-112350381D02*
X107989524Y-112350381D01*
X107560952Y-113350381D01*
X112641143Y-110058381D02*
X112307809Y-109582190D01*
X112069714Y-110058381D02*
X112069714Y-109058381D01*
X112450667Y-109058381D01*
X112545905Y-109106000D01*
X112593524Y-109153619D01*
X112641143Y-109248857D01*
X112641143Y-109391714D01*
X112593524Y-109486952D01*
X112545905Y-109534571D01*
X112450667Y-109582190D01*
X112069714Y-109582190D01*
X113022095Y-109153619D02*
X113069714Y-109106000D01*
X113164952Y-109058381D01*
X113403048Y-109058381D01*
X113498286Y-109106000D01*
X113545905Y-109153619D01*
X113593524Y-109248857D01*
X113593524Y-109344095D01*
X113545905Y-109486952D01*
X112974476Y-110058381D01*
X113593524Y-110058381D01*
X114069714Y-110058381D02*
X114260190Y-110058381D01*
X114355429Y-110010762D01*
X114403048Y-109963143D01*
X114498286Y-109820286D01*
X114545905Y-109629810D01*
X114545905Y-109248857D01*
X114498286Y-109153619D01*
X114450667Y-109106000D01*
X114355429Y-109058381D01*
X114164952Y-109058381D01*
X114069714Y-109106000D01*
X114022095Y-109153619D01*
X113974476Y-109248857D01*
X113974476Y-109486952D01*
X114022095Y-109582190D01*
X114069714Y-109629810D01*
X114164952Y-109677429D01*
X114355429Y-109677429D01*
X114450667Y-109629810D01*
X114498286Y-109582190D01*
X114545905Y-109486952D01*
X111561643Y-117292381D02*
X111228309Y-116816190D01*
X110990214Y-117292381D02*
X110990214Y-116292381D01*
X111371167Y-116292381D01*
X111466405Y-116340000D01*
X111514024Y-116387619D01*
X111561643Y-116482857D01*
X111561643Y-116625714D01*
X111514024Y-116720952D01*
X111466405Y-116768571D01*
X111371167Y-116816190D01*
X110990214Y-116816190D01*
X111894976Y-116292381D02*
X112514024Y-116292381D01*
X112180690Y-116673333D01*
X112323548Y-116673333D01*
X112418786Y-116720952D01*
X112466405Y-116768571D01*
X112514024Y-116863810D01*
X112514024Y-117101905D01*
X112466405Y-117197143D01*
X112418786Y-117244762D01*
X112323548Y-117292381D01*
X112037833Y-117292381D01*
X111942595Y-117244762D01*
X111894976Y-117197143D01*
X113466405Y-117292381D02*
X112894976Y-117292381D01*
X113180690Y-117292381D02*
X113180690Y-116292381D01*
X113085452Y-116435238D01*
X112990214Y-116530476D01*
X112894976Y-116578095D01*
X104322643Y-120340381D02*
X103989309Y-119864190D01*
X103751214Y-120340381D02*
X103751214Y-119340381D01*
X104132167Y-119340381D01*
X104227405Y-119388000D01*
X104275024Y-119435619D01*
X104322643Y-119530857D01*
X104322643Y-119673714D01*
X104275024Y-119768952D01*
X104227405Y-119816571D01*
X104132167Y-119864190D01*
X103751214Y-119864190D01*
X104655976Y-119340381D02*
X105275024Y-119340381D01*
X104941690Y-119721333D01*
X105084548Y-119721333D01*
X105179786Y-119768952D01*
X105227405Y-119816571D01*
X105275024Y-119911810D01*
X105275024Y-120149905D01*
X105227405Y-120245143D01*
X105179786Y-120292762D01*
X105084548Y-120340381D01*
X104798833Y-120340381D01*
X104703595Y-120292762D01*
X104655976Y-120245143D01*
X105655976Y-119435619D02*
X105703595Y-119388000D01*
X105798833Y-119340381D01*
X106036929Y-119340381D01*
X106132167Y-119388000D01*
X106179786Y-119435619D01*
X106227405Y-119530857D01*
X106227405Y-119626095D01*
X106179786Y-119768952D01*
X105608357Y-120340381D01*
X106227405Y-120340381D01*
X115435143Y-134691381D02*
X115101809Y-134215190D01*
X114863714Y-134691381D02*
X114863714Y-133691381D01*
X115244667Y-133691381D01*
X115339905Y-133739000D01*
X115387524Y-133786619D01*
X115435143Y-133881857D01*
X115435143Y-134024714D01*
X115387524Y-134119952D01*
X115339905Y-134167571D01*
X115244667Y-134215190D01*
X114863714Y-134215190D01*
X115768476Y-133691381D02*
X116387524Y-133691381D01*
X116054190Y-134072333D01*
X116197048Y-134072333D01*
X116292286Y-134119952D01*
X116339905Y-134167571D01*
X116387524Y-134262810D01*
X116387524Y-134500905D01*
X116339905Y-134596143D01*
X116292286Y-134643762D01*
X116197048Y-134691381D01*
X115911333Y-134691381D01*
X115816095Y-134643762D01*
X115768476Y-134596143D01*
X117244667Y-134024714D02*
X117244667Y-134691381D01*
X117006571Y-133643762D02*
X116768476Y-134358048D01*
X117387524Y-134358048D01*
X107386381Y-135199357D02*
X106910190Y-135532691D01*
X107386381Y-135770786D02*
X106386381Y-135770786D01*
X106386381Y-135389833D01*
X106434000Y-135294595D01*
X106481619Y-135246976D01*
X106576857Y-135199357D01*
X106719714Y-135199357D01*
X106814952Y-135246976D01*
X106862571Y-135294595D01*
X106910190Y-135389833D01*
X106910190Y-135770786D01*
X106386381Y-134866024D02*
X106386381Y-134246976D01*
X106767333Y-134580310D01*
X106767333Y-134437452D01*
X106814952Y-134342214D01*
X106862571Y-134294595D01*
X106957810Y-134246976D01*
X107195905Y-134246976D01*
X107291143Y-134294595D01*
X107338762Y-134342214D01*
X107386381Y-134437452D01*
X107386381Y-134723167D01*
X107338762Y-134818405D01*
X107291143Y-134866024D01*
X106386381Y-133342214D02*
X106386381Y-133818405D01*
X106862571Y-133866024D01*
X106814952Y-133818405D01*
X106767333Y-133723167D01*
X106767333Y-133485071D01*
X106814952Y-133389833D01*
X106862571Y-133342214D01*
X106957810Y-133294595D01*
X107195905Y-133294595D01*
X107291143Y-133342214D01*
X107338762Y-133389833D01*
X107386381Y-133485071D01*
X107386381Y-133723167D01*
X107338762Y-133818405D01*
X107291143Y-133866024D01*
X98496381Y-86748857D02*
X98020190Y-87082191D01*
X98496381Y-87320286D02*
X97496381Y-87320286D01*
X97496381Y-86939333D01*
X97544000Y-86844095D01*
X97591619Y-86796476D01*
X97686857Y-86748857D01*
X97829714Y-86748857D01*
X97924952Y-86796476D01*
X97972571Y-86844095D01*
X98020190Y-86939333D01*
X98020190Y-87320286D01*
X97496381Y-86415524D02*
X97496381Y-85796476D01*
X97877333Y-86129810D01*
X97877333Y-85986952D01*
X97924952Y-85891714D01*
X97972571Y-85844095D01*
X98067810Y-85796476D01*
X98305905Y-85796476D01*
X98401143Y-85844095D01*
X98448762Y-85891714D01*
X98496381Y-85986952D01*
X98496381Y-86272667D01*
X98448762Y-86367905D01*
X98401143Y-86415524D01*
X97924952Y-85225048D02*
X97877333Y-85320286D01*
X97829714Y-85367905D01*
X97734476Y-85415524D01*
X97686857Y-85415524D01*
X97591619Y-85367905D01*
X97544000Y-85320286D01*
X97496381Y-85225048D01*
X97496381Y-85034571D01*
X97544000Y-84939333D01*
X97591619Y-84891714D01*
X97686857Y-84844095D01*
X97734476Y-84844095D01*
X97829714Y-84891714D01*
X97877333Y-84939333D01*
X97924952Y-85034571D01*
X97924952Y-85225048D01*
X97972571Y-85320286D01*
X98020190Y-85367905D01*
X98115429Y-85415524D01*
X98305905Y-85415524D01*
X98401143Y-85367905D01*
X98448762Y-85320286D01*
X98496381Y-85225048D01*
X98496381Y-85034571D01*
X98448762Y-84939333D01*
X98401143Y-84891714D01*
X98305905Y-84844095D01*
X98115429Y-84844095D01*
X98020190Y-84891714D01*
X97972571Y-84939333D01*
X97924952Y-85034571D01*
X127627143Y-84150381D02*
X127293809Y-83674190D01*
X127055714Y-84150381D02*
X127055714Y-83150381D01*
X127436667Y-83150381D01*
X127531905Y-83198000D01*
X127579524Y-83245619D01*
X127627143Y-83340857D01*
X127627143Y-83483714D01*
X127579524Y-83578952D01*
X127531905Y-83626571D01*
X127436667Y-83674190D01*
X127055714Y-83674190D01*
X127960476Y-83150381D02*
X128579524Y-83150381D01*
X128246190Y-83531333D01*
X128389048Y-83531333D01*
X128484286Y-83578952D01*
X128531905Y-83626571D01*
X128579524Y-83721810D01*
X128579524Y-83959905D01*
X128531905Y-84055143D01*
X128484286Y-84102762D01*
X128389048Y-84150381D01*
X128103333Y-84150381D01*
X128008095Y-84102762D01*
X127960476Y-84055143D01*
X129055714Y-84150381D02*
X129246190Y-84150381D01*
X129341429Y-84102762D01*
X129389048Y-84055143D01*
X129484286Y-83912286D01*
X129531905Y-83721810D01*
X129531905Y-83340857D01*
X129484286Y-83245619D01*
X129436667Y-83198000D01*
X129341429Y-83150381D01*
X129150952Y-83150381D01*
X129055714Y-83198000D01*
X129008095Y-83245619D01*
X128960476Y-83340857D01*
X128960476Y-83578952D01*
X129008095Y-83674190D01*
X129055714Y-83721810D01*
X129150952Y-83769429D01*
X129341429Y-83769429D01*
X129436667Y-83721810D01*
X129484286Y-83674190D01*
X129531905Y-83578952D01*
X101544381Y-86494857D02*
X101068190Y-86828191D01*
X101544381Y-87066286D02*
X100544381Y-87066286D01*
X100544381Y-86685333D01*
X100592000Y-86590095D01*
X100639619Y-86542476D01*
X100734857Y-86494857D01*
X100877714Y-86494857D01*
X100972952Y-86542476D01*
X101020571Y-86590095D01*
X101068190Y-86685333D01*
X101068190Y-87066286D01*
X100877714Y-85637714D02*
X101544381Y-85637714D01*
X100496762Y-85875810D02*
X101211048Y-86113905D01*
X101211048Y-85494857D01*
X100544381Y-84923429D02*
X100544381Y-84828190D01*
X100592000Y-84732952D01*
X100639619Y-84685333D01*
X100734857Y-84637714D01*
X100925333Y-84590095D01*
X101163429Y-84590095D01*
X101353905Y-84637714D01*
X101449143Y-84685333D01*
X101496762Y-84732952D01*
X101544381Y-84828190D01*
X101544381Y-84923429D01*
X101496762Y-85018667D01*
X101449143Y-85066286D01*
X101353905Y-85113905D01*
X101163429Y-85161524D01*
X100925333Y-85161524D01*
X100734857Y-85113905D01*
X100639619Y-85066286D01*
X100592000Y-85018667D01*
X100544381Y-84923429D01*
X103444381Y-95130857D02*
X102968190Y-95464191D01*
X103444381Y-95702286D02*
X102444381Y-95702286D01*
X102444381Y-95321333D01*
X102492000Y-95226095D01*
X102539619Y-95178476D01*
X102634857Y-95130857D01*
X102777714Y-95130857D01*
X102872952Y-95178476D01*
X102920571Y-95226095D01*
X102968190Y-95321333D01*
X102968190Y-95702286D01*
X102777714Y-94273714D02*
X103444381Y-94273714D01*
X102396762Y-94511810D02*
X103111048Y-94749905D01*
X103111048Y-94130857D01*
X103444381Y-93226095D02*
X103444381Y-93797524D01*
X103444381Y-93511810D02*
X102444381Y-93511810D01*
X102587238Y-93607048D01*
X102682476Y-93702286D01*
X102730095Y-93797524D01*
X88312762Y-139385381D02*
X87979428Y-138909190D01*
X87741333Y-139385381D02*
X87741333Y-138385381D01*
X88122286Y-138385381D01*
X88217524Y-138433000D01*
X88265143Y-138480619D01*
X88312762Y-138575857D01*
X88312762Y-138718714D01*
X88265143Y-138813952D01*
X88217524Y-138861571D01*
X88122286Y-138909190D01*
X87741333Y-138909190D01*
X89074667Y-138861571D02*
X88741333Y-138861571D01*
X88741333Y-139385381D02*
X88741333Y-138385381D01*
X89217524Y-138385381D01*
X89931810Y-138861571D02*
X90074667Y-138909190D01*
X90122286Y-138956810D01*
X90169905Y-139052048D01*
X90169905Y-139194905D01*
X90122286Y-139290143D01*
X90074667Y-139337762D01*
X89979429Y-139385381D01*
X89598476Y-139385381D01*
X89598476Y-138385381D01*
X89931810Y-138385381D01*
X90027048Y-138433000D01*
X90074667Y-138480619D01*
X90122286Y-138575857D01*
X90122286Y-138671095D01*
X90074667Y-138766333D01*
X90027048Y-138813952D01*
X89931810Y-138861571D01*
X89598476Y-138861571D01*
X91122286Y-139385381D02*
X90550857Y-139385381D01*
X90836571Y-139385381D02*
X90836571Y-138385381D01*
X90741333Y-138528238D01*
X90646095Y-138623476D01*
X90550857Y-138671095D01*
X88312762Y-133553381D02*
X87979428Y-133077190D01*
X87741333Y-133553381D02*
X87741333Y-132553381D01*
X88122286Y-132553381D01*
X88217524Y-132601000D01*
X88265143Y-132648619D01*
X88312762Y-132743857D01*
X88312762Y-132886714D01*
X88265143Y-132981952D01*
X88217524Y-133029571D01*
X88122286Y-133077190D01*
X87741333Y-133077190D01*
X89074667Y-133029571D02*
X88741333Y-133029571D01*
X88741333Y-133553381D02*
X88741333Y-132553381D01*
X89217524Y-132553381D01*
X89931810Y-133029571D02*
X90074667Y-133077190D01*
X90122286Y-133124810D01*
X90169905Y-133220048D01*
X90169905Y-133362905D01*
X90122286Y-133458143D01*
X90074667Y-133505762D01*
X89979429Y-133553381D01*
X89598476Y-133553381D01*
X89598476Y-132553381D01*
X89931810Y-132553381D01*
X90027048Y-132601000D01*
X90074667Y-132648619D01*
X90122286Y-132743857D01*
X90122286Y-132839095D01*
X90074667Y-132934333D01*
X90027048Y-132981952D01*
X89931810Y-133029571D01*
X89598476Y-133029571D01*
X90550857Y-132648619D02*
X90598476Y-132601000D01*
X90693714Y-132553381D01*
X90931810Y-132553381D01*
X91027048Y-132601000D01*
X91074667Y-132648619D01*
X91122286Y-132743857D01*
X91122286Y-132839095D01*
X91074667Y-132981952D01*
X90503238Y-133553381D01*
X91122286Y-133553381D01*
X102544643Y-103862143D02*
X102497024Y-103909762D01*
X102354167Y-103957381D01*
X102258929Y-103957381D01*
X102116071Y-103909762D01*
X102020833Y-103814524D01*
X101973214Y-103719286D01*
X101925595Y-103528810D01*
X101925595Y-103385952D01*
X101973214Y-103195476D01*
X102020833Y-103100238D01*
X102116071Y-103005000D01*
X102258929Y-102957381D01*
X102354167Y-102957381D01*
X102497024Y-103005000D01*
X102544643Y-103052619D01*
X102925595Y-103052619D02*
X102973214Y-103005000D01*
X103068452Y-102957381D01*
X103306548Y-102957381D01*
X103401786Y-103005000D01*
X103449405Y-103052619D01*
X103497024Y-103147857D01*
X103497024Y-103243095D01*
X103449405Y-103385952D01*
X102877976Y-103957381D01*
X103497024Y-103957381D01*
X104354167Y-102957381D02*
X104163690Y-102957381D01*
X104068452Y-103005000D01*
X104020833Y-103052619D01*
X103925595Y-103195476D01*
X103877976Y-103385952D01*
X103877976Y-103766905D01*
X103925595Y-103862143D01*
X103973214Y-103909762D01*
X104068452Y-103957381D01*
X104258929Y-103957381D01*
X104354167Y-103909762D01*
X104401786Y-103862143D01*
X104449405Y-103766905D01*
X104449405Y-103528810D01*
X104401786Y-103433571D01*
X104354167Y-103385952D01*
X104258929Y-103338333D01*
X104068452Y-103338333D01*
X103973214Y-103385952D01*
X103925595Y-103433571D01*
X103877976Y-103528810D01*
X71620143Y-105894143D02*
X71572524Y-105941762D01*
X71429667Y-105989381D01*
X71334429Y-105989381D01*
X71191571Y-105941762D01*
X71096333Y-105846524D01*
X71048714Y-105751286D01*
X71001095Y-105560810D01*
X71001095Y-105417952D01*
X71048714Y-105227476D01*
X71096333Y-105132238D01*
X71191571Y-105037000D01*
X71334429Y-104989381D01*
X71429667Y-104989381D01*
X71572524Y-105037000D01*
X71620143Y-105084619D01*
X72001095Y-105084619D02*
X72048714Y-105037000D01*
X72143952Y-104989381D01*
X72382048Y-104989381D01*
X72477286Y-105037000D01*
X72524905Y-105084619D01*
X72572524Y-105179857D01*
X72572524Y-105275095D01*
X72524905Y-105417952D01*
X71953476Y-105989381D01*
X72572524Y-105989381D01*
X73048714Y-105989381D02*
X73239190Y-105989381D01*
X73334429Y-105941762D01*
X73382048Y-105894143D01*
X73477286Y-105751286D01*
X73524905Y-105560810D01*
X73524905Y-105179857D01*
X73477286Y-105084619D01*
X73429667Y-105037000D01*
X73334429Y-104989381D01*
X73143952Y-104989381D01*
X73048714Y-105037000D01*
X73001095Y-105084619D01*
X72953476Y-105179857D01*
X72953476Y-105417952D01*
X73001095Y-105513190D01*
X73048714Y-105560810D01*
X73143952Y-105608429D01*
X73334429Y-105608429D01*
X73429667Y-105560810D01*
X73477286Y-105513190D01*
X73524905Y-105417952D01*
X71620143Y-103989143D02*
X71572524Y-104036762D01*
X71429667Y-104084381D01*
X71334429Y-104084381D01*
X71191571Y-104036762D01*
X71096333Y-103941524D01*
X71048714Y-103846286D01*
X71001095Y-103655810D01*
X71001095Y-103512952D01*
X71048714Y-103322476D01*
X71096333Y-103227238D01*
X71191571Y-103132000D01*
X71334429Y-103084381D01*
X71429667Y-103084381D01*
X71572524Y-103132000D01*
X71620143Y-103179619D01*
X71953476Y-103084381D02*
X72572524Y-103084381D01*
X72239190Y-103465333D01*
X72382048Y-103465333D01*
X72477286Y-103512952D01*
X72524905Y-103560571D01*
X72572524Y-103655810D01*
X72572524Y-103893905D01*
X72524905Y-103989143D01*
X72477286Y-104036762D01*
X72382048Y-104084381D01*
X72096333Y-104084381D01*
X72001095Y-104036762D01*
X71953476Y-103989143D01*
X73191571Y-103084381D02*
X73286810Y-103084381D01*
X73382048Y-103132000D01*
X73429667Y-103179619D01*
X73477286Y-103274857D01*
X73524905Y-103465333D01*
X73524905Y-103703429D01*
X73477286Y-103893905D01*
X73429667Y-103989143D01*
X73382048Y-104036762D01*
X73286810Y-104084381D01*
X73191571Y-104084381D01*
X73096333Y-104036762D01*
X73048714Y-103989143D01*
X73001095Y-103893905D01*
X72953476Y-103703429D01*
X72953476Y-103465333D01*
X73001095Y-103274857D01*
X73048714Y-103179619D01*
X73096333Y-103132000D01*
X73191571Y-103084381D01*
X70207143Y-86494857D02*
X70254762Y-86542476D01*
X70302381Y-86685333D01*
X70302381Y-86780571D01*
X70254762Y-86923429D01*
X70159524Y-87018667D01*
X70064286Y-87066286D01*
X69873810Y-87113905D01*
X69730952Y-87113905D01*
X69540476Y-87066286D01*
X69445238Y-87018667D01*
X69350000Y-86923429D01*
X69302381Y-86780571D01*
X69302381Y-86685333D01*
X69350000Y-86542476D01*
X69397619Y-86494857D01*
X69302381Y-86161524D02*
X69302381Y-85542476D01*
X69683333Y-85875810D01*
X69683333Y-85732952D01*
X69730952Y-85637714D01*
X69778571Y-85590095D01*
X69873810Y-85542476D01*
X70111905Y-85542476D01*
X70207143Y-85590095D01*
X70254762Y-85637714D01*
X70302381Y-85732952D01*
X70302381Y-86018667D01*
X70254762Y-86113905D01*
X70207143Y-86161524D01*
X69302381Y-84637714D02*
X69302381Y-85113905D01*
X69778571Y-85161524D01*
X69730952Y-85113905D01*
X69683333Y-85018667D01*
X69683333Y-84780571D01*
X69730952Y-84685333D01*
X69778571Y-84637714D01*
X69873810Y-84590095D01*
X70111905Y-84590095D01*
X70207143Y-84637714D01*
X70254762Y-84685333D01*
X70302381Y-84780571D01*
X70302381Y-85018667D01*
X70254762Y-85113905D01*
X70207143Y-85161524D01*
X73001143Y-86494857D02*
X73048762Y-86542476D01*
X73096381Y-86685333D01*
X73096381Y-86780571D01*
X73048762Y-86923429D01*
X72953524Y-87018667D01*
X72858286Y-87066286D01*
X72667810Y-87113905D01*
X72524952Y-87113905D01*
X72334476Y-87066286D01*
X72239238Y-87018667D01*
X72144000Y-86923429D01*
X72096381Y-86780571D01*
X72096381Y-86685333D01*
X72144000Y-86542476D01*
X72191619Y-86494857D01*
X72096381Y-86161524D02*
X72096381Y-85542476D01*
X72477333Y-85875810D01*
X72477333Y-85732952D01*
X72524952Y-85637714D01*
X72572571Y-85590095D01*
X72667810Y-85542476D01*
X72905905Y-85542476D01*
X73001143Y-85590095D01*
X73048762Y-85637714D01*
X73096381Y-85732952D01*
X73096381Y-86018667D01*
X73048762Y-86113905D01*
X73001143Y-86161524D01*
X72096381Y-85209143D02*
X72096381Y-84542476D01*
X73096381Y-84971048D01*
X109831143Y-100718857D02*
X109878762Y-100766476D01*
X109926381Y-100909333D01*
X109926381Y-101004571D01*
X109878762Y-101147429D01*
X109783524Y-101242667D01*
X109688286Y-101290286D01*
X109497810Y-101337905D01*
X109354952Y-101337905D01*
X109164476Y-101290286D01*
X109069238Y-101242667D01*
X108974000Y-101147429D01*
X108926381Y-101004571D01*
X108926381Y-100909333D01*
X108974000Y-100766476D01*
X109021619Y-100718857D01*
X108926381Y-100385524D02*
X108926381Y-99766476D01*
X109307333Y-100099810D01*
X109307333Y-99956952D01*
X109354952Y-99861714D01*
X109402571Y-99814095D01*
X109497810Y-99766476D01*
X109735905Y-99766476D01*
X109831143Y-99814095D01*
X109878762Y-99861714D01*
X109926381Y-99956952D01*
X109926381Y-100242667D01*
X109878762Y-100337905D01*
X109831143Y-100385524D01*
X109926381Y-99290286D02*
X109926381Y-99099810D01*
X109878762Y-99004571D01*
X109831143Y-98956952D01*
X109688286Y-98861714D01*
X109497810Y-98814095D01*
X109116857Y-98814095D01*
X109021619Y-98861714D01*
X108974000Y-98909333D01*
X108926381Y-99004571D01*
X108926381Y-99195048D01*
X108974000Y-99290286D01*
X109021619Y-99337905D01*
X109116857Y-99385524D01*
X109354952Y-99385524D01*
X109450190Y-99337905D01*
X109497810Y-99290286D01*
X109545429Y-99195048D01*
X109545429Y-99004571D01*
X109497810Y-98909333D01*
X109450190Y-98861714D01*
X109354952Y-98814095D01*
X123051274Y-118343941D02*
X122575083Y-118343941D01*
X122575083Y-117343941D01*
X123336988Y-117439179D02*
X123384607Y-117391560D01*
X123479845Y-117343941D01*
X123717941Y-117343941D01*
X123813179Y-117391560D01*
X123860798Y-117439179D01*
X123908417Y-117534417D01*
X123908417Y-117629655D01*
X123860798Y-117772512D01*
X123289369Y-118343941D01*
X123908417Y-118343941D01*
X115165143Y-100718857D02*
X115212762Y-100766476D01*
X115260381Y-100909333D01*
X115260381Y-101004571D01*
X115212762Y-101147429D01*
X115117524Y-101242667D01*
X115022286Y-101290286D01*
X114831810Y-101337905D01*
X114688952Y-101337905D01*
X114498476Y-101290286D01*
X114403238Y-101242667D01*
X114308000Y-101147429D01*
X114260381Y-101004571D01*
X114260381Y-100909333D01*
X114308000Y-100766476D01*
X114355619Y-100718857D01*
X114593714Y-99861714D02*
X115260381Y-99861714D01*
X114212762Y-100099810D02*
X114927048Y-100337905D01*
X114927048Y-99718857D01*
X114688952Y-99195048D02*
X114641333Y-99290286D01*
X114593714Y-99337905D01*
X114498476Y-99385524D01*
X114450857Y-99385524D01*
X114355619Y-99337905D01*
X114308000Y-99290286D01*
X114260381Y-99195048D01*
X114260381Y-99004571D01*
X114308000Y-98909333D01*
X114355619Y-98861714D01*
X114450857Y-98814095D01*
X114498476Y-98814095D01*
X114593714Y-98861714D01*
X114641333Y-98909333D01*
X114688952Y-99004571D01*
X114688952Y-99195048D01*
X114736571Y-99290286D01*
X114784190Y-99337905D01*
X114879429Y-99385524D01*
X115069905Y-99385524D01*
X115165143Y-99337905D01*
X115212762Y-99290286D01*
X115260381Y-99195048D01*
X115260381Y-99004571D01*
X115212762Y-98909333D01*
X115165143Y-98861714D01*
X115069905Y-98814095D01*
X114879429Y-98814095D01*
X114784190Y-98861714D01*
X114736571Y-98909333D01*
X114688952Y-99004571D01*
X113387143Y-100718857D02*
X113434762Y-100766476D01*
X113482381Y-100909333D01*
X113482381Y-101004571D01*
X113434762Y-101147429D01*
X113339524Y-101242667D01*
X113244286Y-101290286D01*
X113053810Y-101337905D01*
X112910952Y-101337905D01*
X112720476Y-101290286D01*
X112625238Y-101242667D01*
X112530000Y-101147429D01*
X112482381Y-101004571D01*
X112482381Y-100909333D01*
X112530000Y-100766476D01*
X112577619Y-100718857D01*
X112815714Y-99861714D02*
X113482381Y-99861714D01*
X112434762Y-100099810D02*
X113149048Y-100337905D01*
X113149048Y-99718857D01*
X113482381Y-99290286D02*
X113482381Y-99099810D01*
X113434762Y-99004571D01*
X113387143Y-98956952D01*
X113244286Y-98861714D01*
X113053810Y-98814095D01*
X112672857Y-98814095D01*
X112577619Y-98861714D01*
X112530000Y-98909333D01*
X112482381Y-99004571D01*
X112482381Y-99195048D01*
X112530000Y-99290286D01*
X112577619Y-99337905D01*
X112672857Y-99385524D01*
X112910952Y-99385524D01*
X113006190Y-99337905D01*
X113053810Y-99290286D01*
X113101429Y-99195048D01*
X113101429Y-99004571D01*
X113053810Y-98909333D01*
X113006190Y-98861714D01*
X112910952Y-98814095D01*
X111482143Y-127515857D02*
X111529762Y-127563476D01*
X111577381Y-127706333D01*
X111577381Y-127801571D01*
X111529762Y-127944429D01*
X111434524Y-128039667D01*
X111339286Y-128087286D01*
X111148810Y-128134905D01*
X111005952Y-128134905D01*
X110815476Y-128087286D01*
X110720238Y-128039667D01*
X110625000Y-127944429D01*
X110577381Y-127801571D01*
X110577381Y-127706333D01*
X110625000Y-127563476D01*
X110672619Y-127515857D01*
X110577381Y-126611095D02*
X110577381Y-127087286D01*
X111053571Y-127134905D01*
X111005952Y-127087286D01*
X110958333Y-126992048D01*
X110958333Y-126753952D01*
X111005952Y-126658714D01*
X111053571Y-126611095D01*
X111148810Y-126563476D01*
X111386905Y-126563476D01*
X111482143Y-126611095D01*
X111529762Y-126658714D01*
X111577381Y-126753952D01*
X111577381Y-126992048D01*
X111529762Y-127087286D01*
X111482143Y-127134905D01*
X110577381Y-125658714D02*
X110577381Y-126134905D01*
X111053571Y-126182524D01*
X111005952Y-126134905D01*
X110958333Y-126039667D01*
X110958333Y-125801571D01*
X111005952Y-125706333D01*
X111053571Y-125658714D01*
X111148810Y-125611095D01*
X111386905Y-125611095D01*
X111482143Y-125658714D01*
X111529762Y-125706333D01*
X111577381Y-125801571D01*
X111577381Y-126039667D01*
X111529762Y-126134905D01*
X111482143Y-126182524D01*
X134302667Y-82875381D02*
X133969333Y-82399190D01*
X133731238Y-82875381D02*
X133731238Y-81875381D01*
X134112191Y-81875381D01*
X134207429Y-81923000D01*
X134255048Y-81970619D01*
X134302667Y-82065857D01*
X134302667Y-82208714D01*
X134255048Y-82303952D01*
X134207429Y-82351571D01*
X134112191Y-82399190D01*
X133731238Y-82399190D01*
X134731238Y-82351571D02*
X135064572Y-82351571D01*
X135207429Y-82875381D02*
X134731238Y-82875381D01*
X134731238Y-81875381D01*
X135207429Y-81875381D01*
X135969334Y-82351571D02*
X135636000Y-82351571D01*
X135636000Y-82875381D02*
X135636000Y-81875381D01*
X136112191Y-81875381D01*
X136636000Y-81875381D02*
X136636000Y-82113476D01*
X136397905Y-82018238D02*
X136636000Y-82113476D01*
X136874096Y-82018238D01*
X136493143Y-82303952D02*
X136636000Y-82113476D01*
X136778858Y-82303952D01*
X137397905Y-81875381D02*
X137397905Y-82113476D01*
X137159810Y-82018238D02*
X137397905Y-82113476D01*
X137636001Y-82018238D01*
X137255048Y-82303952D02*
X137397905Y-82113476D01*
X137540763Y-82303952D01*
X111609143Y-100718857D02*
X111656762Y-100766476D01*
X111704381Y-100909333D01*
X111704381Y-101004571D01*
X111656762Y-101147429D01*
X111561524Y-101242667D01*
X111466286Y-101290286D01*
X111275810Y-101337905D01*
X111132952Y-101337905D01*
X110942476Y-101290286D01*
X110847238Y-101242667D01*
X110752000Y-101147429D01*
X110704381Y-101004571D01*
X110704381Y-100909333D01*
X110752000Y-100766476D01*
X110799619Y-100718857D01*
X110704381Y-99814095D02*
X110704381Y-100290286D01*
X111180571Y-100337905D01*
X111132952Y-100290286D01*
X111085333Y-100195048D01*
X111085333Y-99956952D01*
X111132952Y-99861714D01*
X111180571Y-99814095D01*
X111275810Y-99766476D01*
X111513905Y-99766476D01*
X111609143Y-99814095D01*
X111656762Y-99861714D01*
X111704381Y-99956952D01*
X111704381Y-100195048D01*
X111656762Y-100290286D01*
X111609143Y-100337905D01*
X110704381Y-98909333D02*
X110704381Y-99099810D01*
X110752000Y-99195048D01*
X110799619Y-99242667D01*
X110942476Y-99337905D01*
X111132952Y-99385524D01*
X111513905Y-99385524D01*
X111609143Y-99337905D01*
X111656762Y-99290286D01*
X111704381Y-99195048D01*
X111704381Y-99004571D01*
X111656762Y-98909333D01*
X111609143Y-98861714D01*
X111513905Y-98814095D01*
X111275810Y-98814095D01*
X111180571Y-98861714D01*
X111132952Y-98909333D01*
X111085333Y-99004571D01*
X111085333Y-99195048D01*
X111132952Y-99290286D01*
X111180571Y-99337905D01*
X111275810Y-99385524D01*
X108053143Y-100718857D02*
X108100762Y-100766476D01*
X108148381Y-100909333D01*
X108148381Y-101004571D01*
X108100762Y-101147429D01*
X108005524Y-101242667D01*
X107910286Y-101290286D01*
X107719810Y-101337905D01*
X107576952Y-101337905D01*
X107386476Y-101290286D01*
X107291238Y-101242667D01*
X107196000Y-101147429D01*
X107148381Y-101004571D01*
X107148381Y-100909333D01*
X107196000Y-100766476D01*
X107243619Y-100718857D01*
X107148381Y-99814095D02*
X107148381Y-100290286D01*
X107624571Y-100337905D01*
X107576952Y-100290286D01*
X107529333Y-100195048D01*
X107529333Y-99956952D01*
X107576952Y-99861714D01*
X107624571Y-99814095D01*
X107719810Y-99766476D01*
X107957905Y-99766476D01*
X108053143Y-99814095D01*
X108100762Y-99861714D01*
X108148381Y-99956952D01*
X108148381Y-100195048D01*
X108100762Y-100290286D01*
X108053143Y-100337905D01*
X107148381Y-99433143D02*
X107148381Y-98766476D01*
X108148381Y-99195048D01*
M02*
