M48
INCH,TZ
T1C0.013
T2C0.032
T3C0.040
T4C0.063
T5C0.091
T6C0.120
%
G90
G05
T1
X23200Y-48000
X23600Y-44700
X23700Y-45400
X23700Y-48800
X23700Y-52000
X24200Y-33500
X24300Y-48200
X24400Y-41100
X24700Y-44100
X24800Y-44800
X24800Y-50800
X24900Y-48200
X25450Y-46500
X25500Y-48200
X25600Y-40300
X25800Y-51400
X26191Y-45391
X26300Y-49500
X26400Y-52000
X26600Y-38900
X26600Y-49000
X26700Y-47000
X26800Y-43100
X27700Y-44100
X28100Y-35500
X28200Y-38900
X28700Y-44550
X28700Y-45400
X28900Y-49300
X29000Y-38750
X29100Y-47300
X29100Y-48300
X29100Y-48800
X29110Y-47670
X29400Y-40200
X29600Y-49550
X29628Y-43125
X29700Y-50400
X30200Y-35700
X31050Y-48250
X31050Y-48950
X31725Y-45225
X32900Y-52850
X33000Y-52300
X33500Y-37200
X33500Y-37800
X33800Y-45500
X33800Y-46000
X34100Y-42900
X34100Y-43600
X34100Y-44300
X34200Y-37800
X34900Y-37800
X35100Y-44500
X35400Y-47200
X35400Y-49300
X35550Y-52700
X35600Y-35600
X35800Y-37000
X37100Y-45800
X37300Y-37950
X37500Y-40700
X37500Y-41500
X37500Y-42300
X37692Y-48741
X37900Y-35500
X39000Y-54100
X39100Y-33400
X39200Y-37450
X39300Y-49300
X39300Y-50000
X39500Y-54400
X39825Y-40000
X39900Y-51600
X40000Y-48600
X40100Y-43250
X40100Y-46950
X40500Y-35700
X40500Y-37750
X40600Y-41300
X40600Y-41900
X40900Y-35500
X41100Y-44350
X41100Y-45319
X41200Y-41300
X41200Y-41900
X41725Y-40525
X41800Y-34100
X41800Y-46400
X42100Y-48500
X42500Y-38100
X42600Y-34100
X42600Y-34800
X42700Y-50000
X42700Y-50800
X43200Y-38100
X43600Y-50000
X43600Y-50800
X43800Y-49400
X43900Y-38100
X43900Y-39700
X44600Y-35100
X44700Y-39700
X45300Y-49100
X45300Y-49800
X45500Y-39700
X46000Y-46400
X46000Y-49100
X46000Y-49800
X46100Y-40600
X46100Y-41400
X46300Y-39700
X46600Y-46500
X46700Y-49100
X46700Y-49800
X46800Y-40600
X46800Y-41400
X46800Y-43300
X46900Y-53600
X47100Y-39700
X47200Y-45555
X47400Y-49100
X47400Y-49800
X47500Y-40600
X47500Y-41400
X47500Y-43550
X48000Y-44450
X48400Y-48500
X49300Y-40900
X49300Y-41700
X49300Y-42500
X49500Y-48800
X49600Y-50100
X49800Y-36500
X49800Y-43300
X50000Y-40900
X50000Y-41700
X50200Y-36800
X50200Y-51800
X53700Y-34900
X53700Y-35600
X53700Y-36200
T2
X51650Y-42500
X51650Y-43500
X52437Y-42500
X52437Y-43500
T3
X23500Y-54350
X24500Y-54350
X25500Y-54350
X26500Y-54350
X27500Y-54350
X28500Y-54350
X29500Y-54350
X30500Y-54350
X31500Y-54350
X32500Y-54350
X48700Y-53300
X49700Y-53300
T4
X23579Y-35000
X24760Y-36850
X25941Y-35000
T5
X53500Y-40638
X53500Y-45362
T6
X23400Y-39100
X29200Y-52100
X53300Y-54250
X53400Y-33650
T0
M30
