G04 #@! TF.FileFunction,Copper,L3,Inr,Plane*
%FSLAX46Y46*%
G04 Gerber Fmt 4.6, Leading zero omitted, Abs format (unit mm)*
G04 Created by KiCad (PCBNEW (2015-02-20 BZR 5437)-product) date Monday, March 16, 2015 'AMt' 09:24:06 AM*
%MOMM*%
G01*
G04 APERTURE LIST*
%ADD10C,0.100000*%
%ADD11R,1.727200X2.032000*%
%ADD12O,1.727200X2.032000*%
%ADD13C,5.080000*%
%ADD14C,1.524000*%
%ADD15C,2.700020*%
%ADD16C,3.200400*%
%ADD17R,2.032000X2.032000*%
%ADD18O,2.032000X2.032000*%
%ADD19C,0.685800*%
%ADD20C,0.889000*%
%ADD21C,0.254000*%
G04 APERTURE END LIST*
D10*
D11*
X82550000Y-138049000D03*
D12*
X80010000Y-138049000D03*
X77470000Y-138049000D03*
X74930000Y-138049000D03*
X72390000Y-138049000D03*
X69850000Y-138049000D03*
X67310000Y-138049000D03*
X64770000Y-138049000D03*
X62230000Y-138049000D03*
X59690000Y-138049000D03*
D13*
X74168000Y-132334000D03*
X59436000Y-99314000D03*
X135382000Y-137795000D03*
D14*
X131191000Y-107950000D03*
X131191000Y-110490000D03*
X133189980Y-110490000D03*
X133189980Y-107950000D03*
D15*
X135890000Y-103220520D03*
X135890000Y-115219480D03*
D16*
X65890140Y-88900000D03*
X59890660Y-88900000D03*
X62890400Y-93599000D03*
D17*
X123698000Y-135382000D03*
D18*
X126238000Y-135382000D03*
D13*
X135636000Y-85471000D03*
D19*
X88646000Y-96012000D03*
X86868000Y-96012000D03*
X85090000Y-96012000D03*
X62992000Y-129032000D03*
X126492000Y-109982000D03*
X89916000Y-125222000D03*
X118872000Y-109982000D03*
X106934000Y-123190000D03*
X74676000Y-102108000D03*
X83820000Y-132842000D03*
X103124000Y-104902000D03*
X103124000Y-106426000D03*
X104648000Y-106426000D03*
X104648000Y-104902000D03*
X101155500Y-101600000D03*
X105981500Y-102933500D03*
X71374000Y-90170000D03*
X61976000Y-104394000D03*
X94742000Y-96393000D03*
X73660000Y-98425000D03*
X125222000Y-107950000D03*
X120650000Y-110617000D03*
X61468000Y-85090000D03*
X76708000Y-90678000D03*
X125984000Y-127254000D03*
X125730000Y-123952000D03*
X127508000Y-131572000D03*
D20*
X113284000Y-89154000D03*
X99314000Y-84836000D03*
D19*
X94234000Y-116332000D03*
D20*
X101346000Y-131064000D03*
D19*
X99822000Y-125222000D03*
D20*
X99822000Y-127000000D03*
D19*
X64643000Y-118110000D03*
X127508000Y-93472000D03*
X126492000Y-92710000D03*
X75254910Y-109537520D03*
X96266000Y-90170000D03*
X102870000Y-95885000D03*
X85090000Y-94488000D03*
X90424000Y-90424000D03*
X80581500Y-114871500D03*
X75438000Y-128016000D03*
X116840000Y-117856000D03*
X118364000Y-118110000D03*
X119888000Y-115709690D03*
X85852000Y-115570000D03*
X85852000Y-116840000D03*
X136398000Y-91948000D03*
X136398000Y-90424000D03*
X136398000Y-88646000D03*
X59944000Y-113538000D03*
X58928000Y-121920000D03*
X68072000Y-109474000D03*
X62738000Y-112014000D03*
X67564000Y-124460000D03*
X64770000Y-122428000D03*
X67818000Y-119380000D03*
X90297000Y-133858000D03*
X65532000Y-130556000D03*
X78867000Y-122555000D03*
X78867000Y-124333000D03*
X111252000Y-125476000D03*
X104394000Y-115110270D03*
X106172000Y-117856000D03*
X86614000Y-112522000D03*
X86614000Y-110744000D03*
X86614000Y-108966000D03*
X95250000Y-107442000D03*
X95250000Y-105410000D03*
X89916000Y-119888000D03*
X95250000Y-103378000D03*
X89154000Y-113030000D03*
X119634000Y-100838000D03*
X117602000Y-100838000D03*
X115570000Y-100838000D03*
X113538000Y-100838000D03*
X111506000Y-100838000D03*
X111506000Y-96774000D03*
X109728000Y-96774000D03*
X107950000Y-96774000D03*
X60198000Y-123952000D03*
X61722000Y-122428000D03*
X63246000Y-122428000D03*
X62992000Y-113792000D03*
X70358000Y-112014000D03*
X60198000Y-115316000D03*
X60198000Y-132080000D03*
X67056000Y-132080000D03*
X95738607Y-123801706D03*
X66524875Y-115292875D03*
X66802000Y-125730000D03*
X73406000Y-125222000D03*
X73914000Y-123952000D03*
X73914000Y-122682000D03*
D20*
X121920000Y-112903000D03*
D19*
X101854000Y-109855000D03*
X101600000Y-123444000D03*
X122936000Y-123190000D03*
X104394000Y-112649000D03*
X125222000Y-103886000D03*
X127000000Y-103886000D03*
X117094000Y-105156000D03*
X118872000Y-105156000D03*
X120650000Y-105156000D03*
X117094000Y-103124000D03*
X118872000Y-103124000D03*
X120650000Y-103124000D03*
X127000000Y-105918000D03*
X125222000Y-105918000D03*
X115062000Y-126492000D03*
X115062000Y-124714000D03*
X116840000Y-124714000D03*
X116840000Y-126492000D03*
X118618000Y-126492000D03*
X118618000Y-124714000D03*
X120396000Y-124714000D03*
X120396000Y-126492000D03*
X108458000Y-129032000D03*
X108458000Y-127000000D03*
X110744000Y-127000000D03*
X110744000Y-129032000D03*
X119126000Y-136144000D03*
X83566000Y-134239000D03*
X101854000Y-119253000D03*
X65024000Y-102362000D03*
X75184000Y-125857000D03*
X72898000Y-113157000D03*
X72898000Y-115316000D03*
X73938677Y-121082151D03*
X73914000Y-120142000D03*
X71628000Y-98806000D03*
X67564000Y-98806000D03*
X100330000Y-138176000D03*
X99060000Y-137414000D03*
X99568000Y-95123000D03*
X90932000Y-93980000D03*
X103886000Y-90170000D03*
X102870000Y-90678000D03*
X108204000Y-88392000D03*
X106172000Y-86614000D03*
X108204000Y-86614000D03*
D21*
G36*
X137795000Y-135861973D02*
X137631356Y-135698043D01*
X137631356Y-115506934D01*
X137631356Y-103507974D01*
X137608807Y-102819705D01*
X137388799Y-102288559D01*
X137157019Y-102133106D01*
X136977414Y-102312711D01*
X136977414Y-101953501D01*
X136821961Y-101721721D01*
X136177454Y-101479164D01*
X135489185Y-101501713D01*
X134958039Y-101721721D01*
X134802586Y-101953501D01*
X135890000Y-103040915D01*
X136977414Y-101953501D01*
X136977414Y-102312711D01*
X136069605Y-103220520D01*
X137157019Y-104307934D01*
X137388799Y-104152481D01*
X137631356Y-103507974D01*
X137631356Y-115506934D01*
X137608807Y-114818665D01*
X137388799Y-114287519D01*
X137157019Y-114132066D01*
X136977414Y-114311671D01*
X136977414Y-113952461D01*
X136977414Y-104487539D01*
X135890000Y-103400125D01*
X135710395Y-103579730D01*
X135710395Y-103220520D01*
X134622981Y-102133106D01*
X134391201Y-102288559D01*
X134148644Y-102933066D01*
X134171193Y-103621335D01*
X134391201Y-104152481D01*
X134622981Y-104307934D01*
X135710395Y-103220520D01*
X135710395Y-103579730D01*
X134802586Y-104487539D01*
X134958039Y-104719319D01*
X135602546Y-104961876D01*
X136290815Y-104939327D01*
X136821961Y-104719319D01*
X136977414Y-104487539D01*
X136977414Y-113952461D01*
X136821961Y-113720681D01*
X136177454Y-113478124D01*
X135489185Y-113500673D01*
X134958039Y-113720681D01*
X134802586Y-113952461D01*
X135890000Y-115039875D01*
X136977414Y-113952461D01*
X136977414Y-114311671D01*
X136069605Y-115219480D01*
X137157019Y-116306894D01*
X137388799Y-116151441D01*
X137631356Y-115506934D01*
X137631356Y-135698043D01*
X137125214Y-135191018D01*
X136977414Y-135129646D01*
X136977414Y-116486499D01*
X135890000Y-115399085D01*
X135710395Y-115578690D01*
X135710395Y-115219480D01*
X134622981Y-114132066D01*
X134485604Y-114224203D01*
X134485604Y-110233460D01*
X134346071Y-109895763D01*
X134346071Y-108096945D01*
X134314302Y-107643343D01*
X134201836Y-107371824D01*
X134031140Y-107288445D01*
X133851535Y-107468050D01*
X133851535Y-107108840D01*
X133768156Y-106938144D01*
X133336925Y-106793909D01*
X132883323Y-106825678D01*
X132611804Y-106938144D01*
X132528425Y-107108840D01*
X133189980Y-107770395D01*
X133851535Y-107108840D01*
X133851535Y-107468050D01*
X133369585Y-107950000D01*
X134031140Y-108611555D01*
X134201836Y-108528176D01*
X134346071Y-108096945D01*
X134346071Y-109895763D01*
X134288807Y-109757174D01*
X133924723Y-109392454D01*
X133851535Y-109362063D01*
X133851535Y-108791160D01*
X133189980Y-108129605D01*
X132528425Y-108791160D01*
X132611804Y-108961856D01*
X133043035Y-109106091D01*
X133496637Y-109074322D01*
X133768156Y-108961856D01*
X133851535Y-108791160D01*
X133851535Y-109362063D01*
X133448781Y-109194826D01*
X132933440Y-109194376D01*
X132457154Y-109391173D01*
X132190344Y-109657517D01*
X131925743Y-109392454D01*
X131509991Y-109219819D01*
X131923826Y-109048827D01*
X132288546Y-108684743D01*
X132323975Y-108599419D01*
X132348820Y-108611555D01*
X133010375Y-107950000D01*
X132348820Y-107288445D01*
X132324237Y-107300452D01*
X132289827Y-107217174D01*
X131925743Y-106852454D01*
X131449801Y-106654826D01*
X130934460Y-106654376D01*
X130458174Y-106851173D01*
X130093454Y-107215257D01*
X129895826Y-107691199D01*
X129895376Y-108206540D01*
X130092173Y-108682826D01*
X130456257Y-109047546D01*
X130872008Y-109220180D01*
X130458174Y-109391173D01*
X130093454Y-109755257D01*
X129895826Y-110231199D01*
X129895376Y-110746540D01*
X130092173Y-111222826D01*
X130456257Y-111587546D01*
X130932199Y-111785174D01*
X131447540Y-111785624D01*
X131923826Y-111588827D01*
X132190635Y-111322482D01*
X132455237Y-111587546D01*
X132931179Y-111785174D01*
X133446520Y-111785624D01*
X133922806Y-111588827D01*
X134287526Y-111224743D01*
X134485154Y-110748801D01*
X134485604Y-110233460D01*
X134485604Y-114224203D01*
X134391201Y-114287519D01*
X134148644Y-114932026D01*
X134171193Y-115620295D01*
X134391201Y-116151441D01*
X134622981Y-116306894D01*
X135710395Y-115219480D01*
X135710395Y-115578690D01*
X134802586Y-116486499D01*
X134958039Y-116718279D01*
X135602546Y-116960836D01*
X136290815Y-116938287D01*
X136821961Y-116718279D01*
X136977414Y-116486499D01*
X136977414Y-135129646D01*
X135996019Y-134722135D01*
X134773345Y-134721068D01*
X133643333Y-135187979D01*
X132778018Y-136051786D01*
X132309135Y-137180981D01*
X132308068Y-138403655D01*
X132774979Y-139533667D01*
X133626425Y-140386600D01*
X127876452Y-140386600D01*
X127876452Y-105744458D01*
X127876452Y-103712458D01*
X127743324Y-103390264D01*
X127497032Y-103143542D01*
X127175072Y-103009852D01*
X126826458Y-103009548D01*
X126504264Y-103142676D01*
X126257542Y-103388968D01*
X126123852Y-103710928D01*
X126123548Y-104059542D01*
X126256676Y-104381736D01*
X126502968Y-104628458D01*
X126824928Y-104762148D01*
X127173542Y-104762452D01*
X127495736Y-104629324D01*
X127742458Y-104383032D01*
X127876148Y-104061072D01*
X127876452Y-103712458D01*
X127876452Y-105744458D01*
X127743324Y-105422264D01*
X127497032Y-105175542D01*
X127175072Y-105041852D01*
X126826458Y-105041548D01*
X126504264Y-105174676D01*
X126257542Y-105420968D01*
X126123852Y-105742928D01*
X126123548Y-106091542D01*
X126256676Y-106413736D01*
X126502968Y-106660458D01*
X126824928Y-106794148D01*
X127173542Y-106794452D01*
X127495736Y-106661324D01*
X127742458Y-106415032D01*
X127876148Y-106093072D01*
X127876452Y-105744458D01*
X127876452Y-140386600D01*
X127592220Y-140386600D01*
X127592220Y-135725070D01*
X127592220Y-135038930D01*
X127438174Y-134667003D01*
X127073199Y-134262142D01*
X126581072Y-134027769D01*
X126365000Y-134086024D01*
X126365000Y-135255000D01*
X127533540Y-135255000D01*
X127592220Y-135038930D01*
X127592220Y-135725070D01*
X127533540Y-135509000D01*
X126365000Y-135509000D01*
X126365000Y-136677976D01*
X126581072Y-136736231D01*
X127073199Y-136501858D01*
X127438174Y-136096997D01*
X127592220Y-135725070D01*
X127592220Y-140386600D01*
X126111000Y-140386600D01*
X126111000Y-136677976D01*
X126111000Y-135509000D01*
X126091000Y-135509000D01*
X126091000Y-135255000D01*
X126111000Y-135255000D01*
X126111000Y-134086024D01*
X126098452Y-134082640D01*
X126098452Y-105744458D01*
X126098452Y-103712458D01*
X125965324Y-103390264D01*
X125719032Y-103143542D01*
X125397072Y-103009852D01*
X125048458Y-103009548D01*
X124726264Y-103142676D01*
X124479542Y-103388968D01*
X124345852Y-103710928D01*
X124345548Y-104059542D01*
X124478676Y-104381736D01*
X124724968Y-104628458D01*
X125046928Y-104762148D01*
X125395542Y-104762452D01*
X125717736Y-104629324D01*
X125964458Y-104383032D01*
X126098148Y-104061072D01*
X126098452Y-103712458D01*
X126098452Y-105744458D01*
X125965324Y-105422264D01*
X125719032Y-105175542D01*
X125397072Y-105041852D01*
X125048458Y-105041548D01*
X124726264Y-105174676D01*
X124479542Y-105420968D01*
X124345852Y-105742928D01*
X124345548Y-106091542D01*
X124478676Y-106413736D01*
X124724968Y-106660458D01*
X125046928Y-106794148D01*
X125395542Y-106794452D01*
X125717736Y-106661324D01*
X125964458Y-106415032D01*
X126098148Y-106093072D01*
X126098452Y-105744458D01*
X126098452Y-134082640D01*
X125894928Y-134027769D01*
X125402801Y-134262142D01*
X125257850Y-134422933D01*
X125257850Y-134366000D01*
X125218389Y-134162617D01*
X125100966Y-133983861D01*
X124923698Y-133864204D01*
X124714000Y-133822150D01*
X123812452Y-133822150D01*
X123812452Y-123016458D01*
X123679324Y-122694264D01*
X123433032Y-122447542D01*
X123111072Y-122313852D01*
X122898069Y-122313666D01*
X122898069Y-112709337D01*
X122749507Y-112349788D01*
X122474659Y-112074460D01*
X122115370Y-111925270D01*
X121726337Y-111924931D01*
X121526452Y-112007521D01*
X121526452Y-104982458D01*
X121526452Y-102950458D01*
X121393324Y-102628264D01*
X121147032Y-102381542D01*
X120825072Y-102247852D01*
X120510452Y-102247577D01*
X120510452Y-100664458D01*
X120377324Y-100342264D01*
X120131032Y-100095542D01*
X119809072Y-99961852D01*
X119460458Y-99961548D01*
X119138264Y-100094676D01*
X118891542Y-100340968D01*
X118757852Y-100662928D01*
X118757548Y-101011542D01*
X118890676Y-101333736D01*
X119136968Y-101580458D01*
X119458928Y-101714148D01*
X119807542Y-101714452D01*
X120129736Y-101581324D01*
X120376458Y-101335032D01*
X120510148Y-101013072D01*
X120510452Y-100664458D01*
X120510452Y-102247577D01*
X120476458Y-102247548D01*
X120154264Y-102380676D01*
X119907542Y-102626968D01*
X119773852Y-102948928D01*
X119773548Y-103297542D01*
X119906676Y-103619736D01*
X120152968Y-103866458D01*
X120474928Y-104000148D01*
X120823542Y-104000452D01*
X121145736Y-103867324D01*
X121392458Y-103621032D01*
X121526148Y-103299072D01*
X121526452Y-102950458D01*
X121526452Y-104982458D01*
X121393324Y-104660264D01*
X121147032Y-104413542D01*
X120825072Y-104279852D01*
X120476458Y-104279548D01*
X120154264Y-104412676D01*
X119907542Y-104658968D01*
X119773852Y-104980928D01*
X119773548Y-105329542D01*
X119906676Y-105651736D01*
X120152968Y-105898458D01*
X120474928Y-106032148D01*
X120823542Y-106032452D01*
X121145736Y-105899324D01*
X121392458Y-105653032D01*
X121526148Y-105331072D01*
X121526452Y-104982458D01*
X121526452Y-112007521D01*
X121366788Y-112073493D01*
X121091460Y-112348341D01*
X120942270Y-112707630D01*
X120941931Y-113096663D01*
X121090493Y-113456212D01*
X121365341Y-113731540D01*
X121724630Y-113880730D01*
X122113663Y-113881069D01*
X122473212Y-113732507D01*
X122748540Y-113457659D01*
X122897730Y-113098370D01*
X122898069Y-112709337D01*
X122898069Y-122313666D01*
X122762458Y-122313548D01*
X122440264Y-122446676D01*
X122193542Y-122692968D01*
X122059852Y-123014928D01*
X122059548Y-123363542D01*
X122192676Y-123685736D01*
X122438968Y-123932458D01*
X122760928Y-124066148D01*
X123109542Y-124066452D01*
X123431736Y-123933324D01*
X123678458Y-123687032D01*
X123812148Y-123365072D01*
X123812452Y-123016458D01*
X123812452Y-133822150D01*
X122682000Y-133822150D01*
X122478617Y-133861611D01*
X122299861Y-133979034D01*
X122180204Y-134156302D01*
X122138150Y-134366000D01*
X122138150Y-136398000D01*
X122177611Y-136601383D01*
X122295034Y-136780139D01*
X122472302Y-136899796D01*
X122682000Y-136941850D01*
X124714000Y-136941850D01*
X124917383Y-136902389D01*
X125096139Y-136784966D01*
X125215796Y-136607698D01*
X125257850Y-136398000D01*
X125257850Y-136341066D01*
X125402801Y-136501858D01*
X125894928Y-136736231D01*
X126111000Y-136677976D01*
X126111000Y-140386600D01*
X121272452Y-140386600D01*
X121272452Y-126318458D01*
X121272452Y-124540458D01*
X121139324Y-124218264D01*
X120893032Y-123971542D01*
X120571072Y-123837852D01*
X120222458Y-123837548D01*
X119900264Y-123970676D01*
X119748452Y-124122223D01*
X119748452Y-104982458D01*
X119748452Y-102950458D01*
X119615324Y-102628264D01*
X119369032Y-102381542D01*
X119047072Y-102247852D01*
X118698458Y-102247548D01*
X118478452Y-102338452D01*
X118478452Y-100664458D01*
X118345324Y-100342264D01*
X118099032Y-100095542D01*
X117777072Y-99961852D01*
X117428458Y-99961548D01*
X117106264Y-100094676D01*
X116859542Y-100340968D01*
X116725852Y-100662928D01*
X116725548Y-101011542D01*
X116858676Y-101333736D01*
X117104968Y-101580458D01*
X117426928Y-101714148D01*
X117775542Y-101714452D01*
X118097736Y-101581324D01*
X118344458Y-101335032D01*
X118478148Y-101013072D01*
X118478452Y-100664458D01*
X118478452Y-102338452D01*
X118376264Y-102380676D01*
X118129542Y-102626968D01*
X117995852Y-102948928D01*
X117995548Y-103297542D01*
X118128676Y-103619736D01*
X118374968Y-103866458D01*
X118696928Y-104000148D01*
X119045542Y-104000452D01*
X119367736Y-103867324D01*
X119614458Y-103621032D01*
X119748148Y-103299072D01*
X119748452Y-102950458D01*
X119748452Y-104982458D01*
X119615324Y-104660264D01*
X119369032Y-104413542D01*
X119047072Y-104279852D01*
X118698458Y-104279548D01*
X118376264Y-104412676D01*
X118129542Y-104658968D01*
X117995852Y-104980928D01*
X117995548Y-105329542D01*
X118128676Y-105651736D01*
X118374968Y-105898458D01*
X118696928Y-106032148D01*
X119045542Y-106032452D01*
X119367736Y-105899324D01*
X119614458Y-105653032D01*
X119748148Y-105331072D01*
X119748452Y-104982458D01*
X119748452Y-124122223D01*
X119653542Y-124216968D01*
X119519852Y-124538928D01*
X119519548Y-124887542D01*
X119652676Y-125209736D01*
X119898968Y-125456458D01*
X120220928Y-125590148D01*
X120569542Y-125590452D01*
X120891736Y-125457324D01*
X121138458Y-125211032D01*
X121272148Y-124889072D01*
X121272452Y-124540458D01*
X121272452Y-126318458D01*
X121139324Y-125996264D01*
X120893032Y-125749542D01*
X120571072Y-125615852D01*
X120222458Y-125615548D01*
X119900264Y-125748676D01*
X119653542Y-125994968D01*
X119519852Y-126316928D01*
X119519548Y-126665542D01*
X119652676Y-126987736D01*
X119898968Y-127234458D01*
X120220928Y-127368148D01*
X120569542Y-127368452D01*
X120891736Y-127235324D01*
X121138458Y-126989032D01*
X121272148Y-126667072D01*
X121272452Y-126318458D01*
X121272452Y-140386600D01*
X120002452Y-140386600D01*
X120002452Y-135970458D01*
X119869324Y-135648264D01*
X119623032Y-135401542D01*
X119494452Y-135348150D01*
X119494452Y-126318458D01*
X119494452Y-124540458D01*
X119361324Y-124218264D01*
X119115032Y-123971542D01*
X118793072Y-123837852D01*
X118444458Y-123837548D01*
X118122264Y-123970676D01*
X117970452Y-124122223D01*
X117970452Y-104982458D01*
X117970452Y-102950458D01*
X117837324Y-102628264D01*
X117591032Y-102381542D01*
X117269072Y-102247852D01*
X116920458Y-102247548D01*
X116598264Y-102380676D01*
X116446452Y-102532223D01*
X116446452Y-100664458D01*
X116313324Y-100342264D01*
X116067032Y-100095542D01*
X115745072Y-99961852D01*
X115396458Y-99961548D01*
X115074264Y-100094676D01*
X114827542Y-100340968D01*
X114693852Y-100662928D01*
X114693548Y-101011542D01*
X114826676Y-101333736D01*
X115072968Y-101580458D01*
X115394928Y-101714148D01*
X115743542Y-101714452D01*
X116065736Y-101581324D01*
X116312458Y-101335032D01*
X116446148Y-101013072D01*
X116446452Y-100664458D01*
X116446452Y-102532223D01*
X116351542Y-102626968D01*
X116217852Y-102948928D01*
X116217548Y-103297542D01*
X116350676Y-103619736D01*
X116596968Y-103866458D01*
X116918928Y-104000148D01*
X117267542Y-104000452D01*
X117589736Y-103867324D01*
X117836458Y-103621032D01*
X117970148Y-103299072D01*
X117970452Y-102950458D01*
X117970452Y-104982458D01*
X117837324Y-104660264D01*
X117591032Y-104413542D01*
X117269072Y-104279852D01*
X116920458Y-104279548D01*
X116598264Y-104412676D01*
X116351542Y-104658968D01*
X116217852Y-104980928D01*
X116217548Y-105329542D01*
X116350676Y-105651736D01*
X116596968Y-105898458D01*
X116918928Y-106032148D01*
X117267542Y-106032452D01*
X117589736Y-105899324D01*
X117836458Y-105653032D01*
X117970148Y-105331072D01*
X117970452Y-104982458D01*
X117970452Y-124122223D01*
X117875542Y-124216968D01*
X117741852Y-124538928D01*
X117741548Y-124887542D01*
X117874676Y-125209736D01*
X118120968Y-125456458D01*
X118442928Y-125590148D01*
X118791542Y-125590452D01*
X119113736Y-125457324D01*
X119360458Y-125211032D01*
X119494148Y-124889072D01*
X119494452Y-124540458D01*
X119494452Y-126318458D01*
X119361324Y-125996264D01*
X119115032Y-125749542D01*
X118793072Y-125615852D01*
X118444458Y-125615548D01*
X118122264Y-125748676D01*
X117875542Y-125994968D01*
X117741852Y-126316928D01*
X117741548Y-126665542D01*
X117874676Y-126987736D01*
X118120968Y-127234458D01*
X118442928Y-127368148D01*
X118791542Y-127368452D01*
X119113736Y-127235324D01*
X119360458Y-126989032D01*
X119494148Y-126667072D01*
X119494452Y-126318458D01*
X119494452Y-135348150D01*
X119301072Y-135267852D01*
X118952458Y-135267548D01*
X118630264Y-135400676D01*
X118383542Y-135646968D01*
X118249852Y-135968928D01*
X118249548Y-136317542D01*
X118382676Y-136639736D01*
X118628968Y-136886458D01*
X118950928Y-137020148D01*
X119299542Y-137020452D01*
X119621736Y-136887324D01*
X119868458Y-136641032D01*
X120002148Y-136319072D01*
X120002452Y-135970458D01*
X120002452Y-140386600D01*
X117716452Y-140386600D01*
X117716452Y-126318458D01*
X117716452Y-124540458D01*
X117583324Y-124218264D01*
X117337032Y-123971542D01*
X117015072Y-123837852D01*
X116666458Y-123837548D01*
X116344264Y-123970676D01*
X116097542Y-124216968D01*
X115963852Y-124538928D01*
X115963548Y-124887542D01*
X116096676Y-125209736D01*
X116342968Y-125456458D01*
X116664928Y-125590148D01*
X117013542Y-125590452D01*
X117335736Y-125457324D01*
X117582458Y-125211032D01*
X117716148Y-124889072D01*
X117716452Y-124540458D01*
X117716452Y-126318458D01*
X117583324Y-125996264D01*
X117337032Y-125749542D01*
X117015072Y-125615852D01*
X116666458Y-125615548D01*
X116344264Y-125748676D01*
X116097542Y-125994968D01*
X115963852Y-126316928D01*
X115963548Y-126665542D01*
X116096676Y-126987736D01*
X116342968Y-127234458D01*
X116664928Y-127368148D01*
X117013542Y-127368452D01*
X117335736Y-127235324D01*
X117582458Y-126989032D01*
X117716148Y-126667072D01*
X117716452Y-126318458D01*
X117716452Y-140386600D01*
X115938452Y-140386600D01*
X115938452Y-126318458D01*
X115938452Y-124540458D01*
X115805324Y-124218264D01*
X115559032Y-123971542D01*
X115237072Y-123837852D01*
X114888458Y-123837548D01*
X114566264Y-123970676D01*
X114414452Y-124122223D01*
X114414452Y-100664458D01*
X114281324Y-100342264D01*
X114035032Y-100095542D01*
X113713072Y-99961852D01*
X113364458Y-99961548D01*
X113042264Y-100094676D01*
X112795542Y-100340968D01*
X112661852Y-100662928D01*
X112661548Y-101011542D01*
X112794676Y-101333736D01*
X113040968Y-101580458D01*
X113362928Y-101714148D01*
X113711542Y-101714452D01*
X114033736Y-101581324D01*
X114280458Y-101335032D01*
X114414148Y-101013072D01*
X114414452Y-100664458D01*
X114414452Y-124122223D01*
X114319542Y-124216968D01*
X114185852Y-124538928D01*
X114185548Y-124887542D01*
X114318676Y-125209736D01*
X114564968Y-125456458D01*
X114886928Y-125590148D01*
X115235542Y-125590452D01*
X115557736Y-125457324D01*
X115804458Y-125211032D01*
X115938148Y-124889072D01*
X115938452Y-124540458D01*
X115938452Y-126318458D01*
X115805324Y-125996264D01*
X115559032Y-125749542D01*
X115237072Y-125615852D01*
X114888458Y-125615548D01*
X114566264Y-125748676D01*
X114319542Y-125994968D01*
X114185852Y-126316928D01*
X114185548Y-126665542D01*
X114318676Y-126987736D01*
X114564968Y-127234458D01*
X114886928Y-127368148D01*
X115235542Y-127368452D01*
X115557736Y-127235324D01*
X115804458Y-126989032D01*
X115938148Y-126667072D01*
X115938452Y-126318458D01*
X115938452Y-140386600D01*
X112382452Y-140386600D01*
X112382452Y-100664458D01*
X112382452Y-96600458D01*
X112249324Y-96278264D01*
X112003032Y-96031542D01*
X111681072Y-95897852D01*
X111332458Y-95897548D01*
X111010264Y-96030676D01*
X110763542Y-96276968D01*
X110629852Y-96598928D01*
X110629548Y-96947542D01*
X110762676Y-97269736D01*
X111008968Y-97516458D01*
X111330928Y-97650148D01*
X111679542Y-97650452D01*
X112001736Y-97517324D01*
X112248458Y-97271032D01*
X112382148Y-96949072D01*
X112382452Y-96600458D01*
X112382452Y-100664458D01*
X112249324Y-100342264D01*
X112003032Y-100095542D01*
X111681072Y-99961852D01*
X111332458Y-99961548D01*
X111010264Y-100094676D01*
X110763542Y-100340968D01*
X110629852Y-100662928D01*
X110629548Y-101011542D01*
X110762676Y-101333736D01*
X111008968Y-101580458D01*
X111330928Y-101714148D01*
X111679542Y-101714452D01*
X112001736Y-101581324D01*
X112248458Y-101335032D01*
X112382148Y-101013072D01*
X112382452Y-100664458D01*
X112382452Y-140386600D01*
X111620452Y-140386600D01*
X111620452Y-128858458D01*
X111620452Y-126826458D01*
X111487324Y-126504264D01*
X111241032Y-126257542D01*
X110919072Y-126123852D01*
X110604452Y-126123577D01*
X110604452Y-96600458D01*
X110471324Y-96278264D01*
X110225032Y-96031542D01*
X109903072Y-95897852D01*
X109554458Y-95897548D01*
X109232264Y-96030676D01*
X109080452Y-96182223D01*
X109080452Y-88218458D01*
X109080452Y-86440458D01*
X108947324Y-86118264D01*
X108701032Y-85871542D01*
X108379072Y-85737852D01*
X108030458Y-85737548D01*
X107708264Y-85870676D01*
X107461542Y-86116968D01*
X107327852Y-86438928D01*
X107327548Y-86787542D01*
X107460676Y-87109736D01*
X107706968Y-87356458D01*
X108028928Y-87490148D01*
X108377542Y-87490452D01*
X108699736Y-87357324D01*
X108946458Y-87111032D01*
X109080148Y-86789072D01*
X109080452Y-86440458D01*
X109080452Y-88218458D01*
X108947324Y-87896264D01*
X108701032Y-87649542D01*
X108379072Y-87515852D01*
X108030458Y-87515548D01*
X107708264Y-87648676D01*
X107461542Y-87894968D01*
X107327852Y-88216928D01*
X107327548Y-88565542D01*
X107460676Y-88887736D01*
X107706968Y-89134458D01*
X108028928Y-89268148D01*
X108377542Y-89268452D01*
X108699736Y-89135324D01*
X108946458Y-88889032D01*
X109080148Y-88567072D01*
X109080452Y-88218458D01*
X109080452Y-96182223D01*
X108985542Y-96276968D01*
X108851852Y-96598928D01*
X108851548Y-96947542D01*
X108984676Y-97269736D01*
X109230968Y-97516458D01*
X109552928Y-97650148D01*
X109901542Y-97650452D01*
X110223736Y-97517324D01*
X110470458Y-97271032D01*
X110604148Y-96949072D01*
X110604452Y-96600458D01*
X110604452Y-126123577D01*
X110570458Y-126123548D01*
X110248264Y-126256676D01*
X110001542Y-126502968D01*
X109867852Y-126824928D01*
X109867548Y-127173542D01*
X110000676Y-127495736D01*
X110246968Y-127742458D01*
X110568928Y-127876148D01*
X110917542Y-127876452D01*
X111239736Y-127743324D01*
X111486458Y-127497032D01*
X111620148Y-127175072D01*
X111620452Y-126826458D01*
X111620452Y-128858458D01*
X111487324Y-128536264D01*
X111241032Y-128289542D01*
X110919072Y-128155852D01*
X110570458Y-128155548D01*
X110248264Y-128288676D01*
X110001542Y-128534968D01*
X109867852Y-128856928D01*
X109867548Y-129205542D01*
X110000676Y-129527736D01*
X110246968Y-129774458D01*
X110568928Y-129908148D01*
X110917542Y-129908452D01*
X111239736Y-129775324D01*
X111486458Y-129529032D01*
X111620148Y-129207072D01*
X111620452Y-128858458D01*
X111620452Y-140386600D01*
X109334452Y-140386600D01*
X109334452Y-128858458D01*
X109334452Y-126826458D01*
X109201324Y-126504264D01*
X108955032Y-126257542D01*
X108826452Y-126204150D01*
X108826452Y-96600458D01*
X108693324Y-96278264D01*
X108447032Y-96031542D01*
X108125072Y-95897852D01*
X107776458Y-95897548D01*
X107454264Y-96030676D01*
X107207542Y-96276968D01*
X107073852Y-96598928D01*
X107073548Y-96947542D01*
X107206676Y-97269736D01*
X107452968Y-97516458D01*
X107774928Y-97650148D01*
X108123542Y-97650452D01*
X108445736Y-97517324D01*
X108692458Y-97271032D01*
X108826148Y-96949072D01*
X108826452Y-96600458D01*
X108826452Y-126204150D01*
X108633072Y-126123852D01*
X108284458Y-126123548D01*
X107962264Y-126256676D01*
X107715542Y-126502968D01*
X107581852Y-126824928D01*
X107581548Y-127173542D01*
X107714676Y-127495736D01*
X107960968Y-127742458D01*
X108282928Y-127876148D01*
X108631542Y-127876452D01*
X108953736Y-127743324D01*
X109200458Y-127497032D01*
X109334148Y-127175072D01*
X109334452Y-126826458D01*
X109334452Y-128858458D01*
X109201324Y-128536264D01*
X108955032Y-128289542D01*
X108633072Y-128155852D01*
X108284458Y-128155548D01*
X107962264Y-128288676D01*
X107715542Y-128534968D01*
X107581852Y-128856928D01*
X107581548Y-129205542D01*
X107714676Y-129527736D01*
X107960968Y-129774458D01*
X108282928Y-129908148D01*
X108631542Y-129908452D01*
X108953736Y-129775324D01*
X109200458Y-129529032D01*
X109334148Y-129207072D01*
X109334452Y-128858458D01*
X109334452Y-140386600D01*
X107048452Y-140386600D01*
X107048452Y-86440458D01*
X106915324Y-86118264D01*
X106669032Y-85871542D01*
X106347072Y-85737852D01*
X105998458Y-85737548D01*
X105676264Y-85870676D01*
X105429542Y-86116968D01*
X105295852Y-86438928D01*
X105295548Y-86787542D01*
X105428676Y-87109736D01*
X105674968Y-87356458D01*
X105996928Y-87490148D01*
X106345542Y-87490452D01*
X106667736Y-87357324D01*
X106914458Y-87111032D01*
X107048148Y-86789072D01*
X107048452Y-86440458D01*
X107048452Y-140386600D01*
X105270452Y-140386600D01*
X105270452Y-112475458D01*
X105137324Y-112153264D01*
X104891032Y-111906542D01*
X104762452Y-111853150D01*
X104762452Y-89996458D01*
X104629324Y-89674264D01*
X104383032Y-89427542D01*
X104061072Y-89293852D01*
X103712458Y-89293548D01*
X103390264Y-89426676D01*
X103143542Y-89672968D01*
X103083413Y-89817772D01*
X103045072Y-89801852D01*
X102696458Y-89801548D01*
X102374264Y-89934676D01*
X102127542Y-90180968D01*
X101993852Y-90502928D01*
X101993548Y-90851542D01*
X102126676Y-91173736D01*
X102372968Y-91420458D01*
X102694928Y-91554148D01*
X103043542Y-91554452D01*
X103365736Y-91421324D01*
X103612458Y-91175032D01*
X103672586Y-91030227D01*
X103710928Y-91046148D01*
X104059542Y-91046452D01*
X104381736Y-90913324D01*
X104628458Y-90667032D01*
X104762148Y-90345072D01*
X104762452Y-89996458D01*
X104762452Y-111853150D01*
X104569072Y-111772852D01*
X104220458Y-111772548D01*
X103898264Y-111905676D01*
X103651542Y-112151968D01*
X103517852Y-112473928D01*
X103517548Y-112822542D01*
X103650676Y-113144736D01*
X103896968Y-113391458D01*
X104218928Y-113525148D01*
X104567542Y-113525452D01*
X104889736Y-113392324D01*
X105136458Y-113146032D01*
X105270148Y-112824072D01*
X105270452Y-112475458D01*
X105270452Y-140386600D01*
X102730452Y-140386600D01*
X102730452Y-119079458D01*
X102730452Y-109681458D01*
X102597324Y-109359264D01*
X102351032Y-109112542D01*
X102029072Y-108978852D01*
X101680458Y-108978548D01*
X101358264Y-109111676D01*
X101111542Y-109357968D01*
X100977852Y-109679928D01*
X100977548Y-110028542D01*
X101110676Y-110350736D01*
X101356968Y-110597458D01*
X101678928Y-110731148D01*
X102027542Y-110731452D01*
X102349736Y-110598324D01*
X102596458Y-110352032D01*
X102730148Y-110030072D01*
X102730452Y-109681458D01*
X102730452Y-119079458D01*
X102597324Y-118757264D01*
X102351032Y-118510542D01*
X102029072Y-118376852D01*
X101680458Y-118376548D01*
X101358264Y-118509676D01*
X101111542Y-118755968D01*
X100977852Y-119077928D01*
X100977548Y-119426542D01*
X101110676Y-119748736D01*
X101356968Y-119995458D01*
X101678928Y-120129148D01*
X102027542Y-120129452D01*
X102349736Y-119996324D01*
X102596458Y-119750032D01*
X102730148Y-119428072D01*
X102730452Y-119079458D01*
X102730452Y-140386600D01*
X102476452Y-140386600D01*
X102476452Y-123270458D01*
X102343324Y-122948264D01*
X102097032Y-122701542D01*
X101775072Y-122567852D01*
X101426458Y-122567548D01*
X101104264Y-122700676D01*
X100857542Y-122946968D01*
X100723852Y-123268928D01*
X100723548Y-123617542D01*
X100856676Y-123939736D01*
X101102968Y-124186458D01*
X101424928Y-124320148D01*
X101773542Y-124320452D01*
X102095736Y-124187324D01*
X102342458Y-123941032D01*
X102476148Y-123619072D01*
X102476452Y-123270458D01*
X102476452Y-140386600D01*
X101206452Y-140386600D01*
X101206452Y-138002458D01*
X101073324Y-137680264D01*
X100827032Y-137433542D01*
X100505072Y-137299852D01*
X100444452Y-137299799D01*
X100444452Y-94949458D01*
X100311324Y-94627264D01*
X100065032Y-94380542D01*
X99743072Y-94246852D01*
X99394458Y-94246548D01*
X99072264Y-94379676D01*
X98825542Y-94625968D01*
X98691852Y-94947928D01*
X98691548Y-95296542D01*
X98824676Y-95618736D01*
X99070968Y-95865458D01*
X99392928Y-95999148D01*
X99741542Y-95999452D01*
X100063736Y-95866324D01*
X100310458Y-95620032D01*
X100444148Y-95298072D01*
X100444452Y-94949458D01*
X100444452Y-137299799D01*
X100156458Y-137299548D01*
X99936321Y-137390506D01*
X99936452Y-137240458D01*
X99803324Y-136918264D01*
X99557032Y-136671542D01*
X99235072Y-136537852D01*
X98886458Y-136537548D01*
X98564264Y-136670676D01*
X98317542Y-136916968D01*
X98183852Y-137238928D01*
X98183548Y-137587542D01*
X98316676Y-137909736D01*
X98562968Y-138156458D01*
X98884928Y-138290148D01*
X99233542Y-138290452D01*
X99453678Y-138199493D01*
X99453548Y-138349542D01*
X99586676Y-138671736D01*
X99832968Y-138918458D01*
X100154928Y-139052148D01*
X100503542Y-139052452D01*
X100825736Y-138919324D01*
X101072458Y-138673032D01*
X101206148Y-138351072D01*
X101206452Y-138002458D01*
X101206452Y-140386600D01*
X96615059Y-140386600D01*
X96615059Y-123628164D01*
X96481931Y-123305970D01*
X96235639Y-123059248D01*
X96126452Y-123013909D01*
X96126452Y-107268458D01*
X96126452Y-105236458D01*
X96126452Y-103204458D01*
X95993324Y-102882264D01*
X95747032Y-102635542D01*
X95425072Y-102501852D01*
X95076458Y-102501548D01*
X94754264Y-102634676D01*
X94507542Y-102880968D01*
X94373852Y-103202928D01*
X94373548Y-103551542D01*
X94506676Y-103873736D01*
X94752968Y-104120458D01*
X95074928Y-104254148D01*
X95423542Y-104254452D01*
X95745736Y-104121324D01*
X95992458Y-103875032D01*
X96126148Y-103553072D01*
X96126452Y-103204458D01*
X96126452Y-105236458D01*
X95993324Y-104914264D01*
X95747032Y-104667542D01*
X95425072Y-104533852D01*
X95076458Y-104533548D01*
X94754264Y-104666676D01*
X94507542Y-104912968D01*
X94373852Y-105234928D01*
X94373548Y-105583542D01*
X94506676Y-105905736D01*
X94752968Y-106152458D01*
X95074928Y-106286148D01*
X95423542Y-106286452D01*
X95745736Y-106153324D01*
X95992458Y-105907032D01*
X96126148Y-105585072D01*
X96126452Y-105236458D01*
X96126452Y-107268458D01*
X95993324Y-106946264D01*
X95747032Y-106699542D01*
X95425072Y-106565852D01*
X95076458Y-106565548D01*
X94754264Y-106698676D01*
X94507542Y-106944968D01*
X94373852Y-107266928D01*
X94373548Y-107615542D01*
X94506676Y-107937736D01*
X94752968Y-108184458D01*
X95074928Y-108318148D01*
X95423542Y-108318452D01*
X95745736Y-108185324D01*
X95992458Y-107939032D01*
X96126148Y-107617072D01*
X96126452Y-107268458D01*
X96126452Y-123013909D01*
X95913679Y-122925558D01*
X95565065Y-122925254D01*
X95242871Y-123058382D01*
X94996149Y-123304674D01*
X94862459Y-123626634D01*
X94862155Y-123975248D01*
X94995283Y-124297442D01*
X95241575Y-124544164D01*
X95563535Y-124677854D01*
X95912149Y-124678158D01*
X96234343Y-124545030D01*
X96481065Y-124298738D01*
X96614755Y-123976778D01*
X96615059Y-123628164D01*
X96615059Y-140386600D01*
X91808452Y-140386600D01*
X91808452Y-93806458D01*
X91675324Y-93484264D01*
X91429032Y-93237542D01*
X91107072Y-93103852D01*
X90758458Y-93103548D01*
X90436264Y-93236676D01*
X90189542Y-93482968D01*
X90055852Y-93804928D01*
X90055548Y-94153542D01*
X90188676Y-94475736D01*
X90434968Y-94722458D01*
X90756928Y-94856148D01*
X91105542Y-94856452D01*
X91427736Y-94723324D01*
X91674458Y-94477032D01*
X91808148Y-94155072D01*
X91808452Y-93806458D01*
X91808452Y-140386600D01*
X90792452Y-140386600D01*
X90792452Y-119714458D01*
X90659324Y-119392264D01*
X90413032Y-119145542D01*
X90091072Y-119011852D01*
X90030452Y-119011799D01*
X90030452Y-112856458D01*
X89897324Y-112534264D01*
X89651032Y-112287542D01*
X89522452Y-112234150D01*
X89522452Y-95838458D01*
X89389324Y-95516264D01*
X89143032Y-95269542D01*
X88821072Y-95135852D01*
X88472458Y-95135548D01*
X88150264Y-95268676D01*
X87903542Y-95514968D01*
X87769852Y-95836928D01*
X87769548Y-96185542D01*
X87902676Y-96507736D01*
X88148968Y-96754458D01*
X88470928Y-96888148D01*
X88819542Y-96888452D01*
X89141736Y-96755324D01*
X89388458Y-96509032D01*
X89522148Y-96187072D01*
X89522452Y-95838458D01*
X89522452Y-112234150D01*
X89329072Y-112153852D01*
X88980458Y-112153548D01*
X88658264Y-112286676D01*
X88411542Y-112532968D01*
X88277852Y-112854928D01*
X88277548Y-113203542D01*
X88410676Y-113525736D01*
X88656968Y-113772458D01*
X88978928Y-113906148D01*
X89327542Y-113906452D01*
X89649736Y-113773324D01*
X89896458Y-113527032D01*
X90030148Y-113205072D01*
X90030452Y-112856458D01*
X90030452Y-119011799D01*
X89742458Y-119011548D01*
X89420264Y-119144676D01*
X89173542Y-119390968D01*
X89039852Y-119712928D01*
X89039548Y-120061542D01*
X89172676Y-120383736D01*
X89418968Y-120630458D01*
X89740928Y-120764148D01*
X90089542Y-120764452D01*
X90411736Y-120631324D01*
X90658458Y-120385032D01*
X90792148Y-120063072D01*
X90792452Y-119714458D01*
X90792452Y-140386600D01*
X87744452Y-140386600D01*
X87744452Y-95838458D01*
X87611324Y-95516264D01*
X87365032Y-95269542D01*
X87043072Y-95135852D01*
X86694458Y-95135548D01*
X86372264Y-95268676D01*
X86125542Y-95514968D01*
X85991852Y-95836928D01*
X85991548Y-96185542D01*
X86124676Y-96507736D01*
X86370968Y-96754458D01*
X86692928Y-96888148D01*
X87041542Y-96888452D01*
X87363736Y-96755324D01*
X87610458Y-96509032D01*
X87744148Y-96187072D01*
X87744452Y-95838458D01*
X87744452Y-140386600D01*
X87490452Y-140386600D01*
X87490452Y-112348458D01*
X87490452Y-110570458D01*
X87490452Y-108792458D01*
X87357324Y-108470264D01*
X87111032Y-108223542D01*
X86789072Y-108089852D01*
X86440458Y-108089548D01*
X86118264Y-108222676D01*
X85966452Y-108374223D01*
X85966452Y-95838458D01*
X85833324Y-95516264D01*
X85587032Y-95269542D01*
X85265072Y-95135852D01*
X84916458Y-95135548D01*
X84594264Y-95268676D01*
X84347542Y-95514968D01*
X84213852Y-95836928D01*
X84213548Y-96185542D01*
X84346676Y-96507736D01*
X84592968Y-96754458D01*
X84914928Y-96888148D01*
X85263542Y-96888452D01*
X85585736Y-96755324D01*
X85832458Y-96509032D01*
X85966148Y-96187072D01*
X85966452Y-95838458D01*
X85966452Y-108374223D01*
X85871542Y-108468968D01*
X85737852Y-108790928D01*
X85737548Y-109139542D01*
X85870676Y-109461736D01*
X86116968Y-109708458D01*
X86438928Y-109842148D01*
X86787542Y-109842452D01*
X87109736Y-109709324D01*
X87356458Y-109463032D01*
X87490148Y-109141072D01*
X87490452Y-108792458D01*
X87490452Y-110570458D01*
X87357324Y-110248264D01*
X87111032Y-110001542D01*
X86789072Y-109867852D01*
X86440458Y-109867548D01*
X86118264Y-110000676D01*
X85871542Y-110246968D01*
X85737852Y-110568928D01*
X85737548Y-110917542D01*
X85870676Y-111239736D01*
X86116968Y-111486458D01*
X86438928Y-111620148D01*
X86787542Y-111620452D01*
X87109736Y-111487324D01*
X87356458Y-111241032D01*
X87490148Y-110919072D01*
X87490452Y-110570458D01*
X87490452Y-112348458D01*
X87357324Y-112026264D01*
X87111032Y-111779542D01*
X86789072Y-111645852D01*
X86440458Y-111645548D01*
X86118264Y-111778676D01*
X85871542Y-112024968D01*
X85737852Y-112346928D01*
X85737548Y-112695542D01*
X85870676Y-113017736D01*
X86116968Y-113264458D01*
X86438928Y-113398148D01*
X86787542Y-113398452D01*
X87109736Y-113265324D01*
X87356458Y-113019032D01*
X87490148Y-112697072D01*
X87490452Y-112348458D01*
X87490452Y-140386600D01*
X84442452Y-140386600D01*
X84442452Y-134065458D01*
X84309324Y-133743264D01*
X84063032Y-133496542D01*
X83741072Y-133362852D01*
X83392458Y-133362548D01*
X83070264Y-133495676D01*
X82823542Y-133741968D01*
X82689852Y-134063928D01*
X82689548Y-134412542D01*
X82822676Y-134734736D01*
X83068968Y-134981458D01*
X83390928Y-135115148D01*
X83739542Y-135115452D01*
X84061736Y-134982324D01*
X84308458Y-134736032D01*
X84442148Y-134414072D01*
X84442452Y-134065458D01*
X84442452Y-140386600D01*
X83794600Y-140386600D01*
X83794600Y-139140785D01*
X83794600Y-138989214D01*
X83794600Y-138271250D01*
X83794600Y-137826750D01*
X83794600Y-137108786D01*
X83794600Y-136957215D01*
X83736596Y-136817181D01*
X83629420Y-136710004D01*
X83489386Y-136652000D01*
X82772250Y-136652000D01*
X82677000Y-136747250D01*
X82677000Y-137922000D01*
X83699350Y-137922000D01*
X83794600Y-137826750D01*
X83794600Y-138271250D01*
X83699350Y-138176000D01*
X82677000Y-138176000D01*
X82677000Y-139350750D01*
X82772250Y-139446000D01*
X83489386Y-139446000D01*
X83629420Y-139387996D01*
X83736596Y-139280819D01*
X83794600Y-139140785D01*
X83794600Y-140386600D01*
X82423000Y-140386600D01*
X82423000Y-139350750D01*
X82423000Y-138176000D01*
X82403000Y-138176000D01*
X82403000Y-137922000D01*
X82423000Y-137922000D01*
X82423000Y-136747250D01*
X82327750Y-136652000D01*
X81610614Y-136652000D01*
X81470580Y-136710004D01*
X81363404Y-136817181D01*
X81305400Y-136957215D01*
X81305400Y-137108786D01*
X81305400Y-137355465D01*
X81300660Y-137331636D01*
X80997828Y-136878417D01*
X80544609Y-136575585D01*
X80010000Y-136469245D01*
X79475391Y-136575585D01*
X79022172Y-136878417D01*
X78740000Y-137300716D01*
X78457828Y-136878417D01*
X78004609Y-136575585D01*
X77470000Y-136469245D01*
X77241932Y-136514610D01*
X77241932Y-131725345D01*
X76775021Y-130595333D01*
X76060452Y-129879516D01*
X76060452Y-125683458D01*
X75927324Y-125361264D01*
X75681032Y-125114542D01*
X75359072Y-124980852D01*
X75010458Y-124980548D01*
X74815129Y-125061256D01*
X74815129Y-120908609D01*
X74682001Y-120586415D01*
X74679391Y-120583801D01*
X74790148Y-120317072D01*
X74790452Y-119968458D01*
X74657324Y-119646264D01*
X74411032Y-119399542D01*
X74089072Y-119265852D01*
X73774452Y-119265577D01*
X73774452Y-115142458D01*
X73774452Y-112983458D01*
X73641324Y-112661264D01*
X73395032Y-112414542D01*
X73073072Y-112280852D01*
X72724458Y-112280548D01*
X72504452Y-112371452D01*
X72504452Y-98632458D01*
X72371324Y-98310264D01*
X72125032Y-98063542D01*
X71803072Y-97929852D01*
X71454458Y-97929548D01*
X71132264Y-98062676D01*
X70885542Y-98308968D01*
X70751852Y-98630928D01*
X70751548Y-98979542D01*
X70884676Y-99301736D01*
X71130968Y-99548458D01*
X71452928Y-99682148D01*
X71801542Y-99682452D01*
X72123736Y-99549324D01*
X72370458Y-99303032D01*
X72504148Y-98981072D01*
X72504452Y-98632458D01*
X72504452Y-112371452D01*
X72402264Y-112413676D01*
X72155542Y-112659968D01*
X72021852Y-112981928D01*
X72021548Y-113330542D01*
X72154676Y-113652736D01*
X72400968Y-113899458D01*
X72722928Y-114033148D01*
X73071542Y-114033452D01*
X73393736Y-113900324D01*
X73640458Y-113654032D01*
X73774148Y-113332072D01*
X73774452Y-112983458D01*
X73774452Y-115142458D01*
X73641324Y-114820264D01*
X73395032Y-114573542D01*
X73073072Y-114439852D01*
X72724458Y-114439548D01*
X72402264Y-114572676D01*
X72155542Y-114818968D01*
X72021852Y-115140928D01*
X72021548Y-115489542D01*
X72154676Y-115811736D01*
X72400968Y-116058458D01*
X72722928Y-116192148D01*
X73071542Y-116192452D01*
X73393736Y-116059324D01*
X73640458Y-115813032D01*
X73774148Y-115491072D01*
X73774452Y-115142458D01*
X73774452Y-119265577D01*
X73740458Y-119265548D01*
X73418264Y-119398676D01*
X73171542Y-119644968D01*
X73037852Y-119966928D01*
X73037548Y-120315542D01*
X73170676Y-120637736D01*
X73173285Y-120640349D01*
X73062529Y-120907079D01*
X73062225Y-121255693D01*
X73195353Y-121577887D01*
X73441645Y-121824609D01*
X73567673Y-121876940D01*
X73418264Y-121938676D01*
X73171542Y-122184968D01*
X73037852Y-122506928D01*
X73037548Y-122855542D01*
X73170676Y-123177736D01*
X73309724Y-123317026D01*
X73171542Y-123454968D01*
X73037852Y-123776928D01*
X73037548Y-124125542D01*
X73143619Y-124382255D01*
X72910264Y-124478676D01*
X72663542Y-124724968D01*
X72529852Y-125046928D01*
X72529548Y-125395542D01*
X72662676Y-125717736D01*
X72908968Y-125964458D01*
X73230928Y-126098148D01*
X73579542Y-126098452D01*
X73901736Y-125965324D01*
X74148458Y-125719032D01*
X74282148Y-125397072D01*
X74282452Y-125048458D01*
X74176380Y-124791744D01*
X74409736Y-124695324D01*
X74656458Y-124449032D01*
X74790148Y-124127072D01*
X74790452Y-123778458D01*
X74657324Y-123456264D01*
X74518275Y-123316973D01*
X74656458Y-123179032D01*
X74790148Y-122857072D01*
X74790452Y-122508458D01*
X74657324Y-122186264D01*
X74411032Y-121939542D01*
X74285003Y-121887210D01*
X74434413Y-121825475D01*
X74681135Y-121579183D01*
X74814825Y-121257223D01*
X74815129Y-120908609D01*
X74815129Y-125061256D01*
X74688264Y-125113676D01*
X74441542Y-125359968D01*
X74307852Y-125681928D01*
X74307548Y-126030542D01*
X74440676Y-126352736D01*
X74686968Y-126599458D01*
X75008928Y-126733148D01*
X75357542Y-126733452D01*
X75679736Y-126600324D01*
X75926458Y-126354032D01*
X76060148Y-126032072D01*
X76060452Y-125683458D01*
X76060452Y-129879516D01*
X75911214Y-129730018D01*
X74782019Y-129261135D01*
X73559345Y-129260068D01*
X72429333Y-129726979D01*
X71564018Y-130590786D01*
X71234452Y-131384468D01*
X71234452Y-111840458D01*
X71101324Y-111518264D01*
X70855032Y-111271542D01*
X70533072Y-111137852D01*
X70184458Y-111137548D01*
X69862264Y-111270676D01*
X69615542Y-111516968D01*
X69481852Y-111838928D01*
X69481548Y-112187542D01*
X69614676Y-112509736D01*
X69860968Y-112756458D01*
X70182928Y-112890148D01*
X70531542Y-112890452D01*
X70853736Y-112757324D01*
X71100458Y-112511032D01*
X71234148Y-112189072D01*
X71234452Y-111840458D01*
X71234452Y-131384468D01*
X71095135Y-131719981D01*
X71094068Y-132942655D01*
X71560979Y-134072667D01*
X72424786Y-134937982D01*
X73553981Y-135406865D01*
X74776655Y-135407932D01*
X75906667Y-134941021D01*
X76771982Y-134077214D01*
X77240865Y-132948019D01*
X77241932Y-131725345D01*
X77241932Y-136514610D01*
X76935391Y-136575585D01*
X76482172Y-136878417D01*
X76200000Y-137300716D01*
X75917828Y-136878417D01*
X75464609Y-136575585D01*
X74930000Y-136469245D01*
X74395391Y-136575585D01*
X73942172Y-136878417D01*
X73660000Y-137300716D01*
X73377828Y-136878417D01*
X72924609Y-136575585D01*
X72390000Y-136469245D01*
X71855391Y-136575585D01*
X71402172Y-136878417D01*
X71120000Y-137300716D01*
X70837828Y-136878417D01*
X70384609Y-136575585D01*
X69850000Y-136469245D01*
X69315391Y-136575585D01*
X68862172Y-136878417D01*
X68559340Y-137331636D01*
X68504027Y-137609712D01*
X68440452Y-137425931D01*
X68440452Y-98632458D01*
X68307324Y-98310264D01*
X68061032Y-98063542D01*
X68024110Y-98048210D01*
X68024110Y-88477463D01*
X67699973Y-87692991D01*
X67100305Y-87092276D01*
X66316401Y-86766771D01*
X65467603Y-86766030D01*
X64683131Y-87090167D01*
X64082416Y-87689835D01*
X63756911Y-88473739D01*
X63756170Y-89322537D01*
X64080307Y-90107009D01*
X64679975Y-90707724D01*
X65463879Y-91033229D01*
X66312677Y-91033970D01*
X67097149Y-90709833D01*
X67697864Y-90110165D01*
X68023369Y-89326261D01*
X68024110Y-88477463D01*
X68024110Y-98048210D01*
X67739072Y-97929852D01*
X67390458Y-97929548D01*
X67068264Y-98062676D01*
X66821542Y-98308968D01*
X66687852Y-98630928D01*
X66687548Y-98979542D01*
X66820676Y-99301736D01*
X67066968Y-99548458D01*
X67388928Y-99682148D01*
X67737542Y-99682452D01*
X68059736Y-99549324D01*
X68306458Y-99303032D01*
X68440148Y-98981072D01*
X68440452Y-98632458D01*
X68440452Y-137425931D01*
X68385570Y-137267280D01*
X68062867Y-136903581D01*
X67932452Y-136840448D01*
X67932452Y-131906458D01*
X67799324Y-131584264D01*
X67678452Y-131463180D01*
X67678452Y-125556458D01*
X67545324Y-125234264D01*
X67401327Y-125090015D01*
X67401327Y-115119333D01*
X67268199Y-114797139D01*
X67021907Y-114550417D01*
X66699947Y-114416727D01*
X66351333Y-114416423D01*
X66029139Y-114549551D01*
X65900452Y-114678013D01*
X65900452Y-102188458D01*
X65767324Y-101866264D01*
X65521032Y-101619542D01*
X65199072Y-101485852D01*
X64880363Y-101485574D01*
X64880363Y-93946139D01*
X64861730Y-93158189D01*
X64596041Y-92516760D01*
X64338251Y-92330754D01*
X64158646Y-92510359D01*
X64158646Y-92151149D01*
X63972640Y-91893359D01*
X63237539Y-91609037D01*
X62449589Y-91627670D01*
X61880623Y-91863343D01*
X61880623Y-89247139D01*
X61861990Y-88459189D01*
X61596301Y-87817760D01*
X61338511Y-87631754D01*
X61158906Y-87811359D01*
X61158906Y-87452149D01*
X60972900Y-87194359D01*
X60237799Y-86910037D01*
X59449849Y-86928670D01*
X58808420Y-87194359D01*
X58622414Y-87452149D01*
X59890660Y-88720395D01*
X61158906Y-87452149D01*
X61158906Y-87811359D01*
X60070265Y-88900000D01*
X61338511Y-90168246D01*
X61596301Y-89982240D01*
X61880623Y-89247139D01*
X61880623Y-91863343D01*
X61808160Y-91893359D01*
X61622154Y-92151149D01*
X62890400Y-93419395D01*
X64158646Y-92151149D01*
X64158646Y-92510359D01*
X63070005Y-93599000D01*
X64338251Y-94867246D01*
X64596041Y-94681240D01*
X64880363Y-93946139D01*
X64880363Y-101485574D01*
X64850458Y-101485548D01*
X64528264Y-101618676D01*
X64281542Y-101864968D01*
X64158646Y-102160933D01*
X64158646Y-95046851D01*
X62890400Y-93778605D01*
X62710795Y-93958210D01*
X62710795Y-93599000D01*
X61442549Y-92330754D01*
X61184759Y-92516760D01*
X61158906Y-92583601D01*
X61158906Y-90347851D01*
X59890660Y-89079605D01*
X59711055Y-89259210D01*
X59711055Y-88900000D01*
X58442809Y-87631754D01*
X58185019Y-87817760D01*
X57900697Y-88552861D01*
X57919330Y-89340811D01*
X58185019Y-89982240D01*
X58442809Y-90168246D01*
X59711055Y-88900000D01*
X59711055Y-89259210D01*
X58622414Y-90347851D01*
X58808420Y-90605641D01*
X59543521Y-90889963D01*
X60331471Y-90871330D01*
X60972900Y-90605641D01*
X61158906Y-90347851D01*
X61158906Y-92583601D01*
X60900437Y-93251861D01*
X60919070Y-94039811D01*
X61184759Y-94681240D01*
X61442549Y-94867246D01*
X62710795Y-93599000D01*
X62710795Y-93958210D01*
X61622154Y-95046851D01*
X61808160Y-95304641D01*
X62543261Y-95588963D01*
X63331211Y-95570330D01*
X63972640Y-95304641D01*
X64158646Y-95046851D01*
X64158646Y-102160933D01*
X64147852Y-102186928D01*
X64147548Y-102535542D01*
X64280676Y-102857736D01*
X64526968Y-103104458D01*
X64848928Y-103238148D01*
X65197542Y-103238452D01*
X65519736Y-103105324D01*
X65766458Y-102859032D01*
X65900148Y-102537072D01*
X65900452Y-102188458D01*
X65900452Y-114678013D01*
X65782417Y-114795843D01*
X65648727Y-115117803D01*
X65648423Y-115466417D01*
X65781551Y-115788611D01*
X66027843Y-116035333D01*
X66349803Y-116169023D01*
X66698417Y-116169327D01*
X67020611Y-116036199D01*
X67267333Y-115789907D01*
X67401023Y-115467947D01*
X67401327Y-115119333D01*
X67401327Y-125090015D01*
X67299032Y-124987542D01*
X66977072Y-124853852D01*
X66628458Y-124853548D01*
X66306264Y-124986676D01*
X66059542Y-125232968D01*
X65925852Y-125554928D01*
X65925548Y-125903542D01*
X66058676Y-126225736D01*
X66304968Y-126472458D01*
X66626928Y-126606148D01*
X66975542Y-126606452D01*
X67297736Y-126473324D01*
X67544458Y-126227032D01*
X67678148Y-125905072D01*
X67678452Y-125556458D01*
X67678452Y-131463180D01*
X67553032Y-131337542D01*
X67231072Y-131203852D01*
X66882458Y-131203548D01*
X66560264Y-131336676D01*
X66313542Y-131582968D01*
X66179852Y-131904928D01*
X66179548Y-132253542D01*
X66312676Y-132575736D01*
X66558968Y-132822458D01*
X66880928Y-132956148D01*
X67229542Y-132956452D01*
X67551736Y-132823324D01*
X67798458Y-132577032D01*
X67932148Y-132255072D01*
X67932452Y-131906458D01*
X67932452Y-136840448D01*
X67629118Y-136693607D01*
X67437000Y-136754288D01*
X67437000Y-137922000D01*
X67457000Y-137922000D01*
X67457000Y-138176000D01*
X67437000Y-138176000D01*
X67437000Y-139343712D01*
X67629118Y-139404393D01*
X68062867Y-139194419D01*
X68385570Y-138830720D01*
X68504027Y-138488287D01*
X68559340Y-138766364D01*
X68862172Y-139219583D01*
X69315391Y-139522415D01*
X69850000Y-139628755D01*
X70384609Y-139522415D01*
X70837828Y-139219583D01*
X71120000Y-138797283D01*
X71402172Y-139219583D01*
X71855391Y-139522415D01*
X72390000Y-139628755D01*
X72924609Y-139522415D01*
X73377828Y-139219583D01*
X73660000Y-138797283D01*
X73942172Y-139219583D01*
X74395391Y-139522415D01*
X74930000Y-139628755D01*
X75464609Y-139522415D01*
X75917828Y-139219583D01*
X76200000Y-138797283D01*
X76482172Y-139219583D01*
X76935391Y-139522415D01*
X77470000Y-139628755D01*
X78004609Y-139522415D01*
X78457828Y-139219583D01*
X78740000Y-138797283D01*
X79022172Y-139219583D01*
X79475391Y-139522415D01*
X80010000Y-139628755D01*
X80544609Y-139522415D01*
X80997828Y-139219583D01*
X81300660Y-138766364D01*
X81305400Y-138742534D01*
X81305400Y-138989214D01*
X81305400Y-139140785D01*
X81363404Y-139280819D01*
X81470580Y-139387996D01*
X81610614Y-139446000D01*
X82327750Y-139446000D01*
X82423000Y-139350750D01*
X82423000Y-140386600D01*
X67183000Y-140386600D01*
X67183000Y-139343712D01*
X67183000Y-138176000D01*
X67163000Y-138176000D01*
X67163000Y-137922000D01*
X67183000Y-137922000D01*
X67183000Y-136754288D01*
X66990882Y-136693607D01*
X66557133Y-136903581D01*
X66234430Y-137267280D01*
X66115972Y-137609712D01*
X66060660Y-137331636D01*
X65757828Y-136878417D01*
X65304609Y-136575585D01*
X64770000Y-136469245D01*
X64235391Y-136575585D01*
X64122452Y-136651048D01*
X64122452Y-122254458D01*
X63989324Y-121932264D01*
X63868452Y-121811180D01*
X63868452Y-113618458D01*
X63735324Y-113296264D01*
X63489032Y-113049542D01*
X63167072Y-112915852D01*
X62818458Y-112915548D01*
X62496264Y-113048676D01*
X62249542Y-113294968D01*
X62115852Y-113616928D01*
X62115548Y-113965542D01*
X62248676Y-114287736D01*
X62494968Y-114534458D01*
X62816928Y-114668148D01*
X63165542Y-114668452D01*
X63487736Y-114535324D01*
X63734458Y-114289032D01*
X63868148Y-113967072D01*
X63868452Y-113618458D01*
X63868452Y-121811180D01*
X63743032Y-121685542D01*
X63421072Y-121551852D01*
X63072458Y-121551548D01*
X62750264Y-121684676D01*
X62503542Y-121930968D01*
X62484117Y-121977747D01*
X62465324Y-121932264D01*
X62219032Y-121685542D01*
X61897072Y-121551852D01*
X61548458Y-121551548D01*
X61226264Y-121684676D01*
X61074452Y-121836223D01*
X61074452Y-115142458D01*
X60941324Y-114820264D01*
X60695032Y-114573542D01*
X60373072Y-114439852D01*
X60024458Y-114439548D01*
X59702264Y-114572676D01*
X59455542Y-114818968D01*
X59321852Y-115140928D01*
X59321548Y-115489542D01*
X59454676Y-115811736D01*
X59700968Y-116058458D01*
X60022928Y-116192148D01*
X60371542Y-116192452D01*
X60693736Y-116059324D01*
X60940458Y-115813032D01*
X61074148Y-115491072D01*
X61074452Y-115142458D01*
X61074452Y-121836223D01*
X60979542Y-121930968D01*
X60845852Y-122252928D01*
X60845548Y-122601542D01*
X60978676Y-122923736D01*
X61224968Y-123170458D01*
X61546928Y-123304148D01*
X61895542Y-123304452D01*
X62217736Y-123171324D01*
X62464458Y-122925032D01*
X62483882Y-122878252D01*
X62502676Y-122923736D01*
X62748968Y-123170458D01*
X63070928Y-123304148D01*
X63419542Y-123304452D01*
X63741736Y-123171324D01*
X63988458Y-122925032D01*
X64122148Y-122603072D01*
X64122452Y-122254458D01*
X64122452Y-136651048D01*
X63782172Y-136878417D01*
X63500000Y-137300716D01*
X63217828Y-136878417D01*
X62764609Y-136575585D01*
X62230000Y-136469245D01*
X61695391Y-136575585D01*
X61242172Y-136878417D01*
X61074452Y-137129426D01*
X61074452Y-131906458D01*
X61074452Y-123778458D01*
X60941324Y-123456264D01*
X60695032Y-123209542D01*
X60373072Y-123075852D01*
X60024458Y-123075548D01*
X59702264Y-123208676D01*
X59455542Y-123454968D01*
X59321852Y-123776928D01*
X59321548Y-124125542D01*
X59454676Y-124447736D01*
X59700968Y-124694458D01*
X60022928Y-124828148D01*
X60371542Y-124828452D01*
X60693736Y-124695324D01*
X60940458Y-124449032D01*
X61074148Y-124127072D01*
X61074452Y-123778458D01*
X61074452Y-131906458D01*
X60941324Y-131584264D01*
X60695032Y-131337542D01*
X60373072Y-131203852D01*
X60024458Y-131203548D01*
X59702264Y-131336676D01*
X59455542Y-131582968D01*
X59321852Y-131904928D01*
X59321548Y-132253542D01*
X59454676Y-132575736D01*
X59700968Y-132822458D01*
X60022928Y-132956148D01*
X60371542Y-132956452D01*
X60693736Y-132823324D01*
X60940458Y-132577032D01*
X61074148Y-132255072D01*
X61074452Y-131906458D01*
X61074452Y-137129426D01*
X60960000Y-137300716D01*
X60677828Y-136878417D01*
X60224609Y-136575585D01*
X59690000Y-136469245D01*
X59155391Y-136575585D01*
X58702172Y-136878417D01*
X58399340Y-137331636D01*
X58293000Y-137866245D01*
X58293000Y-138231755D01*
X58399340Y-138766364D01*
X58702172Y-139219583D01*
X59155391Y-139522415D01*
X59690000Y-139628755D01*
X60224609Y-139522415D01*
X60677828Y-139219583D01*
X60960000Y-138797283D01*
X61242172Y-139219583D01*
X61695391Y-139522415D01*
X62230000Y-139628755D01*
X62764609Y-139522415D01*
X63217828Y-139219583D01*
X63500000Y-138797283D01*
X63782172Y-139219583D01*
X64235391Y-139522415D01*
X64770000Y-139628755D01*
X65304609Y-139522415D01*
X65757828Y-139219583D01*
X66060660Y-138766364D01*
X66115972Y-138488287D01*
X66234430Y-138830720D01*
X66557133Y-139194419D01*
X66990882Y-139404393D01*
X67183000Y-139343712D01*
X67183000Y-140386600D01*
X59112459Y-140386600D01*
X58067611Y-140178767D01*
X57230543Y-139619456D01*
X56671232Y-138782388D01*
X56463400Y-137737541D01*
X56463400Y-100167897D01*
X56828979Y-101052667D01*
X57692786Y-101917982D01*
X58821981Y-102386865D01*
X60044655Y-102387932D01*
X61174667Y-101921021D01*
X62039982Y-101057214D01*
X62508865Y-99928019D01*
X62509932Y-98705345D01*
X62043021Y-97575333D01*
X61179214Y-96710018D01*
X60050019Y-96241135D01*
X58827345Y-96240068D01*
X57697333Y-96706979D01*
X56832018Y-97570786D01*
X56463400Y-98458516D01*
X56463400Y-85782458D01*
X56671232Y-84737611D01*
X57230543Y-83900543D01*
X58067611Y-83341232D01*
X59112459Y-83133400D01*
X133627441Y-83133400D01*
X133032018Y-83727786D01*
X132563135Y-84856981D01*
X132562068Y-86079655D01*
X133028979Y-87209667D01*
X133892786Y-88074982D01*
X135021981Y-88543865D01*
X136244655Y-88544932D01*
X137374667Y-88078021D01*
X137795000Y-87658420D01*
X137795000Y-135861973D01*
X137795000Y-135861973D01*
G37*
X137795000Y-135861973D02*
X137631356Y-135698043D01*
X137631356Y-115506934D01*
X137631356Y-103507974D01*
X137608807Y-102819705D01*
X137388799Y-102288559D01*
X137157019Y-102133106D01*
X136977414Y-102312711D01*
X136977414Y-101953501D01*
X136821961Y-101721721D01*
X136177454Y-101479164D01*
X135489185Y-101501713D01*
X134958039Y-101721721D01*
X134802586Y-101953501D01*
X135890000Y-103040915D01*
X136977414Y-101953501D01*
X136977414Y-102312711D01*
X136069605Y-103220520D01*
X137157019Y-104307934D01*
X137388799Y-104152481D01*
X137631356Y-103507974D01*
X137631356Y-115506934D01*
X137608807Y-114818665D01*
X137388799Y-114287519D01*
X137157019Y-114132066D01*
X136977414Y-114311671D01*
X136977414Y-113952461D01*
X136977414Y-104487539D01*
X135890000Y-103400125D01*
X135710395Y-103579730D01*
X135710395Y-103220520D01*
X134622981Y-102133106D01*
X134391201Y-102288559D01*
X134148644Y-102933066D01*
X134171193Y-103621335D01*
X134391201Y-104152481D01*
X134622981Y-104307934D01*
X135710395Y-103220520D01*
X135710395Y-103579730D01*
X134802586Y-104487539D01*
X134958039Y-104719319D01*
X135602546Y-104961876D01*
X136290815Y-104939327D01*
X136821961Y-104719319D01*
X136977414Y-104487539D01*
X136977414Y-113952461D01*
X136821961Y-113720681D01*
X136177454Y-113478124D01*
X135489185Y-113500673D01*
X134958039Y-113720681D01*
X134802586Y-113952461D01*
X135890000Y-115039875D01*
X136977414Y-113952461D01*
X136977414Y-114311671D01*
X136069605Y-115219480D01*
X137157019Y-116306894D01*
X137388799Y-116151441D01*
X137631356Y-115506934D01*
X137631356Y-135698043D01*
X137125214Y-135191018D01*
X136977414Y-135129646D01*
X136977414Y-116486499D01*
X135890000Y-115399085D01*
X135710395Y-115578690D01*
X135710395Y-115219480D01*
X134622981Y-114132066D01*
X134485604Y-114224203D01*
X134485604Y-110233460D01*
X134346071Y-109895763D01*
X134346071Y-108096945D01*
X134314302Y-107643343D01*
X134201836Y-107371824D01*
X134031140Y-107288445D01*
X133851535Y-107468050D01*
X133851535Y-107108840D01*
X133768156Y-106938144D01*
X133336925Y-106793909D01*
X132883323Y-106825678D01*
X132611804Y-106938144D01*
X132528425Y-107108840D01*
X133189980Y-107770395D01*
X133851535Y-107108840D01*
X133851535Y-107468050D01*
X133369585Y-107950000D01*
X134031140Y-108611555D01*
X134201836Y-108528176D01*
X134346071Y-108096945D01*
X134346071Y-109895763D01*
X134288807Y-109757174D01*
X133924723Y-109392454D01*
X133851535Y-109362063D01*
X133851535Y-108791160D01*
X133189980Y-108129605D01*
X132528425Y-108791160D01*
X132611804Y-108961856D01*
X133043035Y-109106091D01*
X133496637Y-109074322D01*
X133768156Y-108961856D01*
X133851535Y-108791160D01*
X133851535Y-109362063D01*
X133448781Y-109194826D01*
X132933440Y-109194376D01*
X132457154Y-109391173D01*
X132190344Y-109657517D01*
X131925743Y-109392454D01*
X131509991Y-109219819D01*
X131923826Y-109048827D01*
X132288546Y-108684743D01*
X132323975Y-108599419D01*
X132348820Y-108611555D01*
X133010375Y-107950000D01*
X132348820Y-107288445D01*
X132324237Y-107300452D01*
X132289827Y-107217174D01*
X131925743Y-106852454D01*
X131449801Y-106654826D01*
X130934460Y-106654376D01*
X130458174Y-106851173D01*
X130093454Y-107215257D01*
X129895826Y-107691199D01*
X129895376Y-108206540D01*
X130092173Y-108682826D01*
X130456257Y-109047546D01*
X130872008Y-109220180D01*
X130458174Y-109391173D01*
X130093454Y-109755257D01*
X129895826Y-110231199D01*
X129895376Y-110746540D01*
X130092173Y-111222826D01*
X130456257Y-111587546D01*
X130932199Y-111785174D01*
X131447540Y-111785624D01*
X131923826Y-111588827D01*
X132190635Y-111322482D01*
X132455237Y-111587546D01*
X132931179Y-111785174D01*
X133446520Y-111785624D01*
X133922806Y-111588827D01*
X134287526Y-111224743D01*
X134485154Y-110748801D01*
X134485604Y-110233460D01*
X134485604Y-114224203D01*
X134391201Y-114287519D01*
X134148644Y-114932026D01*
X134171193Y-115620295D01*
X134391201Y-116151441D01*
X134622981Y-116306894D01*
X135710395Y-115219480D01*
X135710395Y-115578690D01*
X134802586Y-116486499D01*
X134958039Y-116718279D01*
X135602546Y-116960836D01*
X136290815Y-116938287D01*
X136821961Y-116718279D01*
X136977414Y-116486499D01*
X136977414Y-135129646D01*
X135996019Y-134722135D01*
X134773345Y-134721068D01*
X133643333Y-135187979D01*
X132778018Y-136051786D01*
X132309135Y-137180981D01*
X132308068Y-138403655D01*
X132774979Y-139533667D01*
X133626425Y-140386600D01*
X127876452Y-140386600D01*
X127876452Y-105744458D01*
X127876452Y-103712458D01*
X127743324Y-103390264D01*
X127497032Y-103143542D01*
X127175072Y-103009852D01*
X126826458Y-103009548D01*
X126504264Y-103142676D01*
X126257542Y-103388968D01*
X126123852Y-103710928D01*
X126123548Y-104059542D01*
X126256676Y-104381736D01*
X126502968Y-104628458D01*
X126824928Y-104762148D01*
X127173542Y-104762452D01*
X127495736Y-104629324D01*
X127742458Y-104383032D01*
X127876148Y-104061072D01*
X127876452Y-103712458D01*
X127876452Y-105744458D01*
X127743324Y-105422264D01*
X127497032Y-105175542D01*
X127175072Y-105041852D01*
X126826458Y-105041548D01*
X126504264Y-105174676D01*
X126257542Y-105420968D01*
X126123852Y-105742928D01*
X126123548Y-106091542D01*
X126256676Y-106413736D01*
X126502968Y-106660458D01*
X126824928Y-106794148D01*
X127173542Y-106794452D01*
X127495736Y-106661324D01*
X127742458Y-106415032D01*
X127876148Y-106093072D01*
X127876452Y-105744458D01*
X127876452Y-140386600D01*
X127592220Y-140386600D01*
X127592220Y-135725070D01*
X127592220Y-135038930D01*
X127438174Y-134667003D01*
X127073199Y-134262142D01*
X126581072Y-134027769D01*
X126365000Y-134086024D01*
X126365000Y-135255000D01*
X127533540Y-135255000D01*
X127592220Y-135038930D01*
X127592220Y-135725070D01*
X127533540Y-135509000D01*
X126365000Y-135509000D01*
X126365000Y-136677976D01*
X126581072Y-136736231D01*
X127073199Y-136501858D01*
X127438174Y-136096997D01*
X127592220Y-135725070D01*
X127592220Y-140386600D01*
X126111000Y-140386600D01*
X126111000Y-136677976D01*
X126111000Y-135509000D01*
X126091000Y-135509000D01*
X126091000Y-135255000D01*
X126111000Y-135255000D01*
X126111000Y-134086024D01*
X126098452Y-134082640D01*
X126098452Y-105744458D01*
X126098452Y-103712458D01*
X125965324Y-103390264D01*
X125719032Y-103143542D01*
X125397072Y-103009852D01*
X125048458Y-103009548D01*
X124726264Y-103142676D01*
X124479542Y-103388968D01*
X124345852Y-103710928D01*
X124345548Y-104059542D01*
X124478676Y-104381736D01*
X124724968Y-104628458D01*
X125046928Y-104762148D01*
X125395542Y-104762452D01*
X125717736Y-104629324D01*
X125964458Y-104383032D01*
X126098148Y-104061072D01*
X126098452Y-103712458D01*
X126098452Y-105744458D01*
X125965324Y-105422264D01*
X125719032Y-105175542D01*
X125397072Y-105041852D01*
X125048458Y-105041548D01*
X124726264Y-105174676D01*
X124479542Y-105420968D01*
X124345852Y-105742928D01*
X124345548Y-106091542D01*
X124478676Y-106413736D01*
X124724968Y-106660458D01*
X125046928Y-106794148D01*
X125395542Y-106794452D01*
X125717736Y-106661324D01*
X125964458Y-106415032D01*
X126098148Y-106093072D01*
X126098452Y-105744458D01*
X126098452Y-134082640D01*
X125894928Y-134027769D01*
X125402801Y-134262142D01*
X125257850Y-134422933D01*
X125257850Y-134366000D01*
X125218389Y-134162617D01*
X125100966Y-133983861D01*
X124923698Y-133864204D01*
X124714000Y-133822150D01*
X123812452Y-133822150D01*
X123812452Y-123016458D01*
X123679324Y-122694264D01*
X123433032Y-122447542D01*
X123111072Y-122313852D01*
X122898069Y-122313666D01*
X122898069Y-112709337D01*
X122749507Y-112349788D01*
X122474659Y-112074460D01*
X122115370Y-111925270D01*
X121726337Y-111924931D01*
X121526452Y-112007521D01*
X121526452Y-104982458D01*
X121526452Y-102950458D01*
X121393324Y-102628264D01*
X121147032Y-102381542D01*
X120825072Y-102247852D01*
X120510452Y-102247577D01*
X120510452Y-100664458D01*
X120377324Y-100342264D01*
X120131032Y-100095542D01*
X119809072Y-99961852D01*
X119460458Y-99961548D01*
X119138264Y-100094676D01*
X118891542Y-100340968D01*
X118757852Y-100662928D01*
X118757548Y-101011542D01*
X118890676Y-101333736D01*
X119136968Y-101580458D01*
X119458928Y-101714148D01*
X119807542Y-101714452D01*
X120129736Y-101581324D01*
X120376458Y-101335032D01*
X120510148Y-101013072D01*
X120510452Y-100664458D01*
X120510452Y-102247577D01*
X120476458Y-102247548D01*
X120154264Y-102380676D01*
X119907542Y-102626968D01*
X119773852Y-102948928D01*
X119773548Y-103297542D01*
X119906676Y-103619736D01*
X120152968Y-103866458D01*
X120474928Y-104000148D01*
X120823542Y-104000452D01*
X121145736Y-103867324D01*
X121392458Y-103621032D01*
X121526148Y-103299072D01*
X121526452Y-102950458D01*
X121526452Y-104982458D01*
X121393324Y-104660264D01*
X121147032Y-104413542D01*
X120825072Y-104279852D01*
X120476458Y-104279548D01*
X120154264Y-104412676D01*
X119907542Y-104658968D01*
X119773852Y-104980928D01*
X119773548Y-105329542D01*
X119906676Y-105651736D01*
X120152968Y-105898458D01*
X120474928Y-106032148D01*
X120823542Y-106032452D01*
X121145736Y-105899324D01*
X121392458Y-105653032D01*
X121526148Y-105331072D01*
X121526452Y-104982458D01*
X121526452Y-112007521D01*
X121366788Y-112073493D01*
X121091460Y-112348341D01*
X120942270Y-112707630D01*
X120941931Y-113096663D01*
X121090493Y-113456212D01*
X121365341Y-113731540D01*
X121724630Y-113880730D01*
X122113663Y-113881069D01*
X122473212Y-113732507D01*
X122748540Y-113457659D01*
X122897730Y-113098370D01*
X122898069Y-112709337D01*
X122898069Y-122313666D01*
X122762458Y-122313548D01*
X122440264Y-122446676D01*
X122193542Y-122692968D01*
X122059852Y-123014928D01*
X122059548Y-123363542D01*
X122192676Y-123685736D01*
X122438968Y-123932458D01*
X122760928Y-124066148D01*
X123109542Y-124066452D01*
X123431736Y-123933324D01*
X123678458Y-123687032D01*
X123812148Y-123365072D01*
X123812452Y-123016458D01*
X123812452Y-133822150D01*
X122682000Y-133822150D01*
X122478617Y-133861611D01*
X122299861Y-133979034D01*
X122180204Y-134156302D01*
X122138150Y-134366000D01*
X122138150Y-136398000D01*
X122177611Y-136601383D01*
X122295034Y-136780139D01*
X122472302Y-136899796D01*
X122682000Y-136941850D01*
X124714000Y-136941850D01*
X124917383Y-136902389D01*
X125096139Y-136784966D01*
X125215796Y-136607698D01*
X125257850Y-136398000D01*
X125257850Y-136341066D01*
X125402801Y-136501858D01*
X125894928Y-136736231D01*
X126111000Y-136677976D01*
X126111000Y-140386600D01*
X121272452Y-140386600D01*
X121272452Y-126318458D01*
X121272452Y-124540458D01*
X121139324Y-124218264D01*
X120893032Y-123971542D01*
X120571072Y-123837852D01*
X120222458Y-123837548D01*
X119900264Y-123970676D01*
X119748452Y-124122223D01*
X119748452Y-104982458D01*
X119748452Y-102950458D01*
X119615324Y-102628264D01*
X119369032Y-102381542D01*
X119047072Y-102247852D01*
X118698458Y-102247548D01*
X118478452Y-102338452D01*
X118478452Y-100664458D01*
X118345324Y-100342264D01*
X118099032Y-100095542D01*
X117777072Y-99961852D01*
X117428458Y-99961548D01*
X117106264Y-100094676D01*
X116859542Y-100340968D01*
X116725852Y-100662928D01*
X116725548Y-101011542D01*
X116858676Y-101333736D01*
X117104968Y-101580458D01*
X117426928Y-101714148D01*
X117775542Y-101714452D01*
X118097736Y-101581324D01*
X118344458Y-101335032D01*
X118478148Y-101013072D01*
X118478452Y-100664458D01*
X118478452Y-102338452D01*
X118376264Y-102380676D01*
X118129542Y-102626968D01*
X117995852Y-102948928D01*
X117995548Y-103297542D01*
X118128676Y-103619736D01*
X118374968Y-103866458D01*
X118696928Y-104000148D01*
X119045542Y-104000452D01*
X119367736Y-103867324D01*
X119614458Y-103621032D01*
X119748148Y-103299072D01*
X119748452Y-102950458D01*
X119748452Y-104982458D01*
X119615324Y-104660264D01*
X119369032Y-104413542D01*
X119047072Y-104279852D01*
X118698458Y-104279548D01*
X118376264Y-104412676D01*
X118129542Y-104658968D01*
X117995852Y-104980928D01*
X117995548Y-105329542D01*
X118128676Y-105651736D01*
X118374968Y-105898458D01*
X118696928Y-106032148D01*
X119045542Y-106032452D01*
X119367736Y-105899324D01*
X119614458Y-105653032D01*
X119748148Y-105331072D01*
X119748452Y-104982458D01*
X119748452Y-124122223D01*
X119653542Y-124216968D01*
X119519852Y-124538928D01*
X119519548Y-124887542D01*
X119652676Y-125209736D01*
X119898968Y-125456458D01*
X120220928Y-125590148D01*
X120569542Y-125590452D01*
X120891736Y-125457324D01*
X121138458Y-125211032D01*
X121272148Y-124889072D01*
X121272452Y-124540458D01*
X121272452Y-126318458D01*
X121139324Y-125996264D01*
X120893032Y-125749542D01*
X120571072Y-125615852D01*
X120222458Y-125615548D01*
X119900264Y-125748676D01*
X119653542Y-125994968D01*
X119519852Y-126316928D01*
X119519548Y-126665542D01*
X119652676Y-126987736D01*
X119898968Y-127234458D01*
X120220928Y-127368148D01*
X120569542Y-127368452D01*
X120891736Y-127235324D01*
X121138458Y-126989032D01*
X121272148Y-126667072D01*
X121272452Y-126318458D01*
X121272452Y-140386600D01*
X120002452Y-140386600D01*
X120002452Y-135970458D01*
X119869324Y-135648264D01*
X119623032Y-135401542D01*
X119494452Y-135348150D01*
X119494452Y-126318458D01*
X119494452Y-124540458D01*
X119361324Y-124218264D01*
X119115032Y-123971542D01*
X118793072Y-123837852D01*
X118444458Y-123837548D01*
X118122264Y-123970676D01*
X117970452Y-124122223D01*
X117970452Y-104982458D01*
X117970452Y-102950458D01*
X117837324Y-102628264D01*
X117591032Y-102381542D01*
X117269072Y-102247852D01*
X116920458Y-102247548D01*
X116598264Y-102380676D01*
X116446452Y-102532223D01*
X116446452Y-100664458D01*
X116313324Y-100342264D01*
X116067032Y-100095542D01*
X115745072Y-99961852D01*
X115396458Y-99961548D01*
X115074264Y-100094676D01*
X114827542Y-100340968D01*
X114693852Y-100662928D01*
X114693548Y-101011542D01*
X114826676Y-101333736D01*
X115072968Y-101580458D01*
X115394928Y-101714148D01*
X115743542Y-101714452D01*
X116065736Y-101581324D01*
X116312458Y-101335032D01*
X116446148Y-101013072D01*
X116446452Y-100664458D01*
X116446452Y-102532223D01*
X116351542Y-102626968D01*
X116217852Y-102948928D01*
X116217548Y-103297542D01*
X116350676Y-103619736D01*
X116596968Y-103866458D01*
X116918928Y-104000148D01*
X117267542Y-104000452D01*
X117589736Y-103867324D01*
X117836458Y-103621032D01*
X117970148Y-103299072D01*
X117970452Y-102950458D01*
X117970452Y-104982458D01*
X117837324Y-104660264D01*
X117591032Y-104413542D01*
X117269072Y-104279852D01*
X116920458Y-104279548D01*
X116598264Y-104412676D01*
X116351542Y-104658968D01*
X116217852Y-104980928D01*
X116217548Y-105329542D01*
X116350676Y-105651736D01*
X116596968Y-105898458D01*
X116918928Y-106032148D01*
X117267542Y-106032452D01*
X117589736Y-105899324D01*
X117836458Y-105653032D01*
X117970148Y-105331072D01*
X117970452Y-104982458D01*
X117970452Y-124122223D01*
X117875542Y-124216968D01*
X117741852Y-124538928D01*
X117741548Y-124887542D01*
X117874676Y-125209736D01*
X118120968Y-125456458D01*
X118442928Y-125590148D01*
X118791542Y-125590452D01*
X119113736Y-125457324D01*
X119360458Y-125211032D01*
X119494148Y-124889072D01*
X119494452Y-124540458D01*
X119494452Y-126318458D01*
X119361324Y-125996264D01*
X119115032Y-125749542D01*
X118793072Y-125615852D01*
X118444458Y-125615548D01*
X118122264Y-125748676D01*
X117875542Y-125994968D01*
X117741852Y-126316928D01*
X117741548Y-126665542D01*
X117874676Y-126987736D01*
X118120968Y-127234458D01*
X118442928Y-127368148D01*
X118791542Y-127368452D01*
X119113736Y-127235324D01*
X119360458Y-126989032D01*
X119494148Y-126667072D01*
X119494452Y-126318458D01*
X119494452Y-135348150D01*
X119301072Y-135267852D01*
X118952458Y-135267548D01*
X118630264Y-135400676D01*
X118383542Y-135646968D01*
X118249852Y-135968928D01*
X118249548Y-136317542D01*
X118382676Y-136639736D01*
X118628968Y-136886458D01*
X118950928Y-137020148D01*
X119299542Y-137020452D01*
X119621736Y-136887324D01*
X119868458Y-136641032D01*
X120002148Y-136319072D01*
X120002452Y-135970458D01*
X120002452Y-140386600D01*
X117716452Y-140386600D01*
X117716452Y-126318458D01*
X117716452Y-124540458D01*
X117583324Y-124218264D01*
X117337032Y-123971542D01*
X117015072Y-123837852D01*
X116666458Y-123837548D01*
X116344264Y-123970676D01*
X116097542Y-124216968D01*
X115963852Y-124538928D01*
X115963548Y-124887542D01*
X116096676Y-125209736D01*
X116342968Y-125456458D01*
X116664928Y-125590148D01*
X117013542Y-125590452D01*
X117335736Y-125457324D01*
X117582458Y-125211032D01*
X117716148Y-124889072D01*
X117716452Y-124540458D01*
X117716452Y-126318458D01*
X117583324Y-125996264D01*
X117337032Y-125749542D01*
X117015072Y-125615852D01*
X116666458Y-125615548D01*
X116344264Y-125748676D01*
X116097542Y-125994968D01*
X115963852Y-126316928D01*
X115963548Y-126665542D01*
X116096676Y-126987736D01*
X116342968Y-127234458D01*
X116664928Y-127368148D01*
X117013542Y-127368452D01*
X117335736Y-127235324D01*
X117582458Y-126989032D01*
X117716148Y-126667072D01*
X117716452Y-126318458D01*
X117716452Y-140386600D01*
X115938452Y-140386600D01*
X115938452Y-126318458D01*
X115938452Y-124540458D01*
X115805324Y-124218264D01*
X115559032Y-123971542D01*
X115237072Y-123837852D01*
X114888458Y-123837548D01*
X114566264Y-123970676D01*
X114414452Y-124122223D01*
X114414452Y-100664458D01*
X114281324Y-100342264D01*
X114035032Y-100095542D01*
X113713072Y-99961852D01*
X113364458Y-99961548D01*
X113042264Y-100094676D01*
X112795542Y-100340968D01*
X112661852Y-100662928D01*
X112661548Y-101011542D01*
X112794676Y-101333736D01*
X113040968Y-101580458D01*
X113362928Y-101714148D01*
X113711542Y-101714452D01*
X114033736Y-101581324D01*
X114280458Y-101335032D01*
X114414148Y-101013072D01*
X114414452Y-100664458D01*
X114414452Y-124122223D01*
X114319542Y-124216968D01*
X114185852Y-124538928D01*
X114185548Y-124887542D01*
X114318676Y-125209736D01*
X114564968Y-125456458D01*
X114886928Y-125590148D01*
X115235542Y-125590452D01*
X115557736Y-125457324D01*
X115804458Y-125211032D01*
X115938148Y-124889072D01*
X115938452Y-124540458D01*
X115938452Y-126318458D01*
X115805324Y-125996264D01*
X115559032Y-125749542D01*
X115237072Y-125615852D01*
X114888458Y-125615548D01*
X114566264Y-125748676D01*
X114319542Y-125994968D01*
X114185852Y-126316928D01*
X114185548Y-126665542D01*
X114318676Y-126987736D01*
X114564968Y-127234458D01*
X114886928Y-127368148D01*
X115235542Y-127368452D01*
X115557736Y-127235324D01*
X115804458Y-126989032D01*
X115938148Y-126667072D01*
X115938452Y-126318458D01*
X115938452Y-140386600D01*
X112382452Y-140386600D01*
X112382452Y-100664458D01*
X112382452Y-96600458D01*
X112249324Y-96278264D01*
X112003032Y-96031542D01*
X111681072Y-95897852D01*
X111332458Y-95897548D01*
X111010264Y-96030676D01*
X110763542Y-96276968D01*
X110629852Y-96598928D01*
X110629548Y-96947542D01*
X110762676Y-97269736D01*
X111008968Y-97516458D01*
X111330928Y-97650148D01*
X111679542Y-97650452D01*
X112001736Y-97517324D01*
X112248458Y-97271032D01*
X112382148Y-96949072D01*
X112382452Y-96600458D01*
X112382452Y-100664458D01*
X112249324Y-100342264D01*
X112003032Y-100095542D01*
X111681072Y-99961852D01*
X111332458Y-99961548D01*
X111010264Y-100094676D01*
X110763542Y-100340968D01*
X110629852Y-100662928D01*
X110629548Y-101011542D01*
X110762676Y-101333736D01*
X111008968Y-101580458D01*
X111330928Y-101714148D01*
X111679542Y-101714452D01*
X112001736Y-101581324D01*
X112248458Y-101335032D01*
X112382148Y-101013072D01*
X112382452Y-100664458D01*
X112382452Y-140386600D01*
X111620452Y-140386600D01*
X111620452Y-128858458D01*
X111620452Y-126826458D01*
X111487324Y-126504264D01*
X111241032Y-126257542D01*
X110919072Y-126123852D01*
X110604452Y-126123577D01*
X110604452Y-96600458D01*
X110471324Y-96278264D01*
X110225032Y-96031542D01*
X109903072Y-95897852D01*
X109554458Y-95897548D01*
X109232264Y-96030676D01*
X109080452Y-96182223D01*
X109080452Y-88218458D01*
X109080452Y-86440458D01*
X108947324Y-86118264D01*
X108701032Y-85871542D01*
X108379072Y-85737852D01*
X108030458Y-85737548D01*
X107708264Y-85870676D01*
X107461542Y-86116968D01*
X107327852Y-86438928D01*
X107327548Y-86787542D01*
X107460676Y-87109736D01*
X107706968Y-87356458D01*
X108028928Y-87490148D01*
X108377542Y-87490452D01*
X108699736Y-87357324D01*
X108946458Y-87111032D01*
X109080148Y-86789072D01*
X109080452Y-86440458D01*
X109080452Y-88218458D01*
X108947324Y-87896264D01*
X108701032Y-87649542D01*
X108379072Y-87515852D01*
X108030458Y-87515548D01*
X107708264Y-87648676D01*
X107461542Y-87894968D01*
X107327852Y-88216928D01*
X107327548Y-88565542D01*
X107460676Y-88887736D01*
X107706968Y-89134458D01*
X108028928Y-89268148D01*
X108377542Y-89268452D01*
X108699736Y-89135324D01*
X108946458Y-88889032D01*
X109080148Y-88567072D01*
X109080452Y-88218458D01*
X109080452Y-96182223D01*
X108985542Y-96276968D01*
X108851852Y-96598928D01*
X108851548Y-96947542D01*
X108984676Y-97269736D01*
X109230968Y-97516458D01*
X109552928Y-97650148D01*
X109901542Y-97650452D01*
X110223736Y-97517324D01*
X110470458Y-97271032D01*
X110604148Y-96949072D01*
X110604452Y-96600458D01*
X110604452Y-126123577D01*
X110570458Y-126123548D01*
X110248264Y-126256676D01*
X110001542Y-126502968D01*
X109867852Y-126824928D01*
X109867548Y-127173542D01*
X110000676Y-127495736D01*
X110246968Y-127742458D01*
X110568928Y-127876148D01*
X110917542Y-127876452D01*
X111239736Y-127743324D01*
X111486458Y-127497032D01*
X111620148Y-127175072D01*
X111620452Y-126826458D01*
X111620452Y-128858458D01*
X111487324Y-128536264D01*
X111241032Y-128289542D01*
X110919072Y-128155852D01*
X110570458Y-128155548D01*
X110248264Y-128288676D01*
X110001542Y-128534968D01*
X109867852Y-128856928D01*
X109867548Y-129205542D01*
X110000676Y-129527736D01*
X110246968Y-129774458D01*
X110568928Y-129908148D01*
X110917542Y-129908452D01*
X111239736Y-129775324D01*
X111486458Y-129529032D01*
X111620148Y-129207072D01*
X111620452Y-128858458D01*
X111620452Y-140386600D01*
X109334452Y-140386600D01*
X109334452Y-128858458D01*
X109334452Y-126826458D01*
X109201324Y-126504264D01*
X108955032Y-126257542D01*
X108826452Y-126204150D01*
X108826452Y-96600458D01*
X108693324Y-96278264D01*
X108447032Y-96031542D01*
X108125072Y-95897852D01*
X107776458Y-95897548D01*
X107454264Y-96030676D01*
X107207542Y-96276968D01*
X107073852Y-96598928D01*
X107073548Y-96947542D01*
X107206676Y-97269736D01*
X107452968Y-97516458D01*
X107774928Y-97650148D01*
X108123542Y-97650452D01*
X108445736Y-97517324D01*
X108692458Y-97271032D01*
X108826148Y-96949072D01*
X108826452Y-96600458D01*
X108826452Y-126204150D01*
X108633072Y-126123852D01*
X108284458Y-126123548D01*
X107962264Y-126256676D01*
X107715542Y-126502968D01*
X107581852Y-126824928D01*
X107581548Y-127173542D01*
X107714676Y-127495736D01*
X107960968Y-127742458D01*
X108282928Y-127876148D01*
X108631542Y-127876452D01*
X108953736Y-127743324D01*
X109200458Y-127497032D01*
X109334148Y-127175072D01*
X109334452Y-126826458D01*
X109334452Y-128858458D01*
X109201324Y-128536264D01*
X108955032Y-128289542D01*
X108633072Y-128155852D01*
X108284458Y-128155548D01*
X107962264Y-128288676D01*
X107715542Y-128534968D01*
X107581852Y-128856928D01*
X107581548Y-129205542D01*
X107714676Y-129527736D01*
X107960968Y-129774458D01*
X108282928Y-129908148D01*
X108631542Y-129908452D01*
X108953736Y-129775324D01*
X109200458Y-129529032D01*
X109334148Y-129207072D01*
X109334452Y-128858458D01*
X109334452Y-140386600D01*
X107048452Y-140386600D01*
X107048452Y-86440458D01*
X106915324Y-86118264D01*
X106669032Y-85871542D01*
X106347072Y-85737852D01*
X105998458Y-85737548D01*
X105676264Y-85870676D01*
X105429542Y-86116968D01*
X105295852Y-86438928D01*
X105295548Y-86787542D01*
X105428676Y-87109736D01*
X105674968Y-87356458D01*
X105996928Y-87490148D01*
X106345542Y-87490452D01*
X106667736Y-87357324D01*
X106914458Y-87111032D01*
X107048148Y-86789072D01*
X107048452Y-86440458D01*
X107048452Y-140386600D01*
X105270452Y-140386600D01*
X105270452Y-112475458D01*
X105137324Y-112153264D01*
X104891032Y-111906542D01*
X104762452Y-111853150D01*
X104762452Y-89996458D01*
X104629324Y-89674264D01*
X104383032Y-89427542D01*
X104061072Y-89293852D01*
X103712458Y-89293548D01*
X103390264Y-89426676D01*
X103143542Y-89672968D01*
X103083413Y-89817772D01*
X103045072Y-89801852D01*
X102696458Y-89801548D01*
X102374264Y-89934676D01*
X102127542Y-90180968D01*
X101993852Y-90502928D01*
X101993548Y-90851542D01*
X102126676Y-91173736D01*
X102372968Y-91420458D01*
X102694928Y-91554148D01*
X103043542Y-91554452D01*
X103365736Y-91421324D01*
X103612458Y-91175032D01*
X103672586Y-91030227D01*
X103710928Y-91046148D01*
X104059542Y-91046452D01*
X104381736Y-90913324D01*
X104628458Y-90667032D01*
X104762148Y-90345072D01*
X104762452Y-89996458D01*
X104762452Y-111853150D01*
X104569072Y-111772852D01*
X104220458Y-111772548D01*
X103898264Y-111905676D01*
X103651542Y-112151968D01*
X103517852Y-112473928D01*
X103517548Y-112822542D01*
X103650676Y-113144736D01*
X103896968Y-113391458D01*
X104218928Y-113525148D01*
X104567542Y-113525452D01*
X104889736Y-113392324D01*
X105136458Y-113146032D01*
X105270148Y-112824072D01*
X105270452Y-112475458D01*
X105270452Y-140386600D01*
X102730452Y-140386600D01*
X102730452Y-119079458D01*
X102730452Y-109681458D01*
X102597324Y-109359264D01*
X102351032Y-109112542D01*
X102029072Y-108978852D01*
X101680458Y-108978548D01*
X101358264Y-109111676D01*
X101111542Y-109357968D01*
X100977852Y-109679928D01*
X100977548Y-110028542D01*
X101110676Y-110350736D01*
X101356968Y-110597458D01*
X101678928Y-110731148D01*
X102027542Y-110731452D01*
X102349736Y-110598324D01*
X102596458Y-110352032D01*
X102730148Y-110030072D01*
X102730452Y-109681458D01*
X102730452Y-119079458D01*
X102597324Y-118757264D01*
X102351032Y-118510542D01*
X102029072Y-118376852D01*
X101680458Y-118376548D01*
X101358264Y-118509676D01*
X101111542Y-118755968D01*
X100977852Y-119077928D01*
X100977548Y-119426542D01*
X101110676Y-119748736D01*
X101356968Y-119995458D01*
X101678928Y-120129148D01*
X102027542Y-120129452D01*
X102349736Y-119996324D01*
X102596458Y-119750032D01*
X102730148Y-119428072D01*
X102730452Y-119079458D01*
X102730452Y-140386600D01*
X102476452Y-140386600D01*
X102476452Y-123270458D01*
X102343324Y-122948264D01*
X102097032Y-122701542D01*
X101775072Y-122567852D01*
X101426458Y-122567548D01*
X101104264Y-122700676D01*
X100857542Y-122946968D01*
X100723852Y-123268928D01*
X100723548Y-123617542D01*
X100856676Y-123939736D01*
X101102968Y-124186458D01*
X101424928Y-124320148D01*
X101773542Y-124320452D01*
X102095736Y-124187324D01*
X102342458Y-123941032D01*
X102476148Y-123619072D01*
X102476452Y-123270458D01*
X102476452Y-140386600D01*
X101206452Y-140386600D01*
X101206452Y-138002458D01*
X101073324Y-137680264D01*
X100827032Y-137433542D01*
X100505072Y-137299852D01*
X100444452Y-137299799D01*
X100444452Y-94949458D01*
X100311324Y-94627264D01*
X100065032Y-94380542D01*
X99743072Y-94246852D01*
X99394458Y-94246548D01*
X99072264Y-94379676D01*
X98825542Y-94625968D01*
X98691852Y-94947928D01*
X98691548Y-95296542D01*
X98824676Y-95618736D01*
X99070968Y-95865458D01*
X99392928Y-95999148D01*
X99741542Y-95999452D01*
X100063736Y-95866324D01*
X100310458Y-95620032D01*
X100444148Y-95298072D01*
X100444452Y-94949458D01*
X100444452Y-137299799D01*
X100156458Y-137299548D01*
X99936321Y-137390506D01*
X99936452Y-137240458D01*
X99803324Y-136918264D01*
X99557032Y-136671542D01*
X99235072Y-136537852D01*
X98886458Y-136537548D01*
X98564264Y-136670676D01*
X98317542Y-136916968D01*
X98183852Y-137238928D01*
X98183548Y-137587542D01*
X98316676Y-137909736D01*
X98562968Y-138156458D01*
X98884928Y-138290148D01*
X99233542Y-138290452D01*
X99453678Y-138199493D01*
X99453548Y-138349542D01*
X99586676Y-138671736D01*
X99832968Y-138918458D01*
X100154928Y-139052148D01*
X100503542Y-139052452D01*
X100825736Y-138919324D01*
X101072458Y-138673032D01*
X101206148Y-138351072D01*
X101206452Y-138002458D01*
X101206452Y-140386600D01*
X96615059Y-140386600D01*
X96615059Y-123628164D01*
X96481931Y-123305970D01*
X96235639Y-123059248D01*
X96126452Y-123013909D01*
X96126452Y-107268458D01*
X96126452Y-105236458D01*
X96126452Y-103204458D01*
X95993324Y-102882264D01*
X95747032Y-102635542D01*
X95425072Y-102501852D01*
X95076458Y-102501548D01*
X94754264Y-102634676D01*
X94507542Y-102880968D01*
X94373852Y-103202928D01*
X94373548Y-103551542D01*
X94506676Y-103873736D01*
X94752968Y-104120458D01*
X95074928Y-104254148D01*
X95423542Y-104254452D01*
X95745736Y-104121324D01*
X95992458Y-103875032D01*
X96126148Y-103553072D01*
X96126452Y-103204458D01*
X96126452Y-105236458D01*
X95993324Y-104914264D01*
X95747032Y-104667542D01*
X95425072Y-104533852D01*
X95076458Y-104533548D01*
X94754264Y-104666676D01*
X94507542Y-104912968D01*
X94373852Y-105234928D01*
X94373548Y-105583542D01*
X94506676Y-105905736D01*
X94752968Y-106152458D01*
X95074928Y-106286148D01*
X95423542Y-106286452D01*
X95745736Y-106153324D01*
X95992458Y-105907032D01*
X96126148Y-105585072D01*
X96126452Y-105236458D01*
X96126452Y-107268458D01*
X95993324Y-106946264D01*
X95747032Y-106699542D01*
X95425072Y-106565852D01*
X95076458Y-106565548D01*
X94754264Y-106698676D01*
X94507542Y-106944968D01*
X94373852Y-107266928D01*
X94373548Y-107615542D01*
X94506676Y-107937736D01*
X94752968Y-108184458D01*
X95074928Y-108318148D01*
X95423542Y-108318452D01*
X95745736Y-108185324D01*
X95992458Y-107939032D01*
X96126148Y-107617072D01*
X96126452Y-107268458D01*
X96126452Y-123013909D01*
X95913679Y-122925558D01*
X95565065Y-122925254D01*
X95242871Y-123058382D01*
X94996149Y-123304674D01*
X94862459Y-123626634D01*
X94862155Y-123975248D01*
X94995283Y-124297442D01*
X95241575Y-124544164D01*
X95563535Y-124677854D01*
X95912149Y-124678158D01*
X96234343Y-124545030D01*
X96481065Y-124298738D01*
X96614755Y-123976778D01*
X96615059Y-123628164D01*
X96615059Y-140386600D01*
X91808452Y-140386600D01*
X91808452Y-93806458D01*
X91675324Y-93484264D01*
X91429032Y-93237542D01*
X91107072Y-93103852D01*
X90758458Y-93103548D01*
X90436264Y-93236676D01*
X90189542Y-93482968D01*
X90055852Y-93804928D01*
X90055548Y-94153542D01*
X90188676Y-94475736D01*
X90434968Y-94722458D01*
X90756928Y-94856148D01*
X91105542Y-94856452D01*
X91427736Y-94723324D01*
X91674458Y-94477032D01*
X91808148Y-94155072D01*
X91808452Y-93806458D01*
X91808452Y-140386600D01*
X90792452Y-140386600D01*
X90792452Y-119714458D01*
X90659324Y-119392264D01*
X90413032Y-119145542D01*
X90091072Y-119011852D01*
X90030452Y-119011799D01*
X90030452Y-112856458D01*
X89897324Y-112534264D01*
X89651032Y-112287542D01*
X89522452Y-112234150D01*
X89522452Y-95838458D01*
X89389324Y-95516264D01*
X89143032Y-95269542D01*
X88821072Y-95135852D01*
X88472458Y-95135548D01*
X88150264Y-95268676D01*
X87903542Y-95514968D01*
X87769852Y-95836928D01*
X87769548Y-96185542D01*
X87902676Y-96507736D01*
X88148968Y-96754458D01*
X88470928Y-96888148D01*
X88819542Y-96888452D01*
X89141736Y-96755324D01*
X89388458Y-96509032D01*
X89522148Y-96187072D01*
X89522452Y-95838458D01*
X89522452Y-112234150D01*
X89329072Y-112153852D01*
X88980458Y-112153548D01*
X88658264Y-112286676D01*
X88411542Y-112532968D01*
X88277852Y-112854928D01*
X88277548Y-113203542D01*
X88410676Y-113525736D01*
X88656968Y-113772458D01*
X88978928Y-113906148D01*
X89327542Y-113906452D01*
X89649736Y-113773324D01*
X89896458Y-113527032D01*
X90030148Y-113205072D01*
X90030452Y-112856458D01*
X90030452Y-119011799D01*
X89742458Y-119011548D01*
X89420264Y-119144676D01*
X89173542Y-119390968D01*
X89039852Y-119712928D01*
X89039548Y-120061542D01*
X89172676Y-120383736D01*
X89418968Y-120630458D01*
X89740928Y-120764148D01*
X90089542Y-120764452D01*
X90411736Y-120631324D01*
X90658458Y-120385032D01*
X90792148Y-120063072D01*
X90792452Y-119714458D01*
X90792452Y-140386600D01*
X87744452Y-140386600D01*
X87744452Y-95838458D01*
X87611324Y-95516264D01*
X87365032Y-95269542D01*
X87043072Y-95135852D01*
X86694458Y-95135548D01*
X86372264Y-95268676D01*
X86125542Y-95514968D01*
X85991852Y-95836928D01*
X85991548Y-96185542D01*
X86124676Y-96507736D01*
X86370968Y-96754458D01*
X86692928Y-96888148D01*
X87041542Y-96888452D01*
X87363736Y-96755324D01*
X87610458Y-96509032D01*
X87744148Y-96187072D01*
X87744452Y-95838458D01*
X87744452Y-140386600D01*
X87490452Y-140386600D01*
X87490452Y-112348458D01*
X87490452Y-110570458D01*
X87490452Y-108792458D01*
X87357324Y-108470264D01*
X87111032Y-108223542D01*
X86789072Y-108089852D01*
X86440458Y-108089548D01*
X86118264Y-108222676D01*
X85966452Y-108374223D01*
X85966452Y-95838458D01*
X85833324Y-95516264D01*
X85587032Y-95269542D01*
X85265072Y-95135852D01*
X84916458Y-95135548D01*
X84594264Y-95268676D01*
X84347542Y-95514968D01*
X84213852Y-95836928D01*
X84213548Y-96185542D01*
X84346676Y-96507736D01*
X84592968Y-96754458D01*
X84914928Y-96888148D01*
X85263542Y-96888452D01*
X85585736Y-96755324D01*
X85832458Y-96509032D01*
X85966148Y-96187072D01*
X85966452Y-95838458D01*
X85966452Y-108374223D01*
X85871542Y-108468968D01*
X85737852Y-108790928D01*
X85737548Y-109139542D01*
X85870676Y-109461736D01*
X86116968Y-109708458D01*
X86438928Y-109842148D01*
X86787542Y-109842452D01*
X87109736Y-109709324D01*
X87356458Y-109463032D01*
X87490148Y-109141072D01*
X87490452Y-108792458D01*
X87490452Y-110570458D01*
X87357324Y-110248264D01*
X87111032Y-110001542D01*
X86789072Y-109867852D01*
X86440458Y-109867548D01*
X86118264Y-110000676D01*
X85871542Y-110246968D01*
X85737852Y-110568928D01*
X85737548Y-110917542D01*
X85870676Y-111239736D01*
X86116968Y-111486458D01*
X86438928Y-111620148D01*
X86787542Y-111620452D01*
X87109736Y-111487324D01*
X87356458Y-111241032D01*
X87490148Y-110919072D01*
X87490452Y-110570458D01*
X87490452Y-112348458D01*
X87357324Y-112026264D01*
X87111032Y-111779542D01*
X86789072Y-111645852D01*
X86440458Y-111645548D01*
X86118264Y-111778676D01*
X85871542Y-112024968D01*
X85737852Y-112346928D01*
X85737548Y-112695542D01*
X85870676Y-113017736D01*
X86116968Y-113264458D01*
X86438928Y-113398148D01*
X86787542Y-113398452D01*
X87109736Y-113265324D01*
X87356458Y-113019032D01*
X87490148Y-112697072D01*
X87490452Y-112348458D01*
X87490452Y-140386600D01*
X84442452Y-140386600D01*
X84442452Y-134065458D01*
X84309324Y-133743264D01*
X84063032Y-133496542D01*
X83741072Y-133362852D01*
X83392458Y-133362548D01*
X83070264Y-133495676D01*
X82823542Y-133741968D01*
X82689852Y-134063928D01*
X82689548Y-134412542D01*
X82822676Y-134734736D01*
X83068968Y-134981458D01*
X83390928Y-135115148D01*
X83739542Y-135115452D01*
X84061736Y-134982324D01*
X84308458Y-134736032D01*
X84442148Y-134414072D01*
X84442452Y-134065458D01*
X84442452Y-140386600D01*
X83794600Y-140386600D01*
X83794600Y-139140785D01*
X83794600Y-138989214D01*
X83794600Y-138271250D01*
X83794600Y-137826750D01*
X83794600Y-137108786D01*
X83794600Y-136957215D01*
X83736596Y-136817181D01*
X83629420Y-136710004D01*
X83489386Y-136652000D01*
X82772250Y-136652000D01*
X82677000Y-136747250D01*
X82677000Y-137922000D01*
X83699350Y-137922000D01*
X83794600Y-137826750D01*
X83794600Y-138271250D01*
X83699350Y-138176000D01*
X82677000Y-138176000D01*
X82677000Y-139350750D01*
X82772250Y-139446000D01*
X83489386Y-139446000D01*
X83629420Y-139387996D01*
X83736596Y-139280819D01*
X83794600Y-139140785D01*
X83794600Y-140386600D01*
X82423000Y-140386600D01*
X82423000Y-139350750D01*
X82423000Y-138176000D01*
X82403000Y-138176000D01*
X82403000Y-137922000D01*
X82423000Y-137922000D01*
X82423000Y-136747250D01*
X82327750Y-136652000D01*
X81610614Y-136652000D01*
X81470580Y-136710004D01*
X81363404Y-136817181D01*
X81305400Y-136957215D01*
X81305400Y-137108786D01*
X81305400Y-137355465D01*
X81300660Y-137331636D01*
X80997828Y-136878417D01*
X80544609Y-136575585D01*
X80010000Y-136469245D01*
X79475391Y-136575585D01*
X79022172Y-136878417D01*
X78740000Y-137300716D01*
X78457828Y-136878417D01*
X78004609Y-136575585D01*
X77470000Y-136469245D01*
X77241932Y-136514610D01*
X77241932Y-131725345D01*
X76775021Y-130595333D01*
X76060452Y-129879516D01*
X76060452Y-125683458D01*
X75927324Y-125361264D01*
X75681032Y-125114542D01*
X75359072Y-124980852D01*
X75010458Y-124980548D01*
X74815129Y-125061256D01*
X74815129Y-120908609D01*
X74682001Y-120586415D01*
X74679391Y-120583801D01*
X74790148Y-120317072D01*
X74790452Y-119968458D01*
X74657324Y-119646264D01*
X74411032Y-119399542D01*
X74089072Y-119265852D01*
X73774452Y-119265577D01*
X73774452Y-115142458D01*
X73774452Y-112983458D01*
X73641324Y-112661264D01*
X73395032Y-112414542D01*
X73073072Y-112280852D01*
X72724458Y-112280548D01*
X72504452Y-112371452D01*
X72504452Y-98632458D01*
X72371324Y-98310264D01*
X72125032Y-98063542D01*
X71803072Y-97929852D01*
X71454458Y-97929548D01*
X71132264Y-98062676D01*
X70885542Y-98308968D01*
X70751852Y-98630928D01*
X70751548Y-98979542D01*
X70884676Y-99301736D01*
X71130968Y-99548458D01*
X71452928Y-99682148D01*
X71801542Y-99682452D01*
X72123736Y-99549324D01*
X72370458Y-99303032D01*
X72504148Y-98981072D01*
X72504452Y-98632458D01*
X72504452Y-112371452D01*
X72402264Y-112413676D01*
X72155542Y-112659968D01*
X72021852Y-112981928D01*
X72021548Y-113330542D01*
X72154676Y-113652736D01*
X72400968Y-113899458D01*
X72722928Y-114033148D01*
X73071542Y-114033452D01*
X73393736Y-113900324D01*
X73640458Y-113654032D01*
X73774148Y-113332072D01*
X73774452Y-112983458D01*
X73774452Y-115142458D01*
X73641324Y-114820264D01*
X73395032Y-114573542D01*
X73073072Y-114439852D01*
X72724458Y-114439548D01*
X72402264Y-114572676D01*
X72155542Y-114818968D01*
X72021852Y-115140928D01*
X72021548Y-115489542D01*
X72154676Y-115811736D01*
X72400968Y-116058458D01*
X72722928Y-116192148D01*
X73071542Y-116192452D01*
X73393736Y-116059324D01*
X73640458Y-115813032D01*
X73774148Y-115491072D01*
X73774452Y-115142458D01*
X73774452Y-119265577D01*
X73740458Y-119265548D01*
X73418264Y-119398676D01*
X73171542Y-119644968D01*
X73037852Y-119966928D01*
X73037548Y-120315542D01*
X73170676Y-120637736D01*
X73173285Y-120640349D01*
X73062529Y-120907079D01*
X73062225Y-121255693D01*
X73195353Y-121577887D01*
X73441645Y-121824609D01*
X73567673Y-121876940D01*
X73418264Y-121938676D01*
X73171542Y-122184968D01*
X73037852Y-122506928D01*
X73037548Y-122855542D01*
X73170676Y-123177736D01*
X73309724Y-123317026D01*
X73171542Y-123454968D01*
X73037852Y-123776928D01*
X73037548Y-124125542D01*
X73143619Y-124382255D01*
X72910264Y-124478676D01*
X72663542Y-124724968D01*
X72529852Y-125046928D01*
X72529548Y-125395542D01*
X72662676Y-125717736D01*
X72908968Y-125964458D01*
X73230928Y-126098148D01*
X73579542Y-126098452D01*
X73901736Y-125965324D01*
X74148458Y-125719032D01*
X74282148Y-125397072D01*
X74282452Y-125048458D01*
X74176380Y-124791744D01*
X74409736Y-124695324D01*
X74656458Y-124449032D01*
X74790148Y-124127072D01*
X74790452Y-123778458D01*
X74657324Y-123456264D01*
X74518275Y-123316973D01*
X74656458Y-123179032D01*
X74790148Y-122857072D01*
X74790452Y-122508458D01*
X74657324Y-122186264D01*
X74411032Y-121939542D01*
X74285003Y-121887210D01*
X74434413Y-121825475D01*
X74681135Y-121579183D01*
X74814825Y-121257223D01*
X74815129Y-120908609D01*
X74815129Y-125061256D01*
X74688264Y-125113676D01*
X74441542Y-125359968D01*
X74307852Y-125681928D01*
X74307548Y-126030542D01*
X74440676Y-126352736D01*
X74686968Y-126599458D01*
X75008928Y-126733148D01*
X75357542Y-126733452D01*
X75679736Y-126600324D01*
X75926458Y-126354032D01*
X76060148Y-126032072D01*
X76060452Y-125683458D01*
X76060452Y-129879516D01*
X75911214Y-129730018D01*
X74782019Y-129261135D01*
X73559345Y-129260068D01*
X72429333Y-129726979D01*
X71564018Y-130590786D01*
X71234452Y-131384468D01*
X71234452Y-111840458D01*
X71101324Y-111518264D01*
X70855032Y-111271542D01*
X70533072Y-111137852D01*
X70184458Y-111137548D01*
X69862264Y-111270676D01*
X69615542Y-111516968D01*
X69481852Y-111838928D01*
X69481548Y-112187542D01*
X69614676Y-112509736D01*
X69860968Y-112756458D01*
X70182928Y-112890148D01*
X70531542Y-112890452D01*
X70853736Y-112757324D01*
X71100458Y-112511032D01*
X71234148Y-112189072D01*
X71234452Y-111840458D01*
X71234452Y-131384468D01*
X71095135Y-131719981D01*
X71094068Y-132942655D01*
X71560979Y-134072667D01*
X72424786Y-134937982D01*
X73553981Y-135406865D01*
X74776655Y-135407932D01*
X75906667Y-134941021D01*
X76771982Y-134077214D01*
X77240865Y-132948019D01*
X77241932Y-131725345D01*
X77241932Y-136514610D01*
X76935391Y-136575585D01*
X76482172Y-136878417D01*
X76200000Y-137300716D01*
X75917828Y-136878417D01*
X75464609Y-136575585D01*
X74930000Y-136469245D01*
X74395391Y-136575585D01*
X73942172Y-136878417D01*
X73660000Y-137300716D01*
X73377828Y-136878417D01*
X72924609Y-136575585D01*
X72390000Y-136469245D01*
X71855391Y-136575585D01*
X71402172Y-136878417D01*
X71120000Y-137300716D01*
X70837828Y-136878417D01*
X70384609Y-136575585D01*
X69850000Y-136469245D01*
X69315391Y-136575585D01*
X68862172Y-136878417D01*
X68559340Y-137331636D01*
X68504027Y-137609712D01*
X68440452Y-137425931D01*
X68440452Y-98632458D01*
X68307324Y-98310264D01*
X68061032Y-98063542D01*
X68024110Y-98048210D01*
X68024110Y-88477463D01*
X67699973Y-87692991D01*
X67100305Y-87092276D01*
X66316401Y-86766771D01*
X65467603Y-86766030D01*
X64683131Y-87090167D01*
X64082416Y-87689835D01*
X63756911Y-88473739D01*
X63756170Y-89322537D01*
X64080307Y-90107009D01*
X64679975Y-90707724D01*
X65463879Y-91033229D01*
X66312677Y-91033970D01*
X67097149Y-90709833D01*
X67697864Y-90110165D01*
X68023369Y-89326261D01*
X68024110Y-88477463D01*
X68024110Y-98048210D01*
X67739072Y-97929852D01*
X67390458Y-97929548D01*
X67068264Y-98062676D01*
X66821542Y-98308968D01*
X66687852Y-98630928D01*
X66687548Y-98979542D01*
X66820676Y-99301736D01*
X67066968Y-99548458D01*
X67388928Y-99682148D01*
X67737542Y-99682452D01*
X68059736Y-99549324D01*
X68306458Y-99303032D01*
X68440148Y-98981072D01*
X68440452Y-98632458D01*
X68440452Y-137425931D01*
X68385570Y-137267280D01*
X68062867Y-136903581D01*
X67932452Y-136840448D01*
X67932452Y-131906458D01*
X67799324Y-131584264D01*
X67678452Y-131463180D01*
X67678452Y-125556458D01*
X67545324Y-125234264D01*
X67401327Y-125090015D01*
X67401327Y-115119333D01*
X67268199Y-114797139D01*
X67021907Y-114550417D01*
X66699947Y-114416727D01*
X66351333Y-114416423D01*
X66029139Y-114549551D01*
X65900452Y-114678013D01*
X65900452Y-102188458D01*
X65767324Y-101866264D01*
X65521032Y-101619542D01*
X65199072Y-101485852D01*
X64880363Y-101485574D01*
X64880363Y-93946139D01*
X64861730Y-93158189D01*
X64596041Y-92516760D01*
X64338251Y-92330754D01*
X64158646Y-92510359D01*
X64158646Y-92151149D01*
X63972640Y-91893359D01*
X63237539Y-91609037D01*
X62449589Y-91627670D01*
X61880623Y-91863343D01*
X61880623Y-89247139D01*
X61861990Y-88459189D01*
X61596301Y-87817760D01*
X61338511Y-87631754D01*
X61158906Y-87811359D01*
X61158906Y-87452149D01*
X60972900Y-87194359D01*
X60237799Y-86910037D01*
X59449849Y-86928670D01*
X58808420Y-87194359D01*
X58622414Y-87452149D01*
X59890660Y-88720395D01*
X61158906Y-87452149D01*
X61158906Y-87811359D01*
X60070265Y-88900000D01*
X61338511Y-90168246D01*
X61596301Y-89982240D01*
X61880623Y-89247139D01*
X61880623Y-91863343D01*
X61808160Y-91893359D01*
X61622154Y-92151149D01*
X62890400Y-93419395D01*
X64158646Y-92151149D01*
X64158646Y-92510359D01*
X63070005Y-93599000D01*
X64338251Y-94867246D01*
X64596041Y-94681240D01*
X64880363Y-93946139D01*
X64880363Y-101485574D01*
X64850458Y-101485548D01*
X64528264Y-101618676D01*
X64281542Y-101864968D01*
X64158646Y-102160933D01*
X64158646Y-95046851D01*
X62890400Y-93778605D01*
X62710795Y-93958210D01*
X62710795Y-93599000D01*
X61442549Y-92330754D01*
X61184759Y-92516760D01*
X61158906Y-92583601D01*
X61158906Y-90347851D01*
X59890660Y-89079605D01*
X59711055Y-89259210D01*
X59711055Y-88900000D01*
X58442809Y-87631754D01*
X58185019Y-87817760D01*
X57900697Y-88552861D01*
X57919330Y-89340811D01*
X58185019Y-89982240D01*
X58442809Y-90168246D01*
X59711055Y-88900000D01*
X59711055Y-89259210D01*
X58622414Y-90347851D01*
X58808420Y-90605641D01*
X59543521Y-90889963D01*
X60331471Y-90871330D01*
X60972900Y-90605641D01*
X61158906Y-90347851D01*
X61158906Y-92583601D01*
X60900437Y-93251861D01*
X60919070Y-94039811D01*
X61184759Y-94681240D01*
X61442549Y-94867246D01*
X62710795Y-93599000D01*
X62710795Y-93958210D01*
X61622154Y-95046851D01*
X61808160Y-95304641D01*
X62543261Y-95588963D01*
X63331211Y-95570330D01*
X63972640Y-95304641D01*
X64158646Y-95046851D01*
X64158646Y-102160933D01*
X64147852Y-102186928D01*
X64147548Y-102535542D01*
X64280676Y-102857736D01*
X64526968Y-103104458D01*
X64848928Y-103238148D01*
X65197542Y-103238452D01*
X65519736Y-103105324D01*
X65766458Y-102859032D01*
X65900148Y-102537072D01*
X65900452Y-102188458D01*
X65900452Y-114678013D01*
X65782417Y-114795843D01*
X65648727Y-115117803D01*
X65648423Y-115466417D01*
X65781551Y-115788611D01*
X66027843Y-116035333D01*
X66349803Y-116169023D01*
X66698417Y-116169327D01*
X67020611Y-116036199D01*
X67267333Y-115789907D01*
X67401023Y-115467947D01*
X67401327Y-115119333D01*
X67401327Y-125090015D01*
X67299032Y-124987542D01*
X66977072Y-124853852D01*
X66628458Y-124853548D01*
X66306264Y-124986676D01*
X66059542Y-125232968D01*
X65925852Y-125554928D01*
X65925548Y-125903542D01*
X66058676Y-126225736D01*
X66304968Y-126472458D01*
X66626928Y-126606148D01*
X66975542Y-126606452D01*
X67297736Y-126473324D01*
X67544458Y-126227032D01*
X67678148Y-125905072D01*
X67678452Y-125556458D01*
X67678452Y-131463180D01*
X67553032Y-131337542D01*
X67231072Y-131203852D01*
X66882458Y-131203548D01*
X66560264Y-131336676D01*
X66313542Y-131582968D01*
X66179852Y-131904928D01*
X66179548Y-132253542D01*
X66312676Y-132575736D01*
X66558968Y-132822458D01*
X66880928Y-132956148D01*
X67229542Y-132956452D01*
X67551736Y-132823324D01*
X67798458Y-132577032D01*
X67932148Y-132255072D01*
X67932452Y-131906458D01*
X67932452Y-136840448D01*
X67629118Y-136693607D01*
X67437000Y-136754288D01*
X67437000Y-137922000D01*
X67457000Y-137922000D01*
X67457000Y-138176000D01*
X67437000Y-138176000D01*
X67437000Y-139343712D01*
X67629118Y-139404393D01*
X68062867Y-139194419D01*
X68385570Y-138830720D01*
X68504027Y-138488287D01*
X68559340Y-138766364D01*
X68862172Y-139219583D01*
X69315391Y-139522415D01*
X69850000Y-139628755D01*
X70384609Y-139522415D01*
X70837828Y-139219583D01*
X71120000Y-138797283D01*
X71402172Y-139219583D01*
X71855391Y-139522415D01*
X72390000Y-139628755D01*
X72924609Y-139522415D01*
X73377828Y-139219583D01*
X73660000Y-138797283D01*
X73942172Y-139219583D01*
X74395391Y-139522415D01*
X74930000Y-139628755D01*
X75464609Y-139522415D01*
X75917828Y-139219583D01*
X76200000Y-138797283D01*
X76482172Y-139219583D01*
X76935391Y-139522415D01*
X77470000Y-139628755D01*
X78004609Y-139522415D01*
X78457828Y-139219583D01*
X78740000Y-138797283D01*
X79022172Y-139219583D01*
X79475391Y-139522415D01*
X80010000Y-139628755D01*
X80544609Y-139522415D01*
X80997828Y-139219583D01*
X81300660Y-138766364D01*
X81305400Y-138742534D01*
X81305400Y-138989214D01*
X81305400Y-139140785D01*
X81363404Y-139280819D01*
X81470580Y-139387996D01*
X81610614Y-139446000D01*
X82327750Y-139446000D01*
X82423000Y-139350750D01*
X82423000Y-140386600D01*
X67183000Y-140386600D01*
X67183000Y-139343712D01*
X67183000Y-138176000D01*
X67163000Y-138176000D01*
X67163000Y-137922000D01*
X67183000Y-137922000D01*
X67183000Y-136754288D01*
X66990882Y-136693607D01*
X66557133Y-136903581D01*
X66234430Y-137267280D01*
X66115972Y-137609712D01*
X66060660Y-137331636D01*
X65757828Y-136878417D01*
X65304609Y-136575585D01*
X64770000Y-136469245D01*
X64235391Y-136575585D01*
X64122452Y-136651048D01*
X64122452Y-122254458D01*
X63989324Y-121932264D01*
X63868452Y-121811180D01*
X63868452Y-113618458D01*
X63735324Y-113296264D01*
X63489032Y-113049542D01*
X63167072Y-112915852D01*
X62818458Y-112915548D01*
X62496264Y-113048676D01*
X62249542Y-113294968D01*
X62115852Y-113616928D01*
X62115548Y-113965542D01*
X62248676Y-114287736D01*
X62494968Y-114534458D01*
X62816928Y-114668148D01*
X63165542Y-114668452D01*
X63487736Y-114535324D01*
X63734458Y-114289032D01*
X63868148Y-113967072D01*
X63868452Y-113618458D01*
X63868452Y-121811180D01*
X63743032Y-121685542D01*
X63421072Y-121551852D01*
X63072458Y-121551548D01*
X62750264Y-121684676D01*
X62503542Y-121930968D01*
X62484117Y-121977747D01*
X62465324Y-121932264D01*
X62219032Y-121685542D01*
X61897072Y-121551852D01*
X61548458Y-121551548D01*
X61226264Y-121684676D01*
X61074452Y-121836223D01*
X61074452Y-115142458D01*
X60941324Y-114820264D01*
X60695032Y-114573542D01*
X60373072Y-114439852D01*
X60024458Y-114439548D01*
X59702264Y-114572676D01*
X59455542Y-114818968D01*
X59321852Y-115140928D01*
X59321548Y-115489542D01*
X59454676Y-115811736D01*
X59700968Y-116058458D01*
X60022928Y-116192148D01*
X60371542Y-116192452D01*
X60693736Y-116059324D01*
X60940458Y-115813032D01*
X61074148Y-115491072D01*
X61074452Y-115142458D01*
X61074452Y-121836223D01*
X60979542Y-121930968D01*
X60845852Y-122252928D01*
X60845548Y-122601542D01*
X60978676Y-122923736D01*
X61224968Y-123170458D01*
X61546928Y-123304148D01*
X61895542Y-123304452D01*
X62217736Y-123171324D01*
X62464458Y-122925032D01*
X62483882Y-122878252D01*
X62502676Y-122923736D01*
X62748968Y-123170458D01*
X63070928Y-123304148D01*
X63419542Y-123304452D01*
X63741736Y-123171324D01*
X63988458Y-122925032D01*
X64122148Y-122603072D01*
X64122452Y-122254458D01*
X64122452Y-136651048D01*
X63782172Y-136878417D01*
X63500000Y-137300716D01*
X63217828Y-136878417D01*
X62764609Y-136575585D01*
X62230000Y-136469245D01*
X61695391Y-136575585D01*
X61242172Y-136878417D01*
X61074452Y-137129426D01*
X61074452Y-131906458D01*
X61074452Y-123778458D01*
X60941324Y-123456264D01*
X60695032Y-123209542D01*
X60373072Y-123075852D01*
X60024458Y-123075548D01*
X59702264Y-123208676D01*
X59455542Y-123454968D01*
X59321852Y-123776928D01*
X59321548Y-124125542D01*
X59454676Y-124447736D01*
X59700968Y-124694458D01*
X60022928Y-124828148D01*
X60371542Y-124828452D01*
X60693736Y-124695324D01*
X60940458Y-124449032D01*
X61074148Y-124127072D01*
X61074452Y-123778458D01*
X61074452Y-131906458D01*
X60941324Y-131584264D01*
X60695032Y-131337542D01*
X60373072Y-131203852D01*
X60024458Y-131203548D01*
X59702264Y-131336676D01*
X59455542Y-131582968D01*
X59321852Y-131904928D01*
X59321548Y-132253542D01*
X59454676Y-132575736D01*
X59700968Y-132822458D01*
X60022928Y-132956148D01*
X60371542Y-132956452D01*
X60693736Y-132823324D01*
X60940458Y-132577032D01*
X61074148Y-132255072D01*
X61074452Y-131906458D01*
X61074452Y-137129426D01*
X60960000Y-137300716D01*
X60677828Y-136878417D01*
X60224609Y-136575585D01*
X59690000Y-136469245D01*
X59155391Y-136575585D01*
X58702172Y-136878417D01*
X58399340Y-137331636D01*
X58293000Y-137866245D01*
X58293000Y-138231755D01*
X58399340Y-138766364D01*
X58702172Y-139219583D01*
X59155391Y-139522415D01*
X59690000Y-139628755D01*
X60224609Y-139522415D01*
X60677828Y-139219583D01*
X60960000Y-138797283D01*
X61242172Y-139219583D01*
X61695391Y-139522415D01*
X62230000Y-139628755D01*
X62764609Y-139522415D01*
X63217828Y-139219583D01*
X63500000Y-138797283D01*
X63782172Y-139219583D01*
X64235391Y-139522415D01*
X64770000Y-139628755D01*
X65304609Y-139522415D01*
X65757828Y-139219583D01*
X66060660Y-138766364D01*
X66115972Y-138488287D01*
X66234430Y-138830720D01*
X66557133Y-139194419D01*
X66990882Y-139404393D01*
X67183000Y-139343712D01*
X67183000Y-140386600D01*
X59112459Y-140386600D01*
X58067611Y-140178767D01*
X57230543Y-139619456D01*
X56671232Y-138782388D01*
X56463400Y-137737541D01*
X56463400Y-100167897D01*
X56828979Y-101052667D01*
X57692786Y-101917982D01*
X58821981Y-102386865D01*
X60044655Y-102387932D01*
X61174667Y-101921021D01*
X62039982Y-101057214D01*
X62508865Y-99928019D01*
X62509932Y-98705345D01*
X62043021Y-97575333D01*
X61179214Y-96710018D01*
X60050019Y-96241135D01*
X58827345Y-96240068D01*
X57697333Y-96706979D01*
X56832018Y-97570786D01*
X56463400Y-98458516D01*
X56463400Y-85782458D01*
X56671232Y-84737611D01*
X57230543Y-83900543D01*
X58067611Y-83341232D01*
X59112459Y-83133400D01*
X133627441Y-83133400D01*
X133032018Y-83727786D01*
X132563135Y-84856981D01*
X132562068Y-86079655D01*
X133028979Y-87209667D01*
X133892786Y-88074982D01*
X135021981Y-88543865D01*
X136244655Y-88544932D01*
X137374667Y-88078021D01*
X137795000Y-87658420D01*
X137795000Y-135861973D01*
M02*
