G04 #@! TF.FileFunction,Soldermask,Bot*
%FSLAX46Y46*%
G04 Gerber Fmt 4.6, Leading zero omitted, Abs format (unit mm)*
G04 Created by KiCad (PCBNEW (2015-02-20 BZR 5437)-product) date Monday, March 16, 2015 'AMt' 09:24:06 AM*
%MOMM*%
G01*
G04 APERTURE LIST*
%ADD10C,0.100000*%
%ADD11R,1.727200X2.032000*%
%ADD12O,1.727200X2.032000*%
%ADD13C,5.080000*%
%ADD14R,1.200000X0.900000*%
%ADD15C,1.524000*%
%ADD16C,2.700020*%
%ADD17C,3.200400*%
%ADD18R,2.032000X2.032000*%
%ADD19O,2.032000X2.032000*%
%ADD20R,1.998980X0.690880*%
%ADD21R,2.000000X1.400000*%
%ADD22R,1.400000X2.000000*%
%ADD23R,0.750000X1.200000*%
%ADD24R,1.200000X0.750000*%
%ADD25R,0.900000X1.200000*%
G04 APERTURE END LIST*
D10*
D11*
X82550000Y-138049000D03*
D12*
X80010000Y-138049000D03*
X77470000Y-138049000D03*
X74930000Y-138049000D03*
X72390000Y-138049000D03*
X69850000Y-138049000D03*
X67310000Y-138049000D03*
X64770000Y-138049000D03*
X62230000Y-138049000D03*
X59690000Y-138049000D03*
D13*
X74168000Y-132334000D03*
X59436000Y-99314000D03*
D14*
X71204000Y-119380000D03*
X69004000Y-119380000D03*
X69680000Y-127000000D03*
X67480000Y-127000000D03*
D13*
X135382000Y-137795000D03*
D15*
X131191000Y-107950000D03*
X131191000Y-110490000D03*
X133189980Y-110490000D03*
X133189980Y-107950000D03*
D16*
X135890000Y-103220520D03*
X135890000Y-115219480D03*
D17*
X65890140Y-88900000D03*
X59890660Y-88900000D03*
X62890400Y-93599000D03*
D18*
X123698000Y-135382000D03*
D19*
X126238000Y-135382000D03*
D20*
X115293140Y-114487960D03*
X115293140Y-113538000D03*
X115293140Y-112588040D03*
X118894860Y-112588040D03*
X118894860Y-113538000D03*
X118894860Y-114487960D03*
X111610140Y-121218960D03*
X111610140Y-120269000D03*
X111610140Y-119319040D03*
X115211860Y-119319040D03*
X115211860Y-120269000D03*
X115211860Y-121218960D03*
D14*
X69004000Y-114427000D03*
X71204000Y-114427000D03*
D21*
X111527000Y-110744000D03*
X107167000Y-110744000D03*
D22*
X122047000Y-110596000D03*
X122047000Y-114956000D03*
D21*
X109580000Y-123190000D03*
X113940000Y-123190000D03*
X108606000Y-117348000D03*
X104246000Y-117348000D03*
D23*
X65532000Y-125288000D03*
X65532000Y-127188000D03*
D24*
X69530000Y-130556000D03*
X67630000Y-130556000D03*
X75377000Y-124333000D03*
X77277000Y-124333000D03*
X75377000Y-122555000D03*
X77277000Y-122555000D03*
X89088000Y-118364000D03*
X87188000Y-118364000D03*
X89088000Y-114554000D03*
X87188000Y-114554000D03*
D25*
X63500000Y-97706000D03*
X63500000Y-99906000D03*
X63500000Y-102278000D03*
X63500000Y-104478000D03*
D14*
X67988000Y-92202000D03*
X70188000Y-92202000D03*
X69004000Y-117729000D03*
X71204000Y-117729000D03*
X69004000Y-116078000D03*
X71204000Y-116078000D03*
D25*
X71628000Y-94658000D03*
X71628000Y-96858000D03*
X67564000Y-94658000D03*
X67564000Y-96858000D03*
D14*
X111168000Y-136906000D03*
X113368000Y-136906000D03*
X111168000Y-138938000D03*
X113368000Y-138938000D03*
D25*
X115824000Y-136822000D03*
X115824000Y-139022000D03*
D14*
X110574000Y-112649000D03*
X108374000Y-112649000D03*
X115994000Y-111125000D03*
X118194000Y-111125000D03*
X112565000Y-117602000D03*
X114765000Y-117602000D03*
X107907000Y-119380000D03*
X105707000Y-119380000D03*
D25*
X58420000Y-108374000D03*
X58420000Y-110574000D03*
X58420000Y-112438000D03*
X58420000Y-114638000D03*
X63754000Y-125138000D03*
X63754000Y-127338000D03*
D14*
X71204000Y-124333000D03*
X69004000Y-124333000D03*
X82126000Y-134112000D03*
X79926000Y-134112000D03*
X79926000Y-132842000D03*
X82126000Y-132842000D03*
D25*
X61722000Y-127338000D03*
X61722000Y-125138000D03*
D14*
X67480000Y-128778000D03*
X69680000Y-128778000D03*
X69004000Y-122682000D03*
X71204000Y-122682000D03*
X69004000Y-121031000D03*
X71204000Y-121031000D03*
D24*
X64582000Y-109474000D03*
X66482000Y-109474000D03*
X97856000Y-131064000D03*
X99756000Y-131064000D03*
D23*
X89916000Y-121478000D03*
X89916000Y-123378000D03*
D24*
X129474000Y-130048000D03*
X127574000Y-130048000D03*
D23*
X123952000Y-105984000D03*
X123952000Y-107884000D03*
D24*
X129474000Y-127254000D03*
X127574000Y-127254000D03*
X129474000Y-123952000D03*
X127574000Y-123952000D03*
X129474000Y-120904000D03*
X127574000Y-120904000D03*
X102804000Y-84836000D03*
X100904000Y-84836000D03*
D23*
X122174000Y-105984000D03*
X122174000Y-107884000D03*
X111252000Y-87188000D03*
X111252000Y-89088000D03*
X75184000Y-88712000D03*
X75184000Y-90612000D03*
X115316000Y-87188000D03*
X115316000Y-89088000D03*
X97790000Y-94046000D03*
X97790000Y-95946000D03*
D24*
X102804000Y-86614000D03*
X100904000Y-86614000D03*
X65212000Y-85090000D03*
X63312000Y-85090000D03*
D23*
X124968000Y-112456000D03*
X124968000Y-110556000D03*
D24*
X116398000Y-116078000D03*
X118298000Y-116078000D03*
D23*
X122936000Y-125034000D03*
X122936000Y-126934000D03*
X118110000Y-121346000D03*
X118110000Y-119446000D03*
X112776000Y-127696000D03*
X112776000Y-125796000D03*
D13*
X135636000Y-85471000D03*
D23*
X96012000Y-94046000D03*
X96012000Y-95946000D03*
X74168000Y-94681000D03*
X74168000Y-96581000D03*
M02*
