G04 #@! TF.FileFunction,Copper,L1,Top,Signal*
%FSLAX46Y46*%
G04 Gerber Fmt 4.6, Leading zero omitted, Abs format (unit mm)*
G04 Created by KiCad (PCBNEW (2015-02-20 BZR 5437)-product) date Monday, March 16, 2015 'AMt' 09:24:06 AM*
%MOMM*%
G01*
G04 APERTURE LIST*
%ADD10C,0.100000*%
%ADD11C,0.152400*%
%ADD12R,1.727200X2.032000*%
%ADD13O,1.727200X2.032000*%
%ADD14C,5.080000*%
%ADD15R,1.200000X0.750000*%
%ADD16R,2.700020X4.000500*%
%ADD17C,1.524000*%
%ADD18C,2.700020*%
%ADD19R,0.600000X1.550000*%
%ADD20C,3.200400*%
%ADD21R,2.032000X2.032000*%
%ADD22O,2.032000X2.032000*%
%ADD23R,1.998980X0.690880*%
%ADD24R,0.690880X1.998980*%
%ADD25R,4.000500X2.700020*%
%ADD26R,5.300980X1.501140*%
%ADD27R,2.000000X1.400000*%
%ADD28R,1.400000X2.000000*%
%ADD29R,1.200000X0.900000*%
%ADD30R,1.100000X0.400000*%
%ADD31R,2.000000X0.600000*%
%ADD32R,0.750000X1.200000*%
%ADD33R,0.900000X1.200000*%
%ADD34C,0.685800*%
%ADD35C,0.889000*%
%ADD36C,0.254000*%
%ADD37C,0.304800*%
G04 APERTURE END LIST*
D10*
D11*
X133202438Y-134021285D02*
X133250819Y-133876142D01*
X133250819Y-133634238D01*
X133202438Y-133537476D01*
X133154057Y-133489095D01*
X133057295Y-133440714D01*
X132960533Y-133440714D01*
X132863771Y-133489095D01*
X132815390Y-133537476D01*
X132767010Y-133634238D01*
X132718629Y-133827761D01*
X132670248Y-133924523D01*
X132621867Y-133972904D01*
X132525105Y-134021285D01*
X132428343Y-134021285D01*
X132331581Y-133972904D01*
X132283200Y-133924523D01*
X132234819Y-133827761D01*
X132234819Y-133585857D01*
X132283200Y-133440714D01*
X132234819Y-132811761D02*
X132234819Y-132618238D01*
X132283200Y-132521476D01*
X132379962Y-132424714D01*
X132573486Y-132376333D01*
X132912152Y-132376333D01*
X133105676Y-132424714D01*
X133202438Y-132521476D01*
X133250819Y-132618238D01*
X133250819Y-132811761D01*
X133202438Y-132908523D01*
X133105676Y-133005285D01*
X132912152Y-133053666D01*
X132573486Y-133053666D01*
X132379962Y-133005285D01*
X132283200Y-132908523D01*
X132234819Y-132811761D01*
X133250819Y-131457095D02*
X133250819Y-131940904D01*
X132234819Y-131940904D01*
X132960533Y-131166809D02*
X132960533Y-130683000D01*
X133250819Y-131263571D02*
X132234819Y-130924904D01*
X133250819Y-130586238D01*
X133250819Y-129667000D02*
X132767010Y-130005666D01*
X133250819Y-130247571D02*
X132234819Y-130247571D01*
X132234819Y-129860524D01*
X132283200Y-129763762D01*
X132331581Y-129715381D01*
X132428343Y-129667000D01*
X132573486Y-129667000D01*
X132670248Y-129715381D01*
X132718629Y-129763762D01*
X132767010Y-129860524D01*
X132767010Y-130247571D01*
X133154057Y-127876905D02*
X133202438Y-127925286D01*
X133250819Y-128070429D01*
X133250819Y-128167191D01*
X133202438Y-128312333D01*
X133105676Y-128409095D01*
X133008914Y-128457476D01*
X132815390Y-128505857D01*
X132670248Y-128505857D01*
X132476724Y-128457476D01*
X132379962Y-128409095D01*
X132283200Y-128312333D01*
X132234819Y-128167191D01*
X132234819Y-128070429D01*
X132283200Y-127925286D01*
X132331581Y-127876905D01*
X132234819Y-127247952D02*
X132234819Y-127054429D01*
X132283200Y-126957667D01*
X132379962Y-126860905D01*
X132573486Y-126812524D01*
X132912152Y-126812524D01*
X133105676Y-126860905D01*
X133202438Y-126957667D01*
X133250819Y-127054429D01*
X133250819Y-127247952D01*
X133202438Y-127344714D01*
X133105676Y-127441476D01*
X132912152Y-127489857D01*
X132573486Y-127489857D01*
X132379962Y-127441476D01*
X132283200Y-127344714D01*
X132234819Y-127247952D01*
X133250819Y-126377095D02*
X132234819Y-126377095D01*
X133250819Y-125796524D01*
X132234819Y-125796524D01*
X132234819Y-125457857D02*
X133250819Y-125119190D01*
X132234819Y-124780524D01*
X132718629Y-124441857D02*
X132718629Y-124103191D01*
X133250819Y-123958048D02*
X133250819Y-124441857D01*
X132234819Y-124441857D01*
X132234819Y-123958048D01*
X133250819Y-122942048D02*
X132767010Y-123280714D01*
X133250819Y-123522619D02*
X132234819Y-123522619D01*
X132234819Y-123135572D01*
X132283200Y-123038810D01*
X132331581Y-122990429D01*
X132428343Y-122942048D01*
X132573486Y-122942048D01*
X132670248Y-122990429D01*
X132718629Y-123038810D01*
X132767010Y-123135572D01*
X132767010Y-123522619D01*
X132234819Y-122651762D02*
X132234819Y-122071191D01*
X133250819Y-122361476D02*
X132234819Y-122361476D01*
X132718629Y-121732524D02*
X132718629Y-121393858D01*
X133250819Y-121248715D02*
X133250819Y-121732524D01*
X132234819Y-121732524D01*
X132234819Y-121248715D01*
X133250819Y-120232715D02*
X132767010Y-120571381D01*
X133250819Y-120813286D02*
X132234819Y-120813286D01*
X132234819Y-120426239D01*
X132283200Y-120329477D01*
X132331581Y-120281096D01*
X132428343Y-120232715D01*
X132573486Y-120232715D01*
X132670248Y-120281096D01*
X132718629Y-120329477D01*
X132767010Y-120426239D01*
X132767010Y-120813286D01*
X132234819Y-119168334D02*
X133250819Y-118829667D01*
X132234819Y-118491001D01*
X133250819Y-117620144D02*
X133250819Y-118200715D01*
X133250819Y-117910429D02*
X132234819Y-117910429D01*
X132379962Y-118007191D01*
X132476724Y-118103953D01*
X132525105Y-118200715D01*
X133154057Y-117184715D02*
X133202438Y-117136334D01*
X133250819Y-117184715D01*
X133202438Y-117233096D01*
X133154057Y-117184715D01*
X133250819Y-117184715D01*
X132234819Y-116507381D02*
X132234819Y-116410620D01*
X132283200Y-116313858D01*
X132331581Y-116265477D01*
X132428343Y-116217096D01*
X132621867Y-116168715D01*
X132863771Y-116168715D01*
X133057295Y-116217096D01*
X133154057Y-116265477D01*
X133202438Y-116313858D01*
X133250819Y-116410620D01*
X133250819Y-116507381D01*
X133202438Y-116604143D01*
X133154057Y-116652524D01*
X133057295Y-116700905D01*
X132863771Y-116749286D01*
X132621867Y-116749286D01*
X132428343Y-116700905D01*
X132331581Y-116652524D01*
X132283200Y-116604143D01*
X132234819Y-116507381D01*
X134293429Y-131263571D02*
X134341810Y-131118428D01*
X134390190Y-131070047D01*
X134486952Y-131021666D01*
X134632095Y-131021666D01*
X134728857Y-131070047D01*
X134777238Y-131118428D01*
X134825619Y-131215190D01*
X134825619Y-131602237D01*
X133809619Y-131602237D01*
X133809619Y-131263571D01*
X133858000Y-131166809D01*
X133906381Y-131118428D01*
X134003143Y-131070047D01*
X134099905Y-131070047D01*
X134196667Y-131118428D01*
X134245048Y-131166809D01*
X134293429Y-131263571D01*
X134293429Y-131602237D01*
X134293429Y-130586237D02*
X134293429Y-130247571D01*
X134825619Y-130102428D02*
X134825619Y-130586237D01*
X133809619Y-130586237D01*
X133809619Y-130102428D01*
X134825619Y-129666999D02*
X133809619Y-129666999D01*
X133809619Y-129425094D01*
X133858000Y-129279952D01*
X133954762Y-129183190D01*
X134051524Y-129134809D01*
X134245048Y-129086428D01*
X134390190Y-129086428D01*
X134583714Y-129134809D01*
X134680476Y-129183190D01*
X134777238Y-129279952D01*
X134825619Y-129425094D01*
X134825619Y-129666999D01*
X134293429Y-128312333D02*
X134293429Y-128650999D01*
X134825619Y-128650999D02*
X133809619Y-128650999D01*
X133809619Y-128167190D01*
X133809619Y-127586618D02*
X133809619Y-127393095D01*
X133858000Y-127296333D01*
X133954762Y-127199571D01*
X134148286Y-127151190D01*
X134486952Y-127151190D01*
X134680476Y-127199571D01*
X134777238Y-127296333D01*
X134825619Y-127393095D01*
X134825619Y-127586618D01*
X134777238Y-127683380D01*
X134680476Y-127780142D01*
X134486952Y-127828523D01*
X134148286Y-127828523D01*
X133954762Y-127780142D01*
X133858000Y-127683380D01*
X133809619Y-127586618D01*
X134825619Y-126135190D02*
X134341810Y-126473856D01*
X134825619Y-126715761D02*
X133809619Y-126715761D01*
X133809619Y-126328714D01*
X133858000Y-126231952D01*
X133906381Y-126183571D01*
X134003143Y-126135190D01*
X134148286Y-126135190D01*
X134245048Y-126183571D01*
X134293429Y-126231952D01*
X134341810Y-126328714D01*
X134341810Y-126715761D01*
X134825619Y-125699761D02*
X133809619Y-125699761D01*
X133809619Y-125457856D01*
X133858000Y-125312714D01*
X133954762Y-125215952D01*
X134051524Y-125167571D01*
X134245048Y-125119190D01*
X134390190Y-125119190D01*
X134583714Y-125167571D01*
X134680476Y-125215952D01*
X134777238Y-125312714D01*
X134825619Y-125457856D01*
X134825619Y-125699761D01*
X134825619Y-123087190D02*
X134825619Y-123135571D01*
X134777238Y-123232333D01*
X134632095Y-123377476D01*
X134341810Y-123619381D01*
X134196667Y-123716142D01*
X134051524Y-123764523D01*
X133954762Y-123764523D01*
X133858000Y-123716142D01*
X133809619Y-123619381D01*
X133809619Y-123571000D01*
X133858000Y-123474238D01*
X133954762Y-123425857D01*
X134003143Y-123425857D01*
X134099905Y-123474238D01*
X134148286Y-123522619D01*
X134341810Y-123812904D01*
X134390190Y-123861285D01*
X134486952Y-123909666D01*
X134632095Y-123909666D01*
X134728857Y-123861285D01*
X134777238Y-123812904D01*
X134825619Y-123716142D01*
X134825619Y-123571000D01*
X134777238Y-123474238D01*
X134728857Y-123425857D01*
X134535333Y-123280714D01*
X134390190Y-123232333D01*
X134293429Y-123232333D01*
X134825619Y-121877666D02*
X133809619Y-121877666D01*
X133809619Y-121490619D01*
X133858000Y-121393857D01*
X133906381Y-121345476D01*
X134003143Y-121297095D01*
X134148286Y-121297095D01*
X134245048Y-121345476D01*
X134293429Y-121393857D01*
X134341810Y-121490619D01*
X134341810Y-121877666D01*
X134535333Y-120910047D02*
X134535333Y-120426238D01*
X134825619Y-121006809D02*
X133809619Y-120668142D01*
X134825619Y-120329476D01*
X133809619Y-119990809D02*
X134632095Y-119990809D01*
X134728857Y-119942428D01*
X134777238Y-119894047D01*
X134825619Y-119797285D01*
X134825619Y-119603762D01*
X134777238Y-119507000D01*
X134728857Y-119458619D01*
X134632095Y-119410238D01*
X133809619Y-119410238D01*
X134825619Y-118442619D02*
X134825619Y-118926428D01*
X133809619Y-118926428D01*
X135384419Y-128094619D02*
X136400419Y-127852714D01*
X135674705Y-127659191D01*
X136400419Y-127465667D01*
X135384419Y-127223762D01*
X135384419Y-126788333D02*
X135577943Y-126885095D01*
X135481181Y-125627190D02*
X135432800Y-125578809D01*
X135384419Y-125482047D01*
X135384419Y-125240143D01*
X135432800Y-125143381D01*
X135481181Y-125095000D01*
X135577943Y-125046619D01*
X135674705Y-125046619D01*
X135819848Y-125095000D01*
X136400419Y-125675571D01*
X136400419Y-125046619D01*
X135384419Y-124417666D02*
X135384419Y-124320905D01*
X135432800Y-124224143D01*
X135481181Y-124175762D01*
X135577943Y-124127381D01*
X135771467Y-124079000D01*
X136013371Y-124079000D01*
X136206895Y-124127381D01*
X136303657Y-124175762D01*
X136352038Y-124224143D01*
X136400419Y-124320905D01*
X136400419Y-124417666D01*
X136352038Y-124514428D01*
X136303657Y-124562809D01*
X136206895Y-124611190D01*
X136013371Y-124659571D01*
X135771467Y-124659571D01*
X135577943Y-124611190D01*
X135481181Y-124562809D01*
X135432800Y-124514428D01*
X135384419Y-124417666D01*
X136400419Y-123111381D02*
X136400419Y-123691952D01*
X136400419Y-123401666D02*
X135384419Y-123401666D01*
X135529562Y-123498428D01*
X135626324Y-123595190D01*
X135674705Y-123691952D01*
X135384419Y-122192143D02*
X135384419Y-122675952D01*
X135868229Y-122724333D01*
X135819848Y-122675952D01*
X135771467Y-122579190D01*
X135771467Y-122337286D01*
X135819848Y-122240524D01*
X135868229Y-122192143D01*
X135964990Y-122143762D01*
X136206895Y-122143762D01*
X136303657Y-122192143D01*
X136352038Y-122240524D01*
X136400419Y-122337286D01*
X136400419Y-122579190D01*
X136352038Y-122675952D01*
X136303657Y-122724333D01*
D12*
X82550000Y-138049000D03*
D13*
X80010000Y-138049000D03*
X77470000Y-138049000D03*
X74930000Y-138049000D03*
X72390000Y-138049000D03*
X69850000Y-138049000D03*
X67310000Y-138049000D03*
X64770000Y-138049000D03*
X62230000Y-138049000D03*
X59690000Y-138049000D03*
D14*
X74168000Y-132334000D03*
X59436000Y-99314000D03*
D15*
X75377000Y-122555000D03*
X77277000Y-122555000D03*
D14*
X135382000Y-137795000D03*
D16*
X133858000Y-90472260D03*
X133858000Y-98249740D03*
D17*
X131191000Y-107950000D03*
X131191000Y-110490000D03*
X133189980Y-110490000D03*
X133189980Y-107950000D03*
D18*
X135890000Y-103220520D03*
X135890000Y-115219480D03*
D19*
X84963000Y-97950000D03*
X86233000Y-97950000D03*
X87503000Y-97950000D03*
X88773000Y-97950000D03*
X88773000Y-92550000D03*
X87503000Y-92550000D03*
X86233000Y-92550000D03*
X84963000Y-92550000D03*
X123825000Y-96045000D03*
X125095000Y-96045000D03*
X126365000Y-96045000D03*
X127635000Y-96045000D03*
X127635000Y-90645000D03*
X126365000Y-90645000D03*
X125095000Y-90645000D03*
X123825000Y-90645000D03*
D20*
X65890140Y-88900000D03*
X59890660Y-88900000D03*
X62890400Y-93599000D03*
D21*
X123698000Y-135382000D03*
D22*
X126238000Y-135382000D03*
D23*
X111483140Y-107508040D03*
X111483140Y-108458000D03*
X111483140Y-109407960D03*
X115084860Y-109407960D03*
X115084860Y-108458000D03*
X115084860Y-107508040D03*
X110413396Y-130302146D03*
X110413396Y-131252106D03*
X110413396Y-132202066D03*
X114015116Y-132202066D03*
X114015116Y-131252106D03*
X114015116Y-130302146D03*
D24*
X106804460Y-88813640D03*
X105854500Y-88813640D03*
X104904540Y-88813640D03*
X104904540Y-92415360D03*
X105854500Y-92415360D03*
X106804460Y-92415360D03*
D25*
X99138740Y-104902000D03*
X91361260Y-104902000D03*
D26*
X78740000Y-93091000D03*
X78740000Y-97409000D03*
X117348000Y-91313000D03*
X117348000Y-95631000D03*
D23*
X101831140Y-97602040D03*
X101831140Y-98552000D03*
X101831140Y-99501960D03*
X105432860Y-99501960D03*
X105432860Y-97602040D03*
D27*
X88540000Y-90170000D03*
X84180000Y-90170000D03*
X108098000Y-108458000D03*
X103738000Y-108458000D03*
D28*
X118110000Y-112162000D03*
X118110000Y-107802000D03*
D27*
X110638000Y-114808000D03*
X106278000Y-114808000D03*
X110638000Y-122174000D03*
X106278000Y-122174000D03*
X123084000Y-129286000D03*
X118724000Y-129286000D03*
D28*
X104140000Y-132990000D03*
X104140000Y-128630000D03*
D27*
X105008000Y-84836000D03*
X109368000Y-84836000D03*
X127148000Y-87884000D03*
X122788000Y-87884000D03*
D29*
X76243000Y-118999000D03*
X78443000Y-118999000D03*
X76243000Y-117348000D03*
X78443000Y-117348000D03*
X76243000Y-115697000D03*
X78443000Y-115697000D03*
X95928000Y-115062000D03*
X98128000Y-115062000D03*
X97452000Y-111506000D03*
X99652000Y-111506000D03*
X97452000Y-109474000D03*
X99652000Y-109474000D03*
X97452000Y-123190000D03*
X99652000Y-123190000D03*
X97452000Y-121158000D03*
X99652000Y-121158000D03*
X95928000Y-117602000D03*
X98128000Y-117602000D03*
D30*
X66238000Y-116425000D03*
X66238000Y-117075000D03*
X66238000Y-117725000D03*
X66238000Y-118375000D03*
X66238000Y-119025000D03*
X66238000Y-119675000D03*
X66238000Y-120325000D03*
X66238000Y-120975000D03*
X66238000Y-121625000D03*
X66238000Y-122275000D03*
X66238000Y-122925000D03*
X66238000Y-123575000D03*
X66238000Y-124225000D03*
X66238000Y-124875000D03*
X71938000Y-124875000D03*
X71938000Y-124225000D03*
X71938000Y-123575000D03*
X71938000Y-122925000D03*
X71938000Y-122275000D03*
X71938000Y-121625000D03*
X71938000Y-120975000D03*
X71938000Y-120325000D03*
X71938000Y-119675000D03*
X71938000Y-119025000D03*
X71938000Y-118375000D03*
X71938000Y-117725000D03*
X71938000Y-117075000D03*
X71938000Y-116425000D03*
D31*
X82676000Y-109855000D03*
X82676000Y-111125000D03*
X82676000Y-112395000D03*
X82676000Y-113665000D03*
X82676000Y-114935000D03*
X82676000Y-116205000D03*
X82676000Y-117475000D03*
X82676000Y-118745000D03*
X82676000Y-120015000D03*
X82676000Y-121285000D03*
X82676000Y-122555000D03*
X82676000Y-123825000D03*
X82676000Y-125095000D03*
X82676000Y-126365000D03*
X92076000Y-126365000D03*
X92076000Y-125095000D03*
X92076000Y-123825000D03*
X92076000Y-122555000D03*
X92076000Y-121285000D03*
X92076000Y-120015000D03*
X92076000Y-118745000D03*
X92076000Y-117475000D03*
X92076000Y-116205000D03*
X92076000Y-114935000D03*
X92076000Y-113665000D03*
X92076000Y-112395000D03*
X92076000Y-111125000D03*
X92076000Y-109855000D03*
D29*
X76243000Y-120650000D03*
X78443000Y-120650000D03*
D32*
X92456000Y-93792000D03*
X92456000Y-95692000D03*
X82804000Y-96200000D03*
X82804000Y-94300000D03*
X131318000Y-85664000D03*
X131318000Y-87564000D03*
X121920000Y-94295000D03*
X121920000Y-92395000D03*
D15*
X75377000Y-124333000D03*
X77277000Y-124333000D03*
D32*
X66548000Y-113980000D03*
X66548000Y-112080000D03*
X64516000Y-113980000D03*
X64516000Y-112080000D03*
X63627000Y-124018000D03*
X63627000Y-125918000D03*
X61722000Y-124018000D03*
X61722000Y-125918000D03*
D15*
X78674000Y-109474000D03*
X76774000Y-109474000D03*
X96078000Y-125222000D03*
X97978000Y-125222000D03*
X79182000Y-128016000D03*
X77282000Y-128016000D03*
D32*
X94996000Y-111948000D03*
X94996000Y-110048000D03*
X94996000Y-122108000D03*
X94996000Y-120208000D03*
D15*
X117028000Y-116332000D03*
X115128000Y-116332000D03*
X117028000Y-119888000D03*
X115128000Y-119888000D03*
D33*
X68834000Y-111930000D03*
X68834000Y-114130000D03*
X92456000Y-88816000D03*
X92456000Y-91016000D03*
X86614000Y-103208000D03*
X86614000Y-101008000D03*
D29*
X88562000Y-100838000D03*
X90762000Y-100838000D03*
X59733000Y-118618000D03*
X61933000Y-118618000D03*
X59733000Y-120396000D03*
X61933000Y-120396000D03*
X59733000Y-116840000D03*
X61933000Y-116840000D03*
X66886000Y-133604000D03*
X64686000Y-133604000D03*
X60114000Y-133604000D03*
X62314000Y-133604000D03*
X76751000Y-111252000D03*
X78951000Y-111252000D03*
X77132000Y-125984000D03*
X79332000Y-125984000D03*
X95928000Y-127000000D03*
X98128000Y-127000000D03*
X107780000Y-110998000D03*
X105580000Y-110998000D03*
X112184000Y-111506000D03*
X114384000Y-111506000D03*
X109558000Y-116840000D03*
X107358000Y-116840000D03*
X109558000Y-119888000D03*
X107358000Y-119888000D03*
X111168000Y-134366000D03*
X113368000Y-134366000D03*
D33*
X107188000Y-131910000D03*
X107188000Y-129710000D03*
X98044000Y-88816000D03*
X98044000Y-91016000D03*
D29*
X127170000Y-85598000D03*
X129370000Y-85598000D03*
D33*
X101092000Y-88816000D03*
X101092000Y-91016000D03*
X101092000Y-93388000D03*
X101092000Y-95588000D03*
D29*
X90508000Y-137033000D03*
X88308000Y-137033000D03*
X88308000Y-135001000D03*
X90508000Y-135001000D03*
D15*
X104582000Y-101600000D03*
X102682000Y-101600000D03*
X76642000Y-105410000D03*
X74742000Y-105410000D03*
X76642000Y-103632000D03*
X74742000Y-103632000D03*
D32*
X69850000Y-88712000D03*
X69850000Y-90612000D03*
X72644000Y-88712000D03*
X72644000Y-90612000D03*
X109347000Y-104836000D03*
X109347000Y-102936000D03*
D26*
X123317000Y-116332000D03*
X123317000Y-120650000D03*
D32*
X114808000Y-104836000D03*
X114808000Y-102936000D03*
X113030000Y-104836000D03*
X113030000Y-102936000D03*
X112776000Y-127696000D03*
X112776000Y-125796000D03*
D14*
X135636000Y-85471000D03*
D32*
X111252000Y-104836000D03*
X111252000Y-102936000D03*
X107569000Y-104836000D03*
X107569000Y-102936000D03*
D34*
X88646000Y-96012000D03*
X86868000Y-96012000D03*
X85090000Y-96012000D03*
X62992000Y-129032000D03*
X126492000Y-109982000D03*
X89916000Y-125222000D03*
X118872000Y-109982000D03*
X106934000Y-123190000D03*
X74676000Y-102108000D03*
X83820000Y-132842000D03*
X103124000Y-104902000D03*
X103124000Y-106426000D03*
X104648000Y-106426000D03*
X104648000Y-104902000D03*
X101155500Y-101600000D03*
X105981500Y-102933500D03*
X71374000Y-90170000D03*
X61976000Y-104394000D03*
X94742000Y-96393000D03*
X73660000Y-98425000D03*
X125222000Y-107950000D03*
X120650000Y-110617000D03*
X61468000Y-85090000D03*
X76708000Y-90678000D03*
X125984000Y-127254000D03*
X125730000Y-123952000D03*
X127508000Y-131572000D03*
D35*
X113284000Y-89154000D03*
X99314000Y-84836000D03*
D34*
X94234000Y-116332000D03*
D35*
X101346000Y-131064000D03*
D34*
X99822000Y-125222000D03*
D35*
X99822000Y-127000000D03*
D34*
X64643000Y-118110000D03*
X127508000Y-93472000D03*
X126492000Y-92710000D03*
X75254910Y-109537520D03*
X96266000Y-90170000D03*
X102870000Y-95885000D03*
X85090000Y-94488000D03*
X90424000Y-90424000D03*
X80581500Y-114871500D03*
X75438000Y-128016000D03*
X116840000Y-117856000D03*
X118364000Y-118110000D03*
X119888000Y-115709690D03*
X85852000Y-115570000D03*
X85852000Y-116840000D03*
X136398000Y-91948000D03*
X136398000Y-90424000D03*
X136398000Y-88646000D03*
X59944000Y-113538000D03*
X58928000Y-121920000D03*
X68072000Y-109474000D03*
X62738000Y-112014000D03*
X67564000Y-124460000D03*
X64770000Y-122428000D03*
X67818000Y-119380000D03*
X90297000Y-133858000D03*
X65532000Y-130556000D03*
X78867000Y-122555000D03*
X78867000Y-124333000D03*
X111252000Y-125476000D03*
X104394000Y-115110270D03*
X106172000Y-117856000D03*
X86614000Y-112522000D03*
X86614000Y-110744000D03*
X86614000Y-108966000D03*
X95250000Y-107442000D03*
X95250000Y-105410000D03*
X89916000Y-119888000D03*
X95250000Y-103378000D03*
X89154000Y-113030000D03*
X119634000Y-100838000D03*
X117602000Y-100838000D03*
X115570000Y-100838000D03*
X113538000Y-100838000D03*
X111506000Y-100838000D03*
X111506000Y-96774000D03*
X109728000Y-96774000D03*
X107950000Y-96774000D03*
X60198000Y-123952000D03*
X61722000Y-122428000D03*
X63246000Y-122428000D03*
X62992000Y-113792000D03*
X70358000Y-112014000D03*
X60198000Y-115316000D03*
X60198000Y-132080000D03*
X67056000Y-132080000D03*
X95738607Y-123801706D03*
X66524875Y-115292875D03*
X66802000Y-125730000D03*
X73406000Y-125222000D03*
X73914000Y-123952000D03*
X73914000Y-122682000D03*
D35*
X121920000Y-112903000D03*
D34*
X101854000Y-109855000D03*
X101600000Y-123444000D03*
X122936000Y-123190000D03*
X104394000Y-112649000D03*
X125222000Y-103886000D03*
X127000000Y-103886000D03*
X117094000Y-105156000D03*
X118872000Y-105156000D03*
X120650000Y-105156000D03*
X117094000Y-103124000D03*
X118872000Y-103124000D03*
X120650000Y-103124000D03*
X127000000Y-105918000D03*
X125222000Y-105918000D03*
X115062000Y-126492000D03*
X115062000Y-124714000D03*
X116840000Y-124714000D03*
X116840000Y-126492000D03*
X118618000Y-126492000D03*
X118618000Y-124714000D03*
X120396000Y-124714000D03*
X120396000Y-126492000D03*
X108458000Y-129032000D03*
X108458000Y-127000000D03*
X110744000Y-127000000D03*
X110744000Y-129032000D03*
X119126000Y-136144000D03*
X83566000Y-134239000D03*
X101854000Y-119253000D03*
X65024000Y-102362000D03*
X75184000Y-125857000D03*
X72898000Y-113157000D03*
X72898000Y-115316000D03*
X73938677Y-121082151D03*
X73914000Y-120142000D03*
X71628000Y-98806000D03*
X67564000Y-98806000D03*
X100330000Y-138176000D03*
X99060000Y-137414000D03*
X99568000Y-95123000D03*
X90932000Y-93980000D03*
X103886000Y-90170000D03*
X102870000Y-90678000D03*
X108204000Y-88392000D03*
X106172000Y-86614000D03*
X108204000Y-86614000D03*
D36*
X61722000Y-125918000D02*
X61722000Y-127762000D01*
X61722000Y-127762000D02*
X62992000Y-129032000D01*
D37*
X74742000Y-103632000D02*
X74742000Y-102174000D01*
X74742000Y-102174000D02*
X74676000Y-102108000D01*
X74742000Y-103632000D02*
X74742000Y-105410000D01*
X104648000Y-106426000D02*
X103124000Y-106426000D01*
X99138740Y-104902000D02*
X104648000Y-104902000D01*
X102682000Y-101600000D02*
X101155500Y-101600000D01*
X114808000Y-102936000D02*
X115250000Y-102936000D01*
X107569000Y-102936000D02*
X105984000Y-102936000D01*
X105984000Y-102936000D02*
X105981500Y-102933500D01*
X109347000Y-102936000D02*
X107569000Y-102936000D01*
X111252000Y-102936000D02*
X109347000Y-102936000D01*
X113030000Y-102936000D02*
X111252000Y-102936000D01*
X114808000Y-102936000D02*
X113030000Y-102936000D01*
X66238000Y-118375000D02*
X67426000Y-118375000D01*
X67426000Y-118375000D02*
X67564000Y-118237000D01*
X67564000Y-118237000D02*
X67564000Y-117546200D01*
X67564000Y-117546200D02*
X67092801Y-117075001D01*
X67092801Y-117075001D02*
X66238000Y-117075000D01*
D36*
X72644000Y-90612000D02*
X71816000Y-90612000D01*
X71816000Y-90612000D02*
X71374000Y-90170000D01*
X69850000Y-90612000D02*
X70932000Y-90612000D01*
X70932000Y-90612000D02*
X71374000Y-90170000D01*
D37*
X94742000Y-96393000D02*
X94041000Y-95692000D01*
X94041000Y-95692000D02*
X92456000Y-95692000D01*
X93660000Y-95692000D02*
X92456000Y-95692000D01*
D36*
X92076000Y-116205000D02*
X94107000Y-116205000D01*
X94107000Y-116205000D02*
X94234000Y-116332000D01*
X97978000Y-125222000D02*
X99822000Y-125222000D01*
X98128000Y-127000000D02*
X99822000Y-127000000D01*
D37*
X66238000Y-118375000D02*
X64908000Y-118375000D01*
X64908000Y-118375000D02*
X64643000Y-118110000D01*
X63627000Y-125918000D02*
X61722000Y-125918000D01*
D11*
X126365000Y-90645000D02*
X126365000Y-92583000D01*
X126365000Y-92583000D02*
X126492000Y-92710000D01*
X75318430Y-109474000D02*
X75254910Y-109537520D01*
X76774000Y-109474000D02*
X75318430Y-109474000D01*
D36*
X133985000Y-90091260D02*
X133985000Y-90741500D01*
X101092000Y-95588000D02*
X102573000Y-95588000D01*
X102573000Y-95588000D02*
X102870000Y-95885000D01*
D11*
X90762000Y-100838000D02*
X92964000Y-100838000D01*
X91120000Y-95692000D02*
X90678000Y-95250000D01*
X92456000Y-95692000D02*
X91120000Y-95692000D01*
X87503000Y-94361000D02*
X87376000Y-94488000D01*
X87376000Y-94488000D02*
X85090000Y-94488000D01*
X87503000Y-92550000D02*
X87503000Y-94361000D01*
X88540000Y-90424000D02*
X90424000Y-90424000D01*
X82676000Y-114935000D02*
X80645000Y-114935000D01*
X80645000Y-114935000D02*
X80581500Y-114871500D01*
X77282000Y-128016000D02*
X75438000Y-128016000D01*
X77132000Y-125984000D02*
X77132000Y-127866000D01*
X77132000Y-127866000D02*
X77282000Y-128016000D01*
X76751000Y-111252000D02*
X76751000Y-109497000D01*
X76751000Y-109497000D02*
X76774000Y-109474000D01*
D36*
X133985000Y-90741500D02*
X135890000Y-92646500D01*
X135890000Y-92456000D02*
X136398000Y-91948000D01*
X135890000Y-93218000D02*
X135890000Y-92456000D01*
X136398000Y-90424000D02*
X136398000Y-88646000D01*
X135890000Y-92646500D02*
X135890000Y-93218000D01*
D11*
X97112000Y-91016000D02*
X96266000Y-90170000D01*
X98044000Y-91016000D02*
X97112000Y-91016000D01*
D37*
X59733000Y-121115000D02*
X58928000Y-121920000D01*
X59733000Y-120396000D02*
X59733000Y-121115000D01*
X66548000Y-112080000D02*
X64516000Y-112080000D01*
X62804000Y-112080000D02*
X62738000Y-112014000D01*
X64516000Y-112080000D02*
X62804000Y-112080000D01*
X67329000Y-124225000D02*
X67564000Y-124460000D01*
X66238000Y-124225000D02*
X67329000Y-124225000D01*
X64923000Y-122275000D02*
X64770000Y-122428000D01*
X66238000Y-122275000D02*
X64923000Y-122275000D01*
X65267000Y-122925000D02*
X64770000Y-122428000D01*
X66238000Y-122925000D02*
X65267000Y-122925000D01*
D11*
X90508000Y-134398600D02*
X90297000Y-134187600D01*
X90508000Y-135001000D02*
X90508000Y-134398600D01*
X90297000Y-134187600D02*
X90297000Y-133858000D01*
X77277000Y-122555000D02*
X78867000Y-122555000D01*
X77277000Y-124333000D02*
X78867000Y-124333000D01*
D37*
X111572000Y-125796000D02*
X111252000Y-125476000D01*
X112776000Y-125796000D02*
X111572000Y-125796000D01*
X106278000Y-122534000D02*
X106934000Y-123190000D01*
X106278000Y-122174000D02*
X106278000Y-122534000D01*
X107358000Y-119888000D02*
X107358000Y-119133200D01*
X104696270Y-114808000D02*
X104394000Y-115110270D01*
X106278000Y-114808000D02*
X104696270Y-114808000D01*
X106500979Y-118184979D02*
X106172000Y-117856000D01*
X107358000Y-118184979D02*
X106500979Y-118184979D01*
X107358000Y-119133200D02*
X107358000Y-118184979D01*
X107358000Y-118184979D02*
X107358000Y-116840000D01*
D36*
X103212899Y-98068133D02*
X103212899Y-96227899D01*
X103212899Y-96227899D02*
X102870000Y-95885000D01*
X102729032Y-98552000D02*
X103212899Y-98068133D01*
X101831140Y-98552000D02*
X102729032Y-98552000D01*
D11*
X86614000Y-110490000D02*
X86614000Y-112268000D01*
X91361260Y-104902000D02*
X90711020Y-104902000D01*
X90711020Y-104902000D02*
X86647020Y-108966000D01*
X86647020Y-108966000D02*
X86614000Y-108966000D01*
X95250000Y-107188000D02*
X93726000Y-107188000D01*
X93726000Y-107188000D02*
X93218000Y-107696000D01*
X95250000Y-103378000D02*
X95250000Y-105410000D01*
D36*
X90551000Y-118745000D02*
X89916000Y-119380000D01*
X89916000Y-119380000D02*
X89916000Y-119888000D01*
X92076000Y-118745000D02*
X90551000Y-118745000D01*
D37*
X91949000Y-113538000D02*
X92076000Y-113665000D01*
X93726000Y-104902000D02*
X95250000Y-103378000D01*
X91361260Y-104902000D02*
X93726000Y-104902000D01*
X89789000Y-113665000D02*
X92076000Y-113665000D01*
X89154000Y-113030000D02*
X89789000Y-113665000D01*
D11*
X115570000Y-100838000D02*
X117602000Y-100838000D01*
X111506000Y-100838000D02*
X113538000Y-100838000D01*
X109728000Y-96774000D02*
X111506000Y-96774000D01*
D36*
X92076000Y-123825000D02*
X94615000Y-123825000D01*
X94615000Y-123825000D02*
X94742000Y-123952000D01*
X96078000Y-125222000D02*
X96012000Y-125222000D01*
X96012000Y-125222000D02*
X94742000Y-123952000D01*
D37*
X63627000Y-124018000D02*
X61722000Y-124018000D01*
D36*
X105432860Y-97602040D02*
X106086910Y-97602040D01*
X106086910Y-97602040D02*
X106914950Y-96774000D01*
X106914950Y-96774000D02*
X108204000Y-96774000D01*
D37*
X61722000Y-124018000D02*
X60264000Y-124018000D01*
X60264000Y-124018000D02*
X60198000Y-123952000D01*
X61722000Y-124018000D02*
X61722000Y-122428000D01*
X63627000Y-122809000D02*
X63246000Y-122428000D01*
X63627000Y-124018000D02*
X63627000Y-122809000D01*
X64516000Y-116857800D02*
X64516000Y-114884800D01*
X65383200Y-117725000D02*
X64516000Y-116857800D01*
X64516000Y-114884800D02*
X64516000Y-113980000D01*
X66238000Y-117725000D02*
X65383200Y-117725000D01*
X64516000Y-113980000D02*
X66548000Y-113980000D01*
X63180000Y-113980000D02*
X62992000Y-113792000D01*
X64516000Y-113980000D02*
X63180000Y-113980000D01*
X70274000Y-111930000D02*
X70358000Y-112014000D01*
X68834000Y-111930000D02*
X70274000Y-111930000D01*
X59733000Y-118618000D02*
X59733000Y-116840000D01*
X59733000Y-115781000D02*
X60198000Y-115316000D01*
X59733000Y-116840000D02*
X59733000Y-115781000D01*
X60114000Y-132164000D02*
X60198000Y-132080000D01*
X60114000Y-133604000D02*
X60114000Y-132164000D01*
X66886000Y-132250000D02*
X67056000Y-132080000D01*
X66886000Y-133604000D02*
X66886000Y-132250000D01*
X65383200Y-123575000D02*
X66238000Y-123575000D01*
X64156941Y-123488059D02*
X65296259Y-123488059D01*
X63627000Y-124018000D02*
X64156941Y-123488059D01*
X65296259Y-123488059D02*
X65383200Y-123575000D01*
D11*
X105432860Y-99501960D02*
X105432860Y-97602040D01*
X105432860Y-100221740D02*
X105432860Y-99501960D01*
X104582000Y-101072600D02*
X105432860Y-100221740D01*
X104582000Y-101600000D02*
X104582000Y-101072600D01*
D36*
X96078000Y-124141099D02*
X95738607Y-123801706D01*
X96078000Y-125222000D02*
X96078000Y-124141099D01*
D37*
X66548000Y-113980000D02*
X66548000Y-115269750D01*
X66548000Y-115269750D02*
X66524875Y-115292875D01*
X66238000Y-125166000D02*
X66802000Y-125730000D01*
X66238000Y-124875000D02*
X66238000Y-125166000D01*
D11*
X73406000Y-124990600D02*
X73406000Y-125222000D01*
X71938000Y-124225000D02*
X72640400Y-124225000D01*
X72640400Y-124225000D02*
X73406000Y-124990600D01*
X72449482Y-122925000D02*
X71938000Y-122925000D01*
X73133583Y-123609101D02*
X72449482Y-122925000D01*
X73571101Y-123609101D02*
X73133583Y-123609101D01*
X73914000Y-123952000D02*
X73571101Y-123609101D01*
X72857000Y-121625000D02*
X71938000Y-121625000D01*
X73914000Y-122682000D02*
X72857000Y-121625000D01*
X78951000Y-111252000D02*
X78951000Y-109751000D01*
X78951000Y-109751000D02*
X78674000Y-109474000D01*
X78951000Y-111252000D02*
X79703400Y-111252000D01*
X79703400Y-111252000D02*
X80846400Y-112395000D01*
X80846400Y-112395000D02*
X81523600Y-112395000D01*
X81523600Y-112395000D02*
X82676000Y-112395000D01*
X79332000Y-125984000D02*
X79332000Y-125381600D01*
X79332000Y-125381600D02*
X80888600Y-123825000D01*
X80888600Y-123825000D02*
X81523600Y-123825000D01*
X81523600Y-123825000D02*
X82676000Y-123825000D01*
X79182000Y-128016000D02*
X79182000Y-126134000D01*
X79182000Y-126134000D02*
X79332000Y-125984000D01*
D36*
X92076000Y-112395000D02*
X94549000Y-112395000D01*
X94549000Y-112395000D02*
X94996000Y-111948000D01*
X114384000Y-111506000D02*
X117454000Y-111506000D01*
X117454000Y-111506000D02*
X118110000Y-112162000D01*
X123317000Y-116332000D02*
X120412510Y-116332000D01*
X120412510Y-116332000D02*
X117028000Y-116332000D01*
X121920000Y-112903000D02*
X121920000Y-114935000D01*
X121920000Y-114935000D02*
X123317000Y-116332000D01*
X121920000Y-112903000D02*
X118851000Y-112903000D01*
X118851000Y-112903000D02*
X118110000Y-112162000D01*
X99652000Y-109474000D02*
X101473000Y-109474000D01*
X101473000Y-109474000D02*
X101854000Y-109855000D01*
X114384000Y-111506000D02*
X114384000Y-110108820D01*
X114384000Y-110108820D02*
X115084860Y-109407960D01*
X99652000Y-109474000D02*
X99568000Y-109474000D01*
X123084000Y-125061516D02*
X123084000Y-123338000D01*
X123084000Y-129286000D02*
X123084000Y-125061516D01*
D37*
X123084000Y-125061516D02*
X123029516Y-125061516D01*
D36*
X99652000Y-123190000D02*
X101346000Y-123190000D01*
X101346000Y-123190000D02*
X101600000Y-123444000D01*
X122936000Y-123190000D02*
X122936000Y-121031000D01*
X122936000Y-121031000D02*
X123317000Y-120650000D01*
X123084000Y-123338000D02*
X122936000Y-123190000D01*
X123084000Y-120883000D02*
X123317000Y-120650000D01*
X114015116Y-132202066D02*
X121543934Y-132202066D01*
X121543934Y-132202066D02*
X123084000Y-130662000D01*
X123084000Y-130662000D02*
X123084000Y-129286000D01*
X123317000Y-120650000D02*
X120412510Y-120650000D01*
X120412510Y-120650000D02*
X119650510Y-119888000D01*
X119650510Y-119888000D02*
X117028000Y-119888000D01*
X113368000Y-134366000D02*
X113368000Y-132849182D01*
X113368000Y-132849182D02*
X114015116Y-132202066D01*
X92076000Y-120015000D02*
X94803000Y-120015000D01*
X94803000Y-120015000D02*
X94996000Y-120208000D01*
X110638000Y-114808000D02*
X110638000Y-115760000D01*
X110638000Y-115760000D02*
X109558000Y-116840000D01*
X109558000Y-116840000D02*
X114620000Y-116840000D01*
X114620000Y-116840000D02*
X115128000Y-116332000D01*
X109558000Y-119888000D02*
X109558000Y-121094000D01*
X109558000Y-121094000D02*
X110638000Y-122174000D01*
X115128000Y-119888000D02*
X109558000Y-119888000D01*
X101395000Y-112649000D02*
X104394000Y-112649000D01*
X98128000Y-115062000D02*
X98982000Y-115062000D01*
X98982000Y-115062000D02*
X101395000Y-112649000D01*
X109728000Y-110998000D02*
X110236000Y-111506000D01*
X110236000Y-111506000D02*
X112184000Y-111506000D01*
X107780000Y-110998000D02*
X109728000Y-110998000D01*
X112184000Y-111506000D02*
X112184000Y-110108820D01*
X112184000Y-110108820D02*
X111483140Y-109407960D01*
X108352000Y-108458000D02*
X108352000Y-110426000D01*
X108352000Y-110426000D02*
X107780000Y-110998000D01*
X103992000Y-108458000D02*
X103992000Y-109560000D01*
X103992000Y-109560000D02*
X105430000Y-110998000D01*
X105430000Y-110998000D02*
X105580000Y-110998000D01*
X99652000Y-111506000D02*
X105072000Y-111506000D01*
X105072000Y-111506000D02*
X105580000Y-110998000D01*
D11*
X127000000Y-105918000D02*
X127000000Y-103886000D01*
X118872000Y-105156000D02*
X117094000Y-105156000D01*
X120650000Y-103124000D02*
X120650000Y-105156000D01*
X125012078Y-105918000D02*
X125497011Y-105918000D01*
X118962400Y-107802000D02*
X120846400Y-105918000D01*
X118110000Y-107802000D02*
X118962400Y-107802000D01*
X120846400Y-105918000D02*
X125012078Y-105918000D01*
X114808000Y-104836000D02*
X116144000Y-104836000D01*
X117094000Y-103886000D02*
X117094000Y-103124000D01*
X116144000Y-104836000D02*
X117094000Y-103886000D01*
X118872000Y-103124000D02*
X120396000Y-103124000D01*
X125476000Y-105896989D02*
X125497011Y-105918000D01*
X125497011Y-105918000D02*
X127000000Y-105918000D01*
X107569000Y-104836000D02*
X109347000Y-104836000D01*
X116840000Y-124714000D02*
X115062000Y-124714000D01*
X118618000Y-126492000D02*
X116840000Y-126492000D01*
X120396000Y-124714000D02*
X118618000Y-124714000D01*
X120650000Y-127660000D02*
X120396000Y-127406000D01*
X120396000Y-127406000D02*
X120396000Y-126492000D01*
X118724000Y-129286000D02*
X119024000Y-129286000D01*
X119024000Y-129286000D02*
X120650000Y-127660000D01*
X110744000Y-127000000D02*
X108458000Y-127000000D01*
X110413396Y-130302146D02*
X110413396Y-129362604D01*
X110413396Y-129362604D02*
X110744000Y-129032000D01*
X93472000Y-138938000D02*
X116332000Y-138938000D01*
X116332000Y-138938000D02*
X119126000Y-136144000D01*
X91567000Y-137033000D02*
X93472000Y-138938000D01*
X91150691Y-137033000D02*
X91260400Y-137033000D01*
X90508000Y-137033000D02*
X91150691Y-137033000D01*
X91150691Y-137033000D02*
X91567000Y-137033000D01*
X89755600Y-137033000D02*
X88739600Y-138049000D01*
X90508000Y-137033000D02*
X89755600Y-137033000D01*
X88739600Y-138049000D02*
X87376000Y-138049000D01*
X87376000Y-138049000D02*
X83566000Y-134239000D01*
D36*
X110413396Y-132202066D02*
X110413396Y-133611396D01*
X110413396Y-133611396D02*
X111168000Y-134366000D01*
X107188000Y-131953000D02*
X107437066Y-132202066D01*
X107437066Y-132202066D02*
X110413396Y-132202066D01*
X107188000Y-131910000D02*
X107188000Y-131953000D01*
X107188000Y-131910000D02*
X105220000Y-131910000D01*
X105220000Y-131910000D02*
X104140000Y-132990000D01*
X99652000Y-121158000D02*
X101346000Y-121158000D01*
X101346000Y-121158000D02*
X107188000Y-127000000D01*
X107188000Y-127000000D02*
X107188000Y-128856000D01*
X107188000Y-128856000D02*
X107188000Y-129710000D01*
X107188000Y-129710000D02*
X105220000Y-129710000D01*
X105220000Y-129710000D02*
X104140000Y-128630000D01*
X100203000Y-117602000D02*
X101854000Y-119253000D01*
X98128000Y-117602000D02*
X100203000Y-117602000D01*
D11*
X65024000Y-102362000D02*
X72898000Y-110236000D01*
X72898000Y-110236000D02*
X72898000Y-111887000D01*
X71938000Y-125227400D02*
X72567600Y-125857000D01*
X71938000Y-124875000D02*
X71938000Y-125227400D01*
X72567600Y-125857000D02*
X75184000Y-125857000D01*
X72898000Y-113157000D02*
X72898000Y-111887000D01*
D37*
X83986195Y-121285000D02*
X84010480Y-121260715D01*
X82676000Y-121285000D02*
X83986195Y-121285000D01*
D11*
X68834000Y-114179000D02*
X68834000Y-114130000D01*
X66238000Y-116425000D02*
X66588000Y-116425000D01*
X78887601Y-114193601D02*
X78824000Y-114130000D01*
X84328000Y-114875518D02*
X83646083Y-114193601D01*
X84328000Y-120458262D02*
X84328000Y-114875518D01*
X84010480Y-120775782D02*
X84328000Y-120458262D01*
X78824000Y-114130000D02*
X68834000Y-114130000D01*
X83646083Y-114193601D02*
X78887601Y-114193601D01*
X84010480Y-121260715D02*
X84010480Y-120775782D01*
X69088000Y-117475000D02*
X68038000Y-116425000D01*
X68199000Y-134366000D02*
X68199000Y-120650000D01*
X68038000Y-116425000D02*
X66238000Y-116425000D01*
X66929000Y-134747000D02*
X67818000Y-134747000D01*
X66217790Y-135458210D02*
X66929000Y-134747000D01*
X66217790Y-138653808D02*
X66217790Y-135458210D01*
X67818000Y-134747000D02*
X68199000Y-134366000D01*
X67517982Y-139954000D02*
X66217790Y-138653808D01*
X69088000Y-119761000D02*
X69088000Y-117475000D01*
X68199000Y-120650000D02*
X69088000Y-119761000D01*
X78257400Y-139954000D02*
X67517982Y-139954000D01*
X80010000Y-138201400D02*
X78257400Y-139954000D01*
X80010000Y-138049000D02*
X80010000Y-138201400D01*
X68231600Y-114130000D02*
X68834000Y-114130000D01*
X67818000Y-114543600D02*
X68231600Y-114130000D01*
X67818000Y-114808000D02*
X67818000Y-114543600D01*
X66675000Y-115951000D02*
X67818000Y-114808000D01*
X66359600Y-115951000D02*
X66675000Y-115951000D01*
X66238000Y-116072600D02*
X66359600Y-115951000D01*
X66238000Y-116425000D02*
X66238000Y-116072600D01*
X72898000Y-115465000D02*
X71938000Y-116425000D01*
X72898000Y-115316000D02*
X72898000Y-115465000D01*
X64684000Y-119675000D02*
X63627000Y-118618000D01*
X63627000Y-118618000D02*
X61933000Y-118618000D01*
X66238000Y-119675000D02*
X64684000Y-119675000D01*
X61933000Y-120396000D02*
X66167000Y-120396000D01*
X66167000Y-120396000D02*
X66238000Y-120325000D01*
X73595778Y-120739252D02*
X73938677Y-121082151D01*
X73181526Y-120325000D02*
X73595778Y-120739252D01*
X71938000Y-120325000D02*
X73181526Y-120325000D01*
X62083000Y-116840000D02*
X61933000Y-116840000D01*
X62685400Y-117442400D02*
X62083000Y-116840000D01*
X64712178Y-119025000D02*
X63129578Y-117442400D01*
X66238000Y-119025000D02*
X64712178Y-119025000D01*
X63129578Y-117442400D02*
X62685400Y-117442400D01*
X64686000Y-133604000D02*
X64686000Y-137965000D01*
X64686000Y-137965000D02*
X64770000Y-138049000D01*
X66238000Y-121625000D02*
X65535600Y-121625000D01*
X65304101Y-121856499D02*
X61447679Y-121856499D01*
X59626499Y-123677679D02*
X59626499Y-127942099D01*
X65535600Y-121625000D02*
X65304101Y-121856499D01*
X61447679Y-121856499D02*
X59626499Y-123677679D01*
X59626499Y-127942099D02*
X64686000Y-133001600D01*
X64686000Y-133001600D02*
X64686000Y-133604000D01*
X62314000Y-133604000D02*
X62314000Y-131402000D01*
X62314000Y-131402000D02*
X59055000Y-128143000D01*
X60579000Y-121412000D02*
X64262000Y-121412000D01*
X59055000Y-128143000D02*
X59055000Y-122936000D01*
X59055000Y-122936000D02*
X60579000Y-121412000D01*
X64262000Y-121412000D02*
X64699000Y-120975000D01*
X64699000Y-120975000D02*
X66238000Y-120975000D01*
X62314000Y-133604000D02*
X62314000Y-137965000D01*
X62314000Y-137965000D02*
X62230000Y-138049000D01*
X73447000Y-119675000D02*
X71938000Y-119675000D01*
X73914000Y-120142000D02*
X73447000Y-119675000D01*
X82676000Y-111125000D02*
X81976000Y-111125000D01*
X81976000Y-111125000D02*
X80833000Y-109982000D01*
X80833000Y-109982000D02*
X80833000Y-109027000D01*
X80833000Y-109027000D02*
X80010000Y-108204000D01*
X80010000Y-108204000D02*
X73914000Y-108204000D01*
X73914000Y-108204000D02*
X71628000Y-105918000D01*
X71628000Y-105918000D02*
X71628000Y-98806000D01*
X67906899Y-98463101D02*
X67564000Y-98806000D01*
X68135501Y-98234499D02*
X67906899Y-98463101D01*
X71902321Y-98234499D02*
X68135501Y-98234499D01*
X72644000Y-98976178D02*
X71902321Y-98234499D01*
X72644000Y-105918000D02*
X72644000Y-98976178D01*
X74358275Y-107632275D02*
X72644000Y-105918000D01*
X80905675Y-107632275D02*
X74358275Y-107632275D01*
X82676000Y-109402600D02*
X80905675Y-107632275D01*
X82676000Y-109855000D02*
X82676000Y-109402600D01*
D36*
X95928000Y-127000000D02*
X95778000Y-127000000D01*
X95778000Y-127000000D02*
X93873000Y-125095000D01*
X93873000Y-125095000D02*
X92076000Y-125095000D01*
D11*
X96266000Y-138176000D02*
X100330000Y-138176000D01*
X95758000Y-137668000D02*
X96266000Y-138176000D01*
X93472000Y-135382000D02*
X95758000Y-137668000D01*
X84455000Y-126365000D02*
X93472000Y-135382000D01*
X82676000Y-126365000D02*
X84455000Y-126365000D01*
D36*
X82803000Y-126492000D02*
X82676000Y-126365000D01*
D11*
X99060000Y-137414000D02*
X98717101Y-137071101D01*
X98717101Y-137071101D02*
X96177101Y-137071101D01*
X96177101Y-137071101D02*
X84201000Y-125095000D01*
X84201000Y-125095000D02*
X82676000Y-125095000D01*
D36*
X101831140Y-99501960D02*
X99247960Y-99501960D01*
X98806000Y-94234000D02*
X99652000Y-93388000D01*
X99247960Y-99501960D02*
X98806000Y-99060000D01*
X98806000Y-99060000D02*
X98806000Y-94234000D01*
X99652000Y-93388000D02*
X101092000Y-93388000D01*
X101092000Y-91016000D02*
X101092000Y-93388000D01*
D11*
X80601822Y-128778000D02*
X74448309Y-128778000D01*
X88308000Y-136938600D02*
X88308000Y-136484178D01*
X88308000Y-136484178D02*
X80601822Y-128778000D01*
X74448309Y-128778000D02*
X70485000Y-124814691D01*
X71235600Y-123575000D02*
X71938000Y-123575000D01*
X70485000Y-124814691D02*
X70485000Y-124325600D01*
X70485000Y-124325600D02*
X71235600Y-123575000D01*
X88308000Y-135001000D02*
X88308000Y-137033000D01*
D36*
X100076000Y-97536000D02*
X99568000Y-97028000D01*
X99568000Y-97028000D02*
X99568000Y-95123000D01*
X101111050Y-97536000D02*
X100076000Y-97536000D01*
X101831140Y-97602040D02*
X101177090Y-97602040D01*
X101177090Y-97602040D02*
X101111050Y-97536000D01*
D11*
X88773000Y-92550000D02*
X90518000Y-92550000D01*
X90932000Y-92964000D02*
X90932000Y-93980000D01*
X90518000Y-92550000D02*
X90932000Y-92964000D01*
X76243000Y-120650000D02*
X75490600Y-120650000D01*
X75490600Y-120650000D02*
X73865600Y-119025000D01*
X73865600Y-119025000D02*
X72640400Y-119025000D01*
X72640400Y-119025000D02*
X71938000Y-119025000D01*
X76243000Y-118999000D02*
X75490600Y-118999000D01*
X75490600Y-118999000D02*
X74866600Y-118375000D01*
X74866600Y-118375000D02*
X72640400Y-118375000D01*
X72640400Y-118375000D02*
X71938000Y-118375000D01*
X76243000Y-117348000D02*
X75490600Y-117348000D01*
X75490600Y-117348000D02*
X75113600Y-117725000D01*
X75113600Y-117725000D02*
X72640400Y-117725000D01*
X72640400Y-117725000D02*
X71938000Y-117725000D01*
X73552000Y-117075000D02*
X74930000Y-115697000D01*
X74930000Y-115697000D02*
X76243000Y-115697000D01*
X71938000Y-117075000D02*
X73552000Y-117075000D01*
X102870000Y-90678000D02*
X103378000Y-90678000D01*
X103378000Y-90678000D02*
X103886000Y-90170000D01*
X108204000Y-86614000D02*
X108204000Y-88138000D01*
X105854500Y-86804500D02*
X106045000Y-86614000D01*
X105854500Y-88813640D02*
X105854500Y-86804500D01*
D36*
X94996000Y-110048000D02*
X96878000Y-110048000D01*
X96878000Y-110048000D02*
X97452000Y-109474000D01*
X92076000Y-109855000D02*
X94803000Y-109855000D01*
X94803000Y-109855000D02*
X94996000Y-110048000D01*
X95853000Y-123190000D02*
X97452000Y-123190000D01*
X94996000Y-122108000D02*
X94996000Y-122333000D01*
X94996000Y-122333000D02*
X95853000Y-123190000D01*
X93599000Y-122555000D02*
X94046000Y-122108000D01*
X94046000Y-122108000D02*
X94996000Y-122108000D01*
X92076000Y-122555000D02*
X93599000Y-122555000D01*
D11*
X78443000Y-120650000D02*
X79195400Y-120650000D01*
X79195400Y-120650000D02*
X79830400Y-120015000D01*
X79830400Y-120015000D02*
X82676000Y-120015000D01*
X78443000Y-115697000D02*
X79195400Y-115697000D01*
X81523600Y-116205000D02*
X82676000Y-116205000D01*
X79195400Y-115697000D02*
X79703400Y-116205000D01*
X79703400Y-116205000D02*
X81523600Y-116205000D01*
X80327500Y-117348000D02*
X80454500Y-117475000D01*
X80454500Y-117475000D02*
X82676000Y-117475000D01*
X78443000Y-117348000D02*
X80327500Y-117348000D01*
X78443000Y-118999000D02*
X79195400Y-118999000D01*
X79449400Y-118745000D02*
X82676000Y-118745000D01*
X79195400Y-118999000D02*
X79449400Y-118745000D01*
D36*
X92076000Y-121285000D02*
X93330000Y-121285000D01*
X93330000Y-121285000D02*
X93457000Y-121158000D01*
X93457000Y-121158000D02*
X96598000Y-121158000D01*
X96598000Y-121158000D02*
X97452000Y-121158000D01*
D11*
X92203000Y-121158000D02*
X92076000Y-121285000D01*
D36*
X92076000Y-117475000D02*
X95801000Y-117475000D01*
X95801000Y-117475000D02*
X95928000Y-117602000D01*
X95928000Y-115062000D02*
X92203000Y-115062000D01*
X92203000Y-115062000D02*
X92076000Y-114935000D01*
X92076000Y-111125000D02*
X93330000Y-111125000D01*
X93330000Y-111125000D02*
X93386401Y-111068599D01*
X93386401Y-111068599D02*
X96160599Y-111068599D01*
X96160599Y-111068599D02*
X96598000Y-111506000D01*
X96598000Y-111506000D02*
X97452000Y-111506000D01*
D11*
X73449001Y-123083601D02*
X73358266Y-122992866D01*
X73358266Y-122992866D02*
X73125044Y-122992866D01*
X72407178Y-122275000D02*
X71938000Y-122275000D01*
X73125044Y-122992866D02*
X72407178Y-122275000D01*
X73358266Y-122992866D02*
X73618901Y-123253501D01*
X69850000Y-138049000D02*
X69850000Y-136880600D01*
X68910191Y-135940791D02*
X68910191Y-124600409D01*
X68910191Y-124600409D02*
X71235600Y-122275000D01*
X71235600Y-122275000D02*
X71938000Y-122275000D01*
X69850000Y-136880600D02*
X68910191Y-135940791D01*
X75152000Y-124333000D02*
X75377000Y-124333000D01*
X74072501Y-123253501D02*
X75152000Y-124333000D01*
X73618901Y-123253501D02*
X74072501Y-123253501D01*
X83870066Y-113665000D02*
X83828400Y-113665000D01*
X83828400Y-113665000D02*
X82676000Y-113665000D01*
X84632810Y-122631190D02*
X84632810Y-114427744D01*
X83967601Y-123296399D02*
X84632810Y-122631190D01*
X76638601Y-123296399D02*
X83967601Y-123296399D01*
X75602000Y-124333000D02*
X76638601Y-123296399D01*
X84632810Y-114427744D02*
X83870066Y-113665000D01*
X75377000Y-124333000D02*
X75602000Y-124333000D01*
X82676000Y-122555000D02*
X81523600Y-122555000D01*
X72390000Y-138201400D02*
X71297790Y-139293610D01*
X70407856Y-121101256D02*
X71633190Y-121101256D01*
X72390000Y-138049000D02*
X72390000Y-138201400D01*
X71297790Y-139293610D02*
X69397592Y-139293610D01*
X69397592Y-139293610D02*
X68605381Y-138501399D01*
X68605381Y-138501399D02*
X68605381Y-122903731D01*
X68605381Y-122903731D02*
X70407856Y-121101256D01*
X74624600Y-122555000D02*
X75377000Y-122555000D01*
X73926099Y-121856499D02*
X74624600Y-122555000D01*
X73680321Y-121856499D02*
X73926099Y-121856499D01*
X72798822Y-120975000D02*
X73680321Y-121856499D01*
X71938000Y-120975000D02*
X72798822Y-120975000D01*
X75602000Y-122555000D02*
X76364000Y-121793000D01*
X75377000Y-122555000D02*
X75602000Y-122555000D01*
X80761600Y-121793000D02*
X80905635Y-121937035D01*
X76364000Y-121793000D02*
X80761600Y-121793000D01*
X80905635Y-121937035D02*
X80825099Y-121856499D01*
X81523600Y-122555000D02*
X80905635Y-121937035D01*
D36*
G36*
X105029000Y-87572250D02*
X105007264Y-87604452D01*
X104965210Y-87814150D01*
X104965210Y-88960640D01*
X104881000Y-88960640D01*
X104881000Y-86012250D01*
X104881000Y-84963000D01*
X104881000Y-84709000D01*
X104881000Y-83659750D01*
X104722250Y-83501000D01*
X103881691Y-83501000D01*
X103648302Y-83597673D01*
X103469673Y-83776301D01*
X103373000Y-84009690D01*
X103373000Y-84262309D01*
X103373000Y-84550250D01*
X103531750Y-84709000D01*
X104881000Y-84709000D01*
X104881000Y-84963000D01*
X103531750Y-84963000D01*
X103373000Y-85121750D01*
X103373000Y-85409691D01*
X103373000Y-85662310D01*
X103469673Y-85895699D01*
X103648302Y-86074327D01*
X103881691Y-86171000D01*
X104722250Y-86171000D01*
X104881000Y-86012250D01*
X104881000Y-88960640D01*
X104777540Y-88960640D01*
X104777540Y-88940640D01*
X104777540Y-88686640D01*
X104777540Y-87337900D01*
X104618790Y-87179150D01*
X104432791Y-87179150D01*
X104199402Y-87275823D01*
X104020773Y-87454451D01*
X103924100Y-87687840D01*
X103924100Y-87940459D01*
X103924100Y-88527890D01*
X104082850Y-88686640D01*
X104777540Y-88686640D01*
X104777540Y-88940640D01*
X104082850Y-88940640D01*
X103996490Y-89027000D01*
X102177000Y-89027000D01*
X102177000Y-88530250D01*
X102177000Y-88089691D01*
X102080327Y-87856302D01*
X101901699Y-87677673D01*
X101668310Y-87581000D01*
X101415691Y-87581000D01*
X101377750Y-87581000D01*
X101219000Y-87739750D01*
X101219000Y-88689000D01*
X102018250Y-88689000D01*
X102177000Y-88530250D01*
X102177000Y-89027000D01*
X102102250Y-89027000D01*
X102018250Y-88943000D01*
X101219000Y-88943000D01*
X101219000Y-88963000D01*
X100965000Y-88963000D01*
X100965000Y-88943000D01*
X100965000Y-88689000D01*
X100965000Y-87739750D01*
X100806250Y-87581000D01*
X100768309Y-87581000D01*
X100515690Y-87581000D01*
X100292069Y-87673626D01*
X100292069Y-84642337D01*
X100143507Y-84282788D01*
X99868659Y-84007460D01*
X99509370Y-83858270D01*
X99120337Y-83857931D01*
X98760788Y-84006493D01*
X98485460Y-84281341D01*
X98336270Y-84640630D01*
X98335931Y-85029663D01*
X98484493Y-85389212D01*
X98759341Y-85664540D01*
X99118630Y-85813730D01*
X99507663Y-85814069D01*
X99867212Y-85665507D01*
X100142540Y-85390659D01*
X100291730Y-85031370D01*
X100292069Y-84642337D01*
X100292069Y-87673626D01*
X100282301Y-87677673D01*
X100103673Y-87856302D01*
X100007000Y-88089691D01*
X100007000Y-88530250D01*
X100165750Y-88689000D01*
X100965000Y-88689000D01*
X100965000Y-88943000D01*
X100165750Y-88943000D01*
X100081750Y-89027000D01*
X99129000Y-89027000D01*
X99129000Y-88530250D01*
X99129000Y-88089691D01*
X99032327Y-87856302D01*
X98853699Y-87677673D01*
X98620310Y-87581000D01*
X98367691Y-87581000D01*
X98329750Y-87581000D01*
X98171000Y-87739750D01*
X98171000Y-88689000D01*
X98970250Y-88689000D01*
X99129000Y-88530250D01*
X99129000Y-89027000D01*
X99054250Y-89027000D01*
X98970250Y-88943000D01*
X98171000Y-88943000D01*
X98171000Y-88963000D01*
X97917000Y-88963000D01*
X97917000Y-88943000D01*
X97917000Y-88689000D01*
X97917000Y-87739750D01*
X97758250Y-87581000D01*
X97720309Y-87581000D01*
X97467690Y-87581000D01*
X97234301Y-87677673D01*
X97055673Y-87856302D01*
X96959000Y-88089691D01*
X96959000Y-88530250D01*
X97117750Y-88689000D01*
X97917000Y-88689000D01*
X97917000Y-88943000D01*
X97117750Y-88943000D01*
X97033750Y-89027000D01*
X93541000Y-89027000D01*
X93541000Y-88530250D01*
X93541000Y-88089691D01*
X93444327Y-87856302D01*
X93265699Y-87677673D01*
X93032310Y-87581000D01*
X92779691Y-87581000D01*
X92741750Y-87581000D01*
X92583000Y-87739750D01*
X92583000Y-88689000D01*
X93382250Y-88689000D01*
X93541000Y-88530250D01*
X93541000Y-89027000D01*
X93466250Y-89027000D01*
X93382250Y-88943000D01*
X92583000Y-88943000D01*
X92583000Y-88963000D01*
X92329000Y-88963000D01*
X92329000Y-88943000D01*
X92329000Y-88689000D01*
X92329000Y-87739750D01*
X92170250Y-87581000D01*
X92132309Y-87581000D01*
X91879690Y-87581000D01*
X91646301Y-87677673D01*
X91467673Y-87856302D01*
X91371000Y-88089691D01*
X91371000Y-88530250D01*
X91529750Y-88689000D01*
X92329000Y-88689000D01*
X92329000Y-88943000D01*
X91529750Y-88943000D01*
X91445750Y-89027000D01*
X89836802Y-89027000D01*
X89749698Y-88968204D01*
X89540000Y-88926150D01*
X87540000Y-88926150D01*
X87336617Y-88965611D01*
X87243162Y-89027000D01*
X86815395Y-89027000D01*
X86487000Y-89355395D01*
X86487000Y-91140000D01*
X86487000Y-91171750D01*
X86360000Y-91298750D01*
X86360000Y-92423000D01*
X86380000Y-92423000D01*
X86380000Y-92677000D01*
X86360000Y-92677000D01*
X86360000Y-92697000D01*
X86106000Y-92697000D01*
X86106000Y-92677000D01*
X86086000Y-92677000D01*
X86086000Y-92423000D01*
X86106000Y-92423000D01*
X86106000Y-91298750D01*
X85979000Y-91171750D01*
X85979000Y-91140000D01*
X85979000Y-89027000D01*
X85476802Y-89027000D01*
X85389698Y-88968204D01*
X85180000Y-88926150D01*
X83180000Y-88926150D01*
X82976617Y-88965611D01*
X82883162Y-89027000D01*
X82296000Y-89027000D01*
X73654000Y-89027000D01*
X73654000Y-88997750D01*
X73654000Y-88426250D01*
X73654000Y-87985691D01*
X73557327Y-87752302D01*
X73378699Y-87573673D01*
X73145310Y-87477000D01*
X72929750Y-87477000D01*
X72771000Y-87635750D01*
X72771000Y-88585000D01*
X73495250Y-88585000D01*
X73654000Y-88426250D01*
X73654000Y-88997750D01*
X73495250Y-88839000D01*
X72771000Y-88839000D01*
X72771000Y-88859000D01*
X72517000Y-88859000D01*
X72517000Y-88839000D01*
X72517000Y-88585000D01*
X72517000Y-87635750D01*
X72358250Y-87477000D01*
X72142690Y-87477000D01*
X71909301Y-87573673D01*
X71730673Y-87752302D01*
X71634000Y-87985691D01*
X71634000Y-88426250D01*
X71792750Y-88585000D01*
X72517000Y-88585000D01*
X72517000Y-88839000D01*
X71792750Y-88839000D01*
X71634000Y-88997750D01*
X71634000Y-89027000D01*
X70860000Y-89027000D01*
X70860000Y-88997750D01*
X70860000Y-88426250D01*
X70860000Y-87985691D01*
X70763327Y-87752302D01*
X70584699Y-87573673D01*
X70351310Y-87477000D01*
X70135750Y-87477000D01*
X69977000Y-87635750D01*
X69977000Y-88585000D01*
X70701250Y-88585000D01*
X70860000Y-88426250D01*
X70860000Y-88997750D01*
X70701250Y-88839000D01*
X69977000Y-88839000D01*
X69977000Y-88859000D01*
X69723000Y-88859000D01*
X69723000Y-88839000D01*
X69723000Y-88585000D01*
X69723000Y-87635750D01*
X69564250Y-87477000D01*
X69348690Y-87477000D01*
X69115301Y-87573673D01*
X68936673Y-87752302D01*
X68840000Y-87985691D01*
X68840000Y-88426250D01*
X68998750Y-88585000D01*
X69723000Y-88585000D01*
X69723000Y-88839000D01*
X68998750Y-88839000D01*
X68840000Y-88997750D01*
X68840000Y-89027000D01*
X68127737Y-89027000D01*
X68117707Y-88418605D01*
X67805665Y-87665270D01*
X67476487Y-87493258D01*
X67296882Y-87672863D01*
X67296882Y-87313653D01*
X67124870Y-86984475D01*
X66297842Y-86657774D01*
X65408745Y-86672433D01*
X64655410Y-86984475D01*
X64483398Y-87313653D01*
X65890140Y-88720395D01*
X67296882Y-87313653D01*
X67296882Y-87672863D01*
X66069745Y-88900000D01*
X66083887Y-88914142D01*
X65971030Y-89027000D01*
X65809250Y-89027000D01*
X65696392Y-88914142D01*
X65710535Y-88900000D01*
X64303793Y-87493258D01*
X63974615Y-87665270D01*
X63647914Y-88492298D01*
X63656729Y-89027000D01*
X62357000Y-89027000D01*
X62357000Y-83133400D01*
X105029000Y-83133400D01*
X105029000Y-87572250D01*
X105029000Y-87572250D01*
G37*
X105029000Y-87572250D02*
X105007264Y-87604452D01*
X104965210Y-87814150D01*
X104965210Y-88960640D01*
X104881000Y-88960640D01*
X104881000Y-86012250D01*
X104881000Y-84963000D01*
X104881000Y-84709000D01*
X104881000Y-83659750D01*
X104722250Y-83501000D01*
X103881691Y-83501000D01*
X103648302Y-83597673D01*
X103469673Y-83776301D01*
X103373000Y-84009690D01*
X103373000Y-84262309D01*
X103373000Y-84550250D01*
X103531750Y-84709000D01*
X104881000Y-84709000D01*
X104881000Y-84963000D01*
X103531750Y-84963000D01*
X103373000Y-85121750D01*
X103373000Y-85409691D01*
X103373000Y-85662310D01*
X103469673Y-85895699D01*
X103648302Y-86074327D01*
X103881691Y-86171000D01*
X104722250Y-86171000D01*
X104881000Y-86012250D01*
X104881000Y-88960640D01*
X104777540Y-88960640D01*
X104777540Y-88940640D01*
X104777540Y-88686640D01*
X104777540Y-87337900D01*
X104618790Y-87179150D01*
X104432791Y-87179150D01*
X104199402Y-87275823D01*
X104020773Y-87454451D01*
X103924100Y-87687840D01*
X103924100Y-87940459D01*
X103924100Y-88527890D01*
X104082850Y-88686640D01*
X104777540Y-88686640D01*
X104777540Y-88940640D01*
X104082850Y-88940640D01*
X103996490Y-89027000D01*
X102177000Y-89027000D01*
X102177000Y-88530250D01*
X102177000Y-88089691D01*
X102080327Y-87856302D01*
X101901699Y-87677673D01*
X101668310Y-87581000D01*
X101415691Y-87581000D01*
X101377750Y-87581000D01*
X101219000Y-87739750D01*
X101219000Y-88689000D01*
X102018250Y-88689000D01*
X102177000Y-88530250D01*
X102177000Y-89027000D01*
X102102250Y-89027000D01*
X102018250Y-88943000D01*
X101219000Y-88943000D01*
X101219000Y-88963000D01*
X100965000Y-88963000D01*
X100965000Y-88943000D01*
X100965000Y-88689000D01*
X100965000Y-87739750D01*
X100806250Y-87581000D01*
X100768309Y-87581000D01*
X100515690Y-87581000D01*
X100292069Y-87673626D01*
X100292069Y-84642337D01*
X100143507Y-84282788D01*
X99868659Y-84007460D01*
X99509370Y-83858270D01*
X99120337Y-83857931D01*
X98760788Y-84006493D01*
X98485460Y-84281341D01*
X98336270Y-84640630D01*
X98335931Y-85029663D01*
X98484493Y-85389212D01*
X98759341Y-85664540D01*
X99118630Y-85813730D01*
X99507663Y-85814069D01*
X99867212Y-85665507D01*
X100142540Y-85390659D01*
X100291730Y-85031370D01*
X100292069Y-84642337D01*
X100292069Y-87673626D01*
X100282301Y-87677673D01*
X100103673Y-87856302D01*
X100007000Y-88089691D01*
X100007000Y-88530250D01*
X100165750Y-88689000D01*
X100965000Y-88689000D01*
X100965000Y-88943000D01*
X100165750Y-88943000D01*
X100081750Y-89027000D01*
X99129000Y-89027000D01*
X99129000Y-88530250D01*
X99129000Y-88089691D01*
X99032327Y-87856302D01*
X98853699Y-87677673D01*
X98620310Y-87581000D01*
X98367691Y-87581000D01*
X98329750Y-87581000D01*
X98171000Y-87739750D01*
X98171000Y-88689000D01*
X98970250Y-88689000D01*
X99129000Y-88530250D01*
X99129000Y-89027000D01*
X99054250Y-89027000D01*
X98970250Y-88943000D01*
X98171000Y-88943000D01*
X98171000Y-88963000D01*
X97917000Y-88963000D01*
X97917000Y-88943000D01*
X97917000Y-88689000D01*
X97917000Y-87739750D01*
X97758250Y-87581000D01*
X97720309Y-87581000D01*
X97467690Y-87581000D01*
X97234301Y-87677673D01*
X97055673Y-87856302D01*
X96959000Y-88089691D01*
X96959000Y-88530250D01*
X97117750Y-88689000D01*
X97917000Y-88689000D01*
X97917000Y-88943000D01*
X97117750Y-88943000D01*
X97033750Y-89027000D01*
X93541000Y-89027000D01*
X93541000Y-88530250D01*
X93541000Y-88089691D01*
X93444327Y-87856302D01*
X93265699Y-87677673D01*
X93032310Y-87581000D01*
X92779691Y-87581000D01*
X92741750Y-87581000D01*
X92583000Y-87739750D01*
X92583000Y-88689000D01*
X93382250Y-88689000D01*
X93541000Y-88530250D01*
X93541000Y-89027000D01*
X93466250Y-89027000D01*
X93382250Y-88943000D01*
X92583000Y-88943000D01*
X92583000Y-88963000D01*
X92329000Y-88963000D01*
X92329000Y-88943000D01*
X92329000Y-88689000D01*
X92329000Y-87739750D01*
X92170250Y-87581000D01*
X92132309Y-87581000D01*
X91879690Y-87581000D01*
X91646301Y-87677673D01*
X91467673Y-87856302D01*
X91371000Y-88089691D01*
X91371000Y-88530250D01*
X91529750Y-88689000D01*
X92329000Y-88689000D01*
X92329000Y-88943000D01*
X91529750Y-88943000D01*
X91445750Y-89027000D01*
X89836802Y-89027000D01*
X89749698Y-88968204D01*
X89540000Y-88926150D01*
X87540000Y-88926150D01*
X87336617Y-88965611D01*
X87243162Y-89027000D01*
X86815395Y-89027000D01*
X86487000Y-89355395D01*
X86487000Y-91140000D01*
X86487000Y-91171750D01*
X86360000Y-91298750D01*
X86360000Y-92423000D01*
X86380000Y-92423000D01*
X86380000Y-92677000D01*
X86360000Y-92677000D01*
X86360000Y-92697000D01*
X86106000Y-92697000D01*
X86106000Y-92677000D01*
X86086000Y-92677000D01*
X86086000Y-92423000D01*
X86106000Y-92423000D01*
X86106000Y-91298750D01*
X85979000Y-91171750D01*
X85979000Y-91140000D01*
X85979000Y-89027000D01*
X85476802Y-89027000D01*
X85389698Y-88968204D01*
X85180000Y-88926150D01*
X83180000Y-88926150D01*
X82976617Y-88965611D01*
X82883162Y-89027000D01*
X82296000Y-89027000D01*
X73654000Y-89027000D01*
X73654000Y-88997750D01*
X73654000Y-88426250D01*
X73654000Y-87985691D01*
X73557327Y-87752302D01*
X73378699Y-87573673D01*
X73145310Y-87477000D01*
X72929750Y-87477000D01*
X72771000Y-87635750D01*
X72771000Y-88585000D01*
X73495250Y-88585000D01*
X73654000Y-88426250D01*
X73654000Y-88997750D01*
X73495250Y-88839000D01*
X72771000Y-88839000D01*
X72771000Y-88859000D01*
X72517000Y-88859000D01*
X72517000Y-88839000D01*
X72517000Y-88585000D01*
X72517000Y-87635750D01*
X72358250Y-87477000D01*
X72142690Y-87477000D01*
X71909301Y-87573673D01*
X71730673Y-87752302D01*
X71634000Y-87985691D01*
X71634000Y-88426250D01*
X71792750Y-88585000D01*
X72517000Y-88585000D01*
X72517000Y-88839000D01*
X71792750Y-88839000D01*
X71634000Y-88997750D01*
X71634000Y-89027000D01*
X70860000Y-89027000D01*
X70860000Y-88997750D01*
X70860000Y-88426250D01*
X70860000Y-87985691D01*
X70763327Y-87752302D01*
X70584699Y-87573673D01*
X70351310Y-87477000D01*
X70135750Y-87477000D01*
X69977000Y-87635750D01*
X69977000Y-88585000D01*
X70701250Y-88585000D01*
X70860000Y-88426250D01*
X70860000Y-88997750D01*
X70701250Y-88839000D01*
X69977000Y-88839000D01*
X69977000Y-88859000D01*
X69723000Y-88859000D01*
X69723000Y-88839000D01*
X69723000Y-88585000D01*
X69723000Y-87635750D01*
X69564250Y-87477000D01*
X69348690Y-87477000D01*
X69115301Y-87573673D01*
X68936673Y-87752302D01*
X68840000Y-87985691D01*
X68840000Y-88426250D01*
X68998750Y-88585000D01*
X69723000Y-88585000D01*
X69723000Y-88839000D01*
X68998750Y-88839000D01*
X68840000Y-88997750D01*
X68840000Y-89027000D01*
X68127737Y-89027000D01*
X68117707Y-88418605D01*
X67805665Y-87665270D01*
X67476487Y-87493258D01*
X67296882Y-87672863D01*
X67296882Y-87313653D01*
X67124870Y-86984475D01*
X66297842Y-86657774D01*
X65408745Y-86672433D01*
X64655410Y-86984475D01*
X64483398Y-87313653D01*
X65890140Y-88720395D01*
X67296882Y-87313653D01*
X67296882Y-87672863D01*
X66069745Y-88900000D01*
X66083887Y-88914142D01*
X65971030Y-89027000D01*
X65809250Y-89027000D01*
X65696392Y-88914142D01*
X65710535Y-88900000D01*
X64303793Y-87493258D01*
X63974615Y-87665270D01*
X63647914Y-88492298D01*
X63656729Y-89027000D01*
X62357000Y-89027000D01*
X62357000Y-83133400D01*
X105029000Y-83133400D01*
X105029000Y-87572250D01*
G36*
X85217000Y-99695000D02*
X82169000Y-99695000D01*
X82169000Y-95885000D01*
X83693000Y-95885000D01*
X83693000Y-97409000D01*
X85217000Y-97409000D01*
X85217000Y-99695000D01*
X85217000Y-99695000D01*
G37*
X85217000Y-99695000D02*
X82169000Y-99695000D01*
X82169000Y-95885000D01*
X83693000Y-95885000D01*
X83693000Y-97409000D01*
X85217000Y-97409000D01*
X85217000Y-99695000D01*
G36*
X89535000Y-101600000D02*
X86106000Y-101600000D01*
X86106000Y-99441000D01*
X88519000Y-99441000D01*
X88519000Y-97409000D01*
X89535000Y-97409000D01*
X89535000Y-100286075D01*
X89514560Y-100388000D01*
X89514560Y-101288000D01*
X89535000Y-101393349D01*
X89535000Y-101600000D01*
X89535000Y-101600000D01*
G37*
X89535000Y-101600000D02*
X86106000Y-101600000D01*
X86106000Y-99441000D01*
X88519000Y-99441000D01*
X88519000Y-97409000D01*
X89535000Y-97409000D01*
X89535000Y-100286075D01*
X89514560Y-100388000D01*
X89514560Y-101288000D01*
X89535000Y-101393349D01*
X89535000Y-101600000D01*
G36*
X96901000Y-108376560D02*
X96852000Y-108376560D01*
X96609877Y-108423537D01*
X96397073Y-108563327D01*
X96382443Y-108585000D01*
X93996510Y-108585000D01*
X93996510Y-106378320D01*
X93996510Y-106125701D01*
X93996510Y-105187750D01*
X93996510Y-104616250D01*
X93996510Y-103678299D01*
X93996510Y-103425680D01*
X93899837Y-103192291D01*
X93721208Y-103013663D01*
X93487819Y-102916990D01*
X91647010Y-102916990D01*
X91488260Y-103075740D01*
X91488260Y-104775000D01*
X93837760Y-104775000D01*
X93996510Y-104616250D01*
X93996510Y-105187750D01*
X93837760Y-105029000D01*
X91488260Y-105029000D01*
X91488260Y-106728260D01*
X91647010Y-106887010D01*
X93487819Y-106887010D01*
X93721208Y-106790337D01*
X93899837Y-106611709D01*
X93996510Y-106378320D01*
X93996510Y-108585000D01*
X92583000Y-108585000D01*
X92583000Y-108907560D01*
X91234260Y-108907560D01*
X91234260Y-106728260D01*
X91234260Y-105029000D01*
X91234260Y-104775000D01*
X91234260Y-103075740D01*
X91075510Y-102916990D01*
X89234701Y-102916990D01*
X89001312Y-103013663D01*
X88822683Y-103192291D01*
X88726010Y-103425680D01*
X88726010Y-103678299D01*
X88726010Y-104616250D01*
X88884760Y-104775000D01*
X91234260Y-104775000D01*
X91234260Y-105029000D01*
X88884760Y-105029000D01*
X88726010Y-105187750D01*
X88726010Y-106125701D01*
X88726010Y-106378320D01*
X88822683Y-106611709D01*
X89001312Y-106790337D01*
X89234701Y-106887010D01*
X91075510Y-106887010D01*
X91234260Y-106728260D01*
X91234260Y-108907560D01*
X91076000Y-108907560D01*
X90833877Y-108954537D01*
X90621073Y-109094327D01*
X90478623Y-109305360D01*
X90428560Y-109555000D01*
X90428560Y-110155000D01*
X90475537Y-110397123D01*
X90536396Y-110489770D01*
X90478623Y-110575360D01*
X90428560Y-110825000D01*
X90428560Y-111425000D01*
X90475537Y-111667123D01*
X90536396Y-111759770D01*
X90478623Y-111845360D01*
X90428560Y-112095000D01*
X90428560Y-112695000D01*
X90475537Y-112937123D01*
X90530963Y-113021499D01*
X90441000Y-113238690D01*
X90441000Y-113379250D01*
X90599750Y-113538000D01*
X91949000Y-113538000D01*
X91949000Y-113518000D01*
X92203000Y-113518000D01*
X92203000Y-113538000D01*
X92223000Y-113538000D01*
X92223000Y-113792000D01*
X92203000Y-113792000D01*
X92203000Y-113812000D01*
X91949000Y-113812000D01*
X91949000Y-113792000D01*
X90599750Y-113792000D01*
X90441000Y-113950750D01*
X90441000Y-114091310D01*
X90530788Y-114308078D01*
X90478623Y-114385360D01*
X90428560Y-114635000D01*
X90428560Y-115235000D01*
X90475537Y-115477123D01*
X90536396Y-115569770D01*
X90478623Y-115655360D01*
X90428560Y-115905000D01*
X90428560Y-116505000D01*
X90475537Y-116747123D01*
X90536396Y-116839770D01*
X90478623Y-116925360D01*
X90428560Y-117175000D01*
X90428560Y-117775000D01*
X90475537Y-118017123D01*
X90530963Y-118101499D01*
X90441000Y-118318690D01*
X90441000Y-118459250D01*
X90599750Y-118618000D01*
X91949000Y-118618000D01*
X91949000Y-118598000D01*
X92203000Y-118598000D01*
X92203000Y-118618000D01*
X92223000Y-118618000D01*
X92223000Y-118872000D01*
X92203000Y-118872000D01*
X92203000Y-118892000D01*
X91949000Y-118892000D01*
X91949000Y-118872000D01*
X90599750Y-118872000D01*
X90441000Y-119030750D01*
X90441000Y-119171310D01*
X90530788Y-119388078D01*
X90478623Y-119465360D01*
X90428560Y-119715000D01*
X90428560Y-120315000D01*
X90475537Y-120557123D01*
X90536396Y-120649770D01*
X90478623Y-120735360D01*
X90428560Y-120985000D01*
X90428560Y-121585000D01*
X90475537Y-121827123D01*
X90536396Y-121919770D01*
X90478623Y-122005360D01*
X90470272Y-122047000D01*
X87699000Y-122047000D01*
X87699000Y-103934309D01*
X87699000Y-103493750D01*
X87540250Y-103335000D01*
X86741000Y-103335000D01*
X86741000Y-104284250D01*
X86899750Y-104443000D01*
X86937691Y-104443000D01*
X87190310Y-104443000D01*
X87423699Y-104346327D01*
X87602327Y-104167698D01*
X87699000Y-103934309D01*
X87699000Y-122047000D01*
X85979000Y-122047000D01*
X85979000Y-117818010D01*
X86045663Y-117818069D01*
X86405212Y-117669507D01*
X86680540Y-117394659D01*
X86829730Y-117035370D01*
X86830069Y-116646337D01*
X86681507Y-116286788D01*
X86599959Y-116205098D01*
X86680540Y-116124659D01*
X86829730Y-115765370D01*
X86830069Y-115376337D01*
X86681507Y-115016788D01*
X86487000Y-114821941D01*
X86487000Y-104284250D01*
X86487000Y-103335000D01*
X85687750Y-103335000D01*
X85529000Y-103493750D01*
X85529000Y-103934309D01*
X85625673Y-104167698D01*
X85804301Y-104346327D01*
X86037690Y-104443000D01*
X86290309Y-104443000D01*
X86328250Y-104443000D01*
X86487000Y-104284250D01*
X86487000Y-114821941D01*
X86406659Y-114741460D01*
X86047370Y-114592270D01*
X85979000Y-114592210D01*
X85979000Y-107823000D01*
X82102188Y-107823000D01*
X81408569Y-107129381D01*
X81177840Y-106975212D01*
X80905675Y-106921075D01*
X78613000Y-106921075D01*
X78613000Y-98635820D01*
X78613000Y-97536000D01*
X78613000Y-97282000D01*
X78613000Y-96182180D01*
X78454250Y-96023430D01*
X76215819Y-96023430D01*
X75963200Y-96023430D01*
X75729811Y-96120103D01*
X75551183Y-96298732D01*
X75454510Y-96532121D01*
X75454510Y-97123250D01*
X75613260Y-97282000D01*
X78613000Y-97282000D01*
X78613000Y-97536000D01*
X75613260Y-97536000D01*
X75454510Y-97694750D01*
X75454510Y-98285879D01*
X75551183Y-98519268D01*
X75729811Y-98697897D01*
X75963200Y-98794570D01*
X76215819Y-98794570D01*
X78454250Y-98794570D01*
X78613000Y-98635820D01*
X78613000Y-106921075D01*
X77877000Y-106921075D01*
X77877000Y-105911310D01*
X77877000Y-105695750D01*
X77877000Y-105124250D01*
X77877000Y-104908690D01*
X77780327Y-104675301D01*
X77626025Y-104521000D01*
X77780327Y-104366699D01*
X77877000Y-104133310D01*
X77877000Y-103917750D01*
X77877000Y-103346250D01*
X77877000Y-103130690D01*
X77780327Y-102897301D01*
X77601698Y-102718673D01*
X77368309Y-102622000D01*
X76927750Y-102622000D01*
X76769000Y-102780750D01*
X76769000Y-103505000D01*
X77718250Y-103505000D01*
X77877000Y-103346250D01*
X77877000Y-103917750D01*
X77718250Y-103759000D01*
X76769000Y-103759000D01*
X76769000Y-104483250D01*
X76806750Y-104521000D01*
X76769000Y-104558750D01*
X76769000Y-105283000D01*
X77718250Y-105283000D01*
X77877000Y-105124250D01*
X77877000Y-105695750D01*
X77718250Y-105537000D01*
X76769000Y-105537000D01*
X76769000Y-106261250D01*
X76927750Y-106420000D01*
X77368309Y-106420000D01*
X77601698Y-106323327D01*
X77780327Y-106144699D01*
X77877000Y-105911310D01*
X77877000Y-106921075D01*
X75819000Y-106921075D01*
X75819000Y-106379949D01*
X75915691Y-106420000D01*
X76356250Y-106420000D01*
X76515000Y-106261250D01*
X76515000Y-105537000D01*
X76495000Y-105537000D01*
X76495000Y-105283000D01*
X76515000Y-105283000D01*
X76515000Y-104558750D01*
X76477250Y-104521000D01*
X76515000Y-104483250D01*
X76515000Y-103759000D01*
X76495000Y-103759000D01*
X76495000Y-103505000D01*
X76515000Y-103505000D01*
X76515000Y-102780750D01*
X76356250Y-102622000D01*
X75915691Y-102622000D01*
X75819000Y-102662050D01*
X75819000Y-101346000D01*
X75819000Y-100785395D01*
X75028695Y-99995090D01*
X74549000Y-99275547D01*
X74549000Y-98834055D01*
X74637730Y-98620370D01*
X74638069Y-98231337D01*
X74549000Y-98015772D01*
X74549000Y-94615000D01*
X81407000Y-94615000D01*
X81407000Y-96023430D01*
X81264181Y-96023430D01*
X79025750Y-96023430D01*
X78867000Y-96182180D01*
X78867000Y-97282000D01*
X78887000Y-97282000D01*
X78887000Y-97536000D01*
X78867000Y-97536000D01*
X78867000Y-98635820D01*
X79025750Y-98794570D01*
X81264181Y-98794570D01*
X81407000Y-98794570D01*
X81407000Y-98806000D01*
X81407000Y-99314000D01*
X81407000Y-99822000D01*
X81407000Y-100457000D01*
X85217000Y-100457000D01*
X85217000Y-102489000D01*
X85529000Y-102489000D01*
X85529000Y-102922250D01*
X85687750Y-103081000D01*
X86487000Y-103081000D01*
X86487000Y-103061000D01*
X86741000Y-103061000D01*
X86741000Y-103081000D01*
X87540250Y-103081000D01*
X87699000Y-102922250D01*
X87699000Y-102489000D01*
X92837000Y-102489000D01*
X96901000Y-102489000D01*
X96901000Y-102950628D01*
X96896367Y-102951527D01*
X96683563Y-103091317D01*
X96541113Y-103302350D01*
X96491050Y-103551990D01*
X96491050Y-106252010D01*
X96538027Y-106494133D01*
X96677817Y-106706937D01*
X96888850Y-106849387D01*
X96901000Y-106851823D01*
X96901000Y-107569000D01*
X96901000Y-108376560D01*
X96901000Y-108376560D01*
G37*
X96901000Y-108376560D02*
X96852000Y-108376560D01*
X96609877Y-108423537D01*
X96397073Y-108563327D01*
X96382443Y-108585000D01*
X93996510Y-108585000D01*
X93996510Y-106378320D01*
X93996510Y-106125701D01*
X93996510Y-105187750D01*
X93996510Y-104616250D01*
X93996510Y-103678299D01*
X93996510Y-103425680D01*
X93899837Y-103192291D01*
X93721208Y-103013663D01*
X93487819Y-102916990D01*
X91647010Y-102916990D01*
X91488260Y-103075740D01*
X91488260Y-104775000D01*
X93837760Y-104775000D01*
X93996510Y-104616250D01*
X93996510Y-105187750D01*
X93837760Y-105029000D01*
X91488260Y-105029000D01*
X91488260Y-106728260D01*
X91647010Y-106887010D01*
X93487819Y-106887010D01*
X93721208Y-106790337D01*
X93899837Y-106611709D01*
X93996510Y-106378320D01*
X93996510Y-108585000D01*
X92583000Y-108585000D01*
X92583000Y-108907560D01*
X91234260Y-108907560D01*
X91234260Y-106728260D01*
X91234260Y-105029000D01*
X91234260Y-104775000D01*
X91234260Y-103075740D01*
X91075510Y-102916990D01*
X89234701Y-102916990D01*
X89001312Y-103013663D01*
X88822683Y-103192291D01*
X88726010Y-103425680D01*
X88726010Y-103678299D01*
X88726010Y-104616250D01*
X88884760Y-104775000D01*
X91234260Y-104775000D01*
X91234260Y-105029000D01*
X88884760Y-105029000D01*
X88726010Y-105187750D01*
X88726010Y-106125701D01*
X88726010Y-106378320D01*
X88822683Y-106611709D01*
X89001312Y-106790337D01*
X89234701Y-106887010D01*
X91075510Y-106887010D01*
X91234260Y-106728260D01*
X91234260Y-108907560D01*
X91076000Y-108907560D01*
X90833877Y-108954537D01*
X90621073Y-109094327D01*
X90478623Y-109305360D01*
X90428560Y-109555000D01*
X90428560Y-110155000D01*
X90475537Y-110397123D01*
X90536396Y-110489770D01*
X90478623Y-110575360D01*
X90428560Y-110825000D01*
X90428560Y-111425000D01*
X90475537Y-111667123D01*
X90536396Y-111759770D01*
X90478623Y-111845360D01*
X90428560Y-112095000D01*
X90428560Y-112695000D01*
X90475537Y-112937123D01*
X90530963Y-113021499D01*
X90441000Y-113238690D01*
X90441000Y-113379250D01*
X90599750Y-113538000D01*
X91949000Y-113538000D01*
X91949000Y-113518000D01*
X92203000Y-113518000D01*
X92203000Y-113538000D01*
X92223000Y-113538000D01*
X92223000Y-113792000D01*
X92203000Y-113792000D01*
X92203000Y-113812000D01*
X91949000Y-113812000D01*
X91949000Y-113792000D01*
X90599750Y-113792000D01*
X90441000Y-113950750D01*
X90441000Y-114091310D01*
X90530788Y-114308078D01*
X90478623Y-114385360D01*
X90428560Y-114635000D01*
X90428560Y-115235000D01*
X90475537Y-115477123D01*
X90536396Y-115569770D01*
X90478623Y-115655360D01*
X90428560Y-115905000D01*
X90428560Y-116505000D01*
X90475537Y-116747123D01*
X90536396Y-116839770D01*
X90478623Y-116925360D01*
X90428560Y-117175000D01*
X90428560Y-117775000D01*
X90475537Y-118017123D01*
X90530963Y-118101499D01*
X90441000Y-118318690D01*
X90441000Y-118459250D01*
X90599750Y-118618000D01*
X91949000Y-118618000D01*
X91949000Y-118598000D01*
X92203000Y-118598000D01*
X92203000Y-118618000D01*
X92223000Y-118618000D01*
X92223000Y-118872000D01*
X92203000Y-118872000D01*
X92203000Y-118892000D01*
X91949000Y-118892000D01*
X91949000Y-118872000D01*
X90599750Y-118872000D01*
X90441000Y-119030750D01*
X90441000Y-119171310D01*
X90530788Y-119388078D01*
X90478623Y-119465360D01*
X90428560Y-119715000D01*
X90428560Y-120315000D01*
X90475537Y-120557123D01*
X90536396Y-120649770D01*
X90478623Y-120735360D01*
X90428560Y-120985000D01*
X90428560Y-121585000D01*
X90475537Y-121827123D01*
X90536396Y-121919770D01*
X90478623Y-122005360D01*
X90470272Y-122047000D01*
X87699000Y-122047000D01*
X87699000Y-103934309D01*
X87699000Y-103493750D01*
X87540250Y-103335000D01*
X86741000Y-103335000D01*
X86741000Y-104284250D01*
X86899750Y-104443000D01*
X86937691Y-104443000D01*
X87190310Y-104443000D01*
X87423699Y-104346327D01*
X87602327Y-104167698D01*
X87699000Y-103934309D01*
X87699000Y-122047000D01*
X85979000Y-122047000D01*
X85979000Y-117818010D01*
X86045663Y-117818069D01*
X86405212Y-117669507D01*
X86680540Y-117394659D01*
X86829730Y-117035370D01*
X86830069Y-116646337D01*
X86681507Y-116286788D01*
X86599959Y-116205098D01*
X86680540Y-116124659D01*
X86829730Y-115765370D01*
X86830069Y-115376337D01*
X86681507Y-115016788D01*
X86487000Y-114821941D01*
X86487000Y-104284250D01*
X86487000Y-103335000D01*
X85687750Y-103335000D01*
X85529000Y-103493750D01*
X85529000Y-103934309D01*
X85625673Y-104167698D01*
X85804301Y-104346327D01*
X86037690Y-104443000D01*
X86290309Y-104443000D01*
X86328250Y-104443000D01*
X86487000Y-104284250D01*
X86487000Y-114821941D01*
X86406659Y-114741460D01*
X86047370Y-114592270D01*
X85979000Y-114592210D01*
X85979000Y-107823000D01*
X82102188Y-107823000D01*
X81408569Y-107129381D01*
X81177840Y-106975212D01*
X80905675Y-106921075D01*
X78613000Y-106921075D01*
X78613000Y-98635820D01*
X78613000Y-97536000D01*
X78613000Y-97282000D01*
X78613000Y-96182180D01*
X78454250Y-96023430D01*
X76215819Y-96023430D01*
X75963200Y-96023430D01*
X75729811Y-96120103D01*
X75551183Y-96298732D01*
X75454510Y-96532121D01*
X75454510Y-97123250D01*
X75613260Y-97282000D01*
X78613000Y-97282000D01*
X78613000Y-97536000D01*
X75613260Y-97536000D01*
X75454510Y-97694750D01*
X75454510Y-98285879D01*
X75551183Y-98519268D01*
X75729811Y-98697897D01*
X75963200Y-98794570D01*
X76215819Y-98794570D01*
X78454250Y-98794570D01*
X78613000Y-98635820D01*
X78613000Y-106921075D01*
X77877000Y-106921075D01*
X77877000Y-105911310D01*
X77877000Y-105695750D01*
X77877000Y-105124250D01*
X77877000Y-104908690D01*
X77780327Y-104675301D01*
X77626025Y-104521000D01*
X77780327Y-104366699D01*
X77877000Y-104133310D01*
X77877000Y-103917750D01*
X77877000Y-103346250D01*
X77877000Y-103130690D01*
X77780327Y-102897301D01*
X77601698Y-102718673D01*
X77368309Y-102622000D01*
X76927750Y-102622000D01*
X76769000Y-102780750D01*
X76769000Y-103505000D01*
X77718250Y-103505000D01*
X77877000Y-103346250D01*
X77877000Y-103917750D01*
X77718250Y-103759000D01*
X76769000Y-103759000D01*
X76769000Y-104483250D01*
X76806750Y-104521000D01*
X76769000Y-104558750D01*
X76769000Y-105283000D01*
X77718250Y-105283000D01*
X77877000Y-105124250D01*
X77877000Y-105695750D01*
X77718250Y-105537000D01*
X76769000Y-105537000D01*
X76769000Y-106261250D01*
X76927750Y-106420000D01*
X77368309Y-106420000D01*
X77601698Y-106323327D01*
X77780327Y-106144699D01*
X77877000Y-105911310D01*
X77877000Y-106921075D01*
X75819000Y-106921075D01*
X75819000Y-106379949D01*
X75915691Y-106420000D01*
X76356250Y-106420000D01*
X76515000Y-106261250D01*
X76515000Y-105537000D01*
X76495000Y-105537000D01*
X76495000Y-105283000D01*
X76515000Y-105283000D01*
X76515000Y-104558750D01*
X76477250Y-104521000D01*
X76515000Y-104483250D01*
X76515000Y-103759000D01*
X76495000Y-103759000D01*
X76495000Y-103505000D01*
X76515000Y-103505000D01*
X76515000Y-102780750D01*
X76356250Y-102622000D01*
X75915691Y-102622000D01*
X75819000Y-102662050D01*
X75819000Y-101346000D01*
X75819000Y-100785395D01*
X75028695Y-99995090D01*
X74549000Y-99275547D01*
X74549000Y-98834055D01*
X74637730Y-98620370D01*
X74638069Y-98231337D01*
X74549000Y-98015772D01*
X74549000Y-94615000D01*
X81407000Y-94615000D01*
X81407000Y-96023430D01*
X81264181Y-96023430D01*
X79025750Y-96023430D01*
X78867000Y-96182180D01*
X78867000Y-97282000D01*
X78887000Y-97282000D01*
X78887000Y-97536000D01*
X78867000Y-97536000D01*
X78867000Y-98635820D01*
X79025750Y-98794570D01*
X81264181Y-98794570D01*
X81407000Y-98794570D01*
X81407000Y-98806000D01*
X81407000Y-99314000D01*
X81407000Y-99822000D01*
X81407000Y-100457000D01*
X85217000Y-100457000D01*
X85217000Y-102489000D01*
X85529000Y-102489000D01*
X85529000Y-102922250D01*
X85687750Y-103081000D01*
X86487000Y-103081000D01*
X86487000Y-103061000D01*
X86741000Y-103061000D01*
X86741000Y-103081000D01*
X87540250Y-103081000D01*
X87699000Y-102922250D01*
X87699000Y-102489000D01*
X92837000Y-102489000D01*
X96901000Y-102489000D01*
X96901000Y-102950628D01*
X96896367Y-102951527D01*
X96683563Y-103091317D01*
X96541113Y-103302350D01*
X96491050Y-103551990D01*
X96491050Y-106252010D01*
X96538027Y-106494133D01*
X96677817Y-106706937D01*
X96888850Y-106849387D01*
X96901000Y-106851823D01*
X96901000Y-107569000D01*
X96901000Y-108376560D01*
D11*
G36*
X127939800Y-106625078D02*
X125891079Y-107307984D01*
X125747846Y-107164501D01*
X125407221Y-107023061D01*
X125038397Y-107022739D01*
X124697526Y-107163585D01*
X124436501Y-107424154D01*
X124295061Y-107764779D01*
X124294995Y-107840012D01*
X121145634Y-108889800D01*
X119303802Y-108889800D01*
X119303802Y-108802000D01*
X119140200Y-108802000D01*
X119140200Y-108384550D01*
X119140200Y-107219450D01*
X119140200Y-106736319D01*
X119089930Y-106614957D01*
X118997043Y-106522070D01*
X118875681Y-106471800D01*
X118744319Y-106471800D01*
X118542550Y-106471800D01*
X118460000Y-106554350D01*
X118460000Y-107302000D01*
X119057650Y-107302000D01*
X119140200Y-107219450D01*
X119140200Y-108384550D01*
X119057650Y-108302000D01*
X118460000Y-108302000D01*
X118460000Y-108802000D01*
X117760000Y-108802000D01*
X117760000Y-108302000D01*
X117760000Y-107302000D01*
X117760000Y-106554350D01*
X117677450Y-106471800D01*
X117475681Y-106471800D01*
X117344319Y-106471800D01*
X117222957Y-106522070D01*
X117130070Y-106614957D01*
X117079800Y-106736319D01*
X117079800Y-107219450D01*
X117162350Y-107302000D01*
X117760000Y-107302000D01*
X117760000Y-108302000D01*
X117162350Y-108302000D01*
X117079800Y-108384550D01*
X117079800Y-108802000D01*
X116916198Y-108802000D01*
X116916198Y-108889800D01*
X116646483Y-108889800D01*
X116636776Y-108839767D01*
X116508170Y-108643987D01*
X116414550Y-108580792D01*
X116414550Y-108202730D01*
X116414550Y-108046879D01*
X116388098Y-107983020D01*
X116414550Y-107919161D01*
X116414550Y-107763310D01*
X116414550Y-107252770D01*
X116414550Y-107096919D01*
X116364280Y-106975557D01*
X116271393Y-106882670D01*
X116150031Y-106832400D01*
X116018669Y-106832400D01*
X115667155Y-106832400D01*
X115584605Y-106914950D01*
X115584605Y-107335320D01*
X116332000Y-107335320D01*
X116414550Y-107252770D01*
X116414550Y-107763310D01*
X116332000Y-107680760D01*
X115584605Y-107680760D01*
X115584605Y-107864910D01*
X115584605Y-108101130D01*
X115584605Y-108285280D01*
X116332000Y-108285280D01*
X116414550Y-108202730D01*
X116414550Y-108580792D01*
X116314019Y-108512934D01*
X116084350Y-108466875D01*
X115513200Y-108466875D01*
X115513200Y-105501681D01*
X115513200Y-105218550D01*
X115430650Y-105136000D01*
X114995500Y-105136000D01*
X114995500Y-105683650D01*
X115078050Y-105766200D01*
X115117319Y-105766200D01*
X115248681Y-105766200D01*
X115370043Y-105715930D01*
X115462930Y-105623043D01*
X115513200Y-105501681D01*
X115513200Y-108466875D01*
X114620500Y-108466875D01*
X114620500Y-105683650D01*
X114620500Y-105136000D01*
X114185350Y-105136000D01*
X114102800Y-105218550D01*
X114102800Y-105501681D01*
X114153070Y-105623043D01*
X114245957Y-105715930D01*
X114367319Y-105766200D01*
X114498681Y-105766200D01*
X114537950Y-105766200D01*
X114620500Y-105683650D01*
X114620500Y-108466875D01*
X114585115Y-108466875D01*
X114585115Y-108285280D01*
X114585115Y-108101130D01*
X114585115Y-107864910D01*
X114585115Y-107680760D01*
X114585115Y-107335320D01*
X114585115Y-106914950D01*
X114502565Y-106832400D01*
X114151051Y-106832400D01*
X114019689Y-106832400D01*
X113898327Y-106882670D01*
X113805440Y-106975557D01*
X113755170Y-107096919D01*
X113755170Y-107252770D01*
X113837720Y-107335320D01*
X114585115Y-107335320D01*
X114585115Y-107680760D01*
X113837720Y-107680760D01*
X113755170Y-107763310D01*
X113755170Y-107919161D01*
X113781621Y-107983020D01*
X113755170Y-108046879D01*
X113755170Y-108202730D01*
X113837720Y-108285280D01*
X114585115Y-108285280D01*
X114585115Y-108466875D01*
X114085370Y-108466875D01*
X113862617Y-108510094D01*
X113735200Y-108593793D01*
X113735200Y-105501681D01*
X113735200Y-105218550D01*
X113652650Y-105136000D01*
X113217500Y-105136000D01*
X113217500Y-105683650D01*
X113300050Y-105766200D01*
X113339319Y-105766200D01*
X113470681Y-105766200D01*
X113592043Y-105715930D01*
X113684930Y-105623043D01*
X113735200Y-105501681D01*
X113735200Y-108593793D01*
X113666837Y-108638700D01*
X113535784Y-108832851D01*
X113524363Y-108889800D01*
X113044763Y-108889800D01*
X113035056Y-108839767D01*
X112906450Y-108643987D01*
X112842500Y-108600820D01*
X112842500Y-105683650D01*
X112842500Y-105136000D01*
X112407350Y-105136000D01*
X112324800Y-105218550D01*
X112324800Y-105501681D01*
X112375070Y-105623043D01*
X112467957Y-105715930D01*
X112589319Y-105766200D01*
X112720681Y-105766200D01*
X112759950Y-105766200D01*
X112842500Y-105683650D01*
X112842500Y-108600820D01*
X112812830Y-108580792D01*
X112812830Y-108202730D01*
X112812830Y-108046879D01*
X112786378Y-107983020D01*
X112812830Y-107919161D01*
X112812830Y-107763310D01*
X112812830Y-107252770D01*
X112812830Y-107096919D01*
X112762560Y-106975557D01*
X112669673Y-106882670D01*
X112548311Y-106832400D01*
X112416949Y-106832400D01*
X112065435Y-106832400D01*
X111982885Y-106914950D01*
X111982885Y-107335320D01*
X112730280Y-107335320D01*
X112812830Y-107252770D01*
X112812830Y-107763310D01*
X112730280Y-107680760D01*
X111982885Y-107680760D01*
X111982885Y-107864910D01*
X111982885Y-108101130D01*
X111982885Y-108285280D01*
X112730280Y-108285280D01*
X112812830Y-108202730D01*
X112812830Y-108580792D01*
X112712299Y-108512934D01*
X112482630Y-108466875D01*
X111957200Y-108466875D01*
X111957200Y-105501681D01*
X111957200Y-105218550D01*
X111874650Y-105136000D01*
X111439500Y-105136000D01*
X111439500Y-105683650D01*
X111522050Y-105766200D01*
X111561319Y-105766200D01*
X111692681Y-105766200D01*
X111814043Y-105715930D01*
X111906930Y-105623043D01*
X111957200Y-105501681D01*
X111957200Y-108466875D01*
X111064500Y-108466875D01*
X111064500Y-105683650D01*
X111064500Y-105136000D01*
X110629350Y-105136000D01*
X110546800Y-105218550D01*
X110546800Y-105501681D01*
X110597070Y-105623043D01*
X110689957Y-105715930D01*
X110811319Y-105766200D01*
X110942681Y-105766200D01*
X110981950Y-105766200D01*
X111064500Y-105683650D01*
X111064500Y-108466875D01*
X110983395Y-108466875D01*
X110983395Y-108285280D01*
X110983395Y-108101130D01*
X110983395Y-107864910D01*
X110983395Y-107680760D01*
X110983395Y-107335320D01*
X110983395Y-106914950D01*
X110900845Y-106832400D01*
X110549331Y-106832400D01*
X110417969Y-106832400D01*
X110296607Y-106882670D01*
X110203720Y-106975557D01*
X110153450Y-107096919D01*
X110153450Y-107252770D01*
X110236000Y-107335320D01*
X110983395Y-107335320D01*
X110983395Y-107680760D01*
X110236000Y-107680760D01*
X110153450Y-107763310D01*
X110153450Y-107919161D01*
X110179901Y-107983020D01*
X110153450Y-108046879D01*
X110153450Y-108202730D01*
X110236000Y-108285280D01*
X110983395Y-108285280D01*
X110983395Y-108466875D01*
X110483650Y-108466875D01*
X110260897Y-108510094D01*
X110065117Y-108638700D01*
X110052200Y-108657836D01*
X110052200Y-105501681D01*
X110052200Y-105218550D01*
X109969650Y-105136000D01*
X109534500Y-105136000D01*
X109534500Y-105683650D01*
X109617050Y-105766200D01*
X109656319Y-105766200D01*
X109787681Y-105766200D01*
X109909043Y-105715930D01*
X110001930Y-105623043D01*
X110052200Y-105501681D01*
X110052200Y-108657836D01*
X109934064Y-108832851D01*
X109922643Y-108889800D01*
X109693645Y-108889800D01*
X109693645Y-107758000D01*
X109650426Y-107535247D01*
X109521820Y-107339467D01*
X109327669Y-107208414D01*
X109159500Y-107174688D01*
X109159500Y-105683650D01*
X109159500Y-105136000D01*
X108724350Y-105136000D01*
X108641800Y-105218550D01*
X108641800Y-105501681D01*
X108692070Y-105623043D01*
X108784957Y-105715930D01*
X108906319Y-105766200D01*
X109037681Y-105766200D01*
X109076950Y-105766200D01*
X109159500Y-105683650D01*
X109159500Y-107174688D01*
X109098000Y-107162355D01*
X108274200Y-107162355D01*
X108274200Y-105501681D01*
X108274200Y-105218550D01*
X108191650Y-105136000D01*
X107756500Y-105136000D01*
X107756500Y-105683650D01*
X107839050Y-105766200D01*
X107878319Y-105766200D01*
X108009681Y-105766200D01*
X108131043Y-105715930D01*
X108223930Y-105623043D01*
X108274200Y-105501681D01*
X108274200Y-107162355D01*
X107381500Y-107162355D01*
X107381500Y-105683650D01*
X107381500Y-105136000D01*
X106946350Y-105136000D01*
X106863800Y-105218550D01*
X106863800Y-105501681D01*
X106914070Y-105623043D01*
X107006957Y-105715930D01*
X107128319Y-105766200D01*
X107259681Y-105766200D01*
X107298950Y-105766200D01*
X107381500Y-105683650D01*
X107381500Y-107162355D01*
X107098000Y-107162355D01*
X106875247Y-107205574D01*
X106679467Y-107334180D01*
X106548414Y-107528331D01*
X106502355Y-107758000D01*
X106502355Y-108889800D01*
X105867200Y-108889800D01*
X105867200Y-104216200D01*
X106375198Y-104216200D01*
X106375198Y-104236000D01*
X106863800Y-104236000D01*
X106863800Y-104453450D01*
X106946350Y-104536000D01*
X107381500Y-104536000D01*
X107381500Y-104236000D01*
X107756500Y-104236000D01*
X107756500Y-104536000D01*
X108191650Y-104536000D01*
X108274200Y-104453450D01*
X108274200Y-104236000D01*
X108641800Y-104236000D01*
X108641800Y-104453450D01*
X108724350Y-104536000D01*
X109159500Y-104536000D01*
X109159500Y-104236000D01*
X109534500Y-104236000D01*
X109534500Y-104536000D01*
X109969650Y-104536000D01*
X110052200Y-104453450D01*
X110052200Y-104236000D01*
X110058198Y-104236000D01*
X110540802Y-104236000D01*
X110546800Y-104236000D01*
X110546800Y-104453450D01*
X110629350Y-104536000D01*
X111064500Y-104536000D01*
X111064500Y-104236000D01*
X111439500Y-104236000D01*
X111439500Y-104536000D01*
X111874650Y-104536000D01*
X111957200Y-104453450D01*
X111957200Y-104236000D01*
X112324800Y-104236000D01*
X112324800Y-104453450D01*
X112407350Y-104536000D01*
X112842500Y-104536000D01*
X112842500Y-104236000D01*
X113217500Y-104236000D01*
X113217500Y-104536000D01*
X113652650Y-104536000D01*
X113735200Y-104453450D01*
X113735200Y-104236000D01*
X114102800Y-104236000D01*
X114102800Y-104453450D01*
X114185350Y-104536000D01*
X114620500Y-104536000D01*
X114620500Y-104236000D01*
X114995500Y-104236000D01*
X114995500Y-104536000D01*
X115430650Y-104536000D01*
X115513200Y-104453450D01*
X115513200Y-104236000D01*
X116001802Y-104236000D01*
X116001802Y-104216200D01*
X116408200Y-104216200D01*
X116408200Y-103962200D01*
X116408200Y-102438200D01*
X127939800Y-102438200D01*
X127939800Y-106625078D01*
X127939800Y-106625078D01*
G37*
X127939800Y-106625078D02*
X125891079Y-107307984D01*
X125747846Y-107164501D01*
X125407221Y-107023061D01*
X125038397Y-107022739D01*
X124697526Y-107163585D01*
X124436501Y-107424154D01*
X124295061Y-107764779D01*
X124294995Y-107840012D01*
X121145634Y-108889800D01*
X119303802Y-108889800D01*
X119303802Y-108802000D01*
X119140200Y-108802000D01*
X119140200Y-108384550D01*
X119140200Y-107219450D01*
X119140200Y-106736319D01*
X119089930Y-106614957D01*
X118997043Y-106522070D01*
X118875681Y-106471800D01*
X118744319Y-106471800D01*
X118542550Y-106471800D01*
X118460000Y-106554350D01*
X118460000Y-107302000D01*
X119057650Y-107302000D01*
X119140200Y-107219450D01*
X119140200Y-108384550D01*
X119057650Y-108302000D01*
X118460000Y-108302000D01*
X118460000Y-108802000D01*
X117760000Y-108802000D01*
X117760000Y-108302000D01*
X117760000Y-107302000D01*
X117760000Y-106554350D01*
X117677450Y-106471800D01*
X117475681Y-106471800D01*
X117344319Y-106471800D01*
X117222957Y-106522070D01*
X117130070Y-106614957D01*
X117079800Y-106736319D01*
X117079800Y-107219450D01*
X117162350Y-107302000D01*
X117760000Y-107302000D01*
X117760000Y-108302000D01*
X117162350Y-108302000D01*
X117079800Y-108384550D01*
X117079800Y-108802000D01*
X116916198Y-108802000D01*
X116916198Y-108889800D01*
X116646483Y-108889800D01*
X116636776Y-108839767D01*
X116508170Y-108643987D01*
X116414550Y-108580792D01*
X116414550Y-108202730D01*
X116414550Y-108046879D01*
X116388098Y-107983020D01*
X116414550Y-107919161D01*
X116414550Y-107763310D01*
X116414550Y-107252770D01*
X116414550Y-107096919D01*
X116364280Y-106975557D01*
X116271393Y-106882670D01*
X116150031Y-106832400D01*
X116018669Y-106832400D01*
X115667155Y-106832400D01*
X115584605Y-106914950D01*
X115584605Y-107335320D01*
X116332000Y-107335320D01*
X116414550Y-107252770D01*
X116414550Y-107763310D01*
X116332000Y-107680760D01*
X115584605Y-107680760D01*
X115584605Y-107864910D01*
X115584605Y-108101130D01*
X115584605Y-108285280D01*
X116332000Y-108285280D01*
X116414550Y-108202730D01*
X116414550Y-108580792D01*
X116314019Y-108512934D01*
X116084350Y-108466875D01*
X115513200Y-108466875D01*
X115513200Y-105501681D01*
X115513200Y-105218550D01*
X115430650Y-105136000D01*
X114995500Y-105136000D01*
X114995500Y-105683650D01*
X115078050Y-105766200D01*
X115117319Y-105766200D01*
X115248681Y-105766200D01*
X115370043Y-105715930D01*
X115462930Y-105623043D01*
X115513200Y-105501681D01*
X115513200Y-108466875D01*
X114620500Y-108466875D01*
X114620500Y-105683650D01*
X114620500Y-105136000D01*
X114185350Y-105136000D01*
X114102800Y-105218550D01*
X114102800Y-105501681D01*
X114153070Y-105623043D01*
X114245957Y-105715930D01*
X114367319Y-105766200D01*
X114498681Y-105766200D01*
X114537950Y-105766200D01*
X114620500Y-105683650D01*
X114620500Y-108466875D01*
X114585115Y-108466875D01*
X114585115Y-108285280D01*
X114585115Y-108101130D01*
X114585115Y-107864910D01*
X114585115Y-107680760D01*
X114585115Y-107335320D01*
X114585115Y-106914950D01*
X114502565Y-106832400D01*
X114151051Y-106832400D01*
X114019689Y-106832400D01*
X113898327Y-106882670D01*
X113805440Y-106975557D01*
X113755170Y-107096919D01*
X113755170Y-107252770D01*
X113837720Y-107335320D01*
X114585115Y-107335320D01*
X114585115Y-107680760D01*
X113837720Y-107680760D01*
X113755170Y-107763310D01*
X113755170Y-107919161D01*
X113781621Y-107983020D01*
X113755170Y-108046879D01*
X113755170Y-108202730D01*
X113837720Y-108285280D01*
X114585115Y-108285280D01*
X114585115Y-108466875D01*
X114085370Y-108466875D01*
X113862617Y-108510094D01*
X113735200Y-108593793D01*
X113735200Y-105501681D01*
X113735200Y-105218550D01*
X113652650Y-105136000D01*
X113217500Y-105136000D01*
X113217500Y-105683650D01*
X113300050Y-105766200D01*
X113339319Y-105766200D01*
X113470681Y-105766200D01*
X113592043Y-105715930D01*
X113684930Y-105623043D01*
X113735200Y-105501681D01*
X113735200Y-108593793D01*
X113666837Y-108638700D01*
X113535784Y-108832851D01*
X113524363Y-108889800D01*
X113044763Y-108889800D01*
X113035056Y-108839767D01*
X112906450Y-108643987D01*
X112842500Y-108600820D01*
X112842500Y-105683650D01*
X112842500Y-105136000D01*
X112407350Y-105136000D01*
X112324800Y-105218550D01*
X112324800Y-105501681D01*
X112375070Y-105623043D01*
X112467957Y-105715930D01*
X112589319Y-105766200D01*
X112720681Y-105766200D01*
X112759950Y-105766200D01*
X112842500Y-105683650D01*
X112842500Y-108600820D01*
X112812830Y-108580792D01*
X112812830Y-108202730D01*
X112812830Y-108046879D01*
X112786378Y-107983020D01*
X112812830Y-107919161D01*
X112812830Y-107763310D01*
X112812830Y-107252770D01*
X112812830Y-107096919D01*
X112762560Y-106975557D01*
X112669673Y-106882670D01*
X112548311Y-106832400D01*
X112416949Y-106832400D01*
X112065435Y-106832400D01*
X111982885Y-106914950D01*
X111982885Y-107335320D01*
X112730280Y-107335320D01*
X112812830Y-107252770D01*
X112812830Y-107763310D01*
X112730280Y-107680760D01*
X111982885Y-107680760D01*
X111982885Y-107864910D01*
X111982885Y-108101130D01*
X111982885Y-108285280D01*
X112730280Y-108285280D01*
X112812830Y-108202730D01*
X112812830Y-108580792D01*
X112712299Y-108512934D01*
X112482630Y-108466875D01*
X111957200Y-108466875D01*
X111957200Y-105501681D01*
X111957200Y-105218550D01*
X111874650Y-105136000D01*
X111439500Y-105136000D01*
X111439500Y-105683650D01*
X111522050Y-105766200D01*
X111561319Y-105766200D01*
X111692681Y-105766200D01*
X111814043Y-105715930D01*
X111906930Y-105623043D01*
X111957200Y-105501681D01*
X111957200Y-108466875D01*
X111064500Y-108466875D01*
X111064500Y-105683650D01*
X111064500Y-105136000D01*
X110629350Y-105136000D01*
X110546800Y-105218550D01*
X110546800Y-105501681D01*
X110597070Y-105623043D01*
X110689957Y-105715930D01*
X110811319Y-105766200D01*
X110942681Y-105766200D01*
X110981950Y-105766200D01*
X111064500Y-105683650D01*
X111064500Y-108466875D01*
X110983395Y-108466875D01*
X110983395Y-108285280D01*
X110983395Y-108101130D01*
X110983395Y-107864910D01*
X110983395Y-107680760D01*
X110983395Y-107335320D01*
X110983395Y-106914950D01*
X110900845Y-106832400D01*
X110549331Y-106832400D01*
X110417969Y-106832400D01*
X110296607Y-106882670D01*
X110203720Y-106975557D01*
X110153450Y-107096919D01*
X110153450Y-107252770D01*
X110236000Y-107335320D01*
X110983395Y-107335320D01*
X110983395Y-107680760D01*
X110236000Y-107680760D01*
X110153450Y-107763310D01*
X110153450Y-107919161D01*
X110179901Y-107983020D01*
X110153450Y-108046879D01*
X110153450Y-108202730D01*
X110236000Y-108285280D01*
X110983395Y-108285280D01*
X110983395Y-108466875D01*
X110483650Y-108466875D01*
X110260897Y-108510094D01*
X110065117Y-108638700D01*
X110052200Y-108657836D01*
X110052200Y-105501681D01*
X110052200Y-105218550D01*
X109969650Y-105136000D01*
X109534500Y-105136000D01*
X109534500Y-105683650D01*
X109617050Y-105766200D01*
X109656319Y-105766200D01*
X109787681Y-105766200D01*
X109909043Y-105715930D01*
X110001930Y-105623043D01*
X110052200Y-105501681D01*
X110052200Y-108657836D01*
X109934064Y-108832851D01*
X109922643Y-108889800D01*
X109693645Y-108889800D01*
X109693645Y-107758000D01*
X109650426Y-107535247D01*
X109521820Y-107339467D01*
X109327669Y-107208414D01*
X109159500Y-107174688D01*
X109159500Y-105683650D01*
X109159500Y-105136000D01*
X108724350Y-105136000D01*
X108641800Y-105218550D01*
X108641800Y-105501681D01*
X108692070Y-105623043D01*
X108784957Y-105715930D01*
X108906319Y-105766200D01*
X109037681Y-105766200D01*
X109076950Y-105766200D01*
X109159500Y-105683650D01*
X109159500Y-107174688D01*
X109098000Y-107162355D01*
X108274200Y-107162355D01*
X108274200Y-105501681D01*
X108274200Y-105218550D01*
X108191650Y-105136000D01*
X107756500Y-105136000D01*
X107756500Y-105683650D01*
X107839050Y-105766200D01*
X107878319Y-105766200D01*
X108009681Y-105766200D01*
X108131043Y-105715930D01*
X108223930Y-105623043D01*
X108274200Y-105501681D01*
X108274200Y-107162355D01*
X107381500Y-107162355D01*
X107381500Y-105683650D01*
X107381500Y-105136000D01*
X106946350Y-105136000D01*
X106863800Y-105218550D01*
X106863800Y-105501681D01*
X106914070Y-105623043D01*
X107006957Y-105715930D01*
X107128319Y-105766200D01*
X107259681Y-105766200D01*
X107298950Y-105766200D01*
X107381500Y-105683650D01*
X107381500Y-107162355D01*
X107098000Y-107162355D01*
X106875247Y-107205574D01*
X106679467Y-107334180D01*
X106548414Y-107528331D01*
X106502355Y-107758000D01*
X106502355Y-108889800D01*
X105867200Y-108889800D01*
X105867200Y-104216200D01*
X106375198Y-104216200D01*
X106375198Y-104236000D01*
X106863800Y-104236000D01*
X106863800Y-104453450D01*
X106946350Y-104536000D01*
X107381500Y-104536000D01*
X107381500Y-104236000D01*
X107756500Y-104236000D01*
X107756500Y-104536000D01*
X108191650Y-104536000D01*
X108274200Y-104453450D01*
X108274200Y-104236000D01*
X108641800Y-104236000D01*
X108641800Y-104453450D01*
X108724350Y-104536000D01*
X109159500Y-104536000D01*
X109159500Y-104236000D01*
X109534500Y-104236000D01*
X109534500Y-104536000D01*
X109969650Y-104536000D01*
X110052200Y-104453450D01*
X110052200Y-104236000D01*
X110058198Y-104236000D01*
X110540802Y-104236000D01*
X110546800Y-104236000D01*
X110546800Y-104453450D01*
X110629350Y-104536000D01*
X111064500Y-104536000D01*
X111064500Y-104236000D01*
X111439500Y-104236000D01*
X111439500Y-104536000D01*
X111874650Y-104536000D01*
X111957200Y-104453450D01*
X111957200Y-104236000D01*
X112324800Y-104236000D01*
X112324800Y-104453450D01*
X112407350Y-104536000D01*
X112842500Y-104536000D01*
X112842500Y-104236000D01*
X113217500Y-104236000D01*
X113217500Y-104536000D01*
X113652650Y-104536000D01*
X113735200Y-104453450D01*
X113735200Y-104236000D01*
X114102800Y-104236000D01*
X114102800Y-104453450D01*
X114185350Y-104536000D01*
X114620500Y-104536000D01*
X114620500Y-104236000D01*
X114995500Y-104236000D01*
X114995500Y-104536000D01*
X115430650Y-104536000D01*
X115513200Y-104453450D01*
X115513200Y-104236000D01*
X116001802Y-104236000D01*
X116001802Y-104216200D01*
X116408200Y-104216200D01*
X116408200Y-103962200D01*
X116408200Y-102438200D01*
X127939800Y-102438200D01*
X127939800Y-106625078D01*
D36*
G36*
X127635000Y-84767000D02*
X127392250Y-84767000D01*
X127297000Y-84862250D01*
X127297000Y-85471000D01*
X127317000Y-85471000D01*
X127317000Y-85725000D01*
X127297000Y-85725000D01*
X127297000Y-85745000D01*
X127043000Y-85745000D01*
X127043000Y-85725000D01*
X127043000Y-85471000D01*
X127043000Y-84862250D01*
X126947750Y-84767000D01*
X126494214Y-84767000D01*
X126354180Y-84825004D01*
X126247004Y-84932181D01*
X126189000Y-85072215D01*
X126189000Y-85223786D01*
X126189000Y-85375750D01*
X126284250Y-85471000D01*
X127043000Y-85471000D01*
X127043000Y-85725000D01*
X126284250Y-85725000D01*
X126189000Y-85820250D01*
X126189000Y-85972214D01*
X126189000Y-86123785D01*
X126234238Y-86233000D01*
X125349000Y-86233000D01*
X125349000Y-89489000D01*
X125319214Y-89489000D01*
X125317250Y-89489000D01*
X125222000Y-89584250D01*
X125222000Y-90518000D01*
X125242000Y-90518000D01*
X125242000Y-90772000D01*
X125222000Y-90772000D01*
X125222000Y-90792000D01*
X124968000Y-90792000D01*
X124968000Y-90772000D01*
X124948000Y-90772000D01*
X124948000Y-90518000D01*
X124968000Y-90518000D01*
X124968000Y-89584250D01*
X124872750Y-89489000D01*
X124870786Y-89489000D01*
X124841000Y-89489000D01*
X124841000Y-86233000D01*
X116151576Y-86233000D01*
X114044030Y-88387380D01*
X113896286Y-88239378D01*
X113499668Y-88074687D01*
X113070216Y-88074313D01*
X112673311Y-88238311D01*
X112369378Y-88541714D01*
X112204687Y-88938332D01*
X112204313Y-89367784D01*
X112368311Y-89764689D01*
X112534147Y-89930815D01*
X110749000Y-91755632D01*
X110749000Y-85611785D01*
X110749000Y-85460214D01*
X110749000Y-85058250D01*
X110749000Y-84613750D01*
X110749000Y-84211786D01*
X110749000Y-84060215D01*
X110690996Y-83920181D01*
X110583820Y-83813004D01*
X110443786Y-83755000D01*
X109590250Y-83755000D01*
X109495000Y-83850250D01*
X109495000Y-84709000D01*
X110653750Y-84709000D01*
X110749000Y-84613750D01*
X110749000Y-85058250D01*
X110653750Y-84963000D01*
X109495000Y-84963000D01*
X109495000Y-85821750D01*
X109590250Y-85917000D01*
X110443786Y-85917000D01*
X110583820Y-85858996D01*
X110690996Y-85751819D01*
X110749000Y-85611785D01*
X110749000Y-91755632D01*
X110363000Y-92150211D01*
X110363000Y-95123000D01*
X104777540Y-95123000D01*
X104777540Y-93700600D01*
X104777540Y-92542360D01*
X104273350Y-92542360D01*
X104178100Y-92637610D01*
X104178100Y-93339064D01*
X104178100Y-93490635D01*
X104236104Y-93630669D01*
X104343280Y-93737846D01*
X104483314Y-93795850D01*
X104682290Y-93795850D01*
X104777540Y-93700600D01*
X104777540Y-95123000D01*
X103491082Y-95123000D01*
X103424659Y-95056460D01*
X103065370Y-94907270D01*
X102997000Y-94907210D01*
X102997000Y-91821000D01*
X104178100Y-91821000D01*
X104178100Y-92193110D01*
X104273350Y-92288360D01*
X104777540Y-92288360D01*
X104777540Y-92268360D01*
X104861620Y-92268360D01*
X104861620Y-93414850D01*
X104908597Y-93656973D01*
X105029000Y-93840263D01*
X105029000Y-94107000D01*
X107823000Y-94107000D01*
X107823000Y-91616655D01*
X109347000Y-89965655D01*
X109347000Y-83235000D01*
X127635000Y-83235000D01*
X127635000Y-84767000D01*
X127635000Y-84767000D01*
G37*
X127635000Y-84767000D02*
X127392250Y-84767000D01*
X127297000Y-84862250D01*
X127297000Y-85471000D01*
X127317000Y-85471000D01*
X127317000Y-85725000D01*
X127297000Y-85725000D01*
X127297000Y-85745000D01*
X127043000Y-85745000D01*
X127043000Y-85725000D01*
X127043000Y-85471000D01*
X127043000Y-84862250D01*
X126947750Y-84767000D01*
X126494214Y-84767000D01*
X126354180Y-84825004D01*
X126247004Y-84932181D01*
X126189000Y-85072215D01*
X126189000Y-85223786D01*
X126189000Y-85375750D01*
X126284250Y-85471000D01*
X127043000Y-85471000D01*
X127043000Y-85725000D01*
X126284250Y-85725000D01*
X126189000Y-85820250D01*
X126189000Y-85972214D01*
X126189000Y-86123785D01*
X126234238Y-86233000D01*
X125349000Y-86233000D01*
X125349000Y-89489000D01*
X125319214Y-89489000D01*
X125317250Y-89489000D01*
X125222000Y-89584250D01*
X125222000Y-90518000D01*
X125242000Y-90518000D01*
X125242000Y-90772000D01*
X125222000Y-90772000D01*
X125222000Y-90792000D01*
X124968000Y-90792000D01*
X124968000Y-90772000D01*
X124948000Y-90772000D01*
X124948000Y-90518000D01*
X124968000Y-90518000D01*
X124968000Y-89584250D01*
X124872750Y-89489000D01*
X124870786Y-89489000D01*
X124841000Y-89489000D01*
X124841000Y-86233000D01*
X116151576Y-86233000D01*
X114044030Y-88387380D01*
X113896286Y-88239378D01*
X113499668Y-88074687D01*
X113070216Y-88074313D01*
X112673311Y-88238311D01*
X112369378Y-88541714D01*
X112204687Y-88938332D01*
X112204313Y-89367784D01*
X112368311Y-89764689D01*
X112534147Y-89930815D01*
X110749000Y-91755632D01*
X110749000Y-85611785D01*
X110749000Y-85460214D01*
X110749000Y-85058250D01*
X110749000Y-84613750D01*
X110749000Y-84211786D01*
X110749000Y-84060215D01*
X110690996Y-83920181D01*
X110583820Y-83813004D01*
X110443786Y-83755000D01*
X109590250Y-83755000D01*
X109495000Y-83850250D01*
X109495000Y-84709000D01*
X110653750Y-84709000D01*
X110749000Y-84613750D01*
X110749000Y-85058250D01*
X110653750Y-84963000D01*
X109495000Y-84963000D01*
X109495000Y-85821750D01*
X109590250Y-85917000D01*
X110443786Y-85917000D01*
X110583820Y-85858996D01*
X110690996Y-85751819D01*
X110749000Y-85611785D01*
X110749000Y-91755632D01*
X110363000Y-92150211D01*
X110363000Y-95123000D01*
X104777540Y-95123000D01*
X104777540Y-93700600D01*
X104777540Y-92542360D01*
X104273350Y-92542360D01*
X104178100Y-92637610D01*
X104178100Y-93339064D01*
X104178100Y-93490635D01*
X104236104Y-93630669D01*
X104343280Y-93737846D01*
X104483314Y-93795850D01*
X104682290Y-93795850D01*
X104777540Y-93700600D01*
X104777540Y-95123000D01*
X103491082Y-95123000D01*
X103424659Y-95056460D01*
X103065370Y-94907270D01*
X102997000Y-94907210D01*
X102997000Y-91821000D01*
X104178100Y-91821000D01*
X104178100Y-92193110D01*
X104273350Y-92288360D01*
X104777540Y-92288360D01*
X104777540Y-92268360D01*
X104861620Y-92268360D01*
X104861620Y-93414850D01*
X104908597Y-93656973D01*
X105029000Y-93840263D01*
X105029000Y-94107000D01*
X107823000Y-94107000D01*
X107823000Y-91616655D01*
X109347000Y-89965655D01*
X109347000Y-83235000D01*
X127635000Y-83235000D01*
X127635000Y-84767000D01*
G36*
X137666937Y-94869000D02*
X137606048Y-102175640D01*
X137573791Y-102097571D01*
X137015886Y-101538691D01*
X136286575Y-101235855D01*
X135538210Y-101235202D01*
X135538210Y-100315671D01*
X135538210Y-98459290D01*
X135538210Y-98040190D01*
X135538210Y-96183809D01*
X135487940Y-96062447D01*
X135395053Y-95969560D01*
X135273691Y-95919290D01*
X135142329Y-95919290D01*
X134067550Y-95919290D01*
X133985000Y-96001840D01*
X133985000Y-98122740D01*
X135455660Y-98122740D01*
X135538210Y-98040190D01*
X135538210Y-98459290D01*
X135455660Y-98376740D01*
X133985000Y-98376740D01*
X133985000Y-100497640D01*
X134067550Y-100580190D01*
X135142329Y-100580190D01*
X135273691Y-100580190D01*
X135395053Y-100529920D01*
X135487940Y-100437033D01*
X135538210Y-100315671D01*
X135538210Y-101235202D01*
X135496889Y-101235166D01*
X134767051Y-101536729D01*
X134208171Y-102094634D01*
X133905335Y-102823945D01*
X133904646Y-103613631D01*
X134206209Y-104343469D01*
X134764114Y-104902349D01*
X135493425Y-105205185D01*
X136283111Y-105205874D01*
X137012949Y-104904311D01*
X137571829Y-104346406D01*
X137588289Y-104306765D01*
X137542054Y-109855000D01*
X134439159Y-109855000D01*
X134374990Y-109699697D01*
X133982350Y-109306371D01*
X133774467Y-109220050D01*
X133980283Y-109135010D01*
X134373609Y-108742370D01*
X134586737Y-108229100D01*
X134587222Y-107673339D01*
X134374990Y-107159697D01*
X133982350Y-106766371D01*
X133731000Y-106662001D01*
X133731000Y-100497640D01*
X133731000Y-98376740D01*
X133731000Y-98122740D01*
X133731000Y-96001840D01*
X133648450Y-95919290D01*
X132573671Y-95919290D01*
X132442309Y-95919290D01*
X132320947Y-95969560D01*
X132228060Y-96062447D01*
X132177790Y-96183809D01*
X132177790Y-98040190D01*
X132260340Y-98122740D01*
X133731000Y-98122740D01*
X133731000Y-98376740D01*
X132260340Y-98376740D01*
X132177790Y-98459290D01*
X132177790Y-100315671D01*
X132228060Y-100437033D01*
X132320947Y-100529920D01*
X132442309Y-100580190D01*
X132573671Y-100580190D01*
X133648450Y-100580190D01*
X133731000Y-100497640D01*
X133731000Y-106662001D01*
X133469080Y-106553243D01*
X132913319Y-106552758D01*
X132399677Y-106764990D01*
X132006351Y-107157630D01*
X131895133Y-107425471D01*
X131824706Y-107495898D01*
X131824706Y-107136689D01*
X131738540Y-106980311D01*
X131325777Y-106844589D01*
X130892495Y-106877156D01*
X130643460Y-106980311D01*
X130557294Y-107136689D01*
X131191000Y-107770395D01*
X131824706Y-107136689D01*
X131824706Y-107495898D01*
X131370605Y-107950000D01*
X131895169Y-108474564D01*
X132004970Y-108740303D01*
X132397610Y-109133629D01*
X132605492Y-109219949D01*
X132399677Y-109304990D01*
X132190469Y-109513832D01*
X131983370Y-109306371D01*
X131824706Y-109240488D01*
X131824706Y-108763311D01*
X131191000Y-108129605D01*
X131011395Y-108309210D01*
X131011395Y-107950000D01*
X130377689Y-107316294D01*
X130221311Y-107402460D01*
X130085589Y-107815223D01*
X130118156Y-108248505D01*
X130221311Y-108497540D01*
X130377689Y-108583706D01*
X131011395Y-107950000D01*
X131011395Y-108309210D01*
X130557294Y-108763311D01*
X130643460Y-108919689D01*
X131056223Y-109055411D01*
X131489505Y-109022844D01*
X131738540Y-108919689D01*
X131824706Y-108763311D01*
X131824706Y-109240488D01*
X131470100Y-109093243D01*
X130914339Y-109092758D01*
X130400697Y-109304990D01*
X130007371Y-109697630D01*
X129942025Y-109855000D01*
X128905000Y-109855000D01*
X128905000Y-101473000D01*
X128265200Y-101473000D01*
X128265200Y-96885681D01*
X128265200Y-96254550D01*
X128265200Y-95835450D01*
X128265200Y-95204319D01*
X128214930Y-95082957D01*
X128122043Y-94990070D01*
X128000681Y-94939800D01*
X127869319Y-94939800D01*
X127844550Y-94939800D01*
X127762000Y-95022350D01*
X127762000Y-95918000D01*
X128182650Y-95918000D01*
X128265200Y-95835450D01*
X128265200Y-96254550D01*
X128182650Y-96172000D01*
X127762000Y-96172000D01*
X127762000Y-97067650D01*
X127844550Y-97150200D01*
X127869319Y-97150200D01*
X128000681Y-97150200D01*
X128122043Y-97099930D01*
X128214930Y-97007043D01*
X128265200Y-96885681D01*
X128265200Y-101473000D01*
X120328690Y-101473000D01*
X120328690Y-96447251D01*
X120328690Y-95840550D01*
X120328690Y-95421450D01*
X120328690Y-94814749D01*
X120278420Y-94693387D01*
X120185533Y-94600500D01*
X120064171Y-94550230D01*
X119932809Y-94550230D01*
X117557550Y-94550230D01*
X117475000Y-94632780D01*
X117475000Y-95504000D01*
X120246140Y-95504000D01*
X120328690Y-95421450D01*
X120328690Y-95840550D01*
X120246140Y-95758000D01*
X117475000Y-95758000D01*
X117475000Y-96629220D01*
X117557550Y-96711770D01*
X119932809Y-96711770D01*
X120064171Y-96711770D01*
X120185533Y-96661500D01*
X120278420Y-96568613D01*
X120328690Y-96447251D01*
X120328690Y-101473000D01*
X117221000Y-101473000D01*
X117221000Y-96629220D01*
X117221000Y-95758000D01*
X117221000Y-95504000D01*
X117221000Y-94632780D01*
X117138450Y-94550230D01*
X114763191Y-94550230D01*
X114631829Y-94550230D01*
X114510467Y-94600500D01*
X114417580Y-94693387D01*
X114367310Y-94814749D01*
X114367310Y-95421450D01*
X114449860Y-95504000D01*
X117221000Y-95504000D01*
X117221000Y-95758000D01*
X114449860Y-95758000D01*
X114367310Y-95840550D01*
X114367310Y-96447251D01*
X114417580Y-96568613D01*
X114510467Y-96661500D01*
X114631829Y-96711770D01*
X114763191Y-96711770D01*
X117138450Y-96711770D01*
X117221000Y-96629220D01*
X117221000Y-101473000D01*
X106762550Y-101473000D01*
X106762550Y-99913081D01*
X106762550Y-99711510D01*
X106762550Y-99292410D01*
X106762550Y-99090839D01*
X106762550Y-98013161D01*
X106762550Y-97811590D01*
X106762550Y-97392490D01*
X106762550Y-97190919D01*
X106712280Y-97069557D01*
X106619393Y-96976670D01*
X106498031Y-96926400D01*
X106366669Y-96926400D01*
X105642410Y-96926400D01*
X105559860Y-97008950D01*
X105559860Y-97475040D01*
X106680000Y-97475040D01*
X106762550Y-97392490D01*
X106762550Y-97811590D01*
X106680000Y-97729040D01*
X105559860Y-97729040D01*
X105559860Y-98195130D01*
X105642410Y-98277680D01*
X106366669Y-98277680D01*
X106498031Y-98277680D01*
X106619393Y-98227410D01*
X106712280Y-98134523D01*
X106762550Y-98013161D01*
X106762550Y-99090839D01*
X106712280Y-98969477D01*
X106619393Y-98876590D01*
X106498031Y-98826320D01*
X106366669Y-98826320D01*
X105642410Y-98826320D01*
X105559860Y-98908870D01*
X105559860Y-99374960D01*
X106680000Y-99374960D01*
X106762550Y-99292410D01*
X106762550Y-99711510D01*
X106680000Y-99628960D01*
X105559860Y-99628960D01*
X105559860Y-100095050D01*
X105642410Y-100177600D01*
X106366669Y-100177600D01*
X106498031Y-100177600D01*
X106619393Y-100127330D01*
X106712280Y-100034443D01*
X106762550Y-99913081D01*
X106762550Y-101473000D01*
X105512200Y-101473000D01*
X105512200Y-101472998D01*
X105429652Y-101472998D01*
X105512200Y-101390450D01*
X105512200Y-101290681D01*
X105512200Y-101159319D01*
X105461930Y-101037957D01*
X105369043Y-100945070D01*
X105305860Y-100918898D01*
X105305860Y-100095050D01*
X105305860Y-99628960D01*
X105305860Y-99374960D01*
X105305860Y-98908870D01*
X105305860Y-98195130D01*
X105305860Y-97729040D01*
X105305860Y-97475040D01*
X105305860Y-97008950D01*
X105223310Y-96926400D01*
X104499051Y-96926400D01*
X104367689Y-96926400D01*
X104246327Y-96976670D01*
X104153440Y-97069557D01*
X104103170Y-97190919D01*
X104103170Y-97392490D01*
X104185720Y-97475040D01*
X105305860Y-97475040D01*
X105305860Y-97729040D01*
X104185720Y-97729040D01*
X104103170Y-97811590D01*
X104103170Y-98013161D01*
X104153440Y-98134523D01*
X104246327Y-98227410D01*
X104367689Y-98277680D01*
X104499051Y-98277680D01*
X105223310Y-98277680D01*
X105305860Y-98195130D01*
X105305860Y-98908870D01*
X105223310Y-98826320D01*
X104499051Y-98826320D01*
X104367689Y-98826320D01*
X104246327Y-98876590D01*
X104153440Y-98969477D01*
X104103170Y-99090839D01*
X104103170Y-99292410D01*
X104185720Y-99374960D01*
X105305860Y-99374960D01*
X105305860Y-99628960D01*
X104185720Y-99628960D01*
X104103170Y-99711510D01*
X104103170Y-99913081D01*
X104153440Y-100034443D01*
X104246327Y-100127330D01*
X104367689Y-100177600D01*
X104499051Y-100177600D01*
X105223310Y-100177600D01*
X105305860Y-100095050D01*
X105305860Y-100918898D01*
X105247681Y-100894800D01*
X104791550Y-100894800D01*
X104709000Y-100977350D01*
X104709000Y-101473000D01*
X104455000Y-101473000D01*
X104455000Y-100977350D01*
X104372450Y-100894800D01*
X103916319Y-100894800D01*
X103844222Y-100924663D01*
X103742673Y-100770073D01*
X103632000Y-100695367D01*
X103632000Y-98726662D01*
X103751714Y-98606949D01*
X103751714Y-98606948D01*
X103916895Y-98359738D01*
X103974898Y-98068133D01*
X103974899Y-98068133D01*
X103974899Y-96227899D01*
X103931953Y-96012000D01*
X110490000Y-96012000D01*
X111379000Y-96012000D01*
X111379000Y-93345000D01*
X120523000Y-93345000D01*
X120523000Y-97917000D01*
X127381000Y-97917000D01*
X127381000Y-97150200D01*
X127400681Y-97150200D01*
X127425450Y-97150200D01*
X127508000Y-97067650D01*
X127508000Y-96172000D01*
X127488000Y-96172000D01*
X127488000Y-95918000D01*
X127508000Y-95918000D01*
X127508000Y-95022350D01*
X127425450Y-94939800D01*
X127400681Y-94939800D01*
X127381000Y-94939800D01*
X127381000Y-94869000D01*
X137666937Y-94869000D01*
X137666937Y-94869000D01*
G37*
X137666937Y-94869000D02*
X137606048Y-102175640D01*
X137573791Y-102097571D01*
X137015886Y-101538691D01*
X136286575Y-101235855D01*
X135538210Y-101235202D01*
X135538210Y-100315671D01*
X135538210Y-98459290D01*
X135538210Y-98040190D01*
X135538210Y-96183809D01*
X135487940Y-96062447D01*
X135395053Y-95969560D01*
X135273691Y-95919290D01*
X135142329Y-95919290D01*
X134067550Y-95919290D01*
X133985000Y-96001840D01*
X133985000Y-98122740D01*
X135455660Y-98122740D01*
X135538210Y-98040190D01*
X135538210Y-98459290D01*
X135455660Y-98376740D01*
X133985000Y-98376740D01*
X133985000Y-100497640D01*
X134067550Y-100580190D01*
X135142329Y-100580190D01*
X135273691Y-100580190D01*
X135395053Y-100529920D01*
X135487940Y-100437033D01*
X135538210Y-100315671D01*
X135538210Y-101235202D01*
X135496889Y-101235166D01*
X134767051Y-101536729D01*
X134208171Y-102094634D01*
X133905335Y-102823945D01*
X133904646Y-103613631D01*
X134206209Y-104343469D01*
X134764114Y-104902349D01*
X135493425Y-105205185D01*
X136283111Y-105205874D01*
X137012949Y-104904311D01*
X137571829Y-104346406D01*
X137588289Y-104306765D01*
X137542054Y-109855000D01*
X134439159Y-109855000D01*
X134374990Y-109699697D01*
X133982350Y-109306371D01*
X133774467Y-109220050D01*
X133980283Y-109135010D01*
X134373609Y-108742370D01*
X134586737Y-108229100D01*
X134587222Y-107673339D01*
X134374990Y-107159697D01*
X133982350Y-106766371D01*
X133731000Y-106662001D01*
X133731000Y-100497640D01*
X133731000Y-98376740D01*
X133731000Y-98122740D01*
X133731000Y-96001840D01*
X133648450Y-95919290D01*
X132573671Y-95919290D01*
X132442309Y-95919290D01*
X132320947Y-95969560D01*
X132228060Y-96062447D01*
X132177790Y-96183809D01*
X132177790Y-98040190D01*
X132260340Y-98122740D01*
X133731000Y-98122740D01*
X133731000Y-98376740D01*
X132260340Y-98376740D01*
X132177790Y-98459290D01*
X132177790Y-100315671D01*
X132228060Y-100437033D01*
X132320947Y-100529920D01*
X132442309Y-100580190D01*
X132573671Y-100580190D01*
X133648450Y-100580190D01*
X133731000Y-100497640D01*
X133731000Y-106662001D01*
X133469080Y-106553243D01*
X132913319Y-106552758D01*
X132399677Y-106764990D01*
X132006351Y-107157630D01*
X131895133Y-107425471D01*
X131824706Y-107495898D01*
X131824706Y-107136689D01*
X131738540Y-106980311D01*
X131325777Y-106844589D01*
X130892495Y-106877156D01*
X130643460Y-106980311D01*
X130557294Y-107136689D01*
X131191000Y-107770395D01*
X131824706Y-107136689D01*
X131824706Y-107495898D01*
X131370605Y-107950000D01*
X131895169Y-108474564D01*
X132004970Y-108740303D01*
X132397610Y-109133629D01*
X132605492Y-109219949D01*
X132399677Y-109304990D01*
X132190469Y-109513832D01*
X131983370Y-109306371D01*
X131824706Y-109240488D01*
X131824706Y-108763311D01*
X131191000Y-108129605D01*
X131011395Y-108309210D01*
X131011395Y-107950000D01*
X130377689Y-107316294D01*
X130221311Y-107402460D01*
X130085589Y-107815223D01*
X130118156Y-108248505D01*
X130221311Y-108497540D01*
X130377689Y-108583706D01*
X131011395Y-107950000D01*
X131011395Y-108309210D01*
X130557294Y-108763311D01*
X130643460Y-108919689D01*
X131056223Y-109055411D01*
X131489505Y-109022844D01*
X131738540Y-108919689D01*
X131824706Y-108763311D01*
X131824706Y-109240488D01*
X131470100Y-109093243D01*
X130914339Y-109092758D01*
X130400697Y-109304990D01*
X130007371Y-109697630D01*
X129942025Y-109855000D01*
X128905000Y-109855000D01*
X128905000Y-101473000D01*
X128265200Y-101473000D01*
X128265200Y-96885681D01*
X128265200Y-96254550D01*
X128265200Y-95835450D01*
X128265200Y-95204319D01*
X128214930Y-95082957D01*
X128122043Y-94990070D01*
X128000681Y-94939800D01*
X127869319Y-94939800D01*
X127844550Y-94939800D01*
X127762000Y-95022350D01*
X127762000Y-95918000D01*
X128182650Y-95918000D01*
X128265200Y-95835450D01*
X128265200Y-96254550D01*
X128182650Y-96172000D01*
X127762000Y-96172000D01*
X127762000Y-97067650D01*
X127844550Y-97150200D01*
X127869319Y-97150200D01*
X128000681Y-97150200D01*
X128122043Y-97099930D01*
X128214930Y-97007043D01*
X128265200Y-96885681D01*
X128265200Y-101473000D01*
X120328690Y-101473000D01*
X120328690Y-96447251D01*
X120328690Y-95840550D01*
X120328690Y-95421450D01*
X120328690Y-94814749D01*
X120278420Y-94693387D01*
X120185533Y-94600500D01*
X120064171Y-94550230D01*
X119932809Y-94550230D01*
X117557550Y-94550230D01*
X117475000Y-94632780D01*
X117475000Y-95504000D01*
X120246140Y-95504000D01*
X120328690Y-95421450D01*
X120328690Y-95840550D01*
X120246140Y-95758000D01*
X117475000Y-95758000D01*
X117475000Y-96629220D01*
X117557550Y-96711770D01*
X119932809Y-96711770D01*
X120064171Y-96711770D01*
X120185533Y-96661500D01*
X120278420Y-96568613D01*
X120328690Y-96447251D01*
X120328690Y-101473000D01*
X117221000Y-101473000D01*
X117221000Y-96629220D01*
X117221000Y-95758000D01*
X117221000Y-95504000D01*
X117221000Y-94632780D01*
X117138450Y-94550230D01*
X114763191Y-94550230D01*
X114631829Y-94550230D01*
X114510467Y-94600500D01*
X114417580Y-94693387D01*
X114367310Y-94814749D01*
X114367310Y-95421450D01*
X114449860Y-95504000D01*
X117221000Y-95504000D01*
X117221000Y-95758000D01*
X114449860Y-95758000D01*
X114367310Y-95840550D01*
X114367310Y-96447251D01*
X114417580Y-96568613D01*
X114510467Y-96661500D01*
X114631829Y-96711770D01*
X114763191Y-96711770D01*
X117138450Y-96711770D01*
X117221000Y-96629220D01*
X117221000Y-101473000D01*
X106762550Y-101473000D01*
X106762550Y-99913081D01*
X106762550Y-99711510D01*
X106762550Y-99292410D01*
X106762550Y-99090839D01*
X106762550Y-98013161D01*
X106762550Y-97811590D01*
X106762550Y-97392490D01*
X106762550Y-97190919D01*
X106712280Y-97069557D01*
X106619393Y-96976670D01*
X106498031Y-96926400D01*
X106366669Y-96926400D01*
X105642410Y-96926400D01*
X105559860Y-97008950D01*
X105559860Y-97475040D01*
X106680000Y-97475040D01*
X106762550Y-97392490D01*
X106762550Y-97811590D01*
X106680000Y-97729040D01*
X105559860Y-97729040D01*
X105559860Y-98195130D01*
X105642410Y-98277680D01*
X106366669Y-98277680D01*
X106498031Y-98277680D01*
X106619393Y-98227410D01*
X106712280Y-98134523D01*
X106762550Y-98013161D01*
X106762550Y-99090839D01*
X106712280Y-98969477D01*
X106619393Y-98876590D01*
X106498031Y-98826320D01*
X106366669Y-98826320D01*
X105642410Y-98826320D01*
X105559860Y-98908870D01*
X105559860Y-99374960D01*
X106680000Y-99374960D01*
X106762550Y-99292410D01*
X106762550Y-99711510D01*
X106680000Y-99628960D01*
X105559860Y-99628960D01*
X105559860Y-100095050D01*
X105642410Y-100177600D01*
X106366669Y-100177600D01*
X106498031Y-100177600D01*
X106619393Y-100127330D01*
X106712280Y-100034443D01*
X106762550Y-99913081D01*
X106762550Y-101473000D01*
X105512200Y-101473000D01*
X105512200Y-101472998D01*
X105429652Y-101472998D01*
X105512200Y-101390450D01*
X105512200Y-101290681D01*
X105512200Y-101159319D01*
X105461930Y-101037957D01*
X105369043Y-100945070D01*
X105305860Y-100918898D01*
X105305860Y-100095050D01*
X105305860Y-99628960D01*
X105305860Y-99374960D01*
X105305860Y-98908870D01*
X105305860Y-98195130D01*
X105305860Y-97729040D01*
X105305860Y-97475040D01*
X105305860Y-97008950D01*
X105223310Y-96926400D01*
X104499051Y-96926400D01*
X104367689Y-96926400D01*
X104246327Y-96976670D01*
X104153440Y-97069557D01*
X104103170Y-97190919D01*
X104103170Y-97392490D01*
X104185720Y-97475040D01*
X105305860Y-97475040D01*
X105305860Y-97729040D01*
X104185720Y-97729040D01*
X104103170Y-97811590D01*
X104103170Y-98013161D01*
X104153440Y-98134523D01*
X104246327Y-98227410D01*
X104367689Y-98277680D01*
X104499051Y-98277680D01*
X105223310Y-98277680D01*
X105305860Y-98195130D01*
X105305860Y-98908870D01*
X105223310Y-98826320D01*
X104499051Y-98826320D01*
X104367689Y-98826320D01*
X104246327Y-98876590D01*
X104153440Y-98969477D01*
X104103170Y-99090839D01*
X104103170Y-99292410D01*
X104185720Y-99374960D01*
X105305860Y-99374960D01*
X105305860Y-99628960D01*
X104185720Y-99628960D01*
X104103170Y-99711510D01*
X104103170Y-99913081D01*
X104153440Y-100034443D01*
X104246327Y-100127330D01*
X104367689Y-100177600D01*
X104499051Y-100177600D01*
X105223310Y-100177600D01*
X105305860Y-100095050D01*
X105305860Y-100918898D01*
X105247681Y-100894800D01*
X104791550Y-100894800D01*
X104709000Y-100977350D01*
X104709000Y-101473000D01*
X104455000Y-101473000D01*
X104455000Y-100977350D01*
X104372450Y-100894800D01*
X103916319Y-100894800D01*
X103844222Y-100924663D01*
X103742673Y-100770073D01*
X103632000Y-100695367D01*
X103632000Y-98726662D01*
X103751714Y-98606949D01*
X103751714Y-98606948D01*
X103916895Y-98359738D01*
X103974898Y-98068133D01*
X103974899Y-98068133D01*
X103974899Y-96227899D01*
X103931953Y-96012000D01*
X110490000Y-96012000D01*
X111379000Y-96012000D01*
X111379000Y-93345000D01*
X120523000Y-93345000D01*
X120523000Y-97917000D01*
X127381000Y-97917000D01*
X127381000Y-97150200D01*
X127400681Y-97150200D01*
X127425450Y-97150200D01*
X127508000Y-97067650D01*
X127508000Y-96172000D01*
X127488000Y-96172000D01*
X127488000Y-95918000D01*
X127508000Y-95918000D01*
X127508000Y-95022350D01*
X127425450Y-94939800D01*
X127400681Y-94939800D01*
X127381000Y-94939800D01*
X127381000Y-94869000D01*
X137666937Y-94869000D01*
G36*
X123952000Y-90792000D02*
X123698000Y-90792000D01*
X123698000Y-90772000D01*
X123698000Y-90518000D01*
X123698000Y-89622350D01*
X123615450Y-89539800D01*
X123590681Y-89539800D01*
X123459319Y-89539800D01*
X123337957Y-89590070D01*
X123245070Y-89682957D01*
X123194800Y-89804319D01*
X123194800Y-90435450D01*
X123277350Y-90518000D01*
X123698000Y-90518000D01*
X123698000Y-90772000D01*
X123277350Y-90772000D01*
X123194800Y-90854550D01*
X123194800Y-91313000D01*
X123063000Y-91313000D01*
X123063000Y-92583000D01*
X122661000Y-92583000D01*
X122661000Y-88831650D01*
X122661000Y-88011000D01*
X121540350Y-88011000D01*
X121457800Y-88093550D01*
X121457800Y-88518319D01*
X121457800Y-88649681D01*
X121508070Y-88771043D01*
X121600957Y-88863930D01*
X121722319Y-88914200D01*
X122578450Y-88914200D01*
X122661000Y-88831650D01*
X122661000Y-92583000D01*
X122625200Y-92583000D01*
X122625200Y-92185450D01*
X122625200Y-91729319D01*
X122574930Y-91607957D01*
X122482043Y-91515070D01*
X122360681Y-91464800D01*
X122229319Y-91464800D01*
X122129550Y-91464800D01*
X122047000Y-91547350D01*
X122047000Y-92268000D01*
X122542650Y-92268000D01*
X122625200Y-92185450D01*
X122625200Y-92583000D01*
X122603650Y-92583000D01*
X122542650Y-92522000D01*
X122047000Y-92522000D01*
X122047000Y-92542000D01*
X121793000Y-92542000D01*
X121793000Y-92522000D01*
X121793000Y-92268000D01*
X121793000Y-91547350D01*
X121710450Y-91464800D01*
X121610681Y-91464800D01*
X121479319Y-91464800D01*
X121357957Y-91515070D01*
X121265070Y-91607957D01*
X121214800Y-91729319D01*
X121214800Y-92185450D01*
X121297350Y-92268000D01*
X121793000Y-92268000D01*
X121793000Y-92522000D01*
X121297350Y-92522000D01*
X121236350Y-92583000D01*
X120328690Y-92583000D01*
X120328690Y-92129251D01*
X120328690Y-91522550D01*
X120328690Y-91103450D01*
X120328690Y-90496749D01*
X120278420Y-90375387D01*
X120185533Y-90282500D01*
X120064171Y-90232230D01*
X119932809Y-90232230D01*
X117557550Y-90232230D01*
X117475000Y-90314780D01*
X117475000Y-91186000D01*
X120246140Y-91186000D01*
X120328690Y-91103450D01*
X120328690Y-91522550D01*
X120246140Y-91440000D01*
X117475000Y-91440000D01*
X117475000Y-92311220D01*
X117557550Y-92393770D01*
X119932809Y-92393770D01*
X120064171Y-92393770D01*
X120185533Y-92343500D01*
X120278420Y-92250613D01*
X120328690Y-92129251D01*
X120328690Y-92583000D01*
X120015000Y-92583000D01*
X117221000Y-92583000D01*
X117221000Y-92311220D01*
X117221000Y-91440000D01*
X117221000Y-91186000D01*
X117221000Y-90314780D01*
X117138450Y-90232230D01*
X114763191Y-90232230D01*
X114631829Y-90232230D01*
X114510467Y-90282500D01*
X114417580Y-90375387D01*
X114367310Y-90496749D01*
X114367310Y-91103450D01*
X114449860Y-91186000D01*
X117221000Y-91186000D01*
X117221000Y-91440000D01*
X114449860Y-91440000D01*
X114367310Y-91522550D01*
X114367310Y-92129251D01*
X114417580Y-92250613D01*
X114510467Y-92343500D01*
X114631829Y-92393770D01*
X114763191Y-92393770D01*
X117138450Y-92393770D01*
X117221000Y-92311220D01*
X117221000Y-92583000D01*
X113919000Y-92583000D01*
X113919000Y-90221093D01*
X116894130Y-87122000D01*
X121457800Y-87122000D01*
X121457800Y-87249681D01*
X121457800Y-87674450D01*
X121540350Y-87757000D01*
X122661000Y-87757000D01*
X122661000Y-87737000D01*
X122915000Y-87737000D01*
X122915000Y-87757000D01*
X122935000Y-87757000D01*
X122935000Y-88011000D01*
X122915000Y-88011000D01*
X122915000Y-88831650D01*
X122997550Y-88914200D01*
X123853681Y-88914200D01*
X123952000Y-88873474D01*
X123952000Y-89622350D01*
X123952000Y-90518000D01*
X123952000Y-90772000D01*
X123952000Y-90792000D01*
X123952000Y-90792000D01*
G37*
X123952000Y-90792000D02*
X123698000Y-90792000D01*
X123698000Y-90772000D01*
X123698000Y-90518000D01*
X123698000Y-89622350D01*
X123615450Y-89539800D01*
X123590681Y-89539800D01*
X123459319Y-89539800D01*
X123337957Y-89590070D01*
X123245070Y-89682957D01*
X123194800Y-89804319D01*
X123194800Y-90435450D01*
X123277350Y-90518000D01*
X123698000Y-90518000D01*
X123698000Y-90772000D01*
X123277350Y-90772000D01*
X123194800Y-90854550D01*
X123194800Y-91313000D01*
X123063000Y-91313000D01*
X123063000Y-92583000D01*
X122661000Y-92583000D01*
X122661000Y-88831650D01*
X122661000Y-88011000D01*
X121540350Y-88011000D01*
X121457800Y-88093550D01*
X121457800Y-88518319D01*
X121457800Y-88649681D01*
X121508070Y-88771043D01*
X121600957Y-88863930D01*
X121722319Y-88914200D01*
X122578450Y-88914200D01*
X122661000Y-88831650D01*
X122661000Y-92583000D01*
X122625200Y-92583000D01*
X122625200Y-92185450D01*
X122625200Y-91729319D01*
X122574930Y-91607957D01*
X122482043Y-91515070D01*
X122360681Y-91464800D01*
X122229319Y-91464800D01*
X122129550Y-91464800D01*
X122047000Y-91547350D01*
X122047000Y-92268000D01*
X122542650Y-92268000D01*
X122625200Y-92185450D01*
X122625200Y-92583000D01*
X122603650Y-92583000D01*
X122542650Y-92522000D01*
X122047000Y-92522000D01*
X122047000Y-92542000D01*
X121793000Y-92542000D01*
X121793000Y-92522000D01*
X121793000Y-92268000D01*
X121793000Y-91547350D01*
X121710450Y-91464800D01*
X121610681Y-91464800D01*
X121479319Y-91464800D01*
X121357957Y-91515070D01*
X121265070Y-91607957D01*
X121214800Y-91729319D01*
X121214800Y-92185450D01*
X121297350Y-92268000D01*
X121793000Y-92268000D01*
X121793000Y-92522000D01*
X121297350Y-92522000D01*
X121236350Y-92583000D01*
X120328690Y-92583000D01*
X120328690Y-92129251D01*
X120328690Y-91522550D01*
X120328690Y-91103450D01*
X120328690Y-90496749D01*
X120278420Y-90375387D01*
X120185533Y-90282500D01*
X120064171Y-90232230D01*
X119932809Y-90232230D01*
X117557550Y-90232230D01*
X117475000Y-90314780D01*
X117475000Y-91186000D01*
X120246140Y-91186000D01*
X120328690Y-91103450D01*
X120328690Y-91522550D01*
X120246140Y-91440000D01*
X117475000Y-91440000D01*
X117475000Y-92311220D01*
X117557550Y-92393770D01*
X119932809Y-92393770D01*
X120064171Y-92393770D01*
X120185533Y-92343500D01*
X120278420Y-92250613D01*
X120328690Y-92129251D01*
X120328690Y-92583000D01*
X120015000Y-92583000D01*
X117221000Y-92583000D01*
X117221000Y-92311220D01*
X117221000Y-91440000D01*
X117221000Y-91186000D01*
X117221000Y-90314780D01*
X117138450Y-90232230D01*
X114763191Y-90232230D01*
X114631829Y-90232230D01*
X114510467Y-90282500D01*
X114417580Y-90375387D01*
X114367310Y-90496749D01*
X114367310Y-91103450D01*
X114449860Y-91186000D01*
X117221000Y-91186000D01*
X117221000Y-91440000D01*
X114449860Y-91440000D01*
X114367310Y-91522550D01*
X114367310Y-92129251D01*
X114417580Y-92250613D01*
X114510467Y-92343500D01*
X114631829Y-92393770D01*
X114763191Y-92393770D01*
X117138450Y-92393770D01*
X117221000Y-92311220D01*
X117221000Y-92583000D01*
X113919000Y-92583000D01*
X113919000Y-90221093D01*
X116894130Y-87122000D01*
X121457800Y-87122000D01*
X121457800Y-87249681D01*
X121457800Y-87674450D01*
X121540350Y-87757000D01*
X122661000Y-87757000D01*
X122661000Y-87737000D01*
X122915000Y-87737000D01*
X122915000Y-87757000D01*
X122935000Y-87757000D01*
X122935000Y-88011000D01*
X122915000Y-88011000D01*
X122915000Y-88831650D01*
X122997550Y-88914200D01*
X123853681Y-88914200D01*
X123952000Y-88873474D01*
X123952000Y-89622350D01*
X123952000Y-90518000D01*
X123952000Y-90772000D01*
X123952000Y-90792000D01*
D11*
G36*
X108635800Y-89503437D02*
X108148535Y-89990702D01*
X107403900Y-90828416D01*
X107403900Y-89863654D01*
X107403900Y-89762606D01*
X107403900Y-89054940D01*
X107403900Y-88572340D01*
X107403900Y-87864674D01*
X107403900Y-87763626D01*
X107365231Y-87670271D01*
X107293780Y-87598819D01*
X107200424Y-87560150D01*
X107040680Y-87560150D01*
X106977180Y-87623650D01*
X106977180Y-88635840D01*
X107340400Y-88635840D01*
X107403900Y-88572340D01*
X107403900Y-89054940D01*
X107340400Y-88991440D01*
X106977180Y-88991440D01*
X106977180Y-90003630D01*
X107040680Y-90067130D01*
X107200424Y-90067130D01*
X107293780Y-90028461D01*
X107365231Y-89957009D01*
X107403900Y-89863654D01*
X107403900Y-90828416D01*
X107111800Y-91157029D01*
X107111800Y-91161870D01*
X107040680Y-91161870D01*
X106977180Y-91225370D01*
X106977180Y-92237560D01*
X107002260Y-92237560D01*
X107002260Y-92379800D01*
X106631740Y-92379800D01*
X106606660Y-92379800D01*
X106606660Y-92237560D01*
X106631740Y-92237560D01*
X106631740Y-91225370D01*
X106631740Y-90003630D01*
X106631740Y-88991440D01*
X106631740Y-88635840D01*
X106631740Y-87623650D01*
X106568240Y-87560150D01*
X106408496Y-87560150D01*
X106329480Y-87592879D01*
X106250464Y-87560150D01*
X106090720Y-87560150D01*
X106027220Y-87623650D01*
X106027220Y-88635840D01*
X106268520Y-88635840D01*
X106390440Y-88635840D01*
X106631740Y-88635840D01*
X106631740Y-88991440D01*
X106390440Y-88991440D01*
X106268520Y-88991440D01*
X106027220Y-88991440D01*
X106027220Y-90003630D01*
X106090720Y-90067130D01*
X106250464Y-90067130D01*
X106329480Y-90034400D01*
X106408496Y-90067130D01*
X106568240Y-90067130D01*
X106631740Y-90003630D01*
X106631740Y-91225370D01*
X106568240Y-91161870D01*
X106408496Y-91161870D01*
X106329480Y-91194599D01*
X106250464Y-91161870D01*
X106090720Y-91161870D01*
X106027220Y-91225370D01*
X106027220Y-92237560D01*
X106052300Y-92237560D01*
X106052300Y-92379800D01*
X105740200Y-92379800D01*
X105740200Y-91109800D01*
X105595773Y-91109800D01*
X105581665Y-91088322D01*
X105429721Y-90985759D01*
X105249980Y-90949713D01*
X104559100Y-90949713D01*
X104384771Y-90983537D01*
X104231552Y-91084185D01*
X104214261Y-91109800D01*
X102438200Y-91109800D01*
X102438200Y-90210781D01*
X103147072Y-89738200D01*
X104092943Y-89738200D01*
X104092943Y-89813130D01*
X104126767Y-89987459D01*
X104227415Y-90140678D01*
X104379359Y-90243241D01*
X104559100Y-90279287D01*
X105249980Y-90279287D01*
X105424309Y-90245463D01*
X105577528Y-90144815D01*
X105654236Y-90031173D01*
X105681780Y-90003630D01*
X105681780Y-89984448D01*
X105716137Y-89813130D01*
X105716137Y-89738200D01*
X105740200Y-89738200D01*
X105740200Y-86182200D01*
X108635800Y-86182200D01*
X108635800Y-89503437D01*
X108635800Y-89503437D01*
G37*
X108635800Y-89503437D02*
X108148535Y-89990702D01*
X107403900Y-90828416D01*
X107403900Y-89863654D01*
X107403900Y-89762606D01*
X107403900Y-89054940D01*
X107403900Y-88572340D01*
X107403900Y-87864674D01*
X107403900Y-87763626D01*
X107365231Y-87670271D01*
X107293780Y-87598819D01*
X107200424Y-87560150D01*
X107040680Y-87560150D01*
X106977180Y-87623650D01*
X106977180Y-88635840D01*
X107340400Y-88635840D01*
X107403900Y-88572340D01*
X107403900Y-89054940D01*
X107340400Y-88991440D01*
X106977180Y-88991440D01*
X106977180Y-90003630D01*
X107040680Y-90067130D01*
X107200424Y-90067130D01*
X107293780Y-90028461D01*
X107365231Y-89957009D01*
X107403900Y-89863654D01*
X107403900Y-90828416D01*
X107111800Y-91157029D01*
X107111800Y-91161870D01*
X107040680Y-91161870D01*
X106977180Y-91225370D01*
X106977180Y-92237560D01*
X107002260Y-92237560D01*
X107002260Y-92379800D01*
X106631740Y-92379800D01*
X106606660Y-92379800D01*
X106606660Y-92237560D01*
X106631740Y-92237560D01*
X106631740Y-91225370D01*
X106631740Y-90003630D01*
X106631740Y-88991440D01*
X106631740Y-88635840D01*
X106631740Y-87623650D01*
X106568240Y-87560150D01*
X106408496Y-87560150D01*
X106329480Y-87592879D01*
X106250464Y-87560150D01*
X106090720Y-87560150D01*
X106027220Y-87623650D01*
X106027220Y-88635840D01*
X106268520Y-88635840D01*
X106390440Y-88635840D01*
X106631740Y-88635840D01*
X106631740Y-88991440D01*
X106390440Y-88991440D01*
X106268520Y-88991440D01*
X106027220Y-88991440D01*
X106027220Y-90003630D01*
X106090720Y-90067130D01*
X106250464Y-90067130D01*
X106329480Y-90034400D01*
X106408496Y-90067130D01*
X106568240Y-90067130D01*
X106631740Y-90003630D01*
X106631740Y-91225370D01*
X106568240Y-91161870D01*
X106408496Y-91161870D01*
X106329480Y-91194599D01*
X106250464Y-91161870D01*
X106090720Y-91161870D01*
X106027220Y-91225370D01*
X106027220Y-92237560D01*
X106052300Y-92237560D01*
X106052300Y-92379800D01*
X105740200Y-92379800D01*
X105740200Y-91109800D01*
X105595773Y-91109800D01*
X105581665Y-91088322D01*
X105429721Y-90985759D01*
X105249980Y-90949713D01*
X104559100Y-90949713D01*
X104384771Y-90983537D01*
X104231552Y-91084185D01*
X104214261Y-91109800D01*
X102438200Y-91109800D01*
X102438200Y-90210781D01*
X103147072Y-89738200D01*
X104092943Y-89738200D01*
X104092943Y-89813130D01*
X104126767Y-89987459D01*
X104227415Y-90140678D01*
X104379359Y-90243241D01*
X104559100Y-90279287D01*
X105249980Y-90279287D01*
X105424309Y-90245463D01*
X105577528Y-90144815D01*
X105654236Y-90031173D01*
X105681780Y-90003630D01*
X105681780Y-89984448D01*
X105716137Y-89813130D01*
X105716137Y-89738200D01*
X105740200Y-89738200D01*
X105740200Y-86182200D01*
X108635800Y-86182200D01*
X108635800Y-89503437D01*
G36*
X121081800Y-131495800D02*
X120054200Y-131495800D01*
X120054200Y-130051681D01*
X120054200Y-129920319D01*
X120054200Y-129546350D01*
X120054200Y-129025650D01*
X120054200Y-128651681D01*
X120054200Y-128520319D01*
X120003930Y-128398957D01*
X119911043Y-128306070D01*
X119789681Y-128255800D01*
X118984350Y-128255800D01*
X118901800Y-128338350D01*
X118901800Y-129108200D01*
X119971650Y-129108200D01*
X120054200Y-129025650D01*
X120054200Y-129546350D01*
X119971650Y-129463800D01*
X118901800Y-129463800D01*
X118901800Y-130233650D01*
X118984350Y-130316200D01*
X119789681Y-130316200D01*
X119911043Y-130265930D01*
X120003930Y-130173043D01*
X120054200Y-130051681D01*
X120054200Y-131495800D01*
X118546200Y-131495800D01*
X118546200Y-130233650D01*
X118546200Y-129463800D01*
X118546200Y-129108200D01*
X118546200Y-128338350D01*
X118463650Y-128255800D01*
X117658319Y-128255800D01*
X117536957Y-128306070D01*
X117444070Y-128398957D01*
X117393800Y-128520319D01*
X117393800Y-128651681D01*
X117393800Y-129025650D01*
X117476350Y-129108200D01*
X118546200Y-129108200D01*
X118546200Y-129463800D01*
X117476350Y-129463800D01*
X117393800Y-129546350D01*
X117393800Y-129920319D01*
X117393800Y-130051681D01*
X117444070Y-130173043D01*
X117536957Y-130265930D01*
X117658319Y-130316200D01*
X118463650Y-130316200D01*
X118546200Y-130233650D01*
X118546200Y-131495800D01*
X115344806Y-131495800D01*
X115344806Y-130996836D01*
X115344806Y-130840985D01*
X115318354Y-130777126D01*
X115344806Y-130713267D01*
X115344806Y-130557416D01*
X115344806Y-130046876D01*
X115344806Y-129891025D01*
X115294536Y-129769663D01*
X115201649Y-129676776D01*
X115080287Y-129626506D01*
X114948925Y-129626506D01*
X114275466Y-129626506D01*
X114192916Y-129709056D01*
X114192916Y-130129426D01*
X115262256Y-130129426D01*
X115344806Y-130046876D01*
X115344806Y-130557416D01*
X115262256Y-130474866D01*
X114192916Y-130474866D01*
X114192916Y-130659016D01*
X114192916Y-130895236D01*
X114192916Y-131079386D01*
X115262256Y-131079386D01*
X115344806Y-130996836D01*
X115344806Y-131495800D01*
X115342376Y-131495800D01*
X115314233Y-131476803D01*
X115262256Y-131424826D01*
X115237230Y-131424826D01*
X115204333Y-131402620D01*
X115014606Y-131364571D01*
X113837316Y-131364571D01*
X113837316Y-131079386D01*
X113837316Y-130895236D01*
X113837316Y-130659016D01*
X113837316Y-130474866D01*
X113837316Y-130129426D01*
X113837316Y-129709056D01*
X113754766Y-129626506D01*
X113481200Y-129626506D01*
X113481200Y-128361681D01*
X113481200Y-127956350D01*
X113398650Y-127873800D01*
X112953800Y-127873800D01*
X112953800Y-128543650D01*
X113036350Y-128626200D01*
X113085319Y-128626200D01*
X113216681Y-128626200D01*
X113338043Y-128575930D01*
X113430930Y-128483043D01*
X113481200Y-128361681D01*
X113481200Y-129626506D01*
X113081307Y-129626506D01*
X112949945Y-129626506D01*
X112828583Y-129676776D01*
X112735696Y-129769663D01*
X112685426Y-129891025D01*
X112685426Y-130046876D01*
X112767976Y-130129426D01*
X113837316Y-130129426D01*
X113837316Y-130474866D01*
X112767976Y-130474866D01*
X112685426Y-130557416D01*
X112685426Y-130713267D01*
X112711877Y-130777126D01*
X112685426Y-130840985D01*
X112685426Y-130996836D01*
X112767976Y-131079386D01*
X113837316Y-131079386D01*
X113837316Y-131364571D01*
X113015626Y-131364571D01*
X112831612Y-131400274D01*
X112794236Y-131424826D01*
X112767976Y-131424826D01*
X112717699Y-131475102D01*
X112686191Y-131495800D01*
X112598200Y-131495800D01*
X112598200Y-128543650D01*
X112598200Y-127873800D01*
X112153350Y-127873800D01*
X112070800Y-127956350D01*
X112070800Y-128361681D01*
X112121070Y-128483043D01*
X112213957Y-128575930D01*
X112335319Y-128626200D01*
X112466681Y-128626200D01*
X112515650Y-128626200D01*
X112598200Y-128543650D01*
X112598200Y-131495800D01*
X111743086Y-131495800D01*
X111743086Y-130996836D01*
X111743086Y-130840985D01*
X111716634Y-130777126D01*
X111743086Y-130713267D01*
X111743086Y-130557416D01*
X111743086Y-130046876D01*
X111743086Y-129891025D01*
X111692816Y-129769663D01*
X111599929Y-129676776D01*
X111478567Y-129626506D01*
X111347205Y-129626506D01*
X110673746Y-129626506D01*
X110591196Y-129709056D01*
X110591196Y-130129426D01*
X111660536Y-130129426D01*
X111743086Y-130046876D01*
X111743086Y-130557416D01*
X111660536Y-130474866D01*
X110591196Y-130474866D01*
X110591196Y-130659016D01*
X110591196Y-130895236D01*
X110591196Y-131079386D01*
X111660536Y-131079386D01*
X111743086Y-130996836D01*
X111743086Y-131495800D01*
X111740656Y-131495800D01*
X111712513Y-131476803D01*
X111660536Y-131424826D01*
X111635510Y-131424826D01*
X111602613Y-131402620D01*
X111412886Y-131364571D01*
X110235596Y-131364571D01*
X110235596Y-131079386D01*
X110235596Y-130895236D01*
X110235596Y-130659016D01*
X110235596Y-130474866D01*
X110235596Y-130129426D01*
X110235596Y-129709056D01*
X110153046Y-129626506D01*
X109479587Y-129626506D01*
X109348225Y-129626506D01*
X109226863Y-129676776D01*
X109133976Y-129769663D01*
X109083706Y-129891025D01*
X109083706Y-130046876D01*
X109166256Y-130129426D01*
X110235596Y-130129426D01*
X110235596Y-130474866D01*
X109166256Y-130474866D01*
X109083706Y-130557416D01*
X109083706Y-130713267D01*
X109110157Y-130777126D01*
X109083706Y-130840985D01*
X109083706Y-130996836D01*
X109166256Y-131079386D01*
X110235596Y-131079386D01*
X110235596Y-131364571D01*
X109413906Y-131364571D01*
X109229892Y-131400274D01*
X109192516Y-131424826D01*
X109166256Y-131424826D01*
X109115979Y-131475102D01*
X109084471Y-131495800D01*
X108130055Y-131495800D01*
X108130055Y-131310000D01*
X108094352Y-131125986D01*
X108026200Y-131022237D01*
X108026200Y-130597216D01*
X108092006Y-130499727D01*
X108130055Y-130310000D01*
X108130055Y-129110000D01*
X108094352Y-128925986D01*
X108026200Y-128822237D01*
X108026200Y-126314200D01*
X111226532Y-126314200D01*
X111328995Y-126382664D01*
X111328996Y-126382664D01*
X111572000Y-126431000D01*
X111915735Y-126431000D01*
X111944648Y-126580014D01*
X112050888Y-126741745D01*
X112192615Y-126837411D01*
X112121070Y-126908957D01*
X112070800Y-127030319D01*
X112070800Y-127435650D01*
X112153350Y-127518200D01*
X112598200Y-127518200D01*
X112598200Y-127498200D01*
X112953800Y-127498200D01*
X112953800Y-127518200D01*
X113398650Y-127518200D01*
X113481200Y-127435650D01*
X113481200Y-127030319D01*
X113430930Y-126908957D01*
X113358739Y-126836766D01*
X113496745Y-126746112D01*
X113605006Y-126585727D01*
X113643055Y-126396000D01*
X113643055Y-126314200D01*
X113868200Y-126314200D01*
X113868200Y-124282200D01*
X121081800Y-124282200D01*
X121081800Y-131495800D01*
X121081800Y-131495800D01*
G37*
X121081800Y-131495800D02*
X120054200Y-131495800D01*
X120054200Y-130051681D01*
X120054200Y-129920319D01*
X120054200Y-129546350D01*
X120054200Y-129025650D01*
X120054200Y-128651681D01*
X120054200Y-128520319D01*
X120003930Y-128398957D01*
X119911043Y-128306070D01*
X119789681Y-128255800D01*
X118984350Y-128255800D01*
X118901800Y-128338350D01*
X118901800Y-129108200D01*
X119971650Y-129108200D01*
X120054200Y-129025650D01*
X120054200Y-129546350D01*
X119971650Y-129463800D01*
X118901800Y-129463800D01*
X118901800Y-130233650D01*
X118984350Y-130316200D01*
X119789681Y-130316200D01*
X119911043Y-130265930D01*
X120003930Y-130173043D01*
X120054200Y-130051681D01*
X120054200Y-131495800D01*
X118546200Y-131495800D01*
X118546200Y-130233650D01*
X118546200Y-129463800D01*
X118546200Y-129108200D01*
X118546200Y-128338350D01*
X118463650Y-128255800D01*
X117658319Y-128255800D01*
X117536957Y-128306070D01*
X117444070Y-128398957D01*
X117393800Y-128520319D01*
X117393800Y-128651681D01*
X117393800Y-129025650D01*
X117476350Y-129108200D01*
X118546200Y-129108200D01*
X118546200Y-129463800D01*
X117476350Y-129463800D01*
X117393800Y-129546350D01*
X117393800Y-129920319D01*
X117393800Y-130051681D01*
X117444070Y-130173043D01*
X117536957Y-130265930D01*
X117658319Y-130316200D01*
X118463650Y-130316200D01*
X118546200Y-130233650D01*
X118546200Y-131495800D01*
X115344806Y-131495800D01*
X115344806Y-130996836D01*
X115344806Y-130840985D01*
X115318354Y-130777126D01*
X115344806Y-130713267D01*
X115344806Y-130557416D01*
X115344806Y-130046876D01*
X115344806Y-129891025D01*
X115294536Y-129769663D01*
X115201649Y-129676776D01*
X115080287Y-129626506D01*
X114948925Y-129626506D01*
X114275466Y-129626506D01*
X114192916Y-129709056D01*
X114192916Y-130129426D01*
X115262256Y-130129426D01*
X115344806Y-130046876D01*
X115344806Y-130557416D01*
X115262256Y-130474866D01*
X114192916Y-130474866D01*
X114192916Y-130659016D01*
X114192916Y-130895236D01*
X114192916Y-131079386D01*
X115262256Y-131079386D01*
X115344806Y-130996836D01*
X115344806Y-131495800D01*
X115342376Y-131495800D01*
X115314233Y-131476803D01*
X115262256Y-131424826D01*
X115237230Y-131424826D01*
X115204333Y-131402620D01*
X115014606Y-131364571D01*
X113837316Y-131364571D01*
X113837316Y-131079386D01*
X113837316Y-130895236D01*
X113837316Y-130659016D01*
X113837316Y-130474866D01*
X113837316Y-130129426D01*
X113837316Y-129709056D01*
X113754766Y-129626506D01*
X113481200Y-129626506D01*
X113481200Y-128361681D01*
X113481200Y-127956350D01*
X113398650Y-127873800D01*
X112953800Y-127873800D01*
X112953800Y-128543650D01*
X113036350Y-128626200D01*
X113085319Y-128626200D01*
X113216681Y-128626200D01*
X113338043Y-128575930D01*
X113430930Y-128483043D01*
X113481200Y-128361681D01*
X113481200Y-129626506D01*
X113081307Y-129626506D01*
X112949945Y-129626506D01*
X112828583Y-129676776D01*
X112735696Y-129769663D01*
X112685426Y-129891025D01*
X112685426Y-130046876D01*
X112767976Y-130129426D01*
X113837316Y-130129426D01*
X113837316Y-130474866D01*
X112767976Y-130474866D01*
X112685426Y-130557416D01*
X112685426Y-130713267D01*
X112711877Y-130777126D01*
X112685426Y-130840985D01*
X112685426Y-130996836D01*
X112767976Y-131079386D01*
X113837316Y-131079386D01*
X113837316Y-131364571D01*
X113015626Y-131364571D01*
X112831612Y-131400274D01*
X112794236Y-131424826D01*
X112767976Y-131424826D01*
X112717699Y-131475102D01*
X112686191Y-131495800D01*
X112598200Y-131495800D01*
X112598200Y-128543650D01*
X112598200Y-127873800D01*
X112153350Y-127873800D01*
X112070800Y-127956350D01*
X112070800Y-128361681D01*
X112121070Y-128483043D01*
X112213957Y-128575930D01*
X112335319Y-128626200D01*
X112466681Y-128626200D01*
X112515650Y-128626200D01*
X112598200Y-128543650D01*
X112598200Y-131495800D01*
X111743086Y-131495800D01*
X111743086Y-130996836D01*
X111743086Y-130840985D01*
X111716634Y-130777126D01*
X111743086Y-130713267D01*
X111743086Y-130557416D01*
X111743086Y-130046876D01*
X111743086Y-129891025D01*
X111692816Y-129769663D01*
X111599929Y-129676776D01*
X111478567Y-129626506D01*
X111347205Y-129626506D01*
X110673746Y-129626506D01*
X110591196Y-129709056D01*
X110591196Y-130129426D01*
X111660536Y-130129426D01*
X111743086Y-130046876D01*
X111743086Y-130557416D01*
X111660536Y-130474866D01*
X110591196Y-130474866D01*
X110591196Y-130659016D01*
X110591196Y-130895236D01*
X110591196Y-131079386D01*
X111660536Y-131079386D01*
X111743086Y-130996836D01*
X111743086Y-131495800D01*
X111740656Y-131495800D01*
X111712513Y-131476803D01*
X111660536Y-131424826D01*
X111635510Y-131424826D01*
X111602613Y-131402620D01*
X111412886Y-131364571D01*
X110235596Y-131364571D01*
X110235596Y-131079386D01*
X110235596Y-130895236D01*
X110235596Y-130659016D01*
X110235596Y-130474866D01*
X110235596Y-130129426D01*
X110235596Y-129709056D01*
X110153046Y-129626506D01*
X109479587Y-129626506D01*
X109348225Y-129626506D01*
X109226863Y-129676776D01*
X109133976Y-129769663D01*
X109083706Y-129891025D01*
X109083706Y-130046876D01*
X109166256Y-130129426D01*
X110235596Y-130129426D01*
X110235596Y-130474866D01*
X109166256Y-130474866D01*
X109083706Y-130557416D01*
X109083706Y-130713267D01*
X109110157Y-130777126D01*
X109083706Y-130840985D01*
X109083706Y-130996836D01*
X109166256Y-131079386D01*
X110235596Y-131079386D01*
X110235596Y-131364571D01*
X109413906Y-131364571D01*
X109229892Y-131400274D01*
X109192516Y-131424826D01*
X109166256Y-131424826D01*
X109115979Y-131475102D01*
X109084471Y-131495800D01*
X108130055Y-131495800D01*
X108130055Y-131310000D01*
X108094352Y-131125986D01*
X108026200Y-131022237D01*
X108026200Y-130597216D01*
X108092006Y-130499727D01*
X108130055Y-130310000D01*
X108130055Y-129110000D01*
X108094352Y-128925986D01*
X108026200Y-128822237D01*
X108026200Y-126314200D01*
X111226532Y-126314200D01*
X111328995Y-126382664D01*
X111328996Y-126382664D01*
X111572000Y-126431000D01*
X111915735Y-126431000D01*
X111944648Y-126580014D01*
X112050888Y-126741745D01*
X112192615Y-126837411D01*
X112121070Y-126908957D01*
X112070800Y-127030319D01*
X112070800Y-127435650D01*
X112153350Y-127518200D01*
X112598200Y-127518200D01*
X112598200Y-127498200D01*
X112953800Y-127498200D01*
X112953800Y-127518200D01*
X113398650Y-127518200D01*
X113481200Y-127435650D01*
X113481200Y-127030319D01*
X113430930Y-126908957D01*
X113358739Y-126836766D01*
X113496745Y-126746112D01*
X113605006Y-126585727D01*
X113643055Y-126396000D01*
X113643055Y-126314200D01*
X113868200Y-126314200D01*
X113868200Y-124282200D01*
X121081800Y-124282200D01*
X121081800Y-131495800D01*
D36*
G36*
X85217000Y-91470200D02*
X85202372Y-91470200D01*
X85166200Y-91470200D01*
X85090000Y-91546400D01*
X85090000Y-92423000D01*
X85110000Y-92423000D01*
X85110000Y-92677000D01*
X85090000Y-92677000D01*
X85090000Y-92697000D01*
X84836000Y-92697000D01*
X84836000Y-92677000D01*
X84836000Y-92423000D01*
X84836000Y-91546400D01*
X84759800Y-91470200D01*
X84723628Y-91470200D01*
X84602371Y-91470200D01*
X84490344Y-91516603D01*
X84404603Y-91602345D01*
X84358200Y-91714372D01*
X84358200Y-92346800D01*
X84434400Y-92423000D01*
X84836000Y-92423000D01*
X84836000Y-92677000D01*
X84434400Y-92677000D01*
X84358200Y-92753200D01*
X84358200Y-93345000D01*
X84053000Y-93345000D01*
X84053000Y-91098600D01*
X84053000Y-90297000D01*
X82951400Y-90297000D01*
X82875200Y-90373200D01*
X82875200Y-90809372D01*
X82875200Y-90930629D01*
X82921603Y-91042656D01*
X83007345Y-91128397D01*
X83119372Y-91174800D01*
X83976800Y-91174800D01*
X84053000Y-91098600D01*
X84053000Y-93345000D01*
X83693000Y-93345000D01*
X83693000Y-95123000D01*
X83606972Y-95123000D01*
X83458153Y-95022544D01*
X83483800Y-94960628D01*
X83483800Y-94503200D01*
X83483800Y-94096800D01*
X83483800Y-93639372D01*
X83437397Y-93527345D01*
X83351656Y-93441603D01*
X83239629Y-93395200D01*
X83118372Y-93395200D01*
X83007200Y-93395200D01*
X82931000Y-93471400D01*
X82931000Y-94173000D01*
X83407600Y-94173000D01*
X83483800Y-94096800D01*
X83483800Y-94503200D01*
X83407600Y-94427000D01*
X82931000Y-94427000D01*
X82931000Y-94447000D01*
X82677000Y-94447000D01*
X82677000Y-94427000D01*
X82657000Y-94427000D01*
X82657000Y-94173000D01*
X82677000Y-94173000D01*
X82677000Y-93471400D01*
X82600800Y-93395200D01*
X82489628Y-93395200D01*
X82368371Y-93395200D01*
X82256344Y-93441603D01*
X82170603Y-93527345D01*
X82124200Y-93639372D01*
X82124200Y-93853000D01*
X81695290Y-93853000D01*
X81695290Y-93294200D01*
X81695290Y-92887800D01*
X81695290Y-92279802D01*
X81648887Y-92167775D01*
X81563146Y-92082033D01*
X81451119Y-92035630D01*
X81329862Y-92035630D01*
X78943200Y-92035630D01*
X78867000Y-92111830D01*
X78867000Y-92964000D01*
X81619090Y-92964000D01*
X81695290Y-92887800D01*
X81695290Y-93294200D01*
X81619090Y-93218000D01*
X78867000Y-93218000D01*
X78867000Y-93238000D01*
X78613000Y-93238000D01*
X78613000Y-93218000D01*
X78613000Y-92964000D01*
X78613000Y-92111830D01*
X78536800Y-92035630D01*
X76150138Y-92035630D01*
X76028881Y-92035630D01*
X75916854Y-92082033D01*
X75831113Y-92167775D01*
X75784710Y-92279802D01*
X75784710Y-92887800D01*
X75860910Y-92964000D01*
X78613000Y-92964000D01*
X78613000Y-93218000D01*
X75860910Y-93218000D01*
X75784710Y-93294200D01*
X75784710Y-93853000D01*
X74549000Y-93853000D01*
X74549000Y-90043000D01*
X75959941Y-90043000D01*
X75879460Y-90123341D01*
X75730270Y-90482630D01*
X75729931Y-90871663D01*
X75878493Y-91231212D01*
X76153341Y-91506540D01*
X76512630Y-91655730D01*
X76901663Y-91656069D01*
X77261212Y-91507507D01*
X77536540Y-91232659D01*
X77685730Y-90873370D01*
X77686069Y-90484337D01*
X77537507Y-90124788D01*
X77455861Y-90043000D01*
X82951400Y-90043000D01*
X84053000Y-90043000D01*
X84307000Y-90043000D01*
X84327000Y-90043000D01*
X84327000Y-90297000D01*
X84307000Y-90297000D01*
X84307000Y-91098600D01*
X84383200Y-91174800D01*
X85217000Y-91174800D01*
X85217000Y-91470200D01*
X85217000Y-91470200D01*
G37*
X85217000Y-91470200D02*
X85202372Y-91470200D01*
X85166200Y-91470200D01*
X85090000Y-91546400D01*
X85090000Y-92423000D01*
X85110000Y-92423000D01*
X85110000Y-92677000D01*
X85090000Y-92677000D01*
X85090000Y-92697000D01*
X84836000Y-92697000D01*
X84836000Y-92677000D01*
X84836000Y-92423000D01*
X84836000Y-91546400D01*
X84759800Y-91470200D01*
X84723628Y-91470200D01*
X84602371Y-91470200D01*
X84490344Y-91516603D01*
X84404603Y-91602345D01*
X84358200Y-91714372D01*
X84358200Y-92346800D01*
X84434400Y-92423000D01*
X84836000Y-92423000D01*
X84836000Y-92677000D01*
X84434400Y-92677000D01*
X84358200Y-92753200D01*
X84358200Y-93345000D01*
X84053000Y-93345000D01*
X84053000Y-91098600D01*
X84053000Y-90297000D01*
X82951400Y-90297000D01*
X82875200Y-90373200D01*
X82875200Y-90809372D01*
X82875200Y-90930629D01*
X82921603Y-91042656D01*
X83007345Y-91128397D01*
X83119372Y-91174800D01*
X83976800Y-91174800D01*
X84053000Y-91098600D01*
X84053000Y-93345000D01*
X83693000Y-93345000D01*
X83693000Y-95123000D01*
X83606972Y-95123000D01*
X83458153Y-95022544D01*
X83483800Y-94960628D01*
X83483800Y-94503200D01*
X83483800Y-94096800D01*
X83483800Y-93639372D01*
X83437397Y-93527345D01*
X83351656Y-93441603D01*
X83239629Y-93395200D01*
X83118372Y-93395200D01*
X83007200Y-93395200D01*
X82931000Y-93471400D01*
X82931000Y-94173000D01*
X83407600Y-94173000D01*
X83483800Y-94096800D01*
X83483800Y-94503200D01*
X83407600Y-94427000D01*
X82931000Y-94427000D01*
X82931000Y-94447000D01*
X82677000Y-94447000D01*
X82677000Y-94427000D01*
X82657000Y-94427000D01*
X82657000Y-94173000D01*
X82677000Y-94173000D01*
X82677000Y-93471400D01*
X82600800Y-93395200D01*
X82489628Y-93395200D01*
X82368371Y-93395200D01*
X82256344Y-93441603D01*
X82170603Y-93527345D01*
X82124200Y-93639372D01*
X82124200Y-93853000D01*
X81695290Y-93853000D01*
X81695290Y-93294200D01*
X81695290Y-92887800D01*
X81695290Y-92279802D01*
X81648887Y-92167775D01*
X81563146Y-92082033D01*
X81451119Y-92035630D01*
X81329862Y-92035630D01*
X78943200Y-92035630D01*
X78867000Y-92111830D01*
X78867000Y-92964000D01*
X81619090Y-92964000D01*
X81695290Y-92887800D01*
X81695290Y-93294200D01*
X81619090Y-93218000D01*
X78867000Y-93218000D01*
X78867000Y-93238000D01*
X78613000Y-93238000D01*
X78613000Y-93218000D01*
X78613000Y-92964000D01*
X78613000Y-92111830D01*
X78536800Y-92035630D01*
X76150138Y-92035630D01*
X76028881Y-92035630D01*
X75916854Y-92082033D01*
X75831113Y-92167775D01*
X75784710Y-92279802D01*
X75784710Y-92887800D01*
X75860910Y-92964000D01*
X78613000Y-92964000D01*
X78613000Y-93218000D01*
X75860910Y-93218000D01*
X75784710Y-93294200D01*
X75784710Y-93853000D01*
X74549000Y-93853000D01*
X74549000Y-90043000D01*
X75959941Y-90043000D01*
X75879460Y-90123341D01*
X75730270Y-90482630D01*
X75729931Y-90871663D01*
X75878493Y-91231212D01*
X76153341Y-91506540D01*
X76512630Y-91655730D01*
X76901663Y-91656069D01*
X77261212Y-91507507D01*
X77536540Y-91232659D01*
X77685730Y-90873370D01*
X77686069Y-90484337D01*
X77537507Y-90124788D01*
X77455861Y-90043000D01*
X82951400Y-90043000D01*
X84053000Y-90043000D01*
X84307000Y-90043000D01*
X84327000Y-90043000D01*
X84327000Y-90297000D01*
X84307000Y-90297000D01*
X84307000Y-91098600D01*
X84383200Y-91174800D01*
X85217000Y-91174800D01*
X85217000Y-91470200D01*
G36*
X91313000Y-94361000D02*
X90551000Y-94361000D01*
X90551000Y-93218000D01*
X89377800Y-93218000D01*
X89377800Y-92753200D01*
X89301600Y-92677000D01*
X88900000Y-92677000D01*
X88900000Y-92697000D01*
X88773000Y-92697000D01*
X88773000Y-92403000D01*
X88900000Y-92403000D01*
X88900000Y-92423000D01*
X89301600Y-92423000D01*
X89377800Y-92346800D01*
X89377800Y-91821000D01*
X91313000Y-91821000D01*
X91313000Y-94361000D01*
X91313000Y-94361000D01*
G37*
X91313000Y-94361000D02*
X90551000Y-94361000D01*
X90551000Y-93218000D01*
X89377800Y-93218000D01*
X89377800Y-92753200D01*
X89301600Y-92677000D01*
X88900000Y-92677000D01*
X88900000Y-92697000D01*
X88773000Y-92697000D01*
X88773000Y-92403000D01*
X88900000Y-92403000D01*
X88900000Y-92423000D01*
X89301600Y-92423000D01*
X89377800Y-92346800D01*
X89377800Y-91821000D01*
X91313000Y-91821000D01*
X91313000Y-94361000D01*
G36*
X93853000Y-96647000D02*
X93345000Y-96647000D01*
X93345000Y-101727000D01*
X93135800Y-101727000D01*
X93135800Y-96352628D01*
X93135800Y-95895200D01*
X93059600Y-95819000D01*
X92583000Y-95819000D01*
X92583000Y-96520600D01*
X92659200Y-96596800D01*
X92770372Y-96596800D01*
X92891629Y-96596800D01*
X93003656Y-96550397D01*
X93089397Y-96464655D01*
X93135800Y-96352628D01*
X93135800Y-101727000D01*
X92329000Y-101727000D01*
X92329000Y-96520600D01*
X92329000Y-95819000D01*
X91852400Y-95819000D01*
X91776200Y-95895200D01*
X91776200Y-96352628D01*
X91822603Y-96464655D01*
X91908344Y-96550397D01*
X92020371Y-96596800D01*
X92141628Y-96596800D01*
X92252800Y-96596800D01*
X92329000Y-96520600D01*
X92329000Y-101727000D01*
X91666800Y-101727000D01*
X91666800Y-101348629D01*
X91666800Y-101227372D01*
X91666800Y-101041200D01*
X91666800Y-100634800D01*
X91666800Y-100448628D01*
X91666800Y-100327371D01*
X91620397Y-100215344D01*
X91534655Y-100129603D01*
X91422628Y-100083200D01*
X90965200Y-100083200D01*
X90889000Y-100159400D01*
X90889000Y-100711000D01*
X91590600Y-100711000D01*
X91666800Y-100634800D01*
X91666800Y-101041200D01*
X91590600Y-100965000D01*
X90889000Y-100965000D01*
X90889000Y-101516600D01*
X90965200Y-101592800D01*
X91422628Y-101592800D01*
X91534655Y-101546397D01*
X91620397Y-101460656D01*
X91666800Y-101348629D01*
X91666800Y-101727000D01*
X90424000Y-101727000D01*
X90424000Y-101592800D01*
X90558800Y-101592800D01*
X90635000Y-101516600D01*
X90635000Y-100965000D01*
X90615000Y-100965000D01*
X90615000Y-100711000D01*
X90635000Y-100711000D01*
X90635000Y-100159400D01*
X90558800Y-100083200D01*
X90424000Y-100083200D01*
X90424000Y-96520000D01*
X89493914Y-96520000D01*
X89623730Y-96207370D01*
X89624069Y-95818337D01*
X89475507Y-95458788D01*
X89200659Y-95183460D01*
X88841370Y-95034270D01*
X88452337Y-95033931D01*
X88092788Y-95182493D01*
X87817460Y-95457341D01*
X87757035Y-95602858D01*
X87697507Y-95458788D01*
X87422659Y-95183460D01*
X87063370Y-95034270D01*
X86674337Y-95033931D01*
X86314788Y-95182493D01*
X86039460Y-95457341D01*
X85979035Y-95602858D01*
X85919507Y-95458788D01*
X85644659Y-95183460D01*
X85285370Y-95034270D01*
X84896337Y-95033931D01*
X84582000Y-95163811D01*
X84582000Y-94107000D01*
X87249000Y-94107000D01*
X87249000Y-93629800D01*
X87263628Y-93629800D01*
X87299800Y-93629800D01*
X87376000Y-93553600D01*
X87376000Y-92677000D01*
X87356000Y-92677000D01*
X87356000Y-92423000D01*
X87376000Y-92423000D01*
X87376000Y-91546400D01*
X87299800Y-91470200D01*
X87263628Y-91470200D01*
X87249000Y-91470200D01*
X87249000Y-89789000D01*
X91059000Y-89789000D01*
X91059000Y-90805000D01*
X87757000Y-90805000D01*
X87757000Y-91470200D01*
X87742372Y-91470200D01*
X87706200Y-91470200D01*
X87630000Y-91546400D01*
X87630000Y-92423000D01*
X87650000Y-92423000D01*
X87650000Y-92677000D01*
X87630000Y-92677000D01*
X87630000Y-93553600D01*
X87706200Y-93629800D01*
X87742372Y-93629800D01*
X87757000Y-93629800D01*
X87757000Y-94107000D01*
X89789000Y-94107000D01*
X89789000Y-95123000D01*
X91440000Y-95123000D01*
X91776200Y-95123000D01*
X91776200Y-95488800D01*
X91852400Y-95565000D01*
X92329000Y-95565000D01*
X92329000Y-95545000D01*
X92583000Y-95545000D01*
X92583000Y-95565000D01*
X93059600Y-95565000D01*
X93135800Y-95488800D01*
X93135800Y-95123000D01*
X93853000Y-95123000D01*
X93853000Y-96647000D01*
X93853000Y-96647000D01*
G37*
X93853000Y-96647000D02*
X93345000Y-96647000D01*
X93345000Y-101727000D01*
X93135800Y-101727000D01*
X93135800Y-96352628D01*
X93135800Y-95895200D01*
X93059600Y-95819000D01*
X92583000Y-95819000D01*
X92583000Y-96520600D01*
X92659200Y-96596800D01*
X92770372Y-96596800D01*
X92891629Y-96596800D01*
X93003656Y-96550397D01*
X93089397Y-96464655D01*
X93135800Y-96352628D01*
X93135800Y-101727000D01*
X92329000Y-101727000D01*
X92329000Y-96520600D01*
X92329000Y-95819000D01*
X91852400Y-95819000D01*
X91776200Y-95895200D01*
X91776200Y-96352628D01*
X91822603Y-96464655D01*
X91908344Y-96550397D01*
X92020371Y-96596800D01*
X92141628Y-96596800D01*
X92252800Y-96596800D01*
X92329000Y-96520600D01*
X92329000Y-101727000D01*
X91666800Y-101727000D01*
X91666800Y-101348629D01*
X91666800Y-101227372D01*
X91666800Y-101041200D01*
X91666800Y-100634800D01*
X91666800Y-100448628D01*
X91666800Y-100327371D01*
X91620397Y-100215344D01*
X91534655Y-100129603D01*
X91422628Y-100083200D01*
X90965200Y-100083200D01*
X90889000Y-100159400D01*
X90889000Y-100711000D01*
X91590600Y-100711000D01*
X91666800Y-100634800D01*
X91666800Y-101041200D01*
X91590600Y-100965000D01*
X90889000Y-100965000D01*
X90889000Y-101516600D01*
X90965200Y-101592800D01*
X91422628Y-101592800D01*
X91534655Y-101546397D01*
X91620397Y-101460656D01*
X91666800Y-101348629D01*
X91666800Y-101727000D01*
X90424000Y-101727000D01*
X90424000Y-101592800D01*
X90558800Y-101592800D01*
X90635000Y-101516600D01*
X90635000Y-100965000D01*
X90615000Y-100965000D01*
X90615000Y-100711000D01*
X90635000Y-100711000D01*
X90635000Y-100159400D01*
X90558800Y-100083200D01*
X90424000Y-100083200D01*
X90424000Y-96520000D01*
X89493914Y-96520000D01*
X89623730Y-96207370D01*
X89624069Y-95818337D01*
X89475507Y-95458788D01*
X89200659Y-95183460D01*
X88841370Y-95034270D01*
X88452337Y-95033931D01*
X88092788Y-95182493D01*
X87817460Y-95457341D01*
X87757035Y-95602858D01*
X87697507Y-95458788D01*
X87422659Y-95183460D01*
X87063370Y-95034270D01*
X86674337Y-95033931D01*
X86314788Y-95182493D01*
X86039460Y-95457341D01*
X85979035Y-95602858D01*
X85919507Y-95458788D01*
X85644659Y-95183460D01*
X85285370Y-95034270D01*
X84896337Y-95033931D01*
X84582000Y-95163811D01*
X84582000Y-94107000D01*
X87249000Y-94107000D01*
X87249000Y-93629800D01*
X87263628Y-93629800D01*
X87299800Y-93629800D01*
X87376000Y-93553600D01*
X87376000Y-92677000D01*
X87356000Y-92677000D01*
X87356000Y-92423000D01*
X87376000Y-92423000D01*
X87376000Y-91546400D01*
X87299800Y-91470200D01*
X87263628Y-91470200D01*
X87249000Y-91470200D01*
X87249000Y-89789000D01*
X91059000Y-89789000D01*
X91059000Y-90805000D01*
X87757000Y-90805000D01*
X87757000Y-91470200D01*
X87742372Y-91470200D01*
X87706200Y-91470200D01*
X87630000Y-91546400D01*
X87630000Y-92423000D01*
X87650000Y-92423000D01*
X87650000Y-92677000D01*
X87630000Y-92677000D01*
X87630000Y-93553600D01*
X87706200Y-93629800D01*
X87742372Y-93629800D01*
X87757000Y-93629800D01*
X87757000Y-94107000D01*
X89789000Y-94107000D01*
X89789000Y-95123000D01*
X91440000Y-95123000D01*
X91776200Y-95123000D01*
X91776200Y-95488800D01*
X91852400Y-95565000D01*
X92329000Y-95565000D01*
X92329000Y-95545000D01*
X92583000Y-95545000D01*
X92583000Y-95565000D01*
X93059600Y-95565000D01*
X93135800Y-95488800D01*
X93135800Y-95123000D01*
X93853000Y-95123000D01*
X93853000Y-96647000D01*
G36*
X92710000Y-92887200D02*
X92659200Y-92887200D01*
X92583000Y-92963400D01*
X92583000Y-93665000D01*
X92603000Y-93665000D01*
X92603000Y-93919000D01*
X92583000Y-93919000D01*
X92583000Y-93939000D01*
X92329000Y-93939000D01*
X92329000Y-93919000D01*
X92309000Y-93919000D01*
X92309000Y-93665000D01*
X92329000Y-93665000D01*
X92329000Y-92963400D01*
X92252800Y-92887200D01*
X92202000Y-92887200D01*
X92202000Y-91920800D01*
X92252800Y-91920800D01*
X92329000Y-91844600D01*
X92329000Y-91143000D01*
X92309000Y-91143000D01*
X92309000Y-90889000D01*
X92329000Y-90889000D01*
X92329000Y-90869000D01*
X92583000Y-90869000D01*
X92583000Y-90889000D01*
X92603000Y-90889000D01*
X92603000Y-91143000D01*
X92583000Y-91143000D01*
X92583000Y-91844600D01*
X92659200Y-91920800D01*
X92710000Y-91920800D01*
X92710000Y-92887200D01*
X92710000Y-92887200D01*
G37*
X92710000Y-92887200D02*
X92659200Y-92887200D01*
X92583000Y-92963400D01*
X92583000Y-93665000D01*
X92603000Y-93665000D01*
X92603000Y-93919000D01*
X92583000Y-93919000D01*
X92583000Y-93939000D01*
X92329000Y-93939000D01*
X92329000Y-93919000D01*
X92309000Y-93919000D01*
X92309000Y-93665000D01*
X92329000Y-93665000D01*
X92329000Y-92963400D01*
X92252800Y-92887200D01*
X92202000Y-92887200D01*
X92202000Y-91920800D01*
X92252800Y-91920800D01*
X92329000Y-91844600D01*
X92329000Y-91143000D01*
X92309000Y-91143000D01*
X92309000Y-90889000D01*
X92329000Y-90889000D01*
X92329000Y-90869000D01*
X92583000Y-90869000D01*
X92583000Y-90889000D01*
X92603000Y-90889000D01*
X92603000Y-91143000D01*
X92583000Y-91143000D01*
X92583000Y-91844600D01*
X92659200Y-91920800D01*
X92710000Y-91920800D01*
X92710000Y-92887200D01*
G36*
X124079000Y-97155000D02*
X123698000Y-97155000D01*
X123698000Y-97067650D01*
X123698000Y-96172000D01*
X123277350Y-96172000D01*
X123194800Y-96254550D01*
X123194800Y-96885681D01*
X123245070Y-97007043D01*
X123337957Y-97099930D01*
X123459319Y-97150200D01*
X123590681Y-97150200D01*
X123615450Y-97150200D01*
X123698000Y-97067650D01*
X123698000Y-97155000D01*
X122625200Y-97155000D01*
X122625200Y-94960681D01*
X122625200Y-94504550D01*
X122542650Y-94422000D01*
X122047000Y-94422000D01*
X122047000Y-95142650D01*
X122129550Y-95225200D01*
X122229319Y-95225200D01*
X122360681Y-95225200D01*
X122482043Y-95174930D01*
X122574930Y-95082043D01*
X122625200Y-94960681D01*
X122625200Y-97155000D01*
X121285000Y-97155000D01*
X121285000Y-95101973D01*
X121357957Y-95174930D01*
X121479319Y-95225200D01*
X121610681Y-95225200D01*
X121710450Y-95225200D01*
X121793000Y-95142650D01*
X121793000Y-94422000D01*
X121773000Y-94422000D01*
X121773000Y-94168000D01*
X121793000Y-94168000D01*
X121793000Y-94148000D01*
X122047000Y-94148000D01*
X122047000Y-94168000D01*
X122542650Y-94168000D01*
X122603650Y-94107000D01*
X122809000Y-94107000D01*
X122809000Y-95123000D01*
X123228483Y-95123000D01*
X123194800Y-95204319D01*
X123194800Y-95835450D01*
X123277350Y-95918000D01*
X123698000Y-95918000D01*
X123698000Y-95898000D01*
X123952000Y-95898000D01*
X123952000Y-95918000D01*
X123972000Y-95918000D01*
X123972000Y-96172000D01*
X123952000Y-96172000D01*
X123952000Y-97067650D01*
X124034550Y-97150200D01*
X124059319Y-97150200D01*
X124079000Y-97150200D01*
X124079000Y-97155000D01*
X124079000Y-97155000D01*
G37*
X124079000Y-97155000D02*
X123698000Y-97155000D01*
X123698000Y-97067650D01*
X123698000Y-96172000D01*
X123277350Y-96172000D01*
X123194800Y-96254550D01*
X123194800Y-96885681D01*
X123245070Y-97007043D01*
X123337957Y-97099930D01*
X123459319Y-97150200D01*
X123590681Y-97150200D01*
X123615450Y-97150200D01*
X123698000Y-97067650D01*
X123698000Y-97155000D01*
X122625200Y-97155000D01*
X122625200Y-94960681D01*
X122625200Y-94504550D01*
X122542650Y-94422000D01*
X122047000Y-94422000D01*
X122047000Y-95142650D01*
X122129550Y-95225200D01*
X122229319Y-95225200D01*
X122360681Y-95225200D01*
X122482043Y-95174930D01*
X122574930Y-95082043D01*
X122625200Y-94960681D01*
X122625200Y-97155000D01*
X121285000Y-97155000D01*
X121285000Y-95101973D01*
X121357957Y-95174930D01*
X121479319Y-95225200D01*
X121610681Y-95225200D01*
X121710450Y-95225200D01*
X121793000Y-95142650D01*
X121793000Y-94422000D01*
X121773000Y-94422000D01*
X121773000Y-94168000D01*
X121793000Y-94168000D01*
X121793000Y-94148000D01*
X122047000Y-94148000D01*
X122047000Y-94168000D01*
X122542650Y-94168000D01*
X122603650Y-94107000D01*
X122809000Y-94107000D01*
X122809000Y-95123000D01*
X123228483Y-95123000D01*
X123194800Y-95204319D01*
X123194800Y-95835450D01*
X123277350Y-95918000D01*
X123698000Y-95918000D01*
X123698000Y-95898000D01*
X123952000Y-95898000D01*
X123952000Y-95918000D01*
X123972000Y-95918000D01*
X123972000Y-96172000D01*
X123952000Y-96172000D01*
X123952000Y-97067650D01*
X124034550Y-97150200D01*
X124059319Y-97150200D01*
X124079000Y-97150200D01*
X124079000Y-97155000D01*
G36*
X137665327Y-88265000D02*
X137543618Y-94107000D01*
X135538210Y-94107000D01*
X135538210Y-92538191D01*
X135538210Y-90681810D01*
X135455660Y-90599260D01*
X133985000Y-90599260D01*
X133985000Y-92720160D01*
X134067550Y-92802710D01*
X135142329Y-92802710D01*
X135273691Y-92802710D01*
X135395053Y-92752440D01*
X135487940Y-92659553D01*
X135538210Y-92538191D01*
X135538210Y-94107000D01*
X133731000Y-94107000D01*
X133731000Y-92720160D01*
X133731000Y-90599260D01*
X132260340Y-90599260D01*
X132177790Y-90681810D01*
X132177790Y-92538191D01*
X132228060Y-92659553D01*
X132320947Y-92752440D01*
X132442309Y-92802710D01*
X132573671Y-92802710D01*
X133648450Y-92802710D01*
X133731000Y-92720160D01*
X133731000Y-94107000D01*
X132023200Y-94107000D01*
X132023200Y-88229681D01*
X132023200Y-87773550D01*
X131940650Y-87691000D01*
X131445000Y-87691000D01*
X131445000Y-88411650D01*
X131527550Y-88494200D01*
X131627319Y-88494200D01*
X131758681Y-88494200D01*
X131880043Y-88443930D01*
X131972930Y-88351043D01*
X132023200Y-88229681D01*
X132023200Y-94107000D01*
X131191000Y-94107000D01*
X131191000Y-88411650D01*
X131191000Y-87691000D01*
X130695350Y-87691000D01*
X130612800Y-87773550D01*
X130612800Y-88229681D01*
X130663070Y-88351043D01*
X130755957Y-88443930D01*
X130877319Y-88494200D01*
X131008681Y-88494200D01*
X131108450Y-88494200D01*
X131191000Y-88411650D01*
X131191000Y-94107000D01*
X128582440Y-94107000D01*
X128582440Y-91420000D01*
X128582440Y-89870000D01*
X128535463Y-89627877D01*
X128478200Y-89540704D01*
X128478200Y-88649681D01*
X128478200Y-88518319D01*
X128478200Y-88093550D01*
X128395650Y-88011000D01*
X127275000Y-88011000D01*
X127275000Y-88831650D01*
X127357550Y-88914200D01*
X128213681Y-88914200D01*
X128335043Y-88863930D01*
X128427930Y-88771043D01*
X128478200Y-88649681D01*
X128478200Y-89540704D01*
X128395673Y-89415073D01*
X128184640Y-89272623D01*
X127935000Y-89222560D01*
X127335000Y-89222560D01*
X127092877Y-89269537D01*
X126880073Y-89409327D01*
X126778603Y-89559650D01*
X126730681Y-89539800D01*
X126599319Y-89539800D01*
X126574550Y-89539800D01*
X126492000Y-89622350D01*
X126492000Y-90518000D01*
X126512000Y-90518000D01*
X126512000Y-90772000D01*
X126492000Y-90772000D01*
X126492000Y-91667650D01*
X126574550Y-91750200D01*
X126599319Y-91750200D01*
X126730681Y-91750200D01*
X126779194Y-91730105D01*
X126874327Y-91874927D01*
X127085360Y-92017377D01*
X127335000Y-92067440D01*
X127935000Y-92067440D01*
X128177123Y-92020463D01*
X128389927Y-91880673D01*
X128532377Y-91669640D01*
X128582440Y-91420000D01*
X128582440Y-94107000D01*
X123825000Y-94107000D01*
X123825000Y-92075000D01*
X125782605Y-92075000D01*
X126107405Y-91750200D01*
X126130681Y-91750200D01*
X126155450Y-91750200D01*
X126238000Y-91667650D01*
X126238000Y-90772000D01*
X126218000Y-90772000D01*
X126218000Y-90518000D01*
X126238000Y-90518000D01*
X126238000Y-89622350D01*
X126155450Y-89539800D01*
X126130681Y-89539800D01*
X126111000Y-89539800D01*
X126111000Y-88914200D01*
X126938450Y-88914200D01*
X127021000Y-88831650D01*
X127021000Y-88011000D01*
X127001000Y-88011000D01*
X127001000Y-87757000D01*
X127021000Y-87757000D01*
X127021000Y-87737000D01*
X127275000Y-87737000D01*
X127275000Y-87757000D01*
X128395650Y-87757000D01*
X128478200Y-87674450D01*
X128478200Y-87249681D01*
X128478200Y-87118319D01*
X128427930Y-86996957D01*
X128425973Y-86995000D01*
X130612800Y-86995000D01*
X130612800Y-87354450D01*
X130695350Y-87437000D01*
X131191000Y-87437000D01*
X131191000Y-87417000D01*
X131445000Y-87417000D01*
X131445000Y-87437000D01*
X131940650Y-87437000D01*
X132023200Y-87354450D01*
X132023200Y-86995000D01*
X132080000Y-86995000D01*
X132080000Y-88265000D01*
X132248027Y-88265000D01*
X132228060Y-88284967D01*
X132177790Y-88406329D01*
X132177790Y-90262710D01*
X132260340Y-90345260D01*
X133731000Y-90345260D01*
X133731000Y-90325260D01*
X133985000Y-90325260D01*
X133985000Y-90345260D01*
X135455660Y-90345260D01*
X135538210Y-90262710D01*
X135538210Y-88645916D01*
X136264776Y-88646550D01*
X137188197Y-88265000D01*
X137665327Y-88265000D01*
X137665327Y-88265000D01*
G37*
X137665327Y-88265000D02*
X137543618Y-94107000D01*
X135538210Y-94107000D01*
X135538210Y-92538191D01*
X135538210Y-90681810D01*
X135455660Y-90599260D01*
X133985000Y-90599260D01*
X133985000Y-92720160D01*
X134067550Y-92802710D01*
X135142329Y-92802710D01*
X135273691Y-92802710D01*
X135395053Y-92752440D01*
X135487940Y-92659553D01*
X135538210Y-92538191D01*
X135538210Y-94107000D01*
X133731000Y-94107000D01*
X133731000Y-92720160D01*
X133731000Y-90599260D01*
X132260340Y-90599260D01*
X132177790Y-90681810D01*
X132177790Y-92538191D01*
X132228060Y-92659553D01*
X132320947Y-92752440D01*
X132442309Y-92802710D01*
X132573671Y-92802710D01*
X133648450Y-92802710D01*
X133731000Y-92720160D01*
X133731000Y-94107000D01*
X132023200Y-94107000D01*
X132023200Y-88229681D01*
X132023200Y-87773550D01*
X131940650Y-87691000D01*
X131445000Y-87691000D01*
X131445000Y-88411650D01*
X131527550Y-88494200D01*
X131627319Y-88494200D01*
X131758681Y-88494200D01*
X131880043Y-88443930D01*
X131972930Y-88351043D01*
X132023200Y-88229681D01*
X132023200Y-94107000D01*
X131191000Y-94107000D01*
X131191000Y-88411650D01*
X131191000Y-87691000D01*
X130695350Y-87691000D01*
X130612800Y-87773550D01*
X130612800Y-88229681D01*
X130663070Y-88351043D01*
X130755957Y-88443930D01*
X130877319Y-88494200D01*
X131008681Y-88494200D01*
X131108450Y-88494200D01*
X131191000Y-88411650D01*
X131191000Y-94107000D01*
X128582440Y-94107000D01*
X128582440Y-91420000D01*
X128582440Y-89870000D01*
X128535463Y-89627877D01*
X128478200Y-89540704D01*
X128478200Y-88649681D01*
X128478200Y-88518319D01*
X128478200Y-88093550D01*
X128395650Y-88011000D01*
X127275000Y-88011000D01*
X127275000Y-88831650D01*
X127357550Y-88914200D01*
X128213681Y-88914200D01*
X128335043Y-88863930D01*
X128427930Y-88771043D01*
X128478200Y-88649681D01*
X128478200Y-89540704D01*
X128395673Y-89415073D01*
X128184640Y-89272623D01*
X127935000Y-89222560D01*
X127335000Y-89222560D01*
X127092877Y-89269537D01*
X126880073Y-89409327D01*
X126778603Y-89559650D01*
X126730681Y-89539800D01*
X126599319Y-89539800D01*
X126574550Y-89539800D01*
X126492000Y-89622350D01*
X126492000Y-90518000D01*
X126512000Y-90518000D01*
X126512000Y-90772000D01*
X126492000Y-90772000D01*
X126492000Y-91667650D01*
X126574550Y-91750200D01*
X126599319Y-91750200D01*
X126730681Y-91750200D01*
X126779194Y-91730105D01*
X126874327Y-91874927D01*
X127085360Y-92017377D01*
X127335000Y-92067440D01*
X127935000Y-92067440D01*
X128177123Y-92020463D01*
X128389927Y-91880673D01*
X128532377Y-91669640D01*
X128582440Y-91420000D01*
X128582440Y-94107000D01*
X123825000Y-94107000D01*
X123825000Y-92075000D01*
X125782605Y-92075000D01*
X126107405Y-91750200D01*
X126130681Y-91750200D01*
X126155450Y-91750200D01*
X126238000Y-91667650D01*
X126238000Y-90772000D01*
X126218000Y-90772000D01*
X126218000Y-90518000D01*
X126238000Y-90518000D01*
X126238000Y-89622350D01*
X126155450Y-89539800D01*
X126130681Y-89539800D01*
X126111000Y-89539800D01*
X126111000Y-88914200D01*
X126938450Y-88914200D01*
X127021000Y-88831650D01*
X127021000Y-88011000D01*
X127001000Y-88011000D01*
X127001000Y-87757000D01*
X127021000Y-87757000D01*
X127021000Y-87737000D01*
X127275000Y-87737000D01*
X127275000Y-87757000D01*
X128395650Y-87757000D01*
X128478200Y-87674450D01*
X128478200Y-87249681D01*
X128478200Y-87118319D01*
X128427930Y-86996957D01*
X128425973Y-86995000D01*
X130612800Y-86995000D01*
X130612800Y-87354450D01*
X130695350Y-87437000D01*
X131191000Y-87437000D01*
X131191000Y-87417000D01*
X131445000Y-87417000D01*
X131445000Y-87437000D01*
X131940650Y-87437000D01*
X132023200Y-87354450D01*
X132023200Y-86995000D01*
X132080000Y-86995000D01*
X132080000Y-88265000D01*
X132248027Y-88265000D01*
X132228060Y-88284967D01*
X132177790Y-88406329D01*
X132177790Y-90262710D01*
X132260340Y-90345260D01*
X133731000Y-90345260D01*
X133731000Y-90325260D01*
X133985000Y-90325260D01*
X133985000Y-90345260D01*
X135455660Y-90345260D01*
X135538210Y-90262710D01*
X135538210Y-88645916D01*
X136264776Y-88646550D01*
X137188197Y-88265000D01*
X137665327Y-88265000D01*
G36*
X131465000Y-85791000D02*
X131445000Y-85791000D01*
X131445000Y-85811000D01*
X131191000Y-85811000D01*
X131191000Y-85791000D01*
X130695350Y-85791000D01*
X130612800Y-85873550D01*
X130612800Y-85979000D01*
X130300200Y-85979000D01*
X130300200Y-85807550D01*
X130217650Y-85725000D01*
X129497000Y-85725000D01*
X129497000Y-85745000D01*
X129243000Y-85745000D01*
X129243000Y-85725000D01*
X129223000Y-85725000D01*
X129223000Y-85471000D01*
X129243000Y-85471000D01*
X129243000Y-85451000D01*
X129497000Y-85451000D01*
X129497000Y-85471000D01*
X130217650Y-85471000D01*
X130300200Y-85388450D01*
X130300200Y-85217000D01*
X130612800Y-85217000D01*
X130612800Y-85454450D01*
X130695350Y-85537000D01*
X131191000Y-85537000D01*
X131191000Y-85517000D01*
X131445000Y-85517000D01*
X131445000Y-85537000D01*
X131465000Y-85537000D01*
X131465000Y-85791000D01*
X131465000Y-85791000D01*
G37*
X131465000Y-85791000D02*
X131445000Y-85791000D01*
X131445000Y-85811000D01*
X131191000Y-85811000D01*
X131191000Y-85791000D01*
X130695350Y-85791000D01*
X130612800Y-85873550D01*
X130612800Y-85979000D01*
X130300200Y-85979000D01*
X130300200Y-85807550D01*
X130217650Y-85725000D01*
X129497000Y-85725000D01*
X129497000Y-85745000D01*
X129243000Y-85745000D01*
X129243000Y-85725000D01*
X129223000Y-85725000D01*
X129223000Y-85471000D01*
X129243000Y-85471000D01*
X129243000Y-85451000D01*
X129497000Y-85451000D01*
X129497000Y-85471000D01*
X130217650Y-85471000D01*
X130300200Y-85388450D01*
X130300200Y-85217000D01*
X130612800Y-85217000D01*
X130612800Y-85454450D01*
X130695350Y-85537000D01*
X131191000Y-85537000D01*
X131191000Y-85517000D01*
X131445000Y-85517000D01*
X131445000Y-85537000D01*
X131465000Y-85537000D01*
X131465000Y-85791000D01*
G36*
X115697000Y-103251000D02*
X115564000Y-103251000D01*
X115564000Y-103158250D01*
X115468750Y-103063000D01*
X114935000Y-103063000D01*
X114935000Y-103083000D01*
X114681000Y-103083000D01*
X114681000Y-103063000D01*
X114147250Y-103063000D01*
X114052000Y-103158250D01*
X114052000Y-103251000D01*
X113786000Y-103251000D01*
X113786000Y-103158250D01*
X113690750Y-103063000D01*
X113157000Y-103063000D01*
X113157000Y-103083000D01*
X112903000Y-103083000D01*
X112903000Y-103063000D01*
X112369250Y-103063000D01*
X112274000Y-103158250D01*
X112274000Y-103251000D01*
X112008000Y-103251000D01*
X112008000Y-103158250D01*
X111912750Y-103063000D01*
X111379000Y-103063000D01*
X111379000Y-103083000D01*
X111125000Y-103083000D01*
X111125000Y-103063000D01*
X110591250Y-103063000D01*
X110496000Y-103158250D01*
X110496000Y-103251000D01*
X110103000Y-103251000D01*
X110103000Y-103158250D01*
X110007750Y-103063000D01*
X109474000Y-103063000D01*
X109474000Y-103083000D01*
X109220000Y-103083000D01*
X109220000Y-103063000D01*
X108686250Y-103063000D01*
X108591000Y-103158250D01*
X108591000Y-103251000D01*
X108325000Y-103251000D01*
X108325000Y-103158250D01*
X108229750Y-103063000D01*
X107696000Y-103063000D01*
X107696000Y-103083000D01*
X107442000Y-103083000D01*
X107442000Y-103063000D01*
X106908250Y-103063000D01*
X106813000Y-103158250D01*
X106813000Y-103251000D01*
X105029000Y-103251000D01*
X105029000Y-106807000D01*
X101519990Y-106807000D01*
X101519990Y-106327795D01*
X101519990Y-106176224D01*
X101519990Y-105124250D01*
X101519990Y-104679750D01*
X101519990Y-103627776D01*
X101519990Y-103476205D01*
X101461986Y-103336171D01*
X101354810Y-103228994D01*
X101214776Y-103170990D01*
X99360990Y-103170990D01*
X99265740Y-103266240D01*
X99265740Y-104775000D01*
X101424740Y-104775000D01*
X101519990Y-104679750D01*
X101519990Y-105124250D01*
X101424740Y-105029000D01*
X99265740Y-105029000D01*
X99265740Y-106537760D01*
X99360990Y-106633010D01*
X101214776Y-106633010D01*
X101354810Y-106575006D01*
X101461986Y-106467829D01*
X101519990Y-106327795D01*
X101519990Y-106807000D01*
X97663000Y-106807000D01*
X97663000Y-106633010D01*
X98916490Y-106633010D01*
X99011740Y-106537760D01*
X99011740Y-105029000D01*
X98991740Y-105029000D01*
X98991740Y-104775000D01*
X99011740Y-104775000D01*
X99011740Y-103266240D01*
X98916490Y-103170990D01*
X97663000Y-103170990D01*
X97663000Y-101727000D01*
X93599000Y-101727000D01*
X93599000Y-96901000D01*
X97991395Y-96901000D01*
X98044000Y-96953605D01*
X98044000Y-99060000D01*
X98102004Y-99351605D01*
X98267185Y-99598815D01*
X98709145Y-100040775D01*
X98956355Y-100205956D01*
X98956356Y-100205956D01*
X99247960Y-100263960D01*
X100345773Y-100263960D01*
X100370977Y-100302327D01*
X100582010Y-100444777D01*
X100831650Y-100494840D01*
X101585235Y-100494840D01*
X101955430Y-100865035D01*
X101866180Y-100902004D01*
X101759004Y-101009181D01*
X101701000Y-101149215D01*
X101701000Y-101300786D01*
X101701000Y-101377750D01*
X101796250Y-101473000D01*
X102489000Y-101473000D01*
X102489000Y-101727000D01*
X101796250Y-101727000D01*
X101701000Y-101822250D01*
X101701000Y-101899214D01*
X101701000Y-102050785D01*
X101759004Y-102190819D01*
X101866180Y-102297996D01*
X102006214Y-102356000D01*
X102459750Y-102356000D01*
X102489000Y-102326750D01*
X102489000Y-102489000D01*
X103608840Y-102489000D01*
X103732360Y-102572377D01*
X103982000Y-102622440D01*
X105182000Y-102622440D01*
X105424123Y-102575463D01*
X105555746Y-102489000D01*
X106813000Y-102489000D01*
X106813000Y-102713750D01*
X106908250Y-102809000D01*
X107442000Y-102809000D01*
X107442000Y-102789000D01*
X107696000Y-102789000D01*
X107696000Y-102809000D01*
X108229750Y-102809000D01*
X108325000Y-102713750D01*
X108325000Y-102489000D01*
X108591000Y-102489000D01*
X108591000Y-102713750D01*
X108686250Y-102809000D01*
X109220000Y-102809000D01*
X109220000Y-102789000D01*
X109474000Y-102789000D01*
X109474000Y-102809000D01*
X110007750Y-102809000D01*
X110103000Y-102713750D01*
X110103000Y-102489000D01*
X110496000Y-102489000D01*
X110496000Y-102713750D01*
X110591250Y-102809000D01*
X111125000Y-102809000D01*
X111125000Y-102789000D01*
X111379000Y-102789000D01*
X111379000Y-102809000D01*
X111912750Y-102809000D01*
X112008000Y-102713750D01*
X112008000Y-102489000D01*
X112274000Y-102489000D01*
X112274000Y-102713750D01*
X112369250Y-102809000D01*
X112903000Y-102809000D01*
X112903000Y-102789000D01*
X113157000Y-102789000D01*
X113157000Y-102809000D01*
X113690750Y-102809000D01*
X113786000Y-102713750D01*
X113786000Y-102489000D01*
X114052000Y-102489000D01*
X114052000Y-102713750D01*
X114147250Y-102809000D01*
X114681000Y-102809000D01*
X114681000Y-102789000D01*
X114935000Y-102789000D01*
X114935000Y-102809000D01*
X115468750Y-102809000D01*
X115564000Y-102713750D01*
X115564000Y-102489000D01*
X115697000Y-102489000D01*
X115697000Y-103251000D01*
X115697000Y-103251000D01*
G37*
X115697000Y-103251000D02*
X115564000Y-103251000D01*
X115564000Y-103158250D01*
X115468750Y-103063000D01*
X114935000Y-103063000D01*
X114935000Y-103083000D01*
X114681000Y-103083000D01*
X114681000Y-103063000D01*
X114147250Y-103063000D01*
X114052000Y-103158250D01*
X114052000Y-103251000D01*
X113786000Y-103251000D01*
X113786000Y-103158250D01*
X113690750Y-103063000D01*
X113157000Y-103063000D01*
X113157000Y-103083000D01*
X112903000Y-103083000D01*
X112903000Y-103063000D01*
X112369250Y-103063000D01*
X112274000Y-103158250D01*
X112274000Y-103251000D01*
X112008000Y-103251000D01*
X112008000Y-103158250D01*
X111912750Y-103063000D01*
X111379000Y-103063000D01*
X111379000Y-103083000D01*
X111125000Y-103083000D01*
X111125000Y-103063000D01*
X110591250Y-103063000D01*
X110496000Y-103158250D01*
X110496000Y-103251000D01*
X110103000Y-103251000D01*
X110103000Y-103158250D01*
X110007750Y-103063000D01*
X109474000Y-103063000D01*
X109474000Y-103083000D01*
X109220000Y-103083000D01*
X109220000Y-103063000D01*
X108686250Y-103063000D01*
X108591000Y-103158250D01*
X108591000Y-103251000D01*
X108325000Y-103251000D01*
X108325000Y-103158250D01*
X108229750Y-103063000D01*
X107696000Y-103063000D01*
X107696000Y-103083000D01*
X107442000Y-103083000D01*
X107442000Y-103063000D01*
X106908250Y-103063000D01*
X106813000Y-103158250D01*
X106813000Y-103251000D01*
X105029000Y-103251000D01*
X105029000Y-106807000D01*
X101519990Y-106807000D01*
X101519990Y-106327795D01*
X101519990Y-106176224D01*
X101519990Y-105124250D01*
X101519990Y-104679750D01*
X101519990Y-103627776D01*
X101519990Y-103476205D01*
X101461986Y-103336171D01*
X101354810Y-103228994D01*
X101214776Y-103170990D01*
X99360990Y-103170990D01*
X99265740Y-103266240D01*
X99265740Y-104775000D01*
X101424740Y-104775000D01*
X101519990Y-104679750D01*
X101519990Y-105124250D01*
X101424740Y-105029000D01*
X99265740Y-105029000D01*
X99265740Y-106537760D01*
X99360990Y-106633010D01*
X101214776Y-106633010D01*
X101354810Y-106575006D01*
X101461986Y-106467829D01*
X101519990Y-106327795D01*
X101519990Y-106807000D01*
X97663000Y-106807000D01*
X97663000Y-106633010D01*
X98916490Y-106633010D01*
X99011740Y-106537760D01*
X99011740Y-105029000D01*
X98991740Y-105029000D01*
X98991740Y-104775000D01*
X99011740Y-104775000D01*
X99011740Y-103266240D01*
X98916490Y-103170990D01*
X97663000Y-103170990D01*
X97663000Y-101727000D01*
X93599000Y-101727000D01*
X93599000Y-96901000D01*
X97991395Y-96901000D01*
X98044000Y-96953605D01*
X98044000Y-99060000D01*
X98102004Y-99351605D01*
X98267185Y-99598815D01*
X98709145Y-100040775D01*
X98956355Y-100205956D01*
X98956356Y-100205956D01*
X99247960Y-100263960D01*
X100345773Y-100263960D01*
X100370977Y-100302327D01*
X100582010Y-100444777D01*
X100831650Y-100494840D01*
X101585235Y-100494840D01*
X101955430Y-100865035D01*
X101866180Y-100902004D01*
X101759004Y-101009181D01*
X101701000Y-101149215D01*
X101701000Y-101300786D01*
X101701000Y-101377750D01*
X101796250Y-101473000D01*
X102489000Y-101473000D01*
X102489000Y-101727000D01*
X101796250Y-101727000D01*
X101701000Y-101822250D01*
X101701000Y-101899214D01*
X101701000Y-102050785D01*
X101759004Y-102190819D01*
X101866180Y-102297996D01*
X102006214Y-102356000D01*
X102459750Y-102356000D01*
X102489000Y-102326750D01*
X102489000Y-102489000D01*
X103608840Y-102489000D01*
X103732360Y-102572377D01*
X103982000Y-102622440D01*
X105182000Y-102622440D01*
X105424123Y-102575463D01*
X105555746Y-102489000D01*
X106813000Y-102489000D01*
X106813000Y-102713750D01*
X106908250Y-102809000D01*
X107442000Y-102809000D01*
X107442000Y-102789000D01*
X107696000Y-102789000D01*
X107696000Y-102809000D01*
X108229750Y-102809000D01*
X108325000Y-102713750D01*
X108325000Y-102489000D01*
X108591000Y-102489000D01*
X108591000Y-102713750D01*
X108686250Y-102809000D01*
X109220000Y-102809000D01*
X109220000Y-102789000D01*
X109474000Y-102789000D01*
X109474000Y-102809000D01*
X110007750Y-102809000D01*
X110103000Y-102713750D01*
X110103000Y-102489000D01*
X110496000Y-102489000D01*
X110496000Y-102713750D01*
X110591250Y-102809000D01*
X111125000Y-102809000D01*
X111125000Y-102789000D01*
X111379000Y-102789000D01*
X111379000Y-102809000D01*
X111912750Y-102809000D01*
X112008000Y-102713750D01*
X112008000Y-102489000D01*
X112274000Y-102489000D01*
X112274000Y-102713750D01*
X112369250Y-102809000D01*
X112903000Y-102809000D01*
X112903000Y-102789000D01*
X113157000Y-102789000D01*
X113157000Y-102809000D01*
X113690750Y-102809000D01*
X113786000Y-102713750D01*
X113786000Y-102489000D01*
X114052000Y-102489000D01*
X114052000Y-102713750D01*
X114147250Y-102809000D01*
X114681000Y-102809000D01*
X114681000Y-102789000D01*
X114935000Y-102789000D01*
X114935000Y-102809000D01*
X115468750Y-102809000D01*
X115564000Y-102713750D01*
X115564000Y-102489000D01*
X115697000Y-102489000D01*
X115697000Y-103251000D01*
M02*
